<svg width="516" height="516" viewBox="0 0 516 516" fill="none" xmlns="http://www.w3.org/2000/svg">
<g clip-path="url(#clip0_25_206)">
<path d="M257.8 515.59C198.153 515.594 140.351 494.916 94.241 457.08C48.1312 419.243 16.5675 366.589 4.92799 308.09C-6.71154 249.59 2.29329 188.864 30.4082 136.259C58.5231 83.6543 104.008 42.4255 159.114 19.598C214.219 -3.22963 275.535 -6.24365 332.614 11.0695C389.693 28.3826 439.002 64.9516 472.141 114.545C505.279 164.139 520.196 223.689 514.35 283.049C508.504 342.408 482.257 397.904 440.08 440.08C416.198 464.093 387.791 483.13 356.503 496.092C325.215 509.053 291.666 515.68 257.8 515.59Z" fill="url(#paint0_linear_25_206)"/>
<path style="mix-blend-mode:screen" opacity="0.5" d="M99.5899 435.2C97.0625 435.203 94.5594 434.707 92.224 433.741C89.8885 432.775 87.7666 431.358 85.9799 429.57C60.3399 403.854 40.7914 372.717 28.7725 338.449C16.7537 304.181 12.5704 267.655 16.5303 231.557C20.4902 195.459 32.4926 160.708 51.6545 129.861C70.8164 99.0138 96.6502 72.8549 127.255 53.3088C157.861 33.7628 192.459 21.3268 228.504 16.9159C264.55 12.505 301.125 16.2314 335.541 27.8208C369.956 39.4102 401.335 58.5679 427.37 83.8844C453.405 109.201 473.432 140.032 485.98 174.11C487.734 178.902 487.513 184.196 485.365 188.825C483.217 193.454 479.317 197.041 474.525 198.795C469.733 200.549 464.439 200.328 459.81 198.18C455.181 196.032 451.594 192.132 449.84 187.34C439.307 158.617 422.464 132.623 400.552 111.273C378.64 89.9237 352.217 73.7625 323.229 63.9804C294.242 54.1983 263.429 51.0447 233.061 54.7518C202.693 58.4589 173.544 68.9323 147.761 85.4004C121.978 101.868 100.219 123.912 84.0861 149.905C67.9533 175.899 57.8581 205.182 54.5445 235.595C51.2309 266.009 54.7833 296.778 64.9399 325.636C75.0965 354.494 91.5984 380.706 113.23 402.34C115.922 405.03 117.756 408.458 118.5 412.191C119.243 415.924 118.863 419.793 117.407 423.31C115.951 426.826 113.485 429.832 110.321 431.947C107.156 434.061 103.436 435.19 99.63 435.19L99.5899 435.2Z" fill="url(#paint1_linear_25_206)"/>
<path style="mix-blend-mode:screen" opacity="0.8" d="M11.8099 276.81C11.8099 209.53 38.69 146.28 87.51 98.7001C136.33 51.1201 201.23 24.9201 270.26 24.9201C325.48 24.9201 378.05 41.7101 421.86 72.7601C386.212 41.1486 342.19 20.5084 295.089 13.3219C247.989 6.13536 199.815 12.7084 156.362 32.2507C112.909 51.7929 76.0257 83.4721 50.1492 123.478C24.2727 163.485 10.5044 210.115 10.5 257.76C10.5045 266.726 10.9885 275.686 11.95 284.6C11.86 282.03 11.8099 279.43 11.8099 276.81Z" fill="url(#paint2_radial_25_206)"/>
<path style="mix-blend-mode:multiply" opacity="0.5" d="M440.08 75.5001C397.906 33.3288 342.415 7.08525 283.062 1.24087C223.708 -4.6035 164.164 10.3129 114.575 43.4486C64.9863 76.5843 28.4208 125.889 11.109 182.962C-6.20279 240.035 -3.18991 301.345 19.6344 356.445C42.4587 411.546 83.6824 457.028 136.281 485.142C188.88 513.256 249.599 522.262 308.094 510.626C366.589 498.991 419.24 467.433 457.075 421.33C494.911 375.227 515.59 317.431 515.59 257.79C515.684 223.922 509.058 190.371 496.097 159.081C483.135 127.79 464.096 99.3818 440.08 75.5001ZM431.33 422.15C384.19 467.62 321.51 492.66 254.84 492.66C188.17 492.66 125.5 467.66 78.35 422.15C31.2 376.64 5.25001 316.22 5.25001 251.92C5.25001 187.62 31.25 127.16 78.35 81.69C125.45 36.22 188.18 11.15 254.84 11.15C321.5 11.15 384.19 36.15 431.33 81.66C478.47 127.17 504.44 187.58 504.44 251.89C504.44 316.2 478.48 376.65 431.33 422.15Z" fill="url(#paint3_linear_25_206)"/>
<path style="mix-blend-mode:multiply" d="M433.59 426.37C386.45 471.84 321.84 497.87 255.17 497.87C190.44 497.87 123.32 472.29 82.45 432.28C82.45 437.19 82.58 442.12 82.77 447.04C118.358 479.952 162.504 502.163 210.141 511.125C257.779 520.088 306.979 515.438 352.094 497.709C397.209 479.98 436.412 449.891 465.203 410.895C493.995 371.899 511.209 325.575 514.87 277.24C512.33 273.36 509.72 269.527 507.04 265.74C500.72 339.35 478.31 383.24 433.59 426.37Z" fill="url(#paint4_radial_25_206)"/>
<path style="mix-blend-mode:multiply" opacity="0.3" d="M258.53 467.04C206.42 467.04 157.43 445.89 120.59 407.47C83.75 369.05 63.45 317.96 63.45 263.63C63.45 209.3 83.74 158.21 120.59 119.79C157.44 81.37 204.98 64.28 257.09 64.28C309.2 64.28 359.63 81.37 396.48 119.79C433.33 158.21 453.59 209.3 453.59 263.63C453.59 317.96 437.66 370.31 400.81 408.73C363.96 447.15 310.64 467.04 258.53 467.04Z" fill="url(#paint5_linear_25_206)"/>
<path style="mix-blend-mode:multiply" opacity="0.5" d="M258.53 460.48C208.12 460.48 160.73 440.01 125.08 402.85C89.43 365.69 69.7999 316.26 69.7999 263.7C69.7999 211.14 89.43 161.7 125.08 124.54C160.73 87.3801 206.73 70.8401 257.14 70.8401C307.55 70.8401 356.34 87.3801 391.98 124.54C427.62 161.7 447.26 211.13 447.26 263.7C447.26 316.27 431.85 366.9 396.2 404.07C360.55 441.24 308.94 460.48 258.53 460.48Z" fill="url(#paint6_linear_25_206)"/>
<path d="M257.8 439.49C215.763 439.491 175.026 424.915 142.53 398.248C110.035 371.58 87.7907 334.47 79.5891 293.24C71.3875 252.011 77.7354 209.213 97.5512 172.139C117.367 135.065 149.425 106.009 188.262 89.922C227.099 73.8345 270.313 71.711 310.54 83.9133C350.767 96.1156 385.519 121.889 408.874 156.841C432.229 191.794 442.743 233.763 438.623 275.598C434.503 317.433 416.004 356.545 386.28 386.27C369.447 403.195 349.424 416.613 327.37 425.749C305.317 434.884 281.671 439.554 257.8 439.49Z" fill="url(#paint7_linear_25_206)"/>
<path style="mix-blend-mode:screen" opacity="0.6" d="M241.4 337.82C203.4 339.75 167.63 328.66 140.74 306.61C113.85 284.56 99.0499 254.17 99.0499 221.06C99.0499 187.95 113.86 156.06 140.74 131.28C167.62 106.5 203.38 91.79 241.4 89.87C279.42 87.95 315.16 99.02 342.05 121.08C368.94 143.14 383.74 173.51 383.74 206.63C383.74 239.75 368.94 271.63 342.05 296.41C315.16 321.19 279.42 335.89 241.4 337.82Z" fill="url(#paint8_linear_25_206)"/>
<path style="mix-blend-mode:multiply" opacity="0.3" d="M229.31 316.15C176.45 316.15 126.74 299.15 89.21 268.28C94.82 299.2 110.55 327.68 134.9 350.28C165.84 379.03 206.82 397.48 250.58 397.48C294.34 397.48 335.64 379.03 366.58 350.28C397.52 321.53 414.58 283.28 414.58 242.67C414.586 233.868 413.779 225.084 412.17 216.43C389.65 296.49 282.49 316.15 229.31 316.15Z" fill="url(#paint9_linear_25_206)"/>
<path style="mix-blend-mode:multiply" opacity="0.4" d="M386.28 129.31C356.556 99.5881 317.446 81.0919 275.614 76.9729C233.781 72.854 191.815 83.3671 156.865 106.721C121.915 130.075 96.1438 164.825 83.9425 205.05C71.7412 245.275 73.8647 288.486 89.9511 327.32C106.038 366.155 135.092 398.211 172.163 418.025C209.234 437.84 252.029 444.188 293.256 435.987C334.483 427.787 371.591 405.545 398.258 373.052C424.924 340.559 439.499 299.825 439.5 257.79C439.565 233.919 434.895 210.273 425.759 188.219C416.624 166.166 403.205 146.143 386.28 129.31ZM368.65 354.22C337.49 384.08 296.07 400.52 252 400.52C207.93 400.52 166.5 384.08 135.34 354.22C104.18 324.36 85.9299 286.22 85.9299 244.02C85.9299 201.82 103.09 162.09 134.25 132.23C165.41 102.37 206.84 85.9301 250.91 85.9301C294.98 85.9301 336.4 102.37 367.56 132.23C398.72 162.09 415.88 201.79 415.88 244.02C415.88 286.25 399.81 324.36 368.65 354.22Z" fill="url(#paint10_linear_25_206)"/>
<path style="mix-blend-mode:multiply" d="M375.59 362.75C344.43 392.6 302.78 411.94 253.59 410.96C209.54 410.08 135.18 390.08 89.27 324.48C90.61 335.15 114.19 375.21 133.76 390.48C159.63 414.67 192.006 430.772 226.907 436.806C261.807 442.84 297.71 438.542 330.2 424.441C362.69 410.34 390.351 387.051 409.78 357.437C429.209 327.824 439.56 293.178 439.56 257.76C439.56 252.033 439.293 246.35 438.76 240.71C438.68 228.24 430.37 196.32 424.9 185.61C439.49 282.94 406.7 332.89 375.59 362.75Z" fill="url(#paint11_radial_25_206)"/>
<path d="M209.91 104.95C197.75 101.95 175.14 116.76 174.49 125.29C173.63 136.48 188.92 134.47 205.32 125.94C218.4 119.15 217.78 106.92 209.91 104.95Z" fill="#E5FFFF"/>
<path d="M152.67 140.2C143.9 140.84 137.42 147.72 138.86 153.55C140.75 161.21 148.99 160 155.27 153.79C162.59 146.51 158.36 139.77 152.67 140.2Z" fill="#E5FFFF"/>
<path style="mix-blend-mode:multiply" opacity="0.2" d="M336.76 363.55C328.732 363.554 320.978 360.632 314.95 355.33L259.51 306.67L204.08 355.33C197.488 361.117 188.867 364.048 180.114 363.479C171.361 362.91 163.192 358.887 157.405 352.295C151.618 345.703 148.687 337.082 149.256 328.329C149.825 319.576 153.848 311.407 160.44 305.62L209.38 262.62L160.44 219.62C153.966 213.8 150.047 205.663 149.533 196.973C149.019 188.283 151.951 179.74 157.693 173.198C163.436 166.655 171.526 162.64 180.21 162.022C188.893 161.405 197.47 164.236 204.08 169.9L259.51 218.57L314.95 169.9C318.22 167.035 322.022 164.841 326.14 163.445C330.257 162.049 334.609 161.478 338.948 161.764C343.286 162.05 347.526 163.188 351.424 165.112C355.323 167.037 358.805 169.71 361.67 172.98C364.535 176.25 366.729 180.052 368.125 184.17C369.521 188.287 370.092 192.64 369.806 196.978C369.52 201.316 368.382 205.556 366.458 209.454C364.533 213.353 361.86 216.835 358.59 219.7L309.65 262.7L358.59 305.7C363.641 310.138 367.22 316.01 368.849 322.534C370.479 329.058 370.081 335.923 367.71 342.215C365.339 348.507 361.107 353.927 355.577 357.753C350.048 361.579 343.484 363.629 336.76 363.63V363.55Z" fill="url(#paint12_linear_25_206)"/>
<path style="mix-blend-mode:multiply" opacity="0.3" d="M336.76 358.82C329.887 358.832 323.244 356.344 318.07 351.82L259.51 300.42L200.96 351.82C198.158 354.274 194.901 356.152 191.373 357.346C187.846 358.541 184.117 359.029 180.401 358.783C176.685 358.537 173.054 357.562 169.714 355.912C166.375 354.263 163.394 351.972 160.94 349.17C158.486 346.368 156.608 343.111 155.413 339.583C154.219 336.056 153.73 332.327 153.976 328.611C154.222 324.895 155.198 321.264 156.848 317.924C158.497 314.585 160.788 311.604 163.59 309.15L216.59 262.64L163.59 216.15C158.049 211.16 154.696 204.189 154.259 196.745C153.822 189.301 156.335 181.985 161.254 176.381C166.173 170.777 173.101 167.336 180.539 166.805C187.976 166.273 195.324 168.693 200.99 173.54L259.54 224.93L318.09 173.54C320.87 170.975 324.136 168.992 327.694 167.709C331.252 166.425 335.031 165.867 338.809 166.067C342.586 166.266 346.286 167.22 349.689 168.871C353.092 170.522 356.13 172.838 358.625 175.681C361.119 178.525 363.02 181.839 364.214 185.428C365.408 189.017 365.871 192.809 365.577 196.581C365.283 200.352 364.238 204.026 362.502 207.387C360.766 210.748 358.375 213.727 355.47 216.15L302.47 262.66L355.47 309.17C359.8 312.973 362.868 318.006 364.265 323.598C365.662 329.189 365.322 335.074 363.29 340.467C361.257 345.86 357.63 350.506 352.89 353.785C348.15 357.064 342.523 358.82 336.76 358.82Z" fill="url(#paint13_linear_25_206)"/>
<path style="mix-blend-mode:multiply" opacity="0.4" d="M336.76 354.15C331.027 354.146 325.491 352.06 321.18 348.28L259.51 294.14L197.85 348.28C193.141 352.413 186.983 354.507 180.73 354.1C174.478 353.693 168.643 350.819 164.51 346.11C160.376 341.401 158.283 335.243 158.69 328.991C159.097 322.738 161.971 316.903 166.68 312.77L223.68 262.71L166.68 212.65C161.971 208.517 159.097 202.682 158.69 196.429C158.283 190.177 160.376 184.019 164.51 179.31C168.643 174.601 174.478 171.727 180.73 171.32C186.983 170.913 193.141 173.007 197.85 177.14L259.51 231.27L321.18 177.14C325.889 173.007 332.047 170.913 338.299 171.32C344.552 171.727 350.386 174.601 354.52 179.31C358.653 184.019 360.747 190.177 360.34 196.429C359.933 202.682 357.059 208.517 352.35 212.65L295.35 262.71L352.35 312.77C355.963 315.938 358.524 320.132 359.691 324.793C360.858 329.455 360.575 334.361 358.881 338.857C357.187 343.354 354.162 347.227 350.209 349.959C346.257 352.692 341.565 354.154 336.76 354.15Z" fill="url(#paint14_linear_25_206)"/>
<path d="M350.8 314.49L291.74 262.66L350.8 210.82C355.043 207.099 357.635 201.845 358.004 196.213C358.374 190.581 356.491 185.033 352.77 180.79C349.049 176.547 343.795 173.955 338.163 173.586C332.531 173.216 326.983 175.099 322.74 178.82L259.51 234.32L196.29 178.82C192.046 175.099 186.499 173.216 180.867 173.586C175.235 173.955 169.981 176.547 166.26 180.79C162.539 185.033 160.656 190.581 161.026 196.213C161.395 201.845 163.986 207.099 168.23 210.82L227.28 262.66L168.23 314.49C166.129 316.332 164.411 318.571 163.175 321.077C161.939 323.583 161.208 326.308 161.026 329.097C160.843 331.886 161.211 334.683 162.109 337.329C163.007 339.975 164.417 342.419 166.26 344.52C168.102 346.621 170.341 348.339 172.847 349.575C175.353 350.811 178.079 351.542 180.867 351.724C183.656 351.907 186.453 351.539 189.099 350.641C191.745 349.743 194.189 348.332 196.29 346.49L259.51 290.99L322.74 346.49C326.983 350.211 332.531 352.094 338.163 351.724C343.795 351.355 349.049 348.763 352.77 344.52C356.491 340.277 358.374 334.729 358.004 329.097C357.635 323.465 355.043 318.211 350.8 314.49Z" fill="url(#paint15_linear_25_206)"/>
<path style="mix-blend-mode:multiply" d="M350.8 314.49L291.74 262.66L350.8 210.82C355.043 207.099 357.635 201.845 358.004 196.213C358.374 190.581 356.491 185.033 352.77 180.79C349.049 176.547 343.795 173.955 338.163 173.586C332.531 173.216 326.983 175.099 322.74 178.82L259.51 234.32L196.29 178.82C192.046 175.099 186.499 173.216 180.867 173.586C175.235 173.955 169.981 176.547 166.26 180.79C162.539 185.033 160.656 190.581 161.026 196.213C161.395 201.845 163.986 207.099 168.23 210.82L227.28 262.66L168.23 314.49C166.129 316.332 164.411 318.571 163.175 321.077C161.939 323.583 161.208 326.308 161.026 329.097C160.843 331.886 161.211 334.683 162.109 337.329C163.007 339.975 164.417 342.419 166.26 344.52C168.102 346.621 170.341 348.339 172.847 349.575C175.353 350.811 178.079 351.542 180.867 351.724C183.656 351.907 186.453 351.539 189.099 350.641C191.745 349.743 194.189 348.332 196.29 346.49L259.51 290.99L322.74 346.49C326.983 350.211 332.531 352.094 338.163 351.724C343.795 351.355 349.049 348.763 352.77 344.52C356.491 340.277 358.374 334.729 358.004 329.097C357.635 323.465 355.043 318.211 350.8 314.49ZM345.39 339.2C341.45 343.7 334.19 349.13 322.24 339.67C278.65 305.18 263.53 285.67 258.92 286.28C254.31 286.89 197.03 339.67 197.03 339.67C183.8 348.18 175.93 343.99 171.98 339.49C164.71 331.21 168.42 323.32 176.71 316.05C176.71 316.05 234.71 270.22 234.83 266.44C234.95 262.66 175.29 213.52 175.29 213.52C164.54 203.12 161.71 193.52 170.21 183.99C177.56 175.77 186.99 179.14 199.63 191.07C199.63 191.07 257.07 245.27 262 244.94C267.31 244.58 322.71 188.47 322.71 188.47C332.52 179.38 342.25 175.7 349.53 183.99C356.81 192.28 354.72 200.17 342.44 211.99C342.44 211.99 282.19 260.42 282.55 264.56C282.91 268.7 341.61 316.56 341.61 316.56C349.9 323.79 352.66 330.92 345.39 339.2Z" fill="url(#paint16_linear_25_206)"/>
<path style="mix-blend-mode:screen" opacity="0.5" d="M241.09 264.07C241.09 264.07 181.73 213.58 178.36 210.21C172.69 204.54 165.96 197.45 171.63 188.59C175.9 181.92 184.03 182.59 192.54 190.01C192.54 190.01 249.95 243.87 255.26 246.71C260.57 249.55 262 252.03 268.73 247.06C275.46 242.09 326.49 191.43 329.73 188.95C332.97 186.47 341.07 180.44 346.03 185.76C350.99 191.08 351.03 196.76 345.68 202.76C340.33 208.76 280.47 258.76 278.35 262.65C276.23 266.54 291.1 277.18 293.58 280.37C296.06 283.56 241.09 264.07 241.09 264.07Z" fill="url(#paint17_linear_25_206)"/>
</g>
<defs>
<linearGradient id="paint0_linear_25_206" x1="257.8" y1="199.41" x2="257.8" y2="517.24" gradientUnits="userSpaceOnUse">
<stop stop-color="#D9923C"/>
<stop offset="1" stop-color="#BD6519"/>
</linearGradient>
<linearGradient id="paint1_linear_25_206" x1="155.16" y1="61.05" x2="273.23" y2="287.36" gradientUnits="userSpaceOnUse">
<stop stop-color="#FFD37E"/>
<stop offset="1"/>
</linearGradient>
<radialGradient id="paint2_radial_25_206" cx="0" cy="0" r="1" gradientUnits="userSpaceOnUse" gradientTransform="translate(139.07 52.4701) scale(244.19 244.19)">
<stop stop-color="#FFD37E"/>
<stop offset="1"/>
</radialGradient>
<linearGradient id="paint3_linear_25_206" x1="145.52" y1="-161.39" x2="293.11" y2="389.62" gradientUnits="userSpaceOnUse">
<stop stop-color="white"/>
<stop offset="1" stop-color="#BD6519"/>
</linearGradient>
<radialGradient id="paint4_radial_25_206" cx="0" cy="0" r="1" gradientUnits="userSpaceOnUse" gradientTransform="translate(354.22 509.03) scale(247.6 247.6)">
<stop stop-color="#A95C19"/>
<stop offset="1" stop-color="white"/>
</radialGradient>
<linearGradient id="paint5_linear_25_206" x1="331.19" y1="357.26" x2="466.94" y2="532.2" gradientUnits="userSpaceOnUse">
<stop stop-color="#8B4519"/>
<stop offset="1" stop-color="white"/>
</linearGradient>
<linearGradient id="paint6_linear_25_206" x1="312.57" y1="345.78" x2="449.01" y2="553.07" gradientUnits="userSpaceOnUse">
<stop stop-color="#8B4519"/>
<stop offset="1" stop-color="white"/>
</linearGradient>
<linearGradient id="paint7_linear_25_206" x1="250.36" y1="214.25" x2="290.39" y2="448.68" gradientUnits="userSpaceOnUse">
<stop stop-color="#32A9E5"/>
<stop offset="1" stop-color="#007FC3"/>
</linearGradient>
<linearGradient id="paint8_linear_25_206" x1="219.13" y1="116.7" x2="248" y2="242.64" gradientUnits="userSpaceOnUse">
<stop stop-color="#35B5FF"/>
<stop offset="1"/>
</linearGradient>
<linearGradient id="paint9_linear_25_206" x1="268.82" y1="368.86" x2="254.39" y2="267.84" gradientUnits="userSpaceOnUse">
<stop stop-color="white"/>
<stop offset="1" stop-color="#0072B5"/>
</linearGradient>
<linearGradient id="paint10_linear_25_206" x1="128.54" y1="-170.09" x2="242.68" y2="207.74" gradientUnits="userSpaceOnUse">
<stop stop-color="white"/>
<stop offset="1" stop-color="#0072B5"/>
</linearGradient>
<radialGradient id="paint11_radial_25_206" cx="0" cy="0" r="1" gradientUnits="userSpaceOnUse" gradientTransform="translate(321.54 399.28) scale(258.75 258.75)">
<stop stop-color="#00639F"/>
<stop offset="1" stop-color="white"/>
</radialGradient>
<linearGradient id="paint12_linear_25_206" x1="214.78" y1="-10.36" x2="255.89" y2="240.53" gradientUnits="userSpaceOnUse">
<stop stop-color="white"/>
<stop offset="1" stop-color="#0072B5"/>
</linearGradient>
<linearGradient id="paint13_linear_25_206" x1="240.61" y1="84.52" x2="252.9" y2="200.28" gradientUnits="userSpaceOnUse">
<stop stop-color="white"/>
<stop offset="1" stop-color="#0072B5"/>
</linearGradient>
<linearGradient id="paint14_linear_25_206" x1="223.95" y1="84.86" x2="243.09" y2="180.54" gradientUnits="userSpaceOnUse">
<stop stop-color="white"/>
<stop offset="1" stop-color="#0072B5"/>
</linearGradient>
<linearGradient id="paint15_linear_25_206" x1="259.51" y1="221.55" x2="259.51" y2="311.03" gradientUnits="userSpaceOnUse">
<stop stop-color="#F9C849"/>
<stop offset="1" stop-color="#ED7C18"/>
</linearGradient>
<linearGradient id="paint16_linear_25_206" x1="234.19" y1="55.81" x2="253.32" y2="212.09" gradientUnits="userSpaceOnUse">
<stop stop-color="white"/>
<stop offset="1" stop-color="#BD6F31"/>
</linearGradient>
<linearGradient id="paint17_linear_25_206" x1="258.98" y1="204.1" x2="255.44" y2="261.51" gradientUnits="userSpaceOnUse">
<stop stop-color="#FFEA7E"/>
<stop offset="1"/>
</linearGradient>
<clipPath id="clip0_25_206">
<rect width="515.59" height="515.59" fill="white"/>
</clipPath>
</defs>
</svg>
