<svg width="516" height="516" viewBox="0 0 516 516" fill="none" xmlns="http://www.w3.org/2000/svg">
<g clip-path="url(#clip0_25_28)">
<path d="M257.79 515.59C198.149 515.59 140.354 494.91 94.2505 457.075C48.1474 419.239 16.5894 366.589 4.95362 308.094C-6.68215 249.599 2.32421 188.88 30.4381 136.281C58.552 83.6822 104.034 42.4587 159.135 19.6344C214.235 -3.18991 275.545 -6.20279 332.618 11.109C389.691 28.4208 438.996 64.9862 472.131 114.575C505.267 164.164 520.184 223.708 514.339 283.062C508.495 342.415 482.251 397.906 440.08 440.08C416.197 464.094 387.788 483.132 356.498 496.094C325.208 509.055 291.658 515.681 257.79 515.59Z" fill="url(#paint0_linear_25_28)"/>
<path style="mix-blend-mode:screen" opacity="0.5" d="M99.6199 435.19C97.0931 435.193 94.5907 434.696 92.2566 433.728C89.9226 432.76 87.803 431.34 86.0199 429.55C60.3869 403.833 40.845 372.697 28.8317 338.431C16.8184 304.166 12.6393 267.644 16.6019 231.551C20.5644 195.458 32.5677 160.712 51.7289 129.869C70.8902 99.0265 96.7219 72.8715 127.324 53.3283C157.926 33.7851 192.52 21.3508 228.561 16.9398C264.602 12.5288 301.174 16.2535 335.586 27.8398C369.997 39.4261 401.374 58.5794 427.408 83.8907C453.442 109.202 473.47 140.028 486.02 174.1C486.931 176.481 487.359 179.02 487.28 181.569C487.201 184.117 486.616 186.625 485.56 188.945C484.503 191.266 482.996 193.353 481.126 195.086C479.255 196.819 477.059 198.162 474.665 199.039C472.271 199.916 469.726 200.308 467.179 200.193C464.632 200.077 462.133 199.457 459.828 198.367C457.523 197.278 455.457 195.741 453.751 193.846C452.045 191.951 450.732 189.736 449.89 187.33C439.357 158.607 422.514 132.613 400.602 111.263C378.69 89.9136 352.267 73.7524 323.279 63.9703C294.292 54.1882 263.479 51.0345 233.111 54.7417C202.743 58.4488 173.594 68.9223 147.811 85.3903C122.029 101.858 100.269 123.901 84.1362 149.895C68.0033 175.889 57.9082 205.172 54.5945 235.585C51.2809 265.998 54.8334 296.768 64.9899 325.626C75.1465 354.484 91.6484 380.696 113.28 402.33C115.968 405.023 117.798 408.451 118.538 412.183C119.279 415.915 118.897 419.783 117.44 423.298C115.984 426.813 113.519 429.818 110.356 431.932C107.193 434.047 103.475 435.177 99.67 435.18L99.6199 435.19Z" fill="url(#paint1_linear_25_28)"/>
<path style="mix-blend-mode:screen" opacity="0.8" d="M11.8 276.82C11.8 209.54 38.69 146.28 87.5 98.71C136.31 51.14 201.27 24.9299 270.27 24.9299C325.49 24.9299 378.06 41.7099 421.87 72.7699C386.222 41.1584 342.2 20.5183 295.1 13.3318C247.999 6.14525 199.825 12.7183 156.372 32.2605C112.919 51.8027 76.0358 83.482 50.1593 123.488C24.2828 163.495 10.5143 210.124 10.51 257.77C10.5145 266.733 10.9985 275.689 11.9599 284.6C11.8599 282.03 11.8 279.43 11.8 276.82Z" fill="url(#paint2_radial_25_28)"/>
<path style="mix-blend-mode:multiply" opacity="0.5" d="M440.08 75.5099C397.907 33.3337 342.415 7.08508 283.059 1.23658C223.703 -4.61193 164.155 10.3016 114.562 43.4359C64.969 76.5703 28.3991 125.875 11.0834 182.95C-6.23221 240.025 -3.22217 301.338 19.6006 356.442C42.4235 411.546 83.6469 457.032 136.247 485.15C188.847 513.267 249.569 522.276 308.067 510.642C366.565 499.008 419.219 467.45 457.058 421.346C494.897 375.242 515.579 317.444 515.58 257.8C515.673 223.932 509.048 190.383 496.088 159.093C483.129 127.803 464.092 99.3938 440.08 75.5099ZM431.33 422.12C384.18 467.59 321.51 492.63 254.84 492.63C188.17 492.63 125.49 467.63 78.3499 422.12C31.2099 376.61 5.26996 316.19 5.26996 251.89C5.26996 187.59 31.2699 127.13 78.3799 81.6599C125.49 36.1899 188.17 11.1899 254.84 11.1899C321.51 11.1899 384.18 36.19 431.33 81.7C478.48 127.21 504.43 187.63 504.43 251.93C504.43 316.23 478.47 376.65 431.33 422.12Z" fill="url(#paint3_linear_25_28)"/>
<path style="mix-blend-mode:multiply" d="M433.59 426.38C386.45 471.85 321.83 497.88 255.17 497.88C190.43 497.88 123.32 472.3 82.44 432.28C82.44 437.2 82.5466 442.123 82.76 447.05C118.348 479.962 162.494 502.173 210.132 511.135C257.769 520.098 306.969 515.448 352.084 497.719C397.199 479.99 436.402 449.901 465.193 410.905C493.985 371.909 511.199 325.585 514.86 277.25C512.32 273.363 509.71 269.53 507.03 265.75C500.71 339.35 478.27 383.25 433.59 426.38Z" fill="url(#paint4_radial_25_28)"/>
<path style="mix-blend-mode:multiply" opacity="0.3" d="M258.53 467.05C206.42 467.05 157.43 445.89 120.53 407.47C83.63 369.05 63.39 317.97 63.39 263.63C63.39 209.29 83.68 158.22 120.53 119.8C157.38 81.3799 204.93 64.2899 257.04 64.2899C309.15 64.2899 359.57 81.3799 396.42 119.8C433.27 158.22 453.56 209.3 453.56 263.63C453.56 317.96 437.63 370.32 400.78 408.74C363.93 447.16 310.63 467.05 258.53 467.05Z" fill="url(#paint5_linear_25_28)"/>
<path style="mix-blend-mode:multiply" opacity="0.5" d="M258.53 460.49C208.11 460.49 160.72 440.02 125.07 402.85C89.42 365.68 69.8 316.26 69.8 263.7C69.8 211.14 89.43 161.7 125.07 124.55C160.71 87.3999 206.72 70.85 257.13 70.85C307.54 70.85 356.33 87.3799 391.98 124.55C427.63 161.72 447.27 211.19 447.27 263.7C447.27 316.21 431.85 366.91 396.21 404.08C360.57 441.25 308.94 460.49 258.53 460.49Z" fill="url(#paint6_linear_25_28)"/>
<path d="M257.79 439.5C215.753 439.501 175.016 424.925 142.52 398.258C110.024 371.59 87.7808 334.48 79.5792 293.25C71.3776 252.021 77.7255 209.223 97.5412 172.149C117.357 135.075 149.415 106.019 188.252 89.9319C227.089 73.8444 270.303 71.7209 310.53 83.9232C350.757 96.1255 385.509 121.899 408.864 156.851C432.219 191.804 442.733 233.773 438.613 275.608C434.493 317.443 415.995 356.555 386.27 386.28C369.438 403.206 349.415 416.625 327.361 425.761C305.308 434.896 281.661 439.566 257.79 439.5Z" fill="url(#paint7_linear_25_28)"/>
<path style="mix-blend-mode:screen" opacity="0.6" d="M241.39 337.82C203.39 339.75 167.62 328.67 140.74 306.61C113.86 284.55 99.05 254.18 99.05 221.06C99.05 187.94 113.85 156.06 140.74 131.28C167.63 106.5 203.37 91.8 241.39 89.87C279.41 87.94 315.16 99.0299 342.04 121.08C368.92 143.13 383.73 173.52 383.73 206.63C383.73 239.74 368.93 271.63 342.04 296.41C315.15 321.19 279.41 335.9 241.39 337.82Z" fill="url(#paint8_linear_25_28)"/>
<path style="mix-blend-mode:multiply" opacity="0.3" d="M229.27 316.19C176.4 316.19 126.69 299.19 89.17 268.32C94.77 299.23 110.5 327.71 134.85 350.32C165.79 379.06 206.77 397.52 250.53 397.52C294.29 397.52 335.6 379.06 366.53 350.32C397.46 321.58 414.53 283.32 414.53 242.71C414.536 233.904 413.729 225.117 412.12 216.46C389.64 296.5 282.48 316.19 229.27 316.19Z" fill="url(#paint9_linear_25_28)"/>
<path style="mix-blend-mode:multiply" opacity="0.4" d="M386.27 129.31C356.544 99.5831 317.43 81.0831 275.593 76.9619C233.756 72.8408 191.784 83.3536 156.829 106.709C121.875 130.064 96.0991 164.817 83.8951 205.047C71.6911 245.276 73.8135 288.492 89.9007 327.332C105.988 366.171 135.045 398.231 172.12 418.049C209.195 437.867 251.995 444.217 293.227 436.016C334.459 427.815 371.572 405.571 398.242 373.075C424.912 340.578 439.489 299.839 439.49 257.8C439.556 233.928 434.886 210.279 425.751 188.224C416.616 166.168 403.197 146.144 386.27 129.31ZM368.65 354.19C337.49 384.05 296.06 400.5 251.99 400.5C207.92 400.5 166.5 384.05 135.34 354.19C104.18 324.33 85.93 286.19 85.93 243.99C85.93 201.79 103.09 162.06 134.25 132.21C165.41 102.36 206.84 85.8999 250.9 85.8999C294.96 85.8999 336.4 102.35 367.56 132.21C398.72 162.07 415.88 201.76 415.88 243.99C415.88 286.22 399.81 324.36 368.65 354.19Z" fill="url(#paint10_linear_25_28)"/>
<path style="mix-blend-mode:multiply" d="M375.53 362.75C344.38 392.61 302.72 411.95 253.53 410.96C209.47 410.08 135.12 390.08 89.2 324.49C90.55 335.15 114.13 375.21 133.7 390.49C159.568 414.681 191.943 430.784 226.842 436.819C261.742 442.853 297.644 438.556 330.134 424.456C362.623 410.356 390.283 387.068 409.712 357.455C429.141 327.843 439.491 293.197 439.49 257.78C439.49 252.053 439.227 246.367 438.7 240.72C438.61 228.26 430.3 196.33 424.83 185.62C439.48 282.94 406.69 332.89 375.53 362.75Z" fill="url(#paint11_radial_25_28)"/>
<path d="M209.9 104.96C197.75 101.96 175.14 116.76 174.48 125.29C173.62 136.49 188.91 134.47 205.31 125.95C218.39 119.19 217.78 106.92 209.9 104.96Z" fill="#E5FFFF"/>
<path d="M152.67 140.19C143.89 140.84 137.41 147.72 138.85 153.55C140.74 161.2 148.98 159.99 155.26 153.78C162.62 146.52 158.35 139.78 152.67 140.19Z" fill="#E5FFFF"/>
<path style="mix-blend-mode:multiply" opacity="0.2" d="M311.27 362.88C287.2 362.88 242.34 337.13 211.83 306.1C194.24 314.81 180.36 316.63 170.57 311.51C151.73 301.66 152.57 261.14 152.71 256.51C153.27 240.25 156.95 219.56 171.29 213.27C180.29 209.34 191.98 210.4 206.16 216.41C219.66 200.69 239.02 183.27 257.48 170.31C273.8 158.85 296.27 146 310.62 149.78C320.62 152.43 331.62 162.61 337.81 218.14C341.43 250.83 341.7 289.25 338.5 316.03C336.98 328.71 332.95 362.4 311.98 362.83L311.27 362.88Z" fill="url(#paint12_linear_25_28)"/>
<path style="mix-blend-mode:multiply" opacity="0.3" d="M311.27 358.19C287.93 358.19 241.84 330.96 212.79 300.34C199.96 307.12 183.66 313.06 172.79 307.34C159.57 300.43 156.95 272.27 157.48 256.73C157.89 244.53 160.48 223.24 173.23 217.65C183.4 213.2 196.92 217.3 207.53 222.23C233.81 190.37 287.83 148.71 309.46 154.41C316.79 156.35 327.22 165.13 333.16 218.72C336.74 251.08 337.01 289.08 333.85 315.53C331.67 333.68 327.04 357.86 311.92 358.17L311.27 358.19Z" fill="url(#paint13_linear_25_28)"/>
<path style="mix-blend-mode:multiply" opacity="0.4" d="M311.27 353.43C288.75 353.43 241.27 324.62 213.76 294.43C204.54 299.62 185.61 308.75 174.94 303.17C165.68 298.33 161.5 276.23 162.16 256.91C162.46 247.98 164.34 226.71 175.09 222C185.01 217.65 199.82 223.57 208.81 228.15C234.81 194.96 289.74 154.15 308.21 159C319.74 162 325.56 193.45 328.42 219.26C331.97 251.26 332.24 288.87 329.11 314.99C326.11 340.34 320.25 353.29 311.79 353.46L311.27 353.43Z" fill="url(#paint14_linear_25_28)"/>
<path d="M307.62 161.25C290.49 156.72 234.81 197.88 209.48 231.12C201.94 227.12 185.93 219.79 176.05 224.12C159.69 231.29 161.54 293.46 176.05 301.04C186.64 306.58 207.86 295.12 214.25 291.4C240.62 321.13 289.73 351.51 311.75 351.06C338.45 350.52 331.71 167.62 307.62 161.25Z" fill="url(#paint15_linear_25_28)"/>
<path style="mix-blend-mode:multiply" d="M316.07 343.75C309.34 349.07 279.36 334.92 258.66 321.43C234.77 305.85 216.97 284.43 215.07 283.51C213.71 282.82 207.71 288.79 201.25 292.01C190.99 297.15 178.75 300.31 176.09 296.27C167.23 282.8 171.38 237.14 181.76 233.54C190.98 230.35 208.7 246.65 213.66 244.88C218.62 243.11 278.86 176.49 300.66 178.99C308.17 179.86 332.02 278.19 316.07 343.75ZM304.7 160.9C284.88 160.9 233.52 199.58 209.48 231.12C201.95 227.22 186.48 219.78 176.05 224.12C159.69 231.29 161.54 293.46 176.05 301.04C187.65 306.55 207.82 294.93 214.25 291.4C240.71 321.07 289.07 351.28 311.75 351.06C331.75 350.91 334.19 237.88 320.67 186.18C316.67 171.04 312.88 160.18 304.67 160.9H304.7Z" fill="url(#paint16_linear_25_28)"/>
<path style="mix-blend-mode:screen" opacity="0.5" d="M178.69 284.93C176.33 271.7 178.93 243.82 184.6 240.93C190.27 238.04 207.99 253.69 215.78 250.86C223.57 248.03 267.47 192.28 293.51 187.54C301.31 186.12 318.51 268.54 314.3 323.86C312.67 345.06 226.18 280.62 216.96 277.79C207.74 274.96 181.14 298.65 178.69 284.93Z" fill="url(#paint17_linear_25_28)"/>
</g>
<defs>
<linearGradient id="paint0_linear_25_28" x1="257.79" y1="199.41" x2="257.79" y2="517.24" gradientUnits="userSpaceOnUse">
<stop stop-color="#D9923C"/>
<stop offset="1" stop-color="#BD6519"/>
</linearGradient>
<linearGradient id="paint1_linear_25_28" x1="155.15" y1="61.0499" x2="273.22" y2="287.36" gradientUnits="userSpaceOnUse">
<stop stop-color="#FFD37E"/>
<stop offset="1"/>
</linearGradient>
<radialGradient id="paint2_radial_25_28" cx="0" cy="0" r="1" gradientUnits="userSpaceOnUse" gradientTransform="translate(139.06 52.48) scale(244.19 244.19)">
<stop stop-color="#FFD37E"/>
<stop offset="1"/>
</radialGradient>
<linearGradient id="paint3_linear_25_28" x1="145.51" y1="-161.38" x2="293.1" y2="389.63" gradientUnits="userSpaceOnUse">
<stop stop-color="white"/>
<stop offset="1" stop-color="#BD6519"/>
</linearGradient>
<radialGradient id="paint4_radial_25_28" cx="0" cy="0" r="1" gradientUnits="userSpaceOnUse" gradientTransform="translate(354.22 509.03) scale(247.6 247.6)">
<stop stop-color="#A95C19"/>
<stop offset="1" stop-color="white"/>
</radialGradient>
<linearGradient id="paint5_linear_25_28" x1="331.18" y1="357.26" x2="466.94" y2="532.2" gradientUnits="userSpaceOnUse">
<stop stop-color="#8B4519"/>
<stop offset="1" stop-color="white"/>
</linearGradient>
<linearGradient id="paint6_linear_25_28" x1="312.56" y1="345.79" x2="449" y2="553.07" gradientUnits="userSpaceOnUse">
<stop stop-color="#8B4519"/>
<stop offset="1" stop-color="white"/>
</linearGradient>
<linearGradient id="paint7_linear_25_28" x1="250.35" y1="214.25" x2="290.38" y2="448.69" gradientUnits="userSpaceOnUse">
<stop stop-color="#32A9E5"/>
<stop offset="1" stop-color="#007FC3"/>
</linearGradient>
<linearGradient id="paint8_linear_25_28" x1="219.13" y1="116.7" x2="247.99" y2="242.65" gradientUnits="userSpaceOnUse">
<stop stop-color="#35B5FF"/>
<stop offset="1"/>
</linearGradient>
<linearGradient id="paint9_linear_25_28" x1="268.81" y1="368.86" x2="254.38" y2="267.84" gradientUnits="userSpaceOnUse">
<stop stop-color="white"/>
<stop offset="1" stop-color="#0072B5"/>
</linearGradient>
<linearGradient id="paint10_linear_25_28" x1="128.53" y1="-170.09" x2="242.67" y2="207.75" gradientUnits="userSpaceOnUse">
<stop stop-color="white"/>
<stop offset="1" stop-color="#0072B5"/>
</linearGradient>
<radialGradient id="paint11_radial_25_28" cx="0" cy="0" r="1" gradientUnits="userSpaceOnUse" gradientTransform="translate(321.53 399.29) scale(258.75 258.75)">
<stop stop-color="#00639F"/>
<stop offset="1" stop-color="white"/>
</radialGradient>
<linearGradient id="paint12_linear_25_28" x1="200.02" y1="44.97" x2="246.8" y2="248.02" gradientUnits="userSpaceOnUse">
<stop stop-color="white"/>
<stop offset="1" stop-color="#0072B5"/>
</linearGradient>
<linearGradient id="paint13_linear_25_28" x1="238.41" y1="78.4899" x2="242.66" y2="172.75" gradientUnits="userSpaceOnUse">
<stop stop-color="white"/>
<stop offset="1" stop-color="#0072B5"/>
</linearGradient>
<linearGradient id="paint14_linear_25_28" x1="224.7" y1="86.98" x2="233.92" y2="157.15" gradientUnits="userSpaceOnUse">
<stop stop-color="white"/>
<stop offset="1" stop-color="#0072B5"/>
</linearGradient>
<linearGradient id="paint15_linear_25_28" x1="242.68" y1="196.41" x2="254.82" y2="390.78" gradientUnits="userSpaceOnUse">
<stop stop-color="#F9C849"/>
<stop offset="1" stop-color="#ED7C18"/>
</linearGradient>
<linearGradient id="paint16_linear_25_28" x1="252.13" y1="458.52" x2="246.33" y2="245.8" gradientUnits="userSpaceOnUse">
<stop stop-color="white"/>
<stop offset="1" stop-color="#BD6F31"/>
</linearGradient>
<linearGradient id="paint17_linear_25_28" x1="230.65" y1="165.24" x2="253.72" y2="332.5" gradientUnits="userSpaceOnUse">
<stop stop-color="#FFEA7E"/>
<stop offset="1"/>
</linearGradient>
<clipPath id="clip0_25_28">
<rect width="515.59" height="515.59" fill="white"/>
</clipPath>
</defs>
</svg>
