<svg width="516" height="516" viewBox="0 0 516 516" fill="none" xmlns="http://www.w3.org/2000/svg">
<g clip-path="url(#clip0_25_107)">
<path d="M257.8 515.59C198.153 515.594 140.351 494.916 94.241 457.08C48.1313 419.243 16.5676 366.589 4.92802 308.089C-6.71151 249.59 2.29332 188.864 30.4082 136.259C58.5232 83.6541 104.008 42.4255 159.114 19.5979C214.219 -3.22972 275.535 -6.2438 332.614 11.0693C389.693 28.3824 439.002 64.9514 472.141 114.545C505.279 164.139 520.196 223.689 514.35 283.048C508.504 342.408 482.257 397.904 440.08 440.08C416.198 464.093 387.791 483.13 356.503 496.092C325.215 509.053 291.666 515.68 257.8 515.59Z" fill="url(#paint0_linear_25_107)"/>
<path style="mix-blend-mode:screen" opacity="0.5" d="M99.59 435.19C97.0616 435.193 94.5575 434.697 92.2218 433.729C89.8861 432.761 87.7648 431.341 85.98 429.55C60.3383 403.834 40.7883 372.696 28.7684 338.428C16.7485 304.159 12.5646 267.632 16.5243 231.533C20.484 195.434 32.4867 160.682 51.6493 129.834C70.8119 98.986 96.6468 72.8267 127.253 53.2806C157.86 33.7346 192.459 21.2991 228.506 16.8892C264.552 12.4792 301.129 16.2069 335.545 27.7982C369.961 39.3895 401.34 58.5494 427.374 83.8682C453.408 109.187 473.435 140.02 485.98 174.1C487.734 178.892 487.513 184.185 485.365 188.815C483.217 193.444 479.317 197.031 474.525 198.785C469.733 200.539 464.439 200.318 459.81 198.17C455.181 196.022 451.594 192.122 449.84 187.33C439.307 158.607 422.464 132.613 400.552 111.263C378.64 89.9137 352.217 73.7524 323.229 63.9703C294.242 54.1883 263.429 51.0346 233.061 54.7417C202.693 58.4488 173.544 68.9223 147.761 85.3904C121.978 101.858 100.219 123.901 84.0862 149.895C67.9533 175.889 57.8582 205.172 54.5446 235.585C51.2309 265.998 54.7834 296.768 64.9399 325.626C75.0965 354.484 91.5984 380.696 113.23 402.33C115.923 405.024 117.757 408.456 118.498 412.193C119.24 415.929 118.856 419.802 117.396 423.32C115.935 426.838 113.464 429.844 110.294 431.957C107.124 434.07 103.399 435.195 99.59 435.19Z" fill="url(#paint1_linear_25_107)"/>
<path style="mix-blend-mode:screen" opacity="0.8" d="M11.81 276.82C11.81 209.54 38.69 146.28 87.51 98.71C136.33 51.14 201.23 24.9299 270.26 24.9299C325.48 24.9299 378.05 41.7099 421.86 72.7699C386.212 41.1584 342.19 20.5183 295.09 13.3318C247.989 6.14525 199.815 12.7183 156.362 32.2605C112.909 51.8027 76.0257 83.482 50.1492 123.488C24.2727 163.495 10.5044 210.124 10.5 257.77C10.5045 266.733 10.9885 275.689 11.95 284.6C11.8633 282.02 11.8166 279.427 11.81 276.82Z" fill="url(#paint2_radial_25_107)"/>
<path style="mix-blend-mode:multiply" opacity="0.5" d="M440.08 75.5099C397.908 33.3413 342.419 7.09966 283.068 1.25626C223.716 -4.58713 164.175 10.3293 114.589 43.4639C65.0026 76.5985 28.4391 125.901 11.1283 182.972C-6.18248 240.042 -3.16958 301.349 19.6537 356.447C42.477 411.546 83.6985 457.026 136.295 485.138C188.891 513.251 249.608 522.258 308.1 510.623C366.592 498.988 419.241 467.432 457.075 421.331C494.91 375.231 515.589 317.438 515.59 257.8C515.683 223.932 509.057 190.381 496.096 159.091C483.134 127.8 464.095 99.392 440.08 75.5099ZM431.33 422.12C384.19 467.59 321.51 492.63 254.84 492.63C188.17 492.63 125.5 467.63 78.35 422.12C31.2 376.61 5.25003 316.2 5.25003 251.89C5.25003 187.58 31.25 127.13 78.35 81.66C125.45 36.1899 188.18 11.19 254.84 11.19C321.5 11.19 384.19 36.19 431.33 81.7C478.47 127.21 504.44 187.63 504.44 251.93C504.44 316.23 478.48 376.65 431.33 422.12Z" fill="url(#paint3_linear_25_107)"/>
<path style="mix-blend-mode:multiply" d="M433.59 426.38C386.45 471.85 321.84 497.88 255.17 497.88C190.44 497.88 123.32 472.3 82.45 432.28C82.45 437.2 82.5801 442.12 82.7701 447.05C118.359 479.958 162.505 502.166 210.142 511.126C257.778 520.086 306.975 515.435 352.089 497.707C397.203 479.979 436.405 449.892 465.197 410.898C493.989 371.904 511.205 325.583 514.87 277.25C512.33 273.363 509.72 269.53 507.04 265.75C500.72 339.35 478.31 383.25 433.59 426.38Z" fill="url(#paint4_radial_25_107)"/>
<path style="mix-blend-mode:multiply" opacity="0.3" d="M258.53 467.05C206.42 467.05 157.43 445.89 120.59 407.47C83.75 369.05 63.45 317.97 63.45 263.63C63.45 209.29 83.74 158.19 120.59 119.8C157.44 81.4099 204.98 64.2899 257.09 64.2899C309.2 64.2899 359.63 81.3799 396.48 119.8C433.33 158.22 453.62 209.3 453.62 263.63C453.62 317.96 437.69 370.32 400.84 408.74C363.99 447.16 310.64 467.05 258.53 467.05Z" fill="url(#paint5_linear_25_107)"/>
<path style="mix-blend-mode:multiply" opacity="0.5" d="M258.53 460.49C208.12 460.49 160.73 440.02 125.08 402.85C89.43 365.68 69.8 316.26 69.8 263.7C69.8 211.14 89.43 161.7 125.08 124.55C160.73 87.3999 206.73 70.85 257.14 70.85C307.55 70.85 356.34 87.3799 391.98 124.55C427.62 161.72 447.26 211.14 447.26 263.7C447.26 316.26 431.85 366.91 396.2 404.08C360.55 441.25 308.94 460.49 258.53 460.49Z" fill="url(#paint6_linear_25_107)"/>
<path d="M257.8 439.5C215.763 439.501 175.026 424.925 142.53 398.258C110.035 371.59 87.7908 334.48 79.5891 293.25C71.3875 252.021 77.7354 209.223 97.5512 172.149C117.367 135.075 149.425 106.019 188.262 89.9319C227.099 73.8444 270.313 71.7209 310.54 83.9232C350.768 96.1255 385.519 121.899 408.874 156.851C432.229 191.804 442.743 233.773 438.623 275.608C434.503 317.443 416.004 356.555 386.28 386.28C369.447 403.205 349.424 416.623 327.371 425.759C305.317 434.894 281.671 439.564 257.8 439.5Z" fill="url(#paint7_linear_25_107)"/>
<path style="mix-blend-mode:screen" opacity="0.6" d="M241.4 337.82C203.4 339.75 167.63 328.67 140.74 306.61C113.85 284.55 99.05 254.18 99.05 221.06C99.05 187.94 113.86 156.06 140.74 131.28C167.62 106.5 203.38 91.8 241.4 89.87C279.42 87.94 315.16 99.0299 342.05 121.08C368.94 143.13 383.74 173.52 383.74 206.63C383.74 239.74 368.94 271.63 342.05 296.41C315.16 321.19 279.42 335.9 241.4 337.82Z" fill="url(#paint8_linear_25_107)"/>
<path style="mix-blend-mode:multiply" opacity="0.3" d="M229.31 316.19C176.45 316.19 126.74 299.19 89.21 268.32C94.82 299.23 110.55 327.71 134.9 350.32C165.84 379.06 206.82 397.52 250.58 397.52C294.34 397.52 335.64 379.06 366.58 350.32C397.52 321.58 414.58 283.32 414.58 242.71C414.586 233.904 413.779 225.117 412.17 216.46C389.65 296.5 282.49 316.19 229.31 316.19Z" fill="url(#paint9_linear_25_107)"/>
<path style="mix-blend-mode:multiply" opacity="0.4" d="M386.28 129.31C356.554 99.5831 317.44 81.0831 275.603 76.9619C233.766 72.8408 191.794 83.3536 156.84 106.709C121.885 130.064 96.1092 164.817 83.9052 205.047C71.7012 245.276 73.8236 288.492 89.9108 327.332C105.998 366.171 135.055 398.231 172.13 418.049C209.205 437.867 252.005 444.217 293.237 436.016C334.469 427.815 371.581 405.571 398.252 373.075C424.922 340.578 439.499 299.839 439.5 257.8C439.566 233.928 434.896 210.279 425.761 188.224C416.626 166.168 403.207 146.144 386.28 129.31ZM368.65 354.19C337.49 384.05 296.07 400.5 252 400.5C207.93 400.5 166.5 384.05 135.34 354.19C104.18 324.33 85.93 286.19 85.93 243.99C85.93 201.79 103.09 162.06 134.25 132.21C165.41 102.36 206.84 85.8999 250.91 85.8999C294.98 85.8999 336.4 102.35 367.56 132.21C398.72 162.07 415.88 201.76 415.88 243.99C415.88 286.22 399.81 324.36 368.65 354.19Z" fill="url(#paint10_linear_25_107)"/>
<path style="mix-blend-mode:multiply" d="M375.59 362.75C344.43 392.61 302.78 411.95 253.59 410.96C209.54 410.08 135.18 390.08 89.2701 324.49C90.6101 335.15 114.19 375.21 133.76 390.49C159.63 414.68 192.005 430.782 226.904 436.816C261.804 442.849 297.706 438.552 330.195 424.453C362.685 410.353 390.346 387.065 409.776 357.454C429.206 327.842 439.558 293.197 439.56 257.78C439.56 252.053 439.293 246.367 438.76 240.72C438.68 228.26 430.37 196.33 424.9 185.62C439.49 282.94 406.7 332.89 375.59 362.75Z" fill="url(#paint11_radial_25_107)"/>
<path d="M209.91 104.96C197.75 101.96 175.14 116.76 174.49 125.29C173.63 136.49 188.92 134.47 205.32 125.95C218.4 119.19 217.78 106.92 209.91 104.96Z" fill="#E5FFFF"/>
<path d="M152.67 140.19C143.9 140.84 137.42 147.72 138.86 153.55C140.75 161.2 148.99 159.99 155.27 153.78C162.59 146.52 158.36 139.78 152.67 140.19Z" fill="#E5FFFF"/>
<path style="mix-blend-mode:multiply" opacity="0.2" d="M197.34 360.79C172.86 360.79 155.86 346.31 148.75 333.91C140.55 319.6 141.43 304.16 151.09 292.61C156.9 285.61 166.28 282.05 177.31 282.34C174.01 191.53 177.36 186.08 179.38 182.79C182.17 178.26 187.1 175.73 201.38 171.52C210.16 168.93 221.74 165.99 234.89 163.02C263.12 156.63 291.47 151.71 307.11 150.48C318.56 149.58 326.11 150.12 330.76 155.56C333.59 158.86 334.76 161.24 335.64 187.23C336.12 201.58 336.32 220.09 336.19 238.01C335.63 314.81 330.62 320.2 327.3 323.76L327.11 323.97C323.11 328.24 317.11 334.69 305.41 336.67C301.885 337.268 298.316 337.573 294.74 337.58C270.28 337.58 253.3 323.1 246.18 310.7C237.98 296.39 238.85 280.95 248.52 269.4C254.52 262.22 265.04 258.6 277.35 259.28C277.48 241.14 277.18 228.08 276.8 220.44C272.85 221.22 266.88 222.62 258.17 225.15C248.3 228.01 240.55 230.68 235.85 232.49C235.67 239.95 235.94 254.12 236.13 263.94C237.13 316.33 236.57 336.45 231.37 345.05C226.49 353.1 218.64 358.05 208.02 359.88C204.501 360.479 200.939 360.783 197.37 360.79H197.34Z" fill="url(#paint12_linear_25_107)"/>
<path style="mix-blend-mode:multiply" opacity="0.3" d="M197.34 356.06C174.88 356.06 159.34 342.86 152.85 331.56C145.68 319.04 146.37 305.61 154.71 295.64C161.36 287.7 172.4 286.12 182.23 287.49C178.65 192.99 182.09 187.4 183.41 185.27C185.2 182.36 188.54 180.27 202.69 176.06C211.38 173.49 222.86 170.57 235.91 167.62C263.91 161.28 292.02 156.4 307.45 155.19C319.04 154.28 324.2 155.19 327.16 158.64C328.9 160.64 330.05 162.02 330.9 187.39C331.38 201.68 331.58 220.12 331.45 237.98C330.9 312.98 326.12 318.07 323.82 320.54L323.63 320.76C319.88 324.76 314.75 330.3 304.63 332.01C301.366 332.564 298.061 332.845 294.75 332.85C273.83 332.85 257.7 321.28 250.28 308.35C243.11 295.83 243.8 282.35 252.14 272.43C258.7 264.58 271 262.83 282.03 264.51C282.29 240.74 281.85 222.51 281.17 214.94C277.57 215.37 270.34 216.69 256.85 220.61C248.173 223.032 239.631 225.913 231.26 229.24C230.85 235.38 231.18 252.34 231.4 264.06C232.33 312.18 231.96 334.94 227.33 342.6C223.2 349.42 216.44 353.67 207.24 355.22C203.979 355.775 200.678 356.056 197.37 356.06H197.34Z" fill="url(#paint13_linear_25_107)"/>
<path style="mix-blend-mode:multiply" opacity="0.4" d="M197.34 351.34C178.29 351.34 163.65 340.89 156.95 329.21C150.8 318.48 151.32 307.06 158.34 298.67C164.7 291.07 176.85 290.48 187.18 293.32C186.11 266.16 183.65 193.89 187.43 187.75C188.25 186.41 190.28 184.65 204.03 180.59C212.61 178.05 224.03 175.16 236.95 172.23C264.78 165.94 292.6 161.1 307.82 159.9C319.51 158.99 322.3 160.23 323.57 161.71C324.29 162.56 325.39 163.83 326.18 187.55C326.65 201.77 326.85 220.14 326.72 237.95C326.48 271.3 325.18 312.15 320.36 317.33L320.16 317.54C316.7 321.27 312.38 325.91 303.82 327.35C280.38 331.35 262.08 319.47 254.35 306C248.2 295.27 248.72 283.85 255.74 275.46C261.98 268 275.65 267.29 286.65 270.33C287.06 243.33 286.65 214.8 285.17 210.11C283.17 209.68 274.96 210.43 255.5 216.11C240.5 220.46 229.18 224.72 226.89 226.11C225.98 229.53 226.34 247.9 226.65 264.17C227.4 302.81 227.65 332.95 223.25 340.17C219.87 345.77 214.25 349.27 206.42 350.58C203.42 351.087 200.383 351.342 197.34 351.34Z" fill="url(#paint14_linear_25_107)"/>
<path d="M321.78 163.25C315.43 155.84 193.6 182.25 189.44 188.99C185.56 195.29 189.68 296.59 189.68 296.59C179.12 292.79 166.26 292.89 160.15 300.19C143.56 320.02 169.68 354.36 206.03 348.19C213.95 346.86 218.63 343.19 221.23 338.89C228.61 326.7 221.43 227.89 225.02 224.51C228.61 221.13 284.13 203.51 287.08 208.51C290.03 213.51 288.96 273.51 288.96 273.51C278.4 269.71 263.65 269.66 257.55 276.95C240.96 296.79 267.08 331.13 303.43 324.95C311.35 323.62 315.2 319.34 318.63 315.65C326.25 307.53 325.24 167.29 321.78 163.25Z" fill="url(#paint15_linear_25_107)"/>
<path style="mix-blend-mode:multiply" d="M319.78 238.46C320.48 288.4 316.95 305.56 312.37 316.38C296.84 329.79 268.25 318.93 259.78 302.63C256.96 296.37 257.78 287.63 262.26 282.33C271.86 274.19 295.26 286.07 297.19 285.12C299.12 284.17 291.92 210.96 290.49 208.5C287.18 202.83 267.9 206.61 253.79 210.75C229.14 218.26 224.27 221.18 223.08 222.31C218.7 226.48 221.08 253.31 219.91 273.12C220.18 287.42 219.91 330.53 216.73 336.68C214.26 339.62 208.97 345.16 197.73 344.57C180.94 345.27 167.73 337.67 160.32 324.16C157.85 318.95 158.66 305.93 172.67 303.8C183.61 302.28 190.67 309.07 192.78 304.73C193.67 302.91 191.02 199.2 193.14 194.86C201.61 190.96 221.2 186.66 247.84 180.86C275.84 174.78 308.12 168.78 312.03 171.44C315.94 174.1 318.37 175.8 319.78 238.46ZM311.98 162.01C281.67 163.28 192.98 183.24 189.44 189.01C185.56 195.31 189.68 296.61 189.68 296.61C184.85 294.849 179.728 294.027 174.59 294.19C168.74 294.43 163.43 296.27 160.11 300.19C144.52 318.83 166.66 350.29 199.56 348.91C201.715 348.817 203.863 348.59 205.99 348.23C213.91 346.9 218.59 343.23 221.19 338.93C228.57 326.74 221.39 227.93 224.98 224.55C228.06 221.62 269.34 208.25 282.89 207.68C285.14 207.59 286.62 207.85 287.04 208.56C289.98 213.56 288.92 273.56 288.92 273.56C283.711 271.719 278.202 270.871 272.68 271.06C266.46 271.32 260.76 273.12 257.51 277C241.92 295.64 264.06 327.11 296.96 325.73C299.115 325.637 301.263 325.41 303.39 325.05C311.31 323.72 315.16 319.44 318.59 315.75C326.21 307.56 325.2 167.32 321.74 163.28C320.74 162.17 317.26 161.82 311.94 162.04L311.98 162.01Z" fill="url(#paint16_linear_25_107)"/>
<path style="mix-blend-mode:screen" opacity="0.5" d="M197.5 275C197.5 275 194.66 202.71 198.21 199.17C201.76 195.63 297.43 174.36 305.94 175.07C314.45 175.78 296.72 199.88 296.72 199.88C296.72 199.88 266.25 202.71 243.57 209.09C220.89 215.47 219.47 218.3 216.64 222.56C213.81 226.82 214.51 260.12 214.51 265.79C214.51 271.46 197.5 275 197.5 275Z" fill="url(#paint17_linear_25_107)"/>
</g>
<defs>
<linearGradient id="paint0_linear_25_107" x1="257.8" y1="199.41" x2="257.8" y2="517.24" gradientUnits="userSpaceOnUse">
<stop stop-color="#D9923C"/>
<stop offset="1" stop-color="#BD6519"/>
</linearGradient>
<linearGradient id="paint1_linear_25_107" x1="155.16" y1="61.05" x2="273.23" y2="287.36" gradientUnits="userSpaceOnUse">
<stop stop-color="#FFD37E"/>
<stop offset="1"/>
</linearGradient>
<radialGradient id="paint2_radial_25_107" cx="0" cy="0" r="1" gradientUnits="userSpaceOnUse" gradientTransform="translate(139.07 52.48) scale(244.19 244.19)">
<stop stop-color="#FFD37E"/>
<stop offset="1"/>
</radialGradient>
<linearGradient id="paint3_linear_25_107" x1="145.52" y1="-161.38" x2="293.11" y2="389.63" gradientUnits="userSpaceOnUse">
<stop stop-color="white"/>
<stop offset="1" stop-color="#BD6519"/>
</linearGradient>
<radialGradient id="paint4_radial_25_107" cx="0" cy="0" r="1" gradientUnits="userSpaceOnUse" gradientTransform="translate(354.22 509.03) scale(247.6 247.6)">
<stop stop-color="#A95C19"/>
<stop offset="1" stop-color="white"/>
</radialGradient>
<linearGradient id="paint5_linear_25_107" x1="331.19" y1="357.26" x2="466.94" y2="532.2" gradientUnits="userSpaceOnUse">
<stop stop-color="#8B4519"/>
<stop offset="1" stop-color="white"/>
</linearGradient>
<linearGradient id="paint6_linear_25_107" x1="312.57" y1="345.79" x2="449.01" y2="553.07" gradientUnits="userSpaceOnUse">
<stop stop-color="#8B4519"/>
<stop offset="1" stop-color="white"/>
</linearGradient>
<linearGradient id="paint7_linear_25_107" x1="250.36" y1="214.25" x2="290.39" y2="448.69" gradientUnits="userSpaceOnUse">
<stop stop-color="#32A9E5"/>
<stop offset="1" stop-color="#007FC3"/>
</linearGradient>
<linearGradient id="paint8_linear_25_107" x1="219.13" y1="116.7" x2="248" y2="242.65" gradientUnits="userSpaceOnUse">
<stop stop-color="#35B5FF"/>
<stop offset="1"/>
</linearGradient>
<linearGradient id="paint9_linear_25_107" x1="268.82" y1="368.86" x2="254.39" y2="267.84" gradientUnits="userSpaceOnUse">
<stop stop-color="white"/>
<stop offset="1" stop-color="#0072B5"/>
</linearGradient>
<linearGradient id="paint10_linear_25_107" x1="128.54" y1="-170.09" x2="242.68" y2="207.75" gradientUnits="userSpaceOnUse">
<stop stop-color="white"/>
<stop offset="1" stop-color="#0072B5"/>
</linearGradient>
<radialGradient id="paint11_radial_25_107" cx="0" cy="0" r="1" gradientUnits="userSpaceOnUse" gradientTransform="translate(321.54 399.29) scale(258.75 258.75)">
<stop stop-color="#00639F"/>
<stop offset="1" stop-color="white"/>
</radialGradient>
<linearGradient id="paint12_linear_25_107" x1="194.21" y1="55.9301" x2="224.68" y2="182.79" gradientUnits="userSpaceOnUse">
<stop stop-color="white"/>
<stop offset="1" stop-color="#0072B5"/>
</linearGradient>
<linearGradient id="paint13_linear_25_107" x1="197.62" y1="88.9899" x2="221.72" y2="178.3" gradientUnits="userSpaceOnUse">
<stop stop-color="white"/>
<stop offset="1" stop-color="#0072B5"/>
</linearGradient>
<linearGradient id="paint14_linear_25_107" x1="199.09" y1="103.21" x2="216.58" y2="164.16" gradientUnits="userSpaceOnUse">
<stop stop-color="white"/>
<stop offset="1" stop-color="#0072B5"/>
</linearGradient>
<linearGradient id="paint15_linear_25_107" x1="248.78" y1="189.633" x2="253.311" y2="302.912" gradientUnits="userSpaceOnUse">
<stop stop-color="#F9C849"/>
<stop offset="1" stop-color="#ED7C18"/>
</linearGradient>
<linearGradient id="paint16_linear_25_107" x1="266.63" y1="433.699" x2="240.985" y2="249.038" gradientUnits="userSpaceOnUse">
<stop stop-color="white"/>
<stop offset="1" stop-color="#BD6F31"/>
</linearGradient>
<linearGradient id="paint17_linear_25_107" x1="222.48" y1="191.3" x2="254.37" y2="227.45" gradientUnits="userSpaceOnUse">
<stop stop-color="#FFEA7E"/>
<stop offset="1"/>
</linearGradient>
<clipPath id="clip0_25_107">
<rect width="515.59" height="515.59" fill="white"/>
</clipPath>
</defs>
</svg>
