<svg width="516" height="516" viewBox="0 0 516 516" fill="none" xmlns="http://www.w3.org/2000/svg">
<g clip-path="url(#clip0_25_151)">
<path d="M257.79 515.59C198.144 515.592 140.342 494.912 94.2341 457.074C48.126 419.237 16.5643 366.582 4.92653 308.082C-6.71121 249.582 2.29515 188.857 30.4112 136.254C58.5272 83.6498 104.013 42.4224 159.119 19.596C214.224 -3.23031 275.54 -6.24327 332.618 11.0705C389.696 28.3844 439.004 64.9537 472.142 114.547C505.28 164.141 520.196 223.691 514.35 283.05C508.504 342.409 482.256 397.904 440.08 440.08C416.197 464.094 387.789 483.133 356.499 496.094C325.208 509.056 291.658 515.682 257.79 515.59Z" fill="url(#paint0_linear_25_151)"/>
<path style="mix-blend-mode:screen" opacity="0.5" d="M99.6298 435.2C97.1021 435.205 94.5984 434.71 92.2626 433.744C89.9269 432.778 87.8052 431.359 86.0199 429.57C60.3782 403.854 40.8283 372.716 28.8084 338.448C16.7885 304.179 12.6044 267.652 16.5642 231.553C20.5239 195.454 32.5267 160.702 51.6893 129.854C70.8519 99.0061 96.6868 72.8467 127.293 53.3007C157.9 33.7546 192.499 21.3191 228.546 16.9092C264.592 12.4992 301.169 16.227 335.585 27.8183C370.001 39.4096 401.38 58.5694 427.414 83.8882C453.448 109.207 473.475 140.04 486.02 174.12C487.781 178.918 487.564 184.219 485.417 188.856C484.353 191.153 482.848 193.217 480.987 194.932C479.126 196.647 476.946 197.978 474.57 198.85C469.772 200.611 464.471 200.394 459.834 198.247C455.196 196.099 451.601 192.198 449.84 187.4C439.3 158.687 422.454 132.703 400.541 111.363C378.629 90.0233 352.208 73.8706 323.226 64.0946C294.243 54.3187 263.437 51.1685 233.076 54.8761C202.715 58.5837 173.572 69.0546 147.794 85.5177C122.016 101.981 100.259 124.017 84.1254 150.003C67.9922 175.989 57.8936 205.262 54.5732 235.668C51.2528 266.074 54.7954 296.838 64.9399 325.693C75.0844 354.549 91.5725 380.761 113.19 402.4C115.879 405.091 117.71 408.518 118.451 412.249C119.193 415.98 118.812 419.847 117.356 423.362C115.901 426.876 113.436 429.88 110.274 431.994C107.112 434.109 103.394 435.238 99.5899 435.24L99.6298 435.2Z" fill="url(#paint1_linear_25_151)"/>
<path style="mix-blend-mode:screen" opacity="0.8" d="M11.8099 276.82C11.8099 209.53 38.6899 146.28 87.5099 98.7001C136.33 51.1201 201.22 24.9301 270.26 24.9301C325.48 24.9301 378.05 41.7101 421.86 72.7701C386.212 41.1586 342.19 20.5184 295.089 13.3319C247.989 6.14537 199.815 12.7185 156.362 32.2607C112.909 51.8029 76.0257 83.4821 50.1492 123.488C24.2727 163.495 10.5044 210.125 10.5 257.77C10.5009 266.736 10.9816 275.695 11.9399 284.61C11.8599 282.03 11.8099 279.4 11.8099 276.82Z" fill="url(#paint2_radial_25_151)"/>
<path style="mix-blend-mode:multiply" opacity="0.5" d="M440.08 75.5101C397.907 33.3411 342.418 7.09942 283.066 1.25627C223.715 -4.58688 164.173 10.33 114.587 43.4653C65.0004 76.6006 28.4373 125.904 11.1272 182.975C-6.18291 240.046 -3.1689 301.354 19.6556 356.452C42.4801 411.55 83.7029 457.03 136.3 485.141C188.898 513.253 249.615 522.258 308.108 510.621C366.6 498.985 419.248 467.427 457.081 421.325C494.914 375.223 515.591 317.429 515.59 257.79C515.68 223.924 509.053 190.375 496.092 159.087C483.13 127.799 464.093 99.3919 440.08 75.5101ZM431.33 422.12C384.19 467.59 321.51 492.63 254.84 492.63C188.17 492.63 125.5 467.63 78.35 422.12C31.2 376.61 5.24999 316.19 5.24999 251.89C5.24999 187.59 31.25 127.13 78.35 81.6601C125.45 36.1901 188.17 11.1501 254.84 11.1501C321.51 11.1501 384.19 36.1501 431.33 81.6601C478.47 127.17 504.44 187.59 504.44 251.89C504.44 316.19 478.47 376.65 431.33 422.12Z" fill="url(#paint3_linear_25_151)"/>
<path style="mix-blend-mode:multiply" d="M433.59 426.4C386.45 471.87 321.84 497.9 255.17 497.9C190.43 497.9 123.32 472.31 82.45 432.3C82.45 437.22 82.5799 442.14 82.7699 447.06C118.358 479.972 162.504 502.183 210.141 511.145C257.779 520.108 306.979 515.458 352.094 497.729C397.209 480 436.412 449.911 465.203 410.915C493.995 371.919 511.209 325.595 514.87 277.26C512.317 273.38 509.707 269.547 507.04 265.76C500.72 339.4 478.31 383.25 433.59 426.4Z" fill="url(#paint4_radial_25_151)"/>
<path style="mix-blend-mode:multiply" opacity="0.3" d="M258.53 467.05C206.42 467.05 157.43 445.89 120.59 407.47C83.75 369.05 63.45 317.97 63.45 263.63C63.45 209.29 83.74 158.22 120.59 119.8C157.44 81.38 204.98 64.28 257.09 64.28C309.2 64.28 359.63 81.38 396.48 119.8C433.33 158.22 453.61 209.3 453.61 263.63C453.61 317.96 437.69 370.31 400.84 408.73C363.99 447.15 310.64 467.05 258.53 467.05Z" fill="url(#paint5_linear_25_151)"/>
<path style="mix-blend-mode:multiply" opacity="0.5" d="M258.53 460.49C208.12 460.49 160.73 440.02 125.08 402.85C89.43 365.68 69.7999 316.26 69.7999 263.7C69.7999 211.14 89.43 161.7 125.08 124.55C160.73 87.4001 206.73 70.8401 257.14 70.8401C307.55 70.8401 356.34 87.3801 391.98 124.55C427.62 161.72 447.26 211.13 447.26 263.7C447.26 316.27 431.85 366.91 396.19 404.07C360.53 441.23 308.94 460.49 258.53 460.49Z" fill="url(#paint6_linear_25_151)"/>
<path d="M257.79 439.5C215.753 439.498 175.017 424.921 142.523 398.252C110.029 371.583 87.7875 334.472 79.5877 293.243C71.3878 252.014 77.7372 209.217 97.5541 172.144C117.371 135.071 149.429 106.016 188.266 89.93C227.104 73.8438 270.317 71.7214 310.544 83.9244C350.77 96.1274 385.521 121.901 408.876 156.853C432.23 191.806 442.743 233.775 438.622 275.609C434.502 317.444 416.004 356.555 386.28 386.28C369.446 403.207 349.422 416.626 327.366 425.761C305.311 434.897 281.662 439.566 257.79 439.5Z" fill="url(#paint7_linear_25_151)"/>
<path style="mix-blend-mode:screen" opacity="0.6" d="M269.88 333.9C280.043 331.602 289.962 328.333 299.5 324.14C280.04 319.78 268.71 286.3 264.9 278.29C261.74 271.64 259.36 265.76 258.51 260.58C257.23 252.87 259.98 245.17 264.57 239.58C266.754 236.87 269.464 234.63 272.537 232.996C275.61 231.361 278.982 230.366 282.45 230.07C282.45 230.07 273.98 213.71 250.8 209.57C241.62 207.93 226.69 208.57 214.56 217.93C202.79 227 195.56 237.35 193.89 253.3C192.52 266.45 197.28 280.52 205.37 289.38C212.68 297.38 218.56 300.9 228.44 304.58C240.8 309.17 247.25 303.37 259.38 312.67C263.3 315.68 268.89 321.2 269.88 333.9Z" fill="url(#paint8_linear_25_151)"/>
<path style="mix-blend-mode:screen" opacity="0.6" d="M140 266.54C138.47 230.9 151.59 202.29 171.48 183.45C197.94 158.74 228.33 151.97 257.63 155.45C284.93 158.7 311.42 176.51 327.82 198.97C331.67 204.24 343.82 225.42 345.53 248.38C353.4 247.07 364.34 250.9 370.53 259.53C379.127 243.215 383.649 225.062 383.71 206.62C383.71 173.5 368.9 143.12 342.02 121.07C315.14 99.0201 279.39 87.9301 241.37 89.8601C203.35 91.7901 167.6 106.49 140.71 131.27C113.82 156.05 99.0199 187.93 99.0199 221.05C99.0199 254.17 113.83 284.55 140.71 306.6C147.031 311.776 153.821 316.352 160.99 320.27C148.3 304.4 140.92 281.02 140 266.54Z" fill="url(#paint9_linear_25_151)"/>
<path style="mix-blend-mode:multiply" opacity="0.3" d="M412.19 216.46C405.8 239.16 392.36 257.32 375.52 271.24C376.83 277.58 375.4 286.06 370.52 291.79C364.61 298.68 350.62 308.41 339.52 315.08C329.52 321.08 317.65 326.23 306.52 325.58C297.02 325.02 289.03 320.44 281.71 311.05C275 312.31 268.43 313.31 262.12 314.05C277.22 331.23 268.26 350.91 257.12 357.25C244.32 364.53 221.91 359.88 205.95 354.19C193.95 349.92 161.13 330.36 149.81 302.44C127.807 294.595 107.305 283.049 89.1899 268.3C94.7999 299.22 110.53 327.7 134.88 350.3C165.82 379.04 206.8 397.49 250.56 397.49C294.32 397.49 335.62 379.04 366.56 350.3C397.5 321.56 414.56 283.3 414.56 242.69C414.573 233.893 413.78 225.113 412.19 216.46Z" fill="url(#paint10_linear_25_151)"/>
<path style="mix-blend-mode:multiply" opacity="0.4" d="M386.28 129.31C356.554 99.583 317.439 81.0828 275.602 76.9619C233.764 72.841 191.792 83.3543 156.837 106.71C121.882 130.067 96.1074 164.82 83.9041 205.05C71.7008 245.28 73.8242 288.497 89.9126 327.336C106.001 366.176 135.059 398.236 172.135 418.052C209.212 437.869 252.012 444.217 293.244 436.014C334.476 427.812 371.588 405.566 398.257 373.068C424.926 340.57 439.502 299.83 439.5 257.79C439.564 233.919 434.894 210.273 425.759 188.22C416.623 166.166 403.205 146.143 386.28 129.31ZM368.65 354.22C337.49 384.08 296.06 400.52 252 400.52C207.94 400.52 166.5 384.08 135.34 354.22C104.18 324.36 85.93 286.22 85.93 244.02C85.93 201.82 103.09 162.09 134.25 132.23C165.41 102.37 206.84 85.9301 250.91 85.9301C294.98 85.9301 336.4 102.38 367.56 132.23C398.72 162.08 415.88 201.79 415.88 244.02C415.88 286.25 399.81 324.4 368.65 354.22Z" fill="url(#paint11_linear_25_151)"/>
<path style="mix-blend-mode:multiply" d="M375.54 362.75C344.38 392.61 302.73 411.95 253.54 410.96C209.48 410.08 135.13 390.08 89.21 324.48C90.56 335.15 114.14 375.21 133.71 390.48C159.58 414.67 191.956 430.772 226.857 436.806C261.757 442.84 297.66 438.542 330.15 424.441C362.64 410.34 390.301 387.051 409.73 357.437C429.159 327.824 439.51 293.178 439.51 257.76C439.51 252.03 439.23 246.35 438.71 240.71C438.62 228.25 430.32 196.32 424.85 185.61C439.49 282.94 406.7 332.89 375.54 362.75Z" fill="url(#paint12_radial_25_151)"/>
<path d="M209.91 104.95C197.75 101.95 175.14 116.76 174.49 125.29C173.63 136.48 188.92 134.47 205.32 125.95C218.4 119.14 217.78 106.92 209.91 104.95Z" fill="#E5FFFF"/>
<path d="M152.67 140.2C143.9 140.85 137.42 147.72 138.86 153.55C140.75 161.21 148.99 160 155.27 153.79C162.62 146.51 158.35 139.78 152.67 140.2Z" fill="#E5FFFF"/>
<path style="mix-blend-mode:multiply" opacity="0.2" d="M242.72 360.4C222.804 360.388 203.322 354.578 186.652 343.678C169.983 332.779 156.847 317.263 148.848 299.023C140.85 280.784 138.334 260.61 141.609 240.964C144.884 221.319 153.807 203.052 167.29 188.393C180.773 173.735 198.232 163.318 217.535 158.416C236.839 153.513 257.152 154.337 275.995 160.786C294.839 167.235 311.397 179.031 323.649 194.733C335.901 210.435 343.316 229.364 344.99 249.21C350.79 248.37 356.706 249.465 361.822 252.324C366.938 255.183 370.97 259.648 373.295 265.028C375.619 270.409 376.106 276.405 374.681 282.09C373.256 287.775 369.997 292.832 365.41 296.48C365.05 296.76 356.34 303.69 346.07 310.43C329.53 321.3 318.07 325.75 307.71 325.31C304.612 325.189 301.548 324.609 298.62 323.59C287.14 319.59 279.45 310.23 269.21 287.7C264.21 276.8 260.35 266.3 260.31 266.2C258.85 262.302 258.326 258.115 258.779 253.977C259.232 249.839 260.651 245.866 262.921 242.376C265.19 238.886 268.247 235.978 271.846 233.886C275.445 231.794 279.484 230.576 283.64 230.33C278.896 223.263 272.404 217.545 264.794 213.732C257.185 209.919 248.717 208.142 240.217 208.573C231.717 209.005 223.473 211.63 216.288 216.193C209.103 220.756 203.223 227.102 199.219 234.613C195.215 242.124 193.224 250.543 193.44 259.052C193.657 267.56 196.072 275.868 200.452 283.166C204.833 290.464 211.028 296.503 218.435 300.695C225.842 304.888 234.209 307.091 242.72 307.09C246.265 307.021 249.788 307.66 253.084 308.97C256.379 310.279 259.38 312.232 261.911 314.715C264.443 317.198 266.454 320.16 267.827 323.43C269.199 326.699 269.906 330.209 269.906 333.755C269.906 337.301 269.199 340.811 267.827 344.08C266.454 347.35 264.443 350.312 261.911 352.795C259.38 355.278 256.379 357.231 253.084 358.541C249.788 359.85 246.265 360.489 242.72 360.42V360.4Z" fill="url(#paint13_linear_25_151)"/>
<path style="mix-blend-mode:multiply" opacity="0.3" d="M242.72 356.04C223.417 356.039 204.543 350.352 188.452 339.689C172.362 329.026 159.769 313.859 152.246 296.083C144.723 278.307 142.603 258.708 146.15 239.734C149.697 220.76 158.755 203.252 172.193 189.394C185.63 175.537 202.852 165.944 221.708 161.815C240.563 157.685 260.218 159.201 278.217 166.174C296.217 173.147 311.763 185.267 322.916 201.021C334.069 216.776 340.335 235.467 340.93 254.76C345.9 252.883 351.377 252.843 356.375 254.647C361.372 256.451 365.56 259.98 368.185 264.599C370.81 269.218 371.699 274.623 370.691 279.839C369.684 285.056 366.846 289.741 362.69 293.05C362.33 293.34 353.75 300.16 343.69 306.78C327.98 317.1 317.28 321.34 307.91 320.94C305.237 320.835 302.595 320.333 300.07 319.45C289.9 315.94 282.87 307.16 273.21 285.89C268.3 275.08 264.47 264.8 264.43 264.69C262.98 260.815 262.64 256.613 263.446 252.556C264.253 248.498 266.174 244.746 268.995 241.72C271.817 238.694 275.425 236.515 279.417 235.427C283.408 234.339 287.624 234.385 291.59 235.56C287.597 226.785 281.314 219.248 273.401 213.74C265.488 208.233 256.238 204.958 246.623 204.261C237.007 203.563 227.382 205.469 218.757 209.777C210.132 214.085 202.827 220.637 197.61 228.744C192.392 236.85 189.454 246.213 189.105 255.847C188.756 265.482 191.009 275.032 195.627 283.495C200.244 291.958 207.056 299.022 215.346 303.942C223.636 308.863 233.099 311.46 242.74 311.46C248.652 311.46 254.321 313.808 258.501 317.989C262.682 322.169 265.03 327.838 265.03 333.75C265.03 339.662 262.682 345.331 258.501 349.511C254.321 353.692 248.652 356.04 242.74 356.04H242.72Z" fill="url(#paint14_linear_25_151)"/>
<path style="mix-blend-mode:multiply" opacity="0.4" d="M242.72 351.67C224.152 351.67 206.001 346.164 190.563 335.848C175.124 325.533 163.092 310.871 155.986 293.716C148.881 276.562 147.021 257.686 150.644 239.475C154.266 221.264 163.207 204.536 176.337 191.407C189.466 178.277 206.194 169.336 224.405 165.714C242.616 162.091 261.492 163.951 278.646 171.056C295.801 178.162 310.463 190.195 320.778 205.633C331.094 221.072 336.6 239.222 336.6 257.79C336.6 259.36 336.6 260.94 336.48 262.51C336.89 262.2 337.29 261.88 337.68 261.57C341.402 258.619 346.144 257.266 350.863 257.808C355.582 258.35 359.893 260.742 362.85 264.46C365.799 268.182 367.152 272.922 366.612 277.64C366.072 282.358 363.684 286.67 359.97 289.63C359.61 289.91 351.12 296.63 341.27 303.12C326.4 312.89 316.49 316.92 308.08 316.57C305.83 316.482 303.606 316.061 301.48 315.32C292.62 312.26 286.26 304.09 277.17 284.09C272.43 273.65 268.67 263.6 268.51 263.17C267.006 259.14 267.002 254.703 268.499 250.67C269.996 246.637 272.894 243.277 276.663 241.204C280.432 239.131 284.821 238.482 289.029 239.378C293.236 240.273 296.981 242.652 299.58 246.08C297.359 235.342 292.139 225.454 284.526 217.562C276.913 209.67 267.219 204.098 256.568 201.492C245.917 198.886 234.745 199.352 224.348 202.837C213.952 206.323 204.756 212.684 197.827 221.183C190.899 229.682 186.522 239.971 185.203 250.856C183.885 261.742 185.679 272.779 190.379 282.686C195.078 292.593 202.489 300.966 211.753 306.832C221.017 312.698 231.755 315.818 242.72 315.83C247.473 315.83 252.031 317.718 255.391 321.079C258.752 324.439 260.64 328.997 260.64 333.75C260.64 338.503 258.752 343.061 255.391 346.421C252.031 349.782 247.473 351.67 242.72 351.67Z" fill="url(#paint15_linear_25_151)"/>
<path d="M360.8 266.09C358.277 262.914 354.596 260.869 350.566 260.406C346.536 259.943 342.488 261.099 339.31 263.62C337.39 265.15 335.4 266.62 333.4 268.15C333.785 264.71 333.978 261.251 333.98 257.79C333.98 239.741 328.628 222.096 318.6 207.089C308.572 192.081 294.319 180.384 277.644 173.477C260.968 166.57 242.619 164.762 224.916 168.284C207.213 171.805 190.952 180.497 178.189 193.26C165.426 206.022 156.735 222.283 153.214 239.986C149.692 257.689 151.5 276.038 158.407 292.714C165.314 309.389 177.011 323.642 192.019 333.67C207.026 343.698 224.67 349.05 242.72 349.05C244.761 349.102 246.793 348.745 248.694 348C250.595 347.255 252.328 346.137 253.791 344.711C255.253 343.286 256.415 341.582 257.209 339.7C258.002 337.819 258.411 335.797 258.411 333.755C258.411 331.713 258.002 329.691 257.209 327.81C256.415 325.928 255.253 324.224 253.791 322.799C252.328 321.374 250.595 320.255 248.694 319.51C246.793 318.765 244.761 318.408 242.72 318.46C230.721 318.46 218.991 314.902 209.014 308.235C199.036 301.569 191.26 292.093 186.668 281.007C182.076 269.921 180.875 257.723 183.216 245.954C185.557 234.185 191.335 223.375 199.82 214.89C208.305 206.405 219.115 200.627 230.884 198.286C242.653 195.945 254.851 197.146 265.937 201.738C277.023 206.33 286.499 214.106 293.165 224.084C299.832 234.061 303.39 245.791 303.39 257.79C303.39 258.84 303.39 259.87 303.31 260.9C302.04 257.83 300.79 254.68 299.64 251.58C298.171 247.851 295.297 244.847 291.636 243.215C287.975 241.583 283.82 241.452 280.064 242.851C276.308 244.25 273.251 247.068 271.55 250.697C269.85 254.327 269.641 258.478 270.97 262.26C271.13 262.67 274.83 272.59 279.56 283C288.31 302.24 294.26 310 302.33 312.84C304.215 313.493 306.186 313.867 308.18 313.95C316.09 314.27 325.64 310.25 339.83 300.95C349.55 294.56 357.98 287.87 358.34 287.59C359.915 286.341 361.227 284.793 362.203 283.036C363.179 281.279 363.799 279.347 364.028 277.35C364.256 275.353 364.089 273.331 363.535 271.399C362.981 269.467 362.052 267.663 360.8 266.09Z" fill="url(#paint16_linear_25_151)"/>
<path style="mix-blend-mode:screen" opacity="0.5" d="M305.41 237.79C305.41 237.79 310.41 254.54 309.67 265.34C309.23 271.57 307.92 274.85 304.21 274.85C298.96 274.85 296.99 266.1 294.37 259.54C292.47 254.79 290.37 247.97 281.25 249.92C275.12 251.23 274.58 263.38 280.48 274.19C288.35 288.62 295.86 299.81 299.83 303.38C306.39 309.29 316.34 311.15 329.02 301.09C329.02 301.09 351.74 287.36 355.59 283.16C360.4 277.91 359.74 273.16 358.12 270.31C356.8 268 353.4 266.1 350.78 266.98C348.16 267.86 345.31 269.05 338.78 274.63C332.25 280.21 329.38 283.05 325.45 282.06C321.52 281.07 323.81 265.99 323.81 265.99C323.81 265.99 324.81 244.67 319.87 232.87C314.93 221.07 305.41 237.79 305.41 237.79Z" fill="url(#paint17_linear_25_151)"/>
<path style="mix-blend-mode:multiply" d="M360.8 266.09C358.277 262.914 354.596 260.869 350.566 260.406C346.536 259.943 342.488 261.099 339.31 263.62C337.39 265.15 335.4 266.62 333.4 268.15C333.785 264.71 333.978 261.251 333.98 257.79C333.98 239.741 328.628 222.096 318.6 207.089C308.572 192.081 294.319 180.384 277.644 173.477C260.968 166.57 242.619 164.762 224.916 168.284C207.213 171.805 190.952 180.497 178.189 193.26C165.426 206.022 156.735 222.283 153.214 239.986C149.692 257.689 151.5 276.038 158.407 292.714C165.314 309.389 177.011 323.642 192.019 333.67C207.026 343.698 224.67 349.05 242.72 349.05C244.761 349.102 246.793 348.745 248.694 348C250.595 347.255 252.328 346.137 253.791 344.711C255.253 343.286 256.415 341.582 257.209 339.7C258.002 337.819 258.411 335.797 258.411 333.755C258.411 331.713 258.002 329.691 257.209 327.81C256.415 325.928 255.253 324.224 253.791 322.799C252.328 321.374 250.595 320.255 248.694 319.51C246.793 318.765 244.761 318.408 242.72 318.46C230.721 318.46 218.991 314.902 209.014 308.235C199.036 301.569 191.26 292.093 186.668 281.007C182.076 269.921 180.875 257.723 183.216 245.954C185.557 234.185 191.335 223.375 199.82 214.89C208.305 206.405 219.115 200.627 230.884 198.286C242.653 195.945 254.851 197.146 265.937 201.738C277.023 206.33 286.499 214.106 293.165 224.084C299.832 234.061 303.39 245.791 303.39 257.79C303.39 258.84 303.39 259.87 303.31 260.9C302.04 257.83 300.79 254.68 299.64 251.58C298.171 247.851 295.297 244.847 291.636 243.215C287.975 241.583 283.82 241.452 280.064 242.851C276.308 244.25 273.251 247.068 271.55 250.697C269.85 254.327 269.641 258.478 270.97 262.26C271.13 262.67 274.83 272.59 279.56 283C288.31 302.24 294.26 310 302.33 312.84C304.215 313.493 306.186 313.867 308.18 313.95C316.09 314.27 325.64 310.25 339.83 300.95C349.55 294.56 357.98 287.87 358.34 287.59C359.915 286.341 361.227 284.793 362.203 283.036C363.179 281.279 363.799 279.347 364.028 277.35C364.256 275.353 364.089 273.331 363.535 271.399C362.981 269.467 362.052 267.663 360.8 266.09ZM351 289.5C344.12 294.41 330.68 304.65 319.51 309.29C314.809 311.269 309.597 311.69 304.64 310.49C292.41 306.92 283.11 287.2 275.23 269.27C271.84 261.54 272.17 251.37 280.15 248.61C288.68 245.66 293.55 250.67 295.9 258.78C299.5 271.24 302.78 274.52 305.41 273.54C310.66 271.24 307.51 245.63 302.89 235.27C293.89 215.16 274.58 194.93 243.75 194.49C215.54 194.09 181.17 213.6 179.14 258.12C177.85 286.18 187.33 312.24 220.14 324.35C232.79 329.02 241.34 326.35 246.7 327.35C251.32 328.21 255.4 331.56 254.79 335C252.33 348.95 235.22 346.38 225.93 344.62C186.57 337.19 157.16 308.5 156.4 261.09C155.58 210.78 199.17 170.98 244.08 174.51C296.5 178.63 313.55 207.1 321.81 233.87C330.01 260.44 321.15 278.15 325.42 280.12C330.2 282.32 334.42 276.29 342.69 269.84C350.56 263.72 356.03 264.84 358.86 268.53C362.88 273.8 360.5 282.71 351 289.5Z" fill="url(#paint18_linear_25_151)"/>
</g>
<defs>
<linearGradient id="paint0_linear_25_151" x1="257.79" y1="199.41" x2="257.79" y2="517.24" gradientUnits="userSpaceOnUse">
<stop stop-color="#D9923C"/>
<stop offset="1" stop-color="#BD6519"/>
</linearGradient>
<linearGradient id="paint1_linear_25_151" x1="155.15" y1="61.05" x2="273.23" y2="287.36" gradientUnits="userSpaceOnUse">
<stop stop-color="#FFD37E"/>
<stop offset="1"/>
</linearGradient>
<radialGradient id="paint2_radial_25_151" cx="0" cy="0" r="1" gradientUnits="userSpaceOnUse" gradientTransform="translate(139.06 52.4801) scale(244.19 244.19)">
<stop stop-color="#FFD37E"/>
<stop offset="1"/>
</radialGradient>
<linearGradient id="paint3_linear_25_151" x1="145.51" y1="-161.38" x2="293.11" y2="389.63" gradientUnits="userSpaceOnUse">
<stop stop-color="white"/>
<stop offset="1" stop-color="#BD6519"/>
</linearGradient>
<radialGradient id="paint4_radial_25_151" cx="0" cy="0" r="1" gradientUnits="userSpaceOnUse" gradientTransform="translate(354.22 509.03) scale(247.6 247.6)">
<stop stop-color="#A95C19"/>
<stop offset="1" stop-color="white"/>
</radialGradient>
<linearGradient id="paint5_linear_25_151" x1="331.19" y1="357.26" x2="466.94" y2="532.2" gradientUnits="userSpaceOnUse">
<stop stop-color="#8B4519"/>
<stop offset="1" stop-color="white"/>
</linearGradient>
<linearGradient id="paint6_linear_25_151" x1="312.56" y1="345.79" x2="449" y2="553.07" gradientUnits="userSpaceOnUse">
<stop stop-color="#8B4519"/>
<stop offset="1" stop-color="white"/>
</linearGradient>
<linearGradient id="paint7_linear_25_151" x1="250.36" y1="214.25" x2="290.39" y2="448.68" gradientUnits="userSpaceOnUse">
<stop stop-color="#32A9E5"/>
<stop offset="1" stop-color="#007FC3"/>
</linearGradient>
<linearGradient id="paint8_linear_25_151" x1="210.21" y1="125.15" x2="238.26" y2="247.57" gradientUnits="userSpaceOnUse">
<stop stop-color="#35B5FF"/>
<stop offset="1"/>
</linearGradient>
<linearGradient id="paint9_linear_25_151" x1="214.14" y1="94.9001" x2="241.27" y2="213.29" gradientUnits="userSpaceOnUse">
<stop stop-color="#35B5FF"/>
<stop offset="1"/>
</linearGradient>
<linearGradient id="paint10_linear_25_151" x1="268.2" y1="364.51" x2="254.9" y2="271.44" gradientUnits="userSpaceOnUse">
<stop stop-color="white"/>
<stop offset="1" stop-color="#0072B5"/>
</linearGradient>
<linearGradient id="paint11_linear_25_151" x1="128.54" y1="-170.09" x2="242.68" y2="207.75" gradientUnits="userSpaceOnUse">
<stop stop-color="white"/>
<stop offset="1" stop-color="#0072B5"/>
</linearGradient>
<radialGradient id="paint12_radial_25_151" cx="0" cy="0" r="1" gradientUnits="userSpaceOnUse" gradientTransform="translate(321.54 399.28) scale(258.75 258.75)">
<stop stop-color="#00639F"/>
<stop offset="1" stop-color="white"/>
</radialGradient>
<linearGradient id="paint13_linear_25_151" x1="222.13" y1="78.15" x2="251" y2="233.62" gradientUnits="userSpaceOnUse">
<stop stop-color="white"/>
<stop offset="1" stop-color="#0072B5"/>
</linearGradient>
<linearGradient id="paint14_linear_25_151" x1="212.96" y1="108.12" x2="241.16" y2="211.1" gradientUnits="userSpaceOnUse">
<stop stop-color="white"/>
<stop offset="1" stop-color="#0072B5"/>
</linearGradient>
<linearGradient id="paint15_linear_25_151" x1="233.12" y1="79.61" x2="245.58" y2="175.38" gradientUnits="userSpaceOnUse">
<stop stop-color="white"/>
<stop offset="1" stop-color="#0072B5"/>
</linearGradient>
<linearGradient id="paint16_linear_25_151" x1="217.23" y1="164.62" x2="270.36" y2="307.29" gradientUnits="userSpaceOnUse">
<stop stop-color="#F9C849"/>
<stop offset="1" stop-color="#ED7C18"/>
</linearGradient>
<linearGradient id="paint17_linear_25_151" x1="305.63" y1="321.06" x2="319.3" y2="259.99" gradientUnits="userSpaceOnUse">
<stop stop-color="#FFEA7E"/>
<stop offset="1"/>
</linearGradient>
<linearGradient id="paint18_linear_25_151" x1="255.09" y1="47.8101" x2="256.4" y2="154.08" gradientUnits="userSpaceOnUse">
<stop stop-color="white"/>
<stop offset="1" stop-color="#BD6F31"/>
</linearGradient>
<clipPath id="clip0_25_151">
<rect width="515.59" height="515.59" fill="white"/>
</clipPath>
</defs>
</svg>
