<svg width="516" height="516" viewBox="0 0 516 516" fill="none" xmlns="http://www.w3.org/2000/svg">
<g clip-path="url(#clip0_25_178)">
<path d="M257.8 515.59C198.153 515.594 140.351 494.916 94.241 457.08C48.1313 419.243 16.5676 366.589 4.92805 308.089C-6.71148 249.59 2.29335 188.864 30.4083 136.259C58.5232 83.6543 104.009 42.4255 159.114 19.598C214.219 -3.22963 275.535 -6.24365 332.614 11.0695C389.693 28.3826 439.002 64.9515 472.141 114.545C505.279 164.139 520.196 223.689 514.35 283.049C508.504 342.408 482.257 397.904 440.08 440.08C416.198 464.093 387.791 483.13 356.503 496.092C325.215 509.053 291.667 515.68 257.8 515.59Z" fill="url(#paint0_linear_25_178)"/>
<path style="mix-blend-mode:screen" opacity="0.5" d="M99.59 435.21C97.0617 435.213 94.5576 434.717 92.2218 433.749C89.8861 432.781 87.7649 431.361 85.98 429.57C60.3383 403.854 40.7884 372.716 28.7685 338.448C16.7486 304.179 12.5646 267.652 16.5243 231.553C20.484 195.454 32.4867 160.702 51.6493 129.854C70.8119 99.0062 96.6468 72.8468 127.253 53.3007C157.86 33.7546 192.459 21.3191 228.506 16.9092C264.552 12.4992 301.129 16.2271 335.545 27.8183C369.961 39.4096 401.34 58.5694 427.374 83.8882C453.408 109.207 473.435 140.04 485.98 174.12C487.734 178.913 487.513 184.206 485.365 188.835C483.217 193.464 479.318 197.051 474.525 198.805C469.733 200.559 464.439 200.338 459.81 198.19C455.181 196.042 451.594 192.142 449.84 187.35C439.307 158.627 422.464 132.633 400.552 111.283C378.64 89.9337 352.217 73.7725 323.229 63.9904C294.242 54.2083 263.429 51.0547 233.061 54.7618C202.694 58.4689 173.544 68.9424 147.761 85.4104C121.979 101.879 100.219 123.922 84.0862 149.915C67.9534 175.909 57.8582 205.192 54.5446 235.605C51.231 266.019 54.7834 296.788 64.94 325.646C75.0965 354.504 91.5985 380.716 113.23 402.35C115.917 405.042 117.747 408.47 118.488 412.201C119.229 415.932 118.847 419.799 117.392 423.313C115.937 426.828 113.474 429.833 110.312 431.948C107.151 434.064 103.434 435.195 99.63 435.2L99.59 435.21Z" fill="url(#paint1_linear_25_178)"/>
<path style="mix-blend-mode:screen" opacity="0.8" d="M11.81 276.82C11.81 209.54 38.6901 146.28 87.5101 98.71C136.33 51.14 201.23 24.9301 270.26 24.9301C325.48 24.9301 378.05 41.71 421.86 72.77C386.212 41.1585 342.19 20.5184 295.09 13.3319C247.989 6.14538 199.815 12.7184 156.362 32.2606C112.909 51.8028 76.0257 83.482 50.1492 123.488C24.2727 163.495 10.5044 210.124 10.5001 257.77C10.5046 266.733 10.9886 275.689 11.95 284.6C11.86 282.04 11.81 279.42 11.81 276.82Z" fill="url(#paint2_radial_25_178)"/>
<path style="mix-blend-mode:multiply" opacity="0.5" d="M440.08 75.5101C397.908 33.3414 342.419 7.09979 283.068 1.25639C223.716 -4.58701 164.175 10.3294 114.589 43.464C65.0026 76.5986 28.4392 125.901 11.1284 182.972C-6.18245 240.042 -3.16955 301.349 19.6537 356.448C42.477 411.546 83.6986 457.026 136.295 485.139C188.891 513.251 249.608 522.258 308.1 510.623C366.592 498.988 419.241 467.432 457.075 421.332C494.91 375.231 515.589 317.438 515.59 257.8C515.683 223.932 509.057 190.381 496.096 159.091C483.135 127.801 464.095 99.3921 440.08 75.5101ZM431.33 422.12C384.19 467.59 321.51 492.63 254.84 492.63C188.17 492.63 125.5 467.63 78.35 422.12C31.2 376.61 5.25006 316.2 5.25006 251.89C5.25006 187.58 31.25 127.13 78.35 81.6601C125.45 36.1901 188.18 11.1501 254.84 11.1501C321.5 11.1501 384.19 36.1501 431.33 81.6601C478.47 127.17 504.44 187.59 504.44 251.89C504.44 316.19 478.48 376.65 431.33 422.12Z" fill="url(#paint3_linear_25_178)"/>
<path style="mix-blend-mode:multiply" d="M433.59 426.42C386.45 471.89 321.84 497.92 255.17 497.92C190.44 497.92 123.32 472.34 82.45 432.32C82.45 437.24 82.5801 442.16 82.7701 447.09C118.359 479.998 162.505 502.206 210.142 511.166C257.778 520.126 306.975 515.475 352.089 497.747C397.203 480.019 436.405 449.932 465.197 410.938C493.989 371.944 511.205 325.623 514.87 277.29C512.33 273.403 509.72 269.57 507.04 265.79C500.72 339.35 478.31 383.25 433.59 426.42Z" fill="url(#paint4_radial_25_178)"/>
<path style="mix-blend-mode:multiply" opacity="0.3" d="M258.53 467.05C206.42 467.05 157.43 445.89 120.59 407.47C83.75 369.05 63.45 317.97 63.45 263.63C63.45 209.29 83.74 158.22 120.59 119.8C157.44 81.3801 204.98 64.29 257.09 64.29C309.2 64.29 359.59 81.42 396.48 119.8C433.37 158.18 453.62 209.3 453.62 263.63C453.62 317.96 437.69 370.32 400.84 408.74C363.99 447.16 310.64 467.05 258.53 467.05Z" fill="url(#paint5_linear_25_178)"/>
<path style="mix-blend-mode:multiply" opacity="0.5" d="M258.53 460.49C208.12 460.49 160.73 440.02 125.08 402.85C89.43 365.68 69.8 316.26 69.8 263.7C69.8 211.14 89.43 161.7 125.08 124.55C160.73 87.4001 206.73 70.8501 257.14 70.8501C307.55 70.8501 356.34 87.3801 391.98 124.55C427.62 161.72 447.26 211.14 447.26 263.7C447.26 316.26 431.85 366.91 396.2 404.08C360.55 441.25 308.94 460.49 258.53 460.49Z" fill="url(#paint6_linear_25_178)"/>
<path d="M257.8 439.5C215.763 439.501 175.026 424.925 142.53 398.258C110.035 371.59 87.7908 334.48 79.5892 293.25C71.3876 252.021 77.7354 209.223 97.5512 172.149C117.367 135.075 149.425 106.019 188.262 89.932C227.099 73.8445 270.313 71.721 310.54 83.9233C350.768 96.1256 385.519 121.899 408.874 156.851C432.229 191.804 442.743 233.773 438.623 275.608C434.503 317.443 416.005 356.555 386.28 386.28C369.447 403.205 349.424 416.623 327.371 425.759C305.317 434.894 281.671 439.564 257.8 439.5Z" fill="url(#paint7_linear_25_178)"/>
<path style="mix-blend-mode:screen" opacity="0.6" d="M241.4 337.82C203.4 339.75 167.63 328.67 140.74 306.61C113.85 284.55 99.05 254.18 99.05 221.06C99.05 187.94 113.86 156.06 140.74 131.28C167.62 106.5 203.38 91.8001 241.4 89.8701C279.42 87.9401 315.16 99.03 342.05 121.08C368.94 143.13 383.74 173.52 383.74 206.63C383.74 239.74 368.94 271.63 342.05 296.41C315.16 321.19 279.42 335.9 241.4 337.82Z" fill="url(#paint8_linear_25_178)"/>
<path style="mix-blend-mode:multiply" opacity="0.3" d="M229.31 316.18C176.45 316.18 126.74 299.18 89.21 268.31C94.82 299.22 110.55 327.7 134.9 350.31C165.84 379.05 206.82 397.51 250.58 397.51C294.34 397.51 335.64 379.05 366.58 350.31C397.52 321.57 414.58 283.31 414.58 242.7C414.586 233.895 413.779 225.107 412.17 216.45C389.65 296.5 282.49 316.18 229.31 316.18Z" fill="url(#paint9_linear_25_178)"/>
<path style="mix-blend-mode:multiply" opacity="0.4" d="M386.28 129.31C356.554 99.5833 317.44 81.0832 275.603 76.9621C233.766 72.8409 191.794 83.3536 156.84 106.709C121.885 130.064 96.1092 164.818 83.9052 205.047C71.7012 245.276 73.8236 288.492 89.9108 327.332C105.998 366.171 135.055 398.231 172.13 418.049C209.205 437.867 252.005 444.217 293.237 436.016C334.469 427.815 371.581 405.571 398.252 373.075C424.922 340.578 439.499 299.84 439.5 257.8C439.566 233.928 434.896 210.279 425.761 188.224C416.626 166.168 403.207 146.144 386.28 129.31ZM368.65 354.22C337.49 384.08 296.07 400.53 252 400.53C207.93 400.53 166.5 384.08 135.34 354.22C104.18 324.36 85.93 286.22 85.93 244.02C85.93 201.82 103.09 162.09 134.25 132.24C165.41 102.39 206.84 85.9301 250.91 85.9301C294.98 85.9301 336.4 102.42 367.59 132.24C398.78 162.06 415.91 201.79 415.91 244.02C415.91 286.25 399.81 324.36 368.65 354.22Z" fill="url(#paint10_linear_25_178)"/>
<path style="mix-blend-mode:multiply" d="M375.59 362.75C344.43 392.61 302.78 411.95 253.59 410.96C209.54 410.08 135.18 390.08 89.2701 324.49C90.6101 335.15 114.19 375.21 133.76 390.49C159.63 414.68 192.005 430.782 226.904 436.816C261.804 442.85 297.706 438.553 330.195 424.453C362.685 410.353 390.346 387.065 409.776 357.454C429.206 327.842 439.558 293.197 439.56 257.78C439.56 252.047 439.293 246.36 438.76 240.72C438.68 228.26 430.37 196.33 424.9 185.62C439.49 282.94 406.7 332.89 375.59 362.75Z" fill="url(#paint11_radial_25_178)"/>
<path d="M209.91 104.96C197.75 101.96 175.14 116.76 174.49 125.29C173.63 136.49 188.92 134.48 205.32 125.95C218.4 119.15 217.78 106.92 209.91 104.96Z" fill="#E5FFFF"/>
<path d="M152.67 140.2C143.9 140.85 137.42 147.73 138.86 153.56C140.75 161.21 148.99 160.01 155.27 153.79C162.59 146.52 158.36 139.78 152.67 140.2Z" fill="#E5FFFF"/>
<path style="mix-blend-mode:multiply" opacity="0.2" d="M286.75 375.25H228.75V347.72C224.279 346.158 219.934 344.259 215.75 342.04L195.98 361.59L155.19 320.35L174.94 300.81C172.918 296.911 171.173 292.875 169.72 288.73H142.2V230.73H170.08C171.634 226.369 173.513 222.13 175.7 218.05L155.86 198.05L197.1 157.25L216.92 177.3C220.729 175.308 224.671 173.584 228.72 172.14V144.2H286.72V171.73C291.192 173.291 295.539 175.194 299.72 177.42L319.5 157.86L360.29 199.11L340.53 218.65C342.552 222.545 344.296 226.579 345.75 230.72H373.28V288.72H345.39C343.834 293.08 341.955 297.318 339.77 301.4L359.61 321.46L318.37 362.25L298.54 342.25C294.734 344.24 290.794 345.964 286.75 347.41V375.25ZM277.91 366.42V340.97L281 339.97C281.77 339.72 282.55 339.46 283.32 339.19C281.533 339.823 279.73 340.387 277.91 340.88V366.42ZM246.44 357.57H269.07V334.16L275.57 332.38C282.568 330.446 289.25 327.512 295.41 323.67L301.41 319.96L318.52 337.26L334.61 321.34L317.5 304.03L321.27 298.09C325.32 291.74 328.397 284.82 330.4 277.56L332.19 271.05H355.59V248.42H332.38L330.65 241.82C328.758 234.74 325.833 227.978 321.97 221.75L318.29 215.75L335.29 198.96L319.38 182.87L302.38 199.66L296.44 195.93C290.019 191.858 283.015 188.786 275.67 186.82L269.07 185.09V161.89H246.44V185.3L239.93 187.08C232.936 189.017 226.258 191.95 220.1 195.79L214.1 199.52L196.99 182.21L180.9 198.13L198.02 215.43L194.25 221.43C190.2 227.777 187.123 234.693 185.12 241.95L183.34 248.46H159.92V271.09H183.11L184.85 277.69C186.74 284.771 189.665 291.534 193.53 297.76L197.2 303.76L180.2 320.56L196.12 336.64L213.12 319.86L219.05 323.58C225.478 327.653 232.488 330.725 239.84 332.69L246.44 334.43V357.57ZM171.3 324.04L196.08 349.09L214.31 331.09L217.23 332.77C218.39 333.44 219.56 334.09 220.74 334.7C218.59 333.58 216.45 332.36 214.36 331.04L196.08 349.12L171.3 324.04ZM231.75 339.41C232.65 339.72 233.56 340.02 234.47 340.3L237.59 341.3V341.23C235.623 340.69 233.673 340.087 231.74 339.42L231.75 339.41ZM300.12 331.24L307.43 338.63L300.07 331.19C298.89 331.92 297.69 332.63 296.48 333.3L297.18 332.91L300.12 331.24ZM167.72 320.42L185.98 302.34C185.42 301.42 184.88 300.5 184.35 299.57L185.94 302.39L167.72 320.42ZM328.72 302.81L330.43 299.88C330.68 299.45 330.93 299.01 331.17 298.57C330.42 300.04 329.59 301.42 328.72 302.81ZM338.91 279.88C338.437 281.6 337.91 283.307 337.33 285C337.56 284.32 337.79 283.65 338 283L339 279.91H364.44L338.91 279.88ZM151.06 279.88H176.21L177.21 283.01C177.39 283.597 177.58 284.187 177.78 284.78C177.24 283.16 176.78 281.52 176.32 279.88H151.06ZM339.2 239.57H339.27L338.27 236.44C337.97 235.44 337.65 234.51 337.27 233.54C338.023 235.54 338.667 237.55 339.2 239.57ZM176.51 239.57H176.58C176.84 238.597 177.12 237.637 177.42 236.69L176.51 239.57ZM329.49 217.15C330.39 218.6 331.24 220.08 332.04 221.56L331.2 220.04L329.54 217.1L329.49 217.15ZM186.72 216.63L185.11 219.41C185.64 218.49 186.2 217.58 186.77 216.68L186.72 216.63ZM298.28 186.78C299.28 187.33 300.19 187.9 301.13 188.5H301.18L298.28 186.78ZM197.05 169.78L215.42 188.36C216.33 187.8 217.24 187.25 218.16 186.73L215.37 188.31L197.05 169.78ZM277.9 178.35C279.39 178.74 280.9 179.18 282.35 179.66L281.02 179.24L277.9 178.24V178.31V178.35ZM237.58 178.57L234.69 179.49C235.69 179.18 236.61 178.9 237.58 178.63V178.57ZM258.17 309.26C245.011 309.072 232.457 303.704 223.23 294.32C207 278.09 199.93 249.54 222.77 225.23L223.17 224.84C247.48 202 276.03 209.07 292.26 225.3C308.49 241.53 315.55 270.08 292.71 294.38L292.32 294.77C291.8 295.26 291.32 295.77 290.76 296.19L289.1 294.32L290.76 296.2C281.04 304.66 269.77 309.18 258.17 309.18V309.26ZM230.17 288.77C237.671 296.089 247.691 300.258 258.17 300.42C267.68 300.42 276.64 296.8 284.8 289.66L284.92 289.55L285.19 289.32C265.76 306.53 243.37 301.25 230.21 288.69L230.17 288.77ZM235.44 237.54C220.89 253.23 225.36 271.47 235.7 281.81C246.04 292.15 264.28 296.62 279.97 282.07C294.52 266.39 290.05 248.15 279.71 237.81C269.37 227.47 251.17 222.91 235.48 237.42L235.44 237.54ZM257.31 219.27C268.106 219.435 278.401 223.851 285.96 231.56C298.65 244.25 304.49 266.18 288.66 285.56C304.49 266.19 298.66 244.26 285.96 231.56C272.96 218.56 250.26 212.74 230.54 230.05C239.29 222.33 248.59 219.19 257.35 219.19L257.31 219.27ZM229.13 231.35C211.64 250.01 215.48 271.64 226.87 285.26C215.5 271.66 211.65 250.06 229.08 231.4L229.13 231.35Z" fill="url(#paint12_linear_25_178)"/>
<path style="mix-blend-mode:multiply" opacity="0.3" d="M282.32 370.83H233.16V344.52C226.831 342.56 220.742 339.893 215.01 336.57L196.01 355.34L161.44 320.34L180.44 301.57C177.33 296.085 174.819 290.282 172.95 284.26H146.65V235.15H173.28C175.26 228.927 177.92 222.941 181.21 217.3L162.14 198.03L197.08 163.42L216.13 182.68C221.52 179.605 227.218 177.104 233.13 175.22V148.62H282.29V174.94C288.623 176.912 294.712 179.596 300.44 182.94L319.44 164.17L354.01 199.17L335.01 217.92C338.121 223.407 340.629 229.214 342.49 235.24H368.81V284.4H342.18C340.196 290.621 337.536 296.607 334.25 302.25L353.31 321.53L318.31 356.09L299.31 336.84C293.919 339.91 288.221 342.407 282.31 344.29L282.32 370.83ZM242.01 361.99H273.48V337.52L276.73 336.63C284.138 334.59 291.211 331.488 297.73 327.42L300.73 325.56L318.47 343.5L340.85 321.37L323.1 303.37L324.98 300.37C329.267 293.652 332.527 286.331 334.65 278.65L335.54 275.39H360V243.99H335.78L334.92 240.69C332.919 233.187 329.822 226.02 325.73 219.42L323.89 216.42L341.51 198.99L319.38 176.61L301.75 194.06L298.75 192.19C291.95 187.873 284.531 184.619 276.75 182.54L273.45 181.67V157.47H241.98V181.93L238.72 182.82C231.313 184.869 224.241 187.974 217.72 192.04L214.72 193.9L196.97 175.9L174.6 198.04L192.35 215.98L190.46 218.98C186.179 225.7 182.924 233.021 180.8 240.7L179.91 243.96H155.44V275.42H179.65L180.52 278.72C182.525 286.222 185.622 293.388 189.71 299.99L191.55 302.99L173.97 320.42L196.1 342.8L213.73 325.37L216.73 327.23C223.533 331.538 230.951 334.789 238.73 336.87L242.03 337.74L242.01 361.99ZM258.17 304.76C245.85 304.76 234.43 299.18 226.36 291.11C211.59 276.34 205.17 250.34 226 228.18L226.19 227.98C248.36 207.16 274.36 213.57 289.13 228.35C303.9 243.13 310.31 269.12 289.49 291.28L289.29 291.47C288.81 291.93 288.29 292.37 287.84 292.79C278.19 301.28 267.9 304.76 258.17 304.76ZM232.35 234.33C215.67 252.18 220.78 273.03 232.61 284.86C244.44 296.69 265.28 301.8 283.14 285.12C299.81 267.27 294.7 246.43 282.88 234.6C271.06 222.77 250.21 217.66 232.35 234.33Z" fill="url(#paint13_linear_25_178)"/>
<path style="mix-blend-mode:multiply" opacity="0.4" d="M277.9 366.42H237.59V341.19C229.374 338.997 221.541 335.564 214.36 331.01L196.08 349.09L167.72 320.42L185.98 302.34C181.659 295.371 178.391 287.803 176.28 279.88H151.06V239.57H176.59C178.819 231.46 182.254 223.73 186.78 216.64L168.4 198.06L197.06 169.7L215.43 188.28C222.31 183.987 229.774 180.71 237.59 178.55V153.04H277.91V178.27C286.123 180.449 293.953 183.872 301.13 188.42L319.42 170.42L347.77 199.09L329.49 217.16C333.813 224.129 337.085 231.697 339.2 239.62H364.42V279.93H338.91C336.672 288.037 333.238 295.766 328.72 302.86L347.1 321.45L318.44 349.8L300.06 331.23C293.179 335.518 285.715 338.792 277.9 340.95V366.42ZM229.22 231.21C210.41 251.21 216.17 274.68 229.48 288C242.79 301.32 266.24 307.07 286.26 288.26C305.07 268.26 299.32 244.8 286 231.49C272.68 218.18 249.25 212.42 229.22 231.2V231.21Z" fill="url(#paint14_linear_25_178)"/>
<path d="M362.21 277.67V241.78H337.47C335.31 232.897 331.662 224.445 326.68 216.78L344.68 199.02L319.44 173.5L301.44 191.27C293.582 186.042 284.871 182.228 275.7 180V155.26H239.81V180.26C231.036 182.488 222.69 186.151 215.11 191.1L197.04 172.83L171.52 198.08L189.59 216.35C184.408 224.125 180.583 232.724 178.28 241.78H153.28V277.67H178.02C180.182 286.552 183.83 295.004 188.81 302.67L170.81 320.44L196.05 345.96L214.05 328.19C221.913 333.412 230.627 337.222 239.8 339.45V364.2H275.69V339.2C284.459 336.971 292.801 333.312 300.38 328.37L318.45 346.63L343.97 321.39L325.89 303.11C331.073 295.334 334.901 286.735 337.21 277.68L362.21 277.67ZM287.83 289.81C246.83 328.38 189.09 270.59 227.66 229.64C268.59 191.08 326.39 248.87 287.83 289.81Z" fill="url(#paint15_linear_25_178)"/>
<path style="mix-blend-mode:multiply" d="M362.21 277.67V241.78H337.47C335.31 232.897 331.662 224.445 326.68 216.78L344.68 199.02L319.44 173.5L301.44 191.27C293.582 186.042 284.871 182.228 275.7 180V155.26H239.81V180.26C231.036 182.488 222.69 186.151 215.11 191.1L197.04 172.83L171.52 198.08L189.59 216.35C184.408 224.125 180.583 232.724 178.28 241.78H153.28V277.67H178.02C180.182 286.552 183.83 295.004 188.81 302.67L170.81 320.44L196.05 345.96L214.05 328.19C221.913 333.412 230.627 337.222 239.8 339.45V364.2H275.69V339.2C284.459 336.971 292.801 333.312 300.38 328.37L318.45 346.63L343.97 321.39L325.89 303.11C331.073 295.334 334.901 286.735 337.21 277.68L362.21 277.67ZM319.33 298.92L335.67 315.45L312.59 338.26L296.26 321.75C289.408 326.217 281.867 329.524 273.94 331.54V354.14H241.5V331.78C233.214 329.759 225.343 326.311 218.24 321.59L202 337.65L179.19 314.59L195.42 298.53C190.917 291.608 187.621 283.974 185.67 275.95H163.31V243.51H185.92C187.992 235.319 191.445 227.541 196.13 220.51L179.8 203.99L202.86 181.18L219.19 197.69C226.036 193.216 233.574 189.905 241.5 187.89V165.32H273.94V187.68C282.226 189.695 290.098 193.14 297.2 197.86L313.44 181.8L336.25 204.87L320.02 220.87C324.525 227.794 327.821 235.433 329.77 243.46H352.13V275.9H329.59C327.496 284.098 324.027 291.882 319.33 298.92Z" fill="url(#paint16_linear_25_178)"/>
<path style="mix-blend-mode:multiply" d="M220.14 223.61C175.85 270.61 242.14 337.03 289.25 292.73C333.59 245.7 267.19 179.32 220.14 223.61ZM287.83 289.81C246.83 328.38 189.09 270.59 227.66 229.64C268.59 191.08 326.39 248.87 287.83 289.81Z" fill="url(#paint17_linear_25_178)"/>
<path style="mix-blend-mode:screen" opacity="0.5" d="M201.03 221.09L184.78 204.51L204.01 186.27L220.27 202.52C220.27 202.52 231.87 194.23 244.14 192.24L245.47 170.02L268.36 169.68L270.68 190.91C270.68 190.91 287.26 196.22 296.21 203.18L289.59 217.42C289.59 217.42 265.83 196.87 236.2 209.42C198.72 225.34 203.69 254.86 203.69 254.86L188.77 243.25L201.03 221.09Z" fill="url(#paint18_linear_25_178)"/>
</g>
<defs>
<linearGradient id="paint0_linear_25_178" x1="257.8" y1="199.42" x2="257.8" y2="517.24" gradientUnits="userSpaceOnUse">
<stop stop-color="#D9923C"/>
<stop offset="1" stop-color="#BD6519"/>
</linearGradient>
<linearGradient id="paint1_linear_25_178" x1="155.16" y1="61.06" x2="273.23" y2="287.36" gradientUnits="userSpaceOnUse">
<stop stop-color="#FFD37E"/>
<stop offset="1"/>
</linearGradient>
<radialGradient id="paint2_radial_25_178" cx="0" cy="0" r="1" gradientUnits="userSpaceOnUse" gradientTransform="translate(139.07 52.4801) scale(244.19 244.19)">
<stop stop-color="#FFD37E"/>
<stop offset="1"/>
</radialGradient>
<linearGradient id="paint3_linear_25_178" x1="145.52" y1="-161.38" x2="293.11" y2="389.63" gradientUnits="userSpaceOnUse">
<stop stop-color="white"/>
<stop offset="1" stop-color="#BD6519"/>
</linearGradient>
<radialGradient id="paint4_radial_25_178" cx="0" cy="0" r="1" gradientUnits="userSpaceOnUse" gradientTransform="translate(354.22 509.03) scale(247.6 247.6)">
<stop stop-color="#A95C19"/>
<stop offset="1" stop-color="white"/>
</radialGradient>
<linearGradient id="paint5_linear_25_178" x1="331.19" y1="357.26" x2="466.94" y2="532.2" gradientUnits="userSpaceOnUse">
<stop stop-color="#8B4519"/>
<stop offset="1" stop-color="white"/>
</linearGradient>
<linearGradient id="paint6_linear_25_178" x1="312.57" y1="345.79" x2="449.01" y2="553.07" gradientUnits="userSpaceOnUse">
<stop stop-color="#8B4519"/>
<stop offset="1" stop-color="white"/>
</linearGradient>
<linearGradient id="paint7_linear_25_178" x1="250.36" y1="214.25" x2="290.39" y2="448.69" gradientUnits="userSpaceOnUse">
<stop stop-color="#32A9E5"/>
<stop offset="1" stop-color="#007FC3"/>
</linearGradient>
<linearGradient id="paint8_linear_25_178" x1="219.13" y1="116.7" x2="248" y2="242.65" gradientUnits="userSpaceOnUse">
<stop stop-color="#35B5FF"/>
<stop offset="1"/>
</linearGradient>
<linearGradient id="paint9_linear_25_178" x1="268.82" y1="368.86" x2="254.39" y2="267.84" gradientUnits="userSpaceOnUse">
<stop stop-color="white"/>
<stop offset="1" stop-color="#0072B5"/>
</linearGradient>
<linearGradient id="paint10_linear_25_178" x1="128.54" y1="-170.09" x2="242.68" y2="207.75" gradientUnits="userSpaceOnUse">
<stop stop-color="white"/>
<stop offset="1" stop-color="#0072B5"/>
</linearGradient>
<radialGradient id="paint11_radial_25_178" cx="0" cy="0" r="1" gradientUnits="userSpaceOnUse" gradientTransform="translate(321.54 399.29) scale(258.75 258.75)">
<stop stop-color="#00639F"/>
<stop offset="1" stop-color="white"/>
</radialGradient>
<linearGradient id="paint12_linear_25_178" x1="257.74" y1="20.4401" x2="257.74" y2="189.58" gradientUnits="userSpaceOnUse">
<stop stop-color="white"/>
<stop offset="1" stop-color="#0072B5"/>
</linearGradient>
<linearGradient id="paint13_linear_25_178" x1="251.29" y1="65.1801" x2="255.27" y2="185.24" gradientUnits="userSpaceOnUse">
<stop stop-color="white"/>
<stop offset="1" stop-color="#0072B5"/>
</linearGradient>
<linearGradient id="paint14_linear_25_178" x1="231.2" y1="57.13" x2="243.8" y2="153.31" gradientUnits="userSpaceOnUse">
<stop stop-color="white"/>
<stop offset="1" stop-color="#0072B5"/>
</linearGradient>
<linearGradient id="paint15_linear_25_178" x1="257.74" y1="195.64" x2="257.74" y2="328.48" gradientUnits="userSpaceOnUse">
<stop stop-color="#F9C849"/>
<stop offset="1" stop-color="#ED7C18"/>
</linearGradient>
<linearGradient id="paint16_linear_25_178" x1="281.74" y1="492.63" x2="247.91" y2="164.29" gradientUnits="userSpaceOnUse">
<stop stop-color="white"/>
<stop offset="1" stop-color="#BD6F31"/>
</linearGradient>
<linearGradient id="paint17_linear_25_178" x1="278.95" y1="493.61" x2="245.12" y2="165.27" gradientUnits="userSpaceOnUse">
<stop stop-color="white"/>
<stop offset="1" stop-color="#BD6F31"/>
</linearGradient>
<linearGradient id="paint18_linear_25_178" x1="225.62" y1="180.27" x2="244.19" y2="227.59" gradientUnits="userSpaceOnUse">
<stop stop-color="#FFEA7E"/>
<stop offset="1"/>
</linearGradient>
<clipPath id="clip0_25_178">
<rect width="515.59" height="515.59" fill="white"/>
</clipPath>
</defs>
</svg>
