<svg width="516" height="516" viewBox="0 0 516 516" fill="none" xmlns="http://www.w3.org/2000/svg">
<g clip-path="url(#clip0_25_232)">
<path d="M257.79 515.59C198.143 515.594 140.341 494.916 94.231 457.08C48.1213 419.243 16.5575 366.589 4.91797 308.09C-6.72156 249.59 2.28333 188.864 30.3983 136.259C58.5132 83.6543 103.999 42.4255 159.104 19.598C214.209 -3.22963 275.525 -6.24365 332.604 11.0695C389.683 28.3826 438.992 64.9516 472.131 114.545C505.269 164.139 520.186 223.689 514.34 283.049C508.494 342.408 482.247 397.904 440.07 440.08C416.189 464.094 387.782 483.133 356.494 496.094C325.205 509.055 291.657 515.682 257.79 515.59Z" fill="url(#paint0_linear_25_232)"/>
<path style="mix-blend-mode:screen" opacity="0.5" d="M99.6299 435.2C94.5428 435.193 89.6662 433.168 86.0699 429.57C60.4299 403.854 40.8814 372.717 28.8626 338.449C16.8437 304.181 12.6604 267.655 16.6203 231.557C20.5802 195.459 32.5826 160.708 51.7445 129.861C70.9064 99.0138 96.7402 72.8549 127.346 53.3088C157.951 33.7628 192.549 21.3268 228.594 16.9159C264.64 12.505 301.216 16.2314 335.631 27.8208C370.046 39.4102 401.426 58.5679 427.46 83.8844C453.495 109.201 473.523 140.032 486.07 174.11C486.939 176.483 487.331 179.004 487.226 181.529C487.12 184.053 486.519 186.533 485.455 188.825C484.391 191.117 482.886 193.177 481.026 194.888C479.167 196.599 476.988 197.926 474.615 198.795C469.823 200.549 464.529 200.328 459.9 198.18C455.271 196.032 451.684 192.132 449.93 187.34C439.397 158.617 422.554 132.623 400.642 111.273C378.73 89.9237 352.307 73.7625 323.319 63.9804C294.332 54.1983 263.519 51.0447 233.151 54.7518C202.784 58.4589 173.634 68.9323 147.851 85.4004C122.069 101.868 100.309 123.912 84.1762 149.905C68.0433 175.899 57.9482 205.182 54.6346 235.595C51.321 266.009 54.8733 296.778 65.0299 325.636C75.1864 354.494 91.6884 380.706 113.32 402.34C116.012 405.03 117.846 408.458 118.59 412.191C119.333 415.924 118.953 419.793 117.497 423.31C116.041 426.826 113.575 429.832 110.411 431.947C107.246 434.061 103.526 435.19 99.72 435.19L99.6299 435.2Z" fill="url(#paint1_linear_25_232)"/>
<path style="mix-blend-mode:screen" opacity="0.8" d="M11.81 276.81C11.81 209.53 38.69 146.28 87.51 98.7001C136.33 51.1201 201.22 24.9201 270.26 24.9201C325.48 24.9201 378.04 41.7101 421.86 72.7601C386.212 41.1486 342.19 20.5084 295.09 13.3219C247.989 6.13536 199.815 12.7084 156.362 32.2507C112.909 51.7929 76.0257 83.4721 50.1492 123.478C24.2727 163.485 10.5044 210.115 10.5 257.76C10.5012 266.726 10.9819 275.685 11.94 284.6C11.86 282.03 11.81 279.43 11.81 276.81Z" fill="url(#paint2_radial_25_232)"/>
<path style="mix-blend-mode:multiply" opacity="0.5" d="M440.07 75.5001C397.896 33.3288 342.405 7.08525 283.052 1.24087C223.698 -4.6035 164.154 10.3129 114.565 43.4486C64.9763 76.5843 28.4109 125.889 11.0991 182.962C-6.2127 240.035 -3.19976 301.345 19.6246 356.445C42.4489 411.546 83.6723 457.028 136.271 485.142C188.87 513.256 249.589 522.262 308.084 510.626C366.579 498.991 419.229 467.433 457.065 421.33C494.901 375.227 515.58 317.431 515.58 257.79C515.672 223.922 509.046 190.372 496.084 159.081C483.123 127.791 464.084 99.3828 440.07 75.5001ZM431.33 422.15C384.19 467.62 321.51 492.66 254.84 492.66C188.17 492.66 125.49 467.66 78.3501 422.15C31.2101 376.64 5.25004 316.15 5.25004 251.89C5.25004 187.63 31.2501 127.13 78.3501 81.66C125.45 36.19 188.17 11.15 254.84 11.15C321.51 11.15 384.19 36.15 431.33 81.66C478.47 127.17 504.44 187.58 504.44 251.89C504.44 316.2 478.47 376.65 431.33 422.15Z" fill="url(#paint3_linear_25_232)"/>
<path style="mix-blend-mode:multiply" d="M433.59 426.37C386.45 471.84 321.84 497.87 255.17 497.87C190.43 497.87 123.32 472.29 82.45 432.28C82.45 437.19 82.58 442.12 82.77 447.04C118.358 479.952 162.504 502.163 210.141 511.125C257.779 520.088 306.979 515.438 352.094 497.709C397.209 479.98 436.412 449.891 465.203 410.895C493.995 371.899 511.209 325.575 514.87 277.24C512.317 273.36 509.707 269.527 507.04 265.74C500.72 339.35 478.31 383.24 433.59 426.37Z" fill="url(#paint4_radial_25_232)"/>
<path style="mix-blend-mode:multiply" opacity="0.3" d="M258.53 467.04C206.42 467.04 157.43 445.89 120.53 407.47C83.63 369.05 63.4 317.96 63.4 263.63C63.4 209.3 83.69 158.21 120.53 119.79C157.37 81.37 204.93 64.28 257.04 64.28C309.15 64.28 359.58 81.37 396.42 119.79C433.26 158.21 453.56 209.3 453.56 263.63C453.56 317.96 437.63 370.31 400.79 408.73C363.95 447.15 310.64 467.04 258.53 467.04Z" fill="url(#paint5_linear_25_232)"/>
<path style="mix-blend-mode:multiply" opacity="0.5" d="M258.53 460.48C208.12 460.48 160.72 440.01 125.08 402.85C89.4401 365.69 69.8 316.26 69.8 263.7C69.8 211.14 89.4301 161.7 125.08 124.54C160.73 87.3801 206.73 70.8401 257.14 70.8401C307.55 70.8401 356.34 87.3801 391.98 124.54C427.62 161.7 447.26 211.13 447.26 263.7C447.26 316.27 431.85 366.9 396.2 404.07C360.55 441.24 308.94 460.48 258.53 460.48Z" fill="url(#paint6_linear_25_232)"/>
<path d="M257.79 439.49C215.753 439.488 175.017 424.911 142.523 398.242C110.029 371.573 87.7876 334.462 79.5878 293.233C71.3879 252.004 77.7374 209.207 97.5542 172.134C117.371 135.061 149.429 106.006 188.266 89.92C227.104 73.8338 270.317 71.7114 310.544 83.9144C350.77 96.1174 385.521 121.891 408.876 156.843C432.23 191.796 442.743 233.765 438.623 275.599C434.502 317.434 416.004 356.545 386.28 386.27C369.446 403.197 349.422 416.616 327.366 425.751C305.311 434.887 281.662 439.556 257.79 439.49Z" fill="url(#paint7_linear_25_232)"/>
<path style="mix-blend-mode:screen" opacity="0.6" d="M190.59 155.79C172.23 162.02 165.99 250.58 179.11 328.64C165.098 323.423 152.012 315.996 140.35 306.64C113.46 284.64 98.66 254.2 98.66 221.09C98.66 187.98 113.46 156.09 140.35 131.31C167.24 106.53 202.98 91.8201 241 89.9001C279.02 87.9801 314.77 99.0501 341.65 121.11C368.53 143.17 383.34 173.54 383.34 206.66C383.34 239.78 368.03 275.53 329.34 301.12C329.34 301.12 363.45 272.47 350.99 249.29C325.9 202.63 227.44 150 190.59 155.79Z" fill="url(#paint8_linear_25_232)"/>
<path style="mix-blend-mode:multiply" opacity="0.3" d="M229.31 316.15C176.45 316.15 126.74 299.15 89.21 268.28C94.82 299.2 110.55 327.68 134.89 350.28C165.84 379.03 206.82 397.48 250.58 397.48C294.34 397.48 335.64 379.03 366.58 350.28C397.52 321.53 414.58 283.28 414.58 242.67C414.581 233.868 413.774 225.085 412.17 216.43C389.64 296.49 282.49 316.15 229.31 316.15Z" fill="url(#paint9_linear_25_232)"/>
<path style="mix-blend-mode:multiply" opacity="0.4" d="M386.28 129.31C356.556 99.5881 317.446 81.0919 275.614 76.9729C233.781 72.854 191.815 83.3671 156.865 106.721C121.915 130.075 96.144 164.825 83.9426 205.05C71.7413 245.275 73.8648 288.486 89.9512 327.32C106.038 366.155 135.092 398.211 172.163 418.025C209.234 437.84 252.029 444.188 293.256 435.987C334.483 427.787 371.591 405.545 398.258 373.052C424.924 340.559 439.5 299.825 439.5 257.79C439.564 233.919 434.894 210.273 425.759 188.22C416.623 166.166 403.205 146.143 386.28 129.31ZM368.65 354.22C337.49 384.08 296.06 400.52 252 400.52C207.94 400.52 166.5 384.08 135.34 354.22C104.18 324.36 85.93 286.22 85.93 244.02C85.93 201.82 103.07 162.09 134.25 132.23C165.43 102.37 206.84 85.9301 250.91 85.9301C294.98 85.9301 336.4 102.37 367.56 132.23C398.72 162.09 415.88 201.79 415.88 244.02C415.88 286.25 399.81 324.36 368.65 354.22Z" fill="url(#paint10_linear_25_232)"/>
<path style="mix-blend-mode:multiply" d="M375.54 362.75C344.38 392.6 302.73 411.94 253.54 410.96C209.48 410.08 135.13 390.08 89.21 324.48C90.56 335.15 114.14 375.21 133.71 390.48C159.58 414.67 191.956 430.772 226.857 436.806C261.757 442.84 297.66 438.542 330.15 424.441C362.64 410.34 390.301 387.051 409.73 357.437C429.159 327.824 439.51 293.178 439.51 257.76C439.51 252.03 439.23 246.34 438.71 240.71C438.62 228.24 430.31 196.32 424.85 185.61C439.49 282.94 406.7 332.89 375.54 362.75Z" fill="url(#paint11_radial_25_232)"/>
<path d="M209.91 104.95C197.75 101.95 175.14 116.76 174.49 125.29C173.62 136.48 188.92 134.47 205.32 125.94C218.39 119.15 217.78 106.92 209.91 104.95Z" fill="#E5FFFF"/>
<path d="M152.67 140.2C143.9 140.84 137.41 147.72 138.85 153.55C140.74 161.21 148.99 160 155.26 153.79C162.62 146.51 158.35 139.77 152.67 140.2Z" fill="#E5FFFF"/>
<path style="mix-blend-mode:multiply" opacity="0.2" d="M189.86 383.15C156.95 372.57 148.01 144.55 184.12 140.98C227.78 136.67 359.92 209.98 362.22 258.19C364.26 300.97 222.07 393.5 189.86 383.15Z" fill="url(#paint12_linear_25_232)"/>
<path style="mix-blend-mode:multiply" opacity="0.3" d="M195.93 372.92C165.81 363.24 157.63 154.54 190.68 151.28C230.68 147.33 351.59 214.38 353.68 258.55C355.55 297.7 225.38 382.39 195.93 372.92Z" fill="url(#paint13_linear_25_232)"/>
<path style="mix-blend-mode:multiply" opacity="0.4" d="M198.99 362.96C171.04 353.96 163.44 160.29 194.11 157.27C231.2 153.61 343.44 215.83 345.39 256.82C347.12 293.15 226.32 371.74 198.99 362.96Z" fill="url(#paint14_linear_25_232)"/>
<path d="M199.72 355.54C173.09 346.98 165.85 162.43 195.07 159.54C230.41 156.06 337.36 215.34 339.22 254.4C340.87 289.02 225.76 363.91 199.72 355.54Z" fill="url(#paint15_linear_25_232)"/>
<path style="mix-blend-mode:screen" opacity="0.5" d="M207.98 339.28C191.76 334.07 185.92 210.35 203.71 208.59C225.23 206.47 303.6 246.47 304.71 270.26C305.73 291.33 223.83 344.38 207.98 339.28Z" fill="url(#paint16_linear_25_232)"/>
<path style="mix-blend-mode:multiply" d="M339.22 254.4C337.36 215.34 230.41 156.06 195.07 159.54C165.85 162.43 173.07 346.98 199.72 355.54C225.76 363.91 340.87 289.02 339.22 254.4ZM202.07 351.27C191.69 347.93 183.7 312.74 180.75 271.57C177.61 227.65 182.75 172.73 191.9 171.2C233.9 164.2 329.62 233.38 330.31 257.79C330.68 270.79 303.46 295.61 277.7 314.68C248.01 336.67 213.31 354.88 202.07 351.27Z" fill="url(#paint17_linear_25_232)"/>
</g>
<defs>
<linearGradient id="paint0_linear_25_232" x1="257.79" y1="199.41" x2="257.79" y2="517.24" gradientUnits="userSpaceOnUse">
<stop stop-color="#D9923C"/>
<stop offset="1" stop-color="#BD6519"/>
</linearGradient>
<linearGradient id="paint1_linear_25_232" x1="155.15" y1="61.05" x2="273.23" y2="287.36" gradientUnits="userSpaceOnUse">
<stop stop-color="#FFD37E"/>
<stop offset="1"/>
</linearGradient>
<radialGradient id="paint2_radial_25_232" cx="0" cy="0" r="1" gradientUnits="userSpaceOnUse" gradientTransform="translate(139.06 52.4701) scale(244.19 244.19)">
<stop stop-color="#FFD37E"/>
<stop offset="1"/>
</radialGradient>
<linearGradient id="paint3_linear_25_232" x1="145.51" y1="-161.39" x2="293.11" y2="389.62" gradientUnits="userSpaceOnUse">
<stop stop-color="white"/>
<stop offset="1" stop-color="#BD6519"/>
</linearGradient>
<radialGradient id="paint4_radial_25_232" cx="0" cy="0" r="1" gradientUnits="userSpaceOnUse" gradientTransform="translate(354.22 509.03) scale(247.6 247.6)">
<stop stop-color="#A95C19"/>
<stop offset="1" stop-color="white"/>
</radialGradient>
<linearGradient id="paint5_linear_25_232" x1="331.19" y1="357.26" x2="466.94" y2="532.2" gradientUnits="userSpaceOnUse">
<stop stop-color="#8B4519"/>
<stop offset="1" stop-color="white"/>
</linearGradient>
<linearGradient id="paint6_linear_25_232" x1="312.56" y1="345.78" x2="449" y2="553.07" gradientUnits="userSpaceOnUse">
<stop stop-color="#8B4519"/>
<stop offset="1" stop-color="white"/>
</linearGradient>
<linearGradient id="paint7_linear_25_232" x1="250.36" y1="214.25" x2="290.38" y2="448.68" gradientUnits="userSpaceOnUse">
<stop stop-color="#32A9E5"/>
<stop offset="1" stop-color="#007FC3"/>
</linearGradient>
<linearGradient id="paint8_linear_25_232" x1="218.34" y1="114.95" x2="245.02" y2="231.39" gradientUnits="userSpaceOnUse">
<stop stop-color="#35B5FF"/>
<stop offset="1"/>
</linearGradient>
<linearGradient id="paint9_linear_25_232" x1="268.82" y1="368.86" x2="254.38" y2="267.84" gradientUnits="userSpaceOnUse">
<stop stop-color="white"/>
<stop offset="1" stop-color="#0072B5"/>
</linearGradient>
<linearGradient id="paint10_linear_25_232" x1="128.54" y1="-170.09" x2="242.67" y2="207.74" gradientUnits="userSpaceOnUse">
<stop stop-color="white"/>
<stop offset="1" stop-color="#0072B5"/>
</linearGradient>
<radialGradient id="paint11_radial_25_232" cx="0" cy="0" r="1" gradientUnits="userSpaceOnUse" gradientTransform="translate(321.54 399.28) scale(258.75 258.75)">
<stop stop-color="#00639F"/>
<stop offset="1" stop-color="white"/>
</radialGradient>
<linearGradient id="paint12_linear_25_232" x1="195.24" y1="94.0701" x2="258.03" y2="276.61" gradientUnits="userSpaceOnUse">
<stop stop-color="white"/>
<stop offset="1" stop-color="#0072B5"/>
</linearGradient>
<linearGradient id="paint13_linear_25_232" x1="200.85" y1="108.33" x2="258.33" y2="275.4" gradientUnits="userSpaceOnUse">
<stop stop-color="white"/>
<stop offset="1" stop-color="#0072B5"/>
</linearGradient>
<linearGradient id="paint14_linear_25_232" x1="203.55" y1="117.41" x2="256.89" y2="272.45" gradientUnits="userSpaceOnUse">
<stop stop-color="white"/>
<stop offset="1" stop-color="#0072B5"/>
</linearGradient>
<linearGradient id="paint15_linear_25_232" x1="228.28" y1="206.72" x2="266.33" y2="301.18" gradientUnits="userSpaceOnUse">
<stop stop-color="#F9C849"/>
<stop offset="1" stop-color="#ED7C18"/>
</linearGradient>
<linearGradient id="paint16_linear_25_232" x1="205.11" y1="319.94" x2="248.4" y2="249.1" gradientUnits="userSpaceOnUse">
<stop stop-color="#FFEA7E"/>
<stop offset="1"/>
</linearGradient>
<linearGradient id="paint17_linear_25_232" x1="165.97" y1="427.94" x2="266.33" y2="205.57" gradientUnits="userSpaceOnUse">
<stop stop-color="white"/>
<stop offset="1" stop-color="#BD6F31"/>
</linearGradient>
<clipPath id="clip0_25_232">
<rect width="515.59" height="515.59" fill="white"/>
</clipPath>
</defs>
</svg>
