<svg width="67" height="66" viewBox="0 0 67 66" fill="none" xmlns="http://www.w3.org/2000/svg">
<g clip-path="url(#clip0_4_5533)">
<path fill-rule="evenodd" clip-rule="evenodd" d="M33.62 1.15C39.8579 1.15989 45.9528 3.01866 51.1346 6.49143C56.3164 9.96419 60.3524 14.8951 62.7327 20.6609C65.113 26.4268 65.7307 32.7689 64.5077 38.8857C63.2847 45.0025 60.2759 50.6195 55.8615 55.0268C51.4472 59.4342 45.8255 62.4341 39.7067 63.6474C33.588 64.8607 27.2469 64.233 21.4848 61.8436C15.7227 59.4542 10.7982 55.4103 7.33368 50.223C3.86913 45.0357 2.02 38.9379 2.01999 32.7C2.01998 28.5526 2.8377 24.4459 4.42636 20.6148C6.01502 16.7837 8.34346 13.3034 11.2784 10.3731C14.2134 7.44274 17.6974 5.11983 21.531 3.53723C25.3646 1.95464 29.4726 1.14343 33.62 1.15Z" fill="url(#paint0_radial_4_5533)"/>
<path style="mix-blend-mode:screen" fill-rule="evenodd" clip-rule="evenodd" d="M33.62 1.15C39.8579 1.15989 45.9528 3.01866 51.1346 6.49143C56.3164 9.96419 60.3524 14.8951 62.7327 20.6609C65.113 26.4268 65.7307 32.7689 64.5077 38.8857C63.2847 45.0025 60.2759 50.6195 55.8615 55.0268C51.4472 59.4342 45.8255 62.4341 39.7067 63.6474C33.588 64.8607 27.2469 64.233 21.4848 61.8436C15.7227 59.4542 10.7982 55.4103 7.33368 50.223C3.86913 45.0357 2.02 38.9379 2.01999 32.7C2.01998 28.5526 2.8377 24.4459 4.42636 20.6148C6.01502 16.7837 8.34346 13.3034 11.2784 10.3731C14.2134 7.44274 17.6974 5.11983 21.531 3.53723C25.3646 1.95464 29.4726 1.14343 33.62 1.15Z" fill="url(#paint1_radial_4_5533)"/>
<path style="mix-blend-mode:multiply" fill-rule="evenodd" clip-rule="evenodd" d="M47.26 51.01C46.72 51.1 44.34 50.71 43.51 50.71C38.6404 50.8689 33.8228 51.7623 29.22 53.36C28.0988 53.7312 27.0451 54.2817 26.1 54.99C25.19 55.76 25.49 57.19 23.56 57.12C22.22 57.07 20.65 56.42 20.78 54.94C20.9 53.63 21.02 51.84 20.23 51.11C17.4224 48.6252 14.4342 46.3523 11.29 44.31C9.22 42.91 8.15 43.7 6.94 43.31C5.43 42.8 4.68999 40.68 4.33999 39.31C3.58999 36.31 4.91 31.49 4.85 29.66C4.78 27.59 2.22998 30.46 3.79998 22.26C1.55816 28.5738 1.38385 35.4372 3.3023 41.8567C5.22075 48.2762 9.13241 53.9185 14.471 57.967C19.8095 62.0154 26.298 64.2598 32.997 64.3753C39.696 64.4908 46.2579 62.4713 51.7328 58.6092C57.2078 54.7472 61.3115 49.243 63.45 42.8934C65.5886 36.5439 65.6509 29.6785 63.628 23.2912C61.6051 16.9039 57.6019 11.3261 52.1981 7.36525C46.7942 3.40444 40.27 1.26617 33.57 1.25999C27.0765 1.24962 20.7393 3.25139 15.43 6.98998C18.5361 5.03245 21.9996 3.71029 25.62 3.09999C28.8678 2.56394 32.1867 2.63174 35.41 3.29998C36.2848 3.38009 37.1652 3.38009 38.04 3.29998C40.83 3.35998 44.04 5.48998 46.38 7.29998C47.96 8.55998 48.79 10.68 49.53 11.43C50.48 12.37 50.53 11.57 51.63 12.35C53.86 13.97 58.48 23.05 58.22 25.79C58.13 26.71 57.58 26.72 57.53 27.65C57.48 28.58 58.02 30.16 57.97 31.05C57.57 37.18 54.92 36.83 53.97 41.83C53.81 42.67 53.9 45.25 53.66 46.58C53.5589 47.2366 53.2546 47.8451 52.79 48.32C51.221 49.7079 49.2951 50.6292 47.23 50.98L47.26 51.01Z" fill="url(#paint2_radial_4_5533)"/>
<path style="mix-blend-mode:screen" fill-rule="evenodd" clip-rule="evenodd" d="M5.15001 27.87C5.52001 28.37 6.25001 28.55 6.53001 29.1C7.32622 31.1445 7.9093 33.2658 8.27 35.43C8.27 36.01 7.74 36.49 7.71 37.07C7.61 38.69 9.71002 41.18 10.88 40.49C11.59 40.06 12 39.22 12.72 38.81C13.44 38.4 14.72 38.95 15.32 38.75C15.54 38.68 15.64 38.37 15.63 38.14C15.6037 37.8734 15.5327 37.6131 15.42 37.37C15.0762 36.622 14.9566 35.7904 15.0755 34.9758C15.1944 34.1612 15.5468 33.3985 16.09 32.78C17.8061 30.85 19.7816 29.1673 21.96 27.78C23.96 26.44 26.83 26.07 28.46 25.9C29.52 25.79 30 24.9 28.95 23.99C26.75 22.2141 25.0022 19.942 23.85 17.36C23.35 16.17 23.52 12.8 24.31 11.74C25.0647 10.6719 26.0495 9.78675 27.1918 9.14985C28.334 8.51294 29.6047 8.14051 30.91 8.06C33.66 8.06 37.48 9.41001 40.08 10.43C42.39 11.34 42.79 11.13 43.08 10.7C43.37 10.27 42.63 8.8 40.73 7.16C35.42 2.59 29.52 2.65 23.03 4.74C22.09 5.04 15.84 7.74 16.03 9.23C16.03 9.35 18.45 12.16 18.79 12.81C19.0602 13.3303 19.1814 13.9152 19.14 14.5C18.9622 17.9861 17.9653 21.3812 16.23 24.41C15.9503 24.8142 15.5353 25.105 15.06 25.23C13.22 25.78 8.80002 26.78 6.88002 26.55C6.34002 26.49 5.93001 25.68 5.40001 25.84C4.87001 26 4.99 27.61 5.14 27.84L5.15001 27.87ZM42.91 12.81C43.3445 14.1069 44.0234 15.3085 44.91 16.35C45.0407 16.4626 45.2075 16.5246 45.38 16.5246C45.5525 16.5246 45.7193 16.4626 45.85 16.35C46.67 15.35 45.43 12.42 44.85 11.56C44.27 10.7 42.85 11.98 42.97 12.78L42.91 12.81ZM46.46 17.57C46.5865 17.6443 46.695 17.7456 46.778 17.8665C46.8609 17.9875 46.9162 18.1253 46.94 18.27C46.9407 18.6957 46.8267 19.1136 46.61 19.48C46.5538 19.6135 46.4707 19.734 46.3657 19.8338C46.2607 19.9336 46.1362 20.0106 46 20.06C45.8776 20.0691 45.7552 20.0417 45.6484 19.9811C45.5415 19.9206 45.4551 19.8297 45.4 19.72C45.1503 19.2319 45.0298 18.6879 45.05 18.14C45.0611 17.9758 45.1125 17.8169 45.1997 17.6773C45.287 17.5378 45.4073 17.4219 45.55 17.34C45.7092 17.3067 45.8739 17.31 46.0316 17.3499C46.1893 17.3898 46.3358 17.465 46.46 17.57ZM36.62 27.74C36.5712 27.7991 36.5446 27.8734 36.5446 27.95C36.5446 28.0266 36.5712 28.1009 36.62 28.16C37.7571 29.1627 39.1356 29.8519 40.62 30.16C42.09 30.42 42.15 28.11 41.62 27.56C41.2334 27.2674 40.7536 27.1253 40.27 27.16C39.49 27.16 37.13 27.16 36.58 27.77L36.62 27.74Z" fill="url(#paint3_radial_4_5533)"/>
<path fill-rule="evenodd" clip-rule="evenodd" d="M59.36 21.1C60.9389 19.7261 62.4255 18.2496 63.81 16.68C62.7725 14.9871 61.3931 13.5294 59.76 12.4C59.1211 12.3583 58.4797 12.419 57.86 12.58C58.1434 15.4539 58.6449 18.3021 59.36 21.1Z" fill="url(#paint4_radial_4_5533)"/>
<path fill-rule="evenodd" clip-rule="evenodd" d="M63.81 16.65C62.4255 18.2196 60.9389 19.6961 59.36 21.07C60.8571 23.3528 62.6343 25.439 64.65 27.28C65.3913 26.583 65.9833 25.7427 66.39 24.81C66.6034 24.0377 66.7474 23.2479 66.82 22.45C66.334 20.2914 65.3009 18.294 63.82 16.65H63.81Z" fill="url(#paint5_radial_4_5533)"/>
<path fill-rule="evenodd" clip-rule="evenodd" d="M59.76 12.37C61.3931 13.4994 62.7725 14.9571 63.81 16.65C65.2909 18.2941 66.324 20.2914 66.81 22.45C66.6825 21.3457 66.4446 20.2569 66.1 19.2C65.2519 17.3707 64.1252 15.684 62.76 14.2C61.8726 13.4297 60.8573 12.8205 59.76 12.4V12.37Z" fill="url(#paint6_radial_4_5533)"/>
<path fill-rule="evenodd" clip-rule="evenodd" d="M60.34 42.81C60.7542 40.7531 61.374 38.743 62.19 36.81C60.5107 38.2638 59.0251 39.9274 57.77 41.76C58.5702 42.2347 59.4363 42.5886 60.34 42.81Z" fill="url(#paint7_radial_4_5533)"/>
<path fill-rule="evenodd" clip-rule="evenodd" d="M60.34 42.81C59.4363 42.5886 58.5702 42.2348 57.77 41.76C57.1129 43.0198 56.6382 44.3666 56.36 45.76C57.7166 45.7177 59.0617 45.4958 60.36 45.1C60.2998 44.3412 60.2998 43.5788 60.36 42.82L60.34 42.81Z" fill="url(#paint8_radial_4_5533)"/>
<path fill-rule="evenodd" clip-rule="evenodd" d="M60.38 45.1C59.0817 45.4958 57.7366 45.7177 56.38 45.76C56.2601 46.8166 56.2601 47.8834 56.38 48.94C57.8146 48.089 59.3367 47.395 60.92 46.87C60.6787 46.3013 60.5009 45.7077 60.39 45.1H60.38Z" fill="url(#paint9_radial_4_5533)"/>
<path fill-rule="evenodd" clip-rule="evenodd" d="M60.91 46.86C59.3267 47.385 57.8046 48.079 56.37 48.93C57.3629 49.6229 58.46 50.1529 59.62 50.5C60.782 50.1196 61.8833 49.574 62.89 48.88C62.1295 48.3143 61.4557 47.6405 60.89 46.88L60.91 46.86Z" fill="url(#paint10_radial_4_5533)"/>
<path fill-rule="evenodd" clip-rule="evenodd" d="M60.38 45.1C60.491 45.7077 60.6687 46.3013 60.91 46.87C61.4757 47.6305 62.1495 48.3043 62.91 48.87C64.8093 46.1409 66.1267 43.0501 66.78 39.79C66.6094 38.1469 66.0093 36.5776 65.04 35.24C64.0385 35.6467 63.0886 36.1703 62.21 36.8C61.394 38.733 60.7742 40.7431 60.36 42.8C60.2998 43.5588 60.2998 44.3212 60.36 45.08L60.38 45.1Z" fill="url(#paint11_radial_4_5533)"/>
<path fill-rule="evenodd" clip-rule="evenodd" d="M26.72 2.16C26.358 1.38189 25.8939 0.655504 25.34 0C24.6908 0.108674 24.0671 0.33578 23.5 0.669998C23.1668 1.59362 22.9452 2.55377 22.84 3.53C24.0944 2.96972 25.3919 2.51156 26.72 2.16Z" fill="url(#paint12_radial_4_5533)"/>
<path fill-rule="evenodd" clip-rule="evenodd" d="M25.34 0C25.8939 0.655504 26.358 1.38189 26.72 2.16C27.9169 1.99987 29.1225 1.91305 30.33 1.9H30.62C30.3579 1.35903 30.0213 0.85748 29.62 0.409996C28.2062 0.138127 26.7697 0.000851135 25.33 0H25.34Z" fill="url(#paint13_radial_4_5533)"/>
<path fill-rule="evenodd" clip-rule="evenodd" d="M30.33 1.89999C29.1225 1.91304 27.9169 1.99986 26.72 2.15999C25.3919 2.51156 24.0944 2.96971 22.84 3.52999C25.2594 2.67799 27.7754 2.13045 30.33 1.89999Z" fill="url(#paint14_radial_4_5533)"/>
<path style="mix-blend-mode:multiply" fill-rule="evenodd" clip-rule="evenodd" d="M44.87 44.76L50.78 37.86C51.6754 38.991 52.4528 40.2107 53.1 41.5C53.3349 42.4067 53.4127 43.347 53.33 44.28C53.0062 44.8846 52.6026 45.4429 52.13 45.94C51.1164 46.5801 49.9776 46.996 48.79 47.16C48.3053 47.1774 47.8281 47.037 47.43 46.76C46.52 46.17 45.72 45.42 44.87 44.76Z" fill="url(#paint15_radial_4_5533)"/>
<path style="mix-blend-mode:multiply" fill-rule="evenodd" clip-rule="evenodd" d="M45.43 30.41L48.62 24C49.5574 24.5658 50.4009 25.2743 51.12 26.1C51.5028 26.7507 51.7637 27.4657 51.89 28.21C51.7723 28.7505 51.5805 29.2721 51.32 29.76C50.6695 30.4694 49.8751 31.0319 48.99 31.41C48.6161 31.5301 48.2139 31.5301 47.84 31.41C47.01 31.15 46.24 30.74 45.43 30.41Z" fill="url(#paint16_radial_4_5533)"/>
<path fill-rule="evenodd" clip-rule="evenodd" d="M44.53 29.51C45.8548 29.3816 47.1508 29.0441 48.37 28.51C48.744 27.9221 49.0526 27.295 49.29 26.64C48.8404 25.616 48.2981 24.6353 47.67 23.71C47.0089 24.1755 46.4223 24.7386 45.93 25.38C45.2892 26.6774 44.8187 28.0521 44.53 29.47V29.51Z" fill="url(#paint17_radial_4_5533)"/>
<path fill-rule="evenodd" clip-rule="evenodd" d="M48.37 28.55C47.1508 29.084 45.8548 29.4216 44.53 29.55C44.7789 29.9582 45.1217 30.3011 45.53 30.55C46.3974 30.6449 47.2726 30.6449 48.14 30.55C48.2932 29.9319 48.3671 29.2968 48.36 28.66L48.37 28.55Z" fill="url(#paint18_radial_4_5533)"/>
<path fill-rule="evenodd" clip-rule="evenodd" d="M48.37 28.55C48.3771 29.1868 48.3032 29.8219 48.15 30.44C48.9692 29.8939 49.6782 29.1985 50.24 28.39C50.3338 27.7276 50.3773 27.059 50.37 26.39C49.9935 26.4167 49.6263 26.5187 49.29 26.69C49.0526 27.345 48.744 27.9721 48.37 28.56V28.55Z" fill="url(#paint19_radial_4_5533)"/>
<path fill-rule="evenodd" clip-rule="evenodd" d="M47.67 23.75C48.2981 24.6753 48.8404 25.656 49.29 26.68C49.6263 26.5087 49.9935 26.4067 50.37 26.38C50.1138 25.7677 49.799 25.1817 49.43 24.63C49.2195 24.3628 48.9526 24.1453 48.6484 23.9932C48.3441 23.8411 48.01 23.7581 47.67 23.75Z" fill="url(#paint20_radial_4_5533)"/>
<path style="mix-blend-mode:multiply" fill-rule="evenodd" clip-rule="evenodd" d="M53.32 57.3C50.889 55.2714 48.2744 53.4737 45.51 51.93L32.62 64.23H33.62C40.8105 64.2261 47.782 61.7552 53.37 57.23L53.32 57.3Z" fill="url(#paint21_radial_4_5533)"/>
<path fill-rule="evenodd" clip-rule="evenodd" d="M29.62 60.4C29.9356 59.348 30.1598 58.2706 30.29 57.18C29.2118 56.747 28.1827 56.2006 27.22 55.55C27.7275 57.2956 28.54 58.9377 29.62 60.4Z" fill="url(#paint22_radial_4_5533)"/>
<path fill-rule="evenodd" clip-rule="evenodd" d="M30.25 57.18C31 57.33 35.56 57.59 36.65 57.7C39.2312 56.4921 41.6865 55.0317 43.98 53.34C43.715 52.7715 43.517 52.1742 43.39 51.56C38.21 51.56 30.72 53.07 27.18 55.56C28.1427 56.2106 29.1718 56.757 30.25 57.19V57.18Z" fill="url(#paint23_radial_4_5533)"/>
<path fill-rule="evenodd" clip-rule="evenodd" d="M43.98 53.34C41.677 55.0334 39.2116 56.4939 36.62 57.7C40.55 60.13 44.77 61.83 48.02 61.78C48.5328 61.1423 49.007 60.4744 49.44 59.78C47.4752 57.7625 45.6415 55.6215 43.95 53.37L43.98 53.34Z" fill="url(#paint24_radial_4_5533)"/>
<path fill-rule="evenodd" clip-rule="evenodd" d="M43.98 53.34C45.6715 55.5915 47.5052 57.7325 49.47 59.75C49.6383 59.2549 49.7785 58.7508 49.89 58.24C49.7429 57.3221 49.4948 56.4233 49.15 55.56C48.0655 54.2273 46.8457 53.0108 45.51 51.93C44.8116 51.7631 44.1036 51.6396 43.39 51.56C43.517 52.1742 43.715 52.7715 43.98 53.34Z" fill="url(#paint25_radial_4_5533)"/>
<path fill-rule="evenodd" clip-rule="evenodd" d="M48.05 61.78C44.8 61.78 40.58 60.13 36.65 57.7C35.56 57.59 31 57.33 30.25 57.18C30.1198 58.2706 29.8956 59.348 29.58 60.4C30.6825 62.1671 32.0291 63.7697 33.58 65.16C38.6417 65.7234 43.7433 64.5301 48.03 61.78H48.05Z" fill="url(#paint26_radial_4_5533)"/>
<path style="mix-blend-mode:multiply" fill-rule="evenodd" clip-rule="evenodd" d="M29.92 64.04C28.7752 63.1961 27.7639 62.1848 26.92 61.04L23.16 62.5C25.3546 63.2719 27.6288 63.7951 29.94 64.06L29.92 64.04Z" fill="url(#paint27_radial_4_5533)"/>
<path fill-rule="evenodd" clip-rule="evenodd" d="M17.21 60.49C18.1486 60.8201 19.1162 61.0611 20.1 61.21C20.5179 60.158 20.8752 59.0829 21.17 57.99C20.0729 58.0033 18.9878 58.2204 17.97 58.63C17.6188 59.2053 17.3622 59.8333 17.21 60.49Z" fill="url(#paint28_radial_4_5533)"/>
<path fill-rule="evenodd" clip-rule="evenodd" d="M20.1 61.21C19.1162 61.0611 18.1486 60.8201 17.21 60.49C17.6309 61.4855 18.2423 62.3891 19.01 63.15C19.9976 63.8536 21.0449 64.4692 22.14 64.99C21.2807 63.8417 20.6059 62.5664 20.14 61.21H20.1Z" fill="url(#paint29_radial_4_5533)"/>
<path fill-rule="evenodd" clip-rule="evenodd" d="M20.1 61.21C20.5659 62.5664 21.2407 63.8417 22.1 64.99C22.7863 64.8724 23.4572 64.6778 24.1 64.41C25.0371 63.8537 25.9005 63.1817 26.67 62.41C26.796 61.9579 26.8499 61.4888 26.83 61.02C24.9817 59.9063 23.0683 58.9045 21.1 58.02C20.8052 59.1129 20.4479 60.188 20.03 61.24L20.1 61.21Z" fill="url(#paint30_radial_4_5533)"/>
<path style="mix-blend-mode:multiply" fill-rule="evenodd" clip-rule="evenodd" d="M45.48 8.15C48.3685 8.11669 51.2549 8.32071 54.11 8.76C51.2471 6.29539 47.9651 4.36476 44.42 3.06L45.48 8.15Z" fill="url(#paint31_radial_4_5533)"/>
<path fill-rule="evenodd" clip-rule="evenodd" d="M44.06 7.47999C42.5252 6.59827 41.1356 5.4852 39.94 4.17999C40.9749 5.5375 42.1151 6.81143 43.35 7.98999C43.612 7.85835 43.8516 7.68624 44.06 7.47999Z" fill="url(#paint32_radial_4_5533)"/>
<path fill-rule="evenodd" clip-rule="evenodd" d="M47.34 6.82001C46.2739 7.15863 45.1741 7.37993 44.06 7.48C43.8516 7.68625 43.612 7.85837 43.35 7.99001C44.7643 8.19213 46.1972 8.22905 47.62 8.10001C47.4997 7.68983 47.4062 7.27229 47.34 6.85001V6.82001Z" fill="url(#paint33_radial_4_5533)"/>
<path fill-rule="evenodd" clip-rule="evenodd" d="M47.34 6.81998C47.4049 7.25237 47.4985 7.67998 47.62 8.09998C48.2001 7.46941 48.7067 6.77495 49.13 6.02998C48.725 5.96665 48.3266 5.86623 47.94 5.72998C47.7084 6.08552 47.5077 6.46022 47.34 6.84998V6.81998Z" fill="url(#paint34_radial_4_5533)"/>
<path fill-rule="evenodd" clip-rule="evenodd" d="M46.82 2.09999C47.1235 3.3206 47.4975 4.52261 47.94 5.69999C48.3266 5.83624 48.725 5.93666 49.13 5.99999C48.9118 4.24596 48.4156 2.53788 47.66 0.939987C47.4036 0.718185 47.1088 0.545326 46.79 0.429993C46.7401 0.985543 46.7401 1.54444 46.79 2.09999H46.82Z" fill="url(#paint35_radial_4_5533)"/>
<path fill-rule="evenodd" clip-rule="evenodd" d="M41.98 1.46999C43.6057 1.57026 45.2228 1.78074 46.82 2.09999C46.7701 1.54444 46.7701 0.985541 46.82 0.429991C45.3965 0.275355 43.958 0.329252 42.55 0.589987C41.5851 0.915853 40.6541 1.33448 39.77 1.83999C40.5039 1.64885 41.2537 1.52501 42.01 1.46999H41.98Z" fill="url(#paint36_radial_4_5533)"/>
<path fill-rule="evenodd" clip-rule="evenodd" d="M46.82 2.1C45.2228 1.78075 43.6057 1.57027 41.98 1.47C41.2236 1.52502 40.4739 1.64886 39.74 1.84C39.7069 2.62533 39.7741 3.41168 39.94 4.18C41.1356 5.48521 42.5252 6.59828 44.06 7.48C45.1741 7.37993 46.2739 7.15862 47.34 6.82C47.5077 6.43024 47.7084 6.05554 47.94 5.7C47.4975 4.52262 47.1235 3.32061 46.82 2.1Z" fill="url(#paint37_radial_4_5533)"/>
<path style="mix-blend-mode:multiply" fill-rule="evenodd" clip-rule="evenodd" d="M22.22 54.76C23.5547 53.7017 24.695 52.4193 25.59 50.97C26.4855 50.6308 27.4251 50.422 28.38 50.35C30.3648 50.9668 32.3989 51.4118 34.46 51.68C38.0742 51.1189 41.5159 49.7518 44.53 47.68C45.8519 46.2474 46.9845 44.651 47.9 42.93C48.0928 40.8969 47.9714 38.8462 47.54 36.85C44.54 34.26 40.9 32.72 37.83 30.74C32.02 34.82 26.4 38.74 20.75 42.66C24.6 50.34 23.68 50.66 18.58 44.18C15.15 46.56 11.71 48.97 8.19 51.44C9.84995 53.6873 11.8002 55.7048 13.99 57.44C16.8075 56.7929 19.5617 55.896 22.22 54.76Z" fill="url(#paint38_radial_4_5533)"/>
<path fill-rule="evenodd" clip-rule="evenodd" d="M29.91 27.55C28.1595 27.792 26.4462 28.2523 24.81 28.92C22.2676 30.3065 19.94 32.0547 17.9 34.11C17.5508 35.0766 17.3322 36.0855 17.25 37.11C18.5207 40.3584 20.4089 43.3299 22.81 45.86C25.7982 47.1969 28.9482 48.1382 32.18 48.66C34.9345 47.8648 37.5394 46.6215 39.89 44.98C41.4866 43.1288 42.7031 40.9813 43.47 38.66C43.6116 38.0216 43.7019 37.3728 43.74 36.72C42.0328 34.5114 40.0652 32.517 37.88 30.78C35.3173 29.4565 32.6396 28.3687 29.88 27.53L29.91 27.55Z" fill="#7A369E"/>
<path fill-rule="evenodd" clip-rule="evenodd" d="M22.81 45.88C23.8343 45.2493 24.7218 44.4196 25.42 43.44C22.9332 41.0469 20.1939 38.9312 17.25 37.13C18.5207 40.3784 20.4089 43.3499 22.81 45.88Z" fill="url(#paint39_radial_4_5533)"/>
<path fill-rule="evenodd" clip-rule="evenodd" d="M25.42 43.44C24.7218 44.4196 23.8343 45.2493 22.81 45.88C25.7982 47.2169 28.9482 48.1582 32.18 48.68C32.1491 47.3213 31.8287 45.9849 31.24 44.76C29.2541 44.5546 27.3001 44.1115 25.42 43.44Z" fill="url(#paint40_radial_4_5533)"/>
<path fill-rule="evenodd" clip-rule="evenodd" d="M34.29 41.1C33.4252 42.4389 32.401 43.6679 31.24 44.76C31.8287 45.9849 32.1491 47.3213 32.18 48.68C34.9345 47.8848 37.5394 46.6415 39.89 45C41.4866 43.1488 42.7031 41.0012 43.47 38.68C43.6116 38.0416 43.7019 37.3928 43.74 36.74C42.5558 36.9543 41.3473 37.0014 40.15 36.88C38.4048 38.5552 36.4321 39.9759 34.29 41.1Z" fill="url(#paint41_radial_4_5533)"/>
<path fill-rule="evenodd" clip-rule="evenodd" d="M32.82 34.21C33.0855 36.5489 33.5778 38.8564 34.29 41.1C36.4321 39.9759 38.4048 38.5552 40.15 36.88C37.6633 36.1067 35.22 35.2167 32.82 34.21Z" fill="url(#paint42_radial_4_5533)"/>
<path fill-rule="evenodd" clip-rule="evenodd" d="M32.82 34.21C35.22 35.2167 37.6633 36.1067 40.15 36.88C41.3473 37.0014 42.5558 36.9543 43.74 36.74C42.0328 34.5314 40.0652 32.537 37.88 30.8C35.3173 29.4765 32.6396 28.3887 29.88 27.55C28.1295 27.792 26.4162 28.2523 24.78 28.92C27.2555 30.9567 29.9367 32.7296 32.78 34.21H32.82Z" fill="url(#paint43_radial_4_5533)"/>
<path fill-rule="evenodd" clip-rule="evenodd" d="M34.29 41.1C33.5778 38.8564 33.0855 36.5489 32.82 34.21C29.9767 32.7296 27.2955 30.9567 24.82 28.92C22.2777 30.3065 19.95 32.0547 17.91 34.11C17.5608 35.0766 17.3422 36.0855 17.26 37.11C20.2039 38.9112 22.9433 41.027 25.43 43.42C27.3101 44.0915 29.2641 44.5346 31.25 44.74C32.411 43.6479 33.4351 42.4189 34.3 41.08L34.29 41.1Z" fill="url(#paint44_radial_4_5533)"/>
<path fill-rule="evenodd" clip-rule="evenodd" d="M13.81 41.1C12.66 41.58 7.75 43.96 5.81 45.73C5.95051 47.978 5.84657 50.2345 5.5 52.46C5.76708 52.8031 6.06497 53.1211 6.38998 53.41C7.8823 53.4555 9.36665 53.1757 10.74 52.59C11.3282 52.1876 11.8256 51.6664 12.2 51.06C12.7698 50.1105 13.2776 49.1251 13.72 48.11C14.0552 45.7904 14.0821 43.4367 13.8 41.11L13.81 41.1Z" fill="url(#paint45_radial_4_5533)"/>
<path fill-rule="evenodd" clip-rule="evenodd" d="M15.52 50.66C14.4064 50.6379 13.2944 50.7555 12.21 51.01C11.8356 51.6164 11.3382 52.1376 10.75 52.54C9.37666 53.1257 7.89231 53.4055 6.39999 53.36C7.8942 54.5925 9.54527 55.6215 11.31 56.42C12.6001 56.4267 13.8851 56.2585 15.13 55.92C16.7354 55.1199 18.2649 54.1761 19.7 53.1C19.2719 52.4404 18.7974 51.8122 18.28 51.22C17.34 50.98 16.43 50.81 15.52 50.66Z" fill="url(#paint46_radial_4_5533)"/>
<path fill-rule="evenodd" clip-rule="evenodd" d="M12.21 51.01C13.2944 50.7555 14.4064 50.6379 15.52 50.66C14.8537 49.8434 14.255 48.9738 13.73 48.06C13.2875 49.0751 12.7798 50.0605 12.21 51.01Z" fill="url(#paint47_radial_4_5533)"/>
<path fill-rule="evenodd" clip-rule="evenodd" d="M21.33 48.79C20.2286 49.4661 19.2201 50.283 18.33 51.22C18.8474 51.8122 19.3219 52.4404 19.75 53.1C20.5082 51.7607 21.0483 50.3092 21.35 48.8L21.33 48.79Z" fill="url(#paint48_radial_4_5533)"/>
<path fill-rule="evenodd" clip-rule="evenodd" d="M18.28 51.22C19.1701 50.283 20.1786 49.4661 21.28 48.79C20.4045 46.8952 19.2996 45.1152 17.99 43.49C17.1776 42.7539 16.3228 42.0661 15.43 41.43C14.8993 41.2082 14.3344 41.0797 13.76 41.05C14.0421 43.3766 14.0152 45.7304 13.68 48.05C14.205 48.9638 14.8037 49.8334 15.47 50.65C16.38 50.8 17.29 50.97 18.23 51.21L18.28 51.22Z" fill="url(#paint49_radial_4_5533)"/>
<path fill-rule="evenodd" clip-rule="evenodd" d="M51.14 40.58C50.97 39.86 50.55 38.24 50.78 37.86C51.2114 38.7066 51.5468 39.5988 51.78 40.52C51.5747 40.5002 51.3675 40.5206 51.17 40.58H51.14Z" fill="url(#paint50_radial_4_5533)"/>
<path fill-rule="evenodd" clip-rule="evenodd" d="M49.89 43.16C50.3842 42.3398 50.8026 41.4762 51.14 40.58C51.3375 40.5206 51.5447 40.5003 51.75 40.52C51.6722 41.5585 51.5083 42.5887 51.26 43.6C50.8145 43.4206 50.3566 43.2736 49.89 43.16Z" fill="url(#paint51_radial_4_5533)"/>
<path fill-rule="evenodd" clip-rule="evenodd" d="M49.89 43.16C50.3566 43.2736 50.8145 43.4206 51.26 43.6C50.6486 44.4227 49.9325 45.1623 49.13 45.8C49.0699 45.098 49.0699 44.3921 49.13 43.69C49.4005 43.5541 49.647 43.3751 49.86 43.16H49.89Z" fill="url(#paint52_radial_4_5533)"/>
<path fill-rule="evenodd" clip-rule="evenodd" d="M49.16 43.69C49.1 44.3921 49.1 45.098 49.16 45.8C48.7257 46.0773 48.2711 46.3213 47.8 46.53C46.7958 46.0039 45.827 45.4126 44.9 44.76C44.7156 44.4446 44.568 44.1091 44.46 43.76C44.9906 43.4855 45.4874 43.1499 45.94 42.76C46.9301 43.3331 48.0466 43.6526 49.19 43.69H49.16Z" fill="url(#paint53_radial_4_5533)"/>
<path fill-rule="evenodd" clip-rule="evenodd" d="M46.87 38.91C46.3819 40.1481 46.0461 41.4409 45.87 42.76C45.4173 43.1499 44.9206 43.4855 44.39 43.76C44.9491 42.0048 45.6377 40.2934 46.45 38.64L46.83 38.95L46.87 38.91Z" fill="url(#paint54_radial_4_5533)"/>
<path fill-rule="evenodd" clip-rule="evenodd" d="M46.87 38.91L46.49 38.6C47.1616 37.9934 47.9157 37.485 48.73 37.09C48.0665 37.6505 47.4448 38.2588 46.87 38.91Z" fill="url(#paint55_radial_4_5533)"/>
<path fill-rule="evenodd" clip-rule="evenodd" d="M46.87 38.91C47.4448 38.2588 48.0665 37.6505 48.73 37.09C49.4401 37.2686 50.1279 37.5269 50.78 37.86C50.55 38.24 50.97 39.86 51.14 40.58C50.8026 41.4762 50.3842 42.3398 49.89 43.16C49.677 43.3751 49.4305 43.5541 49.16 43.69C48.0166 43.6526 46.9001 43.3331 45.91 42.76C46.0861 41.4409 46.4219 40.1481 46.91 38.91H46.87Z" fill="url(#paint56_radial_4_5533)"/>
<path style="mix-blend-mode:multiply" fill-rule="evenodd" clip-rule="evenodd" d="M4.62 24.6C5.54421 25.5004 6.70652 26.118 7.97 26.38C11.1152 26.2792 14.2186 25.6295 17.14 24.46C18.63 22.23 19.14 18.31 19.31 15.29C18.9009 14.1369 18.299 13.0616 17.53 12.11C13.72 16.62 8.43 20.11 4.62 24.6Z" fill="url(#paint57_radial_4_5533)"/>
<path fill-rule="evenodd" clip-rule="evenodd" d="M8.16 25.78C7.31108 25.0961 6.54279 24.3177 5.87 23.46C4.65953 23.2711 3.48973 22.8789 2.41 22.3C3.41042 23.6416 4.66825 24.7702 6.10999 25.62C6.78537 25.7485 7.47287 25.8021 8.16 25.78Z" fill="url(#paint58_radial_4_5533)"/>
<path fill-rule="evenodd" clip-rule="evenodd" d="M5.87 23.46C6.54279 24.3178 7.31108 25.0961 8.16 25.78C9.67 25.62 14.82 23.78 15.61 23.15C14.7102 22.0345 13.976 20.7951 13.43 19.47C11.0314 21.0211 8.50177 22.3596 5.87 23.47V23.46Z" fill="url(#paint59_radial_4_5533)"/>
<path fill-rule="evenodd" clip-rule="evenodd" d="M13.43 19.47C13.976 20.7951 14.7102 22.0345 15.61 23.15C16.9979 20.6639 17.9484 17.9579 18.42 15.15C18.4048 14.5201 18.3244 13.8934 18.18 13.28C17.7771 12.5007 17.3227 11.749 16.82 11.03C15.9765 13.9565 14.8408 16.7908 13.43 19.49V19.47Z" fill="url(#paint60_radial_4_5533)"/>
<path fill-rule="evenodd" clip-rule="evenodd" d="M5.87 23.46C8.50177 22.3496 11.0314 21.0111 13.43 19.46C14.8408 16.7608 15.9765 13.9265 16.82 11C15.6968 9.83882 14.4259 8.83019 13.04 8C10.5566 9.12192 8.25452 10.6083 6.21 12.41C4.58192 14.3772 3.23566 16.5615 2.21 18.9C2.13765 20.0314 2.2116 21.1675 2.43 22.28C3.50972 22.8589 4.67953 23.2511 5.88999 23.44L5.87 23.46Z" fill="url(#paint61_radial_4_5533)"/>
<path style="mix-blend-mode:multiply" fill-rule="evenodd" clip-rule="evenodd" d="M2.01999 32.7C2.01458 34.915 2.2459 37.1242 2.70999 39.29C4.92681 39.0595 7.08973 38.4613 9.10999 37.52C9.09527 35.8606 8.75188 34.2206 8.09964 32.6947C7.4474 31.1688 6.49927 29.7873 5.31 28.63L2.16998 29.63C2.06998 30.63 2.01999 31.69 2.01999 32.74V32.7Z" fill="url(#paint62_radial_4_5533)"/>
<path fill-rule="evenodd" clip-rule="evenodd" d="M1.07001 37.9C1.55463 38.2917 2.05857 38.6588 2.57999 39C2.71685 39.0744 2.86095 39.1347 3.01001 39.18C2.76883 39.3071 2.50886 39.3949 2.23999 39.44C1.77809 38.9855 1.38406 38.4668 1.07001 37.9Z" fill="url(#paint63_radial_4_5533)"/>
<path fill-rule="evenodd" clip-rule="evenodd" d="M2.62 39C2.82101 38.0022 3.15746 37.0366 3.62 36.13C4.89471 36.2299 6.17527 36.2299 7.44998 36.13C6.15183 37.3758 4.65022 38.3904 3.01001 39.13C2.86095 39.0847 2.71685 39.0244 2.57999 38.95L2.62 39Z" fill="url(#paint64_radial_4_5533)"/>
<path fill-rule="evenodd" clip-rule="evenodd" d="M3.62 36.1C3.15746 37.0066 2.82101 37.9722 2.62 38.97C2.09858 38.6288 1.59461 38.2617 1.10999 37.87C0.684812 36.6982 0.327576 35.5029 0.0400085 34.29C0.0400085 32.78 0.0399817 31.29 0.199982 29.73C0.590536 29.3977 1.01644 29.1093 1.47 28.87C2.34806 28.9416 3.2292 28.9683 4.10999 28.95C4.23113 29.0514 4.36577 29.1355 4.51001 29.2C3.96158 29.7176 3.56258 30.3732 3.35495 31.0982C3.14732 31.8231 3.1387 32.5906 3.32999 33.32C3.14874 34.2549 3.24969 35.2226 3.62 36.1Z" fill="url(#paint65_radial_4_5533)"/>
<path fill-rule="evenodd" clip-rule="evenodd" d="M3.62 36.1C3.23621 35.2267 3.12133 34.2589 3.29001 33.32C3.09872 32.5906 3.10731 31.8231 3.31494 31.0982C3.52257 30.3732 3.92157 29.7176 4.47 29.2C4.91442 29.1962 5.35833 29.1695 5.79999 29.12C6.18999 29.96 7.52998 34.12 7.44998 36.12C6.17527 36.2199 4.89471 36.2199 3.62 36.12V36.1Z" fill="url(#paint66_radial_4_5533)"/>
<path fill-rule="evenodd" clip-rule="evenodd" d="M5.79999 29.15C5.35832 29.1995 4.91441 29.2262 4.47 29.23C4.32576 29.1656 4.19115 29.0814 4.07001 28.98C4.47607 28.839 4.89012 28.7221 5.31 28.63C5.49346 28.7832 5.65795 28.9578 5.79999 29.15Z" fill="url(#paint67_radial_4_5533)"/>
<path fill-rule="evenodd" clip-rule="evenodd" d="M5.31 28.63C4.89012 28.7221 4.47607 28.839 4.07001 28.98C3.18922 28.9983 2.30806 28.9716 1.42999 28.9C2.13999 28.56 2.85 28.23 3.59 27.9C4.17486 28.0963 4.74899 28.3233 5.31 28.58V28.63Z" fill="url(#paint68_radial_4_5533)"/>
<path fill-rule="evenodd" clip-rule="evenodd" d="M24.47 16.87C24.3748 15.3571 24.4722 13.8383 24.76 12.35C25.1742 13.7623 25.7443 15.124 26.46 16.41C25.7795 16.4954 25.1094 16.6496 24.46 16.87H24.47Z" fill="url(#paint69_radial_4_5533)"/>
<path fill-rule="evenodd" clip-rule="evenodd" d="M24.47 16.87C25.1194 16.6496 25.7895 16.4954 26.47 16.41C27.5121 17.4642 28.6392 18.4308 29.84 19.3C29.4179 20.4193 28.9131 21.5056 28.33 22.55C26.891 20.767 25.6032 18.8671 24.48 16.87H24.47Z" fill="url(#paint70_radial_4_5533)"/>
<path fill-rule="evenodd" clip-rule="evenodd" d="M28.32 22.55C28.9032 21.5056 29.4079 20.4193 29.83 19.3C31.5647 19.0833 33.2711 18.681 34.92 18.1C36.4531 20.8278 38.2056 23.4263 40.16 25.87C39.1128 26.2947 38.0233 26.6064 36.91 26.8C33.8584 25.8234 30.9648 24.4086 28.32 22.6V22.55Z" fill="url(#paint71_radial_4_5533)"/>
<path fill-rule="evenodd" clip-rule="evenodd" d="M40.16 25.82C38.2079 23.3923 36.4555 20.8105 34.92 18.1C35.58 17.32 36.25 16.55 36.92 15.78C38.2856 15.9672 39.6269 16.3026 40.92 16.78C42.2349 17.93 43.4157 19.2249 44.44 20.64C43.355 22.6628 41.8879 24.4559 40.12 25.92L40.16 25.82Z" fill="url(#paint72_radial_4_5533)"/>
<path fill-rule="evenodd" clip-rule="evenodd" d="M44.48 20.54C43.4557 19.1249 42.2749 17.8301 40.96 16.68C41.2069 15.1158 41.2573 13.5268 41.11 11.95C42.5719 14.6687 43.7032 17.5525 44.48 20.54Z" fill="url(#paint73_radial_4_5533)"/>
<path fill-rule="evenodd" clip-rule="evenodd" d="M41.11 11.95C41.2573 13.5268 41.2069 15.1158 40.96 16.68C39.6669 16.2026 38.3257 15.8673 36.96 15.68C36.3424 13.8927 35.5168 12.1843 34.5 10.59C33.1345 9.83985 31.6796 9.2653 30.17 8.88C31.6538 9.02295 33.1291 9.24326 34.59 9.54001C36.53 10.12 39.03 11.13 41.15 11.9L41.11 11.95Z" fill="url(#paint74_radial_4_5533)"/>
<path fill-rule="evenodd" clip-rule="evenodd" d="M34.46 10.64C35.4768 12.2343 36.3024 13.9427 36.92 15.73C36.25 16.5 35.58 17.27 34.92 18.05C33.2731 18.648 31.5666 19.0671 29.83 19.3C28.6292 18.4308 27.5021 17.4642 26.46 16.41C25.7443 15.124 25.1742 13.7622 24.76 12.35C26.3658 10.9437 28.1766 9.79045 30.13 8.92999C31.6396 9.31529 33.0945 9.88984 34.46 10.64Z" fill="url(#paint75_radial_4_5533)"/>
<g style="mix-blend-mode:screen">
<path fill-rule="evenodd" clip-rule="evenodd" d="M28.62 18.44C29.0849 18.3108 29.5761 18.3105 30.0412 18.4391C30.5062 18.5677 30.9276 18.8203 31.26 19.17C31.43 19.48 29.91 20.33 29.45 20.24C29.16 20.18 28.34 18.74 28.62 18.44Z" fill="#796AE5"/>
</g>
<path fill-rule="evenodd" clip-rule="evenodd" d="M28.62 18.41C29.0688 18.3309 29.5296 18.3526 29.9689 18.4737C30.4082 18.5948 30.8151 18.8121 31.16 19.11C31.29 19.41 29.91 20.28 29.49 20.19C29.22 20.14 28.37 18.68 28.62 18.41Z" fill="url(#paint76_radial_4_5533)"/>
<path style="mix-blend-mode:screen" opacity="0.75" fill-rule="evenodd" clip-rule="evenodd" d="M32.82 34.21C29.9767 32.7296 27.2955 30.9567 24.82 28.92C22.2777 30.3065 19.95 32.0547 17.91 34.11C17.5608 35.0766 17.3422 36.0855 17.26 37.11C19.1 38.253 20.8699 39.5052 22.56 40.86C25.03 40.97 31.62 36.94 32.82 34.21Z" fill="url(#paint77_radial_4_5533)"/>
<path style="mix-blend-mode:screen" fill-rule="evenodd" clip-rule="evenodd" d="M5.87 23.46C8.50177 22.3496 11.0314 21.0111 13.43 19.46C14.8408 16.7608 15.9765 13.9265 16.82 11C15.6968 9.83882 14.4259 8.83019 13.04 8C10.5566 9.12192 8.25452 10.6083 6.21 12.41C4.58192 14.3772 3.23566 16.5615 2.21 18.9C2.13765 20.0314 2.2116 21.1675 2.43 22.28C3.50972 22.8589 4.67953 23.2511 5.88999 23.44L5.87 23.46Z" fill="url(#paint78_radial_4_5533)"/>
<path style="mix-blend-mode:screen" fill-rule="evenodd" clip-rule="evenodd" d="M34.46 10.64C35.4768 12.2343 36.3024 13.9427 36.92 15.73C36.25 16.5 35.58 17.27 34.92 18.05C33.2731 18.648 31.5666 19.0671 29.83 19.3C28.6292 18.4308 27.5021 17.4642 26.46 16.41C25.7443 15.124 25.1742 13.7622 24.76 12.35C26.3658 10.9437 28.1766 9.79045 30.13 8.92999C31.6396 9.31529 33.0945 9.88984 34.46 10.64Z" fill="url(#paint79_radial_4_5533)"/>
</g>
<defs>
<radialGradient id="paint0_radial_4_5533" cx="0" cy="0" r="1" gradientUnits="userSpaceOnUse" gradientTransform="translate(23.65 17.82) scale(51.82 51.82)">
<stop stop-color="#94FFE1"/>
<stop offset="0.09" stop-color="#88F9DD"/>
<stop offset="0.25" stop-color="#67E9D1"/>
<stop offset="0.47" stop-color="#33CEBD"/>
<stop offset="0.5" stop-color="#2DCBBB"/>
<stop offset="0.96" stop-color="#008A86"/>
</radialGradient>
<radialGradient id="paint1_radial_4_5533" cx="0" cy="0" r="1" gradientUnits="userSpaceOnUse" gradientTransform="translate(37.66 38.3) scale(38.82 38.82)">
<stop offset="0.04"/>
<stop offset="0.84"/>
<stop offset="0.85" stop-color="#0B1611"/>
<stop offset="0.9" stop-color="#366851"/>
<stop offset="0.93" stop-color="#58A984"/>
<stop offset="0.96" stop-color="#70D7A9"/>
<stop offset="0.99" stop-color="#7FF4C0"/>
<stop offset="1" stop-color="#85FFC8"/>
</radialGradient>
<radialGradient id="paint2_radial_4_5533" cx="0" cy="0" r="1" gradientUnits="userSpaceOnUse" gradientTransform="translate(23 20.19) scale(52.84 52.84)">
<stop offset="0.33" stop-color="white"/>
<stop offset="0.4" stop-color="#F4FAFA"/>
<stop offset="0.52" stop-color="#D6EEED"/>
<stop offset="0.68" stop-color="#A6DAD7"/>
<stop offset="0.87" stop-color="#64BEB9"/>
<stop offset="1" stop-color="#35AAA4"/>
</radialGradient>
<radialGradient id="paint3_radial_4_5533" cx="0" cy="0" r="1" gradientUnits="userSpaceOnUse" gradientTransform="translate(11.56 6.7) scale(48.57 48.57)">
<stop stop-color="#C4FFE2"/>
<stop offset="1"/>
</radialGradient>
<radialGradient id="paint4_radial_4_5533" cx="0" cy="0" r="1" gradientUnits="userSpaceOnUse" gradientTransform="translate(59.21 27.71) scale(16.32 16.32)">
<stop stop-color="#AB46DB"/>
<stop offset="1" stop-color="#DA92F7"/>
</radialGradient>
<radialGradient id="paint5_radial_4_5533" cx="0" cy="0" r="1" gradientUnits="userSpaceOnUse" gradientTransform="translate(61.79 16.14) scale(12.78 12.78)">
<stop stop-color="#B24CED"/>
<stop offset="1" stop-color="#791D9B"/>
</radialGradient>
<radialGradient id="paint6_radial_4_5533" cx="0" cy="0" r="1" gradientUnits="userSpaceOnUse" gradientTransform="translate(56.55 22.59) scale(10.71 10.71)">
<stop stop-color="#B24CED"/>
<stop offset="1" stop-color="#73069B"/>
</radialGradient>
<radialGradient id="paint7_radial_4_5533" cx="0" cy="0" r="1" gradientUnits="userSpaceOnUse" gradientTransform="translate(59.23 38.08) scale(8.45003 8.45)">
<stop stop-color="#D487FF"/>
<stop offset="1" stop-color="#7F34CB"/>
</radialGradient>
<radialGradient id="paint8_radial_4_5533" cx="0" cy="0" r="1" gradientUnits="userSpaceOnUse" gradientTransform="translate(61.39 36.75) scale(16.18)">
<stop stop-color="#D487FF"/>
<stop offset="1" stop-color="#7F34CB"/>
</radialGradient>
<radialGradient id="paint9_radial_4_5533" cx="0" cy="0" r="1" gradientUnits="userSpaceOnUse" gradientTransform="translate(60.1 45.17) scale(16.2299 16.23)">
<stop stop-color="#9D41FC"/>
<stop offset="1" stop-color="#6514A9"/>
</radialGradient>
<radialGradient id="paint10_radial_4_5533" cx="0" cy="0" r="1" gradientUnits="userSpaceOnUse" gradientTransform="translate(56.55 43.13) scale(12.8 12.8)">
<stop stop-color="#9D41FC"/>
<stop offset="1" stop-color="#6514A9"/>
</radialGradient>
<radialGradient id="paint11_radial_4_5533" cx="0" cy="0" r="1" gradientUnits="userSpaceOnUse" gradientTransform="translate(57.45 40.5) scale(11.67 11.67)">
<stop stop-color="#9D41FC"/>
<stop offset="1" stop-color="#6514A9"/>
</radialGradient>
<radialGradient id="paint12_radial_4_5533" cx="0" cy="0" r="1" gradientUnits="userSpaceOnUse" gradientTransform="translate(25.02 -0.42) scale(6.31001 6.31)">
<stop stop-color="#C799FF"/>
<stop offset="1" stop-color="#7C4BC4"/>
</radialGradient>
<radialGradient id="paint13_radial_4_5533" cx="0" cy="0" r="1" gradientUnits="userSpaceOnUse" gradientTransform="translate(32.2 3.58999) scale(8.41001 8.40998)">
<stop stop-color="#6D31B5"/>
<stop offset="1" stop-color="#9B5BF5"/>
</radialGradient>
<radialGradient id="paint14_radial_4_5533" cx="0" cy="0" r="1" gradientUnits="userSpaceOnUse" gradientTransform="translate(24.27 9.93998) scale(11.04 11.04)">
<stop stop-color="#9B5BF5"/>
<stop offset="1" stop-color="#5617A3"/>
</radialGradient>
<radialGradient id="paint15_radial_4_5533" cx="0" cy="0" r="1" gradientUnits="userSpaceOnUse" gradientTransform="translate(46.75 39.82) scale(9.06999 9.07)">
<stop stop-color="#1A4340"/>
<stop offset="1" stop-color="white"/>
</radialGradient>
<radialGradient id="paint16_radial_4_5533" cx="0" cy="0" r="1" gradientUnits="userSpaceOnUse" gradientTransform="translate(47.05 25.82) scale(6.40999 6.41)">
<stop stop-color="#1A4340"/>
<stop offset="1" stop-color="white"/>
</radialGradient>
<radialGradient id="paint17_radial_4_5533" cx="0" cy="0" r="1" gradientUnits="userSpaceOnUse" gradientTransform="translate(51.65 27.7) scale(9.87002 9.87)">
<stop stop-color="#BA92FF"/>
<stop offset="1" stop-color="#7A5AEF"/>
</radialGradient>
<radialGradient id="paint18_radial_4_5533" cx="0" cy="0" r="1" gradientUnits="userSpaceOnUse" gradientTransform="translate(46.93 27.87) scale(5.61999 5.62)">
<stop stop-color="#9969FF"/>
<stop offset="1" stop-color="#6B3FE0"/>
</radialGradient>
<radialGradient id="paint19_radial_4_5533" cx="0" cy="0" r="1" gradientUnits="userSpaceOnUse" gradientTransform="translate(46.13 25.71) scale(6.52 6.52001)">
<stop stop-color="#9969FF"/>
<stop offset="1" stop-color="#613BCE"/>
</radialGradient>
<radialGradient id="paint20_radial_4_5533" cx="0" cy="0" r="1" gradientUnits="userSpaceOnUse" gradientTransform="translate(46.81 24.35) scale(7.24003 7.24002)">
<stop stop-color="#9969FF"/>
<stop offset="1" stop-color="#6B3FE0"/>
</radialGradient>
<radialGradient id="paint21_radial_4_5533" cx="0" cy="0" r="1" gradientUnits="userSpaceOnUse" gradientTransform="translate(42.3 52.81) scale(12.91 12.91)">
<stop stop-color="#1A4340"/>
<stop offset="1" stop-color="white"/>
</radialGradient>
<radialGradient id="paint22_radial_4_5533" cx="0" cy="0" r="1" gradientUnits="userSpaceOnUse" gradientTransform="translate(35.18 51.4) scale(14.63 14.63)">
<stop stop-color="#C799FF"/>
<stop offset="1" stop-color="#7C4BC4"/>
</radialGradient>
<radialGradient id="paint23_radial_4_5533" cx="0" cy="0" r="1" gradientUnits="userSpaceOnUse" gradientTransform="translate(36.71 68.16) scale(18.9 18.9)">
<stop stop-color="#C799FF"/>
<stop offset="1" stop-color="#7C4BC4"/>
</radialGradient>
<radialGradient id="paint24_radial_4_5533" cx="0" cy="0" r="1" gradientUnits="userSpaceOnUse" gradientTransform="translate(26.83 37.11) scale(32.35 32.35)">
<stop stop-color="#AC70FF"/>
<stop offset="1" stop-color="#6D31B5"/>
</radialGradient>
<radialGradient id="paint25_radial_4_5533" cx="0" cy="0" r="1" gradientUnits="userSpaceOnUse" gradientTransform="translate(35.64 63.85) scale(15.86 15.86)">
<stop stop-color="#9B5BF5"/>
<stop offset="1" stop-color="#5A1DA3"/>
</radialGradient>
<radialGradient id="paint26_radial_4_5533" cx="0" cy="0" r="1" gradientUnits="userSpaceOnUse" gradientTransform="translate(35.26 46.81) scale(24.55 24.55)">
<stop stop-color="#9B5BF5"/>
<stop offset="1" stop-color="#6D31B5"/>
</radialGradient>
<radialGradient id="paint27_radial_4_5533" cx="0" cy="0" r="1" gradientUnits="userSpaceOnUse" gradientTransform="translate(24.48 59.08) scale(7.1 7.10001)">
<stop stop-color="#1A4340"/>
<stop offset="1" stop-color="white"/>
</radialGradient>
<radialGradient id="paint28_radial_4_5533" cx="0" cy="0" r="1" gradientUnits="userSpaceOnUse" gradientTransform="translate(20.8 55.07) scale(9.02998 9.03)">
<stop stop-color="#D487FF"/>
<stop offset="1" stop-color="#7F34CB"/>
</radialGradient>
<radialGradient id="paint29_radial_4_5533" cx="0" cy="0" r="1" gradientUnits="userSpaceOnUse" gradientTransform="translate(22.75 65.89) scale(33.7899 33.79)">
<stop stop-color="#7019BC"/>
<stop offset="1" stop-color="#9D41FC"/>
</radialGradient>
<radialGradient id="paint30_radial_4_5533" cx="0" cy="0" r="1" gradientUnits="userSpaceOnUse" gradientTransform="translate(18.65 59.23) scale(13 13)">
<stop stop-color="#9D41FC"/>
<stop offset="1" stop-color="#6514A9"/>
</radialGradient>
<radialGradient id="paint31_radial_4_5533" cx="0" cy="0" r="1" gradientUnits="userSpaceOnUse" gradientTransform="translate(43.61 5.99) scale(11.09 11.09)">
<stop stop-color="#1A4340"/>
<stop offset="1" stop-color="white"/>
</radialGradient>
<radialGradient id="paint32_radial_4_5533" cx="0" cy="0" r="1" gradientUnits="userSpaceOnUse" gradientTransform="translate(44.67 2.72999) scale(5.56999 5.57)">
<stop stop-color="#9B5BF5"/>
<stop offset="1" stop-color="#5617A3"/>
</radialGradient>
<radialGradient id="paint33_radial_4_5533" cx="0" cy="0" r="1" gradientUnits="userSpaceOnUse" gradientTransform="translate(44.07 1.83001) scale(7.85998 7.85999)">
<stop stop-color="#9B5BF5"/>
<stop offset="1" stop-color="#5617A3"/>
</radialGradient>
<radialGradient id="paint34_radial_4_5533" cx="0" cy="0" r="1" gradientUnits="userSpaceOnUse" gradientTransform="translate(43.71 4.09998) scale(6.90003 6.90001)">
<stop stop-color="#9B5BF5"/>
<stop offset="1" stop-color="#5617A3"/>
</radialGradient>
<radialGradient id="paint35_radial_4_5533" cx="0" cy="0" r="1" gradientUnits="userSpaceOnUse" gradientTransform="translate(41.64 5.47999) scale(8.34999 8.35)">
<stop stop-color="#9B5BF5"/>
<stop offset="1" stop-color="#622CA3"/>
</radialGradient>
<radialGradient id="paint36_radial_4_5533" cx="0" cy="0" r="1" gradientUnits="userSpaceOnUse" gradientTransform="translate(43.63 5.66999) scale(6.93002 6.93)">
<stop stop-color="#BA82FF"/>
<stop offset="1" stop-color="#7C4BC4"/>
</radialGradient>
<radialGradient id="paint37_radial_4_5533" cx="0" cy="0" r="1" gradientUnits="userSpaceOnUse" gradientTransform="translate(42.46 0.510002) scale(10.39 10.39)">
<stop stop-color="#BA82FF"/>
<stop offset="1" stop-color="#7C4BC4"/>
</radialGradient>
<radialGradient id="paint38_radial_4_5533" cx="0" cy="0" r="1" gradientUnits="userSpaceOnUse" gradientTransform="translate(24.37 26.87) scale(34.44)">
<stop stop-color="#1A4340"/>
<stop offset="1" stop-color="white"/>
</radialGradient>
<radialGradient id="paint39_radial_4_5533" cx="0" cy="0" r="1" gradientUnits="userSpaceOnUse" gradientTransform="translate(17.47 37.22) scale(22.33 22.33)">
<stop stop-color="#AC70FF"/>
<stop offset="1" stop-color="#6D31B5"/>
</radialGradient>
<radialGradient id="paint40_radial_4_5533" cx="0" cy="0" r="1" gradientUnits="userSpaceOnUse" gradientTransform="translate(31.74 34.13) scale(18.92 18.92)">
<stop stop-color="#9B5BF5"/>
<stop offset="1" stop-color="#622CA3"/>
</radialGradient>
<radialGradient id="paint41_radial_4_5533" cx="0" cy="0" r="1" gradientUnits="userSpaceOnUse" gradientTransform="translate(25.56 25.66) scale(25.19 25.19)">
<stop stop-color="#9B5BF5"/>
<stop offset="1" stop-color="#5A1DA3"/>
</radialGradient>
<radialGradient id="paint42_radial_4_5533" cx="0" cy="0" r="1" gradientUnits="userSpaceOnUse" gradientTransform="translate(26.23 22.68) scale(21.01 21.01)">
<stop stop-color="#BA82FF"/>
<stop offset="1" stop-color="#7C4BC4"/>
</radialGradient>
<radialGradient id="paint43_radial_4_5533" cx="0" cy="0" r="1" gradientUnits="userSpaceOnUse" gradientTransform="translate(43.67 36.53) scale(20 20)">
<stop stop-color="#6D31B5"/>
<stop offset="1" stop-color="#9B5BF5"/>
</radialGradient>
<radialGradient id="paint44_radial_4_5533" cx="0" cy="0" r="1" gradientUnits="userSpaceOnUse" gradientTransform="translate(20.25 31.66) scale(29.96 29.96)">
<stop stop-color="#C799FF"/>
<stop offset="1" stop-color="#7C4BC4"/>
</radialGradient>
<radialGradient id="paint45_radial_4_5533" cx="0" cy="0" r="1" gradientUnits="userSpaceOnUse" gradientTransform="translate(4.63 44.15) scale(14.96 14.96)">
<stop stop-color="#AB46DB"/>
<stop offset="1" stop-color="#DA92F7"/>
</radialGradient>
<radialGradient id="paint46_radial_4_5533" cx="0" cy="0" r="1" gradientUnits="userSpaceOnUse" gradientTransform="translate(12.1 47.68) scale(12.48 12.48)">
<stop stop-color="#B24CED"/>
<stop offset="1" stop-color="#791D9B"/>
</radialGradient>
<radialGradient id="paint47_radial_4_5533" cx="0" cy="0" r="1" gradientUnits="userSpaceOnUse" gradientTransform="translate(15.99 47.19) scale(7.45999 7.45999)">
<stop stop-color="#D173F7"/>
<stop offset="1" stop-color="#933CBC"/>
</radialGradient>
<radialGradient id="paint48_radial_4_5533" cx="0" cy="0" r="1" gradientUnits="userSpaceOnUse" gradientTransform="translate(12.4799 46.55) scale(10.1601 10.16)">
<stop stop-color="#B24CED"/>
<stop offset="1" stop-color="#73069B"/>
</radialGradient>
<radialGradient id="paint49_radial_4_5533" cx="0" cy="0" r="1" gradientUnits="userSpaceOnUse" gradientTransform="translate(23.59 47.94) scale(18.88 18.88)">
<stop stop-color="#7A10AD"/>
<stop offset="1" stop-color="#B24CED"/>
</radialGradient>
<radialGradient id="paint50_radial_4_5533" cx="0" cy="0" r="1" gradientUnits="userSpaceOnUse" gradientTransform="translate(53.23 38.73) scale(8.00001 8)">
<stop stop-color="#9B5BF5"/>
<stop offset="1" stop-color="#5A1DA3"/>
</radialGradient>
<radialGradient id="paint51_radial_4_5533" cx="0" cy="0" r="1" gradientUnits="userSpaceOnUse" gradientTransform="translate(47.29 40.68) scale(6.04005 6.04)">
<stop stop-color="#9B5BF5"/>
<stop offset="1" stop-color="#5A1DA3"/>
</radialGradient>
<radialGradient id="paint52_radial_4_5533" cx="0" cy="0" r="1" gradientUnits="userSpaceOnUse" gradientTransform="translate(47.35 41.17) scale(6.51001 6.51)">
<stop stop-color="#9B5BF5"/>
<stop offset="1" stop-color="#5A1DA3"/>
</radialGradient>
<radialGradient id="paint53_radial_4_5533" cx="0" cy="0" r="1" gradientUnits="userSpaceOnUse" gradientTransform="translate(46.74 40.44) scale(7.82002 7.81998)">
<stop stop-color="#AC70FF"/>
<stop offset="1" stop-color="#6D31B5"/>
</radialGradient>
<radialGradient id="paint54_radial_4_5533" cx="0" cy="0" r="1" gradientUnits="userSpaceOnUse" gradientTransform="translate(48.93 42.67) scale(8.92004 8.92002)">
<stop stop-color="#9B5BF5"/>
<stop offset="1" stop-color="#5A1DA3"/>
</radialGradient>
<radialGradient id="paint55_radial_4_5533" cx="0" cy="0" r="1" gradientUnits="userSpaceOnUse" gradientTransform="translate(47.69 37.27) scale(7.09997)">
<stop stop-color="#B173FF"/>
<stop offset="1" stop-color="#7C4BC4"/>
</radialGradient>
<radialGradient id="paint56_radial_4_5533" cx="0" cy="0" r="1" gradientUnits="userSpaceOnUse" gradientTransform="translate(47.64 37.08) scale(10.27 10.27)">
<stop stop-color="#C799FF"/>
<stop offset="1" stop-color="#7C4BC4"/>
</radialGradient>
<radialGradient id="paint57_radial_4_5533" cx="0" cy="0" r="1" gradientUnits="userSpaceOnUse" gradientTransform="translate(9.55 14.88) scale(13.34 13.34)">
<stop stop-color="#1A4340"/>
<stop offset="1" stop-color="white"/>
</radialGradient>
<radialGradient id="paint58_radial_4_5533" cx="0" cy="0" r="1" gradientUnits="userSpaceOnUse" gradientTransform="translate(3.67 20.33) scale(10.04 10.04)">
<stop stop-color="#BD6AFF"/>
<stop offset="1" stop-color="#7F34CB"/>
</radialGradient>
<radialGradient id="paint59_radial_4_5533" cx="0" cy="0" r="1" gradientUnits="userSpaceOnUse" gradientTransform="translate(19.88 29.58) scale(16.14 16.14)">
<stop stop-color="#7019BC"/>
<stop offset="1" stop-color="#9D41FC"/>
</radialGradient>
<radialGradient id="paint60_radial_4_5533" cx="0" cy="0" r="1" gradientUnits="userSpaceOnUse" gradientTransform="translate(-1.37998 11.58) scale(22.3 22.3)">
<stop stop-color="#9D41FC"/>
<stop offset="1" stop-color="#6514A9"/>
</radialGradient>
<radialGradient id="paint61_radial_4_5533" cx="0" cy="0" r="1" gradientUnits="userSpaceOnUse" gradientTransform="translate(6.72 11.8) scale(35.28 35.28)">
<stop stop-color="#D487FF"/>
<stop offset="1" stop-color="#7F34CB"/>
</radialGradient>
<radialGradient id="paint62_radial_4_5533" cx="0" cy="0" r="1" gradientUnits="userSpaceOnUse" gradientTransform="translate(-0.410009 30.89) scale(12.36 12.36)">
<stop stop-color="#1A4340"/>
<stop offset="1" stop-color="white"/>
</radialGradient>
<radialGradient id="paint63_radial_4_5533" cx="0" cy="0" r="1" gradientUnits="userSpaceOnUse" gradientTransform="translate(2.04001 37.17) scale(3.41 3.40999)">
<stop stop-color="#BA82FF"/>
<stop offset="1" stop-color="#7C4BC4"/>
</radialGradient>
<radialGradient id="paint64_radial_4_5533" cx="0" cy="0" r="1" gradientUnits="userSpaceOnUse" gradientTransform="translate(-0.40001 30.22) scale(10.29 10.29)">
<stop stop-color="#9B5BF5"/>
<stop offset="1" stop-color="#622CA3"/>
</radialGradient>
<radialGradient id="paint65_radial_4_5533" cx="0" cy="0" r="1" gradientUnits="userSpaceOnUse" gradientTransform="translate(-0.0299914 26.03) scale(14.81 14.81)">
<stop stop-color="#CCA3FF"/>
<stop offset="1" stop-color="#7C4BC4"/>
</radialGradient>
<radialGradient id="paint66_radial_4_5533" cx="0" cy="0" r="1" gradientUnits="userSpaceOnUse" gradientTransform="translate(1.63 27.78) scale(13.28 13.28)">
<stop stop-color="#9B5BF5"/>
<stop offset="1" stop-color="#622CA3"/>
</radialGradient>
<radialGradient id="paint67_radial_4_5533" cx="0" cy="0" r="1" gradientUnits="userSpaceOnUse" gradientTransform="translate(4.00001 28.82) scale(4.75995 4.76005)">
<stop stop-color="#9B5BF5"/>
<stop offset="1" stop-color="#6D31B5"/>
</radialGradient>
<radialGradient id="paint68_radial_4_5533" cx="0" cy="0" r="1" gradientUnits="userSpaceOnUse" gradientTransform="translate(2.82999 28.25) scale(6.93001 6.93001)">
<stop stop-color="#D4B3FF"/>
<stop offset="1" stop-color="#7C4BC4"/>
</radialGradient>
<radialGradient id="paint69_radial_4_5533" cx="0" cy="0" r="1" gradientUnits="userSpaceOnUse" gradientTransform="translate(24.48 14.15) scale(23.2999 23.3)">
<stop stop-color="#C799FF"/>
<stop offset="1" stop-color="#8E56E0"/>
</radialGradient>
<radialGradient id="paint70_radial_4_5533" cx="0" cy="0" r="1" gradientUnits="userSpaceOnUse" gradientTransform="translate(27.63 13.82) scale(14.33 14.33)">
<stop stop-color="#AC70FF"/>
<stop offset="1" stop-color="#6D31B5"/>
</radialGradient>
<radialGradient id="paint71_radial_4_5533" cx="0" cy="0" r="1" gradientUnits="userSpaceOnUse" gradientTransform="translate(32.51 16.82) scale(45.1 45.1)">
<stop stop-color="#9B5BF5"/>
<stop offset="1" stop-color="#622CA3"/>
</radialGradient>
<radialGradient id="paint72_radial_4_5533" cx="0" cy="0" r="1" gradientUnits="userSpaceOnUse" gradientTransform="translate(28.78 14.95) scale(23.11 23.11)">
<stop stop-color="#9B5BF5"/>
<stop offset="1" stop-color="#622CA3"/>
</radialGradient>
<radialGradient id="paint73_radial_4_5533" cx="0" cy="0" r="1" gradientUnits="userSpaceOnUse" gradientTransform="translate(30.83 20.45) scale(13.52 13.52)">
<stop stop-color="#9B5BF5"/>
<stop offset="1" stop-color="#5A1DA3"/>
</radialGradient>
<radialGradient id="paint74_radial_4_5533" cx="0" cy="0" r="1" gradientUnits="userSpaceOnUse" gradientTransform="translate(27.89 16.2) scale(15.51)">
<stop stop-color="#9B5BF5"/>
<stop offset="1" stop-color="#6D31B5"/>
</radialGradient>
<radialGradient id="paint75_radial_4_5533" cx="0" cy="0" r="1" gradientUnits="userSpaceOnUse" gradientTransform="translate(25.05 16.19) scale(23.5499 23.55)">
<stop stop-color="#B980FF"/>
<stop offset="1" stop-color="#883FF2"/>
</radialGradient>
<radialGradient id="paint76_radial_4_5533" cx="0" cy="0" r="1" gradientUnits="userSpaceOnUse" gradientTransform="translate(29.31 17.91) scale(2.38001 2.38)">
<stop stop-color="#6D31B5"/>
<stop offset="1" stop-color="#9B5BF5"/>
</radialGradient>
<radialGradient id="paint77_radial_4_5533" cx="0" cy="0" r="1" gradientUnits="userSpaceOnUse" gradientTransform="translate(18.37 22.58) scale(19.23 19.23)">
<stop stop-color="white"/>
<stop offset="1"/>
</radialGradient>
<radialGradient id="paint78_radial_4_5533" cx="0" cy="0" r="1" gradientUnits="userSpaceOnUse" gradientTransform="translate(7.52 4.36) scale(16.08 16.08)">
<stop stop-color="white"/>
<stop offset="1"/>
</radialGradient>
<radialGradient id="paint79_radial_4_5533" cx="0" cy="0" r="1" gradientUnits="userSpaceOnUse" gradientTransform="translate(25.69 6.48999) scale(12.47 12.47)">
<stop stop-color="white"/>
<stop offset="1"/>
</radialGradient>
<clipPath id="clip0_4_5533">
<rect width="66.82" height="65.32" fill="white"/>
</clipPath>
</defs>
</svg>
