<svg width="66" height="68" viewBox="0 0 66 68" fill="none" xmlns="http://www.w3.org/2000/svg">
<g clip-path="url(#clip0_4_5618)">
<path fill-rule="evenodd" clip-rule="evenodd" d="M32.76 2.70999C38.915 2.70999 44.9317 4.53515 50.0493 7.95466C55.167 11.3742 59.1557 16.2344 61.5111 21.9209C63.8665 27.6073 64.4828 33.8645 63.282 39.9012C62.0813 45.9379 59.1174 51.4829 54.7652 55.8352C50.4129 60.1874 44.8679 63.1513 38.8312 64.352C32.7945 65.5528 26.5373 64.9365 20.8509 62.5811C15.1644 60.2257 10.3042 56.237 6.88467 51.1193C3.46516 46.0017 1.64001 39.9849 1.64001 33.83C1.64001 25.5765 4.91871 17.661 10.7548 11.8248C16.591 5.9887 24.5065 2.70999 32.76 2.70999Z" fill="url(#paint0_radial_4_5618)"/>
<g style="mix-blend-mode:multiply">
<path fill-rule="evenodd" clip-rule="evenodd" d="M56.35 31.78C56.35 32.18 56.99 32.65 57.51 31.83C57.726 31.4471 57.8502 31.0193 57.8727 30.5803C57.8953 30.1413 57.8156 29.703 57.64 29.3C57.44 28.94 56.22 27.75 55.8 28.3C55.7141 28.4848 55.6696 28.6862 55.6696 28.89C55.6696 29.0938 55.7141 29.2952 55.8 29.48C56.1781 30.1866 56.3675 30.9788 56.35 31.78ZM23.74 57.36C24.7108 57.5117 25.6992 57.5117 26.67 57.36C26.7042 57.2871 26.7167 57.206 26.706 57.1262C26.6954 57.0464 26.6621 56.9714 26.61 56.91C25.9375 56.3728 25.1007 56.0832 24.24 56.09C23.87 56.2 23.07 57.12 23.74 57.36ZM33.01 58.05C34.32 57.53 35.89 56.15 34.01 55.25C33.11 54.82 26.01 53.94 27.14 56.43C27.58 57.4 30.94 58.88 33.01 58.05ZM32.76 2.70998C29.9449 2.70668 27.1425 3.08684 24.43 3.83998C25.43 3.83998 26.43 3.83998 27.43 3.83998C28.22 3.83998 29.02 3.72998 29.81 3.77998C30.9 3.86998 31.97 4.18998 33.06 4.24998C34.15 4.30998 35.48 4.04998 36.68 4.14998C37.5994 4.22072 38.5029 4.42974 39.36 4.76998C40.36 5.13998 41.11 5.83998 42.05 6.25998C43.46 6.89998 45 7.25998 46.39 7.91998C47.0492 8.30962 47.6717 8.75812 48.25 9.25998C49.3177 9.83627 50.306 10.5489 51.19 11.38C51.72 12.02 51.52 13.03 51.92 13.75C52.79 15.36 54.02 16.75 54.92 18.3C55.5988 19.2531 56.1407 20.2965 56.53 21.4C56.99 23.11 56.82 24.94 57.2 26.67C57.44 27.77 58.2 28.67 58.39 29.82C58.5215 31.1999 58.4474 32.5918 58.17 33.95C57.73 36.32 56.94 38.6 56.36 40.95C56.24 41.8644 56.0324 42.7653 55.74 43.64C55.3336 44.283 54.8463 44.8712 54.29 45.39C53.235 46.4774 52.2529 47.6333 51.35 48.85C50.73 49.85 50.73 51.15 50.06 52.11C49.3886 53.0611 48.5009 53.8391 47.47 54.38C46.57 54.85 45.47 54.65 44.47 55C43.3023 55.5022 42.1638 56.0697 41.06 56.7C39.4475 57.6316 37.7775 58.46 36.06 59.18C35.0625 59.5126 34.0077 59.6385 32.96 59.55C31.18 59.42 29.46 58.81 27.69 58.62C25.92 58.43 24.24 58.47 22.52 58.41C21.4377 58.5378 20.3424 58.5041 19.27 58.31C17.6319 57.7846 16.132 56.8997 14.88 55.72C14.08 54.92 14.25 53.49 13.59 52.57C12.6999 51.6275 11.7296 50.7643 10.69 49.99C9.19328 48.7888 7.8259 47.4348 6.61 45.95C5.86 44.84 5.84999 43.36 5.31999 42.13C4.78999 40.9 3.82999 40 3.50999 38.77C2.95207 36.6981 2.70935 34.5541 2.78999 32.41C2.88999 30.34 3.95999 28.41 4.12999 26.32C4.21511 24.8626 4.17496 23.4005 4.00999 21.95C1.45485 28.1181 0.951117 34.9444 2.5732 41.4208C4.19527 47.8972 7.85716 53.6802 13.018 57.9157C18.1789 62.1513 24.5651 64.6148 31.2334 64.9425C37.9018 65.2701 44.4988 63.4446 50.05 59.7354C55.6012 56.0262 59.8124 50.63 62.0616 44.3439C64.3108 38.0577 64.4788 31.2149 62.5406 24.826C60.6025 18.4371 56.6611 12.8409 51.2985 8.86384C45.9359 4.8868 39.4364 2.73982 32.76 2.73998V2.70998Z" fill="url(#paint1_radial_4_5618)"/>
</g>
<path fill-rule="evenodd" clip-rule="evenodd" d="M50.35 17.63C52.66 16.48 54.69 15.02 55.35 12.94C56.41 9.71998 54.73 10.1 54.01 8.75998C53.29 7.41998 53.77 6.85998 51.54 5.25998C51.2412 5.0417 50.9232 4.85092 50.59 4.68998C46.9516 2.90164 42.9541 1.96465 38.9 1.94998C36.1357 2.02638 33.393 2.45998 30.74 3.23998C37.41 3.47998 42.99 4.23998 46.52 6.00998C47.9709 6.67023 49.1353 7.83112 49.8 9.27998C50.42 10.6 52.87 11.02 52 13.03C51.2 14.87 47.76 16.65 44.45 17.97C42.894 18.7537 41.2708 19.3963 39.6 19.89C34.46 20.89 28.83 20.99 23.39 21.73C19.45 22.27 16.02 24.07 12.54 25.94C10.7 26.94 8.54 26.78 6.39 28.66C4.45 30.35 3.83999 32.83 3.02999 35.11C1.43999 39.57 1.74 44.75 3.86 50.11C4.24287 51.0742 4.69402 52.0099 5.21001 52.91C-0.0299902 40.91 2.62001 31.73 12.21 26.91C14.08 25.91 16.51 25.91 18.89 25.28C20.99 24.75 22.99 23.16 25.49 23.39C29.505 23.9062 33.5853 23.3829 37.34 21.87C42.34 20.08 46.86 19.44 50.34 17.71L50.35 17.63Z" fill="url(#paint2_radial_4_5618)"/>
<path fill-rule="evenodd" clip-rule="evenodd" d="M31.36 13.6C33.74 13.09 36.42 11.37 38.64 10.49C40.86 9.60999 43.06 9.29999 44.12 8.27999L44.21 8.17999C44.5692 7.82372 44.8451 7.39242 45.018 6.91698C45.1909 6.44154 45.2564 5.93375 45.21 5.42999C45.21 5.37999 45.21 5.32999 45.21 5.27999C45.1383 4.82511 44.9823 4.38762 44.75 3.98999C44.4125 3.37686 43.9571 2.8365 43.41 2.39999L43.28 2.30999C39.97 0.00999069 34.39 0.0999895 29.45 0.00998954C25.95 -0.0500105 21.99 0.189989 19 1.50999C16.01 2.82999 13.91 5.73999 11.35 7.73999C10.7 8.24999 9.98001 8.73999 9.27001 9.15999C8.27694 9.6466 7.34398 10.2473 6.49001 10.95C4.99708 12.8029 3.76558 14.8521 2.83001 17.04C1.92425 18.8546 1.2297 20.7671 0.760002 22.74C1.9 19.83 3.21999 20.07 5.42999 18.93C5.84502 18.7197 6.24589 18.4825 6.63 18.22C8.70278 16.677 11.0224 15.4969 13.49 14.73C18.74 13.36 25.84 14.79 31.36 13.6ZM37.36 21.79C33.6053 23.3029 29.525 23.8263 25.51 23.31C23.01 23.08 21.01 24.67 18.91 25.2C16.53 25.81 14.1 25.88 12.23 26.83C5.98 29.95 2.67 34.95 2.57 41.38C2.6209 45.3544 3.52104 49.272 5.21001 52.87C5.59668 53.5367 6.01666 54.2033 6.46999 54.87C7.46999 56.33 9.16999 57.59 10.47 59.03C11.4847 60.2617 12.5769 61.4274 13.74 62.52C15.97 64.52 19.38 65.27 23.22 65.8C26.81 66.3 30.46 67.47 34.22 67C37.232 66.6193 40.1974 65.9324 43.07 64.95C47.84 63.3 52.59 60.43 55.51 55.95C55.307 56.202 55.09 56.4424 54.86 56.67C51.5737 59.9134 47.5685 62.3357 43.17 63.74C41.099 64.3482 38.9577 64.6844 36.8 64.74C34.6236 64.808 32.4518 64.5001 30.38 63.83C25.46 62.19 20.88 61.53 17.38 58.45C13.38 54.87 11.97 47.88 13.18 43.87C13.72 42.07 15.5 40.81 16.82 39.29C19.65 36.06 20.25 31.81 27.66 32.02C30.77 32.12 33.91 29.19 37.49 28.67C40.86 28.18 43.9 28.08 47.26 25.31C49.13 23.76 50.94 23.43 52.73 22.4C55.25 20.95 57.53 19.05 58.21 16.09C58.4522 14.8988 58.4522 13.6711 58.21 12.48C58.0945 12.1142 57.9542 11.7567 57.79 11.41C56.42 8.55999 53.69 6.32999 50.5 4.74999C50.8332 4.91093 51.1512 5.10171 51.45 5.31999C53.68 6.91999 53.15 7.36999 53.92 8.81999C54.61 10.11 56.18 9.81999 55.37 12.63C55.37 12.75 55.3 12.87 55.26 13C54.57 15.08 52.54 16.54 50.26 17.69C46.77 19.42 42.26 20.06 37.26 21.85L37.36 21.79ZM61.27 21.29C66.34 24.29 66.27 34.74 65.1 40.06C63.89 45.8 59.58 52.62 53.1 53.57C48.49 54.26 46.69 54.49 44.43 53.23C42.9 52.37 42.15 48.54 42.7 47.45C43.14 46.57 45.2 45.88 47.35 44.87C49.99 43.64 52.19 43.18 54.11 40.17C56.03 37.16 59.04 37.58 60.85 33.69C61.7733 31.7642 62.2865 29.6676 62.3571 27.533C62.4277 25.3985 62.0541 23.2726 61.26 21.29H61.27Z" fill="url(#paint3_radial_4_5618)"/>
<path fill-rule="evenodd" clip-rule="evenodd" d="M18 54.84C16.61 52.19 17 48.74 17.23 45.94C17.3337 44.1737 17.862 42.4585 18.77 40.94C21.16 37.04 25.45 34.29 30.4 32.44C36.24 30.26 44.24 29.83 48.65 27.94C50.57 27.12 51.87 25.17 53.45 23.53C54.86 22.07 56.3 22.3 57.59 19.25C58.0018 18.3215 58.3168 17.3531 58.53 16.36C58.8178 15.0324 58.7488 13.6523 58.33 12.36C58.5722 13.5511 58.5722 14.7788 58.33 15.97C57.65 18.97 55.33 20.83 52.85 22.28C51.06 23.28 49.25 23.64 47.38 25.19C44.02 27.96 40.98 28.06 37.61 28.55C34.03 29.07 30.89 32 27.78 31.9C20.37 31.69 19.78 35.9 16.94 39.17C15.62 40.69 13.84 41.95 13.3 43.75C12.09 47.75 13.47 54.75 17.5 58.33C20.95 61.41 25.5 62.07 30.5 63.71C32.5718 64.3801 34.7436 64.6879 36.92 64.62C39.0777 64.5644 41.219 64.2282 43.29 63.62C47.6885 62.2156 51.6937 59.7934 54.98 56.55C55.7138 55.8316 56.2984 54.9752 56.7 54.03L56.94 53.44C54.0305 56.9008 50.1219 59.3773 45.75 60.53C43.89 61.06 41.86 61.09 39.94 61.69C32.94 63.91 30.57 63.06 26.94 61.87C24.7689 61.1439 22.7563 60.0103 21.01 58.53C19.7838 57.4712 18.7664 56.1926 18.01 54.76L18 54.84Z" fill="url(#paint4_radial_4_5618)"/>
<path fill-rule="evenodd" clip-rule="evenodd" d="M38.64 10.49C36.42 11.37 33.74 13.09 31.36 13.6C25.84 14.79 18.74 13.36 13.49 14.73C11.0224 15.4969 8.70276 16.677 6.62998 18.22C3.62998 20.22 2.08999 19.34 0.759989 22.74C-0.038944 26.1876 -0.215037 29.7504 0.24 33.26C0.55 35.82 1.09999 37.85 2.03999 38.81C1.31999 32.02 1.9 26.69 4.58 22.97C5.45387 21.7694 6.59355 20.7871 7.90998 20.1C9.61944 19.4567 11.3832 18.968 13.18 18.64C15.08 18.14 16.96 16.64 19.38 16.07C22.38 15.39 25.56 15.56 28.76 15.51C31.766 15.5996 34.7746 15.4626 37.76 15.1C40.59 14.59 41.67 13.39 43.61 11.27C45.04 9.71999 48 9.38999 45.52 5.41999C45.23 4.95999 44.97 4.41999 44.69 3.98999C45.0855 4.64423 45.2512 5.41185 45.1606 6.17097C45.07 6.9301 44.7284 7.63719 44.19 8.17999L44.1 8.27999C43.04 9.27999 40.79 9.63999 38.62 10.49H38.64Z" fill="url(#paint5_radial_4_5618)"/>
<path style="mix-blend-mode:screen" opacity="0.5" fill-rule="evenodd" clip-rule="evenodd" d="M15.73 9.28998C13.19 11.22 11.73 11.49 9.86998 14.52C9.42305 15.2821 9.0288 16.074 8.68998 16.89C10.1783 15.9438 11.7948 15.2164 13.49 14.73C18.74 13.36 25.84 14.79 31.36 13.6C33.74 13.09 36.42 11.37 38.64 10.49C40 9.95998 41.4 9.61998 42.51 9.19998C42.2658 8.63695 41.9277 8.11957 41.51 7.66998C38.4 4.47998 36.63 4.38998 32.88 4.41998C31.53 4.41998 30.19 4.21998 28.88 4.20998C27.794 4.16295 26.7061 4.21651 25.63 4.36998C24.0703 4.65445 22.5428 5.09328 21.07 5.67998C18.31 6.79998 17.78 7.72998 15.73 9.28998ZM25.49 23.29C22.99 23.06 20.99 24.65 18.89 25.18C16.51 25.79 14.08 25.86 12.21 26.81C10.1285 27.849 8.24907 29.2509 6.65998 30.95C6.1979 31.4356 5.89113 32.048 5.77891 32.7089C5.66669 33.3697 5.7541 34.049 6.02998 34.66L6.46998 35.66C8.07998 39.4 7.47 39.58 11.02 42.3C11.7457 42.8202 12.5399 43.2375 13.38 43.54C14.02 41.9 15.67 40.7 16.91 39.27C19.74 36.04 20.34 31.79 27.75 32C30.86 32.1 34 29.17 37.58 28.65C39.5513 28.4685 41.5003 28.0968 43.4 27.54C43.8324 27.396 44.2209 27.1441 44.5289 26.8082C44.8369 26.4722 45.0541 26.0633 45.16 25.62C45.29 25.12 45.43 24.62 45.61 24.14C46.2381 22.5179 46.606 20.8068 46.7 19.07C43.91 19.93 40.7 20.61 37.34 21.83C33.5853 23.3429 29.505 23.8663 25.49 23.35V23.29Z" fill="url(#paint6_radial_4_5618)"/>
<path style="mix-blend-mode:screen" fill-rule="evenodd" clip-rule="evenodd" d="M42.75 30.66C41.9916 30.59 41.2284 30.59 40.47 30.66C39.21 30.83 38.01 31.31 36.76 31.56C35.8276 31.6673 34.9026 31.8309 33.99 32.05C33.6 32.19 33.22 32.73 32.83 32.87C32.02 33.18 31.1 33.08 30.26 33.33C27.6093 34.1761 25.1086 35.4349 22.85 37.06C22.41 37.39 22.33 38.06 21.95 38.47C21.57 38.88 20.95 39.13 20.54 39.58C19.76 40.43 18.08 43.17 18.54 44.36C18.6347 44.6689 18.8028 44.9503 19.03 45.18C21.5148 45.7187 24.1036 45.51 26.47 44.58C32.47 42.4 31.92 40.65 35.74 37.27C36.93 36.22 38.54 35.71 39.74 34.65C41.0969 33.6142 42.1503 32.2327 42.79 30.65L42.75 30.66ZM10.62 19.72C9.87839 19.7929 9.15957 20.0168 8.50777 20.3779C7.85597 20.7391 7.285 21.2299 6.83001 21.82C6.24954 23.0188 5.73214 24.2471 5.27999 25.5C4.65758 27.0655 4.38456 28.748 4.48 30.43C4.86133 29.7087 5.29586 29.0168 5.77999 28.36C6.22743 27.8159 6.7737 27.3612 7.39 27.02C8.5 26.46 10.3 26.42 11.8 25.59C12.87 25 13.71 24.02 14.8 23.52C15.8024 23.241 16.821 23.024 17.85 22.87C18.6 22.64 19.27 22.18 20.01 21.93C21.9687 21.3501 23.9775 20.955 26.01 20.75C26.67 20.63 27.25 20.18 27.92 20.09C29.06 19.95 30.22 20.09 31.37 20.09C32.86 20 34.37 19.73 35.83 19.63C36.88 19.57 37.94 19.74 38.98 19.63C40.98 19.38 44.3 18.39 44.66 16.16C44.4406 15.4026 44.1247 14.6767 43.72 14C43.5469 13.7268 43.3269 13.4864 43.07 13.29C42.5 13.11 42.45 13.14 41.73 13.78C39.87 15.44 39.99 15.86 37.27 16.35C36.54 16.49 35.78 16.28 35.05 16.35C34.179 16.6658 33.2867 16.9197 32.38 17.11C31.0067 17.0138 29.6428 16.8132 28.3 16.51C25.65 16.14 20.92 15.84 18.42 16.86C16.94 17.46 15.67 18.5 14.24 19.23C13.8188 19.4432 13.3666 19.5883 12.9 19.66C12.13 19.76 11.33 19.6 10.56 19.71L10.62 19.72ZM41.19 36.57C41.66 38.04 44.06 35.64 44.62 35.57C50.31 35.09 39.49 31.2 41.19 36.57ZM40.27 37.08C39.17 36.21 36.64 37.3 36 38.54C35.46 39.54 34.3 42.07 36 42.71C37.7 43.35 39 39.92 40.72 39.41C41.62 39.13 40.79 37.49 40.26 37.08H40.27ZM22.07 49.14C25.39 49.62 32.75 49.99 30.01 46.8C28.36 44.88 27.74 46.02 24.9 46.72C22.97 47.19 22.4 46.44 21.22 46.52C19.56 46.62 19.04 48.71 22.07 49.14ZM31.29 47.62C31.56 48.14 32.6 46.98 32.69 46.62C33.03 45.24 32.37 45.62 31.24 45.76C29.69 45.99 30.91 46.86 31.29 47.61V47.62Z" fill="url(#paint7_radial_4_5618)"/>
<path style="mix-blend-mode:multiply" fill-rule="evenodd" clip-rule="evenodd" d="M17.47 58.39C16.2444 57.2627 15.2552 55.903 14.56 54.39C14.1767 53.884 13.9289 53.2885 13.84 52.66C13.73 52.35 13.63 52.03 13.54 51.66C13.4825 51.5279 13.4085 51.4036 13.32 51.29C11.82 49.22 8.32001 47.4 6.52001 44.79C5.78001 43.7 5.78 42.26 5.26 41.06C5.09246 40.6701 4.78591 40.3565 4.39999 40.18C3.05999 39.46 3.00999 38.18 3.24999 36.74C2.81001 38.217 2.58109 39.7489 2.57 41.29C2.6209 45.2644 3.52104 49.182 5.21001 52.78C5.59668 53.4467 6.01666 54.1133 6.46999 54.78C7.46999 56.24 9.16999 57.5 10.47 58.94C11.4847 60.1717 12.5769 61.3374 13.74 62.43C15.97 64.43 19.38 65.18 23.22 65.71C26.81 66.21 30.46 67.38 34.22 66.91C37.2288 66.5586 40.1941 65.9018 43.07 64.95C47.84 63.3 52.59 60.43 55.51 55.95C55.307 56.202 55.09 56.4424 54.86 56.67C51.5737 59.9134 47.5685 62.3357 43.17 63.74C41.099 64.3482 38.9577 64.6844 36.8 64.74C34.6236 64.808 32.4518 64.5001 30.38 63.83C25.46 62.19 20.88 61.53 17.38 58.45L17.47 58.39ZM4.39999 15.14C4.61999 14.46 4.67999 13.77 4.93999 13.03C4.15999 14.29 3.53001 15.64 2.83001 17.03C1.92425 18.8446 1.2297 20.7571 0.760002 22.73C0.969206 21.9997 1.3579 21.3335 1.89065 20.792C2.4234 20.2505 3.08324 19.851 3.80999 19.63V19.47C3.69873 18.7187 3.67191 17.9573 3.73 17.2C3.89305 16.4907 4.12066 15.7978 4.41 15.13L4.39999 15.14ZM11.2 8.58999C11.98 8.37999 12.9 8.43999 13.52 7.93999C15.01 6.73999 13.94 5.55999 17.25 4.10999C19.58 3.10999 21.16 3.16999 23.65 3.34999C25.16 3.45999 27.24 2.86999 29.1 2.91999H29.45C29.9706 2.96724 30.4881 3.04403 31 3.14999L31.61 3.24999C31.9399 3.31469 32.2742 3.3548 32.61 3.36999C33.08 3.36999 33.49 3.36999 33.88 3.36999C35.5227 3.11669 37.2028 3.28884 38.76 3.86999C39.69 4.22999 40.52 5.37999 41.43 5.78999C42.61 6.31999 43.61 6.89999 44.73 7.45999C45.0901 6.83663 45.2473 6.11671 45.18 5.39999C45.18 5.34999 45.18 5.29999 45.18 5.24999C45.1083 4.79511 44.9523 4.35762 44.72 3.95999C44.3825 3.34686 43.9271 2.8065 43.38 2.36999L43.25 2.27999C39.94 -0.02001 34.36 0.0699908 29.42 -0.0200092C25.92 -0.0800092 21.96 0.159991 18.97 1.47999C15.98 2.79999 13.88 5.70999 11.32 7.70999C10.69 8.20999 9.98 8.64999 9.32 9.09999L11.24 8.55999L11.2 8.58999ZM55.38 12.95C54.8422 14.3444 53.8667 15.5269 52.6 16.32C54.47 16.54 56.86 18.32 55.19 20.74C56.7316 19.5731 57.8287 17.9151 58.3 16.04C58.5422 14.8488 58.5422 13.6211 58.3 12.43C58.1845 12.0642 58.0442 11.7067 57.88 11.36C56.51 8.50999 53.78 6.27999 50.59 4.69999C50.9232 4.86093 51.2412 5.0517 51.54 5.26999C53.77 6.86999 53.24 7.31999 54.01 8.76999C54.7 10.06 56.27 9.76999 55.46 12.58C55.46 12.7 55.39 12.82 55.35 12.95H55.38ZM54.9 44.95C53.95 46.08 50.95 46.52 50.16 47.77C49.55 48.77 49.55 50.01 48.9 50.94C48.2502 51.8714 47.3859 52.6328 46.38 53.16C45.9236 53.3686 45.4313 53.4874 44.93 53.51C45.8661 53.9553 46.8937 54.1745 47.93 54.15C49.6611 54.0866 51.3855 53.8994 53.09 53.59C55.1767 53.2444 57.128 52.3311 58.73 50.95C61.9706 48.1054 64.1962 44.2825 65.07 40.06C66.14 35 66.3 25.28 61.94 21.77C63.0264 22.9216 63.7675 24.3553 64.0786 25.9077C64.3898 27.46 64.2586 29.0686 63.7 30.55C63.7 30.66 63.61 30.76 63.57 30.86C62.79 32.48 61.06 34.61 59.98 36.7C58.9 38.79 59.14 39.21 56.98 40.7C56.76 40.86 56.53 41.01 56.3 41.16C55.66 41.57 55.04 41.94 54.62 42.16C56.06 43.16 55.56 44.16 54.88 44.95H54.9Z" fill="url(#paint8_radial_4_5618)"/>
<path fill-rule="evenodd" clip-rule="evenodd" d="M61.95 21.77C61.7264 21.5963 61.4926 21.436 61.25 21.29C62.0441 23.2726 62.4177 25.3985 62.3471 27.533C62.2766 29.6676 61.7633 31.7642 60.84 33.69C60.1047 35.264 58.8806 36.5582 57.35 37.38C56.0446 38.0271 54.9182 38.9852 54.07 40.17C52.15 43.17 49.95 43.64 47.31 44.87C45.16 45.87 43.1 46.57 42.66 47.45C42.22 48.33 42.57 50.67 43.42 52.15C43.2753 51.7265 43.2167 51.2783 43.2477 50.8318C43.2786 50.3853 43.3984 49.9495 43.6 49.55C44.35 48.12 47.37 45.84 48.71 44.89C50.61 43.54 52.39 43.23 54.35 42.27C54.75 42.07 55.51 41.63 56.29 41.13C56.52 40.98 56.75 40.83 56.97 40.67C59.12 39.21 58.82 38.91 59.97 36.67C61.12 34.43 62.78 32.45 63.56 30.83C63.56 30.73 63.65 30.63 63.69 30.52C64.2451 29.0444 64.3763 27.4429 64.0689 25.8966C63.7614 24.3504 63.0274 22.9209 61.95 21.77Z" fill="url(#paint9_radial_4_5618)"/>
<path style="mix-blend-mode:screen" fill-rule="evenodd" clip-rule="evenodd" d="M31.36 13.6C33.74 13.09 36.42 11.37 38.64 10.49C40.86 9.60999 43.06 9.29999 44.12 8.27999L44.21 8.17999C44.5692 7.82372 44.8451 7.39242 45.018 6.91698C45.1909 6.44154 45.2564 5.93375 45.21 5.42999C45.21 5.37999 45.21 5.32999 45.21 5.27999C45.1383 4.82511 44.9823 4.38762 44.75 3.98999C44.4125 3.37686 43.9571 2.8365 43.41 2.39999L43.28 2.30999C39.97 0.00999069 34.39 0.0999895 29.45 0.00998954C25.95 -0.0500105 21.99 0.189989 19 1.50999C16.01 2.82999 13.91 5.73999 11.35 7.73999C10.7 8.24999 9.98001 8.73999 9.27001 9.15999C8.27694 9.6466 7.34398 10.2473 6.49001 10.95C4.99708 12.8029 3.76558 14.8521 2.83001 17.04C1.92425 18.8546 1.2297 20.7671 0.760002 22.74C1.9 19.83 3.21999 20.07 5.42999 18.93C5.84502 18.7197 6.24589 18.4825 6.63 18.22C8.70278 16.677 11.0224 15.4969 13.49 14.73C18.74 13.36 25.84 14.79 31.36 13.6Z" fill="url(#paint10_radial_4_5618)"/>
<path style="mix-blend-mode:screen" fill-rule="evenodd" clip-rule="evenodd" d="M37.34 21.79C33.5853 23.3029 29.505 23.8263 25.49 23.31C22.99 23.08 20.99 24.67 18.89 25.2C16.51 25.81 14.08 25.88 12.21 26.83C5.98001 29.95 2.67 34.95 2.57 41.38C2.6209 45.3544 3.52104 49.272 5.21001 52.87C5.59668 53.5367 6.01666 54.2033 6.46999 54.87C7.46999 56.33 9.16999 57.59 10.47 59.03C11.4847 60.2617 12.5769 61.4274 13.74 62.52C15.97 64.52 19.38 65.27 23.22 65.8C26.81 66.3 30.46 67.47 34.22 67C37.232 66.6193 40.1974 65.9324 43.07 64.95C47.84 63.3 52.59 60.43 55.51 55.95C55.307 56.202 55.09 56.4424 54.86 56.67C51.5737 59.9134 47.5685 62.3357 43.17 63.74C41.099 64.3482 38.9577 64.6844 36.8 64.74C34.6236 64.808 32.4518 64.5001 30.38 63.83C25.46 62.19 20.88 61.53 17.38 58.45C13.38 54.87 11.97 47.88 13.18 43.87C13.72 42.07 15.5 40.81 16.82 39.29C19.65 36.06 20.25 31.81 27.66 32.02C30.77 32.12 33.91 29.19 37.49 28.67C40.86 28.18 43.9 28.08 47.26 25.31C49.13 23.76 50.94 23.43 52.73 22.4C55.25 20.95 57.53 19.05 58.21 16.09C58.4522 14.8989 58.4522 13.6711 58.21 12.48C58.0945 12.1142 57.9542 11.7567 57.79 11.41C56.42 8.56 53.69 6.33 50.5 4.75C50.8332 4.91094 51.1512 5.10172 51.45 5.32C53.68 6.92 53.15 7.37 53.92 8.82C54.61 10.11 56.18 9.82 55.37 12.63C55.37 12.75 55.3 12.87 55.26 13C54.57 15.08 52.54 16.54 50.26 17.69C46.77 19.42 42.26 20.06 37.26 21.85L37.34 21.79Z" fill="url(#paint11_linear_4_5618)"/>
</g>
<defs>
<radialGradient id="paint0_radial_4_5618" cx="0" cy="0" r="1" gradientUnits="userSpaceOnUse" gradientTransform="translate(26.6 17.85) scale(54.1 54.1)">
<stop stop-color="#71F5FF"/>
<stop offset="0.15" stop-color="#67E9FF"/>
<stop offset="0.43" stop-color="#4CC9FF"/>
<stop offset="0.5" stop-color="#44BFFF"/>
<stop offset="0.92" stop-color="#CE2FEB"/>
</radialGradient>
<radialGradient id="paint1_radial_4_5618" cx="0" cy="0" r="1" gradientUnits="userSpaceOnUse" gradientTransform="translate(27.74 25.61) scale(48.88 48.88)">
<stop offset="0.33" stop-color="#F5F5FF"/>
<stop offset="0.46" stop-color="#F0EAFA"/>
<stop offset="0.68" stop-color="#E1CCED"/>
<stop offset="0.98" stop-color="#CA9DD9"/>
<stop offset="1" stop-color="#C899D7"/>
</radialGradient>
<radialGradient id="paint2_radial_4_5618" cx="0" cy="0" r="1" gradientUnits="userSpaceOnUse" gradientTransform="translate(17.4 24.67) scale(42.31)">
<stop stop-color="#E87923"/>
<stop offset="1" stop-color="#AD4200"/>
</radialGradient>
<radialGradient id="paint3_radial_4_5618" cx="0" cy="0" r="1" gradientUnits="userSpaceOnUse" gradientTransform="translate(26.16 17.8) scale(53.14 53.14)">
<stop stop-color="#ED9600"/>
<stop offset="1" stop-color="#E94E1B"/>
</radialGradient>
<radialGradient id="paint4_radial_4_5618" cx="0" cy="0" r="1" gradientUnits="userSpaceOnUse" gradientTransform="translate(35.32 56.13) scale(49.93 49.93)">
<stop stop-color="#F5812A"/>
<stop offset="1" stop-color="#B84706"/>
</radialGradient>
<radialGradient id="paint5_radial_4_5618" cx="0" cy="0" r="1" gradientUnits="userSpaceOnUse" gradientTransform="translate(16.34 17.8) scale(40.86)">
<stop stop-color="#F5812A"/>
<stop offset="1" stop-color="#BD5519"/>
</radialGradient>
<radialGradient id="paint6_radial_4_5618" cx="0" cy="0" r="1" gradientUnits="userSpaceOnUse" gradientTransform="translate(24.39 14.95) scale(40.64 40.64)">
<stop stop-color="#A48A7B"/>
<stop offset="1" stop-color="#000A00"/>
</radialGradient>
<radialGradient id="paint7_radial_4_5618" cx="0" cy="0" r="1" gradientUnits="userSpaceOnUse" gradientTransform="translate(23.08 14.18) scale(41.99 41.99)">
<stop stop-color="#C2F5F4"/>
<stop offset="1" stop-color="#000012"/>
</radialGradient>
<radialGradient id="paint8_radial_4_5618" cx="0" cy="0" r="1" gradientUnits="userSpaceOnUse" gradientTransform="translate(32.1 20.76) scale(52.42 52.42)">
<stop offset="0.33" stop-color="#E6F5F5"/>
<stop offset="0.46" stop-color="#E5F1F0"/>
<stop offset="0.61" stop-color="#E1E6E2"/>
<stop offset="0.76" stop-color="#DAD4CB"/>
<stop offset="0.92" stop-color="#D1BAAB"/>
<stop offset="1" stop-color="#CCAC99"/>
</radialGradient>
<radialGradient id="paint9_radial_4_5618" cx="0" cy="0" r="1" gradientUnits="userSpaceOnUse" gradientTransform="translate(44.78 43.11) scale(27.5 27.5)">
<stop stop-color="#D45C00"/>
<stop offset="1" stop-color="#8C3500"/>
</radialGradient>
<radialGradient id="paint10_radial_4_5618" cx="0" cy="0" r="1" gradientUnits="userSpaceOnUse" gradientTransform="translate(40.37 30.47) scale(41.29 41.29)">
<stop offset="0.68"/>
<stop offset="0.72" stop-color="#040200"/>
<stop offset="0.76" stop-color="#100800"/>
<stop offset="0.8" stop-color="#241300"/>
<stop offset="0.84" stop-color="#402100"/>
<stop offset="0.88" stop-color="#643400"/>
<stop offset="0.92" stop-color="#904B00"/>
<stop offset="0.96" stop-color="#C36500"/>
<stop offset="1" stop-color="#F98100"/>
</radialGradient>
<linearGradient id="paint11_linear_4_5618" x1="9.61" y1="8.08" x2="40.47" y2="41.87" gradientUnits="userSpaceOnUse">
<stop stop-color="#F98100"/>
<stop offset="0.08" stop-color="#F57F00"/>
<stop offset="0.17" stop-color="#E97900"/>
<stop offset="0.25" stop-color="#D56E00"/>
<stop offset="0.33" stop-color="#B96000"/>
<stop offset="0.41" stop-color="#954D00"/>
<stop offset="0.5" stop-color="#683600"/>
<stop offset="0.58" stop-color="#351B00"/>
<stop offset="0.65"/>
</linearGradient>
<clipPath id="clip0_4_5618">
<rect width="65.72" height="67.09" fill="white"/>
</clipPath>
</defs>
</svg>
