<svg width="64" height="64" viewBox="0 0 64 64" fill="none" xmlns="http://www.w3.org/2000/svg">
<g clip-path="url(#clip0_4_5634)">
<path fill-rule="evenodd" clip-rule="evenodd" d="M0.49 27.3V29.62L1.57 33.62L7.17 43.25L19.09 54.89L29.21 60.49L40.41 61.23L47.55 57.83L53.69 54.1L58.39 48.91L60.63 43.97L63.26 36.84L63.66 35.03L63.76 33.83C63.54 27.22 50.65 22.49 36.89 20.49C20.3 18.12 1.82 18.14 0.49 27.26V27.3Z" fill="url(#paint0_linear_4_5634)"/>
<path fill-rule="evenodd" clip-rule="evenodd" d="M31.92 1.31C38.0659 1.30802 44.0744 3.12881 49.1853 6.54207C54.2963 9.95533 58.2802 14.8077 60.633 20.4854C62.9859 26.1631 63.602 32.4111 62.4035 38.439C61.205 44.4669 58.2456 50.004 53.8998 54.3498C49.554 58.6956 44.0169 61.655 37.989 62.8535C31.9611 64.052 25.7131 63.4359 20.0354 61.083C14.3577 58.7302 9.50533 54.7463 6.09207 49.6353C2.67882 44.5244 0.858021 38.5159 0.859999 32.37C0.86265 24.1332 4.13588 16.2345 9.96019 10.4102C15.7845 4.58588 23.6832 1.31265 31.92 1.31Z" fill="url(#paint1_radial_4_5634)"/>
<path fill-rule="evenodd" clip-rule="evenodd" d="M11.89 8.42999C11.6805 8.96694 11.3756 9.46157 10.99 9.88999C9.38 11.59 5.85 13.42 5.76 16.01C5.76 16.42 6.02 16.81 5.99 17.21C5.87429 18.0149 5.71405 18.8128 5.51 19.6C5.31 20.76 5.84 22.23 7.26 21.88C8.03 21.69 9.59 21.15 9.79 21.2C10.55 21.39 11.47 22.33 12.4 22.2C13.89 22.05 15.15 20.7 16.4 20.32C19.11 19.47 21.92 22.38 22.89 25.03C24.3 28.87 25.76 33.74 27.06 34.61C27.84 35.13 29.25 35.43 29.68 35.73C31.09 36.73 31.95 39.8 32.85 40.89C33.3231 41.5081 33.9764 41.9642 34.7197 42.1953C35.4631 42.4263 36.2598 42.421 37 42.18C38.38 41.8 41.12 41.18 42 41.1C44.45 40.8 49.16 41.26 50.29 40.73C51.8331 39.8482 53.2693 38.7912 54.57 37.58C56.47 36.09 58.09 35.47 58.99 34.12C59.37 33.55 59.27 32.12 59.3 31.19C59.3 29.83 60.3 29.39 60.79 28.41C62.01 25.9 60.07 21 59.21 18.51C58.97 17.79 58.66 17.1 58.43 16.37C58.27 15.88 58.16 15.43 58.06 14.98C57.4803 12.9815 56.4312 11.1506 55 9.63999C53.73 8.50999 51.73 7.99999 50.33 6.93999C44.9347 3.02773 38.6004 0.612671 31.97 -0.0600108C30.46 -0.140011 25.65 1.47999 22.66 2.40999C19.67 3.33999 16.37 4.32999 13.74 6.15999C12.9259 6.70976 12.2761 7.4701 11.86 8.35999L11.89 8.42999ZM2.81 31.08C2.63258 31.182 2.42814 31.2271 2.22428 31.2092C2.02042 31.1913 1.82696 31.1113 1.67 30.98C0.908039 29.9036 0.496036 28.6187 0.490001 27.3C0.230001 28.95 0.190001 30.65 0.0900014 32.37C-0.177367 35.4417 -0.0361355 38.5354 0.510001 41.57C0.990001 43.21 3.12 46.83 6.51 51.49C8.85 54.75 12.51 58.89 14.1 59.69C16.54 60.93 25.87 63.74 31.96 63.74C34.4473 63.7531 36.9317 63.5691 39.39 63.19C41.9213 62.845 44.4086 62.2315 46.81 61.36C49.28 60.04 53.42 56.18 56.08 52.89C58.08 50.41 61.54 45.89 61.84 45.06C62.8062 41.3827 63.4256 37.6229 63.69 33.83C63.39 37.01 62.36 36.83 61.03 39.34C60.5049 40.3986 60.0343 41.4833 59.62 42.59C58.62 45.12 57.62 48.29 56.09 50.59C55.517 51.4726 54.8044 52.2561 53.98 52.91C53.4285 53.3263 52.7887 53.6102 52.11 53.74C51.66 53.84 51.19 53.53 50.74 53.62C48.48 54.09 47.23 56.3 45.51 57.44C44.5441 58.052 43.4926 58.5171 42.39 58.82C41.0494 59.2175 39.6194 59.1959 38.2915 58.758C36.9636 58.3201 35.8012 57.4869 34.96 56.37C33.62 55.24 29.18 54.75 27.29 54.25C22.77 53.06 23.41 49.61 23.18 48.69C23.0947 48.2412 22.908 47.8178 22.6342 47.4522C22.3603 47.0865 22.0066 46.7882 21.6 46.58C20.89 46.21 16.49 45.82 15.17 45.21C11.82 43.65 10.61 40.37 10.17 35.56C10.0378 33.9699 9.73953 32.398 9.28 30.87C8.95812 30.3336 8.47661 29.9112 7.90284 29.662C7.32906 29.4128 6.69173 29.3491 6.08 29.48C4.98074 29.9455 3.91196 30.4799 2.88 31.08H2.81ZM38.63 36.49C38.2833 37.1717 38.0792 37.9168 38.03 38.68C38.03 38.99 38.18 39.52 38.44 39.48C39.27 39.34 40.77 39.06 41.98 38.88C42.76 38.77 43.61 38.78 44.38 38.6C44.5106 38.5676 44.6299 38.5002 44.725 38.405C44.8202 38.3099 44.8876 38.1906 44.92 38.06C44.99 37.7 44.06 36.5 43.68 36.34C42.53 35.85 39.58 35.62 38.63 36.49ZM28.06 19.49C26.27 19.62 26.19 22.71 26.39 24.06C26.5962 25.5813 27.0701 27.054 27.79 28.41C28.2249 28.9194 28.7877 29.3036 29.4204 29.5233C30.0532 29.743 30.733 29.7902 31.39 29.66C31.6283 29.5766 31.8396 29.4304 32.0015 29.2367C32.1635 29.0431 32.2701 28.8093 32.31 28.56C32.41 27.41 31.77 26.29 31.78 25.14C31.79 23.99 32.63 21.38 32.05 20.86C30.9385 19.9098 29.5114 19.4103 28.05 19.46L28.06 19.49ZM21.81 13.8C21.5508 13.795 21.2933 13.844 21.054 13.9439C20.8147 14.0437 20.5988 14.1922 20.42 14.38C20.2454 14.5832 20.1253 14.8275 20.0711 15.0899C20.0168 15.3523 20.0302 15.6242 20.11 15.88C20.7944 17.1144 21.6876 18.2208 22.75 19.15C22.8894 19.3044 23.0684 19.4176 23.2676 19.4776C23.4668 19.5375 23.6786 19.5418 23.88 19.49C24.0696 19.3618 24.2312 19.1964 24.3549 19.0039C24.4787 18.8114 24.5621 18.5957 24.6 18.37C24.9045 17.3319 25.0362 16.2508 24.99 15.17C24.96 14.9534 24.8754 14.748 24.7442 14.5731C24.613 14.3982 24.4395 14.2595 24.24 14.17C23.4717 13.8495 22.6412 13.706 21.81 13.75V13.8ZM13.87 15.49C12.76 15.7 11.17 17.64 11.87 18.49C11.9824 18.6433 12.1361 18.7614 12.3132 18.8305C12.4904 18.8996 12.6835 18.9168 12.87 18.88C13.7468 18.529 14.5874 18.0936 15.38 17.58C15.7233 17.4814 16.0578 17.3543 16.38 17.2C16.4778 17.1023 16.5543 16.9853 16.6046 16.8566C16.6549 16.7278 16.678 16.59 16.6723 16.4518C16.6667 16.3137 16.6325 16.1782 16.5718 16.054C16.5112 15.9297 16.4254 15.8194 16.32 15.73C15.5662 15.4352 14.7439 15.3624 13.95 15.52L13.87 15.49Z" fill="url(#paint2_radial_4_5634)"/>
<path style="mix-blend-mode:screen" fill-rule="evenodd" clip-rule="evenodd" d="M10.1 35.56C9.96782 33.9699 9.66953 32.398 9.21 30.87C8.88812 30.3336 8.40661 29.9112 7.83284 29.662C7.25906 29.4127 6.62172 29.3491 6.01 29.48C4.91074 29.9455 3.84195 30.4799 2.81 31.08C2.70111 31.1379 2.58245 31.1752 2.46 31.19C2.4321 32.0055 2.56918 32.8182 2.86302 33.5794C3.15686 34.3407 3.6014 35.0347 4.17 35.62C4.92 36.45 5.85 36.34 7.17 38.2C7.47245 38.7972 7.80625 39.378 8.17 39.94C8.8612 40.7661 9.69008 41.4664 10.62 42.01C11.0361 42.227 11.4804 42.3852 11.94 42.48C10.7828 40.3496 10.1294 37.9823 10.03 35.56H10.1ZM28.1 19.46C26.31 19.59 26.23 22.68 26.43 24.03C26.6362 25.5513 27.1101 27.024 27.83 28.38C28.258 28.8881 28.8127 29.2741 29.4378 29.4988C30.063 29.7236 30.7364 29.7792 31.39 29.66C31.6283 29.5766 31.8396 29.4304 32.0015 29.2367C32.1635 29.0431 32.2701 28.8093 32.31 28.56C32.41 27.41 31.77 26.29 31.78 25.14C31.79 23.99 32.63 21.38 32.05 20.86C30.9385 19.9098 29.5114 19.4103 28.05 19.46H28.1ZM21.85 13.77C21.5908 13.765 21.3333 13.814 21.094 13.9138C20.8547 14.0137 20.6388 14.1622 20.46 14.35C20.2854 14.5532 20.1653 14.7975 20.1111 15.0599C20.0569 15.3223 20.0702 15.5942 20.15 15.85C20.8344 17.0844 21.7276 18.1908 22.79 19.12C22.9294 19.2744 23.1084 19.3876 23.3076 19.4476C23.5068 19.5075 23.7186 19.5118 23.92 19.46C24.1096 19.3318 24.2712 19.1664 24.3949 18.9739C24.5187 18.7813 24.6021 18.5657 24.64 18.34C24.9445 17.3019 25.0762 16.2208 25.03 15.14C25 14.9234 24.9154 14.718 24.7842 14.5431C24.653 14.3682 24.4795 14.2294 24.28 14.14C23.5117 13.8195 22.6812 13.676 21.85 13.72V13.77ZM13.87 15.49C12.76 15.7 11.17 17.64 11.87 18.49C11.9824 18.6433 12.1361 18.7614 12.3132 18.8305C12.4904 18.8996 12.6835 18.9168 12.87 18.88C13.7468 18.529 14.5874 18.0936 15.38 17.58C15.7233 17.4814 16.0578 17.3543 16.38 17.2C16.4778 17.1023 16.5543 16.9853 16.6046 16.8565C16.6549 16.7278 16.678 16.59 16.6723 16.4518C16.6667 16.3137 16.6325 16.1782 16.5718 16.054C16.5112 15.9297 16.4254 15.8194 16.32 15.73C15.5662 15.4352 14.7439 15.3623 13.95 15.52L13.87 15.49ZM24.39 1.94998L22.69 2.48998C19.56 3.48998 16.4 4.40998 13.77 6.23998C12.9559 6.78975 12.3061 7.55009 11.89 8.43998C11.89 8.54998 11.79 8.65998 11.73 8.76998C11.552 9.18741 11.3015 9.57 10.99 9.89999C10.31 10.61 9.3 11.35 8.35 12.15C7.16829 12.9611 6.28075 14.1328 5.82 15.49C5.78957 15.6519 5.76952 15.8155 5.76 15.98C5.76 16.39 6.02 16.78 5.99 17.18C5.87429 17.9849 5.71405 18.7828 5.51 19.57C5.39607 20.1781 5.50619 20.8068 5.82 21.34C5.96864 21.5735 6.19117 21.7506 6.45214 21.8431C6.7131 21.9355 6.99749 21.9379 7.26 21.85C8.03 21.66 9.59 21.12 9.79 21.17C10.55 21.36 11.47 22.3 12.4 22.17C13.89 22.02 15.15 20.67 16.4 20.29C19.11 19.44 21.92 22.35 22.89 25C24.3 28.84 25.76 33.71 27.06 34.58C27.84 35.1 29.25 35.4 29.68 35.7C30.6 36.33 31.29 37.88 31.9 39.18C32.5663 38.5179 33.1689 37.7948 33.7 37.02C34.2383 36.0826 34.8362 35.1808 35.49 34.32C36.74 33.06 38.49 33.11 39.55 30.71C39.98 29.71 39.68 28.49 40.13 27.51C40.69 26.33 41.94 25.58 42.5 24.4C42.9191 23.5212 43.2023 22.5838 43.34 21.62C43.3882 21.262 43.4116 20.9012 43.41 20.54C43.41 18.39 42.69 16.29 42.41 14.15C42.22 12.69 42.41 11.15 42.03 9.75998C41.34 7.35998 39.92 7.07999 38.34 5.85999C37.512 5.00364 36.6083 4.22381 35.64 3.52998C34.2211 2.85813 32.712 2.39661 31.16 2.15998C29.8189 1.93341 28.4536 1.88633 27.1 2.01998C26.4927 2.04742 25.8842 2.02736 25.28 1.95998C24.97 1.95998 24.66 1.89998 24.33 1.88998L24.39 1.94998ZM37.3 9.21999C37.3 8.93999 37.68 8.71999 37.97 8.67999C39.39 8.44999 40.83 10.3 41.12 11.6C41.32 12.5 41.12 13.44 41.33 14.34C41.54 15.24 41.94 15.98 42.11 16.83C42.72 19.83 42.84 22.08 41.11 24.59C39.98 26.2 38.6 25.85 38.53 23.8C38.5458 23.0146 38.7157 22.2399 39.03 21.52C39.96 19.12 41.1 18.62 41.03 15.71C41.0446 15.2434 40.9267 14.7823 40.69 14.38C40.38 13.94 39.46 13.59 39.41 13.38C39.3395 12.8326 39.1843 12.2996 38.95 11.8C38.61 11.28 38.14 11.33 37.75 10.85C37.3961 10.3805 37.2319 9.79503 37.29 9.20998L37.3 9.21999ZM9.49 14.35C9.01 14.12 9.49 12.58 9.78 12.26C10.07 11.94 10.85 11.76 11.36 11.47C11.786 11.2869 12.1782 11.0333 12.52 10.72C12.71 10.51 13.34 8.28998 13.83 7.58998C14.18 7.07998 15.39 6.31998 15.75 6.66998C15.93 6.84998 15.75 7.81998 15.67 8.04998C15.42 8.51998 14.78 8.84998 14.67 9.72998C14.7559 10.5269 14.7826 11.3291 14.75 12.13C14.6913 12.7135 14.408 13.2514 13.96 13.63C13.45 13.97 12.73 13.74 12.14 13.92C11.76 14.03 11.49 14.43 11.14 14.5C10.5973 14.6164 10.0321 14.5641 9.52 14.35H9.49Z" fill="url(#paint3_radial_4_5634)"/>
<path style="mix-blend-mode:multiply" opacity="0.7" fill-rule="evenodd" clip-rule="evenodd" d="M27.22 55.54C26.06 55.16 19.14 53.9 17.35 51.89C16.5 50.89 15.85 49.14 15.1 48.82C14.2255 48.6265 13.3408 48.483 12.45 48.39C11.4921 48.2598 10.5482 48.0422 9.63 47.74C8.40003 47.2331 7.29462 46.4654 6.39 45.49C2.87 41.82 4.39 41.1 3.11 36.86C2.8 35.86 1.94 35.04 1.54 34.04C1.15486 33.108 0.931653 32.1171 0.88 31.11C0.88 31.02 0.88 30.93 0.88 30.84C0.87955 30.4326 0.899575 30.0254 0.94 29.62C0.691893 28.866 0.543961 28.0826 0.500001 27.29C0.240001 28.94 0.2 30.64 0.0999997 32.36C-0.167369 35.4317 -0.0261372 38.5254 0.52 41.56C1 43.2 3.13 46.82 6.52 51.48C8.86 54.74 12.52 58.88 14.11 59.68C16.55 60.92 25.88 63.73 31.97 63.73C34.4537 63.7458 36.9348 63.5653 39.39 63.19C41.9213 62.845 44.4086 62.2315 46.81 61.36C49.28 60.04 53.42 56.18 56.08 52.89C58.08 50.41 61.54 45.89 61.84 45.06C62.8062 41.3827 63.4256 37.6229 63.69 33.83C63.67 34.9889 63.2929 36.1134 62.61 37.05C62.0135 37.7627 61.4846 38.5294 61.03 39.34C60.5049 40.3986 60.0343 41.4833 59.62 42.59C58.62 45.12 57.62 48.29 56.09 50.59C55.517 51.4726 54.8044 52.2561 53.98 52.91C53.4285 53.3263 52.7887 53.6102 52.11 53.74C51.66 53.84 51.19 53.53 50.74 53.62C48.48 54.09 47.23 56.3 45.51 57.44C44.5441 58.052 43.4926 58.5171 42.39 58.82C41.2094 59.2009 39.9448 59.2377 38.744 58.926C37.5433 58.6143 36.4562 57.9671 35.61 57.06C34.7617 56.3455 33.7585 55.8387 32.68 55.58C32.1571 55.4904 31.6229 55.4904 31.1 55.58C29.827 55.7538 28.5346 55.7269 27.27 55.5L27.22 55.54ZM53.77 19.36C54.03 20.93 55.11 22.36 55.18 23.92C55.2105 24.3721 55.1316 24.8249 54.95 25.24C54.36 26.61 52.95 27.55 53.61 32.55C53.768 33.4542 53.8216 34.3736 53.77 35.29C53.6387 36.5182 53.4011 37.7328 53.06 38.92C53.72 38.37 54.26 37.87 54.6 37.61C56.5 36.12 58.12 35.5 59.02 34.15C59.4 33.58 59.3 32.15 59.33 31.22C59.33 29.95 60.21 29.48 60.71 28.63L60.82 28.44C62.04 25.93 60.1 21.03 59.24 18.54C59 17.82 58.69 17.13 58.46 16.4C58.46 16.28 58.38 16.16 58.35 16.04C58.25 15.69 58.17 15.34 58.09 15.04C57.5103 13.0415 56.4612 11.2106 55.03 9.7C53.76 8.57 51.76 8.06 50.36 7C44.9647 3.08774 38.6304 0.672682 32 0C30.9258 0.0606132 29.8637 0.258897 28.84 0.589996C30.75 0.819996 32.92 1.08 35 1.45C36.9404 1.74545 38.8398 2.26562 40.66 3C41.35 3.31 41.66 4.1 42.32 4.54C43.32 5.27 44.55 5.74 45.56 6.54C46.41 7.16 47.04 8.04999 47.88 8.68999C48.6049 9.13841 49.276 9.66855 49.88 10.27C50.4379 11.0543 50.9232 11.8877 51.33 12.76C52.1848 13.9453 52.9216 15.2113 53.53 16.54C53.718 17.4819 53.8151 18.4396 53.82 19.4L53.77 19.36Z" fill="url(#paint4_radial_4_5634)"/>
<path style="mix-blend-mode:screen" fill-rule="evenodd" clip-rule="evenodd" d="M5.52 16.93C3.75019 20.1192 2.584 23.6076 2.08 27.22C1.97 28.22 1.53 31.16 3.32 30.13C5.58 28.83 9.99 25.64 10.46 30.95C10.67 33.36 10.93 39.76 12.24 41.53C13.89 43.76 17.61 45.78 23.03 44.85C24.81 44.55 26.66 42.65 26.6 41.95C26.5 40.9 21.43 41.03 29.79 39.48C29.9636 39.445 30.1233 39.3602 30.2494 39.2359C30.3755 39.1115 30.4626 38.9531 30.5 38.78C30.5066 38.4686 30.4405 38.1601 30.3068 37.8788C30.1731 37.5976 29.9756 37.3514 29.73 37.16C29.2915 36.9939 28.8351 36.8798 28.37 36.82C25.9 36.42 25.37 36.1 24.84 34.18C23.92 30.81 23.66 27.34 21.91 24.03C21.4246 23.0433 20.5968 22.267 19.5812 21.8456C18.5655 21.4243 17.4313 21.3867 16.39 21.74C14.87 22.28 12.05 24.23 10.5 24.15C9.5 24.15 9.5 23.53 9.5 23.03C9.5 22.53 9.59 22.26 9.38 22.11C9.01 21.84 7.81 22.31 7.38 22.46C6.38 22.79 5.3 22.98 4.99 21.41C4.90495 20.8111 4.92525 20.2019 5.05 19.61C5.16507 19.0925 5.31884 18.5844 5.51 18.09C5.63876 17.7631 5.74893 17.4293 5.84 17.09C5.84 16.98 5.89 16.81 5.84 16.76C5.79 16.71 5.67 16.87 5.62 16.95L5.52 16.93Z" fill="url(#paint5_radial_4_5634)"/>
<path style="mix-blend-mode:multiply" fill-rule="evenodd" clip-rule="evenodd" d="M53.06 38.92C52.4235 39.7962 51.8647 40.7265 51.39 41.7C50.92 42.85 51.57 44.33 50.06 46.18C49.5741 46.7024 48.9321 47.0532 48.23 47.18C44.93 47.94 40.79 47.57 37.78 50.18C36 51.72 36.17 54.18 32.95 55.49C33.6683 55.6586 34.3474 55.9642 34.95 56.39C35.7944 57.5053 36.9596 58.3358 38.2894 58.7701C39.6192 59.2045 41.05 59.2219 42.39 58.82C43.5186 58.5143 44.5942 58.0389 45.58 57.41C47.3 56.27 48.58 54.06 50.81 53.59C51.26 53.5 51.73 53.81 52.18 53.71C52.8587 53.5802 53.4985 53.2962 54.05 52.88C54.8744 52.2261 55.587 51.4425 56.16 50.56C57.65 48.29 58.64 45.12 59.69 42.56C60.1043 41.4533 60.5749 40.3686 61.1 39.31C61.5546 38.4993 62.0835 37.7327 62.68 37.02C62.9131 35.4709 63.0301 33.9065 63.03 32.34C63.0321 26.5805 61.4251 20.9349 58.39 16.04C58.39 16.16 58.46 16.28 58.5 16.4C58.73 17.13 59.04 17.82 59.28 18.54C60.14 21.03 62.08 25.93 60.86 28.44C60.39 29.44 59.4 29.86 59.37 31.22C59.37 32.11 59.44 33.58 59.06 34.15C58.16 35.5 56.54 36.15 54.64 37.61C54.3 37.87 53.76 38.37 53.1 38.92H53.06ZM34.97 51.49C35.0251 51.7562 35.0167 52.0316 34.9455 52.294C34.8742 52.5563 34.7422 52.7982 34.56 53C34.054 53.4671 33.4268 53.7825 32.75 53.91C31.7473 54.1009 30.7119 54.0216 29.75 53.68C29.15 53.18 29.11 51.21 30.58 50.96C31.2 50.86 31.84 51.08 32.47 51.04C33.1 51 33.47 50.65 33.94 50.74C34.1592 50.7621 34.3681 50.8437 34.5444 50.9758C34.7206 51.108 34.8574 51.2858 34.94 51.49H34.97ZM48.33 43.33C48.4613 43.3032 48.5969 43.3063 48.7267 43.3392C48.8566 43.3721 48.9773 43.4339 49.08 43.52C49.2991 43.7985 49.4502 44.1244 49.5214 44.4715C49.5925 44.8187 49.5818 45.1777 49.49 45.52C49.1412 45.8312 48.7289 46.0631 48.2818 46.1995C47.8346 46.3359 47.3632 46.3736 46.9 46.31C46.7978 46.2803 46.7069 46.2206 46.6391 46.1385C46.5713 46.0565 46.5298 45.9559 46.52 45.85C46.5172 45.2963 46.6913 44.7562 47.0169 44.3083C47.3425 43.8605 47.8025 43.5282 48.33 43.36V43.33Z" fill="url(#paint6_radial_4_5634)"/>
<path style="mix-blend-mode:screen" opacity="0.6" fill-rule="evenodd" clip-rule="evenodd" d="M9.33 34C9.47 37.71 8.86 40.89 10.49 44.58C11.39 46.58 14.03 47.23 16.05 47.23C16.92 47.23 17.75 47.02 18.62 46.99C19.62 46.94 22.03 47.24 22.23 48.48C22.43 49.72 22.01 51.18 22.52 52.38C22.7507 52.8734 23.0692 53.3207 23.46 53.7C24.92 55.12 25.46 54.92 27.46 55.21C28.81 55.42 32.87 55.86 34.04 56.53C35.71 57.53 36.71 59.34 39.18 60.18C40.6 60.66 45.27 59.05 46.48 57.86C47.98 56.38 48.64 55.13 50.05 54.54C50.82 54.22 51.25 55.39 53.25 54.33C53.8926 53.9916 54.4795 53.5566 54.99 53.04C58.94 48.8 59.43 43.17 62.06 37.76C61.6864 38.2601 61.352 38.7883 61.06 39.34C60.5349 40.3986 60.0643 41.4833 59.65 42.59C58.65 45.12 57.65 48.29 56.12 50.59C55.547 51.4725 54.8344 52.2561 54.01 52.91C53.4585 53.3263 52.8187 53.6102 52.14 53.74C51.69 53.84 51.22 53.53 50.77 53.62C48.51 54.09 47.26 56.3 45.54 57.44C44.5648 58.0547 43.503 58.5199 42.39 58.82C41.0494 59.2175 39.6194 59.1959 38.2915 58.758C36.9636 58.3201 35.8012 57.4869 34.96 56.37C33.62 55.24 29.18 54.75 27.29 54.25C22.77 53.06 23.41 49.61 23.18 48.69C23.0947 48.2412 22.908 47.8178 22.6342 47.4522C22.3603 47.0865 22.0066 46.7882 21.6 46.58C20.89 46.21 16.49 45.82 15.17 45.21C11.82 43.65 10.61 40.37 10.17 35.56C10.0378 33.9699 9.73953 32.398 9.28 30.87C8.95812 30.3336 8.47661 29.9112 7.90284 29.662C7.32906 29.4128 6.69172 29.3491 6.08 29.48C4.98074 29.9455 3.91196 30.4799 2.88 31.08C2.70258 31.182 2.49814 31.2271 2.29428 31.2092C2.09042 31.1913 1.89696 31.1113 1.74 30.98C0.978038 29.9036 0.566035 28.6187 0.56 27.3C0.56 27.55 0.49 27.79 0.46 28.04C0.453474 29.1243 0.577704 30.2054 0.830001 31.26C1.11 32.13 2.29 32.83 3.05 32.26C3.81 31.69 4.62 30.52 5.58 29.93C5.84174 29.7789 6.13048 29.6804 6.43 29.64C8.8 29.36 9.34 32.35 9.43 33.98L9.33 34Z" fill="url(#paint7_radial_4_5634)"/>
<path style="mix-blend-mode:screen" fill-rule="evenodd" clip-rule="evenodd" d="M38.44 39.49C38.18 39.49 38.03 39 38.03 38.69C38.0632 38.3056 38.1268 37.9244 38.22 37.55C37.8649 38.337 37.7037 39.1978 37.75 40.06C37.84 40.39 38.6 40.58 39.06 40.46C39.9 40.24 40.7 39.86 41.53 39.6C42.36 39.34 43.88 39.07 44.38 38.84C44.5539 38.7528 44.7021 38.6219 44.81 38.46C44.854 38.3725 44.8811 38.2775 44.89 38.18C44.8439 38.2862 44.7739 38.3802 44.6854 38.4548C44.597 38.5294 44.4924 38.5825 44.38 38.61C43.61 38.79 42.76 38.78 41.98 38.89C40.77 39.07 39.27 39.35 38.44 39.49Z" fill="url(#paint8_radial_4_5634)"/>
<path style="mix-blend-mode:screen" fill-rule="evenodd" clip-rule="evenodd" d="M11 18.49C11.0824 18.6925 11.2062 18.8755 11.3635 19.0273C11.5208 19.1792 11.708 19.2965 11.9132 19.3718C12.1184 19.4471 12.3371 19.4787 12.5552 19.4646C12.7734 19.4506 12.9862 19.3911 13.18 19.29C14.0731 18.5549 15.0189 17.8864 16.01 17.29C15.78 17.37 15.54 17.42 15.32 17.52C14.5274 18.0336 13.6868 18.469 12.81 18.82C12.6235 18.8568 12.4304 18.8396 12.2532 18.7705C12.0761 18.7015 11.9224 18.5833 11.81 18.43C11.36 17.88 11.93 16.82 12.69 16.12C11.92 16.73 10.75 17.82 10.97 18.53L11 18.49Z" fill="url(#paint9_radial_4_5634)"/>
<path style="mix-blend-mode:screen" fill-rule="evenodd" clip-rule="evenodd" d="M21.53 19.22C21.9395 19.9253 22.4518 20.5657 23.05 21.12C23.1271 21.1712 23.2175 21.1985 23.31 21.1985C23.4025 21.1985 23.4929 21.1712 23.57 21.12C23.81 20.9 23.81 20.52 24.01 20.26C24.21 20 24.4 20.11 24.48 19.93C24.5738 19.7356 24.6443 19.5309 24.69 19.32C24.8963 18.3541 24.9902 17.3675 24.97 16.38C24.8991 17.0553 24.7754 17.724 24.6 18.38C24.5285 18.749 24.3632 19.0934 24.12 19.38C24.0488 19.4482 23.9679 19.5055 23.88 19.55C23.7091 19.6021 23.5279 19.6102 23.353 19.5734C23.1782 19.5367 23.0155 19.4564 22.88 19.34C22.8235 19.3047 22.7729 19.2609 22.73 19.21C21.6676 18.2808 20.7744 17.1744 20.09 15.94C20.0043 15.7275 19.9834 15.4943 20.03 15.27C19.9537 15.4815 19.9165 15.7052 19.92 15.93C20.2664 17.1342 20.8032 18.2753 21.51 19.31L21.53 19.22Z" fill="url(#paint10_radial_4_5634)"/>
<path style="mix-blend-mode:screen" fill-rule="evenodd" clip-rule="evenodd" d="M26.39 21.78C25.8908 23.0768 25.6595 24.4613 25.71 25.85C25.8199 26.3132 25.9636 26.7678 26.14 27.21C26.2396 27.8897 26.4002 28.5591 26.62 29.21C27.38 30.79 29.96 31.1 31.43 30.45C32.11 30.16 32.25 29.34 32.28 28.64C32.221 28.8681 32.1072 29.0783 31.9487 29.2526C31.7901 29.4268 31.5915 29.5598 31.37 29.64C30.7134 29.763 30.0359 29.7093 29.4068 29.4843C28.7778 29.2594 28.2198 28.8714 27.79 28.36C27.0701 27.004 26.5962 25.5313 26.39 24.01C26.2892 23.2634 26.2892 22.5066 26.39 21.76V21.78Z" fill="url(#paint11_radial_4_5634)"/>
<path style="mix-blend-mode:screen" fill-rule="evenodd" clip-rule="evenodd" d="M11.89 8.42999C11.6805 8.96694 11.3756 9.46157 10.99 9.88999C9.38 11.59 5.85 13.42 5.76 16.01C5.76 16.42 6.02 16.81 5.99 17.21C5.87429 18.0149 5.71405 18.8128 5.51 19.6C5.31 20.76 5.84 22.23 7.26 21.88C8.03 21.69 9.59 21.15 9.79 21.2C10.55 21.39 11.47 22.33 12.4 22.2C13.89 22.05 15.15 20.7 16.4 20.32C19.11 19.47 21.92 22.38 22.89 25.03C24.3 28.87 25.76 33.74 27.06 34.61C27.84 35.13 29.25 35.43 29.68 35.73C31.09 36.73 31.95 39.8 32.85 40.89C33.3231 41.5081 33.9764 41.9642 34.7197 42.1953C35.4631 42.4263 36.2598 42.421 37 42.18C38.38 41.8 41.12 41.18 42 41.1C44.45 40.8 49.16 41.26 50.29 40.73C51.8331 39.8482 53.2693 38.7912 54.57 37.58C56.47 36.09 58.09 35.47 58.99 34.12C59.37 33.55 59.27 32.12 59.3 31.19C59.3 29.83 60.3 29.39 60.79 28.41C62.01 25.9 60.07 21 59.21 18.51C58.97 17.79 58.66 17.1 58.43 16.37C58.27 15.88 58.16 15.43 58.06 14.98C57.4803 12.9815 56.4312 11.1506 55 9.63999C53.73 8.50999 51.73 7.99999 50.33 6.93999C44.9347 3.02773 38.6004 0.612671 31.97 -0.0600108C30.46 -0.140011 25.65 1.47999 22.66 2.40999C19.67 3.33999 16.37 4.32999 13.74 6.15999C12.9259 6.70976 12.2761 7.4701 11.86 8.35999L11.89 8.42999ZM2.81 31.08C2.63258 31.182 2.42814 31.2271 2.22428 31.2092C2.02042 31.1913 1.82696 31.1113 1.67 30.98C0.908039 29.9036 0.496036 28.6187 0.490001 27.3C0.230001 28.95 0.190001 30.65 0.0900014 32.37C-0.177367 35.4417 -0.0361355 38.5354 0.510001 41.57C0.990001 43.21 3.12 46.83 6.51 51.49C8.85 54.75 12.51 58.89 14.1 59.69C16.54 60.93 25.87 63.74 31.96 63.74C34.4473 63.7531 36.9317 63.5691 39.39 63.19C41.9213 62.845 44.4086 62.2315 46.81 61.36C49.28 60.04 53.42 56.18 56.08 52.89C58.08 50.41 61.54 45.89 61.84 45.06C62.8062 41.3827 63.4256 37.6229 63.69 33.83C63.39 37.01 62.36 36.83 61.03 39.34C60.5049 40.3986 60.0343 41.4833 59.62 42.59C58.62 45.12 57.62 48.29 56.09 50.59C55.517 51.4726 54.8044 52.2561 53.98 52.91C53.4285 53.3263 52.7887 53.6102 52.11 53.74C51.66 53.84 51.19 53.53 50.74 53.62C48.48 54.09 47.23 56.3 45.51 57.44C44.5441 58.052 43.4926 58.5171 42.39 58.82C41.0494 59.2175 39.6194 59.1959 38.2915 58.758C36.9636 58.3201 35.8012 57.4869 34.96 56.37C33.62 55.24 29.18 54.75 27.29 54.25C22.77 53.06 23.41 49.61 23.18 48.69C23.0947 48.2412 22.908 47.8178 22.6342 47.4522C22.3603 47.0865 22.0066 46.7882 21.6 46.58C20.89 46.21 16.49 45.82 15.17 45.21C11.82 43.65 10.61 40.37 10.17 35.56C10.0378 33.9699 9.73953 32.398 9.28 30.87C8.95812 30.3336 8.47661 29.9112 7.90284 29.662C7.32906 29.4128 6.69173 29.3491 6.08 29.48C4.98074 29.9455 3.91196 30.4799 2.88 31.08H2.81ZM38.63 36.49C38.2833 37.1717 38.0792 37.9168 38.03 38.68C38.03 38.99 38.18 39.52 38.44 39.48C39.27 39.34 40.77 39.06 41.98 38.88C42.76 38.77 43.61 38.78 44.38 38.6C44.5106 38.5676 44.6299 38.5002 44.725 38.405C44.8202 38.3099 44.8876 38.1906 44.92 38.06C44.99 37.7 44.06 36.5 43.68 36.34C42.53 35.85 39.58 35.62 38.63 36.49ZM28.06 19.49C26.27 19.62 26.19 22.71 26.39 24.06C26.5962 25.5813 27.0701 27.054 27.79 28.41C28.2249 28.9194 28.7877 29.3036 29.4204 29.5233C30.0532 29.743 30.733 29.7902 31.39 29.66C31.6283 29.5766 31.8396 29.4304 32.0015 29.2367C32.1635 29.0431 32.2701 28.8093 32.31 28.56C32.41 27.41 31.77 26.29 31.78 25.14C31.79 23.99 32.63 21.38 32.05 20.86C30.9385 19.9098 29.5114 19.4103 28.05 19.46L28.06 19.49ZM21.81 13.8C21.5508 13.795 21.2933 13.844 21.054 13.9439C20.8147 14.0437 20.5988 14.1922 20.42 14.38C20.2454 14.5832 20.1253 14.8275 20.0711 15.0899C20.0168 15.3523 20.0302 15.6242 20.11 15.88C20.7944 17.1144 21.6876 18.2208 22.75 19.15C22.8894 19.3044 23.0684 19.4176 23.2676 19.4776C23.4668 19.5375 23.6786 19.5418 23.88 19.49C24.0696 19.3618 24.2312 19.1964 24.3549 19.0039C24.4787 18.8114 24.5621 18.5957 24.6 18.37C24.9045 17.3319 25.0362 16.2508 24.99 15.17C24.96 14.9534 24.8754 14.748 24.7442 14.5731C24.613 14.3982 24.4395 14.2595 24.24 14.17C23.4717 13.8495 22.6412 13.706 21.81 13.75V13.8ZM13.87 15.49C12.76 15.7 11.17 17.64 11.87 18.49C11.9824 18.6433 12.1361 18.7614 12.3132 18.8305C12.4904 18.8996 12.6835 18.9168 12.87 18.88C13.7468 18.529 14.5874 18.0936 15.38 17.58C15.7233 17.4814 16.0578 17.3543 16.38 17.2C16.4778 17.1023 16.5543 16.9853 16.6046 16.8566C16.6549 16.7278 16.678 16.59 16.6723 16.4518C16.6667 16.3137 16.6325 16.1782 16.5718 16.054C16.5112 15.9297 16.4254 15.8194 16.32 15.73C15.5662 15.4352 14.7439 15.3624 13.95 15.52L13.87 15.49Z" fill="url(#paint12_radial_4_5634)"/>
</g>
<defs>
<linearGradient id="paint0_linear_4_5634" x1="0.49" y1="40.24" x2="63.71" y2="40.24" gradientUnits="userSpaceOnUse">
<stop stop-color="#4F309E"/>
<stop offset="0.33" stop-color="#472990"/>
<stop offset="1" stop-color="#391D77"/>
</linearGradient>
<radialGradient id="paint1_radial_4_5634" cx="0" cy="0" r="1" gradientUnits="userSpaceOnUse" gradientTransform="translate(20.65 18.41) scale(50.72)">
<stop stop-color="#71F5FF"/>
<stop offset="0.13" stop-color="#6AE9FF"/>
<stop offset="0.36" stop-color="#56C9FF"/>
<stop offset="0.38" stop-color="#54C5FF"/>
<stop offset="0.92" stop-color="#1483FF"/>
</radialGradient>
<radialGradient id="paint2_radial_4_5634" cx="0" cy="0" r="1" gradientUnits="userSpaceOnUse" gradientTransform="translate(22.55 17.43) scale(50.14)">
<stop stop-color="#7A369E"/>
<stop offset="0.23" stop-color="#6E349E"/>
<stop offset="0.63" stop-color="#4F309E"/>
<stop offset="1" stop-color="#33128A"/>
</radialGradient>
<radialGradient id="paint3_radial_4_5634" cx="0" cy="0" r="1" gradientUnits="userSpaceOnUse" gradientTransform="translate(10.21 4.58998) scale(44.49 44.49)">
<stop stop-color="#8D6EFF"/>
<stop offset="1"/>
</radialGradient>
<radialGradient id="paint4_radial_4_5634" cx="0" cy="0" r="1" gradientUnits="userSpaceOnUse" gradientTransform="translate(24.02 23.3) scale(52.53 52.53)">
<stop offset="0.45" stop-color="white"/>
<stop offset="0.5" stop-color="#F8F4F9"/>
<stop offset="0.58" stop-color="#E7D6E8"/>
<stop offset="0.69" stop-color="#CAA6CD"/>
<stop offset="0.83" stop-color="#A263A8"/>
<stop offset="0.97" stop-color="#700F79"/>
<stop offset="1" stop-color="#670070"/>
</radialGradient>
<radialGradient id="paint5_radial_4_5634" cx="0" cy="0" r="1" gradientUnits="userSpaceOnUse" gradientTransform="translate(14.08 14.44) scale(39.91 39.91)">
<stop stop-color="#91FBFF"/>
<stop offset="1"/>
</radialGradient>
<radialGradient id="paint6_radial_4_5634" cx="0" cy="0" r="1" gradientUnits="userSpaceOnUse" gradientTransform="translate(27.52 24.05) scale(49.82 49.82)">
<stop offset="0.33" stop-color="white"/>
<stop offset="0.4" stop-color="#F4FAFA"/>
<stop offset="0.52" stop-color="#D6EEED"/>
<stop offset="0.68" stop-color="#A6DAD7"/>
<stop offset="0.87" stop-color="#64BEB9"/>
<stop offset="1" stop-color="#35AAA4"/>
</radialGradient>
<radialGradient id="paint7_radial_4_5634" cx="0" cy="0" r="1" gradientUnits="userSpaceOnUse" gradientTransform="translate(18.74 33.68) scale(58.79 58.79)">
<stop stop-color="#00E1FF"/>
<stop offset="1"/>
</radialGradient>
<radialGradient id="paint8_radial_4_5634" cx="0" cy="0" r="1" gradientUnits="userSpaceOnUse" gradientTransform="translate(39.21 37.44) scale(6.15 6.15001)">
<stop stop-color="#00E1FF"/>
<stop offset="1"/>
</radialGradient>
<radialGradient id="paint9_radial_4_5634" cx="0" cy="0" r="1" gradientUnits="userSpaceOnUse" gradientTransform="translate(9.66 18.76) scale(7.11 7.11)">
<stop stop-color="#00E1FF"/>
<stop offset="1"/>
</radialGradient>
<radialGradient id="paint10_radial_4_5634" cx="0" cy="0" r="1" gradientUnits="userSpaceOnUse" gradientTransform="translate(22.64 16.78) scale(6.6)">
<stop stop-color="#00E1FF"/>
<stop offset="1"/>
</radialGradient>
<radialGradient id="paint11_radial_4_5634" cx="0" cy="0" r="1" gradientUnits="userSpaceOnUse" gradientTransform="translate(30.57 25.67) scale(7.02 7.02)">
<stop stop-color="#00E1FF"/>
<stop offset="1"/>
</radialGradient>
<radialGradient id="paint12_radial_4_5634" cx="0" cy="0" r="1" gradientUnits="userSpaceOnUse" gradientTransform="translate(43.75 40.24) scale(47.47)">
<stop offset="0.04"/>
<stop offset="0.84"/>
<stop offset="0.85" stop-color="#0F0A16"/>
<stop offset="0.9" stop-color="#452F68"/>
<stop offset="0.93" stop-color="#704CA9"/>
<stop offset="0.96" stop-color="#8F61D7"/>
<stop offset="0.99" stop-color="#A26EF4"/>
<stop offset="1" stop-color="#A973FF"/>
</radialGradient>
<clipPath id="clip0_4_5634">
<rect width="63.71" height="63.74" fill="white"/>
</clipPath>
</defs>
</svg>
