<svg width="67" height="65" viewBox="0 0 67 65" fill="none" xmlns="http://www.w3.org/2000/svg">
<g clip-path="url(#clip0_4_5769)">
<path fill-rule="evenodd" clip-rule="evenodd" d="M32.15 0.149994C38.5087 0.149994 44.7246 2.03556 50.0116 5.56825C55.2986 9.10093 59.4194 14.1221 61.8527 19.9967C64.2861 25.8714 64.9228 32.3357 63.6823 38.5721C62.4417 44.8086 59.3797 50.5372 54.8835 55.0335C50.3872 59.5297 44.6586 62.5917 38.4221 63.8322C32.1857 65.0728 25.7214 64.4361 19.8467 62.0027C13.9721 59.5694 8.95095 55.4486 5.41826 50.1616C1.88557 44.8745 0 38.6587 0 32.3C0 23.7733 3.38722 15.5958 9.41652 9.56651C15.4458 3.53722 23.6233 0.149994 32.15 0.149994Z" fill="url(#paint0_radial_4_5769)"/>
<path style="mix-blend-mode:screen" fill-rule="evenodd" clip-rule="evenodd" d="M32.15 0.149994C38.5087 0.149994 44.7246 2.03556 50.0116 5.56825C55.2986 9.10093 59.4194 14.1221 61.8527 19.9967C64.2861 25.8714 64.9228 32.3357 63.6823 38.5721C62.4417 44.8086 59.3797 50.5372 54.8835 55.0335C50.3872 59.5297 44.6586 62.5917 38.4221 63.8322C32.1857 65.0728 25.7214 64.4361 19.8467 62.0027C13.9721 59.5694 8.95095 55.4486 5.41826 50.1616C1.88557 44.8745 0 38.6587 0 32.3C0 23.7733 3.38722 15.5958 9.41652 9.56651C15.4458 3.53722 23.6233 0.149994 32.15 0.149994Z" fill="url(#paint1_radial_4_5769)"/>
<path style="mix-blend-mode:screen" fill-rule="evenodd" clip-rule="evenodd" d="M8.21 20.93C7.62 20.52 7.62999 19.88 6.41999 19.85C5.20999 19.82 4.42 20.98 4.04 22.21C2.71383 26.4238 2.86552 30.9641 4.46999 35.08C5.13172 36.4805 5.9539 37.7993 6.91999 39.01C8.16999 40.71 10.74 43.07 13.11 42.26C14.11 41.92 14.91 41.08 15.89 40.65C16.585 40.3727 17.3154 40.1943 18.06 40.12C19.06 39.96 20.15 39.97 21.19 39.88C24.13 39.61 23.31 38.88 25.33 38.15C26 37.9 26.76 37.94 27.45 37.73C27.9936 37.5655 28.5119 37.3265 28.99 37.02C30.67 35.94 28.21 35.87 27.53 35.94C27.1828 36.0173 26.8468 36.1382 26.53 36.3C25.8815 36.6302 25.2136 36.9207 24.53 37.17C23.9394 37.3406 23.322 37.3982 22.71 37.34C21.87 37.25 21.09 36.86 20.26 36.69C19.79 36.59 19.52 36.69 19.04 36.54C18.5956 36.4827 18.169 36.3291 17.79 36.09C15.86 34.67 17.86 32.41 20.41 32.61C21.1395 32.749 21.8931 32.6868 22.59 32.43C22.6407 32.3801 22.6739 32.3152 22.6847 32.245C22.6955 32.1747 22.6833 32.1028 22.65 32.04C22.571 31.9125 22.477 31.795 22.37 31.69C21.82 31.14 21.27 30.49 21.58 29.62C21.6332 29.4702 21.7192 29.3341 21.8316 29.2216C21.9441 29.1092 22.0802 29.0232 22.23 28.97C22.8 28.75 23.45 28.97 24.05 28.85C24.3693 28.8161 24.67 28.6832 24.91 28.47C25.26 28.07 25.31 27.47 25.63 27.07C26.87 25.43 30.16 25.96 32.09 25.58C32.9442 25.4636 33.7612 25.156 34.48 24.68C35.09 24.21 35.32 22.11 36.03 21.46C36.7753 20.9221 37.598 20.5006 38.47 20.21C40.47 19.31 41.92 19.47 43.06 17.29C43.44 16.56 43.39 15.64 43.77 14.91C44.06 14.36 45.35 13.81 45.59 13.24C47.22 9.39 41.31 2.46 36.83 3.08C34.23 3.44 35.18 3.99 36.57 4.72C39.68 6.34 41.52 7.77 41.27 11.57C41.16 13.32 39.22 12.99 38.77 13.21C38.61 13.29 38.57 13.51 38.56 13.69C38.6644 14.4687 38.6946 15.2556 38.65 16.04C38.4463 16.7972 38.0461 17.4872 37.49 18.04C36.9761 18.4802 36.3611 18.786 35.7 18.93C35.0189 19.11 34.3118 19.1709 33.61 19.11C32.7729 19.1132 31.9435 18.95 31.17 18.63C30.3889 18.2077 29.7921 17.5109 29.4948 16.6743C29.1974 15.8377 29.2206 14.9205 29.56 14.1C29.8311 13.6014 30.1386 13.1234 30.48 12.67C30.78 12.14 30.18 11.67 31.42 10.91C32.42 10.26 33.55 9.18 30.22 10.17C28.88 10.57 27.41 10.77 27.95 12.17C28.1023 12.4878 28.2132 12.8239 28.28 13.17C28.69 17.26 25.96 16.42 22.65 17.04C22.0161 17.1185 21.3881 17.2388 20.77 17.4C20.22 17.59 19.77 18.04 19.22 18.21C18.09 18.54 16.43 18.21 15.29 18.59C15.1521 18.6375 15.0293 18.7209 14.9344 18.8317C14.8395 18.9424 14.7758 19.0765 14.75 19.22C14.75 19.59 15.75 20.29 14.75 21.16C13.8719 21.6857 12.8488 21.9169 11.83 21.82C10.5382 21.8818 9.25728 21.5581 8.14999 20.89L8.21 20.93ZM12.02 34.25C20.31 33.95 16.92 39.81 12.89 38.33C12.2424 38.0973 11.6376 37.7594 11.1 37.33C10.8249 37.1161 10.6208 36.8242 10.5144 36.4924C10.408 36.1606 10.4043 35.8045 10.5037 35.4705C10.6032 35.1366 10.8011 34.8404 11.0716 34.6209C11.3422 34.4013 11.6727 34.2686 12.02 34.24V34.25Z" fill="url(#paint2_radial_4_5769)"/>
<path fill-rule="evenodd" clip-rule="evenodd" d="M1.06 40.5C0.819313 41.3372 0.652014 42.1938 0.559998 43.06C0.559998 43.35 0.829994 43.58 1.00999 43.81C1.32652 44.2777 1.7146 44.6928 2.16 45.04C2.81 45.49 3.91001 45.29 4.60001 45.48C4.91001 45.56 5.15 45.83 5.45 45.94C5.75 46.05 6.33 46.08 6.75 46.22C6.94 46.29 8.07 46.76 7.36 47.09C7.14 47.19 6.87 47.09 6.64 47.09C6.46006 47.1276 6.29398 47.2141 6.16 47.34C5.89 47.63 5.76001 48.03 5.49001 48.34C5.22001 48.65 4.67001 48.34 4.49001 48.14C4.05815 47.6899 3.69126 47.1816 3.39999 46.63C3.26254 47.011 3.17188 47.4072 3.13 47.81C3.05195 48.3094 3.01848 48.8147 3.03 49.32C3.03223 49.3803 3.04772 49.4393 3.07538 49.4929C3.10303 49.5465 3.14218 49.5933 3.19 49.63C4.46551 50.4871 5.818 51.2236 7.23 51.83C7.83738 52.0185 8.45506 52.1721 9.08 52.29C10.76 52.62 10.45 52.18 11.96 51.62C12.7937 51.3122 13.6453 51.0551 14.51 50.85C16.33 50.45 18.21 50.31 20.02 49.85C21.35 49.5 22.6 48.85 23.89 48.42C24.8289 48.0288 25.7907 47.6948 26.77 47.42C27.187 47.3342 27.6196 47.3654 28.02 47.51C28.3209 47.6324 28.5761 47.8456 28.75 48.12C28.8863 48.3595 28.9424 48.6363 28.91 48.91C28.8876 49.1646 28.774 49.4026 28.59 49.58C28.23 49.92 27.72 50.06 27.35 50.37C27.0093 50.6613 26.7098 50.9978 26.46 51.37C26.25 51.66 26.24 52.06 26.01 52.37C25.7714 52.617 25.4811 52.8083 25.16 52.93C24.32 53.29 23.42 53.51 22.57 53.85C22.2732 53.965 21.9885 54.1091 21.72 54.28C21.0257 54.8316 20.2976 55.3392 19.54 55.8C18.9028 56.0596 18.227 56.2117 17.54 56.25C16.27 56.39 14.99 56.37 13.72 56.47C12.8 56.55 11.85 56.93 10.95 56.53C10.6046 57.6 10.5528 58.7431 10.8 59.84C10.97 60.45 11.65 60.84 12.2 61.13C12.762 61.3928 13.3633 61.5617 13.98 61.63C15.08 61.82 16.21 61.83 17.31 62.04C17.8106 62.1563 18.2968 62.3273 18.76 62.55C19.29 62.79 19.76 63.12 20.29 63.38C20.7775 63.6614 21.2856 63.9054 21.81 64.11C22.2652 64.2854 22.7436 64.3932 23.23 64.43C23.9217 64.4432 24.6136 64.4065 25.3 64.32C26 64.26 26.7 64.18 27.4 64.07C27.7 64.07 27.99 63.91 28.29 63.85C29.38 63.62 30.49 63.47 31.57 63.2C32.3768 62.9988 33.1714 62.7517 33.95 62.46C35.18 62.03 36.39 61.55 37.6 61.07C39.35 60.38 41.1 59.7 42.83 58.96C43.4 58.7142 43.9543 58.4337 44.49 58.12C46.22 57.12 47.96 56.12 49.64 55.03C50.92 54.2033 52.16 53.3167 53.36 52.37C54.46 51.53 55.52 50.62 56.55 49.69C57.58 48.76 58.28 48.04 59.13 47.19C59.41 46.91 59.62 46.56 59.92 46.31C59.97 46.31 60.05 46.31 60.07 46.42C60.29 47.35 56.94 51.23 56.15 51.9C55.54 52.41 54.89 52.9 54.27 53.39C53.43 54.09 52.62 54.84 51.77 55.53C51.15 56.04 50.53 56.53 49.86 57.01C48.71 57.79 47.51 58.47 46.3 59.29C45.45 59.87 44.52 60.59 43.7 61.12C43.0685 61.4874 42.3976 61.7826 41.7 62C40.7 62.4 39.7 62.86 38.64 63.22C38.04 63.42 37.42 63.51 36.82 63.68C35.82 63.95 35.1 64.23 34.1 64.42C36 64.62 37.1 65.19 38.26 64.66C38.74 64.45 39.12 64.05 39.6 63.86C40.3565 63.5717 41.1359 63.3476 41.93 63.19C43.93 62.76 46.87 62.28 47.93 61.61C48.56 61.21 48.93 60.61 49.51 60.12C49.94 59.78 50.46 59.57 50.91 59.26C52.5328 58.2412 54.0415 57.0511 55.41 55.71C56.89 54.09 57.83 52.05 59.13 50.29C60.21 48.82 61.8 47.6 62.53 45.82C62.778 44.9 62.9651 43.9646 63.09 43.02C63.2851 42.2231 63.546 41.4438 63.87 40.69C65.23 37.69 65.68 37.85 66.07 33.99C66.1704 33.0959 66.13 32.1916 65.95 31.31C65.6959 30.6252 65.3986 29.9572 65.06 29.31C64.8 28.59 64.66 27.82 64.43 27.08C64.28 26.58 64.1 26.08 63.9 25.6C63.7 25.12 63.44 24.6 63.22 24.14C63.4 25.09 63.63 26.03 63.76 26.99C64.0199 28.8614 64.1003 30.7533 64 32.64C63.69 38.36 61.48 42.64 57.49 46.64C56.5713 47.6287 55.5963 48.5636 54.57 49.44C54.0709 49.7974 53.5303 50.0928 52.96 50.32C52.2 50.67 51.41 50.94 50.64 51.32C49.87 51.7 49.06 51.95 48.31 52.32C47.8537 52.6268 47.4163 52.9608 47 53.32C46.53 53.68 46.09 54.09 45.59 54.41C44.9915 54.7818 44.3703 55.1158 43.73 55.41C42.45 56 41.15 56.53 39.84 57.03C38.6805 57.5776 37.4529 57.9677 36.19 58.19C36.04 58.19 35.84 58.19 35.76 58.09C35.68 57.99 35.76 57.84 35.91 57.79C36.9495 57.281 37.952 56.6996 38.91 56.05C39.78 55.45 40.5 54.67 41.36 54.05C42.04 53.57 42.85 53.3 43.52 52.81C44.0158 52.4258 44.4596 51.9787 44.84 51.48C45.57 50.58 46.12 49.54 46.84 48.64C47.2843 48.0657 47.7945 47.5455 48.36 47.09C48.9043 46.687 49.4952 46.3513 50.12 46.09C50.9674 45.8421 51.8018 45.5517 52.62 45.22C53.1486 44.8962 53.5885 44.446 53.9 43.91C54.42 43.08 54.62 42.07 55.12 41.23C55.9148 39.9677 56.7725 38.7462 57.69 37.57C58.38 36.57 59.1 35.69 59.88 34.81C60.104 34.5507 60.3672 34.328 60.66 34.15C60.7846 34.0797 60.9321 34.0617 61.07 34.1C61.32 34.17 61.34 34.51 61.9 34.45C62.77 34.36 63.09 33.12 63.32 32.45C63.597 31.2625 63.7478 30.0491 63.77 28.83C63.77 28.68 63.77 28.48 63.59 28.41C63.41 28.34 63.42 28.49 63.3 28.41C63.18 28.33 63.15 28.26 63.13 28.16C62.94 27.02 62.87 25.87 62.73 24.73C62.6802 24.1462 62.6001 23.5655 62.49 22.99C62.3994 22.644 62.2721 22.3088 62.11 21.99C62.05 21.88 61.98 21.76 61.87 21.74C61.76 21.72 61.76 21.84 61.7 21.88C61.64 21.92 61.58 22.01 61.49 22.02C61.4 22.03 61.18 22.02 61.14 21.96C61.0763 21.7943 61.0261 21.6238 60.99 21.45C60.77 20.4 60.62 19.38 60.38 18.31C60.3274 18.1527 60.284 17.9924 60.25 17.83C60.25 17.83 60.25 17.74 60.31 17.74C60.37 17.74 60.39 17.8 60.42 17.84C60.57 18.11 60.69 18.39 60.83 18.67L61.2 19.4C61.31 19.6 61.38 19.4 61.38 19.4C61.385 19.0246 61.3344 18.6506 61.23 18.29C61.0407 17.5821 60.7966 16.89 60.5 16.22C60.2184 15.2886 59.8845 14.3738 59.5 13.48C58.027 12.1895 56.6376 10.8067 55.34 9.34C54.04 7.69 52.34 4.44 50.84 3.47C50.35 3.15 49.58 3.61 47.72 2.67C46.6245 2.10776 45.5717 1.46604 44.57 0.750003C43.67 0.110003 33.57 -0.249997 30.41 0.240003C30.41 0.700003 31.2 0.840004 31.69 0.850004C32.18 0.860004 32.94 0.710003 33.57 0.670003C33.67 0.670003 33.84 0.620003 33.86 0.720003C33.88 0.820003 33.71 0.860003 33.62 0.920003C33.2318 1.13642 32.8779 1.40941 32.57 1.73C32.28 2.07 32.98 2.03 33.15 2.04C34 2.11 35.46 2.16 35.81 2.18C36.43 2.18 37.06 2.07 37.68 2.18C38.3641 2.25006 39.0363 2.40803 39.68 2.65C40.0925 2.8685 40.4931 3.10884 40.88 3.37C41.5811 3.75648 42.3097 4.09072 43.06 4.37C43.49 4.5 43.97 4.37 44.42 4.5C44.6481 4.5701 44.8718 4.65358 45.09 4.75C45.4327 4.81081 45.7679 4.90802 46.09 5.04C46.4816 5.26815 46.822 5.57452 47.09 5.94C47.353 6.42066 47.5577 6.93091 47.7 7.46C47.91 8.09 47.99 8.75 48.25 9.36C48.4123 9.66422 48.6215 9.94095 48.87 10.18C49.3015 10.6599 49.7769 11.0985 50.29 11.49C50.77 11.81 50.91 11.19 51 11.1C51.027 11.0832 51.0582 11.0742 51.09 11.0742C51.1218 11.0742 51.153 11.0832 51.18 11.1C51.3136 11.1412 51.4297 11.2256 51.51 11.34C51.6498 11.6051 51.7636 11.883 51.85 12.17C52.04 12.69 52 12.68 52.41 13.02C52.82 13.36 52.97 13.46 53.22 13.71C53.4202 13.8717 53.5896 14.0682 53.72 14.29C53.8726 14.5893 53.9804 14.9094 54.04 15.24C54.11 15.57 54.04 15.91 54.12 16.24C54.1479 16.379 54.2022 16.5114 54.28 16.63C54.46 16.9 54.72 17.12 54.88 17.4C55.04 17.68 55.09 18.07 55.25 18.4C55.41 18.73 55.8 19.05 55.89 19.45C55.9857 20.4918 55.7625 21.538 55.25 22.45C54.9383 22.8972 54.5833 23.3126 54.19 23.69C53.76 24.2 53.26 24.69 52.88 25.21C52.6572 25.5991 52.4698 26.0074 52.32 26.43C51.94 27.25 51.66 28.12 51.21 28.9C50.844 29.5007 50.4149 30.0605 49.93 30.57C49.386 31.1823 48.7977 31.7538 48.17 32.28C47.41 32.93 46.57 33.46 45.79 34.09C45.01 34.72 44.39 35.34 43.65 35.9C42.8387 36.5331 41.9906 37.1174 41.11 37.65C40.3896 38.0252 39.6484 38.3591 38.89 38.65C38.36 38.88 37.8 39.04 37.27 39.28C36.74 39.52 36.43 39.72 36.02 39.95C35.32 40.33 34.64 40.74 33.93 41.11C33.2452 41.4991 32.541 41.8529 31.82 42.17C31.3829 42.3364 30.9255 42.4441 30.46 42.49C30.2803 42.5183 30.0964 42.4829 29.94 42.39C29.8959 42.3531 29.8658 42.3021 29.8549 42.2457C29.8439 42.1892 29.8528 42.1307 29.88 42.08C30.026 41.874 30.2222 41.7088 30.45 41.6C31.25 41.14 32.1 40.76 32.93 40.35C33.76 39.94 34.77 39.51 35.66 39.04C36.3278 38.6864 36.9695 38.2853 37.58 37.84C38.3835 37.2685 39.1424 36.6367 39.85 35.95C40.85 34.95 41.73 33.81 42.71 32.77C43.16 32.28 43.65 31.82 44.14 31.36C44.63 30.9 45.14 30.49 45.66 30.01C46.18 29.53 46.86 28.75 47.41 28.07C47.9045 27.4624 48.3652 26.8281 48.79 26.17C49.2083 25.6068 49.545 24.9874 49.79 24.33C50.1039 23.0134 50.3277 21.677 50.46 20.33C50.5743 19.6692 50.6378 19.0005 50.65 18.33C50.65 17.71 50.42 17.1 50.43 16.48C50.4698 16.1664 50.554 15.86 50.68 15.57C50.7758 15.3606 50.8528 15.1431 50.91 14.92C50.8975 14.2864 50.8374 13.6546 50.73 13.03C50.6835 12.8517 50.5948 12.6873 50.4714 12.5505C50.348 12.4136 50.1936 12.3084 50.0211 12.2437C49.8486 12.1791 49.6631 12.1568 49.4802 12.1787C49.2972 12.2007 49.1223 12.2663 48.97 12.37C48.6516 12.6288 48.4182 12.9771 48.3 13.37C48.18 13.77 48.17 14.19 48.06 14.59C47.83 15.45 47.54 15.43 46.7 15.7C46.06 15.91 45.37 15.98 44.7 16.2C44.4858 16.2639 44.2993 16.3977 44.17 16.58C44.0542 16.8096 43.9926 17.0628 43.99 17.32C44.0102 17.6163 44.0102 17.9137 43.99 18.21C43.79 19.01 42.84 19.61 42.27 20.15C42.01 20.39 41.83 20.72 41.52 20.88C41.0648 21.0911 40.5841 21.2424 40.09 21.33C39.51 21.47 38.9 21.49 38.32 21.64C37.9315 21.7394 37.5581 21.8908 37.21 22.09C36.9691 22.2222 36.7581 22.4026 36.59 22.62C36.5266 22.7396 36.5022 22.8759 36.52 23.01C36.5242 23.0914 36.556 23.169 36.61 23.23C36.68 23.29 36.8 23.28 36.86 23.35C36.92 23.42 36.86 24.01 36.62 24.24C36.38 24.47 36.21 24.35 36.06 24.49C35.91 24.63 35.74 25.05 35.54 25.28C34.7387 26.2543 33.6134 26.9074 32.37 27.12C31.77 27.17 31.16 27.06 30.56 27.06C29.81 27.06 29.05 27.06 28.3 27.12C27.15 27.19 26.35 27.12 25.72 28.2C25.5928 28.4977 25.4493 28.7881 25.29 29.07C25.169 29.2146 25.0095 29.3221 24.83 29.38C24.5937 29.4596 24.3485 29.5099 24.1 29.53C23.7656 29.5215 23.431 29.5416 23.1 29.59C22.9328 29.6621 22.7953 29.7891 22.71 29.95C22.5861 30.1065 22.5191 30.3004 22.52 30.5C22.52 30.7 22.8 30.81 22.86 31C22.92 31.19 22.79 31.33 22.86 31.48C22.9109 31.6493 23.0163 31.797 23.16 31.9C23.3128 31.9588 23.4768 31.9827 23.64 31.97C24.083 31.945 24.527 31.945 24.97 31.97C25.0748 31.9842 25.1717 32.0334 25.245 32.1095C25.3184 32.1856 25.364 32.2842 25.3744 32.3895C25.3848 32.4947 25.3594 32.6003 25.3024 32.6893C25.2453 32.7783 25.1599 32.8455 25.06 32.88C24.4387 32.9883 23.8104 33.0518 23.18 33.07C23.03 33.07 22.87 33 22.72 33.07C22.35 33.15 22.01 33.41 21.63 33.46C21.25 33.51 20.72 33.27 20.28 33.35C19.8511 33.5043 19.4335 33.6881 19.03 33.9C18.7125 33.9454 18.3985 34.0122 18.09 34.1C17.09 34.55 17.17 35.56 18.04 35.75C18.91 35.94 19.57 35.75 20.32 35.88C22.2171 36.409 24.219 36.4365 26.13 35.96C26.46 35.87 26.67 35.53 27 35.42C27.33 35.31 27.85 35.42 28.23 35.24C28.61 35.06 28.69 34.67 29.01 34.5C29.362 34.3583 29.7324 34.2674 30.11 34.23C30.68 34.1 31.26 33.96 31.84 33.84C32.24 33.76 33.07 33.65 33 34.33C32.9733 34.6341 32.8701 34.9265 32.7 35.18C32.4287 35.5701 32.0901 35.9087 31.7 36.18C31.27 36.48 30.7 36.61 30.27 36.89C29.98 37.08 29.79 37.42 29.47 37.56C28.6325 37.8947 27.778 38.1851 26.91 38.43C26.34 38.62 25.77 38.78 25.22 39.01C25.0451 39.0977 24.8807 39.2051 24.73 39.33C24.36 39.6 24.01 39.9 23.63 40.14C23.3181 40.3518 22.9825 40.5263 22.63 40.66C21.8 40.92 20.95 41.09 20.11 41.27C19.59 41.38 19.06 41.42 18.54 41.52C18.02 41.62 17.28 41.8 16.65 41.97C16.02 42.14 15.65 42.26 15.19 42.42C14.73 42.58 14.49 42.72 14.12 42.82C13.8217 42.8933 13.5169 42.9369 13.21 42.95C12.38 43.02 11.54 43.06 10.71 43.1C10.1 43.1 9.49 43.17 8.88 43.18C8.45762 43.2201 8.03238 43.2201 7.61 43.18C6.82 43.06 6.05 42.82 5.27 42.63C4.77 42.51 4.27 42.37 3.78 42.24C3.459 42.1868 3.1417 42.1133 2.83 42.02C2.5381 41.9415 2.2634 41.8093 2.02 41.63C1.67821 41.2994 1.36384 40.9415 1.08 40.56L1.06 40.5ZM9.8 34.75C9.57961 34.9741 9.43305 35.2602 9.38 35.57C9.22001 36.9 11.38 37.81 12.71 38.15C13.37 38.32 13.71 38.27 14.82 37.72C14.98 37.63 15.22 37.63 15.31 37.48C15.51 37.16 15.48 36.74 15.64 36.4C15.8 36.06 16.05 35.92 16.18 35.63C16.212 35.5628 16.2286 35.4894 16.2286 35.415C16.2286 35.3406 16.212 35.2672 16.18 35.2C16.0659 34.9569 15.8765 34.7571 15.64 34.63C14.75 34.29 10.58 33.94 9.8 34.75Z" fill="url(#paint3_radial_4_5769)"/>
<path style="mix-blend-mode:multiply" fill-rule="evenodd" clip-rule="evenodd" d="M1.06 40.5C0.819313 41.3372 0.652014 42.1938 0.559998 43.06C0.559998 43.35 0.829994 43.58 1.00999 43.81C1.32652 44.2777 1.7146 44.6928 2.16 45.04C2.81 45.49 3.91001 45.29 4.60001 45.48C4.91001 45.56 5.15 45.83 5.45 45.94C5.75 46.05 6.33 46.08 6.75 46.22C6.94 46.29 8.07 46.76 7.36 47.09C7.14 47.19 6.87 47.09 6.64 47.09C6.46006 47.1276 6.29398 47.2141 6.16 47.34C5.89 47.63 5.76001 48.03 5.49001 48.34C5.22001 48.65 4.67001 48.34 4.49001 48.14C4.05815 47.6899 3.69126 47.1816 3.39999 46.63C3.26254 47.011 3.17188 47.4072 3.13 47.81C3.05195 48.3094 3.01848 48.8147 3.03 49.32C3.03223 49.3803 3.04772 49.4393 3.07538 49.4929C3.10303 49.5465 3.14218 49.5933 3.19 49.63C4.46551 50.4871 5.818 51.2236 7.23 51.83C7.83738 52.0185 8.45506 52.1721 9.08 52.29C10.76 52.62 10.45 52.18 11.96 51.62C12.7937 51.3122 13.6453 51.0551 14.51 50.85C16.33 50.45 18.21 50.31 20.02 49.85C21.35 49.5 22.6 48.85 23.89 48.42C24.8289 48.0288 25.7907 47.6948 26.77 47.42C27.187 47.3342 27.6196 47.3654 28.02 47.51C28.3209 47.6324 28.5761 47.8456 28.75 48.12C28.8863 48.3595 28.9424 48.6363 28.91 48.91C28.8876 49.1646 28.774 49.4026 28.59 49.58C28.23 49.92 27.72 50.06 27.35 50.37C27.0093 50.6613 26.7098 50.9978 26.46 51.37C26.25 51.66 26.24 52.06 26.01 52.37C25.7714 52.617 25.4811 52.8083 25.16 52.93C24.32 53.29 23.42 53.51 22.57 53.85C22.2732 53.965 21.9885 54.1091 21.72 54.28C21.0257 54.8316 20.2976 55.3392 19.54 55.8C18.9028 56.0596 18.227 56.2117 17.54 56.25C16.27 56.39 14.99 56.37 13.72 56.47C12.8 56.55 11.85 56.93 10.95 56.53C10.6046 57.6 10.5528 58.7431 10.8 59.84C10.97 60.45 11.65 60.84 12.2 61.13C12.762 61.3928 13.3633 61.5617 13.98 61.63C15.08 61.82 16.21 61.83 17.31 62.04C17.8106 62.1563 18.2968 62.3273 18.76 62.55C19.29 62.79 19.76 63.12 20.29 63.38C20.7775 63.6614 21.2856 63.9054 21.81 64.11C22.2652 64.2854 22.7436 64.3932 23.23 64.43C23.9217 64.4432 24.6136 64.4065 25.3 64.32C26 64.26 26.7 64.18 27.4 64.07C27.7 64.07 27.99 63.91 28.29 63.85C29.38 63.62 30.49 63.47 31.57 63.2C32.3768 62.9988 33.1714 62.7517 33.95 62.46C35.18 62.03 36.39 61.55 37.6 61.07C39.35 60.38 41.1 59.7 42.83 58.96C43.4 58.7142 43.9543 58.4337 44.49 58.12C46.22 57.12 47.96 56.12 49.64 55.03C50.92 54.2033 52.16 53.3167 53.36 52.37C54.46 51.53 55.52 50.62 56.55 49.69C57.58 48.76 58.28 48.04 59.13 47.19C59.41 46.91 59.62 46.56 59.92 46.31C59.97 46.31 60.05 46.31 60.07 46.42C60.29 47.35 56.94 51.23 56.15 51.9C55.54 52.41 54.89 52.9 54.27 53.39C53.43 54.09 52.62 54.84 51.77 55.53C51.15 56.04 50.53 56.53 49.86 57.01C48.71 57.79 47.51 58.47 46.3 59.29C45.45 59.87 44.52 60.59 43.7 61.12C43.0685 61.4874 42.3976 61.7826 41.7 62C40.7 62.4 39.7 62.86 38.64 63.22C38.04 63.42 37.42 63.51 36.82 63.68C35.82 63.95 35.1 64.23 34.1 64.42C36 64.62 37.1 65.19 38.26 64.66C38.74 64.45 39.12 64.05 39.6 63.86C40.3565 63.5717 41.1359 63.3476 41.93 63.19C43.93 62.76 46.87 62.28 47.93 61.61C48.56 61.21 48.93 60.61 49.51 60.12C49.94 59.78 50.46 59.57 50.91 59.26C52.5328 58.2412 54.0415 57.0511 55.41 55.71C56.89 54.09 57.83 52.05 59.13 50.29C60.21 48.82 61.8 47.6 62.53 45.82C62.778 44.9 62.9651 43.9646 63.09 43.02C63.2851 42.2231 63.546 41.4438 63.87 40.69C65.23 37.69 65.68 37.85 66.07 33.99C66.1704 33.0959 66.13 32.1916 65.95 31.31C65.6959 30.6252 65.3986 29.9572 65.06 29.31C64.8 28.59 64.66 27.82 64.43 27.08C64.28 26.58 64.1 26.08 63.9 25.6C63.7 25.12 63.44 24.6 63.22 24.14C63.4 25.09 63.63 26.03 63.76 26.99C64.0199 28.8614 64.1003 30.7533 64 32.64C63.69 38.36 61.48 42.64 57.49 46.64C56.5713 47.6287 55.5963 48.5636 54.57 49.44C54.0709 49.7974 53.5303 50.0928 52.96 50.32C52.2 50.67 51.41 50.94 50.64 51.32C49.87 51.7 49.06 51.95 48.31 52.32C47.8537 52.6268 47.4163 52.9608 47 53.32C46.53 53.68 46.09 54.09 45.59 54.41C44.9915 54.7818 44.3703 55.1158 43.73 55.41C42.45 56 41.15 56.53 39.84 57.03C38.6805 57.5776 37.4529 57.9677 36.19 58.19C36.04 58.19 35.84 58.19 35.76 58.09C35.68 57.99 35.76 57.84 35.91 57.79C36.9495 57.281 37.952 56.6996 38.91 56.05C39.78 55.45 40.5 54.67 41.36 54.05C42.04 53.57 42.85 53.3 43.52 52.81C44.0158 52.4258 44.4596 51.9787 44.84 51.48C45.57 50.58 46.12 49.54 46.84 48.64C47.2843 48.0657 47.7945 47.5455 48.36 47.09C48.9043 46.687 49.4952 46.3513 50.12 46.09C50.9674 45.8421 51.8018 45.5517 52.62 45.22C53.1486 44.8962 53.5885 44.446 53.9 43.91C54.42 43.08 54.62 42.07 55.12 41.23C55.9148 39.9677 56.7725 38.7462 57.69 37.57C58.38 36.57 59.1 35.69 59.88 34.81C60.104 34.5507 60.3672 34.328 60.66 34.15C60.7846 34.0797 60.9321 34.0617 61.07 34.1C61.32 34.17 61.34 34.51 61.9 34.45C62.77 34.36 63.09 33.12 63.32 32.45C63.597 31.2625 63.7478 30.0491 63.77 28.83C63.77 28.68 63.77 28.48 63.59 28.41C63.41 28.34 63.42 28.49 63.3 28.41C63.18 28.33 63.15 28.26 63.13 28.16C62.94 27.02 62.87 25.87 62.73 24.73C62.6802 24.1462 62.6001 23.5655 62.49 22.99C62.3994 22.644 62.2721 22.3088 62.11 21.99C62.05 21.88 61.98 21.76 61.87 21.74C61.76 21.72 61.76 21.84 61.7 21.88C61.64 21.92 61.58 22.01 61.49 22.02C61.4 22.03 61.18 22.02 61.14 21.96C61.0763 21.7943 61.0261 21.6238 60.99 21.45C60.77 20.4 60.62 19.38 60.38 18.31C60.3274 18.1527 60.284 17.9924 60.25 17.83C60.25 17.83 60.25 17.74 60.31 17.74C60.37 17.74 60.39 17.8 60.42 17.84C60.57 18.11 60.69 18.39 60.83 18.67L61.2 19.4C61.31 19.6 61.38 19.4 61.38 19.4C61.385 19.0246 61.3344 18.6506 61.23 18.29C61.0407 17.5821 60.7966 16.89 60.5 16.22C60.2184 15.2886 59.8845 14.3738 59.5 13.48C58.027 12.1895 56.6376 10.8067 55.34 9.34C54.04 7.69 52.34 4.44 50.84 3.47C50.35 3.15 49.58 3.61 47.72 2.67C46.6245 2.10776 45.5717 1.46604 44.57 0.750003C43.67 0.110003 33.57 -0.249997 30.41 0.240003C30.41 0.700003 31.2 0.840004 31.69 0.850004C32.18 0.860004 32.94 0.710003 33.57 0.670003C33.67 0.670003 33.84 0.620003 33.86 0.720003C33.88 0.820003 33.71 0.860003 33.62 0.920003C33.2318 1.13642 32.8779 1.40941 32.57 1.73C32.28 2.07 32.98 2.03 33.15 2.04C34 2.11 35.46 2.16 35.81 2.18C36.43 2.18 37.06 2.07 37.68 2.18C38.3641 2.25006 39.0363 2.40803 39.68 2.65C40.0925 2.8685 40.4931 3.10884 40.88 3.37C41.5811 3.75648 42.3097 4.09072 43.06 4.37C43.49 4.5 43.97 4.37 44.42 4.5C44.6481 4.5701 44.8718 4.65358 45.09 4.75C45.4327 4.81081 45.7679 4.90802 46.09 5.04C46.4816 5.26815 46.822 5.57452 47.09 5.94C47.353 6.42066 47.5577 6.93091 47.7 7.46C47.91 8.09 47.99 8.75 48.25 9.36C48.4123 9.66422 48.6215 9.94095 48.87 10.18C49.3015 10.6599 49.7769 11.0985 50.29 11.49C50.77 11.81 50.91 11.19 51 11.1C51.027 11.0832 51.0582 11.0742 51.09 11.0742C51.1218 11.0742 51.153 11.0832 51.18 11.1C51.3136 11.1412 51.4297 11.2256 51.51 11.34C51.6498 11.6051 51.7636 11.883 51.85 12.17C52.04 12.69 52 12.68 52.41 13.02C52.82 13.36 52.97 13.46 53.22 13.71C53.4202 13.8717 53.5896 14.0682 53.72 14.29C53.8726 14.5893 53.9804 14.9094 54.04 15.24C54.11 15.57 54.04 15.91 54.12 16.24C54.1479 16.379 54.2022 16.5114 54.28 16.63C54.46 16.9 54.72 17.12 54.88 17.4C55.04 17.68 55.09 18.07 55.25 18.4C55.41 18.73 55.8 19.05 55.89 19.45C55.9857 20.4918 55.7625 21.538 55.25 22.45C54.9383 22.8972 54.5833 23.3126 54.19 23.69C53.76 24.2 53.26 24.69 52.88 25.21C52.6572 25.5991 52.4698 26.0074 52.32 26.43C51.94 27.25 51.66 28.12 51.21 28.9C50.844 29.5007 50.4149 30.0605 49.93 30.57C49.386 31.1823 48.7977 31.7538 48.17 32.28C47.41 32.93 46.57 33.46 45.79 34.09C45.01 34.72 44.39 35.34 43.65 35.9C42.8387 36.5331 41.9906 37.1174 41.11 37.65C40.3896 38.0252 39.6484 38.3591 38.89 38.65C38.36 38.88 37.8 39.04 37.27 39.28C36.74 39.52 36.43 39.72 36.02 39.95C35.32 40.33 34.64 40.74 33.93 41.11C33.2452 41.4991 32.541 41.8529 31.82 42.17C31.3829 42.3364 30.9255 42.4441 30.46 42.49C30.2803 42.5183 30.0964 42.4829 29.94 42.39C29.8959 42.3531 29.8658 42.3021 29.8549 42.2457C29.8439 42.1892 29.8528 42.1307 29.88 42.08C30.026 41.874 30.2222 41.7088 30.45 41.6C31.25 41.14 32.1 40.76 32.93 40.35C33.76 39.94 34.77 39.51 35.66 39.04C36.3278 38.6864 36.9695 38.2853 37.58 37.84C38.3835 37.2685 39.1424 36.6367 39.85 35.95C40.85 34.95 41.73 33.81 42.71 32.77C43.16 32.28 43.65 31.82 44.14 31.36C44.63 30.9 45.14 30.49 45.66 30.01C46.18 29.53 46.86 28.75 47.41 28.07C47.9045 27.4624 48.3652 26.8281 48.79 26.17C49.2083 25.6068 49.545 24.9874 49.79 24.33C50.1039 23.0134 50.3277 21.677 50.46 20.33C50.5743 19.6692 50.6378 19.0005 50.65 18.33C50.65 17.71 50.42 17.1 50.43 16.48C50.4698 16.1664 50.554 15.86 50.68 15.57C50.7758 15.3606 50.8528 15.1431 50.91 14.92C50.8975 14.2864 50.8374 13.6546 50.73 13.03C50.6835 12.8517 50.5948 12.6873 50.4714 12.5505C50.348 12.4136 50.1936 12.3084 50.0211 12.2437C49.8486 12.1791 49.6631 12.1568 49.4802 12.1787C49.2972 12.2007 49.1223 12.2663 48.97 12.37C48.6516 12.6288 48.4182 12.9771 48.3 13.37C48.18 13.77 48.17 14.19 48.06 14.59C47.83 15.45 47.54 15.43 46.7 15.7C46.06 15.91 45.37 15.98 44.7 16.2C44.4858 16.2639 44.2993 16.3977 44.17 16.58C44.0542 16.8096 43.9926 17.0628 43.99 17.32C44.0102 17.6163 44.0102 17.9137 43.99 18.21C43.79 19.01 42.84 19.61 42.27 20.15C42.01 20.39 41.83 20.72 41.52 20.88C41.0648 21.0911 40.5841 21.2424 40.09 21.33C39.51 21.47 38.9 21.49 38.32 21.64C37.9315 21.7394 37.5581 21.8908 37.21 22.09C36.9691 22.2222 36.7581 22.4026 36.59 22.62C36.5266 22.7396 36.5022 22.8759 36.52 23.01C36.5242 23.0914 36.556 23.169 36.61 23.23C36.68 23.29 36.8 23.28 36.86 23.35C36.92 23.42 36.86 24.01 36.62 24.24C36.38 24.47 36.21 24.35 36.06 24.49C35.91 24.63 35.74 25.05 35.54 25.28C34.7387 26.2543 33.6134 26.9074 32.37 27.12C31.77 27.17 31.16 27.06 30.56 27.06C29.81 27.06 29.05 27.06 28.3 27.12C27.15 27.19 26.35 27.12 25.72 28.2C25.5928 28.4977 25.4493 28.7881 25.29 29.07C25.169 29.2146 25.0095 29.3221 24.83 29.38C24.5937 29.4596 24.3485 29.5099 24.1 29.53C23.7656 29.5215 23.431 29.5416 23.1 29.59C22.9328 29.6621 22.7953 29.7891 22.71 29.95C22.5861 30.1065 22.5191 30.3004 22.52 30.5C22.52 30.7 22.8 30.81 22.86 31C22.92 31.19 22.79 31.33 22.86 31.48C22.9109 31.6493 23.0163 31.797 23.16 31.9C23.3128 31.9588 23.4768 31.9827 23.64 31.97C24.083 31.945 24.527 31.945 24.97 31.97C25.0748 31.9842 25.1717 32.0334 25.245 32.1095C25.3184 32.1856 25.364 32.2842 25.3744 32.3895C25.3848 32.4947 25.3594 32.6003 25.3024 32.6893C25.2453 32.7783 25.1599 32.8455 25.06 32.88C24.4387 32.9883 23.8104 33.0518 23.18 33.07C23.03 33.07 22.87 33 22.72 33.07C22.35 33.15 22.01 33.41 21.63 33.46C21.25 33.51 20.72 33.27 20.28 33.35C19.8511 33.5043 19.4335 33.6881 19.03 33.9C18.7125 33.9454 18.3985 34.0122 18.09 34.1C17.09 34.55 17.17 35.56 18.04 35.75C18.91 35.94 19.57 35.75 20.32 35.88C22.2171 36.409 24.219 36.4365 26.13 35.96C26.46 35.87 26.67 35.53 27 35.42C27.33 35.31 27.85 35.42 28.23 35.24C28.61 35.06 28.69 34.67 29.01 34.5C29.362 34.3583 29.7324 34.2674 30.11 34.23C30.68 34.1 31.26 33.96 31.84 33.84C32.24 33.76 33.07 33.65 33 34.33C32.9733 34.6341 32.8701 34.9265 32.7 35.18C32.4287 35.5701 32.0901 35.9087 31.7 36.18C31.27 36.48 30.7 36.61 30.27 36.89C29.98 37.08 29.79 37.42 29.47 37.56C28.6325 37.8947 27.778 38.1851 26.91 38.43C26.34 38.62 25.77 38.78 25.22 39.01C25.0451 39.0977 24.8807 39.2051 24.73 39.33C24.36 39.6 24.01 39.9 23.63 40.14C23.3181 40.3518 22.9825 40.5263 22.63 40.66C21.8 40.92 20.95 41.09 20.11 41.27C19.59 41.38 19.06 41.42 18.54 41.52C18.02 41.62 17.28 41.8 16.65 41.97C16.02 42.14 15.65 42.26 15.19 42.42C14.73 42.58 14.49 42.72 14.12 42.82C13.8217 42.8933 13.5169 42.9369 13.21 42.95C12.38 43.02 11.54 43.06 10.71 43.1C10.1 43.1 9.49 43.17 8.88 43.18C8.45762 43.2201 8.03238 43.2201 7.61 43.18C6.82 43.06 6.05 42.82 5.27 42.63C4.77 42.51 4.27 42.37 3.78 42.24C3.459 42.1868 3.1417 42.1133 2.83 42.02C2.5381 41.9415 2.2634 41.8093 2.02 41.63C1.67821 41.2994 1.36384 40.9415 1.08 40.56L1.06 40.5ZM9.8 34.75C9.57961 34.9741 9.43305 35.2602 9.38 35.57C9.22001 36.9 11.38 37.81 12.71 38.15C13.37 38.32 13.71 38.27 14.82 37.72C14.98 37.63 15.22 37.63 15.31 37.48C15.51 37.16 15.48 36.74 15.64 36.4C15.8 36.06 16.05 35.92 16.18 35.63C16.212 35.5628 16.2286 35.4894 16.2286 35.415C16.2286 35.3406 16.212 35.2672 16.18 35.2C16.0659 34.9569 15.8765 34.7571 15.64 34.63C14.75 34.29 10.58 33.94 9.8 34.75Z" fill="url(#paint4_radial_4_5769)"/>
<path style="mix-blend-mode:multiply" fill-rule="evenodd" clip-rule="evenodd" d="M10.13 46.69C12.341 46.0181 14.6233 45.6086 16.93 45.47C18.4782 45.5031 20.0271 45.453 21.57 45.32C24.04 44.75 25.57 43.63 27.74 42.64C28.55 42.27 29.59 41.83 30.53 41.47C31.31 41.04 32.12 40.67 32.91 40.28C33.7 39.89 34.75 39.44 35.64 38.97C36.3078 38.6164 36.9495 38.2153 37.56 37.77C38.3635 37.1985 39.1224 36.5667 39.83 35.88C40.83 34.88 41.71 33.74 42.69 32.7C43.14 32.21 43.63 31.75 44.12 31.29C44.61 30.83 45.12 30.42 45.64 29.94C46.16 29.46 46.84 28.68 47.39 28C47.8845 27.3924 48.3451 26.7581 48.77 26.1C49.1883 25.5368 49.525 24.9174 49.77 24.26C50.0839 22.9434 50.3077 21.607 50.44 20.26C50.5543 19.5992 50.6178 18.9305 50.63 18.26C50.63 17.64 50.4 17.03 50.41 16.41C50.4498 16.0964 50.534 15.79 50.66 15.5C50.7559 15.2906 50.8328 15.0731 50.89 14.85C50.8776 14.2164 50.8174 13.5846 50.71 12.96C50.6531 12.7528 50.5397 12.5655 50.3826 12.4189C50.2255 12.2724 50.0307 12.1723 49.82 12.13C49.9198 12.2179 50.0072 12.3188 50.08 12.43C50.1588 12.6027 50.1997 12.7902 50.2 12.98C50.2149 13.2382 50.1775 13.4967 50.09 13.74C49.9576 14.0434 49.7825 14.3262 49.57 14.58C49.29 14.94 48.85 15.18 48.65 15.58C48.522 15.898 48.501 16.249 48.59 16.58C48.67 16.96 48.97 17.25 49.09 17.58C49.2585 17.9747 49.3403 18.401 49.33 18.83C49.2594 19.3978 49.1009 19.9511 48.86 20.47C48.67 20.91 48.3 21.25 48.14 21.69C47.87 22.44 47.89 23.28 47.57 24.02C47.1894 24.9265 46.6882 25.7775 46.08 26.55C45.3565 27.4485 44.5385 28.2665 43.64 28.99C42.34 30.06 40.75 30.75 39.53 31.91C38.62 32.78 38.21 34.06 37.35 34.98C36.7001 35.6597 35.9476 36.2333 35.12 36.68C34.6 36.97 33.94 36.93 33.42 37.22C32.18 37.9 31.08 38.83 29.88 39.57C28.88 40.2 27.82 40.8 26.75 41.33C25.7124 41.8527 24.6359 42.294 23.53 42.65C22.4091 42.9248 21.2741 43.1384 20.13 43.29C18.88 43.53 17.6 43.68 16.36 43.98C15.36 44.23 14.36 44.67 13.36 44.98C12.9057 45.122 12.4353 45.206 11.96 45.23C11.3459 45.1851 10.7349 45.105 10.13 44.99C9.8306 44.9303 9.52465 44.9101 9.22 44.93C8.85394 45.0448 8.49638 45.1851 8.14999 45.35C7.9595 45.428 7.75584 45.4687 7.55 45.47C6.97279 45.4366 6.40187 45.3325 5.85001 45.16C5.47001 45.02 4.08001 44.16 3.99001 44.16C3.63001 44.16 3.29001 44.42 2.93001 44.42C2.72789 44.4214 2.52637 44.3979 2.33 44.35C2.15525 44.3104 1.98693 44.2465 1.83 44.16C1.40532 43.8013 1.06405 43.3542 0.830002 42.85C0.755022 42.4266 0.755022 41.9934 0.830002 41.57C0.69586 42.0462 0.615355 42.5359 0.589996 43.03C0.589996 43.32 0.860009 43.55 1.04001 43.78C1.35654 44.2477 1.7446 44.6628 2.19 45.01C2.36168 45.128 2.55564 45.2096 2.75999 45.25C3.37999 45.39 4.12 45.31 4.63 45.45C4.94 45.53 5.18 45.8 5.48 45.91C5.78 46.02 6.36 46.05 6.78 46.19C6.97 46.26 8.1 46.73 7.39 47.06C7.17 47.16 6.9 47.06 6.67 47.06C6.49006 47.0976 6.32398 47.1841 6.19 47.31L6.06 47.47C6.28867 47.3197 6.55637 47.2398 6.83 47.24C7.27 47.24 7.83 47.44 8.23 47.41C9.07 47.34 9.44 46.9 10.16 46.63L10.13 46.69Z" fill="url(#paint5_radial_4_5769)"/>
<path style="mix-blend-mode:multiply" fill-rule="evenodd" clip-rule="evenodd" d="M12.41 37.26C11.8405 37.3081 11.268 37.2134 10.7442 36.9847C10.2204 36.756 9.76187 36.4004 9.41 35.95C9.64 37.07 11.5 37.84 12.72 38.15C13.38 38.32 13.72 38.27 14.83 37.72C14.99 37.63 15.23 37.63 15.32 37.48C15.52 37.16 15.49 36.74 15.65 36.4C15.81 36.06 16.06 35.92 16.19 35.63C16.222 35.5628 16.2386 35.4894 16.2386 35.415C16.2386 35.3406 16.222 35.2672 16.19 35.2C16.0759 34.9569 15.8865 34.7571 15.65 34.63H15.57C15.6107 34.682 15.6443 34.7392 15.67 34.8C15.693 34.9155 15.6826 35.0351 15.6401 35.1449C15.5976 35.2547 15.5248 35.3501 15.43 35.42C15.07 35.63 14.26 35.66 13.96 36.04C13.8 36.24 13.96 36.91 13.6 37.04C13.2284 37.2037 12.826 37.2856 12.42 37.28L12.41 37.26Z" fill="url(#paint6_radial_4_5769)"/>
<path style="mix-blend-mode:multiply" fill-rule="evenodd" clip-rule="evenodd" d="M24.7 34.96C24.7 35.15 24.87 35.33 24.84 35.53C24.81 35.73 24.71 35.7 24.61 35.74C23.6705 35.9837 22.6941 36.0515 21.73 35.94C21.3 35.84 20.91 35.62 20.48 35.53C20.3219 35.495 20.1581 35.495 20 35.53C19.36 35.63 19 35.72 18.47 35.77C19.07 35.77 19.68 35.77 20.28 35.83C22.1771 36.359 24.179 36.3865 26.09 35.91C26.42 35.82 26.63 35.48 26.96 35.37C27.29 35.26 27.81 35.37 28.19 35.19C28.57 35.01 28.65 34.62 28.97 34.45C29.322 34.3083 29.6924 34.2174 30.07 34.18C30.64 34.05 31.22 33.91 31.8 33.79C32.0704 33.7334 32.3496 33.7334 32.62 33.79C31.4595 33.5949 30.2731 33.6152 29.12 33.85C28.56 33.92 28.12 33.85 28.02 34.38C28.0083 34.4539 27.982 34.5247 27.9425 34.5883C27.903 34.6518 27.8511 34.7068 27.79 34.75C27.6211 34.8383 27.4292 34.8732 27.24 34.85C26.69 34.85 26.17 34.59 25.62 34.54C25.32 34.54 24.77 34.63 24.7 34.97V34.96Z" fill="url(#paint7_radial_4_5769)"/>
<path style="mix-blend-mode:multiply" fill-rule="evenodd" clip-rule="evenodd" d="M25.16 52.9C24.32 53.26 23.42 53.48 22.57 53.82C22.2732 53.935 21.9885 54.0791 21.72 54.25C21.0257 54.8015 20.2976 55.3092 19.54 55.77C18.9028 56.0296 18.227 56.1816 17.54 56.22C16.27 56.36 14.99 56.34 13.72 56.44C12.8 56.52 11.85 56.9 10.95 56.5C10.6046 57.57 10.5528 58.7131 10.8 59.81C10.97 60.42 11.65 60.81 12.2 61.1C12.762 61.3628 13.3633 61.5317 13.98 61.6C15.08 61.79 16.21 61.8 17.31 62.01C17.8106 62.1263 18.2968 62.2973 18.76 62.52C19.29 62.76 19.76 63.09 20.29 63.35C20.7775 63.6313 21.2856 63.8754 21.81 64.08C22.2652 64.2554 22.7436 64.3632 23.23 64.4C23.9217 64.4132 24.6136 64.3765 25.3 64.29C25.93 64.29 26.55 64.17 27.18 64.07H27.4C27.7 64.07 27.99 63.91 28.29 63.85C29.38 63.62 30.49 63.47 31.57 63.2C32.3768 62.9988 33.1714 62.7517 33.95 62.46C35.18 62.03 36.39 61.55 37.6 61.07C39.35 60.38 41.1 59.7 42.83 58.96C43.4 58.7142 43.9543 58.4337 44.49 58.12C46.22 57.12 47.96 56.12 49.64 55.03C50.92 54.2033 52.16 53.3167 53.36 52.37C54.46 51.53 55.52 50.62 56.55 49.69C57.58 48.76 58.28 48.04 59.13 47.19C59.41 46.91 59.62 46.56 59.92 46.31C59.97 46.31 60.05 46.31 60.07 46.42C60.29 47.35 56.94 51.23 56.15 51.9C55.54 52.41 54.89 52.9 54.27 53.39C53.43 54.09 52.62 54.84 51.77 55.53C51.15 56.04 50.53 56.53 49.86 57.01C48.71 57.79 47.51 58.47 46.3 59.29C45.45 59.87 44.52 60.59 43.7 61.12C43.0685 61.4874 42.3976 61.7826 41.7 62C40.7 62.4 39.7 62.86 38.64 63.22C38.04 63.42 37.42 63.51 36.82 63.68C35.82 63.95 35.1 64.23 34.1 64.42C36 64.62 37.1 65.19 38.26 64.66C38.74 64.45 39.12 64.05 39.6 63.86C40.3565 63.5717 41.1359 63.3476 41.93 63.19C43.93 62.76 46.87 62.28 47.93 61.61C48.56 61.21 48.93 60.61 49.51 60.12C49.94 59.78 50.46 59.57 50.91 59.26C52.5328 58.2412 54.0415 57.0511 55.41 55.71C56.89 54.09 57.83 52.05 59.13 50.29C60.21 48.82 61.8 47.6 62.53 45.82C62.778 44.9 62.9651 43.9646 63.09 43.02C63.2851 42.2231 63.546 41.4437 63.87 40.69C65.23 37.69 65.68 37.85 66.07 33.99C66.1704 33.0959 66.13 32.1915 65.95 31.31C65.6959 30.6252 65.3986 29.9572 65.06 29.31C64.8 28.59 64.66 27.82 64.43 27.08C64.28 26.58 64.1 26.08 63.9 25.6C63.7 25.12 63.44 24.6 63.22 24.14C63.4 25.09 63.63 26.03 63.76 26.99C64.0199 28.8614 64.1003 30.7533 64 32.64C63.69 38.36 61.48 42.64 57.49 46.64C56.5713 47.6287 55.5963 48.5636 54.57 49.44C54.0709 49.7974 53.5303 50.0928 52.96 50.32C52.2 50.67 51.41 50.94 50.64 51.32C49.87 51.7 49.06 51.95 48.31 52.32C47.8537 52.6268 47.4163 52.9608 47 53.32C46.53 53.68 46.09 54.09 45.59 54.41C44.9915 54.7818 44.3703 55.1158 43.73 55.41C42.45 56 41.15 56.53 39.84 57.03C38.6805 57.5776 37.4529 57.9677 36.19 58.19C36.04 58.19 35.84 58.19 35.76 58.09C35.68 57.99 35.76 57.84 35.91 57.79C36.9495 57.281 37.952 56.6996 38.91 56.05C39.78 55.45 40.5 54.67 41.36 54.05C42.04 53.57 42.85 53.3 43.52 52.81C44.0158 52.4258 44.4596 51.9787 44.84 51.48C45.57 50.58 46.12 49.54 46.84 48.64C47.2843 48.0657 47.7945 47.5455 48.36 47.09C48.9043 46.687 49.4952 46.3513 50.12 46.09C50.9674 45.8421 51.8018 45.5517 52.62 45.22C53.1486 44.8962 53.5885 44.446 53.9 43.91C54.42 43.08 54.62 42.07 55.12 41.23C55.9148 39.9677 56.7725 38.7462 57.69 37.57C58.38 36.57 59.1 35.69 59.88 34.81C60.104 34.5507 60.3672 34.328 60.66 34.15C60.7846 34.0797 60.9321 34.0617 61.07 34.1C61.32 34.17 61.34 34.51 61.9 34.45C62.77 34.36 63.09 33.12 63.32 32.45C63.597 31.2625 63.7478 30.0491 63.77 28.83C63.77 28.68 63.77 28.48 63.59 28.41C63.41 28.34 63.42 28.49 63.3 28.41C63.18 28.33 63.15 28.26 63.13 28.16C62.94 27.02 62.87 25.87 62.73 24.73C62.6802 24.1462 62.6001 23.5654 62.49 22.99C62.3994 22.644 62.2721 22.3088 62.11 21.99C62.05 21.88 61.98 21.76 61.87 21.74C61.76 21.72 61.76 21.84 61.7 21.88C61.64 21.92 61.58 22.01 61.49 22.02C61.4 22.03 61.18 22.02 61.14 21.96C61.0763 21.7943 61.0261 21.6238 60.99 21.45C60.77 20.4 60.62 19.38 60.38 18.31C60.3274 18.1527 60.284 17.9924 60.25 17.83C60.25 17.83 60.25 17.74 60.31 17.74C60.37 17.74 60.39 17.8 60.42 17.84C60.57 18.11 60.69 18.39 60.83 18.67L61.2 19.4C61.31 19.6 61.38 19.4 61.38 19.4C61.4002 19.2172 61.4002 19.0328 61.38 18.85C61.3506 18.6612 61.3106 18.4742 61.26 18.29C61.0707 17.5821 60.8266 16.89 60.53 16.22C60.2484 15.2886 59.9145 14.3738 59.53 13.48C59.2 13.16 58.81 12.81 58.4 12.43C58.9435 13.3676 59.3509 14.3777 59.61 15.43C59.7055 15.8824 59.7756 16.3398 59.82 16.8C60.013 18.9181 59.8336 21.0537 59.29 23.11C58.87 24.37 57.88 25.37 57.29 26.57C56.7 27.77 56.74 28.99 56.04 29.97C53.3826 32.9952 50.45 35.7671 47.28 38.25C44.41 40.32 38.37 44.12 34.94 44.98C32.42 45.61 29.74 45.45 27.2 45.98C25.43 46.36 23.82 47.28 22.07 47.73C19.4 48.43 17.4 48.63 14.57 49.49C13.605 49.826 12.5638 49.8781 11.57 49.64C10.67 49.53 9.73 49.48 9.37 49.92C9.21 50.12 9.44 50.54 9.22 50.67C9.04153 50.7468 8.84928 50.7863 8.655 50.7863C8.46072 50.7863 8.26847 50.7468 8.09 50.67C7.23 50.38 6.5 49.79 5.66 49.45C5.43429 49.3657 5.18572 49.3657 4.96001 49.45C4.69001 49.53 4.51001 49.71 4.29001 49.72C4.20569 49.7257 4.12111 49.7134 4.04184 49.6841C3.96257 49.6548 3.89038 49.6091 3.83 49.55C3.38621 48.9001 3.15876 48.1267 3.18001 47.34C3.18001 47.5 3.13001 47.66 3.10001 47.82C3.02195 48.3194 2.98848 48.8247 3 49.33C3.00223 49.3903 3.01772 49.4493 3.04538 49.5029C3.07304 49.5564 3.11218 49.6033 3.16 49.64C4.17836 50.3252 5.24442 50.9368 6.35001 51.47C6.63336 51.6214 6.92748 51.7518 7.23 51.86C7.83738 52.0485 8.45506 52.2021 9.08 52.32C10.76 52.65 10.45 52.21 11.96 51.65C12.7937 51.3422 13.6453 51.0851 14.51 50.88C16.33 50.48 18.21 50.34 20.02 49.88C21.35 49.53 22.6 48.88 23.89 48.45C24.8289 48.0588 25.7907 47.7248 26.77 47.45C27.187 47.3642 27.6196 47.3954 28.02 47.54C28.3209 47.6624 28.5761 47.8756 28.75 48.15C28.8863 48.3895 28.9424 48.6663 28.91 48.94C28.8876 49.1946 28.774 49.4325 28.59 49.61C28.23 49.95 27.72 50.09 27.35 50.4C27.0093 50.6913 26.7098 51.0277 26.46 51.4C26.25 51.69 26.24 52.09 26.01 52.4C25.7714 52.647 25.4811 52.8383 25.16 52.96V52.9Z" fill="url(#paint8_radial_4_5769)"/>
<path style="mix-blend-mode:multiply" fill-rule="evenodd" clip-rule="evenodd" d="M18.58 49.32C17.08 49.72 15.36 49.39 13.79 49.73C13.0533 49.8516 12.3005 49.8346 11.57 49.68C10.67 49.57 9.73 49.52 9.37 49.96C9.21 50.16 9.44 50.58 9.22 50.71C9.04153 50.7868 8.84928 50.8264 8.655 50.8264C8.46072 50.8264 8.26847 50.7868 8.09 50.71C7.23 50.42 6.5 49.83 5.66 49.49C5.43429 49.4057 5.18572 49.4057 4.96001 49.49C4.69001 49.57 4.51001 49.75 4.29001 49.76C4.20569 49.7657 4.12111 49.7534 4.04184 49.7241C3.96257 49.6948 3.89038 49.6491 3.83 49.59C3.38621 48.9401 3.15876 48.1667 3.18001 47.38C3.18001 47.54 3.13001 47.7 3.10001 47.86C3.02195 48.3594 2.98848 48.8647 3 49.37C3.00223 49.4303 3.01772 49.4893 3.04538 49.5429C3.07304 49.5965 3.11218 49.6433 3.16 49.68C4.17836 50.3652 5.24442 50.9768 6.35001 51.51C6.63336 51.6614 6.92748 51.7918 7.23 51.9C7.83738 52.0885 8.45506 52.2421 9.08 52.36C10.76 52.69 10.45 52.25 11.96 51.69C12.7937 51.3822 13.6453 51.1251 14.51 50.92C16.33 50.52 18.21 50.38 20.02 49.92C21.35 49.57 22.6 48.92 23.89 48.49C24.8289 48.0988 25.7907 47.7648 26.77 47.49C27.187 47.4042 27.6196 47.4354 28.02 47.58C28.3209 47.7024 28.5761 47.9156 28.75 48.19C28.8863 48.4295 28.9424 48.7063 28.91 48.98C28.8876 49.2346 28.774 49.4725 28.59 49.65C28.4649 49.7621 28.3273 49.8594 28.18 49.94C28.4034 49.8467 28.6176 49.7328 28.82 49.6C29.72 48.95 29.69 48.16 31.71 47.2C33.33 46.43 30.19 46.46 29.88 46.47C28.5446 46.3361 27.1967 46.4001 25.88 46.66C23.82 47.23 21.07 48.66 18.54 49.37L18.58 49.32Z" fill="url(#paint9_radial_4_5769)"/>
<path style="mix-blend-mode:multiply" fill-rule="evenodd" clip-rule="evenodd" d="M42.54 43.68C40.13 44.51 37.05 45.28 34.54 45.95C34.3 46.01 33.13 46.25 33.04 46.51C33.6181 46.6792 34.2278 46.71 34.82 46.6C37.3236 46.2406 39.8019 45.7229 42.24 45.05C44.7794 44.6332 47.2536 43.8869 49.6 42.83C50.5769 42.325 51.4543 41.6474 52.19 40.83C52.86 40.03 53 38.88 53.57 38C54.0933 37.2318 54.7003 36.5241 55.38 35.89C56.5 34.78 57.77 33.83 58.9 32.73C59.4928 32.2437 59.997 31.6584 60.39 31C60.8801 29.9154 61.2005 28.762 61.34 27.58C61.4417 26.2492 61.4684 24.9138 61.42 23.58C61.3722 23.0513 61.4265 22.5183 61.58 22.01H61.49C61.37 22.01 61.18 22.01 61.14 21.95C61.0763 21.7844 61.0261 21.6138 60.99 21.44C60.77 20.39 60.62 19.37 60.38 18.3C60.3274 18.1427 60.284 17.9824 60.25 17.82C60.25 17.82 60.25 17.73 60.31 17.73C60.37 17.73 60.39 17.79 60.42 17.83C60.57 18.1 60.69 18.38 60.83 18.66L61.2 19.39C61.31 19.59 61.38 19.39 61.38 19.39C61.4002 19.2072 61.4002 19.0228 61.38 18.84C61.3506 18.6512 61.3106 18.4643 61.26 18.28C61.0707 17.5721 60.8266 16.8801 60.53 16.21C60.2484 15.2786 59.9145 14.3638 59.53 13.47L59.41 13.36C59.8797 14.3412 60.1547 15.4042 60.22 16.49C60.2317 16.603 60.2317 16.717 60.22 16.83C60.22 16.9 60.08 16.9 60.07 16.97C60.0647 17.4111 60.0881 17.852 60.14 18.29C60.2864 19.5515 60.3631 20.8201 60.37 22.09C60.412 23.7253 60.2406 25.3591 59.86 26.95C59.3911 28.1183 58.7725 29.2208 58.02 30.23C57.2362 31.7032 56.3154 33.0994 55.27 34.4C54.4 35.34 53.05 35.72 52.12 36.6C48.45 40.08 48.89 41.6 42.64 43.69L42.54 43.68Z" fill="url(#paint10_radial_4_5769)"/>
<path style="mix-blend-mode:multiply" fill-rule="evenodd" clip-rule="evenodd" d="M19.27 60.17C18.5864 60.3173 17.9171 60.5248 17.27 60.79C16.0865 61.0994 14.8306 60.9642 13.74 60.41C11.64 59.62 11.11 58.41 11.27 56.71C11.2651 56.6701 11.2651 56.6299 11.27 56.59C11.1832 56.5706 11.0992 56.5404 11.02 56.5C10.6746 57.57 10.6228 58.7131 10.87 59.81C11.04 60.42 11.72 60.81 12.27 61.1C12.832 61.3628 13.4333 61.5317 14.05 61.6C15.15 61.79 16.28 61.8 17.38 62.01C17.8806 62.1263 18.3669 62.2973 18.83 62.52C19.36 62.76 19.83 63.09 20.36 63.35C20.8475 63.6313 21.3556 63.8754 21.88 64.08C22.3352 64.2554 22.8136 64.3632 23.3 64.4C23.9918 64.4132 24.6835 64.3765 25.37 64.29C26 64.29 26.62 64.17 27.25 64.07H27.47C27.77 64.07 28.06 63.91 28.36 63.85C29.45 63.62 30.56 63.47 31.64 63.2C32.4468 62.9988 33.2414 62.7517 34.02 62.46C35.25 62.03 36.46 61.55 37.67 61.07C39.42 60.38 41.17 59.7 42.9 58.96C43.47 58.7142 44.0243 58.4337 44.56 58.12C46.29 57.12 48.03 56.12 49.71 55.03C50.99 54.2033 52.23 53.3167 53.43 52.37C54.53 51.53 55.59 50.62 56.62 49.69C57.65 48.76 58.35 48.04 59.2 47.19C59.48 46.91 59.69 46.56 59.99 46.31C60.04 46.31 60.12 46.31 60.14 46.42C60.36 47.35 57.01 51.23 56.22 51.9L55.98 52.1C58.3 50.43 59.35 49.1 61.15 46.1C61.36 45.73 61.57 45.36 61.77 44.98C62.2663 44.0462 62.7005 43.0808 63.07 42.09C63.2413 41.6497 63.3555 41.1893 63.41 40.72C63.41 40.72 63.28 40.83 63.16 41.03C63.04 41.23 62.74 41.74 62.67 41.87C61.9494 43.1634 61.1268 44.3974 60.21 45.56C59.7148 46.1551 59.1873 46.7226 58.63 47.26C57.78 48.1 56.93 48.94 56.01 49.7C55.26 50.32 54.43 50.81 53.65 51.37C52.65 52.12 51.56 52.85 50.55 53.64C49.87 54.18 49.3 54.87 48.55 55.37C47.7828 55.8496 46.9844 56.2772 46.16 56.65C45.16 57.18 44.06 57.65 43.01 58.2C42.33 58.53 41.68 58.94 41.01 59.2C39.71 59.7 38.35 59.99 37.01 60.48C36.32 60.74 35.71 61.19 35.01 61.48C33.62 61.96 31.95 61.97 30.54 62.38C28.12 63.07 27.34 63.77 25.25 63.83C24.7159 63.8423 24.1816 63.8223 23.65 63.77C22.95 63.71 22.65 63.45 22.53 63.11C22.42 62.57 23.03 61.85 24.08 61.54C25.34 61.17 26.64 60.98 27.92 60.65C30.54 59.98 34.42 59.23 36.83 58.44C37.9564 58.0488 39.0613 57.5981 40.14 57.09L39.86 57.2C38.7005 57.7476 37.4729 58.1377 36.21 58.36C36.06 58.36 35.86 58.36 35.78 58.26C35.7 58.16 35.78 58.01 35.93 57.96C36.9695 57.451 37.972 56.8696 38.93 56.22C39.8 55.62 40.52 54.84 41.38 54.22C42.06 53.74 42.87 53.47 43.54 52.98C44.0015 52.6253 44.4179 52.2156 44.78 51.76C43.9682 52.4237 43.0073 52.8801 41.98 53.09C41.2811 53.2325 40.5954 53.4332 39.93 53.69C39.2 54.19 37.79 56.75 35.04 57.69C31.7023 58.7805 28.255 59.5015 24.76 59.84C22.94 60.04 21.09 59.98 19.28 60.25L19.27 60.17Z" fill="url(#paint11_radial_4_5769)"/>
<path fill-rule="evenodd" clip-rule="evenodd" d="M21.72 54.25C21.0257 54.8016 20.2976 55.3092 19.54 55.77C18.9028 56.0296 18.227 56.1817 17.54 56.22C16.27 56.36 14.99 56.34 13.72 56.44C12.9993 56.5869 12.2655 56.6606 11.53 56.66C12.1924 56.7667 12.8676 56.7667 13.53 56.66C15.93 56.58 19.69 56.84 20.7 56.66C21.4201 56.5297 22.1028 56.243 22.7 55.82C23.64 55.2 21.79 55.19 23 54.69C24.65 54.01 29 54.22 30 52.45C30.0747 52.3494 30.1222 52.2311 30.138 52.1068C30.1537 51.9824 30.1372 51.8561 30.09 51.74C29.95 51.53 29.48 51.74 29.37 51.5C29.26 51.26 29.53 51.06 29.7 50.94C31.3245 49.8286 33.0647 48.8965 34.89 48.16C35.8288 47.7889 36.7951 47.4914 37.78 47.27C40.78 46.63 35.06 46.8 33.19 47.27C31.9315 47.6177 30.7954 48.3105 29.91 49.27C29.6175 49.584 29.2806 49.8535 28.91 50.07C28.11 50.41 26.98 50.44 26.4 51.29C26.19 51.58 26.18 51.98 25.95 52.29C25.7114 52.537 25.4211 52.7283 25.1 52.85C24.26 53.21 23.36 53.43 22.51 53.77C22.2132 53.885 21.9285 54.0291 21.66 54.2L21.72 54.25Z" fill="url(#paint12_radial_4_5769)"/>
<path opacity="0.65" fill-rule="evenodd" clip-rule="evenodd" d="M38.28 58.13C37.28 58.48 36.28 58.74 35.28 59C34.28 59.26 32.96 59.52 31.8 59.8C30.9653 59.9628 30.1407 60.1731 29.33 60.43C29.21 60.43 29.07 60.71 29.18 60.75C29.6384 60.9154 30.1228 60.9967 30.61 60.99C31.6301 61.0901 32.6552 61.1301 33.68 61.11C34.0298 61.099 34.3722 61.0066 34.68 60.84C35.43 60.44 36.05 59.84 36.82 59.44C37.4938 59.1627 38.194 58.955 38.91 58.82C39.7836 58.7069 40.6488 58.5366 41.5 58.31C43.493 57.33 45.2762 55.9714 46.75 54.31C46.8 54.22 46.75 54.05 46.69 54.01C46.63 53.97 46.44 54.01 46.33 54.12C45.38 54.63 44.47 55.23 43.51 55.74C42.55 56.25 41.85 56.58 41 56.96C40.15 57.34 39.23 57.77 38.31 58.09L38.28 58.13Z" fill="url(#paint13_radial_4_5769)"/>
<path fill-rule="evenodd" clip-rule="evenodd" d="M17.76 2.83002C18.06 2.71002 18.3 2.48002 18.59 2.33002C21.1159 1.23808 23.9403 1.04743 26.59 1.79002C27.32 2.00002 28.12 1.90002 28.85 2.12002C29.58 2.34002 30.02 2.75002 30.64 2.98002C31.2687 3.10282 31.8872 3.27331 32.49 3.49002C32.87 3.70002 32.93 4.31002 33.32 4.49002C33.99 4.82002 34.81 4.66002 35.5 4.94002C37.2 5.63002 39.5 7.55002 39.76 9.50002C39.8513 10.1409 39.779 10.7945 39.55 11.4C39.26 12.11 38.05 11.77 37.7 11.94C37.51 12.04 37.46 12.32 37.44 12.54C37.33 13.44 37.49 14.36 37.32 15.25C37.01 16.81 35.32 17.41 33.89 17.78C32.01 18.28 29.82 17.53 30.2 15.19C30.3 14.53 30.92 14.06 31.2 13.43C31.48 12.8 31.2 12.29 31.47 11.85C32.15 10.85 34.02 10.37 34.27 10C34.4925 9.55848 34.5761 9.05998 34.51 8.57002C34.5108 8.12027 34.4009 7.67724 34.19 7.28002C34.1281 7.19724 34.0384 7.13954 33.9374 7.11751C33.8363 7.09547 33.7308 7.11056 33.64 7.16002C33.04 7.57002 32.82 8.65002 31.53 9.16002C30.24 9.67002 27.96 9.67002 26.86 11.04C26.795 11.1184 26.748 11.21 26.7221 11.3085C26.6962 11.4069 26.6921 11.5098 26.71 11.61C26.85 12.05 27.33 12.36 27.41 12.81C27.4245 12.9672 27.4063 13.1257 27.3563 13.2755C27.3064 13.4252 27.2259 13.563 27.12 13.68C26.779 14.1628 26.3305 14.5599 25.81 14.84C24.5287 15.3226 23.2237 15.7398 21.9 16.09C21.27 16.31 20.65 16.59 20.03 16.84C17.03 18.04 14.22 17.74 13.86 18.12C13.5 18.5 13.58 19.25 13.23 19.7C12.02 21.25 10.76 21.81 9.05999 20.7C8.43999 20.28 8.05999 19.51 7.38999 19.18C6.92999 18.95 6.38999 19.18 5.83999 19.12C4.96999 19.05 3.98 18.66 3.16 19.36C2.71 19.75 2.42 20.7 2.16 20.84C1.9 20.98 2.29999 19.56 2.58999 19C3.04999 18.09 1.78999 17.33 4.91999 14.68C5.7163 13.9189 6.36995 13.0214 6.85 12.03C7.07236 11.5201 7.37261 11.0478 7.74 10.63C8.15644 10.2442 8.601 9.88989 9.07 9.57002C9.81 8.98002 10.8 7.74002 11.73 6.95002C12.12 6.62002 12.62 6.45002 13 6.12002C13.86 5.35002 14.53 4.54002 15.22 3.91002C16.09 3.11002 16.89 3.20002 17.83 2.82002L17.76 2.83002Z" fill="url(#paint14_radial_4_5769)"/>
<path style="mix-blend-mode:multiply" fill-rule="evenodd" clip-rule="evenodd" d="M24.34 10.43C21.55 12.93 23.28 13.1 24.67 13.3C25.31 13.39 26.13 13.71 25.18 14.12C24.23 14.53 23.42 14.53 22.58 14.86C22.12 15.05 21.76 15.46 21.3 15.67C18.3 17.04 14.25 16.21 11.96 16.55C10.96 16.7 10.55 17.61 11.39 18.43C11.99 19 12.61 19.01 12.63 19.43C12.63 20.31 11.42 21.11 10.63 21.33C11.1444 21.2823 11.6404 21.1145 12.0781 20.84C12.5158 20.5656 12.8829 20.1922 13.15 19.75C13.5 19.3 13.39 18.58 13.78 18.17C14.17 17.76 16.93 18.09 19.95 16.89C20.57 16.64 21.19 16.36 21.82 16.14C23.1437 15.7898 24.4487 15.3726 25.73 14.89C26.2505 14.6099 26.699 14.2128 27.04 13.73C27.1459 13.613 27.2264 13.4752 27.2763 13.3255C27.3263 13.1757 27.3445 13.0172 27.33 12.86C27.25 12.41 26.77 12.1 26.63 11.66C26.6121 11.5598 26.6162 11.4569 26.6421 11.3585C26.668 11.26 26.7151 11.1684 26.78 11.09C27.88 9.72001 30.22 9.72001 31.45 9.21001C32.68 8.70001 32.96 7.60001 33.56 7.21001C33.6508 7.16055 33.7564 7.14546 33.8574 7.1675C33.9584 7.18954 34.0481 7.24723 34.11 7.33001C34.3209 7.72723 34.4308 8.17027 34.43 8.62001C34.4961 9.10998 34.4125 9.60848 34.19 10.05C33.96 10.38 32.38 10.81 31.59 11.65C33.78 10.09 35.35 10.75 35.38 8.92001C35.4358 8.07441 35.2667 7.22911 34.89 6.47001C34.8228 6.37974 34.7376 6.30445 34.6397 6.24895C34.5418 6.19346 34.4334 6.15896 34.3215 6.14767C34.2095 6.13638 34.0964 6.14854 33.9894 6.18338C33.8824 6.21822 33.7838 6.27497 33.7 6.35001C32.85 7.20001 32.48 8.23001 31.25 8.59001C30.437 8.81162 29.6124 8.98855 28.78 9.12001C27.14 9.42001 25.71 9.20001 24.34 10.44V10.43Z" fill="url(#paint15_radial_4_5769)"/>
<path style="mix-blend-mode:multiply" fill-rule="evenodd" clip-rule="evenodd" d="M32.39 3.82999C32.48 4.15999 32.39 4.98999 32.92 5.10999C33.97 5.34999 34.92 4.82999 36.13 5.60999C37.73 6.66999 39.38 8.00999 39.13 10.15C39.02 10.94 38.32 10.77 37.52 10.52C36.99 10.35 36.42 10.28 36.31 10.77C36.06 11.94 36.48 13.17 36.46 14.37C36.46 16.97 34.46 17.79 32.54 17.99C32.9979 18.0179 33.4573 17.9706 33.9 17.85C35.3 17.48 37.02 16.85 37.33 15.32C37.5 14.43 37.33 13.51 37.45 12.61C37.45 12.39 37.52 12.11 37.71 12.01C38.06 11.84 39.27 12.18 39.56 11.47C39.789 10.8645 39.8613 10.2109 39.77 9.56999C39.53 7.61999 37.21 5.69999 35.51 5.00999C34.82 4.72999 34 4.88999 33.33 4.55999C32.94 4.36999 32.88 3.75999 32.5 3.55999C32.2672 3.4379 32.018 3.35031 31.76 3.29999L32.23 3.51999C32.333 3.59913 32.404 3.71274 32.43 3.83999L32.39 3.82999Z" fill="url(#paint16_radial_4_5769)"/>
</g>
<defs>
<radialGradient id="paint0_radial_4_5769" cx="0" cy="0" r="1" gradientUnits="userSpaceOnUse" gradientTransform="translate(19.17 14.67) scale(56.16 56.16)">
<stop stop-color="#71F5FF"/>
<stop offset="0.17" stop-color="#6AE9FF"/>
<stop offset="0.47" stop-color="#56C9FF"/>
<stop offset="0.5" stop-color="#54C5FF"/>
<stop offset="0.92" stop-color="#1483FF"/>
</radialGradient>
<radialGradient id="paint1_radial_4_5769" cx="0" cy="0" r="1" gradientUnits="userSpaceOnUse" gradientTransform="translate(34.11 34.26) scale(35.34 35.34)">
<stop offset="0.04"/>
<stop offset="0.84"/>
<stop offset="0.85" stop-color="#0D1516"/>
<stop offset="0.9" stop-color="#3E6268"/>
<stop offset="0.93" stop-color="#659FA9"/>
<stop offset="0.96" stop-color="#81CBD7"/>
<stop offset="0.99" stop-color="#93E6F4"/>
<stop offset="1" stop-color="#99F0FF"/>
</radialGradient>
<radialGradient id="paint2_radial_4_5769" cx="0" cy="0" r="1" gradientUnits="userSpaceOnUse" gradientTransform="translate(9.22 5.84) scale(38.74 38.74)">
<stop stop-color="#86FFFF"/>
<stop offset="1"/>
</radialGradient>
<radialGradient id="paint3_radial_4_5769" cx="0" cy="0" r="1" gradientUnits="userSpaceOnUse" gradientTransform="translate(18.12 26.49) scale(50.39 50.39)">
<stop stop-color="#F2F6FF"/>
<stop offset="1" stop-color="#D6F3FF"/>
</radialGradient>
<radialGradient id="paint4_radial_4_5769" cx="0" cy="0" r="1" gradientUnits="userSpaceOnUse" gradientTransform="translate(29.14 26.73) scale(42.1 42.1)">
<stop offset="0.62" stop-color="white"/>
<stop offset="0.65" stop-color="#F5FAFF"/>
<stop offset="0.75" stop-color="#D0E8FF"/>
<stop offset="0.85" stop-color="#B4DAFF"/>
<stop offset="0.94" stop-color="#A4D2FF"/>
<stop offset="1" stop-color="#9ECFFF"/>
</radialGradient>
<radialGradient id="paint5_radial_4_5769" cx="0" cy="0" r="1" gradientUnits="userSpaceOnUse" gradientTransform="translate(7.32 8.48) scale(51.65 51.65)">
<stop offset="0.7" stop-color="white"/>
<stop offset="1" stop-color="#AAC2E6"/>
</radialGradient>
<radialGradient id="paint6_radial_4_5769" cx="0" cy="0" r="1" gradientUnits="userSpaceOnUse" gradientTransform="translate(13 33.48) scale(7.62 7.62)">
<stop stop-color="white"/>
<stop offset="1" stop-color="#AAC2E6"/>
</radialGradient>
<radialGradient id="paint7_radial_4_5769" cx="0" cy="0" r="1" gradientUnits="userSpaceOnUse" gradientTransform="translate(21.41 29.9) scale(16.87 16.87)">
<stop stop-color="white"/>
<stop offset="1" stop-color="#AAC2E6"/>
</radialGradient>
<radialGradient id="paint8_radial_4_5769" cx="0" cy="0" r="1" gradientUnits="userSpaceOnUse" gradientTransform="translate(19.89 35.2) scale(46.38 46.38)">
<stop stop-color="white"/>
<stop offset="1" stop-color="#CFE2FF"/>
</radialGradient>
<radialGradient id="paint9_radial_4_5769" cx="0" cy="0" r="1" gradientUnits="userSpaceOnUse" gradientTransform="translate(33.38 49.68) scale(29.88 29.88)">
<stop stop-color="#AAC2E6"/>
<stop offset="1" stop-color="white"/>
</radialGradient>
<radialGradient id="paint10_radial_4_5769" cx="0" cy="0" r="1" gradientUnits="userSpaceOnUse" gradientTransform="translate(36.88 36.61) scale(31.23 31.23)">
<stop stop-color="white"/>
<stop offset="1" stop-color="#AAC2E6"/>
</radialGradient>
<radialGradient id="paint11_radial_4_5769" cx="0" cy="0" r="1" gradientUnits="userSpaceOnUse" gradientTransform="translate(30.24 15.97) scale(55.24 55.24)">
<stop stop-color="white"/>
<stop offset="1" stop-color="#AAC2E6"/>
</radialGradient>
<radialGradient id="paint12_radial_4_5769" cx="0" cy="0" r="1" gradientUnits="userSpaceOnUse" gradientTransform="translate(32 45.35) scale(23.97)">
<stop stop-color="#F2F6FF"/>
<stop offset="1" stop-color="#D6F3FF"/>
</radialGradient>
<radialGradient id="paint13_radial_4_5769" cx="0" cy="0" r="1" gradientUnits="userSpaceOnUse" gradientTransform="translate(39.59 50.05) scale(21.66 21.66)">
<stop stop-color="#F2F6FF"/>
<stop offset="1" stop-color="#D6F3FF"/>
</radialGradient>
<radialGradient id="paint14_radial_4_5769" cx="0" cy="0" r="1" gradientUnits="userSpaceOnUse" gradientTransform="translate(4.56 11.36) scale(50.24 50.24)">
<stop stop-color="#F2F6FF"/>
<stop offset="1" stop-color="#D6F3FF"/>
</radialGradient>
<radialGradient id="paint15_radial_4_5769" cx="0" cy="0" r="1" gradientUnits="userSpaceOnUse" gradientTransform="translate(14.74 7.76001) scale(21.62)">
<stop stop-color="white"/>
<stop offset="1" stop-color="#AAC2E6"/>
</radialGradient>
<radialGradient id="paint16_radial_4_5769" cx="0" cy="0" r="1" gradientUnits="userSpaceOnUse" gradientTransform="translate(27.11 7.57999) scale(14.08 14.08)">
<stop stop-color="white"/>
<stop offset="1" stop-color="#AAC2E6"/>
</radialGradient>
<clipPath id="clip0_4_5769">
<rect width="66.16" height="64.85" fill="white"/>
</clipPath>
</defs>
</svg>
