<svg width="97" height="55" viewBox="0 0 97 55" fill="none" xmlns="http://www.w3.org/2000/svg">
<g clip-path="url(#clip0_4_5446)">
<path fill-rule="evenodd" clip-rule="evenodd" d="M66.85 11.43L70.68 15.06C74.87 15.06 80.53 15.74 83.29 19.13L94.85 16.67C92.63 14.37 88.4 12.94 84.85 12.24C78.9186 11.1189 72.8581 10.8462 66.85 11.43ZM11.85 34.32C11.63 29.77 18.17 26.21 21.85 24.76L22.85 20.33C14.79 22.48 5.21001 27.19 1.26001 33.33C0.524385 34.3734 0.101205 35.6048 0.0400085 36.88L11.88 34.36L11.85 34.32Z" fill="url(#paint0_linear_4_5446)"/>
<path fill-rule="evenodd" clip-rule="evenodd" d="M22.52 20.48C22.9222 19.8135 23.5676 19.3294 24.32 19.13L26.09 33.84C22.86 31.25 21.68 28.48 21.76 25.19C21.719 23.5865 21.9767 21.9893 22.52 20.48Z" fill="#6C6C2E"/>
<path fill-rule="evenodd" clip-rule="evenodd" d="M23.85 38.28C23.25 35.64 24.6 34.75 27.34 34.11C39.19 31.34 75.43 29.28 69.96 41.21C69.6297 41.8755 69.1941 42.4834 68.67 43.01C67.94 43.8 67.07 44.45 66.28 45.19C60.57 50.57 55.2 52.11 47.15 50.68C41.57 49.68 25.27 44.47 23.85 38.28Z" fill="#6C6C2E"/>
<path fill-rule="evenodd" clip-rule="evenodd" d="M73.92 24.58C73.534 23.4549 72.902 22.43 72.07 21.58C64.68 13.71 41.07 2.52998 33.07 4.93998C27.07 9.86998 26.37 14.18 28.33 18.38C36.57 36 74.33 43.53 73.94 24.61L73.92 24.58Z" fill="#6C6C2E"/>
<path fill-rule="evenodd" clip-rule="evenodd" d="M47.77 1.35001C52.8123 1.34803 57.7419 2.84156 61.9353 5.64168C66.1286 8.4418 69.3973 12.4227 71.3278 17.0808C73.2583 21.7389 73.7639 26.8649 72.7807 31.8104C71.7975 36.7559 69.3696 41.2987 65.8042 44.8642C62.2387 48.4296 57.6959 50.8575 52.7504 51.8407C47.8049 52.8239 42.6789 52.3183 38.0208 50.3878C33.3627 48.4573 29.3818 45.1886 26.5817 40.9953C23.7816 36.8019 22.288 31.8723 22.29 26.83C22.29 20.0723 24.9745 13.5913 29.7529 8.81292C34.5314 4.03449 41.0123 1.35001 47.77 1.35001Z" fill="url(#paint1_radial_4_5446)"/>
<path fill-rule="evenodd" clip-rule="evenodd" d="M35.6 3.29001C35.2046 3.54869 34.842 3.85425 34.52 4.20001C34.385 4.31968 34.2877 4.47603 34.24 4.65001C34.2242 4.76162 34.249 4.87519 34.31 4.97001C34.4 5.11001 34.57 5.18001 34.64 5.32001C34.71 5.46001 34.73 5.54001 34.64 5.62001C34.3534 5.93991 34.0461 6.24056 33.72 6.52001C33.2136 6.99125 32.7393 7.49569 32.3 8.03001C31.93 8.53001 31.22 10.36 31.49 11.03C31.6276 11.3466 31.8488 11.6197 32.13 11.82C32.7 12.19 34.06 12.39 34.86 12.88C35.3687 13.2087 35.8325 13.602 36.24 14.05C36.58 14.42 36.73 14.93 37.1 15.27C37.9447 16.1636 39.0003 16.8307 40.17 17.21C40.9854 17.2969 41.7897 17.4678 42.57 17.72C43.2166 18.0945 43.8116 18.5517 44.34 19.08C46.6 20.96 47.5 22.56 50.8 22.08C52.28 21.86 53.7 20.7 55 20.01C56.88 19.01 57.09 19.53 58.83 19.35C59.2756 19.3435 59.7137 19.2339 60.11 19.03C61.35 18.22 61.71 17.03 62.54 16.03C62.8941 15.6529 63.29 15.3174 63.72 15.03C64.3432 14.6823 64.9413 14.2913 65.51 13.86C66.41 12.95 65.15 10.62 64.83 9.74001C64.7667 9.53984 64.7429 9.32925 64.76 9.12C64.7537 8.93659 64.8025 8.7555 64.9 8.60001C65.11 8.32001 65.64 8.22001 65.75 8.11001C65.7851 8.07152 65.8092 8.02428 65.8198 7.97324C65.8303 7.92221 65.827 7.86928 65.81 7.82001C65.7305 7.59376 65.6005 7.38858 65.43 7.22001C64.7502 6.58656 64.0322 5.99545 63.28 5.45001C62.13 4.63001 60.96 3.86001 59.74 3.15001C58.9703 2.68678 58.1562 2.30153 57.31 2.00001C56.31 1.67001 55.31 1.52001 54.31 1.28001C53.31 1.04001 52.31 0.650014 51.24 0.490014C50.7074 0.450045 50.1726 0.450045 49.64 0.490014C49.1117 0.483191 48.5841 0.446465 48.06 0.380013C47.39 0.300013 46.44 0.0100092 46.06 0.0400092C45.68 0.0700092 43.99 0.570009 42.95 0.790009C42.16 0.960009 41.34 0.990007 40.56 1.21001C39.6559 1.49501 38.7679 1.82883 37.9 2.21001C37.0951 2.51737 36.3103 2.87474 35.55 3.28001L35.6 3.29001ZM68.96 11.02C68.6571 10.6575 68.3225 10.3229 67.96 10.02C67.84 9.91001 66.87 9.34002 67.06 9.96002C67.32 10.88 67.86 11.84 68.16 12.88C68.39 13.67 68.35 14.25 67.6 14.67C66.85 15.09 66.13 15.12 65.77 16.1C65.41 17.08 65.13 18.25 64.77 19.3C64.3741 20.2611 63.7969 21.1371 63.07 21.88C62.9169 22.0321 62.8066 22.2218 62.75 22.43C62.67 23.04 63.65 24.17 64.2 24.35C65.3326 24.5976 66.5134 24.5001 67.59 24.07C68.59 23.75 68.95 23.07 69.65 22.66C70.35 22.25 72.11 22.66 72.57 22C72.8118 21.5647 72.9455 21.0777 72.96 20.58C72.9765 19.5783 72.9331 18.5765 72.83 17.58C72.6196 17.1282 72.386 16.6876 72.13 16.26C71.92 15.8 71.67 14.92 71.61 14.83C71.42 14.5 71.15 14.22 70.95 13.89C70.75 13.56 70.82 13.46 70.7 13.27C70.16 12.49 69.59 11.73 68.98 11L68.96 11.02ZM33.05 4.94001C32.13 5.94001 31.28 7.94001 30.86 8.18001C29.86 8.85001 29.23 9.07001 28.73 10.38C28.5942 10.6965 28.5196 11.0358 28.51 11.38C28.5183 11.4511 28.5423 11.5193 28.5804 11.5799C28.6184 11.6405 28.6696 11.6917 28.73 11.73C29.55 12.35 29.73 12.37 29.54 13.1C29.4495 13.4257 29.4024 13.762 29.4 14.1C29.3905 14.2404 29.4332 14.3793 29.52 14.49C29.6538 14.606 29.8231 14.673 30 14.68C30.52 14.73 31 14.68 31.56 14.68C32.12 14.68 32.3 15.11 32.56 15.57C32.82 16.03 32.87 16.27 33.07 16.57C33.27 16.87 33.49 16.95 33.63 17.19C34.02 17.89 34.25 18.68 34.63 19.38C34.7545 19.6115 34.9463 19.7997 35.18 19.92C35.49 20.06 35.86 20 36.18 20.11C36.5063 20.1922 36.8103 20.3459 37.07 20.56C37.48 20.94 37.7 21.5 38.07 21.9C38.6148 22.4618 39.2144 22.9676 39.86 23.41C40.1719 23.5746 40.5104 23.683 40.86 23.73C41.35 23.84 41.86 23.83 42.35 23.97C42.7078 24.0425 43.0477 24.1852 43.35 24.39C43.8915 24.8029 44.3906 25.2685 44.84 25.78C45.4564 26.6301 46.1243 27.4417 46.84 28.21C47.4319 28.6756 48.1124 29.0158 48.84 29.21C49.7516 29.4764 50.6914 29.6341 51.64 29.68C52.2611 29.714 52.8829 29.6257 53.47 29.42C54.68 28.99 55.76 28.22 56.96 27.78C57.6845 27.5355 58.4372 27.3842 59.2 27.33C60.046 27.2568 60.8975 27.2735 61.74 27.38C62.4238 27.4839 63.0944 27.6616 63.74 27.91C65 28.34 66.21 28.91 67.47 29.34C68.1686 29.6132 68.9027 29.7849 69.65 29.85C70.059 29.8416 70.452 29.6894 70.76 29.42C71.4947 28.7481 72.0162 27.8754 72.26 26.91C72.3531 26.6738 72.4669 26.4462 72.6 26.23C72.6672 26.089 72.7665 25.9657 72.89 25.87C73.02 25.79 73.25 25.87 73.44 25.82C73.81 25.65 73.89 25.19 73.86 24.68C74.0484 25.8905 74.1287 27.1153 74.1 28.34C74.16 29.08 74.43 30.1 74.49 30.52C74.49 30.69 73.87 31.74 73.68 32.39C73.41 33.3 73.43 34.28 73.12 35.16C72.8357 35.7796 72.5012 36.3749 72.12 36.94C71.83 37.46 71.61 38.01 71.28 38.51C69.9 40.67 68.28 40.93 65.96 40.51C63.2351 39.9914 60.4629 39.7634 57.69 39.83C52.23 39.9 50.94 41 46.5 42.32C45.4654 42.6283 44.398 42.8129 43.32 42.87C40.9552 42.8583 38.6274 42.2823 36.53 41.19C34.5689 40.3711 32.8135 39.128 31.39 37.55C30.802 36.6978 30.274 35.8056 29.81 34.88C29.2759 33.9415 28.6952 33.0304 28.07 32.15C27.44 31.34 26.69 30.65 26 29.9C25.6465 29.5487 25.3126 29.1782 25 28.79C24.7024 28.4124 24.4723 27.9861 24.32 27.53C23.879 25.7286 23.6375 23.8842 23.6 22.03C23.6868 21.3662 23.6868 20.6938 23.6 20.03C23.46 19.48 23.01 19.27 23.15 18.32C23.25 17.68 23.57 17.1 23.73 16.47C23.7818 15.9302 23.8754 15.3953 24.01 14.87C24.3701 14.1739 24.7812 13.5054 25.24 12.87C25.4157 12.6115 25.5728 12.3409 25.71 12.06C25.8617 11.6763 26.067 11.316 26.32 10.99C26.5345 10.7881 26.7653 10.6041 27.01 10.44C27.51 9.99001 27.81 9.36001 28.27 8.87001C28.57 8.54001 28.96 8.30001 29.27 7.97001C29.58 7.64001 29.67 7.36001 29.93 7.12001C30.8983 6.3209 31.9396 5.61447 33.04 5.01001L33.05 4.94001ZM51.35 42.77C50.7597 42.6198 50.1389 42.6406 49.56 42.83C48.5924 43.167 47.6664 43.6132 46.8 44.16C46.12 44.61 45.7 45.16 46.39 45.95C47.68 47.47 51.24 48.37 53.9 47.83C55.23 47.56 56.72 46.83 57.97 46.61C58.63 46.51 59.31 46.7 59.97 46.61C60.5008 46.4968 61.0126 46.3082 61.49 46.05C62.33 45.67 64.24 44.65 64.57 43.67C64.6376 43.3997 64.6129 43.1147 64.5 42.86C64.4063 42.6869 64.2482 42.5576 64.06 42.5C62.4381 42.0005 60.7563 41.7213 59.06 41.67C58.4896 41.6416 57.918 41.6886 57.36 41.81C57.11 41.87 56.01 42.71 55.43 42.92C53.67 43.53 52.98 43.12 51.3 42.79L51.35 42.77ZM23.86 38.05C24.6475 39.0893 25.6417 39.9541 26.78 40.59C27.3 40.84 27.84 41.05 28.39 41.25C29.39 41.62 30.39 42 31.39 42.25C32.39 42.5 33.68 42.67 34.78 43.03C35.33 43.22 35.73 43.88 36.31 43.87C37.6774 43.848 39.0361 44.0925 40.31 44.59C43.31 45.79 45.52 47.23 48.31 48.53C49.018 48.871 49.7629 49.1294 50.53 49.3C51.1858 49.4475 51.8587 49.5047 52.53 49.47C53.2368 49.3816 53.9357 49.2379 54.62 49.04C55.48 48.86 56.35 48.71 57.2 48.49C57.5247 48.3416 57.8587 48.2147 58.2 48.11C58.5936 48.1255 58.9852 48.1757 59.37 48.26C59.9013 48.325 60.4386 48.325 60.97 48.26C61.4592 48.1344 61.9228 47.9246 62.34 47.64C62.89 47.28 63.34 46.79 63.85 46.38C64.59 45.79 65.34 45.22 66.09 44.63C66.84 44.04 67.35 43.7 67.94 43.18C68.6023 42.5478 69.2299 41.8801 69.82 41.18C70.06 40.92 69.98 41.18 69.94 41.24C69.4687 42.1661 68.9445 43.0642 68.37 43.93C68.13 44.24 67.78 44.45 67.51 44.74C65.29 47.11 62.35 50.34 59.16 51.39C59.02 51.39 57.84 51.54 57.16 51.73C56.35 51.97 55.61 52.38 54.82 52.67C53.522 53.2213 52.185 53.6758 50.82 54.03C49.92 54.2 47.28 53.64 46.13 53.6C44.98 53.56 43.07 53.76 42.89 53.69C41.71 53.2 39.89 52.36 38.33 51.77C37.85 51.59 36.88 51.34 36.79 51.29C36.03 50.85 35.4 50.39 34.62 49.98C33.62 49.45 32.53 49.19 31.62 48.57C30.7626 47.9463 29.9747 47.2322 29.27 46.44C27.9313 45.1901 26.6941 43.8359 25.57 42.39C24.9208 41.3297 24.394 40.1992 24 39.02C23.87 38.71 23.69 38.02 23.79 38.02L23.86 38.05ZM22.52 20.48C21.8761 21.7116 21.4338 23.0384 21.21 24.41C21.1752 24.9061 21.1752 25.404 21.21 25.9C21.21 26.46 21.02 27.02 21.04 27.58C21.0735 28.6338 21.1872 29.6835 21.38 30.72C21.5577 31.8541 21.8526 32.9668 22.26 34.04C22.37 34.3 22.77 34.3 22.97 34.5C23.3749 34.8866 23.737 35.3158 24.05 35.78C24.3266 36.3689 24.6337 36.943 24.97 37.5C25.308 37.8377 25.7135 38.1001 26.16 38.27C26.48 38.42 26.87 38.68 27.16 38.53C27.3231 38.4192 27.4567 38.2701 27.5491 38.0958C27.6415 37.9215 27.6898 37.7273 27.69 37.53C27.6104 36.9802 27.4521 36.4447 27.22 35.94C27.1127 35.2072 26.9215 34.4891 26.65 33.8C26.1639 33.1567 25.6218 32.5577 25.03 32.01C24.7287 31.7136 24.4696 31.3771 24.26 31.01C23.86 30.18 23.64 29.27 23.26 28.41C22.9603 27.8775 22.7189 27.3143 22.54 26.73C22.529 25.896 22.5926 25.0627 22.73 24.24C22.73 23.06 21.85 22 22.41 20.51L22.52 20.48Z" fill="url(#paint2_radial_4_5446)"/>
<path style="mix-blend-mode:screen" fill-rule="evenodd" clip-rule="evenodd" d="M35.6 3.29001C35.2046 3.54869 34.842 3.85425 34.52 4.20001C34.385 4.31968 34.2877 4.47603 34.24 4.65001C34.2242 4.76162 34.249 4.87519 34.31 4.97001C34.4 5.11001 34.57 5.18001 34.64 5.32001C34.71 5.46001 34.73 5.54001 34.64 5.62001C34.3534 5.93991 34.0461 6.24056 33.72 6.52001C33.2136 6.99125 32.7393 7.49569 32.3 8.03001C31.93 8.53001 31.22 10.36 31.49 11.03C31.6276 11.3466 31.8488 11.6197 32.13 11.82C32.7 12.19 34.06 12.39 34.86 12.88C35.3687 13.2087 35.8325 13.602 36.24 14.05C36.58 14.42 36.73 14.93 37.1 15.27C37.9447 16.1636 39.0003 16.8307 40.17 17.21C40.9854 17.2969 41.7897 17.4678 42.57 17.72C43.2166 18.0945 43.8116 18.5517 44.34 19.08C46.6 20.96 47.5 22.56 50.8 22.08C52.28 21.86 53.7 20.7 55 20.01C56.88 19.01 57.09 19.53 58.83 19.35C59.2756 19.3435 59.7137 19.2339 60.11 19.03C61.35 18.22 61.71 17.03 62.54 16.03C62.8941 15.6529 63.29 15.3174 63.72 15.03C64.3432 14.6823 64.9413 14.2913 65.51 13.86C66.41 12.95 65.15 10.62 64.83 9.74001C64.7667 9.53984 64.7429 9.32925 64.76 9.12C64.7537 8.93659 64.8025 8.7555 64.9 8.60001C65.11 8.32001 65.64 8.22001 65.75 8.11001C65.7851 8.07152 65.8092 8.02428 65.8198 7.97324C65.8303 7.92221 65.827 7.86928 65.81 7.82001C65.7305 7.59376 65.6005 7.38858 65.43 7.22001C64.7502 6.58656 64.0322 5.99545 63.28 5.45001C62.13 4.63001 60.96 3.86001 59.74 3.15001C58.9703 2.68678 58.1562 2.30153 57.31 2.00001C56.31 1.67001 55.31 1.52001 54.31 1.28001C53.31 1.04001 52.31 0.650014 51.24 0.490014C50.7074 0.450045 50.1726 0.450045 49.64 0.490014C49.1117 0.483191 48.5841 0.446465 48.06 0.380013C47.39 0.300013 46.44 0.0100092 46.06 0.0400092C45.68 0.0700092 43.99 0.570009 42.95 0.790009C42.16 0.960009 41.34 0.990007 40.56 1.21001C39.6559 1.49501 38.7679 1.82883 37.9 2.21001C37.0951 2.51737 36.3103 2.87474 35.55 3.28001L35.6 3.29001ZM68.96 11.02C68.6571 10.6575 68.3225 10.3229 67.96 10.02C67.84 9.91001 66.87 9.34002 67.06 9.96002C67.32 10.88 67.86 11.84 68.16 12.88C68.39 13.67 68.35 14.25 67.6 14.67C66.85 15.09 66.13 15.12 65.77 16.1C65.41 17.08 65.13 18.25 64.77 19.3C64.3741 20.2611 63.7969 21.1371 63.07 21.88C62.9169 22.0321 62.8066 22.2218 62.75 22.43C62.67 23.04 63.65 24.17 64.2 24.35C65.3326 24.5976 66.5134 24.5001 67.59 24.07C68.59 23.75 68.95 23.07 69.65 22.66C70.35 22.25 72.11 22.66 72.57 22C72.8118 21.5647 72.9455 21.0777 72.96 20.58C72.9765 19.5783 72.9331 18.5765 72.83 17.58C72.6196 17.1282 72.386 16.6876 72.13 16.26C71.92 15.8 71.67 14.92 71.61 14.83C71.42 14.5 71.15 14.22 70.95 13.89C70.75 13.56 70.82 13.46 70.7 13.27C70.16 12.49 69.59 11.73 68.98 11L68.96 11.02ZM33.05 4.94001C32.13 5.94001 31.28 7.94001 30.86 8.18001C29.86 8.85001 29.23 9.07001 28.73 10.38C28.5942 10.6965 28.5196 11.0358 28.51 11.38C28.5183 11.4511 28.5423 11.5193 28.5804 11.5799C28.6184 11.6405 28.6696 11.6917 28.73 11.73C29.55 12.35 29.73 12.37 29.54 13.1C29.4495 13.4257 29.4024 13.762 29.4 14.1C29.3905 14.2404 29.4332 14.3793 29.52 14.49C29.6538 14.606 29.8231 14.673 30 14.68C30.52 14.73 31 14.68 31.56 14.68C32.12 14.68 32.3 15.11 32.56 15.57C32.82 16.03 32.87 16.27 33.07 16.57C33.27 16.87 33.49 16.95 33.63 17.19C34.02 17.89 34.25 18.68 34.63 19.38C34.7545 19.6115 34.9463 19.7997 35.18 19.92C35.49 20.06 35.86 20 36.18 20.11C36.5063 20.1922 36.8103 20.3459 37.07 20.56C37.48 20.94 37.7 21.5 38.07 21.9C38.6148 22.4618 39.2144 22.9676 39.86 23.41C40.1719 23.5746 40.5104 23.683 40.86 23.73C41.35 23.84 41.86 23.83 42.35 23.97C42.7078 24.0425 43.0477 24.1852 43.35 24.39C43.8915 24.8029 44.3906 25.2685 44.84 25.78C45.4564 26.6301 46.1243 27.4417 46.84 28.21C47.4319 28.6756 48.1124 29.0158 48.84 29.21C49.7516 29.4764 50.6914 29.6341 51.64 29.68C52.2611 29.714 52.8829 29.6257 53.47 29.42C54.68 28.99 55.76 28.22 56.96 27.78C57.6845 27.5355 58.4372 27.3842 59.2 27.33C60.046 27.2568 60.8975 27.2735 61.74 27.38C62.4238 27.4839 63.0944 27.6616 63.74 27.91C65 28.34 66.21 28.91 67.47 29.34C68.1686 29.6132 68.9027 29.7849 69.65 29.85C70.059 29.8416 70.452 29.6894 70.76 29.42C71.4947 28.7481 72.0162 27.8754 72.26 26.91C72.3531 26.6738 72.4669 26.4462 72.6 26.23C72.6672 26.089 72.7665 25.9657 72.89 25.87C73.02 25.79 73.25 25.87 73.44 25.82C73.81 25.65 73.89 25.19 73.86 24.68C74.0484 25.8905 74.1287 27.1153 74.1 28.34C74.16 29.08 74.43 30.1 74.49 30.52C74.49 30.69 73.87 31.74 73.68 32.39C73.41 33.3 73.43 34.28 73.12 35.16C72.8357 35.7796 72.5012 36.3749 72.12 36.94C71.83 37.46 71.61 38.01 71.28 38.51C69.9 40.67 68.28 40.93 65.96 40.51C63.2351 39.9914 60.4629 39.7634 57.69 39.83C52.23 39.9 50.94 41 46.5 42.32C45.4654 42.6283 44.398 42.8129 43.32 42.87C40.9552 42.8583 38.6274 42.2823 36.53 41.19C34.5689 40.3711 32.8135 39.128 31.39 37.55C30.802 36.6978 30.274 35.8056 29.81 34.88C29.2759 33.9415 28.6952 33.0304 28.07 32.15C27.44 31.34 26.69 30.65 26 29.9C25.6465 29.5487 25.3126 29.1782 25 28.79C24.7024 28.4124 24.4723 27.9861 24.32 27.53C23.879 25.7286 23.6375 23.8842 23.6 22.03C23.6868 21.3662 23.6868 20.6938 23.6 20.03C23.46 19.48 23.01 19.27 23.15 18.32C23.25 17.68 23.57 17.1 23.73 16.47C23.7818 15.9302 23.8754 15.3953 24.01 14.87C24.3701 14.1739 24.7812 13.5054 25.24 12.87C25.4157 12.6115 25.5728 12.3409 25.71 12.06C25.8617 11.6763 26.067 11.316 26.32 10.99C26.5345 10.7881 26.7653 10.6041 27.01 10.44C27.51 9.99001 27.81 9.36001 28.27 8.87001C28.57 8.54001 28.96 8.30001 29.27 7.97001C29.58 7.64001 29.67 7.36001 29.93 7.12001C30.8983 6.3209 31.9396 5.61447 33.04 5.01001L33.05 4.94001ZM51.35 42.77C50.7597 42.6198 50.1389 42.6406 49.56 42.83C48.5924 43.167 47.6664 43.6132 46.8 44.16C46.12 44.61 45.7 45.16 46.39 45.95C47.68 47.47 51.24 48.37 53.9 47.83C55.23 47.56 56.72 46.83 57.97 46.61C58.63 46.51 59.31 46.7 59.97 46.61C60.5008 46.4968 61.0126 46.3082 61.49 46.05C62.33 45.67 64.24 44.65 64.57 43.67C64.6376 43.3997 64.6129 43.1147 64.5 42.86C64.4063 42.6869 64.2482 42.5576 64.06 42.5C62.4381 42.0005 60.7563 41.7213 59.06 41.67C58.4896 41.6416 57.918 41.6886 57.36 41.81C57.11 41.87 56.01 42.71 55.43 42.92C53.67 43.53 52.98 43.12 51.3 42.79L51.35 42.77ZM23.86 38.05C24.6475 39.0893 25.6417 39.9541 26.78 40.59C27.3 40.84 27.84 41.05 28.39 41.25C29.39 41.62 30.39 42 31.39 42.25C32.39 42.5 33.68 42.67 34.78 43.03C35.33 43.22 35.73 43.88 36.31 43.87C37.6774 43.848 39.0361 44.0925 40.31 44.59C43.31 45.79 45.52 47.23 48.31 48.53C49.018 48.871 49.7629 49.1294 50.53 49.3C51.1858 49.4475 51.8587 49.5047 52.53 49.47C53.2368 49.3816 53.9357 49.2379 54.62 49.04C55.48 48.86 56.35 48.71 57.2 48.49C57.5247 48.3416 57.8587 48.2147 58.2 48.11C58.5936 48.1255 58.9852 48.1757 59.37 48.26C59.9013 48.325 60.4386 48.325 60.97 48.26C61.4592 48.1344 61.9228 47.9246 62.34 47.64C62.89 47.28 63.34 46.79 63.85 46.38C64.59 45.79 65.34 45.22 66.09 44.63C66.84 44.04 67.35 43.7 67.94 43.18C68.6023 42.5478 69.2299 41.8801 69.82 41.18C70.06 40.92 69.98 41.18 69.94 41.24C69.4687 42.1661 68.9445 43.0642 68.37 43.93C68.13 44.24 67.78 44.45 67.51 44.74C65.29 47.11 62.35 50.34 59.16 51.39C59.02 51.39 57.84 51.54 57.16 51.73C56.35 51.97 55.61 52.38 54.82 52.67C53.522 53.2213 52.185 53.6758 50.82 54.03C49.92 54.2 47.28 53.64 46.13 53.6C44.98 53.56 43.07 53.76 42.89 53.69C41.71 53.2 39.89 52.36 38.33 51.77C37.85 51.59 36.88 51.34 36.79 51.29C36.03 50.85 35.4 50.39 34.62 49.98C33.62 49.45 32.53 49.19 31.62 48.57C30.7626 47.9463 29.9747 47.2322 29.27 46.44C27.9313 45.1901 26.6941 43.8359 25.57 42.39C24.9208 41.3297 24.394 40.1992 24 39.02C23.87 38.71 23.69 38.02 23.79 38.02L23.86 38.05ZM22.52 20.48C21.8761 21.7116 21.4338 23.0384 21.21 24.41C21.1752 24.9061 21.1752 25.404 21.21 25.9C21.21 26.46 21.02 27.02 21.04 27.58C21.0735 28.6338 21.1872 29.6835 21.38 30.72C21.5577 31.8541 21.8526 32.9668 22.26 34.04C22.37 34.3 22.77 34.3 22.97 34.5C23.3749 34.8866 23.737 35.3158 24.05 35.78C24.3266 36.3689 24.6337 36.943 24.97 37.5C25.308 37.8377 25.7135 38.1001 26.16 38.27C26.48 38.42 26.87 38.68 27.16 38.53C27.3231 38.4192 27.4567 38.2701 27.5491 38.0958C27.6415 37.9215 27.6898 37.7273 27.69 37.53C27.6104 36.9802 27.4521 36.4447 27.22 35.94C27.1127 35.2072 26.9215 34.4891 26.65 33.8C26.1639 33.1567 25.6218 32.5577 25.03 32.01C24.7287 31.7136 24.4696 31.3771 24.26 31.01C23.86 30.18 23.64 29.27 23.26 28.41C22.9603 27.8775 22.7189 27.3143 22.54 26.73C22.529 25.896 22.5926 25.0627 22.73 24.24C22.73 23.06 21.85 22 22.41 20.51L22.52 20.48Z" fill="url(#paint3_radial_4_5446)"/>
<path style="mix-blend-mode:multiply" fill-rule="evenodd" clip-rule="evenodd" d="M53.71 2.01C55.05 3.01 56.49 5.20999 57.85 5.88999C58.33 6.13999 61.44 5.88999 61.26 6.78999C61.15 7.31999 60.12 7.39 59.51 7.6C58.68 7.88 58.89 8.45999 59.34 8.74999C60.5857 9.45335 61.794 10.2211 62.96 11.05C63.7538 11.6921 64.4569 12.4389 65.05 13.27C65.1907 13.4676 65.305 13.6828 65.39 13.91L65.54 13.78C66.44 12.87 65.18 10.54 64.86 9.66C64.7967 9.45982 64.7729 9.24925 64.79 9.04C64.7837 8.85658 64.8325 8.67549 64.93 8.52C65.14 8.24 65.67 8.13999 65.78 8.02999C65.8151 7.9915 65.8392 7.94427 65.8498 7.89323C65.8603 7.8422 65.857 7.78927 65.84 7.74C65.7605 7.51375 65.6305 7.30856 65.46 7.13999C64.7802 6.50655 64.0622 5.91544 63.31 5.37C62.16 4.55 60.99 3.77999 59.77 3.06999C59.0003 2.60676 58.1862 2.22152 57.34 1.92C56.34 1.59 55.34 1.44 54.34 1.2C53.34 0.959998 52.34 0.569997 51.27 0.409997C50.7374 0.370028 50.2026 0.370028 49.67 0.409997C49.1417 0.403174 48.6142 0.366448 48.09 0.299996C47.42 0.219996 46.47 -0.0700079 46.09 -0.0400079C45.71 -0.0100079 44.02 0.489992 42.98 0.709992C42.19 0.879992 41.37 0.909998 40.59 1.13C39.6859 1.415 38.7979 1.74883 37.93 2.13C37.1328 2.4363 36.3547 2.79027 35.6 3.19C36.7531 2.73098 37.9357 2.35012 39.14 2.05C42.01 0.989996 41.14 1.52999 43.63 1.21999C44.19 1.14999 44.63 0.719999 45.23 0.669999C45.6927 0.67523 46.1492 0.777424 46.57 0.969994C48.25 1.51999 47.77 1.73 49.86 1.63C50.6067 1.49352 51.3617 1.40666 52.12 1.37C52.6831 1.40981 53.2252 1.59973 53.69 1.92L53.71 2.01ZM68.19 12.94C68.42 13.73 68.38 14.31 67.63 14.73C67.1273 14.9284 66.6505 15.187 66.21 15.5C66.96 16.41 68.21 17.33 68.63 18.05C68.8862 18.4727 68.992 18.9696 68.93 19.46C68.73 20.69 68.14 21.83 67.82 23.04C67.7199 23.3986 67.6398 23.7625 67.58 24.13C68.58 23.8 68.93 23.13 69.63 22.72C70.33 22.31 72.09 22.72 72.55 22.06C72.7918 21.6247 72.9256 21.1377 72.94 20.64C72.9565 19.6383 72.9131 18.6365 72.81 17.64C72.5996 17.1882 72.366 16.7476 72.11 16.32C71.9 15.86 71.65 14.98 71.59 14.89C71.4 14.56 71.13 14.28 70.93 13.95C70.73 13.62 70.8 13.52 70.68 13.33C70.14 12.55 69.57 11.79 68.96 11.06C68.6571 10.6975 68.3225 10.3628 67.96 10.06C67.84 9.94999 66.87 9.37999 67.06 9.99999C67.32 10.92 67.86 11.88 68.16 12.92L68.19 12.94ZM70.82 29.33C70.512 29.5994 70.119 29.7516 69.71 29.76C69.1472 29.721 68.5923 29.6067 68.06 29.42C68.246 30.9433 67.8218 32.4784 66.88 33.69C66.1642 34.4284 65.3808 35.098 64.54 35.69C63.88 36.28 63.22 36.87 62.62 37.52C61.9922 38.2384 61.43 39.0114 60.94 39.83C62.6165 39.9523 64.2855 40.1626 65.94 40.46C68.3 40.85 69.88 40.59 71.26 38.46C71.59 37.96 71.81 37.41 72.1 36.89C72.5048 36.3078 72.8594 35.6922 73.16 35.05C73.47 34.17 73.45 33.19 73.72 32.28C73.91 31.63 74.55 30.58 74.53 30.41C74.47 29.99 74.2 28.97 74.14 28.23C74.1687 27.0053 74.0884 25.7805 73.9 24.57C73.9 25.08 73.9 25.57 73.48 25.71C73.29 25.8 73.06 25.71 72.93 25.76C72.8065 25.8557 72.7072 25.979 72.64 26.12C72.5069 26.3362 72.3931 26.5638 72.3 26.8C72.0562 27.7654 71.5347 28.638 70.8 29.31L70.82 29.33ZM64.06 42.46C62.6584 42.018 61.2072 41.7527 59.74 41.67L59.68 41.75C58.7842 42.9976 57.5583 43.9707 56.14 44.56C55.24 44.91 54.25 44.97 53.33 45.24C51.89 45.68 49.87 46.69 48.13 47.13C49.9482 47.9057 51.9513 48.1417 53.9 47.81C55.23 47.54 56.72 46.81 57.97 46.59C58.63 46.49 59.31 46.68 59.97 46.59C60.5008 46.4768 61.0126 46.2882 61.49 46.03C62.33 45.65 64.24 44.63 64.57 43.65C64.6376 43.3797 64.6129 43.0946 64.5 42.84C64.4063 42.6669 64.2482 42.5376 64.06 42.48V42.46ZM57.22 48.51C56.37 48.73 55.5 48.88 54.64 49.06C53.9557 49.2578 53.2568 49.4016 52.55 49.49C51.8787 49.5247 51.2058 49.4675 50.55 49.32C49.7829 49.1494 49.038 48.891 48.33 48.55C47.39 48.11 46.51 47.65 45.65 47.19C43.72 46.73 42.24 45.89 39.94 45.67C39.1741 45.72 38.4058 45.72 37.64 45.67C36.4039 45.3984 35.2122 44.954 34.1 44.35C32.8326 43.7376 31.6578 42.9499 30.61 42.01C29.88 41.77 29.15 41.5 28.43 41.23C27.88 41.03 27.34 40.82 26.82 40.57C25.6817 39.9341 24.6875 39.0692 23.9 38.03C23.8 38.03 23.98 38.69 24.11 39.03C24.504 40.2091 25.0308 41.3397 25.68 42.4C26.8041 43.8459 28.0413 45.2001 29.38 46.45C30.0847 47.2422 30.8726 47.9563 31.73 48.58C32.66 49.2 33.73 49.46 34.73 49.99C35.51 50.4 36.14 50.86 36.9 51.3C36.99 51.35 37.96 51.6 38.44 51.78C39.98 52.37 41.82 53.21 43 53.7C43.18 53.77 45.16 53.57 46.24 53.61C47.32 53.65 50.03 54.21 50.93 54.04C52.295 53.6858 53.632 53.2313 54.93 52.68C55.72 52.39 56.46 51.98 57.27 51.74C57.91 51.55 59.09 51.44 59.27 51.4C62.46 50.4 65.4 47.12 67.62 44.75C67.89 44.46 68.24 44.25 68.48 43.94C69.0545 43.0742 69.5787 42.176 70.05 41.25C70.05 41.19 70.17 40.93 69.93 41.19C69.3399 41.8901 68.7123 42.5578 68.05 43.19C67.46 43.71 66.81 44.19 66.2 44.64C65.59 45.09 64.7 45.8 63.96 46.39C63.45 46.8 62.96 47.29 62.45 47.65C62.0328 47.9346 61.5692 48.1444 61.08 48.27C60.5486 48.335 60.0113 48.335 59.48 48.27C59.0952 48.1856 58.7036 48.1354 58.31 48.12C57.9687 48.2247 57.6347 48.3516 57.31 48.5L57.22 48.51ZM26.6 36.12C26.09 35.45 25.23 35.12 24.81 34.33C23.09 31.27 22.74 29.81 22.81 27.4C22.6962 27.1841 22.6185 26.951 22.58 26.71C22.569 25.876 22.6326 25.0427 22.77 24.22C22.77 23.04 21.89 21.98 22.45 20.49C21.8061 21.7216 21.3638 23.0484 21.14 24.42C21.1052 24.916 21.1052 25.4139 21.14 25.91C21.14 26.47 20.95 27.03 20.97 27.59C21.0035 28.6438 21.1172 29.6935 21.31 30.73C21.4877 31.8641 21.7826 32.9768 22.19 34.05C22.3 34.31 22.7 34.31 22.9 34.51C23.3049 34.8966 23.667 35.3258 23.98 35.79C24.2566 36.3789 24.5637 36.953 24.9 37.51C25.238 37.8477 25.6435 38.11 26.09 38.28C26.41 38.43 26.8 38.69 27.09 38.54C27.2234 38.4547 27.3371 38.3419 27.4233 38.2091C27.5096 38.0763 27.5664 37.9266 27.59 37.77C27.2617 37.1999 26.9011 36.649 26.51 36.12H26.6Z" fill="url(#paint4_radial_4_5446)"/>
<path style="mix-blend-mode:multiply" opacity="0.5" fill-rule="evenodd" clip-rule="evenodd" d="M25.41 18.67C25.81 17.74 27.78 19.25 28.08 19.72C29.08 21.2 28.61 22.72 28.99 24.28C29.2685 25.1337 29.7897 25.8878 30.49 26.45C30.5363 26.5187 30.5567 26.6017 30.5476 26.6842C30.5384 26.7666 30.5003 26.8431 30.44 26.9C30.3494 26.949 30.248 26.9747 30.145 26.9747C30.042 26.9747 29.9406 26.949 29.85 26.9C28.6001 26.4158 27.5334 25.552 26.8 24.43C26.22 23.26 26.64 21.95 26.35 21.1C26.22 20.71 25.82 20.46 25.54 20.15C25.3748 19.9358 25.2747 19.6786 25.2517 19.4091C25.2286 19.1396 25.2836 18.8691 25.41 18.63V18.67ZM41.69 4.73998C41.46 4.20998 39.62 3.51998 40.77 2.32998C41.1501 1.95691 41.5894 1.64941 42.07 1.41998C42.9705 0.981789 43.8992 0.604276 44.85 0.289978C44.24 0.449978 43.53 0.629977 43 0.749977H42.71C42.1584 0.8498 41.6187 1.00733 41.1 1.21998C38.88 2.13998 37.1 3.07998 36.73 3.80998C36.7089 3.85495 36.6922 3.90183 36.68 3.94998C36.6743 4.04377 36.701 4.13666 36.7556 4.21311C36.8102 4.28957 36.8895 4.34494 36.98 4.36998C38.0913 4.58393 39.2127 4.7408 40.34 4.83998C40.71 4.83998 40.85 5.02998 40.84 5.17998C40.8268 5.27405 40.7895 5.3631 40.7317 5.43845C40.6738 5.51381 40.5975 5.5729 40.51 5.60998C39.17 6.35998 35.07 8.66997 35.78 10.81C36.13 11.81 39.19 10.81 41.32 12.51C42.07 13.1 42.43 14.08 43.16 14.69C45.07 16.31 47.04 14.39 49.47 15.07C50.29 15.3 50.85 16.07 51.64 16.44C52.4822 16.733 53.3889 16.7882 54.2604 16.5994C55.1319 16.4106 55.9345 15.9852 56.58 15.37C57.15 14.81 56.82 13.76 57.22 13.07C57.4966 12.6319 57.8693 12.2625 58.31 11.99C59.63 11.1 61.4 10.66 61.31 9.35998C61.25 8.35998 59.79 7.02998 59.78 6.28998C59.8495 5.68176 59.9665 5.07993 60.13 4.48998C60.1525 4.19899 60.1011 3.90702 59.9805 3.64125C59.8598 3.37549 59.6739 3.14456 59.44 2.96998C59.2104 2.74698 58.9472 2.56139 58.66 2.41998C58.2307 2.21195 57.79 2.02832 57.34 1.86998C56.4685 1.60754 55.584 1.39058 54.69 1.21998L55.2 1.38998C56.11 1.68998 58.28 2.50998 58.67 3.73998C58.723 3.90375 58.7432 4.07635 58.7295 4.24794C58.7158 4.41953 58.6684 4.58673 58.59 4.73998C58.34 5.24998 56.28 6.51998 57.27 7.11998C60.84 9.31998 58.72 9.11999 57.18 11.04L56.99 11.31C55.86 13.03 56.88 14.46 52.88 14.07C51.88 13.98 49.97 13.39 49.3 13.43C47.92 13.5 46.58 14.03 45.2 14.03C44.6286 13.9905 44.082 13.7816 43.63 13.43C42.8 12.87 42.81 11.93 41.2 11.43C36.34 9.92999 40.3 7.48998 41.41 5.83998C41.521 5.69996 41.6119 5.54513 41.68 5.37998C41.7301 5.27188 41.7561 5.15414 41.7561 5.03498C41.7561 4.91582 41.7301 4.79808 41.68 4.68998L41.69 4.73998ZM47.03 16.43C44.9 16.96 47.78 18.21 48.5 18.76C49.5 19.52 50.38 20.06 50.76 19.6C51.14 19.14 50.29 17.47 50 17.08C49.42 16.3 48 16.19 47 16.43H47.03ZM67.74 16.31C67.426 16.413 67.1366 16.5799 66.89 16.8C66.8081 16.8819 66.7313 16.9687 66.66 17.06C66.5171 17.2591 66.412 17.4828 66.35 17.72C66.17 18.47 66.35 19.3 66.1 20.04C65.9069 20.5322 65.5901 20.9662 65.18 21.3C64.7503 21.6455 64.2673 21.9191 63.75 22.11C62.86 22.47 64.15 22.38 65.2 22.17C66.09 21.99 67.92 21.31 67.91 20.17C67.91 19.46 67.52 18.79 67.48 18.08C67.4652 17.9471 67.4652 17.8129 67.48 17.68C67.5246 17.5176 67.5992 17.3649 67.7 17.23C67.9176 16.9816 68.1971 16.7953 68.51 16.69C69.0264 16.5826 69.5371 16.4491 70.04 16.29C70.2506 16.1569 70.4039 15.9501 70.47 15.71C70.5012 15.6315 70.5279 15.5514 70.55 15.47C70.6167 15.2151 70.6536 14.9534 70.66 14.69C70.6683 14.4257 70.6515 14.1612 70.61 13.9C70.5268 13.3339 70.3034 12.7976 69.96 12.34C69.62 11.89 69.28 11.45 68.96 11.02L68.87 10.92C69.2374 11.6943 69.5515 12.4928 69.81 13.31C69.8953 13.6368 69.9422 13.9723 69.95 14.31C69.965 14.5431 69.965 14.7769 69.95 15.01C69.9579 15.1497 69.933 15.2893 69.8775 15.4178C69.8219 15.5463 69.7372 15.66 69.63 15.75C69.0268 16.0081 68.4008 16.209 67.76 16.35L67.74 16.31ZM32.64 19.19C32.39 18.62 29.08 16.85 28.21 15.82C27.83 15.37 28.1 14.63 27.91 14.07C27.7807 13.761 27.6091 13.4716 27.4 13.21C27.2212 12.9913 27.1038 12.729 27.06 12.45C27.0411 12.2872 27.0411 12.1228 27.06 11.96C27.2698 10.7419 27.7443 9.58472 28.45 8.56998L28.26 8.76998C27.8 9.25998 27.5 9.88997 27 10.34C26.6489 10.6491 26.3749 11.0361 26.2 11.47C26.1313 11.6304 26.081 11.7982 26.05 11.97C26.0521 12.3779 26.0788 12.7853 26.13 13.19C26.135 13.2499 26.135 13.3101 26.13 13.37C26.03 14.16 25.58 14.99 25.87 15.72C26.482 16.7324 27.3037 17.6019 28.28 18.27C28.6997 18.5939 29.0761 18.9703 29.4 19.39C29.7808 20.037 30.0385 20.7491 30.16 21.49C30.45 22.64 30.08 24.05 30.8 24.98C31.8 26.3 33.53 26.9 34.98 27.71C36.996 28.755 38.9196 29.9693 40.73 31.34L41.88 32.18C42.617 32.7583 43.4191 33.2483 44.27 33.64C46.7754 34.5708 49.4613 34.9129 52.12 34.64C52.9764 34.5823 53.8127 34.3545 54.58 33.97C55.29 33.56 55.47 33.09 54.26 33.37C53.05 33.65 48.65 33.87 46.26 31.97C45.42 31.28 44.8 30.36 44 29.62C43.7381 29.3489 43.4161 29.1434 43.06 29.02C39.96 28.18 37.64 28.93 35.56 26.13C32.93 22.56 33.87 21.76 32.66 19.13L32.64 19.19ZM51.46 37.56C46.46 37.42 46.09 36.72 41.83 35.56C41.42 35.45 40.96 35.66 40.55 35.56C39.34 35.27 38.7 34.11 37.74 33.18C37.4385 32.9014 37.1024 32.6627 36.74 32.47C36.1892 32.1166 35.5616 31.9005 34.91 31.84C34.69 31.84 34.36 31.84 34.3 32.08C34.24 32.32 34.56 32.47 34.72 32.54C37.82 33.86 38.37 37.42 41.26 37.44C41.88 37.44 42.49 37.16 43.11 37.16C46.21 37.16 47.97 38.31 50.61 38.63C51.19 38.7 51.74 38.31 52.32 38.27C53.32 38.2 54.41 38.44 55.45 38.27C56.49 38.1 57.71 37.68 58.86 37.44C60.73 37.06 62.03 37.7 63.86 37.44C64.27 37.38 64.6 37.03 65.01 36.99C66.45 36.87 67.24 37.4 69.06 36.91C69.2818 36.8356 69.4909 36.7277 69.68 36.59C69.9183 36.3959 70.2055 36.2713 70.51 36.23C70.8 36.23 71.1 36.23 71.41 36.16H71.54C71.9511 36.1068 72.3356 35.9271 72.6401 35.6458C72.9447 35.3645 73.1543 34.9956 73.24 34.59C73.34 34.17 73.39 33.73 73.46 33.3C73.3426 33.6558 73.14 33.9776 72.8698 34.2372C72.5997 34.4969 72.2702 34.6867 71.91 34.79C71.6951 34.8804 71.4746 34.9572 71.25 35.02C70.61 35.22 69.9 35.13 69.25 35.32L68.6 35.53C66.78 36.17 66.35 36.75 63.71 36.77C61.95 36.77 60.25 36.03 58.64 35.96C57.8738 35.958 57.1117 36.0726 56.38 36.3C54.38 36.86 53.9 37.6 51.38 37.54L51.46 37.56Z" fill="url(#paint5_radial_4_5446)"/>
<path style="mix-blend-mode:screen" fill-rule="evenodd" clip-rule="evenodd" d="M33.07 16.47C32.87 16.15 32.75 15.78 32.56 15.47C32.37 15.16 32.15 14.64 31.56 14.58C30.97 14.52 30.56 14.64 30 14.58C29.8231 14.573 29.6538 14.506 29.52 14.39C29.4332 14.2793 29.3905 14.1404 29.4 14C29.4025 13.662 29.4495 13.3257 29.54 13C29.71 12.27 29.54 12.25 28.73 11.63C28.631 11.5669 28.5568 11.4715 28.52 11.36C28.52 11.36 28.11 11.64 27.85 12C27.5671 12.3855 27.3162 12.7935 27.1 13.22C26.62 14.22 26.55 15.36 26.1 16.38C25.65 17.4 24.94 18.22 24.57 19.23C24.168 20.2542 23.9219 21.3328 23.84 22.43C23.8184 23.4209 23.9328 24.4101 24.18 25.37C24.4487 26.4394 24.7827 27.4914 25.18 28.52C25.27 28.79 25.35 29.07 25.44 29.34C25.53 29.61 25.81 29.71 25.99 29.91C26.68 30.66 27.43 31.35 28.06 32.16C28.6852 33.0404 29.266 33.9515 29.8 34.89V34.95C30.2962 35.2305 30.8187 35.4616 31.36 35.64C32.9217 36.1756 34.5384 36.5345 36.18 36.71C37.3929 36.7982 38.6122 36.7106 39.8 36.45C41.22 36.16 42.54 35.51 43.93 35.13C44.8273 35.0431 45.7145 34.8723 46.58 34.62C47.7474 34.0091 48.8216 33.2346 49.77 32.32C50.23 31.9 50.4 31.25 50.77 30.78C51.1406 30.3545 51.5453 29.9598 51.98 29.6H51.58C50.6314 29.5541 49.6916 29.3964 48.78 29.13C48.0524 28.9358 47.3719 28.5956 46.78 28.13C46.0643 27.3616 45.3964 26.5501 44.78 25.7C44.3306 25.1885 43.8315 24.7228 43.29 24.31C42.9877 24.1052 42.6478 23.9625 42.29 23.89C41.8 23.75 41.29 23.76 40.8 23.65C40.4504 23.603 40.1119 23.4946 39.8 23.33C39.1545 22.8876 38.5548 22.3818 38.01 21.82C37.62 21.42 37.4 20.82 37.01 20.48C36.7504 20.2659 36.4464 20.1122 36.12 20.03C35.79 19.92 35.42 20.03 35.12 19.84C34.8863 19.7197 34.6945 19.5315 34.57 19.3C34.17 18.6 33.94 17.81 33.57 17.11C33.43 16.87 33.16 16.72 33.01 16.49L33.07 16.47ZM36.27 14.01C36.61 14.38 36.76 14.89 37.13 15.23C37.9747 16.1236 39.0303 16.7907 40.2 17.17C41.0154 17.2569 41.8197 17.4278 42.6 17.68C43.2466 18.0545 43.8416 18.5117 44.37 19.04C46.63 20.92 47.53 22.52 50.83 22.04C52.31 21.82 53.73 20.66 55.03 19.97C55.277 19.8371 55.5307 19.717 55.79 19.61C56.259 19.4258 56.6814 19.1402 57.0271 18.7737C57.3729 18.4072 57.6334 17.9689 57.79 17.49C57.92 17.11 58.05 16.72 58.16 16.32C58.4254 15.6128 58.5675 14.8653 58.58 14.11C58.4136 13.0269 58.076 11.9771 57.58 11C57.3086 10.5441 56.9938 10.1154 56.64 9.72C56.0391 8.60077 55.3712 7.51881 54.64 6.48C53.945 5.64451 53.109 4.93716 52.17 4.39C51.2592 3.99493 50.3156 3.6804 49.35 3.45C48.95 3.31 48.59 3.09 48.18 2.96C47.5304 2.7334 46.8607 2.56932 46.18 2.47C45.512 2.43343 44.842 2.46358 44.18 2.56001C43.3945 2.62175 42.6132 2.72859 41.84 2.88001C40.8018 3.06042 39.7764 3.3076 38.77 3.62C38.2714 3.84681 37.7872 4.10396 37.32 4.39C36.7705 4.56844 36.2355 4.7891 35.72 5.05C35.23 5.38 34.95 5.97 34.46 6.33C34.3568 6.40174 34.2462 6.4621 34.13 6.51C33.7739 6.65805 33.451 6.87563 33.18 7.15C32.8927 7.42741 32.6253 7.72482 32.38 8.04C32.01 8.54 31.3 10.37 31.57 11.04C31.7076 11.3566 31.9289 11.6297 32.21 11.83C32.78 12.2 34.14 12.4 34.94 12.89C35.4487 13.2187 35.9126 13.6119 36.32 14.06L36.27 14.01Z" fill="url(#paint6_radial_4_5446)"/>
<g style="mix-blend-mode:screen" opacity="0.5">
<path fill-rule="evenodd" clip-rule="evenodd" d="M35.96 41.47C35.0144 41.1046 34.0897 40.6873 33.19 40.22C32.458 39.8339 31.7846 39.3457 31.19 38.77C30.7792 38.249 30.4426 37.6735 30.19 37.06C29.62 35.94 29.09 35.06 28.57 34.06C28.35 33.66 28.39 33.13 28.12 32.76C27.8639 32.4681 27.5416 32.2417 27.18 32.1C27.1063 32.0497 27.0226 32.0157 26.9347 32.0002C26.8468 31.9846 26.7566 31.988 26.67 32.01C26.6101 32.0576 26.5664 32.1225 26.5449 32.1959C26.5234 32.2694 26.5252 32.3476 26.55 32.42C26.69 32.81 27.07 33.07 27.21 33.42C27.35 33.77 27.29 34.42 27.42 34.91C27.5307 35.2597 27.6818 35.5952 27.87 35.91C28.0552 36.25 28.2124 36.6045 28.34 36.97C28.42 37.25 28.34 37.55 28.46 37.83C28.7 38.48 29.25 39 29.46 39.66C29.75 40.57 28.6 40.13 28.25 39.94C27.6 39.59 27.05 39.09 26.42 38.72C26.24 38.61 26.03 38.46 25.82 38.51C25.61 38.56 25.82 38.75 25.82 38.85C25.9456 39.2149 26.1666 39.5395 26.46 39.79C27.0473 40.033 27.6524 40.2302 28.27 40.38C28.57 40.51 28.77 40.81 29.08 40.89C30.21 41.21 31.15 40.94 32.73 41.51C33.02 41.62 33.3 41.77 33.6 41.88C33.8972 41.9361 34.1884 42.0198 34.47 42.13C34.94 42.4 35.27 42.91 35.77 43.13C36.27 43.35 38.77 43.4 38.97 42.95C39.17 42.5 36.77 41.83 35.96 41.47ZM26.32 31.8C26.47 31.75 26.65 31.63 26.66 31.48C26.6745 31.2074 26.5852 30.9394 26.41 30.73C26.14 30.44 25.68 30.37 25.41 30.07C25.14 29.77 24.88 28.88 24.24 28.26C24.19 28.26 24.06 28.2 24.03 28.26C23.975 28.4118 23.975 28.5782 24.03 28.73C24.2312 29.4255 24.5096 30.0964 24.86 30.73C24.99 30.93 25.31 30.92 25.48 31.09C25.65 31.26 25.68 31.62 25.88 31.8C25.9478 31.8359 26.0233 31.8547 26.1 31.8547C26.1767 31.8547 26.2523 31.8359 26.32 31.8ZM48.52 41.94C47.62 42.23 46.76 42.67 45.86 42.94C45.2473 43.13 44.6178 43.2606 43.98 43.33C43.5528 43.3582 43.1238 43.3414 42.7 43.28C42.06 43.22 41.43 43.07 40.78 43.01C40.5095 42.9551 40.2306 42.9551 39.96 43.01C39.67 43.1 39.8 43.23 39.88 43.26C40.2 43.4 40.57 43.52 40.88 43.69C41.4722 44.0608 42.0867 44.3948 42.72 44.69C42.93 44.77 43.25 44.6 43.44 44.69C44.13 45.06 44.62 45.69 45.27 46.16C45.6195 46.3979 46.0091 46.5706 46.42 46.67C46.42 46.67 46.59 46.67 46.42 46.56C46.0193 46.2465 45.6946 45.8465 45.47 45.39C45.3517 45.1297 45.327 44.8365 45.4 44.56C45.4657 44.3087 45.6092 44.0847 45.81 43.92C46.3518 43.546 46.92 43.2118 47.51 42.92C47.98 42.66 48.51 42.45 48.94 42.15C49 42.15 49.05 41.97 48.94 41.94C48.803 41.8994 48.6571 41.8994 48.52 41.94ZM56.75 40.69C56.3209 40.5508 55.871 40.4865 55.42 40.5C55.12 40.5 54.82 40.59 54.51 40.58C54.2 40.57 54.08 40.44 53.85 40.43C52.6594 40.5373 51.4923 40.8274 50.39 41.29C50.24 41.35 50.04 41.47 50.05 41.62C50.06 41.77 50.3 41.72 50.42 41.7C50.8628 41.5779 51.3209 41.5206 51.78 41.53C52 41.53 52.22 41.53 52.45 41.53C52.68 41.53 52.83 41.41 53.03 41.46C53.23 41.51 53.57 41.82 53.86 41.96C54.112 42.1108 54.3902 42.2126 54.68 42.26C55.38 42.26 58.52 41.39 56.74 40.66L56.75 40.69ZM34.7 17.56C34.64 17.51 34.51 17.56 34.5 17.65C34.4886 17.9325 34.5328 18.2145 34.63 18.48C34.732 18.7649 34.8844 19.0291 35.08 19.26C35.2513 19.4035 35.4521 19.5075 35.6682 19.5645C35.8842 19.6216 36.1102 19.6303 36.33 19.59C36.56 19.54 36.55 19.06 36.41 18.91C36.27 18.76 35.79 18.61 35.53 18.4C35.27 18.19 35.02 17.81 34.69 17.53L34.7 17.56ZM30.64 11.79C30.81 11.87 30.83 12.14 30.81 12.32C30.81 12.66 30.51 12.96 30.49 13.32C30.4834 13.4128 30.5022 13.5056 30.5445 13.5885C30.5868 13.6713 30.651 13.741 30.73 13.79C31.23 14.06 31.85 14.07 32.37 14.32C32.63 14.45 32.77 14.76 33.03 14.92C34.15 15.61 34.81 15.51 35.88 16.82C36.16 17.298 36.4956 17.7411 36.88 18.14C37.3394 18.4343 37.8587 18.6222 38.4 18.69C39.1406 18.7758 39.8688 18.9469 40.57 19.2C40.89 19.37 41.15 19.83 41.47 20C42.207 20.3735 42.977 20.6781 43.77 20.91C44.4372 21.0702 45.082 21.312 45.69 21.63C47.31 22.7 47.19 23.95 50.4 24.36C52.22 24.59 52.81 23.36 53.81 22.48C54.3632 22.0013 54.9478 21.5604 55.56 21.16C55.89 20.95 56.3 20.89 56.62 20.67C56.77 20.57 57.02 20.39 56.94 20.23C56.86 20.07 56.54 20.05 56.35 20.1C55.6766 20.292 55.026 20.5569 54.41 20.89C53.66 21.26 52.98 21.78 52.23 22.14C51.4144 22.6299 50.4706 22.8641 49.5205 22.8124C48.5705 22.7607 47.6577 22.4255 46.9 21.85C45.61 20.85 44.5 19.64 43.24 18.61C42.8491 18.2543 42.4034 17.9639 41.92 17.75C41.4753 17.6571 41.0239 17.6002 40.57 17.58C39.8865 17.5069 39.2146 17.349 38.57 17.11C36.9922 16.4226 35.6725 15.2535 34.8 13.77C34.6382 13.4743 34.4128 13.2181 34.14 13.02C33.5791 12.7718 33.0009 12.5646 32.41 12.4C31.9826 12.3196 31.5729 12.1638 31.2 11.94C30.9309 11.6686 30.7556 11.3182 30.7 10.94C30.6673 10.2741 30.8651 9.61719 31.26 9.08C31.45 8.81 31.71 8.58 31.91 8.32C31.91 8.26 32.05 8.16 31.99 8.12C31.93 8.08 31.81 8.12 31.74 8.2C31.41 8.49 31.15 8.85 30.81 9.13C30 9.79 29.17 10.24 28.96 10.96C28.91 11.14 28.88 11.41 29.04 11.5C29.52 11.65 30.14 11.51 30.63 11.76L30.64 11.79ZM67.52 24.67C66.52 24.78 65.47 25.01 64.43 25.1C64.097 25.1741 63.7495 25.1498 63.43 25.03C63.18 24.9 63.25 24.46 63.02 24.29C62.58 23.94 61.89 23.96 61.51 23.54C61.32 23.33 61.45 22.95 61.51 22.69C61.695 22.3177 61.9418 21.9796 62.24 21.69C62.52 21.38 62.91 21.19 63.18 20.88C63.4489 20.5408 63.6834 20.1756 63.88 19.79C64.1427 19.3062 64.3797 18.8088 64.59 18.3C64.59 18.2 64.69 18.07 64.59 17.99C64.49 17.91 64.39 17.99 64.33 18.04C64.1029 18.2962 63.8925 18.5668 63.7 18.85C63.5391 19.0818 63.3584 19.2993 63.16 19.5C62.8167 19.8044 62.4331 20.0602 62.02 20.26C61.38 20.56 60.6 20.54 60.02 20.96C59.44 21.38 59.45 22.05 59.02 22.48C58.26 23.24 57.21 23.68 56.51 24.48C56.3734 24.6303 56.2829 24.8168 56.2492 25.0171C56.2155 25.2175 56.2401 25.4232 56.32 25.61C56.49 25.89 56.97 25.81 57.32 25.76C58.47 25.56 59.56 25.02 60.73 24.86C61.0896 24.8527 61.4415 24.9653 61.73 25.18C62.08 25.41 62.22 25.9 62.6 26.08C63.0221 26.2623 63.4908 26.3078 63.94 26.21C64.45 26.1 64.82 25.65 65.31 25.48C66.06 25.22 66.86 25.15 67.63 24.93C67.73 24.93 67.93 24.84 67.89 24.75C67.85 24.66 67.66 24.66 67.52 24.67ZM52.02 28.76C53.26 28.55 53.17 27.53 53.7 27.1C54.01 26.84 54.61 27.03 54.85 26.71C55.09 26.39 55.35 25.95 55.2 25.58C54.62 24.2 51.04 26.1 50.52 26.28C50.0233 26.4399 49.5002 26.501 48.98 26.46C47.41 26.33 47.31 25.46 46.27 24.74C45.8785 24.4704 45.4415 24.2739 44.98 24.16C44.83 24.16 44.57 24.16 44.54 24.33C44.51 24.5 44.74 24.63 44.87 24.74C45.7148 25.3848 46.4278 26.186 46.97 27.1C48.22 28.76 48.57 27.88 49.55 28.04C50.29 28.16 51.13 28.94 52.03 28.76H52.02Z" fill="url(#paint7_radial_4_5446)"/>
</g>
<path fill-rule="evenodd" clip-rule="evenodd" d="M83.29 19.13C86.15 22.65 81.29 27.22 74.78 30.59C61.31 37.59 40.08 41.75 24.96 40.53C18.69 40.03 12.05 38.12 11.86 34.32C7.76554 34.1666 3.6971 35.0325 0.0199987 36.84C-0.0300013 39.65 2.26 41.84 5.41 43.18C16.88 48.1 37.87 46.3 51.66 43.56C65.45 40.82 85.06 34.64 93.66 25.56C97.28 21.75 96.95 18.82 94.88 16.66C90.9346 16.9637 87.0472 17.7909 83.32 19.12L83.29 19.13Z" fill="url(#paint8_linear_4_5446)"/>
<path style="mix-blend-mode:multiply" fill-rule="evenodd" clip-rule="evenodd" d="M19.42 23.73C16.9182 24.6514 14.5133 25.8171 12.24 27.21C0.320011 34.98 8.62001 40.62 18.88 42.21C34.11 44.55 59.19 39.68 68.69 36.49C48.3 43.49 30.14 45.49 18.69 44.27C9.39001 43.27 3.89001 40.27 3.11001 36.27C2.39001 32.61 8.59001 26.41 19.44 23.76L19.42 23.73Z" fill="url(#paint9_radial_4_5446)"/>
<path style="mix-blend-mode:screen" fill-rule="evenodd" clip-rule="evenodd" d="M14.58 27.94C12.65 29.26 10.28 31.56 10.32 34.16C10.42 40.8 25.04 41.69 29.76 41.79C25.65 42.13 13.29 42.09 9.21001 36.89C8.70279 36.2823 8.40383 35.528 8.35703 34.7378C8.31023 33.9477 8.51806 33.1633 8.95 32.5C10.3178 30.4415 12.2823 28.8504 14.58 27.94Z" fill="url(#paint10_radial_4_5446)"/>
<path style="mix-blend-mode:multiply" fill-rule="evenodd" clip-rule="evenodd" d="M72.72 13.86C81.6 14.27 85.54 17.13 86.18 20.26C87.18 25.02 80.18 31.42 71.7 35.48C84.17 31.15 91.38 24.54 89.98 19.78C88.98 16.49 82.98 12.97 72.72 13.86Z" fill="url(#paint11_radial_4_5446)"/>
<path style="mix-blend-mode:screen" fill-rule="evenodd" clip-rule="evenodd" d="M85 13.29C88 13.68 93.89 15.1 95 18.86C98 29.27 69.23 38.68 59.26 40.44C68.17 37.95 94.6 29.93 92.97 19.2C92.43 15.69 88.33 14.2 84.97 13.29H85Z" fill="url(#paint12_radial_4_5446)"/>
</g>
<defs>
<linearGradient id="paint0_linear_4_5446" x1="-1.17999" y1="31.26" x2="93.66" y2="11.1" gradientUnits="userSpaceOnUse">
<stop stop-color="#87E300"/>
<stop offset="1" stop-color="#13A300"/>
</linearGradient>
<radialGradient id="paint1_radial_4_5446" cx="0" cy="0" r="1" gradientUnits="userSpaceOnUse" gradientTransform="translate(37 15.57) scale(43.38 43.38)">
<stop stop-color="#23D1D1"/>
<stop offset="0.12" stop-color="#1DC5C5"/>
<stop offset="0.34" stop-color="#0DA5A5"/>
<stop offset="0.5" stop-color="#008A8A"/>
<stop offset="0.92" stop-color="#004242"/>
</radialGradient>
<radialGradient id="paint2_radial_4_5446" cx="0" cy="0" r="1" gradientUnits="userSpaceOnUse" gradientTransform="translate(38.48 16.98) scale(42.15 42.15)">
<stop stop-color="#DEDE00"/>
<stop offset="0.15" stop-color="#D2D200"/>
<stop offset="0.42" stop-color="#B2B200"/>
<stop offset="0.47" stop-color="#ABAB00"/>
<stop offset="0.51" stop-color="#A5A500"/>
<stop offset="0.77" stop-color="#7D7D00"/>
<stop offset="0.91" stop-color="#6E6E00"/>
</radialGradient>
<radialGradient id="paint3_radial_4_5446" cx="0" cy="0" r="1" gradientUnits="userSpaceOnUse" gradientTransform="translate(49.78 29.72) scale(30.12)">
<stop offset="0.04"/>
<stop offset="0.84"/>
<stop offset="0.87" stop-color="#2F2F16"/>
<stop offset="0.92" stop-color="#6F6F34"/>
<stop offset="0.96" stop-color="#9D9D4A"/>
<stop offset="0.98" stop-color="#BABA57"/>
<stop offset="1" stop-color="#C5C55C"/>
</radialGradient>
<radialGradient id="paint4_radial_4_5446" cx="0" cy="0" r="1" gradientUnits="userSpaceOnUse" gradientTransform="translate(43.5 18.32) scale(37.65 37.65)">
<stop offset="0.61" stop-color="white"/>
<stop offset="0.66" stop-color="#FDFDFB"/>
<stop offset="0.71" stop-color="#F5F5EE"/>
<stop offset="0.76" stop-color="#E9E9DA"/>
<stop offset="0.82" stop-color="#D8D8BD"/>
<stop offset="0.87" stop-color="#C2C297"/>
<stop offset="0.92" stop-color="#A8A869"/>
<stop offset="0.98" stop-color="#888834"/>
<stop offset="1" stop-color="#7A7A1B"/>
</radialGradient>
<radialGradient id="paint5_radial_4_5446" cx="0" cy="0" r="1" gradientUnits="userSpaceOnUse" gradientTransform="translate(23.18 5.25998) scale(89.49 89.49)">
<stop stop-color="#848431"/>
<stop offset="1" stop-color="white"/>
</radialGradient>
<radialGradient id="paint6_radial_4_5446" cx="0" cy="0" r="1" gradientUnits="userSpaceOnUse" gradientTransform="translate(16.23 2.68) scale(48.01 48.01)">
<stop stop-color="#C5C55C"/>
<stop offset="1" stop-color="#000A00"/>
</radialGradient>
<radialGradient id="paint7_radial_4_5446" cx="0" cy="0" r="1" gradientUnits="userSpaceOnUse" gradientTransform="translate(35.91 11.39) scale(38.46 38.46)">
<stop stop-color="#72D6D3"/>
<stop offset="1"/>
</radialGradient>
<linearGradient id="paint8_linear_4_5446" x1="1.6" y1="44.97" x2="97.43" y2="24.6" gradientUnits="userSpaceOnUse">
<stop stop-color="#87E300"/>
<stop offset="1" stop-color="#13A300"/>
</linearGradient>
<radialGradient id="paint9_radial_4_5446" cx="0" cy="0" r="1" gradientUnits="userSpaceOnUse" gradientTransform="translate(24.66 71.63) scale(53.5 53.5)">
<stop stop-color="#009933"/>
<stop offset="1" stop-color="white"/>
</radialGradient>
<radialGradient id="paint10_radial_4_5446" cx="0" cy="0" r="1" gradientUnits="userSpaceOnUse" gradientTransform="translate(14.77 47.14) scale(39.65 39.65)">
<stop stop-color="#8FE561"/>
<stop offset="1"/>
</radialGradient>
<radialGradient id="paint11_radial_4_5446" cx="0" cy="0" r="1" gradientUnits="userSpaceOnUse" gradientTransform="translate(99.84 46.45) scale(40.15 40.15)">
<stop stop-color="#009933"/>
<stop offset="1" stop-color="white"/>
</radialGradient>
<radialGradient id="paint12_radial_4_5446" cx="0" cy="0" r="1" gradientUnits="userSpaceOnUse" gradientTransform="translate(82.13 41.81) scale(41.71 41.71)">
<stop stop-color="#8FE561"/>
<stop offset="1"/>
</radialGradient>
<clipPath id="clip0_4_5446">
<rect width="96.38" height="54.03" fill="white"/>
</clipPath>
</defs>
</svg>
