<svg width="65" height="64" viewBox="0 0 65 64" fill="none" xmlns="http://www.w3.org/2000/svg">
<g clip-path="url(#clip0_4_5466)">
<path fill-rule="evenodd" clip-rule="evenodd" d="M33.3 1.57802e-06C39.5685 -0.00197619 45.6969 1.85518 50.9098 5.33656C56.1227 8.81794 60.186 13.7671 62.5858 19.5581C64.9856 25.3491 65.614 31.7218 64.3916 37.87C63.1691 44.0181 60.1507 49.6657 55.7182 54.0982C51.2857 58.5307 45.6381 61.5491 39.49 62.7716C33.3418 63.994 26.9691 63.3656 21.1781 60.9658C15.3871 58.566 10.4379 54.5027 6.95656 49.2898C3.47517 44.0769 1.61802 37.9485 1.62 31.68C1.62265 23.2788 4.9612 15.2224 10.9018 9.28179C16.8424 3.34121 24.8988 0.00265223 33.3 1.57802e-06Z" fill="url(#paint0_radial_4_5466)"/>
<g style="mix-blend-mode:multiply" opacity="0.4">
<path fill-rule="evenodd" clip-rule="evenodd" d="M43.59 48.02C41.59 54.75 36.07 54.72 30.27 55.14C24.69 55.56 20.53 52 16.27 49.08C13.14 46.96 10.18 46.08 7.95999 43.19C5.14999 39.49 3.46999 33.47 3.46999 28.3C3.47015 22.2721 5.49794 16.4195 9.22716 11.6836C12.9564 6.94767 18.1702 3.60385 24.03 2.19001C26.3593 1.52842 28.7415 1.07004 31.15 0.82001C40.15 0.52001 45.57 2.67001 50.06 7.17001C53.39 10.5 51.51 16.58 52.89 21.33C53.59 23.72 55.64 26.73 55.08 31.26C54.27 37.91 45.93 40.03 43.59 48.02ZM65.03 31.68C65.03 25.414 63.1724 19.2887 59.692 14.0782C56.2117 8.86763 51.2647 4.80583 45.4764 2.40611C39.6882 0.0064013 33.3184 -0.623497 27.1723 0.59603C21.0261 1.81556 15.3794 4.82977 10.9459 9.25769C6.5124 13.6856 3.49107 19.3285 2.26379 25.4731C1.03651 31.6177 1.65838 37.9883 4.05079 43.7796C6.4432 49.5708 10.4988 54.5229 15.7049 58.0098C20.911 61.4968 27.034 63.3621 33.3 63.37C37.4649 63.3753 41.5901 62.5595 45.4395 60.9692C49.2889 59.379 52.7871 57.0456 55.7341 54.1024C58.681 51.1592 61.0188 47.6639 62.6139 43.8165C64.209 39.9691 65.03 35.845 65.03 31.68Z" fill="url(#paint1_radial_4_5466)"/>
</g>
<path style="mix-blend-mode:screen" fill-rule="evenodd" clip-rule="evenodd" d="M33.3 1.57802e-06C39.5685 -0.00197619 45.6969 1.85518 50.9098 5.33656C56.1227 8.81794 60.186 13.7671 62.5858 19.5581C64.9856 25.3491 65.614 31.7218 64.3916 37.87C63.1691 44.0181 60.1507 49.6657 55.7182 54.0982C51.2857 58.5307 45.6381 61.5491 39.49 62.7716C33.3418 63.994 26.9691 63.3656 21.1781 60.9658C15.3871 58.566 10.4379 54.5027 6.95656 49.2898C3.47517 44.0769 1.61802 37.9485 1.62 31.68C1.62265 23.2788 4.9612 15.2224 10.9018 9.28179C16.8424 3.34121 24.8988 0.00265223 33.3 1.57802e-06Z" fill="url(#paint2_radial_4_5466)"/>
<g style="mix-blend-mode:multiply" opacity="0.65">
<path fill-rule="evenodd" clip-rule="evenodd" d="M1.62 31.68C1.60763 36.5339 2.71644 41.3251 4.86 45.68C6.46 44.39 7.73 44.33 9.86 44.14C15.32 43.64 21.33 45.85 26.45 44.45C35.59 41.94 39.45 30.96 47.5 25.59C51.553 23.0864 55.7844 20.8838 60.16 19C60.7914 18.7505 61.3489 18.3445 61.78 17.82C60.3627 14.9281 58.5151 12.2678 56.3 9.93002C56.131 9.94149 55.9652 9.98208 55.81 10.05C56.1005 10.2861 56.336 10.5829 56.4999 10.9195C56.6638 11.2561 56.7522 11.6244 56.7588 11.9987C56.7655 12.3731 56.6903 12.7443 56.5385 13.0866C56.3867 13.4288 56.162 13.7337 55.88 13.98C52.38 16.53 47.35 15.16 43.46 14.65C40.2129 14.0725 36.9334 13.6951 33.64 13.52C31.76 13.52 30.04 13.68 28.64 15.07C26.79 16.95 26.2 19.94 25.46 22.36C24.72 24.78 24.22 27.09 22.23 29.12C19.87 31.53 15.46 32.47 12.41 30.67C11.1052 29.8408 9.89467 28.8717 8.8 27.78C7.29 26.33 5.71 24.61 3.8 27.03C2.74589 28.4119 1.99304 29.9994 1.59 31.69L1.62 31.68ZM16.03 21.14C14.8 23.48 14.32 26.91 17.38 26.14C22.71 24.85 25.08 17.33 20.99 14.14C20.22 13.54 19.67 14.44 18.99 15.07C18.14 15.89 18.3 17.01 17.99 18.29C17.7 19.41 16.58 20.11 15.99 21.16L16.03 21.14ZM25.78 56.64C26.49 52.18 23.78 50.64 19.93 50.01C18.51 49.77 17.08 49.58 15.64 49.45C13.5 49.25 9.88 49.38 11.41 52.67C12.57 55.14 16.34 57.67 18.79 58.67C21.5 59.88 25.1 60.81 25.79 56.6L25.78 56.64ZM31.07 54.69C29.9 55.79 29.74 58.3 31.07 59.35C33.2 60.97 36.77 60.57 39.16 59.89C41.4 59.24 43.7 57.2 40.43 55.64C38.0568 54.4628 35.439 53.8632 32.79 53.89C32.1346 53.9573 31.5197 54.2384 31.04 54.69H31.07ZM47.35 43.69C50.56 45.21 55.84 45.63 58.79 43.34C61.89 40.94 62.66 34.34 61.45 30.62C60.11 26.53 57.67 25.37 53.65 26.71C50.71 27.71 45.96 31.71 44.65 34.4C42.95 37.78 43.83 42.01 47.39 43.69H47.35Z" fill="url(#paint3_radial_4_5466)"/>
</g>
<path style="mix-blend-mode:screen" opacity="0.65" fill-rule="evenodd" clip-rule="evenodd" d="M43.03 7.27002C50.86 15.09 49.61 29.03 40.23 38.4C30.85 47.77 16.93 49.03 9.11 41.2C1.29 33.37 2.54 19.44 11.91 10.07C21.28 0.700016 35.22 -0.559984 43.03 7.27002Z" fill="url(#paint4_radial_4_5466)"/>
<path fill-rule="evenodd" clip-rule="evenodd" d="M24.6 43.08C28.13 42.08 31.12 40.15 34.39 36.99C39.39 32.1 40.79 29.16 47.18 24.92C51.03 22.36 55.1 20.08 59.03 17.66C61.74 15.99 61.65 14.66 60.21 12.56C59.87 12.05 57.01 7.8 55.07 8.68C55.3671 8.91908 55.6083 9.22038 55.7765 9.5627C55.9446 9.90501 56.0357 10.28 56.0434 10.6613C56.051 11.0426 55.9749 11.421 55.8206 11.7698C55.6663 12.1185 55.4374 12.4292 55.15 12.68C51.59 15.27 46.48 13.87 42.53 13.36C39.2237 12.7699 35.8839 12.3858 32.53 12.21C30.61 12.21 28.87 12.38 27.53 13.79C25.66 15.69 25.06 18.72 24.31 21.19C23.56 23.66 23.03 25.98 21.03 28.03C18.63 30.49 14.16 31.44 11.03 29.61C9.70944 28.7703 8.48539 27.7877 7.37999 26.68C5.83999 25.2 4.23999 23.46 2.28999 25.91C-1.16001 30.25 -0.380006 38.78 2.28999 43.63C2.55369 44.1666 2.94517 44.6302 3.43 44.98C3.58202 45.0678 3.75446 45.114 3.93 45.114C4.10553 45.114 4.27798 45.0678 4.43 44.98C6.05 43.66 6.34999 43.86 8.49 43.67C14.08 43.2 19.4 44.5 24.6 43.08ZM17.03 25.82C18.39 25.31 19.8 23.54 20.53 22.34C22.06 19.83 23.02 15.34 20.28 13.34C19.8658 13.1081 19.3852 13.0234 18.9167 13.0996C18.4481 13.1759 18.0193 13.4087 17.7 13.76C16.84 14.6 17 15.76 16.7 17.03C16.2063 18.3193 15.5901 19.5583 14.86 20.73C14.1929 21.7519 13.9226 22.9826 14.1 24.19C14.143 24.5129 14.2608 24.8212 14.4441 25.0905C14.6274 25.3597 14.8711 25.5824 15.1557 25.7408C15.4403 25.8991 15.758 25.9887 16.0835 26.0025C16.4089 26.0162 16.733 25.9538 17.03 25.82ZM18.63 49.24C17.18 49 15.73 48.81 14.27 48.68C12.09 48.48 8.73 48.35 10.27 51.68C11.44 54.18 15.27 56.68 17.75 57.81C20.51 59.04 23.86 60.24 24.54 55.97C25.33 51.49 22.6 49.94 18.67 49.28L18.63 49.24ZM39.46 54.96C37.0537 53.7623 34.3977 53.1523 31.71 53.18C31.0471 53.2557 30.4264 53.5433 29.94 54C28.74 55.12 28.58 57.66 29.94 58.72C32.1 60.38 35.62 59.66 38.04 58.96C40.38 58.35 42.83 56.59 39.5 55L39.46 54.96ZM60.82 29.56C59.46 25.41 56.97 24.23 52.9 25.56C49.9 26.56 45.09 30.56 43.71 33.37C42.03 36.82 42.88 41.12 46.5 42.82C49.76 44.36 55.12 44.82 58.12 42.47C61.12 40.12 62.03 33.3 60.82 29.56Z" fill="url(#paint5_radial_4_5466)"/>
<path fill-rule="evenodd" clip-rule="evenodd" d="M43.71 33.4C42.03 36.82 42.88 41.12 46.5 42.82C49.76 44.36 55.12 44.82 58.12 42.47C61.12 40.12 62.04 33.29 60.82 29.55C59.46 25.4 56.97 24.22 52.9 25.55C49.9 26.55 45.09 30.55 43.71 33.36V33.4Z" fill="url(#paint6_radial_4_5466)"/>
<g style="mix-blend-mode:screen" opacity="0.2">
<path fill-rule="evenodd" clip-rule="evenodd" d="M24.6 43.08C28.13 42.08 31.12 40.15 34.39 36.99C39.39 32.1 40.79 29.16 47.18 24.92C51.03 22.36 55.1 20.08 59.03 17.66C61.74 15.99 61.65 14.66 60.21 12.56C59.87 12.05 57.01 7.8 55.07 8.68C55.3671 8.91908 55.6083 9.22038 55.7765 9.5627C55.9446 9.90501 56.0357 10.28 56.0434 10.6613C56.051 11.0426 55.9749 11.421 55.8206 11.7698C55.6663 12.1185 55.4374 12.4292 55.15 12.68C51.59 15.27 46.48 13.87 42.53 13.36C39.2237 12.7699 35.8839 12.3858 32.53 12.21C30.61 12.21 28.87 12.38 27.53 13.79C25.66 15.69 25.06 18.72 24.31 21.19C23.56 23.66 23.03 25.98 21.03 28.03C18.63 30.49 14.16 31.44 11.03 29.61C9.70944 28.7703 8.48539 27.7877 7.37999 26.68C5.83999 25.2 4.23999 23.46 2.28999 25.91C-1.16001 30.25 -0.380006 38.78 2.28999 43.63C2.55369 44.1666 2.94517 44.6302 3.43 44.98C3.58202 45.0678 3.75446 45.114 3.93 45.114C4.10553 45.114 4.27798 45.0678 4.43 44.98C6.05 43.66 6.34999 43.86 8.49 43.67C14.08 43.2 19.4 44.5 24.6 43.08ZM17.03 25.82C18.39 25.31 19.8 23.54 20.53 22.34C22.06 19.83 23.02 15.34 20.28 13.34C19.8658 13.1081 19.3852 13.0234 18.9167 13.0996C18.4481 13.1759 18.0193 13.4087 17.7 13.76C16.84 14.6 17 15.76 16.7 17.03C16.2063 18.3193 15.5901 19.5583 14.86 20.73C14.1929 21.7519 13.9226 22.9826 14.1 24.19C14.143 24.5129 14.2608 24.8212 14.4441 25.0905C14.6274 25.3597 14.8711 25.5824 15.1557 25.7408C15.4403 25.8991 15.758 25.9887 16.0835 26.0025C16.4089 26.0162 16.733 25.9538 17.03 25.82ZM18.63 49.24C17.18 49 15.73 48.81 14.27 48.68C12.09 48.48 8.73 48.35 10.27 51.68C11.44 54.18 15.27 56.68 17.75 57.81C20.51 59.04 23.86 60.24 24.54 55.97C25.33 51.49 22.6 49.94 18.67 49.28L18.63 49.24ZM39.46 54.96C37.0537 53.7623 34.3977 53.1523 31.71 53.18C31.0471 53.2557 30.4264 53.5433 29.94 54C28.74 55.12 28.58 57.66 29.94 58.72C32.1 60.38 35.62 59.66 38.04 58.96C40.38 58.35 42.83 56.59 39.5 55L39.46 54.96ZM60.82 29.56C59.46 25.41 56.97 24.23 52.9 25.56C49.9 26.56 45.09 30.56 43.71 33.37C42.03 36.82 42.88 41.12 46.5 42.82C49.76 44.36 55.12 44.82 58.12 42.47C61.12 40.12 62.03 33.3 60.82 29.56Z" fill="url(#paint7_radial_4_5466)"/>
</g>
<path style="mix-blend-mode:multiply" opacity="0.55" fill-rule="evenodd" clip-rule="evenodd" d="M19.39 29.3C18.1428 30.0618 16.7209 30.4904 15.2605 30.5446C13.8001 30.5989 12.3503 30.2771 11.05 29.61C9.72944 28.7703 8.50539 27.7877 7.39999 26.68C6.15999 25.49 4.88999 24.14 3.39999 24.92C5.14999 24.61 6.25 26.59 8.11 28.38C12.3 32.38 15.76 31.74 19.37 29.3H19.39Z" fill="url(#paint8_radial_4_5466)"/>
<path style="mix-blend-mode:screen" opacity="0.75" fill-rule="evenodd" clip-rule="evenodd" d="M10.25 30.71C8.45 29.64 6.81 27.26 5.25 25.71C4.36 24.87 3.91 25.03 3.46 25.71C3.39055 25.8079 3.34594 25.9211 3.33 26.04C2.28797 31.5982 3.09585 37.3446 5.63 42.4C5.79406 42.7333 6.05673 43.0081 6.38232 43.187C6.70792 43.3659 7.08068 43.4403 7.45 43.4C8.50915 43.0753 9.60384 42.8805 10.71 42.82C14.53 43 17.18 43.57 20.71 43.32C25.83 42.96 29.83 40.58 33.63 37.14C35.63 35.35 35.08 33.03 38.04 30.55C39.12 29.65 41.44 28.45 42.24 27.48C42.6845 26.9531 43.0152 26.34 43.2113 25.6792C43.4075 25.0183 43.4649 24.3241 43.38 23.64C43.1231 21.3458 42.551 19.0979 41.68 16.96C41.3693 16.1704 40.851 15.4794 40.18 14.96C38.77 13.82 36.75 13.2 33.89 12.82C28.62 12.19 26.89 14.73 25.42 19.49C24.42 22.73 24.42 24.99 23.14 27.04C20.47 31.49 14.83 33.4 10.25 30.67V30.71Z" fill="url(#paint9_radial_4_5466)"/>
<path style="mix-blend-mode:screen" fill-rule="evenodd" clip-rule="evenodd" d="M11.61 49.41C13.2523 50.5681 15.0876 51.4248 17.03 51.94C18.7345 52.3925 20.4983 52.5813 22.26 52.5C22.3389 52.4973 22.4155 52.4725 22.481 52.4282C22.5464 52.384 22.5981 52.3223 22.63 52.25C22.6718 52.1842 22.694 52.1079 22.694 52.03C22.694 51.9521 22.6718 51.8758 22.63 51.81C21.55 50.37 19.69 49.72 17.24 49.27C15.4948 48.8303 13.6796 48.742 11.9 49.01L11.71 49.07C11.6775 49.0823 11.6496 49.1042 11.6299 49.1328C11.6102 49.1614 11.5998 49.1953 11.6 49.23C11.5944 49.2645 11.599 49.3 11.6132 49.3319C11.6274 49.3639 11.6506 49.391 11.68 49.41H11.61Z" fill="url(#paint10_radial_4_5466)"/>
<g style="mix-blend-mode:multiply" opacity="0.5">
<path fill-rule="evenodd" clip-rule="evenodd" d="M10.33 51.73C11.5 54.23 15.33 56.73 17.81 57.86C19.94 58.81 22.44 59.75 23.81 58.14C18.5272 56.9407 13.7057 54.2347 9.92999 50.35C9.97411 50.8313 10.1099 51.2997 10.33 51.73ZM38.11 59C39.65 58.56 41.27 57.61 41.11 56.54C37.6397 58.0536 33.896 58.8398 30.11 58.85C32.29 60.39 35.73 59.69 38.11 59ZM60.82 29.56C60.03 27.24 58.95 25.82 57.4 25.31C58.6828 31.627 57.7468 38.1931 54.75 43.9C55.9679 43.6932 57.1214 43.2072 58.12 42.48C61.26 40.04 62.03 33.3 60.82 29.56ZM59.03 17.66C59.7327 17.2762 60.3462 16.748 60.83 16.11C61.54 15.11 61.18 14.01 60.21 12.56C59.87 12.05 57.01 7.8 55.07 8.68C55.2107 8.7843 55.3382 8.90518 55.45 9.04C55.8805 9.56582 56.0899 10.2384 56.034 10.9157C55.978 11.593 55.661 12.222 55.15 12.67C54.2738 13.2953 53.2753 13.7281 52.22 13.94C52.9504 14.896 53.6185 15.8981 54.22 16.94C54.7428 17.8474 55.2168 18.7821 55.64 19.74L59.03 17.66Z" fill="url(#paint11_radial_4_5466)"/>
</g>
<path style="mix-blend-mode:multiply" opacity="0.55" fill-rule="evenodd" clip-rule="evenodd" d="M44.64 14.61C47.91 15.2 52.64 16.3 55.83 14.2C56.3217 13.8891 56.7341 13.4678 57.0344 12.9696C57.3347 12.4714 57.5147 11.91 57.56 11.33C57.6206 10.7559 57.4883 10.1779 57.1842 9.68727C56.88 9.19659 56.4211 8.82111 55.88 8.62002C55.7359 8.58092 55.5841 8.58092 55.44 8.62002C55.3151 8.63815 55.1937 8.67525 55.08 8.73002C55.2207 8.83432 55.3482 8.95519 55.46 9.09002C55.8905 9.61584 56.0999 10.2884 56.044 10.9657C55.988 11.643 55.671 12.272 55.16 12.72C51.6 15.31 46.49 13.91 42.54 13.4C39.2337 12.8099 35.8939 12.4258 32.54 12.25C31.8004 12.2378 31.0611 12.288 30.33 12.4C35.16 12.34 39.86 13.82 44.6 14.66L44.64 14.61Z" fill="url(#paint12_radial_4_5466)"/>
<path style="mix-blend-mode:multiply" opacity="0.4" fill-rule="evenodd" clip-rule="evenodd" d="M18.6 49.27C21.6 50.15 23.88 51.27 23.9 55.08C23.9167 55.6725 23.8217 56.2627 23.62 56.82C22.95 58.56 21.62 58.82 20.12 58.82C22.19 59.41 24.12 59.2 24.6 56.09C25.33 51.56 22.6 50.01 18.67 49.35L18.6 49.27Z" fill="url(#paint13_radial_4_5466)"/>
<path style="mix-blend-mode:multiply" opacity="0.4" fill-rule="evenodd" clip-rule="evenodd" d="M39.4 57.6C37.1371 58.9656 34.5324 59.6593 31.89 59.6C33.9825 59.8853 36.1128 59.6763 38.11 58.99C40.38 58.34 42.83 56.58 39.5 54.99C39.25 54.87 38.98 54.74 38.69 54.63C39.83 55.27 41.13 56.35 39.4 57.63V57.6Z" fill="url(#paint14_radial_4_5466)"/>
<path style="mix-blend-mode:multiply" opacity="0.4" fill-rule="evenodd" clip-rule="evenodd" d="M57.73 41.32C55.8029 43.0393 53.3125 43.9927 50.73 44C53.37 44.31 56.18 43.94 58.07 42.48C61.21 40.04 61.99 33.3 60.77 29.56C60.444 28.4312 59.8816 27.3847 59.12 26.49C61.88 30.82 61.44 37.91 57.73 41.32Z" fill="url(#paint15_radial_4_5466)"/>
<path style="mix-blend-mode:multiply" fill-rule="evenodd" clip-rule="evenodd" d="M17.42 24.52C17.1502 24.7425 16.83 24.8954 16.4874 24.9655C16.1448 25.0356 15.7902 25.0206 15.4547 24.922C15.1192 24.8233 14.813 24.6439 14.5629 24.3995C14.3128 24.1551 14.1264 23.8531 14.02 23.52C14.0221 23.7423 14.049 23.9636 14.1 24.18C14.1416 24.5038 14.2584 24.8133 14.4411 25.0837C14.6238 25.3542 14.8673 25.5781 15.1522 25.7375C15.437 25.897 15.7552 25.9875 16.0813 26.0018C16.4074 26.0161 16.7323 25.9538 17.03 25.82C18.39 25.31 19.8 23.54 20.53 22.34C21.7271 20.4241 22.2055 18.1456 21.88 15.91C21.941 17.6066 21.5579 19.2898 20.7686 20.7929C19.9793 22.296 18.8113 23.5669 17.38 24.48L17.42 24.52Z" fill="url(#paint16_radial_4_5466)"/>
<path style="mix-blend-mode:screen" fill-rule="evenodd" clip-rule="evenodd" d="M5.28 26.15C4.82 25.61 4.17 26.73 4.56 27.58C6.56 31.84 9.84 34.87 14.69 34.46C18.69 34.13 23.43 30.46 24.95 26.46C25.1971 25.8179 25.3552 25.145 25.42 24.46C25.42 24.13 25.14 23.83 24.77 24.88C24.1131 26.7289 23.0056 28.3847 21.5476 29.6978C20.0897 31.0108 18.3273 31.9396 16.42 32.4C15.1253 32.6788 13.7834 32.6522 12.5007 32.3224C11.218 31.9926 10.0297 31.3687 9.03 30.5C7.63265 29.1839 6.3759 27.726 5.28 26.15Z" fill="url(#paint17_radial_4_5466)"/>
<path style="mix-blend-mode:screen" fill-rule="evenodd" clip-rule="evenodd" d="M27.78 15.57C26.6 16.65 25.6 20.12 25.42 21.7C25.28 22.89 25.7 24.11 26.21 21.8C26.31 21.35 26.42 20.9 26.53 20.46C26.937 18.9109 27.5069 17.4092 28.23 15.98C28.63 15.2 28.79 14.64 27.78 15.57Z" fill="url(#paint18_radial_4_5466)"/>
<path style="mix-blend-mode:screen" fill-rule="evenodd" clip-rule="evenodd" d="M17.31 15.47C17.3049 16.7473 16.9184 17.9939 16.2 19.05C15.55 20.05 15.2 20.87 15.41 21.05C15.62 21.23 16.09 20.89 17.03 19.82C18.143 18.5994 18.797 17.0298 18.88 15.38C18.94 14.75 18.7 14.1 18.32 14.02C17.7 13.88 17.38 15.02 17.32 15.45L17.31 15.47Z" fill="url(#paint19_radial_4_5466)"/>
<path style="mix-blend-mode:screen" fill-rule="evenodd" clip-rule="evenodd" d="M16.34 50.3C19.34 50.56 19.64 49.92 16.52 49.3C13.82 48.74 12.3 48.94 12.28 49.22C12.26 49.5 13.52 50.08 16.34 50.33V50.3Z" fill="url(#paint20_radial_4_5466)"/>
<path style="mix-blend-mode:screen" fill-rule="evenodd" clip-rule="evenodd" d="M30.33 54.02C29.42 54.8 29.93 55.24 30.99 55.37C32.1017 55.4998 33.2212 55.5499 34.34 55.52C38.04 55.44 39.12 54.46 34.7 53.52C33.49 53.28 31.12 53.29 30.33 53.97V54.02Z" fill="url(#paint21_radial_4_5466)"/>
<path style="mix-blend-mode:screen" opacity="0.75" fill-rule="evenodd" clip-rule="evenodd" d="M43.81 39.32C43.2464 38.4268 42.9965 37.3711 43.1 36.32C43.3421 34.4735 44.1449 32.7458 45.4 31.37C46.58 29.98 49.06 27.7 50.84 27.16C51.35 27 51.66 27.04 51.71 27.16C51.95 27.8 49.94 29.74 48.42 32.09C47.8407 32.9558 47.3355 33.8691 46.91 34.82C46.26 36.32 46.38 37.94 45.91 39.14C45.8368 39.3529 45.7043 39.5404 45.5281 39.6805C45.3518 39.8205 45.1392 39.9072 44.9153 39.9303C44.6913 39.9535 44.4655 39.912 44.2643 39.811C44.0632 39.7099 43.8951 39.5535 43.78 39.36L43.81 39.32Z" fill="url(#paint22_radial_4_5466)"/>
<g style="mix-blend-mode:screen" opacity="0.5">
<path fill-rule="evenodd" clip-rule="evenodd" d="M24.6 43.08C28.13 42.08 31.12 40.15 34.39 36.99C39.39 32.1 40.79 29.16 47.18 24.92C51.03 22.36 55.1 20.08 59.03 17.66C61.74 15.99 61.65 14.66 60.21 12.56C59.87 12.05 57.01 7.8 55.07 8.68C55.3671 8.91908 55.6083 9.22038 55.7765 9.5627C55.9446 9.90501 56.0357 10.28 56.0434 10.6613C56.051 11.0426 55.9749 11.421 55.8206 11.7698C55.6663 12.1185 55.4374 12.4292 55.15 12.68C51.59 15.27 46.48 13.87 42.53 13.36C39.2237 12.7699 35.8839 12.3858 32.53 12.21C30.61 12.21 28.87 12.38 27.53 13.79C25.66 15.69 25.06 18.72 24.31 21.19C23.56 23.66 23.03 25.98 21.03 28.03C18.63 30.49 14.16 31.44 11.03 29.61C9.70944 28.7703 8.48539 27.7877 7.37999 26.68C5.83999 25.2 4.23999 23.46 2.28999 25.91C-1.16001 30.25 -0.380006 38.78 2.28999 43.63C2.55369 44.1666 2.94517 44.6302 3.43 44.98C3.58202 45.0678 3.75446 45.114 3.93 45.114C4.10553 45.114 4.27798 45.0678 4.43 44.98C6.05 43.66 6.34999 43.86 8.49 43.67C14.08 43.2 19.4 44.5 24.6 43.08ZM17.03 25.82C18.39 25.31 19.8 23.54 20.53 22.34C22.06 19.83 23.02 15.34 20.28 13.34C19.8658 13.1081 19.3852 13.0234 18.9167 13.0996C18.4481 13.1759 18.0193 13.4087 17.7 13.76C16.84 14.6 17 15.76 16.7 17.03C16.2063 18.3193 15.5901 19.5583 14.86 20.73C14.1929 21.7519 13.9226 22.9826 14.1 24.19C14.143 24.5129 14.2608 24.8212 14.4441 25.0905C14.6274 25.3597 14.8711 25.5824 15.1557 25.7408C15.4403 25.8991 15.758 25.9887 16.0835 26.0025C16.4089 26.0162 16.733 25.9538 17.03 25.82ZM18.63 49.24C17.18 49 15.73 48.81 14.27 48.68C12.09 48.48 8.73 48.35 10.27 51.68C11.44 54.18 15.27 56.68 17.75 57.81C20.51 59.04 23.86 60.24 24.54 55.97C25.33 51.49 22.6 49.94 18.67 49.28L18.63 49.24ZM39.46 54.96C37.0537 53.7623 34.3977 53.1523 31.71 53.18C31.0471 53.2557 30.4264 53.5433 29.94 54C28.74 55.12 28.58 57.66 29.94 58.72C32.1 60.38 35.62 59.66 38.04 58.96C40.38 58.35 42.83 56.59 39.5 55L39.46 54.96ZM60.82 29.56C59.46 25.41 56.97 24.23 52.9 25.56C49.9 26.56 45.09 30.56 43.71 33.37C42.03 36.82 42.88 41.12 46.5 42.82C49.76 44.36 55.12 44.82 58.12 42.47C61.12 40.12 62.03 33.3 60.82 29.56Z" fill="url(#paint23_radial_4_5466)"/>
</g>
</g>
<defs>
<radialGradient id="paint0_radial_4_5466" cx="0" cy="0" r="1" gradientUnits="userSpaceOnUse" gradientTransform="translate(20.79 12.49) scale(59.35)">
<stop stop-color="#FFADDB"/>
<stop offset="0.07" stop-color="#FDA1D4"/>
<stop offset="0.2" stop-color="#F880C2"/>
<stop offset="0.37" stop-color="#EF4CA5"/>
<stop offset="0.5" stop-color="#E8218D"/>
<stop offset="0.96" stop-color="#63004E"/>
</radialGradient>
<radialGradient id="paint1_radial_4_5466" cx="0" cy="0" r="1" gradientUnits="userSpaceOnUse" gradientTransform="translate(30.5 24.14) scale(41.93 41.93)">
<stop offset="0.45" stop-color="white"/>
<stop offset="0.5" stop-color="#F8F4F9"/>
<stop offset="0.58" stop-color="#E7D6E8"/>
<stop offset="0.69" stop-color="#CAA6CD"/>
<stop offset="0.83" stop-color="#A263A8"/>
<stop offset="0.97" stop-color="#700F79"/>
<stop offset="1" stop-color="#670070"/>
</radialGradient>
<radialGradient id="paint2_radial_4_5466" cx="0" cy="0" r="1" gradientUnits="userSpaceOnUse" gradientTransform="translate(35.24 34.27) scale(36.26)">
<stop offset="0.04"/>
<stop offset="0.84"/>
<stop offset="0.85" stop-color="#160B11"/>
<stop offset="0.9" stop-color="#683652"/>
<stop offset="0.93" stop-color="#A95886"/>
<stop offset="0.96" stop-color="#D770AB"/>
<stop offset="0.99" stop-color="#F47FC1"/>
<stop offset="1" stop-color="#FF85CA"/>
</radialGradient>
<radialGradient id="paint3_radial_4_5466" cx="0" cy="0" r="1" gradientUnits="userSpaceOnUse" gradientTransform="translate(17.42 12.71) scale(59.82 59.82)">
<stop stop-color="#843E8C"/>
<stop offset="1" stop-color="#340E47"/>
</radialGradient>
<radialGradient id="paint4_radial_4_5466" cx="0" cy="0" r="1" gradientUnits="userSpaceOnUse" gradientTransform="translate(26.08 24.24) scale(22.11 22.11)">
<stop stop-color="#FF8FCD"/>
<stop offset="1"/>
</radialGradient>
<radialGradient id="paint5_radial_4_5466" cx="0" cy="0" r="1" gradientUnits="userSpaceOnUse" gradientTransform="translate(17.97 13.68) scale(58.52 58.52)">
<stop stop-color="#F242F5"/>
<stop offset="1" stop-color="#66005E"/>
</radialGradient>
<radialGradient id="paint6_radial_4_5466" cx="0" cy="0" r="1" gradientUnits="userSpaceOnUse" gradientTransform="translate(41.34 25.95) scale(26.07 26.07)">
<stop stop-color="#F242F5"/>
<stop offset="1" stop-color="#66005E"/>
</radialGradient>
<radialGradient id="paint7_radial_4_5466" cx="0" cy="0" r="1" gradientUnits="userSpaceOnUse" gradientTransform="translate(17.81 17.83) scale(42.56 42.56)">
<stop stop-color="#F946DE"/>
<stop offset="0.12" stop-color="#CC39B6"/>
<stop offset="0.39" stop-color="#5D1A53"/>
<stop offset="0.6"/>
</radialGradient>
<radialGradient id="paint8_radial_4_5466" cx="0" cy="0" r="1" gradientUnits="userSpaceOnUse" gradientTransform="translate(16.04 24.75) scale(11.47 11.47)">
<stop stop-color="white"/>
<stop offset="0.1" stop-color="#FCF9FC"/>
<stop offset="0.22" stop-color="#F2E9F3"/>
<stop offset="0.36" stop-color="#E2CEE3"/>
<stop offset="0.51" stop-color="#CBA8CE"/>
<stop offset="0.68" stop-color="#AE77B3"/>
<stop offset="0.84" stop-color="#8B3D92"/>
<stop offset="1" stop-color="#670070"/>
</radialGradient>
<radialGradient id="paint9_radial_4_5466" cx="0" cy="0" r="1" gradientUnits="userSpaceOnUse" gradientTransform="translate(14.09 13.86) scale(38.93 38.93)">
<stop stop-color="#FF8FCD"/>
<stop offset="1"/>
</radialGradient>
<radialGradient id="paint10_radial_4_5466" cx="0" cy="0" r="1" gradientUnits="userSpaceOnUse" gradientTransform="translate(14.26 41.53) scale(15.91 15.91)">
<stop stop-color="#FF8FCD"/>
<stop offset="1"/>
</radialGradient>
<radialGradient id="paint11_radial_4_5466" cx="0" cy="0" r="1" gradientUnits="userSpaceOnUse" gradientTransform="translate(29.4 28.34) scale(39.56)">
<stop offset="0.49" stop-color="white"/>
<stop offset="0.54" stop-color="#FCF9FC"/>
<stop offset="0.61" stop-color="#F2E9F3"/>
<stop offset="0.68" stop-color="#E2CEE3"/>
<stop offset="0.75" stop-color="#CBA8CE"/>
<stop offset="0.84" stop-color="#AE77B3"/>
<stop offset="0.92" stop-color="#8B3D92"/>
<stop offset="1" stop-color="#670070"/>
</radialGradient>
<radialGradient id="paint12_radial_4_5466" cx="0" cy="0" r="1" gradientUnits="userSpaceOnUse" gradientTransform="translate(57.34 0.140017) scale(28.45 28.45)">
<stop stop-color="white"/>
<stop offset="0.1" stop-color="#FCF9FC"/>
<stop offset="0.22" stop-color="#F2E9F3"/>
<stop offset="0.36" stop-color="#E2CEE3"/>
<stop offset="0.51" stop-color="#CBA8CE"/>
<stop offset="0.68" stop-color="#AE77B3"/>
<stop offset="0.84" stop-color="#8B3D92"/>
<stop offset="1" stop-color="#670070"/>
</radialGradient>
<radialGradient id="paint13_radial_4_5466" cx="0" cy="0" r="1" gradientUnits="userSpaceOnUse" gradientTransform="translate(18.75 53.01) scale(10.5 10.5)">
<stop stop-color="white"/>
<stop offset="0.1" stop-color="#FCF9FC"/>
<stop offset="0.22" stop-color="#F2E9F3"/>
<stop offset="0.36" stop-color="#E2CEE3"/>
<stop offset="0.51" stop-color="#CBA8CE"/>
<stop offset="0.68" stop-color="#AE77B3"/>
<stop offset="0.84" stop-color="#8B3D92"/>
<stop offset="1" stop-color="#670070"/>
</radialGradient>
<radialGradient id="paint14_radial_4_5466" cx="0" cy="0" r="1" gradientUnits="userSpaceOnUse" gradientTransform="translate(34.97 55.34) scale(10.33 10.33)">
<stop stop-color="white"/>
<stop offset="0.1" stop-color="#FCF9FC"/>
<stop offset="0.22" stop-color="#F2E9F3"/>
<stop offset="0.36" stop-color="#E2CEE3"/>
<stop offset="0.51" stop-color="#CBA8CE"/>
<stop offset="0.68" stop-color="#AE77B3"/>
<stop offset="0.84" stop-color="#8B3D92"/>
<stop offset="1" stop-color="#670070"/>
</radialGradient>
<radialGradient id="paint15_radial_4_5466" cx="0" cy="0" r="1" gradientUnits="userSpaceOnUse" gradientTransform="translate(53.57 33.52) scale(20.2)">
<stop stop-color="white"/>
<stop offset="0.1" stop-color="#FCF9FC"/>
<stop offset="0.22" stop-color="#F2E9F3"/>
<stop offset="0.36" stop-color="#E2CEE3"/>
<stop offset="0.51" stop-color="#CBA8CE"/>
<stop offset="0.68" stop-color="#AE77B3"/>
<stop offset="0.84" stop-color="#8B3D92"/>
<stop offset="1" stop-color="#670070"/>
</radialGradient>
<radialGradient id="paint16_radial_4_5466" cx="0" cy="0" r="1" gradientUnits="userSpaceOnUse" gradientTransform="translate(14.89 16.95) scale(15.09 15.09)">
<stop stop-color="white"/>
<stop offset="0.1" stop-color="#FCF9FC"/>
<stop offset="0.22" stop-color="#F2E9F3"/>
<stop offset="0.36" stop-color="#E2CEE3"/>
<stop offset="0.51" stop-color="#CBA8CE"/>
<stop offset="0.68" stop-color="#AE77B3"/>
<stop offset="0.84" stop-color="#8B3D92"/>
<stop offset="1" stop-color="#670070"/>
</radialGradient>
<radialGradient id="paint17_radial_4_5466" cx="0" cy="0" r="1" gradientUnits="userSpaceOnUse" gradientTransform="translate(11.48 22.83) scale(20.53 20.53)">
<stop stop-color="#F7C7FF"/>
<stop offset="1"/>
</radialGradient>
<radialGradient id="paint18_radial_4_5466" cx="0" cy="0" r="1" gradientUnits="userSpaceOnUse" gradientTransform="translate(23.73 18.23) scale(10.55 10.55)">
<stop stop-color="#F7C7FF"/>
<stop offset="1"/>
</radialGradient>
<radialGradient id="paint19_radial_4_5466" cx="0" cy="0" r="1" gradientUnits="userSpaceOnUse" gradientTransform="translate(14.41 13.25) scale(11.02 11.02)">
<stop stop-color="#F7C7FF"/>
<stop offset="1"/>
</radialGradient>
<radialGradient id="paint20_radial_4_5466" cx="0" cy="0" r="1" gradientUnits="userSpaceOnUse" gradientTransform="translate(8.71999 51.9) scale(12.83 12.83)">
<stop stop-color="#F7C7FF"/>
<stop offset="1"/>
</radialGradient>
<radialGradient id="paint21_radial_4_5466" cx="0" cy="0" r="1" gradientUnits="userSpaceOnUse" gradientTransform="translate(31.78 47.36) scale(11.1 11.1)">
<stop stop-color="#FF8FCD"/>
<stop offset="1"/>
</radialGradient>
<radialGradient id="paint22_radial_4_5466" cx="0" cy="0" r="1" gradientUnits="userSpaceOnUse" gradientTransform="translate(42.07 26.34) scale(18.98 18.98)">
<stop stop-color="#FF8FCD"/>
<stop offset="1"/>
</radialGradient>
<radialGradient id="paint23_radial_4_5466" cx="0" cy="0" r="1" gradientUnits="userSpaceOnUse" gradientTransform="translate(42.82 37.08) scale(42.56 42.56)">
<stop offset="0.04"/>
<stop offset="0.92"/>
<stop offset="0.93" stop-color="#160B11"/>
<stop offset="0.95" stop-color="#683652"/>
<stop offset="0.97" stop-color="#A95886"/>
<stop offset="0.98" stop-color="#D770AB"/>
<stop offset="0.99" stop-color="#F47FC1"/>
<stop offset="1" stop-color="#FF85CA"/>
</radialGradient>
<clipPath id="clip0_4_5466">
<rect width="64.98" height="63.37" fill="white"/>
</clipPath>
</defs>
</svg>
