<svg width="800" height="360" viewBox="0 0 800 360" fill="none" xmlns="http://www.w3.org/2000/svg">
<g clip-path="url(#clip0_54_1326)">
<rect width="800" height="360" fill="white"/>
<rect width="818" height="421" fill="url(#paint0_linear_54_1326)"/>
<path fill-rule="evenodd" clip-rule="evenodd" d="M127.2 -15.6157C153.183 -7.10473 176.988 2.30947 200.774 15.6795C228.043 31.0068 257.804 42.5728 275.816 67.92C298.502 99.845 338.904 144.951 314.341 175.495C285.699 211.112 219.72 164.146 179.95 187.13C147.171 206.074 162.907 270.849 127.2 283.651C94.5986 295.339 62.9491 260.752 36.575 238.533C11.9879 217.82 -5.40251 191.479 -17.3724 161.856C-30.1125 130.327 -37.8827 97.6129 -33.9935 63.8906C-29.3431 23.5679 -29.9945 -29.6989 6.81339 -47.8539C44.9355 -66.6571 86.7477 -28.866 127.2 -15.6157Z" fill="url(#paint1_linear_54_1326)" fill-opacity="0.4"/>
<path fill-rule="evenodd" clip-rule="evenodd" d="M159.8 -15.6157C133.817 -7.10473 110.012 2.30947 86.2258 15.6795C58.9572 31.0068 29.1957 42.5728 11.1837 67.92C-11.5025 99.845 -51.904 144.951 -27.3408 175.495C1.30091 211.112 67.2797 164.146 107.05 187.13C139.829 206.074 124.093 270.849 159.8 283.651C192.401 295.339 224.051 260.752 250.425 238.533C275.012 217.82 292.403 191.479 304.372 161.856C317.112 130.327 324.883 97.6129 320.994 63.8906C316.343 23.5679 316.994 -29.6989 280.187 -47.8539C242.064 -66.6571 200.252 -28.866 159.8 -15.6157Z" fill="url(#paint2_linear_54_1326)" fill-opacity="0.8"/>
<mask id="mask0_54_1326" style="mask-type:luminance" maskUnits="userSpaceOnUse" x="-457" y="-115" width="1263" height="1073">
<path d="M756.896 -114.109L-456.94 -56.4479L-408.794 957.085L805.043 899.423L756.896 -114.109Z" fill="white"/>
</mask>
<g mask="url(#mask0_54_1326)">
<g opacity="0.6">
<path opacity="0.5" d="M716.655 330.883C716.655 330.883 715.544 330.041 715.118 329.94C714.708 329.858 713.442 330.182 713.442 330.182C713.442 330.182 714.091 328.81 714.163 328.279C714.22 327.768 713.933 326.177 713.933 326.177C713.933 326.177 715.044 327.018 715.47 327.119C715.896 327.201 717.146 326.877 717.146 326.877C717.146 326.877 716.497 328.249 716.425 328.781C716.368 329.291 716.655 330.883 716.655 330.883Z" fill="url(#paint3_radial_54_1326)"/>
<path d="M748.019 354.626C748.361 354.325 748.836 354.424 749.084 354.859C749.332 355.295 749.263 355.887 748.92 356.188C748.578 356.488 748.102 356.389 747.855 355.954C747.607 355.519 747.676 354.926 748.019 354.626ZM734.255 348.636C734.75 349.506 735.716 349.704 736.402 349.103C737.087 348.501 737.224 347.296 736.729 346.426C736.233 345.555 735.267 345.358 734.582 345.959C733.897 346.581 733.76 347.786 734.255 348.636ZM742.357 372.367C743.364 374.107 745.282 374.523 746.651 373.3C748.02 372.077 748.312 369.686 747.305 367.946C746.298 366.206 744.38 365.79 743.011 367.013C741.642 368.236 741.351 370.647 742.357 372.367ZM766.233 354.248C766.729 355.118 767.695 355.316 768.38 354.715C769.065 354.113 769.203 352.908 768.707 352.038C768.212 351.167 767.245 350.97 766.56 351.571C765.875 352.172 765.738 353.378 766.233 354.248Z" fill="url(#paint4_radial_54_1326)"/>
<path d="M686.167 353.582C685.807 353.843 685.33 353.703 685.112 353.226C684.896 352.769 684.997 352.175 685.374 351.913C685.735 351.652 686.212 351.792 686.429 352.269C686.646 352.726 686.527 353.301 686.167 353.582ZM699.495 360.974C699.046 360.06 698.106 359.739 697.386 360.281C696.666 360.824 696.429 361.993 696.878 362.906C697.327 363.819 698.267 364.14 698.987 363.598C699.709 363.076 699.944 361.887 699.495 360.974ZM693.013 336.516C692.131 334.689 690.236 334.068 688.795 335.132C687.353 336.196 686.897 338.554 687.779 340.381C688.66 342.208 690.555 342.829 691.997 341.765C693.455 340.7 693.894 338.343 693.013 336.516ZM667.957 352.009C667.509 351.096 666.569 350.775 665.848 351.317C665.128 351.859 664.891 353.028 665.34 353.941C665.789 354.855 666.729 355.176 667.45 354.633C668.171 354.112 668.407 352.942 667.957 352.009Z" fill="url(#paint5_radial_54_1326)"/>
</g>
<path opacity="0.6" d="M743.045 306.611C743.045 306.611 743.92 311.364 743.718 312.917C743.533 314.49 741.571 318.606 741.571 318.606C741.571 318.606 745.352 317.614 746.599 317.9C747.86 318.165 751.193 320.709 751.193 320.709C751.193 320.709 750.318 315.956 750.52 314.402C750.705 312.829 752.667 308.713 752.667 308.713C752.667 308.713 748.886 309.706 747.639 309.419C746.378 309.154 743.045 306.611 743.045 306.611Z" fill="url(#paint6_radial_54_1326)"/>
<g opacity="0.6">
<path opacity="0.5" d="M546.132 362.814C546.132 362.814 545.021 361.973 544.595 361.871C544.169 361.79 542.919 362.114 542.919 362.114C542.919 362.114 543.568 360.742 543.64 360.21C543.696 359.679 543.41 358.108 543.41 358.108C543.41 358.108 544.521 358.949 544.947 359.051C545.357 359.133 546.623 358.809 546.623 358.809C546.623 358.809 545.974 360.181 545.902 360.712C545.846 361.243 546.132 362.814 546.132 362.814Z" fill="url(#paint7_radial_54_1326)"/>
<path opacity="0.5" d="M623.951 352.047C623.951 352.047 622.841 351.206 622.414 351.105C622.005 351.022 620.739 351.347 620.739 351.347C620.739 351.347 621.387 349.975 621.459 349.443C621.531 348.912 621.23 347.341 621.23 347.341C621.23 347.341 622.34 348.183 622.767 348.284C623.192 348.366 624.442 348.042 624.442 348.042C624.442 348.042 623.794 349.414 623.722 349.945C623.665 350.456 623.951 352.047 623.951 352.047Z" fill="url(#paint8_radial_54_1326)"/>
<path d="M572.391 288.672C572.734 288.371 573.209 288.47 573.457 288.905C573.704 289.341 573.635 289.933 573.293 290.234C572.95 290.534 572.475 290.435 572.227 290C571.979 289.565 572.049 288.972 572.391 288.672ZM523.214 368.007C524.15 369.608 525.937 370.011 527.197 368.874C528.457 367.737 528.741 365.509 527.805 363.908C526.869 362.307 525.082 361.904 523.822 363.041C522.561 364.157 522.294 366.384 523.214 368.007ZM566.729 306.413C567.737 308.153 569.654 308.569 571.024 307.346C572.393 306.123 572.685 303.732 571.678 301.992C570.67 300.252 568.753 299.836 567.383 301.059C566.015 302.302 565.723 304.693 566.729 306.413ZM590.606 288.294C591.101 289.164 592.068 289.362 592.753 288.761C593.438 288.159 593.575 286.954 593.08 286.084C592.584 285.213 591.618 285.015 590.933 285.617C590.247 286.218 590.094 287.424 590.606 288.294Z" fill="url(#paint9_radial_54_1326)"/>
<path d="M510.54 287.628C510.179 287.889 509.702 287.749 509.485 287.271C509.268 286.814 509.37 286.22 509.747 285.959C510.107 285.698 510.584 285.838 510.802 286.315C511.002 286.773 510.899 287.346 510.54 287.628ZM523.868 295.02C523.419 294.106 522.479 293.785 521.759 294.327C521.038 294.869 520.802 296.039 521.251 296.952C521.7 297.865 522.639 298.186 523.36 297.644C524.081 297.122 524.317 295.933 523.868 295.02ZM517.385 270.562C516.504 268.735 514.609 268.114 513.167 269.177C511.725 270.241 511.27 272.6 512.151 274.427C513.033 276.254 514.928 276.875 516.369 275.811C517.811 274.747 518.267 272.389 517.385 270.562ZM492.33 286.055C491.881 285.142 490.941 284.82 490.221 285.363C489.5 285.905 489.264 287.074 489.713 287.987C490.162 288.9 491.102 289.222 491.822 288.679C492.543 288.158 492.764 286.989 492.33 286.055Z" fill="url(#paint10_radial_54_1326)"/>
</g>
<path opacity="0.6" d="M687.522 253.703C687.522 253.703 685.514 248.658 684.417 247.43C683.32 246.182 679.136 244.167 679.136 244.167C679.136 244.167 683.126 241.763 684.084 240.417C685.058 239.07 686.58 233.878 686.58 233.878C686.58 233.878 688.587 238.923 689.684 240.151C690.781 241.399 694.965 243.415 694.965 243.415C694.965 243.415 690.975 245.819 690.017 247.164C689.058 248.49 687.522 253.703 687.522 253.703Z" fill="url(#paint11_radial_54_1326)"/>
<path opacity="0.6" d="M539.54 289.948C539.54 289.948 541.143 298.77 540.794 301.672C540.445 304.573 536.803 312.243 536.803 312.243C536.803 312.243 543.821 310.426 546.149 310.925C548.476 311.424 554.686 316.147 554.686 316.147C554.686 316.147 553.082 307.325 553.431 304.424C553.78 301.522 557.422 293.852 557.422 293.852C557.422 293.852 550.404 295.669 548.077 295.17C545.748 294.651 539.54 289.948 539.54 289.948Z" fill="url(#paint12_radial_54_1326)"/>
<g opacity="0.6">
<path opacity="0.5" d="M10.9825 152.423C10.9825 152.423 10.4187 153.872 10.3951 154.401C10.3716 154.931 10.7533 156.477 10.7533 156.477C10.7533 156.477 9.58282 155.74 9.15913 155.699C8.73545 155.658 7.50754 156.103 7.50754 156.103C7.50754 156.103 8.0713 154.654 8.09482 154.125C8.11834 153.595 7.73668 152.049 7.73668 152.049C7.73668 152.049 8.90718 152.786 9.33087 152.827C9.75552 152.888 10.9825 152.423 10.9825 152.423Z" fill="url(#paint13_radial_54_1326)"/>
<path d="M-21.4497 57.7046C-21.9718 56.9574 -21.9115 55.8371 -21.3092 55.199C-20.7231 54.5617 -19.8252 54.6816 -19.3031 55.4288C-18.781 56.176 -18.8575 57.2971 -19.4436 57.9344C-20.0459 58.5725 -20.9428 58.4729 -21.4497 57.7046ZM-27.6111 90.1988C-26.4217 88.9436 -26.3011 86.7031 -27.3301 85.1876C-28.3591 83.6722 -30.1529 83.4729 -31.3423 84.7281C-32.5317 85.9833 -32.6524 88.2238 -31.6233 89.7393C-30.5943 91.2548 -28.8005 91.454 -27.6111 90.1988ZM5.85728 68.7801C8.21988 66.2706 8.47643 61.7685 6.40315 58.7586C4.34605 55.7479 0.741385 55.3299 -1.62025 57.8597C-3.98286 60.3693 -4.24037 64.8512 -2.16613 67.8813C-0.109028 70.892 3.47849 71.2905 5.85728 68.7801ZM-25.5232 15.6604C-24.3338 14.4052 -24.2132 12.1647 -25.2422 10.6492C-26.2713 9.13371 -28.065 8.93448 -29.2544 10.1896C-30.4438 11.4448 -30.5645 13.6854 -29.5355 15.2008C-28.5064 16.7163 -26.7117 16.9358 -25.5232 15.6604Z" fill="url(#paint14_radial_54_1326)"/>
</g>
<g opacity="0.6">
<path opacity="0.5" d="M342.281 -1.5677C342.281 -1.5677 341.717 -0.118785 341.694 0.410558C341.67 0.939902 342.052 2.48613 342.052 2.48613C342.052 2.48613 340.881 1.7494 340.458 1.70857C340.034 1.66775 338.806 2.1121 338.806 2.1121C338.806 2.1121 339.37 0.663156 339.393 0.133812C339.417 -0.395531 339.035 -1.94174 339.035 -1.94174C339.035 -1.94174 340.206 -1.20503 340.629 -1.1642C341.054 -1.10311 342.281 -1.5677 342.281 -1.5677Z" fill="url(#paint15_radial_54_1326)"/>
<path opacity="0.5" d="M264.813 10.8077C264.813 10.8077 264.25 12.2566 264.226 12.7859C264.202 13.3153 264.584 14.8615 264.584 14.8615C264.584 14.8615 263.414 14.1248 262.99 14.084C262.566 14.0431 261.338 14.4875 261.338 14.4875C261.338 14.4875 261.902 13.0385 261.926 12.5092C261.949 11.9799 261.568 10.4336 261.568 10.4336C261.568 10.4336 262.738 11.1704 263.162 11.2112C263.585 11.252 264.813 10.8077 264.813 10.8077Z" fill="url(#paint16_radial_54_1326)"/>
<path d="M286.084 47.4435C286.332 47.8787 286.262 48.4711 285.92 48.7718C285.577 49.0725 285.102 48.9732 284.854 48.538C284.606 48.1028 284.676 47.5104 285.018 47.2097C285.344 46.8895 285.836 47.0083 286.084 47.4435ZM290.592 30.3464C289.907 30.9478 289.753 32.1538 290.265 33.0234C290.761 33.8938 291.728 34.1119 292.412 33.4902C293.097 32.8888 293.251 31.6829 292.739 30.8133C292.228 29.9639 291.277 29.745 290.592 30.3464ZM271.777 39.9356C270.408 41.1587 270.116 43.5495 271.107 45.2903C272.114 47.0303 274.032 47.4471 275.402 46.2443C276.771 45.0212 277.063 42.6303 276.072 40.8896C275.065 39.1496 273.146 38.7125 271.777 39.9356ZM286.745 70.2477C286.06 70.8491 285.906 72.055 286.418 72.9247C286.914 73.795 287.881 74.0132 288.565 73.3915C289.25 72.7901 289.404 71.5842 288.892 70.7145C288.381 69.8449 287.413 69.6267 286.745 70.2477Z" fill="url(#paint17_radial_54_1326)"/>
</g>
<g opacity="0.6">
<path d="M454.945 14.3516C455.145 14.8094 455.027 15.4041 454.65 15.6455C454.288 15.8862 453.81 15.7261 453.609 15.248C453.408 14.77 453.526 14.1955 453.904 13.9541C454.265 13.6931 454.744 13.8736 454.945 14.3516ZM461.066 -1.90788C460.328 -1.40552 460.058 -0.255003 460.476 0.680035C460.893 1.61507 461.835 1.97667 462.557 1.47508C463.296 0.972722 463.565 -0.198102 463.148 -1.11287C462.731 -2.04791 461.805 -2.41024 461.066 -1.90788ZM441.416 4.7751C439.939 5.77982 439.416 8.10042 440.251 9.97049C441.086 11.8406 442.953 12.5442 444.43 11.5395C445.907 10.5348 446.429 8.21423 445.594 6.34416C444.777 4.49358 442.894 3.79065 441.416 4.7751ZM453.426 37.0156C452.688 37.5179 452.418 38.6684 452.835 39.6035C453.253 40.5385 454.179 40.9009 454.917 40.3985C455.656 39.8962 455.925 38.7456 455.508 37.8106C455.107 36.8748 454.165 36.5132 453.426 37.0156Z" fill="url(#paint18_radial_54_1326)"/>
</g>
<g opacity="0.6">
<path opacity="0.5" d="M460.207 190.001C460.207 190.001 459.509 191.355 459.436 191.866C459.363 192.377 459.601 193.971 459.601 193.971C459.601 193.971 458.504 193.068 458.093 192.966C457.683 192.864 456.414 193.127 456.414 193.127C456.414 193.127 457.112 191.773 457.185 191.262C457.258 190.75 457.02 189.157 457.02 189.157C457.02 189.157 458.117 190.06 458.528 190.162C458.939 190.285 460.207 190.001 460.207 190.001Z" fill="url(#paint19_radial_54_1326)"/>
<path opacity="0.5" d="M452.781 92.0629C452.781 92.0629 452.083 93.4166 452.01 93.928C451.937 94.4394 452.175 96.0331 452.175 96.0331C452.175 96.0331 451.077 95.1304 450.667 95.028C450.256 94.9256 448.988 95.189 448.988 95.189C448.988 95.189 449.686 93.8353 449.759 93.3239C449.832 92.8125 449.594 91.2188 449.594 91.2188C449.594 91.2188 450.691 92.1215 451.101 92.2239C451.512 92.3263 452.781 92.0629 452.781 92.0629Z" fill="url(#paint20_radial_54_1326)"/>
<path opacity="0.5" d="M381.925 190.692C381.925 190.692 381.227 192.046 381.154 192.558C381.081 193.069 381.319 194.663 381.319 194.663C381.319 194.663 380.221 193.76 379.811 193.657C379.401 193.555 378.132 193.818 378.132 193.818C378.132 193.818 378.83 192.465 378.903 191.953C378.976 191.442 378.738 189.848 378.738 189.848C378.738 189.848 379.835 190.751 380.246 190.853C380.657 190.976 381.925 190.692 381.925 190.692Z" fill="url(#paint21_radial_54_1326)"/>
<path d="M401.361 152.854C401.129 152.418 401.215 151.825 401.557 151.524C401.901 151.244 402.377 151.364 402.625 151.799C402.856 152.235 402.771 152.828 402.428 153.129C402.086 153.429 401.61 153.31 401.361 152.854ZM396.388 169.73C397.09 169.148 397.277 167.961 396.797 167.069C396.317 166.178 395.363 165.918 394.661 166.5C393.959 167.082 393.772 168.269 394.252 169.161C394.732 170.052 395.686 170.312 396.388 169.73ZM415.47 160.981C416.875 159.817 417.232 157.444 416.289 155.68C415.345 153.917 413.423 153.399 412.033 154.542C410.629 155.705 410.271 158.079 411.215 159.842C412.159 161.626 414.064 162.125 415.47 160.981ZM401.349 130.06C402.051 129.478 402.238 128.291 401.758 127.399C401.277 126.508 400.324 126.248 399.622 126.83C398.92 127.412 398.733 128.6 399.213 129.491C399.693 130.382 400.646 130.642 401.349 130.06Z" fill="url(#paint22_radial_54_1326)"/>
<path d="M399.599 230.161C399.8 230.639 399.681 231.213 399.303 231.455C398.942 231.695 398.464 231.535 398.263 231.057C398.062 230.599 398.18 230.004 398.558 229.763C398.919 229.502 399.382 229.683 399.599 230.161ZM405.704 213.902C404.966 214.404 404.696 215.555 405.113 216.49C405.531 217.425 406.473 217.786 407.211 217.284C407.95 216.782 408.219 215.631 407.802 214.696C407.384 213.761 406.443 213.399 405.704 213.902ZM386.07 220.584C384.593 221.589 384.07 223.909 384.905 225.779C385.74 227.65 387.607 228.353 389.084 227.348C390.561 226.344 391.083 224.023 390.248 222.153C389.414 220.303 387.548 219.6 386.07 220.584ZM398.08 252.825C397.342 253.327 397.072 254.477 397.489 255.412C397.907 256.347 398.832 256.71 399.571 256.207C400.309 255.705 400.579 254.555 400.162 253.62C399.744 252.685 398.82 252.342 398.08 252.825Z" fill="url(#paint23_radial_54_1326)"/>
</g>
<path opacity="0.6" d="M375.186 6.82411C375.186 6.82411 371.123 9.04877 370.113 10.336C369.104 11.6233 367.418 16.7622 367.418 16.7622C367.418 16.7622 365.552 11.6295 364.501 10.3385C363.45 9.04754 359.306 6.82679 359.306 6.82679C359.306 6.82679 363.369 4.60213 364.378 3.31488C365.388 2.02763 367.074 -3.11126 367.074 -3.11126C367.074 -3.11126 368.94 2.0214 369.991 3.31237C371.042 4.6236 375.186 6.82411 375.186 6.82411Z" fill="url(#paint24_radial_54_1326)"/>
<path opacity="0.6" d="M362.951 156.304C362.951 156.304 366.757 155.494 368.005 155.82C369.254 156.147 372.528 158.836 372.528 158.836C372.528 158.836 371.798 154.055 372.033 152.5C372.267 150.945 374.346 146.905 374.346 146.905C374.346 146.905 370.54 147.716 369.292 147.389C368.043 147.062 364.769 144.373 364.769 144.373C364.769 144.373 365.499 149.154 365.264 150.709C365.014 152.265 362.951 156.304 362.951 156.304Z" fill="url(#paint25_radial_54_1326)"/>
<g opacity="0.6">
<path opacity="0.5" d="M797.572 26.092C797.572 26.092 796.874 27.4457 796.801 27.9571C796.728 28.4684 796.966 30.0622 796.966 30.0622C796.966 30.0622 795.868 29.1594 795.458 29.057C795.048 28.9546 793.779 29.218 793.779 29.218C793.779 29.218 794.477 27.8643 794.55 27.3529C794.623 26.8416 794.385 25.2479 794.385 25.2479C794.385 25.2479 795.482 26.1506 795.892 26.253C796.303 26.3554 797.572 26.092 797.572 26.092Z" fill="url(#paint26_radial_54_1326)"/>
<path opacity="0.5" d="M719.289 26.7632C719.289 26.7632 718.59 28.117 718.517 28.6283C718.444 29.1397 718.682 30.7334 718.682 30.7334C718.682 30.7334 717.585 29.8307 717.175 29.7283C716.764 29.6259 715.495 29.8893 715.495 29.8893C715.495 29.8893 716.193 28.5356 716.266 28.0242C716.339 27.5128 716.102 25.9191 716.102 25.9191C716.102 25.9191 717.199 26.8219 717.609 26.9243C718.021 27.0469 719.289 26.7632 719.289 26.7632Z" fill="url(#paint27_radial_54_1326)"/>
<path d="M738.74 -11.0757C738.509 -11.5117 738.594 -12.105 738.937 -12.4057C739.28 -12.6861 739.756 -12.5665 740.004 -12.1313C740.236 -11.6953 740.15 -11.1021 739.808 -10.8014C739.449 -10.4999 738.973 -10.6195 738.74 -11.0757ZM733.751 5.80039C734.453 5.21848 734.64 4.03125 734.16 3.13983C733.68 2.24841 732.727 1.98893 732.024 2.57084C731.322 3.15274 731.135 4.33998 731.615 5.2314C732.096 6.12282 733.049 6.38229 733.751 5.80039ZM752.833 -2.9482C754.238 -4.11201 754.596 -6.4857 753.652 -8.24904C752.691 -10.0319 750.786 -10.5306 749.397 -9.38778C747.992 -8.22398 747.634 -5.85029 748.578 -4.08695C749.522 -2.30334 751.428 -1.80467 752.833 -2.9482ZM738.712 -33.8694C739.414 -34.4513 739.601 -35.6385 739.121 -36.53C738.641 -37.4214 737.687 -37.6808 736.985 -37.0989C736.283 -36.517 736.096 -35.3298 736.576 -34.4384C737.057 -33.547 738.01 -33.2875 738.712 -33.8694Z" fill="url(#paint28_radial_54_1326)"/>
<path d="M736.963 66.2314C737.164 66.7095 737.045 67.284 736.667 67.5254C736.306 67.7661 735.828 67.6059 735.626 67.1279C735.425 66.6498 735.544 66.0753 735.922 65.8339C736.283 65.5932 736.745 65.7542 736.963 66.2314ZM743.084 49.9719C742.346 50.4743 742.076 51.6249 742.493 52.5599C742.911 53.4949 743.836 53.8573 744.575 53.3549C745.313 52.8525 745.582 51.6818 745.166 50.767C744.748 49.832 743.807 49.4906 743.084 49.9719ZM723.434 56.655C721.956 57.6597 721.434 59.9802 722.269 61.8503C723.104 63.7204 724.97 64.4241 726.448 63.4194C727.925 62.4147 728.447 60.0941 727.612 58.224C726.778 56.3742 724.912 55.6705 723.434 56.655ZM735.444 88.8954C734.705 89.3978 734.436 90.5483 734.853 91.4833C735.271 92.4184 736.212 92.78 736.935 92.2784C737.673 91.776 737.943 90.6255 737.525 89.6904C737.108 88.7554 736.183 88.4133 735.444 88.8954Z" fill="url(#paint29_radial_54_1326)"/>
</g>
<path opacity="0.6" d="M623.291 36.9715C623.291 36.9715 619.147 34.7709 618.095 33.4597C617.045 32.1687 615.179 27.0361 615.179 27.0361C615.179 27.0361 613.508 32.1539 612.483 33.4622C611.474 34.7495 607.411 36.9741 607.411 36.9741C607.411 36.9741 611.538 39.1754 612.606 40.4858C613.657 41.7768 615.523 46.9095 615.523 46.9095C615.523 46.9095 617.194 41.7917 618.218 40.4834C619.228 39.1961 623.291 36.9715 623.291 36.9715Z" fill="url(#paint30_radial_54_1326)"/>
<g opacity="0.6">
<path opacity="0.5" d="M660.436 135.631C660.436 135.631 659.69 134.285 659.602 133.781C659.496 133.258 659.696 131.664 659.696 131.664C659.696 131.664 658.636 132.567 658.235 132.668C657.819 132.789 656.54 132.504 656.54 132.504C656.54 132.504 657.285 133.85 657.375 134.374C657.481 134.898 657.281 136.492 657.281 136.492C657.281 136.492 658.341 135.588 658.742 135.488C659.158 135.367 660.436 135.631 660.436 135.631Z" fill="url(#paint31_radial_54_1326)"/>
<path opacity="0.5" d="M656.573 233.597C656.573 233.597 655.828 232.251 655.739 231.747C655.633 231.224 655.833 229.63 655.833 229.63C655.833 229.63 654.773 230.534 654.373 230.634C653.957 230.755 652.678 230.471 652.678 230.471C652.678 230.471 653.423 231.817 653.512 232.32C653.618 232.844 653.418 234.438 653.418 234.438C653.418 234.438 654.478 233.534 654.895 233.433C655.296 233.333 656.573 233.597 656.573 233.597Z" fill="url(#paint32_radial_54_1326)"/>
<path opacity="0.5" d="M566.892 94.0375C566.892 94.0375 565.525 91.5426 565.333 90.5765C565.157 89.6097 565.487 86.6481 565.487 86.6481C565.487 86.6481 563.522 88.3059 562.754 88.5252C561.985 88.7243 559.61 88.2479 559.61 88.2479C559.61 88.2479 560.977 90.7428 561.169 91.7089C561.345 92.6757 561.015 95.6372 561.015 95.6372C561.015 95.6372 562.98 93.9795 563.749 93.7602C564.517 93.5408 566.892 94.0375 566.892 94.0375Z" fill="url(#paint33_radial_54_1326)"/>
<path d="M607.524 163.662C608.199 164.199 608.397 165.307 607.998 166.118C607.583 166.95 606.702 167.175 606.045 166.658C605.37 166.121 605.172 165.013 605.571 164.202C605.97 163.37 606.85 163.125 607.524 163.662ZM591.255 133.96C590.425 135.604 590.854 137.819 592.187 138.893C593.519 139.968 595.281 139.478 596.111 137.833C596.941 136.189 596.511 133.974 595.179 132.9C593.83 131.826 592.069 132.316 591.255 133.96ZM623.363 151.167C621.719 154.475 622.545 158.885 625.227 161.033C627.907 163.161 631.415 162.222 633.074 158.913C634.717 155.605 633.892 151.195 631.21 149.047C628.514 146.919 625.006 147.858 623.363 151.167ZM603.14 207.611C602.31 209.256 602.739 211.47 604.072 212.544C605.404 213.619 607.165 213.129 607.996 211.485C608.826 209.84 608.396 207.626 607.064 206.551C605.715 205.478 603.953 205.947 603.14 207.611Z" fill="url(#paint34_radial_54_1326)"/>
<path d="M597.339 96.0857C596.954 95.8399 596.813 95.2574 597.001 94.7812C597.19 94.3049 597.652 94.1407 598.037 94.3866C598.422 94.6324 598.563 95.2149 598.375 95.6911C598.186 96.1471 597.724 96.3315 597.339 96.0857ZM607.136 111.101C607.514 110.169 607.215 109.005 606.462 108.513C605.708 108.02 604.784 108.369 604.407 109.301C604.029 110.233 604.328 111.397 605.081 111.89C605.835 112.402 606.76 112.054 607.136 111.101ZM589.315 103.7C590.086 101.834 589.472 99.5069 587.948 98.5025C586.441 97.4973 584.593 98.2149 583.823 100.1C583.068 101.965 583.665 104.293 585.189 105.297C586.712 106.281 588.56 105.564 589.315 103.7ZM598.087 72.219C598.464 71.2868 598.166 70.1227 597.412 69.6303C596.659 69.1378 595.735 69.4865 595.357 70.4186C594.98 71.3508 595.279 72.515 596.032 73.0074C596.785 73.4999 597.71 73.1512 598.087 72.219Z" fill="url(#paint35_radial_54_1326)"/>
</g>
<path opacity="0.6" d="M656.179 304.845C656.179 304.845 648.49 300.741 646.526 298.335C644.563 295.93 641.094 286.424 641.094 286.424C641.094 286.424 637.978 295.958 636.097 298.363C634.216 300.769 626.692 304.905 626.692 304.905C626.692 304.905 634.364 309.01 636.344 311.415C638.308 313.821 641.776 323.326 641.776 323.326C641.776 323.326 644.892 313.792 646.773 311.387C648.654 308.981 656.179 304.845 656.179 304.845Z" fill="url(#paint36_radial_54_1326)"/>
<path opacity="0.6" d="M533.97 158.034C533.97 158.034 541.096 159.503 543.387 158.887C545.677 158.27 551.57 153.256 551.57 153.256C551.57 153.256 550.549 162.142 551.091 165.022C551.634 167.901 555.768 175.385 555.768 175.385C555.768 175.385 548.643 173.915 546.352 174.532C544.062 175.148 538.169 180.162 538.169 180.162C538.169 180.162 539.19 171.276 538.648 168.396C538.089 165.518 533.97 158.034 533.97 158.034Z" fill="url(#paint37_radial_54_1326)"/>
<g opacity="0.6">
<path opacity="0.5" d="M222.546 230.14C222.546 230.14 223.245 228.807 223.317 228.275C223.407 227.763 223.169 226.169 223.169 226.169C223.169 226.169 224.25 227.073 224.677 227.174C225.088 227.297 226.357 227.033 226.357 227.033C226.357 227.033 225.658 228.367 225.586 228.899C225.496 229.411 225.734 231.004 225.734 231.004C225.734 231.004 224.653 230.101 224.227 229.999C223.816 229.897 222.546 230.14 222.546 230.14Z" fill="url(#paint38_radial_54_1326)"/>
<path opacity="0.5" d="M229.57 328.138C229.57 328.138 230.269 326.804 230.341 326.273C230.43 325.76 230.192 324.167 230.192 324.167C230.192 324.167 231.273 325.07 231.7 325.172C232.111 325.295 233.38 325.031 233.38 325.031C233.38 325.031 232.681 326.365 232.609 326.896C232.52 327.408 232.758 329.002 232.758 329.002C232.758 329.002 231.677 328.099 231.25 327.997C230.839 327.874 229.57 328.138 229.57 328.138Z" fill="url(#paint39_radial_54_1326)"/>
<path opacity="0.5" d="M300.837 229.976C300.837 229.976 301.536 228.643 301.609 228.111C301.698 227.599 301.46 226.005 301.46 226.005C301.46 226.005 302.541 226.909 302.967 227.011C303.379 227.133 304.648 226.87 304.648 226.87C304.648 226.87 303.949 228.203 303.877 228.735C303.787 229.247 304.025 230.841 304.025 230.841C304.025 230.841 302.944 229.937 302.518 229.836C302.106 229.713 300.837 229.976 300.837 229.976Z" fill="url(#paint40_radial_54_1326)"/>
<path d="M281.233 267.68C281.465 268.136 281.38 268.73 281.02 269.011C280.661 269.292 280.185 269.173 279.952 268.716C279.719 268.26 279.805 267.667 280.165 267.386C280.524 267.104 281 267.224 281.233 267.68ZM286.289 250.842C285.587 251.423 285.4 252.611 285.88 253.502C286.36 254.394 287.313 254.653 288.016 254.071C288.718 253.489 288.905 252.302 288.425 251.411C287.944 250.519 286.992 250.28 286.289 250.842ZM267.169 259.47C265.763 260.614 265.389 262.988 266.334 264.772C267.278 266.555 269.184 267.074 270.59 265.931C271.996 264.787 272.369 262.413 271.425 260.629C270.48 258.845 268.574 258.327 267.169 259.47ZM281.164 290.478C280.462 291.06 280.275 292.248 280.755 293.139C281.236 294.03 282.189 294.29 282.891 293.708C283.593 293.126 283.78 291.939 283.3 291.048C282.82 290.156 281.867 289.897 281.164 290.478Z" fill="url(#paint41_radial_54_1326)"/>
<path d="M283.336 190.398C283.135 189.92 283.27 189.345 283.632 189.104C284.01 188.863 284.472 189.044 284.673 189.502C284.874 189.98 284.739 190.555 284.377 190.796C284 191.058 283.538 190.876 283.336 190.398ZM277.147 206.6C277.886 206.098 278.155 204.947 277.738 204.012C277.32 203.077 276.395 202.715 275.656 203.217C274.918 203.72 274.648 204.87 275.066 205.805C275.467 206.741 276.409 207.103 277.147 206.6ZM296.821 200.058C298.299 199.074 298.837 196.752 298.018 194.861C297.199 192.991 295.331 192.267 293.837 193.252C292.359 194.236 291.821 196.558 292.64 198.449C293.459 200.32 295.327 201.043 296.821 200.058ZM284.936 167.731C285.675 167.228 285.944 166.078 285.527 165.143C285.109 164.208 284.184 163.845 283.445 164.348C282.707 164.85 282.437 166.001 282.854 166.936C283.272 167.871 284.197 168.233 284.936 167.731Z" fill="url(#paint42_radial_54_1326)"/>
</g>
<path opacity="0.6" d="M319.671 264.493C319.671 264.493 315.865 265.283 314.615 264.936C313.366 264.589 310.108 261.9 310.108 261.9C310.108 261.9 310.821 266.681 310.571 268.237C310.32 269.793 308.24 273.813 308.24 273.813C308.24 273.813 312.047 273.022 313.296 273.369C314.546 273.716 317.804 276.406 317.804 276.406C317.804 276.406 317.09 271.625 317.341 270.069C317.591 268.513 319.671 264.493 319.671 264.493Z" fill="url(#paint43_radial_54_1326)"/>
<g opacity="0.6">
<path opacity="0.5" d="M22.0618 283.222C22.0618 283.222 22.7908 284.569 22.8968 285.092C22.9866 285.616 22.8027 287.21 22.8027 287.21C22.8027 287.21 23.8638 286.326 24.2798 286.205C24.6967 286.104 25.9745 286.368 25.9745 286.368C25.9745 286.368 25.2454 285.021 25.1395 284.498C25.0497 283.974 25.2335 282.381 25.2335 282.381C25.2335 282.381 24.1725 283.264 23.7565 283.385C23.3405 283.507 22.0618 283.222 22.0618 283.222Z" fill="url(#paint44_radial_54_1326)"/>
<path opacity="0.5" d="M26.3316 185.297C26.3316 185.297 27.0606 186.644 27.1666 187.167C27.2563 187.691 27.0725 189.285 27.0725 189.285C27.0725 189.285 28.1336 188.401 28.5495 188.28C28.9665 188.179 30.2443 188.443 30.2443 188.443C30.2443 188.443 29.5152 187.096 29.4093 186.573C29.3195 186.049 29.5033 184.456 29.5033 184.456C29.5033 184.456 28.4423 185.339 28.0263 185.461C27.6093 185.562 26.3316 185.297 26.3316 185.297Z" fill="url(#paint45_radial_54_1326)"/>
<path opacity="0.5" d="M100.374 284.175C100.374 284.175 101.103 285.522 101.209 286.045C101.298 286.569 101.114 288.162 101.114 288.162C101.114 288.162 102.176 287.279 102.592 287.157C103.008 287.056 104.286 287.321 104.286 287.321C104.286 287.321 103.557 285.974 103.451 285.451C103.361 284.927 103.545 283.333 103.545 283.333C103.545 283.333 102.484 284.217 102.068 284.338C101.652 284.459 100.374 284.175 100.374 284.175Z" fill="url(#paint46_radial_54_1326)"/>
<path d="M78.6503 246.545C78.296 246.257 78.1861 245.652 78.4087 245.215C78.6312 244.778 79.1119 244.654 79.4663 244.941C79.8206 245.229 79.9304 245.834 79.7079 246.271C79.4853 246.708 79.0208 246.832 78.6503 246.545ZM87.3454 262.608C87.7895 261.713 87.5709 260.525 86.8461 259.95C86.1213 259.375 85.176 259.623 84.7319 260.518C84.2877 261.413 84.5064 262.601 85.2312 263.176C85.9551 263.731 86.9003 263.483 87.3454 262.608ZM70.0949 253.229C70.9841 251.46 70.5468 249.083 69.1124 247.912C67.6789 246.761 65.7884 247.257 64.883 249.027C63.9938 250.796 64.4311 253.173 65.8655 254.344C67.3152 255.494 69.2057 254.998 70.0949 253.229ZM81.1129 222.922C81.5571 222.027 81.3384 220.839 80.6136 220.264C79.8888 219.688 78.9435 219.937 78.4994 220.831C78.0553 221.726 78.2739 222.914 78.9987 223.489C79.7226 224.044 80.6678 223.796 81.1129 222.922Z" fill="url(#paint47_radial_54_1326)"/>
<path d="M85.016 323.18C85.4007 323.426 85.542 324.009 85.3537 324.485C85.1654 324.961 84.7029 325.125 84.3181 324.879C83.9333 324.634 83.7921 324.051 83.9803 323.575C84.1696 323.119 84.6312 322.935 85.016 323.18ZM75.2798 308.08C74.9023 309.013 75.2009 310.177 75.9552 310.69C76.7086 311.182 77.6329 310.833 78.0265 309.9C78.404 308.968 78.1053 307.804 77.351 307.291C76.5815 306.8 75.6572 307.148 75.2798 308.08ZM93.0758 315.626C92.3047 317.491 92.9019 319.819 94.4096 320.824C95.9172 321.83 97.7657 321.132 98.5368 319.267C99.3079 317.402 98.7107 315.074 97.2031 314.069C95.6783 313.044 93.8307 313.761 93.0758 315.626ZM84.171 347.052C83.7935 347.984 84.0921 349.148 84.8464 349.661C85.5997 350.153 86.524 349.804 86.9177 348.872C87.2951 347.939 86.9965 346.775 86.2422 346.262C85.4717 345.75 84.5475 346.099 84.171 347.052Z" fill="url(#paint48_radial_54_1326)"/>
</g>
<path opacity="0.6" d="M52.7602 170.369C52.7602 170.369 56.8895 172.611 57.9403 173.902C58.9911 175.193 60.8409 180.326 60.8409 180.326C60.8409 180.326 62.5442 175.207 63.5537 173.92C64.5631 172.632 68.6272 170.428 68.6272 170.428C68.6272 170.428 64.4979 168.186 63.447 166.895C62.3962 165.604 60.5465 160.471 60.5465 160.471C60.5465 160.471 58.8432 165.59 57.8337 166.877C56.8253 168.185 52.7602 170.369 52.7602 170.369Z" fill="url(#paint49_radial_54_1326)"/>
<path opacity="0.6" d="M118.257 249.844C118.257 249.844 114.422 249.031 113.189 249.353C111.955 249.676 108.773 252.346 108.773 252.346C108.773 252.346 109.34 247.565 109.056 246.015C108.771 244.464 106.568 240.424 106.568 240.424C106.568 240.424 110.402 241.237 111.636 240.914C112.87 240.592 116.052 237.921 116.052 237.921C116.052 237.921 115.484 242.702 115.769 244.253C116.036 245.785 118.257 249.844 118.257 249.844Z" fill="url(#paint50_radial_54_1326)"/>
</g>
<mask id="mask1_54_1326" style="mask-type:luminance" maskUnits="userSpaceOnUse" x="-457" y="-115" width="1263" height="1073">
<path d="M756.896 -114.109L-456.94 -56.4479L-408.794 957.085L805.043 899.423L756.896 -114.109Z" fill="white"/>
</mask>
<g mask="url(#mask1_54_1326)">
<g opacity="0.81">
<path d="M54.7716 6.80766C54.6599 4.45627 56.0908 2.47856 57.9682 2.38938C56.0908 2.47856 54.4789 0.64539 54.3672 -1.70601C54.4789 0.64539 53.0481 2.62309 51.1707 2.71228C53.0481 2.62309 54.6599 4.45627 54.7716 6.80766Z" fill="white"/>
<path d="M58.8671 2.5295C59.0076 5.48901 57.2115 7.97167 54.8485 8.08392C52.4856 8.19616 50.4622 5.89495 50.3216 2.93543C50.181 -0.0240802 51.9772 -2.50674 54.3401 -2.61898C56.703 -2.73123 58.7265 -0.430019 58.8671 2.5295Z" fill="url(#paint51_radial_54_1326)"/>
<path d="M760.299 185.619C760.187 183.268 761.618 181.29 763.495 181.201C761.618 181.29 760.006 179.457 759.894 177.106C760.006 179.457 758.575 181.435 756.698 181.524C758.575 181.435 760.187 183.268 760.299 185.619Z" fill="white"/>
<path d="M764.378 181.342C764.518 184.301 762.722 186.784 760.359 186.896C757.996 187.009 755.973 184.707 755.832 181.748C755.692 178.788 757.488 176.306 759.851 176.193C762.214 176.081 764.237 178.382 764.378 181.342Z" fill="url(#paint52_radial_54_1326)"/>
<path d="M150.075 174.238C149.963 171.887 151.394 169.909 153.272 169.82C151.394 169.909 149.782 168.076 149.671 165.725C149.782 168.076 148.352 170.054 146.474 170.143C148.352 170.054 149.963 171.887 150.075 174.238Z" fill="white"/>
<path d="M150.136 175.515C152.496 175.403 154.295 172.917 154.154 169.961C154.014 167.005 151.987 164.7 149.627 164.813C147.268 164.925 145.469 167.411 145.609 170.367C145.749 173.322 147.776 175.628 150.136 175.515Z" fill="url(#paint53_radial_54_1326)"/>
<path d="M128.022 143.999C127.824 139.843 130.352 136.371 133.654 136.214C130.336 136.372 127.506 133.134 127.309 128.998C127.507 133.154 124.979 136.626 121.677 136.783C124.978 136.606 127.824 139.843 128.022 143.999Z" fill="white"/>
<path d="M128.129 146.249C132.294 146.051 135.47 141.661 135.222 136.444C134.974 131.227 131.397 127.159 127.231 127.356C123.066 127.554 119.89 131.944 120.138 137.161C120.386 142.378 123.964 146.447 128.129 146.249Z" fill="url(#paint54_radial_54_1326)"/>
<path d="M44.2635 226.094C44.0661 221.939 46.5939 218.466 49.8955 218.309C46.5777 218.467 43.7474 215.229 43.551 211.094C43.7484 215.249 41.2207 218.722 37.919 218.878C41.2197 218.701 44.0661 221.939 44.2635 226.094Z" fill="white"/>
<path d="M44.3703 228.344C48.5356 228.146 51.7114 223.757 51.4636 218.54C51.2158 213.323 47.6382 209.254 43.4729 209.452C39.3076 209.65 36.1318 214.039 36.3796 219.256C36.6275 224.473 40.205 228.542 44.3703 228.344Z" fill="url(#paint55_radial_54_1326)"/>
<path d="M-3.27506 251.818C-0.0304036 251.664 2.44342 248.244 2.25038 244.18C2.05733 240.116 -0.729488 236.947 -3.97414 237.101C-7.2188 237.255 -9.69263 240.675 -9.49958 244.739C-9.30653 248.802 -6.51972 251.972 -3.27506 251.818Z" fill="url(#paint56_linear_54_1326)"/>
<path d="M631.193 296.544C634.438 296.39 636.912 292.971 636.719 288.907C636.526 284.843 633.739 281.674 630.494 281.828C627.249 281.982 624.776 285.401 624.969 289.465C625.162 293.529 627.949 296.698 631.193 296.544Z" fill="url(#paint57_linear_54_1326)"/>
<path d="M663.678 50.2292C663.736 51.4455 663.006 52.4554 662.035 52.5015C661.063 52.5476 660.239 51.5913 660.183 50.3953C660.126 49.1993 660.855 48.1692 661.827 48.123C662.798 48.0769 663.622 49.0333 663.678 50.2292Z" fill="white"/>
<path d="M98.0254 24.7442C98.0832 25.9605 97.3525 26.9704 96.3814 27.0165C95.4104 27.0626 94.5863 26.1063 94.5295 24.9103C94.4727 23.7143 95.2024 22.6842 96.1734 22.638C97.1283 22.5927 97.9686 23.5483 98.0254 24.7442Z" fill="white"/>
</g>
</g>
<path d="M71.0424 151.175L67.5781 145.571L74.5893 142.305C74.7879 142.211 75.0251 142.283 75.141 142.471L77.8991 146.933L80.6573 151.396C80.7731 151.584 80.729 151.826 80.558 151.964L74.5066 156.78L71.0424 151.175Z" fill="url(#paint58_linear_54_1326)"/>
<path d="M76.6027 155.423L73.1605 149.862L69.7184 144.302C69.5915 144.098 69.6797 143.833 69.9004 143.745L70.4244 143.535C70.5954 143.469 70.794 143.53 70.8878 143.69L74.2748 149.162L77.6618 154.64C77.7611 154.799 77.728 155.004 77.5901 155.125L77.1709 155.5C77.0054 155.666 76.7296 155.627 76.6027 155.423Z" fill="url(#paint59_linear_54_1326)"/>
<path d="M78.765 153.624L75.5325 148.401L72.2999 143.177C72.173 142.973 72.2613 142.708 72.4819 142.619L73.006 142.41C73.177 142.344 73.3756 142.404 73.4694 142.564L76.6467 147.705L79.8241 152.847C79.9234 153.007 79.8903 153.211 79.7524 153.332L79.3332 153.707C79.1677 153.867 78.8919 153.829 78.765 153.624Z" fill="url(#paint60_linear_54_1326)"/>
<path d="M110.225 89.5527L124.109 96.6136L112.983 103.498L105.552 94.8429L110.225 89.5527Z" fill="url(#paint61_linear_54_1326)"/>
<path d="M143.532 143.375L143.405 127.797L132.279 134.682L136.708 145.196L143.532 143.375Z" fill="url(#paint62_linear_54_1326)"/>
<path d="M191.767 113.135L188.242 122.788L187.056 123.522L183.382 117.576L191.767 113.135Z" fill="url(#paint63_linear_54_1326)"/>
<path d="M158.812 59.8751L148.602 58.7277L147.416 59.4558L151.095 65.4024L158.812 59.8751Z" fill="url(#paint64_linear_54_1326)"/>
<path d="M92.622 137.826L84.0276 123.936L101.409 115.832C101.906 115.601 102.496 115.777 102.783 116.241L109.629 127.306L116.474 138.366C116.761 138.83 116.657 139.437 116.226 139.779L101.216 151.716L92.622 137.826Z" fill="url(#paint65_linear_54_1326)"/>
<path d="M106.413 148.356L97.8846 134.571L89.3564 120.786C89.0475 120.284 89.2626 119.622 89.8143 119.407L91.1161 118.888C91.5409 118.717 92.0318 118.883 92.269 119.269L100.67 132.844L109.072 146.42C109.314 146.812 109.243 147.319 108.901 147.623L107.858 148.56C107.411 148.958 106.722 148.858 106.413 148.356Z" fill="url(#paint66_linear_54_1326)"/>
<path d="M111.764 143.894L103.749 130.941L95.7334 117.989C95.4244 117.487 95.6396 116.825 96.1912 116.61L97.4931 116.092C97.9178 115.921 98.4088 116.086 98.646 116.472L106.534 129.215L114.423 141.957C114.665 142.349 114.594 142.857 114.252 143.16L113.209 144.098C112.768 144.489 112.078 144.396 111.764 143.894Z" fill="url(#paint67_linear_54_1326)"/>
<path d="M251.547 39.3158C249.142 35.4323 212.265 24.0025 175.416 46.8014C138.562 69.6058 122.57 99.3166 95.783 115.893L104.648 130.219L113.512 144.545C140.305 127.968 174.026 126.909 210.881 104.105C247.724 81.3059 253.946 43.1993 251.547 39.3158Z" fill="url(#paint68_linear_54_1326)"/>
<path opacity="0.3" d="M221.345 58.4407C216.634 50.8282 206.649 48.4783 199.037 53.1892C191.424 57.9001 189.074 67.8846 193.785 75.4971C198.496 83.1096 208.481 85.4596 216.093 80.7486C223.706 76.0377 226.056 66.0477 221.345 58.4407ZM214.019 76.97C208.536 80.3625 201.337 78.669 197.945 73.1858C194.552 67.7026 196.246 60.5038 201.729 57.1113C207.212 53.7188 214.411 55.4123 217.803 60.8955C221.196 66.3787 219.502 73.5719 214.019 76.97Z" fill="#172879"/>
<path d="M208.266 82.6849C217.043 82.6849 224.158 75.5696 224.158 66.7925C224.158 58.0153 217.043 50.9 208.266 50.9C199.489 50.9 192.373 58.0153 192.373 66.7925C192.373 75.5696 199.489 82.6849 208.266 82.6849Z" fill="url(#paint69_linear_54_1326)"/>
<path d="M208.266 78.4704C214.715 78.4704 219.944 73.242 219.944 66.7924C219.944 60.3428 214.715 55.1144 208.266 55.1144C201.816 55.1144 196.588 60.3428 196.588 66.7924C196.588 73.242 201.816 78.4704 208.266 78.4704Z" fill="url(#paint70_linear_54_1326)"/>
<path d="M218.062 64.3874C217.814 63.3889 217.417 62.407 216.849 61.4858C216.827 61.4527 216.805 61.4251 216.783 61.392C212.193 60.3218 207.604 59.2572 203.02 58.1815C203.003 58.1926 202.981 58.2036 202.964 58.2146C202.043 58.7883 201.249 59.4834 200.581 60.2722L218.062 64.3874Z" fill="url(#paint71_linear_54_1326)"/>
<path d="M215.895 73.3899C216.904 72.2204 217.621 70.8524 218.013 69.3961C211.471 67.8571 204.934 66.318 198.391 64.7734C198.088 66.2518 198.121 67.7964 198.502 69.2913C204.299 70.6593 210.097 72.0274 215.895 73.3899Z" fill="url(#paint72_linear_54_1326)"/>
<path d="M211.575 76.3137C212.204 76.093 212.822 75.8117 213.412 75.4586L199.798 72.2537C200.173 72.8329 200.598 73.3624 201.061 73.8368C204.564 74.6643 208.067 75.4917 211.575 76.3137Z" fill="url(#paint73_linear_54_1326)"/>
<path d="M220.391 59.8804C220.093 60.0625 219.701 59.9742 219.519 59.6763C219.337 59.3784 219.425 58.9868 219.723 58.8047C220.021 58.6227 220.413 58.711 220.595 59.0088C220.777 59.3067 220.688 59.6984 220.391 59.8804Z" fill="#3B0364"/>
<path d="M220.39 59.8805C220.093 60.0625 219.701 59.9742 219.519 59.6763C219.337 59.3785 219.425 58.9868 219.723 58.8048C220.021 58.6227 220.413 58.711 220.595 59.0089C220.777 59.3068 220.688 59.6984 220.39 59.8805ZM215.051 53.8842C214.742 53.7187 214.356 53.8346 214.19 54.1435C214.025 54.4524 214.141 54.8386 214.449 55.004C214.758 55.1695 215.144 55.0537 215.31 54.7448C215.475 54.4359 215.36 54.0552 215.051 53.8842ZM207.686 52.2238C207.333 52.2349 207.063 52.5272 207.074 52.8803C207.085 53.2333 207.378 53.5036 207.731 53.4926C208.078 53.4815 208.354 53.1892 208.343 52.8361C208.332 52.4886 208.039 52.2128 207.686 52.2238ZM200.482 54.4634C200.184 54.6455 200.09 55.0371 200.278 55.335C200.46 55.6329 200.852 55.7267 201.15 55.5391C201.447 55.3571 201.541 54.9654 201.354 54.6675C201.172 54.3752 200.78 54.2814 200.482 54.4634ZM195.363 60.0073C195.198 60.3162 195.313 60.7024 195.622 60.8679C195.931 61.0334 196.317 60.9175 196.483 60.6086C196.648 60.2997 196.532 59.9136 196.224 59.7481C195.909 59.5826 195.529 59.6984 195.363 60.0073ZM193.697 67.3716C193.708 67.7246 194 67.9949 194.354 67.9839C194.707 67.9729 194.977 67.6805 194.966 67.3275C194.955 66.9744 194.662 66.7041 194.309 66.7152C193.962 66.7262 193.686 67.0185 193.697 67.3716ZM195.937 74.5759C196.119 74.8738 196.51 74.9675 196.808 74.78C197.106 74.5979 197.2 74.2063 197.012 73.9084C196.83 73.6105 196.439 73.5167 196.141 73.7043C195.848 73.8863 195.755 74.278 195.937 74.5759ZM201.486 79.7005C201.795 79.866 202.181 79.7502 202.347 79.4413C202.512 79.1323 202.396 78.7462 202.087 78.5807C201.778 78.4152 201.392 78.5311 201.227 78.84C201.061 79.1489 201.177 79.535 201.486 79.7005ZM208.845 81.3609C209.198 81.3499 209.468 81.0575 209.457 80.7045C209.446 80.3514 209.154 80.0811 208.801 80.0922C208.448 80.1032 208.177 80.3956 208.188 80.7486C208.205 81.0961 208.497 81.372 208.845 81.3609ZM216.055 79.1213C216.353 78.9393 216.446 78.5476 216.259 78.2497C216.077 77.9518 215.685 77.8581 215.387 78.0456C215.089 78.2277 214.996 78.6193 215.183 78.9172C215.365 79.2151 215.757 79.3033 216.055 79.1213ZM221.174 73.5774C221.339 73.2685 221.223 72.8824 220.915 72.7169C220.606 72.5514 220.219 72.6672 220.054 72.9761C219.888 73.2851 220.004 73.6712 220.313 73.8367C220.622 74.0022 221.008 73.8863 221.174 73.5774ZM222.834 66.2132C222.823 65.8601 222.531 65.5898 222.178 65.6009C221.825 65.6119 221.554 65.9043 221.565 66.2573C221.576 66.6103 221.869 66.8806 222.222 66.8696C222.569 66.8586 222.845 66.5662 222.834 66.2132Z" fill="#E2EDF7"/>
<path opacity="0.3" d="M164.025 93.9106C161.096 89.1776 154.89 87.7158 150.157 90.645C145.424 93.5741 143.962 99.78 146.891 104.513C149.82 109.246 156.026 110.708 160.759 107.779C165.492 104.849 166.954 98.6381 164.025 93.9106ZM159.468 105.429C156.059 107.536 151.586 106.482 149.473 103.073C147.366 99.6641 148.419 95.1904 151.828 93.0777C155.237 90.9704 159.711 92.024 161.824 95.4331C163.937 98.8422 162.883 103.316 159.468 105.429Z" fill="#172879"/>
<path d="M155.894 108.981C161.351 108.981 165.774 104.558 165.774 99.1015C165.774 93.6451 161.351 89.2218 155.894 89.2218C150.438 89.2218 146.014 93.6451 146.014 99.1015C146.014 104.558 150.438 108.981 155.894 108.981Z" fill="url(#paint74_linear_54_1326)"/>
<path d="M155.894 106.361C159.903 106.361 163.153 103.111 163.153 99.1015C163.153 95.0922 159.903 91.842 155.894 91.842C151.885 91.842 148.635 95.0922 148.635 99.1015C148.635 103.111 151.885 106.361 155.894 106.361Z" fill="url(#paint75_linear_54_1326)"/>
<path d="M161.984 97.6065C161.83 96.9832 161.581 96.3764 161.228 95.8027C161.217 95.7806 161.201 95.7641 161.19 95.742C158.338 95.0801 155.486 94.4126 152.634 93.7451C152.623 93.7506 152.612 93.7561 152.601 93.7672C152.027 94.1202 151.531 94.556 151.117 95.047L161.984 97.6065Z" fill="url(#paint76_linear_54_1326)"/>
<path d="M160.638 103.206C161.267 102.477 161.714 101.628 161.951 100.723C157.885 99.7634 153.82 98.8091 149.754 97.8492C149.567 98.7705 149.583 99.7303 149.821 100.657C153.428 101.507 157.03 102.356 160.638 103.206Z" fill="url(#paint77_linear_54_1326)"/>
<path d="M157.952 105.02C158.343 104.883 158.724 104.706 159.093 104.491L150.626 102.5C150.858 102.858 151.122 103.189 151.409 103.487C153.594 103.994 155.773 104.507 157.952 105.02Z" fill="url(#paint78_linear_54_1326)"/>
<path d="M163.435 94.8042C163.247 94.9201 163.004 94.8594 162.894 94.6774C162.778 94.4898 162.839 94.2471 163.021 94.1368C163.209 94.0209 163.451 94.0816 163.562 94.2636C163.672 94.4457 163.617 94.6884 163.435 94.8042Z" fill="#3B0364"/>
<path d="M163.435 94.8043C163.247 94.9201 163.005 94.8594 162.894 94.6774C162.778 94.4898 162.839 94.2471 163.021 94.1368C163.209 94.021 163.451 94.0816 163.562 94.2637C163.672 94.4457 163.617 94.6884 163.435 94.8043ZM160.114 91.0808C159.921 90.976 159.684 91.0477 159.579 91.2407C159.474 91.4338 159.546 91.671 159.739 91.7758C159.932 91.8806 160.169 91.8089 160.274 91.6159C160.379 91.4228 160.307 91.1801 160.114 91.0808ZM155.536 90.0437C155.32 90.0492 155.144 90.2313 155.155 90.4519C155.16 90.6671 155.342 90.8436 155.563 90.8325C155.778 90.827 155.955 90.645 155.944 90.4243C155.938 90.2092 155.756 90.0382 155.536 90.0437ZM151.056 91.4393C150.869 91.5552 150.814 91.7979 150.929 91.9799C151.045 92.1675 151.288 92.2227 151.47 92.1068C151.658 91.991 151.713 91.7482 151.597 91.5662C151.487 91.3787 151.244 91.3235 151.056 91.4393ZM147.873 94.887C147.769 95.0801 147.84 95.3173 148.033 95.4221C148.226 95.5269 148.464 95.4552 148.568 95.2621C148.673 95.0691 148.602 94.8319 148.408 94.7271C148.215 94.6222 147.978 94.6939 147.873 94.887ZM146.842 99.46C146.847 99.6752 147.029 99.8517 147.25 99.8407C147.465 99.8351 147.642 99.6531 147.631 99.4325C147.625 99.2173 147.443 99.0408 147.222 99.0518C147.002 99.0629 146.831 99.2449 146.842 99.46ZM148.232 103.939C148.348 104.127 148.59 104.182 148.773 104.066C148.96 103.95 149.015 103.708 148.899 103.526C148.784 103.338 148.541 103.283 148.359 103.399C148.177 103.515 148.116 103.757 148.232 103.939ZM151.68 107.128C151.873 107.232 152.11 107.161 152.215 106.968C152.319 106.775 152.248 106.537 152.055 106.433C151.862 106.328 151.624 106.4 151.52 106.593C151.415 106.78 151.487 107.023 151.68 107.128ZM156.258 108.159C156.473 108.154 156.65 107.972 156.639 107.751C156.633 107.536 156.451 107.359 156.231 107.37C156.015 107.376 155.839 107.558 155.85 107.779C155.855 107.994 156.037 108.165 156.258 108.159ZM160.737 106.764C160.925 106.648 160.98 106.405 160.864 106.223C160.748 106.035 160.506 105.98 160.324 106.096C160.136 106.212 160.081 106.455 160.197 106.637C160.307 106.824 160.55 106.879 160.737 106.764ZM163.92 103.321C164.025 103.128 163.953 102.891 163.76 102.786C163.567 102.682 163.33 102.753 163.225 102.946C163.12 103.139 163.192 103.377 163.385 103.481C163.578 103.581 163.815 103.509 163.92 103.321ZM164.952 98.7429C164.946 98.5278 164.764 98.3513 164.544 98.3623C164.328 98.3678 164.152 98.5498 164.163 98.7705C164.169 98.9856 164.351 99.1621 164.571 99.1511C164.786 99.1401 164.957 98.9581 164.952 98.7429Z" fill="#E2EDF7"/>
<path d="M91.6124 178.68L95.0767 184.284L101.128 179.468C101.299 179.331 101.343 179.088 101.227 178.9L98.4692 174.438L95.711 169.975C95.5952 169.787 95.358 169.716 95.1594 169.809L88.1482 173.075L91.6124 178.68Z" fill="url(#paint79_linear_54_1326)"/>
<path d="M90.2939 171.812L93.7361 177.372L97.1783 182.933C97.3052 183.137 97.581 183.175 97.7575 183.015L98.1767 182.64C98.3147 182.519 98.3422 182.315 98.2485 182.155L94.8614 176.677L91.4744 171.205C91.3751 171.045 91.1821 170.984 91.0111 171.05L90.487 171.26C90.2553 171.343 90.1671 171.608 90.2939 171.812Z" fill="url(#paint80_linear_54_1326)"/>
<path d="M92.8646 170.681L96.0971 175.905L99.3297 181.129C99.4565 181.333 99.7323 181.371 99.9089 181.211L100.328 180.836C100.466 180.715 100.494 180.505 100.4 180.351L97.2169 175.21L94.0395 170.069C93.9402 169.909 93.7472 169.848 93.5762 169.914L93.0521 170.124C92.8315 170.212 92.7432 170.477 92.8646 170.681Z" fill="url(#paint81_linear_54_1326)"/>
<path d="M55.4642 120.262L52 114.657L59.0112 111.392C59.2098 111.298 59.447 111.37 59.5629 111.557L62.321 116.02L65.0792 120.483C65.195 120.67 65.1509 120.913 64.9799 121.051L58.9285 125.867L55.4642 120.262Z" fill="url(#paint82_linear_54_1326)"/>
<path d="M61.0192 124.51L57.577 118.949L54.1349 113.389C54.008 113.185 54.0962 112.92 54.3169 112.831L54.8409 112.622C55.012 112.556 55.2105 112.616 55.3043 112.776L58.6913 118.249L62.0783 123.726C62.1776 123.886 62.1445 124.09 62.0066 124.212L61.5874 124.587C61.4219 124.752 61.1461 124.714 61.0192 124.51Z" fill="url(#paint83_linear_54_1326)"/>
<path d="M63.1815 122.706L59.949 117.482L56.7164 112.258C56.5895 112.054 56.6778 111.789 56.8984 111.701L57.4225 111.491C57.5935 111.425 57.7921 111.485 57.8859 111.645L61.0632 116.787L64.2406 121.928C64.3399 122.088 64.3068 122.292 64.1689 122.413L63.7497 122.788C63.5842 122.948 63.3084 122.91 63.1815 122.706Z" fill="url(#paint84_linear_54_1326)"/>
<path d="M66.3312 105.092L56.1206 103.939L54.9346 104.673L58.6139 110.614L66.3312 105.092Z" fill="url(#paint85_linear_54_1326)"/>
<path d="M110.037 175.717L106.512 185.376L105.326 186.11L101.652 180.163L110.037 175.717Z" fill="url(#paint86_linear_54_1326)"/>
<path d="M119.288 80.7652C116.921 76.9369 103.561 78.6911 82.6872 91.6047C61.8136 104.518 56.7551 110.641 56.7551 110.641L64.6434 123.39C64.6434 123.39 72.3828 121.591 93.251 108.678C114.125 95.764 121.654 84.5935 119.288 80.7652Z" fill="url(#paint87_linear_54_1326)"/>
<path opacity="0.5" d="M105.304 83.9372C105.712 83.6834 106.253 83.8103 106.507 84.2185C106.76 84.6267 106.633 85.1673 106.225 85.421C105.817 85.6748 105.276 85.5479 105.023 85.1397C104.769 84.7315 104.896 84.1909 105.304 83.9372ZM98.6844 89.0618C98.9381 89.47 99.4787 89.5969 99.8869 89.3431C100.295 89.0894 100.422 88.5488 100.168 88.1406C99.9145 87.7324 99.3739 87.6055 98.9657 87.8592C98.5575 88.113 98.4306 88.6481 98.6844 89.0618ZM96.5661 90.3692C96.8199 90.7774 97.3605 90.9042 97.7687 90.6505C98.1769 90.3967 98.3038 89.8561 98.05 89.4479C97.7963 89.0397 97.2557 88.9129 96.8475 89.1666C96.4392 89.4204 96.3124 89.9609 96.5661 90.3692ZM114.957 82.2547C115.046 82.3981 115.239 82.4422 115.382 82.354C115.526 82.2657 115.57 82.0726 115.482 81.9292C115.393 81.7858 115.2 81.7417 115.057 81.8299C114.913 81.9182 114.869 82.1113 114.957 82.2547ZM104.885 100.657C104.945 100.607 105.006 100.563 105.067 100.514L99.8538 92.0902L112.155 84.4777L115.785 90.3471C115.835 90.2809 115.884 90.2202 115.934 90.1595L109.38 79.5682C109.303 79.5848 109.221 79.6013 109.143 79.6179L112.034 84.2902L99.5394 92.024L104.885 100.657ZM115.664 83.391C115.752 83.5345 115.945 83.5786 116.088 83.4903C116.232 83.4021 116.276 83.209 116.188 83.0656C116.099 82.9222 115.906 82.878 115.763 82.9663C115.614 83.0545 115.57 83.2476 115.664 83.391Z" fill="#C843F9"/>
<path d="M155.436 139.183C157.803 143.011 150.273 154.182 129.405 167.095C108.531 180.009 100.797 181.807 100.797 181.807L92.9089 169.059C92.9089 169.059 97.9729 162.936 118.841 150.022C139.709 137.114 153.07 135.355 155.436 139.183Z" fill="url(#paint88_linear_54_1326)"/>
<path d="M142.605 106.73C139.985 102.499 124.192 105.076 101.123 119.352C78.0535 133.628 72.0408 140.65 72.0408 140.65L80.762 154.744C80.762 154.744 89.726 152.499 112.801 138.223C135.875 123.947 145.226 110.961 142.605 106.73Z" fill="url(#paint89_linear_54_1326)"/>
<path opacity="0.1" d="M193.03 113.725L162.409 64.244C167.561 60.3439 173.088 56.4936 179.101 52.7701C203.147 37.8871 224.781 36.0115 235.582 36.2267L248.772 57.5417C248.805 57.4479 248.838 57.3541 248.866 57.2603L234.292 33.7057C234.192 33.6947 234.099 33.6781 233.999 33.6671L235.439 35.995C224.572 35.8019 202.97 37.7326 178.985 52.577C165.867 60.697 155.033 69.4348 145.474 77.9189L142.429 72.9983C142.374 73.0535 142.318 73.1087 142.258 73.1583L145.297 78.0678C141.574 81.3776 138.049 84.6432 134.651 87.8206C134.364 87.451 133.25 85.6527 131.959 83.5345C131.904 83.5896 131.848 83.6503 131.793 83.7055C132.179 84.3398 132.516 84.886 132.803 85.3493C133.895 87.1201 134.32 87.7434 134.496 87.964C133.498 88.9018 132.505 89.8286 131.528 90.7498C120.38 101.214 109.849 111.099 97.5315 118.723L97.6529 118.916C109.993 111.281 120.529 101.391 131.683 90.9153C140.641 82.5084 150.433 73.3183 162.227 64.3708L192.82 113.813C192.892 113.791 192.963 113.758 193.03 113.725Z" fill="#690D82"/>
<path opacity="0.1" d="M134.689 128.211C134.436 127.803 133.895 127.676 133.487 127.93C133.079 128.183 132.952 128.724 133.205 129.132C133.459 129.54 134 129.667 134.408 129.413C134.816 129.16 134.943 128.619 134.689 128.211ZM132.571 129.524C132.317 129.116 131.777 128.989 131.368 129.242C130.96 129.496 130.833 130.037 131.087 130.445C131.341 130.853 131.881 130.98 132.29 130.726C132.698 130.473 132.825 129.932 132.571 129.524ZM141.027 124.289C140.774 123.881 140.233 123.754 139.825 124.008C139.417 124.261 139.29 124.802 139.544 125.21C139.797 125.618 140.338 125.745 140.746 125.491C141.154 125.238 141.281 124.703 141.027 124.289Z" fill="#690D82"/>
<path opacity="0.5" d="M121.588 112.556C122.052 112.269 122.653 112.412 122.94 112.876C123.227 113.339 123.083 113.94 122.62 114.227C122.156 114.514 121.555 114.371 121.268 113.907C120.987 113.449 121.125 112.843 121.588 112.556ZM111.758 119.793C112.045 120.256 112.652 120.4 113.11 120.113C113.567 119.826 113.716 119.219 113.43 118.762C113.143 118.298 112.536 118.155 112.078 118.442C111.615 118.728 111.471 119.335 111.758 119.793ZM114.141 118.32C114.428 118.784 115.035 118.921 115.493 118.64C115.956 118.353 116.099 117.747 115.813 117.289C115.526 116.825 114.919 116.682 114.461 116.969C113.998 117.256 113.86 117.857 114.141 118.32ZM121.699 132.315C121.77 132.265 121.836 132.216 121.908 132.166L115.454 121.74L129.294 113.179L134.546 121.669C134.607 121.608 134.673 121.542 134.734 121.481L125.896 107.199C125.814 107.227 125.731 107.255 125.648 107.282L129.162 112.958L115.107 121.658L121.699 132.315ZM133.349 111.463C133.183 111.563 133.134 111.778 133.239 111.943C133.338 112.109 133.553 112.158 133.719 112.054C133.884 111.954 133.934 111.739 133.829 111.574C133.73 111.414 133.514 111.364 133.349 111.463ZM132.45 110.664C132.549 110.829 132.764 110.879 132.93 110.774C133.095 110.675 133.145 110.459 133.04 110.294C132.941 110.128 132.726 110.079 132.56 110.184C132.4 110.288 132.345 110.498 132.45 110.664Z" fill="#C843F9"/>
<path opacity="0.5" d="M145.159 150C144.906 149.592 145.032 149.052 145.441 148.798C145.849 148.544 146.389 148.671 146.643 149.079C146.897 149.487 146.77 150.028 146.362 150.282C145.948 150.535 145.413 150.409 145.159 150ZM140.024 154.204C140.432 153.95 140.559 153.409 140.305 153.001C140.051 152.593 139.511 152.466 139.102 152.72C138.694 152.974 138.567 153.514 138.821 153.922C139.075 154.331 139.615 154.457 140.024 154.204ZM137.905 155.517C138.314 155.263 138.44 154.722 138.187 154.314C137.933 153.906 137.392 153.779 136.984 154.033C136.576 154.286 136.449 154.827 136.703 155.235C136.957 155.643 137.497 155.77 137.905 155.517ZM152.601 142.493C152.744 142.404 152.788 142.211 152.7 142.068C152.612 141.924 152.419 141.88 152.275 141.969C152.132 142.057 152.088 142.25 152.176 142.393C152.264 142.542 152.452 142.586 152.601 142.493ZM136.548 151.837L149.043 144.103L151.933 148.776C151.983 148.709 152.033 148.649 152.082 148.588L145.529 137.997C145.452 138.013 145.369 138.03 145.292 138.046L148.921 143.916L136.62 151.528L131.407 143.105C131.341 143.138 131.269 143.171 131.198 143.204L136.548 151.837ZM151.895 141.356C152.038 141.268 152.082 141.075 151.994 140.932C151.906 140.788 151.713 140.744 151.569 140.832C151.426 140.92 151.382 141.114 151.47 141.257C151.558 141.406 151.751 141.45 151.895 141.356Z" fill="#C843F9"/>
</g>
<defs>
<linearGradient id="paint0_linear_54_1326" x1="-223.814" y1="-141.824" x2="-134.436" y2="608.017" gradientUnits="userSpaceOnUse">
<stop stop-color="#070070"/>
<stop offset="1" stop-color="#300045"/>
</linearGradient>
<linearGradient id="paint1_linear_54_1326" x1="-68.32" y1="-53" x2="350.075" y2="456.758" gradientUnits="userSpaceOnUse">
<stop stop-color="#0099F7"/>
<stop offset="1" stop-color="#F11712"/>
</linearGradient>
<linearGradient id="paint2_linear_54_1326" x1="355.32" y1="-53" x2="-63.0751" y2="456.758" gradientUnits="userSpaceOnUse">
<stop stop-color="#0099F7"/>
<stop offset="1" stop-color="#F11712"/>
</linearGradient>
<radialGradient id="paint3_radial_54_1326" cx="0" cy="0" r="1" gradientUnits="userSpaceOnUse" gradientTransform="translate(741.798 499.048) rotate(138.248) scale(194.69 208.785)">
<stop offset="0.0593" stop-color="#FFE080"/>
<stop offset="0.963" stop-color="#FF88FF"/>
</radialGradient>
<radialGradient id="paint4_radial_54_1326" cx="0" cy="0" r="1" gradientUnits="userSpaceOnUse" gradientTransform="translate(751.903 359.258) rotate(-2.7197) scale(14.7307 18.4498)">
<stop offset="0.0593" stop-color="#FFE080"/>
<stop offset="0.963" stop-color="#FF88FF"/>
</radialGradient>
<radialGradient id="paint5_radial_54_1326" cx="0" cy="0" r="1" gradientUnits="userSpaceOnUse" gradientTransform="translate(682.057 349.815) rotate(-2.7197) scale(14.6821 18.389)">
<stop offset="0.0593" stop-color="#FFE080"/>
<stop offset="0.963" stop-color="#FF88FF"/>
</radialGradient>
<radialGradient id="paint6_radial_54_1326" cx="0" cy="0" r="1" gradientUnits="userSpaceOnUse" gradientTransform="translate(747.12 313.672) rotate(177.28) scale(5.77936 7.2385)">
<stop offset="0.0593" stop-color="#FFE080"/>
<stop offset="0.963" stop-color="#FF88FF"/>
</radialGradient>
<radialGradient id="paint7_radial_54_1326" cx="0" cy="0" r="1" gradientUnits="userSpaceOnUse" gradientTransform="translate(645.305 412.702) rotate(138.248) scale(194.683 208.778)">
<stop offset="0.0593" stop-color="#FFE080"/>
<stop offset="0.963" stop-color="#FF88FF"/>
</radialGradient>
<radialGradient id="paint8_radial_54_1326" cx="0" cy="0" r="1" gradientUnits="userSpaceOnUse" gradientTransform="translate(566.168 433.089) rotate(138.248) scale(194.683 208.778)">
<stop offset="0.0593" stop-color="#FFE080"/>
<stop offset="0.963" stop-color="#FF88FF"/>
</radialGradient>
<radialGradient id="paint9_radial_54_1326" cx="0" cy="0" r="1" gradientUnits="userSpaceOnUse" gradientTransform="translate(558.057 327.42) rotate(-2.7197) scale(34.8466 43.6444)">
<stop offset="0.0593" stop-color="#FFE080"/>
<stop offset="0.963" stop-color="#FF88FF"/>
</radialGradient>
<radialGradient id="paint10_radial_54_1326" cx="0" cy="0" r="1" gradientUnits="userSpaceOnUse" gradientTransform="translate(506.424 283.862) rotate(-2.7197) scale(14.6821 18.389)">
<stop offset="0.0593" stop-color="#FFE080"/>
<stop offset="0.963" stop-color="#FF88FF"/>
</radialGradient>
<radialGradient id="paint11_radial_54_1326" cx="0" cy="0" r="1" gradientUnits="userSpaceOnUse" gradientTransform="translate(687.055 243.782) rotate(177.28) scale(7.93105 9.93347)">
<stop offset="0.0593" stop-color="#FFE080"/>
<stop offset="0.963" stop-color="#FF88FF"/>
</radialGradient>
<radialGradient id="paint12_radial_54_1326" cx="0" cy="0" r="1" gradientUnits="userSpaceOnUse" gradientTransform="translate(547.114 303.041) rotate(177.28) scale(10.7342 13.4442)">
<stop offset="0.0593" stop-color="#FFE080"/>
<stop offset="0.963" stop-color="#FF88FF"/>
</radialGradient>
<radialGradient id="paint13_radial_54_1326" cx="0" cy="0" r="1" gradientUnits="userSpaceOnUse" gradientTransform="translate(40.3937 25.6819) rotate(55.6363) scale(209.807 193.735)">
<stop offset="0.0593" stop-color="#FFE080"/>
<stop offset="0.963" stop-color="#FF88FF"/>
</radialGradient>
<radialGradient id="paint14_radial_54_1326" cx="0" cy="0" r="1" gradientUnits="userSpaceOnUse" gradientTransform="translate(-15.3542 48.2091) rotate(-96.5148) scale(34.1402 27.3261)">
<stop offset="0.0593" stop-color="#FFE080"/>
<stop offset="0.963" stop-color="#FF88FF"/>
</radialGradient>
<radialGradient id="paint15_radial_54_1326" cx="0" cy="0" r="1" gradientUnits="userSpaceOnUse" gradientTransform="translate(371.692 -128.317) rotate(55.6362) scale(209.81 193.738)">
<stop offset="0.0593" stop-color="#FFE080"/>
<stop offset="0.963" stop-color="#FF88FF"/>
</radialGradient>
<radialGradient id="paint16_radial_54_1326" cx="0" cy="0" r="1" gradientUnits="userSpaceOnUse" gradientTransform="translate(396.182 -30.8661) rotate(55.6363) scale(209.811 193.739)">
<stop offset="0.0593" stop-color="#FFE080"/>
<stop offset="0.963" stop-color="#FF88FF"/>
</radialGradient>
<radialGradient id="paint17_radial_54_1326" cx="0" cy="0" r="1" gradientUnits="userSpaceOnUse" gradientTransform="translate(283.513 52.7922) rotate(-96.5148) scale(18.3661 14.7004)">
<stop offset="0.0593" stop-color="#FFE080"/>
<stop offset="0.963" stop-color="#FF88FF"/>
</radialGradient>
<radialGradient id="paint18_radial_54_1326" cx="0" cy="0" r="1" gradientUnits="userSpaceOnUse" gradientTransform="translate(451.88 19.2616) rotate(-91.0401) scale(18.3846 14.6858)">
<stop offset="0.0593" stop-color="#FFE080"/>
<stop offset="0.963" stop-color="#FF88FF"/>
</radialGradient>
<radialGradient id="paint19_radial_54_1326" cx="0" cy="0" r="1" gradientUnits="userSpaceOnUse" gradientTransform="translate(501.569 68.8812) rotate(61.8153) scale(214.631 189.381)">
<stop offset="0.0593" stop-color="#FFE080"/>
<stop offset="0.963" stop-color="#FF88FF"/>
</radialGradient>
<radialGradient id="paint20_radial_54_1326" cx="0" cy="0" r="1" gradientUnits="userSpaceOnUse" gradientTransform="translate(516.655 169.038) rotate(61.8154) scale(214.631 189.38)">
<stop offset="0.0593" stop-color="#FFE080"/>
<stop offset="0.963" stop-color="#FF88FF"/>
</radialGradient>
<radialGradient id="paint21_radial_54_1326" cx="0" cy="0" r="1" gradientUnits="userSpaceOnUse" gradientTransform="translate(516.655 169.042) rotate(61.8154) scale(214.628 189.378)">
<stop offset="0.0593" stop-color="#FFE080"/>
<stop offset="0.963" stop-color="#FF88FF"/>
</radialGradient>
<radialGradient id="paint22_radial_54_1326" cx="0" cy="0" r="1" gradientUnits="userSpaceOnUse" gradientTransform="translate(405.134 148.273) rotate(-91.0401) scale(18.4453 14.7343)">
<stop offset="0.0593" stop-color="#FFE080"/>
<stop offset="0.963" stop-color="#FF88FF"/>
</radialGradient>
<radialGradient id="paint23_radial_54_1326" cx="0" cy="0" r="1" gradientUnits="userSpaceOnUse" gradientTransform="translate(396.53 235.073) rotate(-91.0401) scale(18.3846 14.6858)">
<stop offset="0.0593" stop-color="#FFE080"/>
<stop offset="0.963" stop-color="#FF88FF"/>
</radialGradient>
<radialGradient id="paint24_radial_54_1326" cx="0" cy="0" r="1" gradientUnits="userSpaceOnUse" gradientTransform="translate(367.247 6.8445) rotate(177.28) scale(7.92576 9.92678)">
<stop offset="0.0593" stop-color="#FFE080"/>
<stop offset="0.963" stop-color="#FF88FF"/>
</radialGradient>
<radialGradient id="paint25_radial_54_1326" cx="0" cy="0" r="1" gradientUnits="userSpaceOnUse" gradientTransform="translate(368.642 151.604) rotate(177.28) scale(5.91258 7.40529)">
<stop offset="0.0593" stop-color="#FFE080"/>
<stop offset="0.963" stop-color="#FF88FF"/>
</radialGradient>
<radialGradient id="paint26_radial_54_1326" cx="0" cy="0" r="1" gradientUnits="userSpaceOnUse" gradientTransform="translate(838.934 -95.0491) rotate(61.8154) scale(214.632 189.382)">
<stop offset="0.0593" stop-color="#FFE080"/>
<stop offset="0.963" stop-color="#FF88FF"/>
</radialGradient>
<radialGradient id="paint27_radial_54_1326" cx="0" cy="0" r="1" gradientUnits="userSpaceOnUse" gradientTransform="translate(854.021 5.11349) rotate(61.8154) scale(214.63 189.38)">
<stop offset="0.0593" stop-color="#FFE080"/>
<stop offset="0.963" stop-color="#FF88FF"/>
</radialGradient>
<radialGradient id="paint28_radial_54_1326" cx="0" cy="0" r="1" gradientUnits="userSpaceOnUse" gradientTransform="translate(742.499 -15.6558) rotate(-91.0401) scale(18.4453 14.7343)">
<stop offset="0.0593" stop-color="#FFE080"/>
<stop offset="0.963" stop-color="#FF88FF"/>
</radialGradient>
<radialGradient id="paint29_radial_54_1326" cx="0" cy="0" r="1" gradientUnits="userSpaceOnUse" gradientTransform="translate(733.896 71.1445) rotate(-91.0401) scale(18.3846 14.6858)">
<stop offset="0.0593" stop-color="#FFE080"/>
<stop offset="0.963" stop-color="#FF88FF"/>
</radialGradient>
<radialGradient id="paint30_radial_54_1326" cx="0" cy="0" r="1" gradientUnits="userSpaceOnUse" gradientTransform="translate(615.35 36.9769) rotate(177.28) scale(7.92576 9.92678)">
<stop offset="0.0593" stop-color="#FFE080"/>
<stop offset="0.963" stop-color="#FF88FF"/>
</radialGradient>
<radialGradient id="paint31_radial_54_1326" cx="0" cy="0" r="1" gradientUnits="userSpaceOnUse" gradientTransform="translate(706.207 256.626) rotate(-63.4978) scale(211.739 191.97)">
<stop offset="0.0593" stop-color="#FFE080"/>
<stop offset="0.963" stop-color="#FF88FF"/>
</radialGradient>
<radialGradient id="paint32_radial_54_1326" cx="0" cy="0" r="1" gradientUnits="userSpaceOnUse" gradientTransform="translate(717.648 156.427) rotate(-63.4979) scale(211.739 191.97)">
<stop offset="0.0593" stop-color="#FFE080"/>
<stop offset="0.963" stop-color="#FF88FF"/>
</radialGradient>
<radialGradient id="paint33_radial_54_1326" cx="0" cy="0" r="1" gradientUnits="userSpaceOnUse" gradientTransform="translate(818.58 133.476) rotate(-63.4978) scale(393.257 356.541)">
<stop offset="0.0593" stop-color="#FFE080"/>
<stop offset="0.963" stop-color="#FF88FF"/>
</radialGradient>
<radialGradient id="paint34_radial_54_1326" cx="0" cy="0" r="1" gradientUnits="userSpaceOnUse" gradientTransform="translate(612.864 172.696) rotate(-91.0401) scale(34.2588 27.3662)">
<stop offset="0.0593" stop-color="#FFE080"/>
<stop offset="0.963" stop-color="#FF88FF"/>
</radialGradient>
<radialGradient id="paint35_radial_54_1326" cx="0" cy="0" r="1" gradientUnits="userSpaceOnUse" gradientTransform="translate(595.128 90.7702) rotate(-91.0401) scale(18.3844 14.6857)">
<stop offset="0.0593" stop-color="#FFE080"/>
<stop offset="0.963" stop-color="#FF88FF"/>
</radialGradient>
<radialGradient id="paint36_radial_54_1326" cx="0" cy="0" r="1" gradientUnits="userSpaceOnUse" gradientTransform="translate(641.449 304.873) rotate(177.28) scale(14.7205 18.4371)">
<stop offset="0.0593" stop-color="#FFE080"/>
<stop offset="0.963" stop-color="#FF88FF"/>
</radialGradient>
<radialGradient id="paint37_radial_54_1326" cx="0" cy="0" r="1" gradientUnits="userSpaceOnUse" gradientTransform="translate(544.867 166.72) rotate(177.28) scale(10.4721 13.1161)">
<stop offset="0.0593" stop-color="#FFE080"/>
<stop offset="0.963" stop-color="#FF88FF"/>
</radialGradient>
<radialGradient id="paint38_radial_54_1326" cx="0" cy="0" r="1" gradientUnits="userSpaceOnUse" gradientTransform="translate(180.684 351.001) rotate(-117.927) scale(214.828 189.215)">
<stop offset="0.0593" stop-color="#FFE080"/>
<stop offset="0.963" stop-color="#FF88FF"/>
</radialGradient>
<radialGradient id="paint39_radial_54_1326" cx="0" cy="0" r="1" gradientUnits="userSpaceOnUse" gradientTransform="translate(166.002 250.758) rotate(-117.927) scale(214.827 189.214)">
<stop offset="0.0593" stop-color="#FFE080"/>
<stop offset="0.963" stop-color="#FF88FF"/>
</radialGradient>
<radialGradient id="paint40_radial_54_1326" cx="0" cy="0" r="1" gradientUnits="userSpaceOnUse" gradientTransform="translate(166.004 250.757) rotate(-117.927) scale(214.825 189.213)">
<stop offset="0.0593" stop-color="#FFE080"/>
<stop offset="0.963" stop-color="#FF88FF"/>
</radialGradient>
<radialGradient id="paint41_radial_54_1326" cx="0" cy="0" r="1" gradientUnits="userSpaceOnUse" gradientTransform="translate(277.96 272.587) rotate(-2.7197) scale(14.7176 18.4334)">
<stop offset="0.0593" stop-color="#FFE080"/>
<stop offset="0.963" stop-color="#FF88FF"/>
</radialGradient>
<radialGradient id="paint42_radial_54_1326" cx="0" cy="0" r="1" gradientUnits="userSpaceOnUse" gradientTransform="translate(285.891 185.207) rotate(-2.7197) scale(14.6264 18.3192)">
<stop offset="0.0593" stop-color="#FFE080"/>
<stop offset="0.963" stop-color="#FF88FF"/>
</radialGradient>
<radialGradient id="paint43_radial_54_1326" cx="0" cy="0" r="1" gradientUnits="userSpaceOnUse" gradientTransform="translate(313.963 269.143) rotate(177.28) scale(5.93069 7.42801)">
<stop offset="0.0593" stop-color="#FFE080"/>
<stop offset="0.963" stop-color="#FF88FF"/>
</radialGradient>
<radialGradient id="paint44_radial_54_1326" cx="0" cy="0" r="1" gradientUnits="userSpaceOnUse" gradientTransform="translate(-23.2023 161.949) rotate(116.77) scale(211.534 192.167)">
<stop offset="0.0593" stop-color="#FFE080"/>
<stop offset="0.963" stop-color="#FF88FF"/>
</radialGradient>
<radialGradient id="paint45_radial_54_1326" cx="0" cy="0" r="1" gradientUnits="userSpaceOnUse" gradientTransform="translate(-35.0595 262.07) rotate(116.77) scale(211.534 192.168)">
<stop offset="0.0593" stop-color="#FFE080"/>
<stop offset="0.963" stop-color="#FF88FF"/>
</radialGradient>
<radialGradient id="paint46_radial_54_1326" cx="0" cy="0" r="1" gradientUnits="userSpaceOnUse" gradientTransform="translate(-35.0611 262.065) rotate(116.771) scale(211.529 192.164)">
<stop offset="0.0593" stop-color="#FFE080"/>
<stop offset="0.963" stop-color="#FF88FF"/>
</radialGradient>
<radialGradient id="paint47_radial_54_1326" cx="0" cy="0" r="1" gradientUnits="userSpaceOnUse" gradientTransform="translate(75.3282 242.068) rotate(-2.7197) scale(14.7226 18.4397)">
<stop offset="0.0593" stop-color="#FFE080"/>
<stop offset="0.963" stop-color="#FF88FF"/>
</radialGradient>
<radialGradient id="paint48_radial_54_1326" cx="0" cy="0" r="1" gradientUnits="userSpaceOnUse" gradientTransform="translate(87.6992 328.162) rotate(-2.7197) scale(14.7168 18.4324)">
<stop offset="0.0593" stop-color="#FFE080"/>
<stop offset="0.963" stop-color="#FF88FF"/>
</radialGradient>
<radialGradient id="paint49_radial_54_1326" cx="0" cy="0" r="1" gradientUnits="userSpaceOnUse" gradientTransform="translate(60.7021 170.415) rotate(177.28) scale(7.92411 9.92474)">
<stop offset="0.0593" stop-color="#FFE080"/>
<stop offset="0.963" stop-color="#FF88FF"/>
</radialGradient>
<radialGradient id="paint50_radial_54_1326" cx="0" cy="0" r="1" gradientUnits="userSpaceOnUse" gradientTransform="translate(112.401 245.124) rotate(177.28) scale(5.61799 7.03636)">
<stop offset="0.0593" stop-color="#FFE080"/>
<stop offset="0.963" stop-color="#FF88FF"/>
</radialGradient>
<radialGradient id="paint51_radial_54_1326" cx="0" cy="0" r="1" gradientUnits="userSpaceOnUse" gradientTransform="translate(54.5831 2.72934) rotate(-2.7197) scale(4.28144 5.36236)">
<stop offset="0.5628" stop-color="white"/>
<stop offset="1" stop-color="white" stop-opacity="0"/>
</radialGradient>
<radialGradient id="paint52_radial_54_1326" cx="0" cy="0" r="1" gradientUnits="userSpaceOnUse" gradientTransform="translate(760.1 181.547) rotate(-2.7197) scale(4.2816 5.36256)">
<stop offset="0.5628" stop-color="white"/>
<stop offset="1" stop-color="white" stop-opacity="0"/>
</radialGradient>
<radialGradient id="paint53_radial_54_1326" cx="0" cy="0" r="1" gradientUnits="userSpaceOnUse" gradientTransform="translate(149.881 170.169) rotate(-2.7197) scale(4.28157 5.36256)">
<stop offset="0.5628" stop-color="white"/>
<stop offset="1" stop-color="white" stop-opacity="0"/>
</radialGradient>
<radialGradient id="paint54_radial_54_1326" cx="0" cy="0" r="1" gradientUnits="userSpaceOnUse" gradientTransform="translate(127.673 136.801) rotate(-2.7197) scale(7.55713 9.4651)">
<stop offset="0.5628" stop-color="white"/>
<stop offset="1" stop-color="white" stop-opacity="0"/>
</radialGradient>
<radialGradient id="paint55_radial_54_1326" cx="0" cy="0" r="1" gradientUnits="userSpaceOnUse" gradientTransform="translate(43.9159 218.898) rotate(-2.7197) scale(7.55713 9.4651)">
<stop offset="0.5628" stop-color="white"/>
<stop offset="1" stop-color="white" stop-opacity="0"/>
</radialGradient>
<linearGradient id="paint56_linear_54_1326" x1="-9.49221" y1="244.74" x2="2.24156" y2="244.183" gradientUnits="userSpaceOnUse">
<stop offset="0.1667" stop-color="#0380B6" stop-opacity="0"/>
<stop offset="1" stop-color="#0AE0BC"/>
</linearGradient>
<linearGradient id="paint57_linear_54_1326" x1="624.973" y1="289.464" x2="636.706" y2="288.907" gradientUnits="userSpaceOnUse">
<stop offset="0.1667" stop-color="#0380B6" stop-opacity="0"/>
<stop offset="1" stop-color="#0AE0BC"/>
</linearGradient>
<linearGradient id="paint58_linear_54_1326" x1="69.1157" y1="152.371" x2="75.1965" y2="148.608" gradientUnits="userSpaceOnUse">
<stop stop-color="#6000B8"/>
<stop offset="0.2062" stop-color="#5D00B2"/>
<stop offset="0.4787" stop-color="#5300A1"/>
<stop offset="0.7868" stop-color="#430086"/>
<stop offset="1" stop-color="#36006F"/>
</linearGradient>
<linearGradient id="paint59_linear_54_1326" x1="77.6481" y1="147.091" x2="74.9539" y2="148.758" gradientUnits="userSpaceOnUse">
<stop stop-color="#6000B8"/>
<stop offset="0.2062" stop-color="#5D00B2"/>
<stop offset="0.4787" stop-color="#5300A1"/>
<stop offset="0.7868" stop-color="#430086"/>
<stop offset="1" stop-color="#36006F"/>
</linearGradient>
<linearGradient id="paint60_linear_54_1326" x1="77.6474" y1="147.091" x2="74.9532" y2="148.758" gradientUnits="userSpaceOnUse">
<stop stop-color="#6000B8"/>
<stop offset="0.2062" stop-color="#5D00B2"/>
<stop offset="0.4787" stop-color="#5300A1"/>
<stop offset="0.7868" stop-color="#430086"/>
<stop offset="1" stop-color="#36006F"/>
</linearGradient>
<linearGradient id="paint61_linear_54_1326" x1="110.791" y1="89.2025" x2="117.795" y2="100.52" gradientUnits="userSpaceOnUse">
<stop stop-color="#C70095"/>
<stop offset="0.1145" stop-color="#C10094"/>
<stop offset="0.2658" stop-color="#B00293"/>
<stop offset="0.4379" stop-color="#950391"/>
<stop offset="0.6252" stop-color="#6F068D"/>
<stop offset="0.8224" stop-color="#3E0A89"/>
<stop offset="1" stop-color="#0C0D85"/>
</linearGradient>
<linearGradient id="paint62_linear_54_1326" x1="137.092" y1="131.706" x2="144.096" y2="143.023" gradientUnits="userSpaceOnUse">
<stop stop-color="#0C0D85"/>
<stop offset="0.1776" stop-color="#3E0A89"/>
<stop offset="0.3748" stop-color="#6F068D"/>
<stop offset="0.5621" stop-color="#950391"/>
<stop offset="0.7342" stop-color="#B00293"/>
<stop offset="0.8855" stop-color="#C10094"/>
<stop offset="1" stop-color="#C70095"/>
</linearGradient>
<linearGradient id="paint63_linear_54_1326" x1="187.407" y1="115.086" x2="191.085" y2="121.028" gradientUnits="userSpaceOnUse">
<stop stop-color="#0C0D85"/>
<stop offset="0.1776" stop-color="#3E0A89"/>
<stop offset="0.3748" stop-color="#6F068D"/>
<stop offset="0.5621" stop-color="#950391"/>
<stop offset="0.7342" stop-color="#B00293"/>
<stop offset="0.8855" stop-color="#C10094"/>
<stop offset="1" stop-color="#C70095"/>
</linearGradient>
<linearGradient id="paint64_linear_54_1326" x1="151.442" y1="56.9658" x2="155.12" y2="62.908" gradientUnits="userSpaceOnUse">
<stop stop-color="#C70095"/>
<stop offset="0.1145" stop-color="#C10094"/>
<stop offset="0.2658" stop-color="#B00293"/>
<stop offset="0.4379" stop-color="#950391"/>
<stop offset="0.6252" stop-color="#6F068D"/>
<stop offset="0.8224" stop-color="#3E0A89"/>
<stop offset="1" stop-color="#0C0D85"/>
</linearGradient>
<linearGradient id="paint65_linear_54_1326" x1="87.8407" y1="140.784" x2="102.919" y2="131.452" gradientUnits="userSpaceOnUse">
<stop stop-color="#6000B8"/>
<stop offset="0.2062" stop-color="#5D00B2"/>
<stop offset="0.4787" stop-color="#5300A1"/>
<stop offset="0.7868" stop-color="#430086"/>
<stop offset="1" stop-color="#36006F"/>
</linearGradient>
<linearGradient id="paint66_linear_54_1326" x1="108.998" y1="127.691" x2="102.318" y2="131.825" gradientUnits="userSpaceOnUse">
<stop stop-color="#6000B8"/>
<stop offset="0.2062" stop-color="#5D00B2"/>
<stop offset="0.4787" stop-color="#5300A1"/>
<stop offset="0.7868" stop-color="#430086"/>
<stop offset="1" stop-color="#36006F"/>
</linearGradient>
<linearGradient id="paint67_linear_54_1326" x1="108.997" y1="127.692" x2="102.316" y2="131.826" gradientUnits="userSpaceOnUse">
<stop stop-color="#6000B8"/>
<stop offset="0.2062" stop-color="#5D00B2"/>
<stop offset="0.4787" stop-color="#5300A1"/>
<stop offset="0.7868" stop-color="#430086"/>
<stop offset="1" stop-color="#36006F"/>
</linearGradient>
<linearGradient id="paint68_linear_54_1326" x1="198.066" y1="117.044" x2="159.755" y2="55.1379" gradientUnits="userSpaceOnUse">
<stop offset="0.3364" stop-color="white"/>
<stop offset="0.4374" stop-color="#FEF9FF"/>
<stop offset="0.5718" stop-color="#FDE8FF"/>
<stop offset="0.7243" stop-color="#FACDFF"/>
<stop offset="0.8396" stop-color="#F7B3FF"/>
<stop offset="0.8663" stop-color="#EEBAFF"/>
<stop offset="0.9095" stop-color="#D6CCFE"/>
<stop offset="0.9636" stop-color="#AFEAFE"/>
<stop offset="0.9976" stop-color="#93FFFD"/>
</linearGradient>
<linearGradient id="paint69_linear_54_1326" x1="194.055" y1="75.5877" x2="218.12" y2="60.6952" gradientUnits="userSpaceOnUse">
<stop stop-color="#6000B8"/>
<stop offset="0.2062" stop-color="#5D00B2"/>
<stop offset="0.4787" stop-color="#5300A1"/>
<stop offset="0.7868" stop-color="#430086"/>
<stop offset="1" stop-color="#36006F"/>
</linearGradient>
<linearGradient id="paint70_linear_54_1326" x1="197.296" y1="64.2097" x2="223.101" y2="70.2855" gradientUnits="userSpaceOnUse">
<stop stop-color="#FF17D0"/>
<stop offset="1" stop-color="#FFD394"/>
</linearGradient>
<linearGradient id="paint71_linear_54_1326" x1="200.428" y1="58.8882" x2="219.579" y2="63.3981" gradientUnits="userSpaceOnUse">
<stop stop-color="white"/>
<stop offset="1" stop-color="white" stop-opacity="0"/>
</linearGradient>
<linearGradient id="paint72_linear_54_1326" x1="198.507" y1="67.0497" x2="217.658" y2="71.5595" gradientUnits="userSpaceOnUse">
<stop stop-color="white"/>
<stop offset="1" stop-color="white" stop-opacity="0"/>
</linearGradient>
<linearGradient id="paint73_linear_54_1326" x1="197.27" y1="72.3037" x2="216.42" y2="76.8134" gradientUnits="userSpaceOnUse">
<stop stop-color="white"/>
<stop offset="1" stop-color="white" stop-opacity="0"/>
</linearGradient>
<linearGradient id="paint74_linear_54_1326" x1="147.719" y1="104.163" x2="163.922" y2="94.1355" gradientUnits="userSpaceOnUse">
<stop stop-color="#6000B8"/>
<stop offset="0.2062" stop-color="#5D00B2"/>
<stop offset="0.4787" stop-color="#5300A1"/>
<stop offset="0.7868" stop-color="#430086"/>
<stop offset="1" stop-color="#36006F"/>
</linearGradient>
<linearGradient id="paint75_linear_54_1326" x1="144.077" y1="96.3193" x2="167.55" y2="101.846" gradientUnits="userSpaceOnUse">
<stop stop-color="#FF17D0"/>
<stop offset="1" stop-color="#FFD394"/>
</linearGradient>
<linearGradient id="paint76_linear_54_1326" x1="151.024" y1="94.188" x2="162.929" y2="96.9916" gradientUnits="userSpaceOnUse">
<stop stop-color="white"/>
<stop offset="1" stop-color="white" stop-opacity="0"/>
</linearGradient>
<linearGradient id="paint77_linear_54_1326" x1="149.829" y1="99.2617" x2="161.734" y2="102.065" gradientUnits="userSpaceOnUse">
<stop stop-color="white"/>
<stop offset="1" stop-color="white" stop-opacity="0"/>
</linearGradient>
<linearGradient id="paint78_linear_54_1326" x1="149.06" y1="102.528" x2="160.965" y2="105.331" gradientUnits="userSpaceOnUse">
<stop stop-color="white"/>
<stop offset="1" stop-color="white" stop-opacity="0"/>
</linearGradient>
<linearGradient id="paint79_linear_54_1326" x1="89.683" y1="179.875" x2="95.7639" y2="176.112" gradientUnits="userSpaceOnUse">
<stop stop-color="#6000B8"/>
<stop offset="0.2062" stop-color="#5D00B2"/>
<stop offset="0.4787" stop-color="#5300A1"/>
<stop offset="0.7868" stop-color="#430086"/>
<stop offset="1" stop-color="#36006F"/>
</linearGradient>
<linearGradient id="paint80_linear_54_1326" x1="98.2153" y1="174.594" x2="95.5212" y2="176.262" gradientUnits="userSpaceOnUse">
<stop stop-color="#6000B8"/>
<stop offset="0.2062" stop-color="#5D00B2"/>
<stop offset="0.4787" stop-color="#5300A1"/>
<stop offset="0.7868" stop-color="#430086"/>
<stop offset="1" stop-color="#36006F"/>
</linearGradient>
<linearGradient id="paint81_linear_54_1326" x1="98.2149" y1="174.595" x2="95.5208" y2="176.262" gradientUnits="userSpaceOnUse">
<stop stop-color="#6000B8"/>
<stop offset="0.2062" stop-color="#5D00B2"/>
<stop offset="0.4787" stop-color="#5300A1"/>
<stop offset="0.7868" stop-color="#430086"/>
<stop offset="1" stop-color="#36006F"/>
</linearGradient>
<linearGradient id="paint82_linear_54_1326" x1="53.5326" y1="121.455" x2="59.6135" y2="117.691" gradientUnits="userSpaceOnUse">
<stop stop-color="#6000B8"/>
<stop offset="0.2062" stop-color="#5D00B2"/>
<stop offset="0.4787" stop-color="#5300A1"/>
<stop offset="0.7868" stop-color="#430086"/>
<stop offset="1" stop-color="#36006F"/>
</linearGradient>
<linearGradient id="paint83_linear_54_1326" x1="62.065" y1="116.174" x2="59.3709" y2="117.842" gradientUnits="userSpaceOnUse">
<stop stop-color="#6000B8"/>
<stop offset="0.2062" stop-color="#5D00B2"/>
<stop offset="0.4787" stop-color="#5300A1"/>
<stop offset="0.7868" stop-color="#430086"/>
<stop offset="1" stop-color="#36006F"/>
</linearGradient>
<linearGradient id="paint84_linear_54_1326" x1="62.0644" y1="116.175" x2="59.3703" y2="117.842" gradientUnits="userSpaceOnUse">
<stop stop-color="#6000B8"/>
<stop offset="0.2062" stop-color="#5D00B2"/>
<stop offset="0.4787" stop-color="#5300A1"/>
<stop offset="0.7868" stop-color="#430086"/>
<stop offset="1" stop-color="#36006F"/>
</linearGradient>
<linearGradient id="paint85_linear_54_1326" x1="58.9619" y1="102.181" x2="62.6392" y2="108.123" gradientUnits="userSpaceOnUse">
<stop stop-color="#6000B8"/>
<stop offset="0.2062" stop-color="#5D00B2"/>
<stop offset="0.4787" stop-color="#5300A1"/>
<stop offset="0.7868" stop-color="#430086"/>
<stop offset="1" stop-color="#36006F"/>
</linearGradient>
<linearGradient id="paint86_linear_54_1326" x1="109.354" y1="183.615" x2="105.677" y2="177.673" gradientUnits="userSpaceOnUse">
<stop stop-color="#6000B8"/>
<stop offset="0.2062" stop-color="#5D00B2"/>
<stop offset="0.4787" stop-color="#5300A1"/>
<stop offset="0.7868" stop-color="#430086"/>
<stop offset="1" stop-color="#36006F"/>
</linearGradient>
<linearGradient id="paint87_linear_54_1326" x1="98.0398" y1="106.885" x2="78.1898" y2="90.8661" gradientUnits="userSpaceOnUse">
<stop offset="0.3364" stop-color="white"/>
<stop offset="0.4374" stop-color="#FEF9FF"/>
<stop offset="0.5718" stop-color="#FDE8FF"/>
<stop offset="0.7243" stop-color="#FACDFF"/>
<stop offset="0.8396" stop-color="#F7B3FF"/>
<stop offset="0.8663" stop-color="#EEBAFF"/>
<stop offset="0.9095" stop-color="#D6CCFE"/>
<stop offset="0.9636" stop-color="#AFEAFE"/>
<stop offset="0.9976" stop-color="#93FFFD"/>
</linearGradient>
<linearGradient id="paint88_linear_54_1326" x1="136.239" y1="169.516" x2="115.432" y2="146.34" gradientUnits="userSpaceOnUse">
<stop offset="0.3364" stop-color="white"/>
<stop offset="0.4374" stop-color="#FEF9FF"/>
<stop offset="0.5718" stop-color="#FDE8FF"/>
<stop offset="0.7243" stop-color="#FACDFF"/>
<stop offset="0.8396" stop-color="#F7B3FF"/>
<stop offset="0.8663" stop-color="#EEBAFF"/>
<stop offset="0.9095" stop-color="#D6CCFE"/>
<stop offset="0.9636" stop-color="#AFEAFE"/>
<stop offset="0.9976" stop-color="#93FFFD"/>
</linearGradient>
<linearGradient id="paint89_linear_54_1326" x1="115.344" y1="136.65" x2="103.665" y2="117.777" gradientUnits="userSpaceOnUse">
<stop offset="0.1787" stop-color="white"/>
<stop offset="0.2923" stop-color="#FEF9FF"/>
<stop offset="0.4434" stop-color="#FDE8FF"/>
<stop offset="0.6149" stop-color="#FACDFF"/>
<stop offset="0.7445" stop-color="#F7B3FF"/>
<stop offset="0.7872" stop-color="#EEBAFF"/>
<stop offset="0.8564" stop-color="#D6CCFE"/>
<stop offset="0.9431" stop-color="#AFEAFE"/>
<stop offset="0.9976" stop-color="#93FFFD"/>
</linearGradient>
<clipPath id="clip0_54_1326">
<rect width="800" height="360" fill="white"/>
</clipPath>
</defs>
</svg>
