<svg width="800" height="360" viewBox="0 0 800 360" fill="none" xmlns="http://www.w3.org/2000/svg">
<g clip-path="url(#clip0_54_4398)">
<rect width="800" height="360" fill="white"/>
<rect width="818" height="364" fill="url(#paint0_linear_54_4398)"/>
<g clip-path="url(#clip1_54_4398)">
<mask id="mask0_54_4398" style="mask-type:luminance" maskUnits="userSpaceOnUse" x="-437" y="-236" width="1302" height="1074">
<path d="M815.974 -236L-437 -176.479L-388.854 837.053L864.121 777.532L815.974 -236Z" fill="white"/>
</mask>
<g mask="url(#mask0_54_4398)">
<g opacity="0.6">
<path opacity="0.5" d="M778.877 306.971C778.877 306.971 777.732 306.131 777.292 306.03C776.852 305.949 775.562 306.275 775.562 306.275C775.562 306.275 776.233 304.902 776.309 304.37C776.367 303.839 776.075 302.268 776.075 302.268C776.075 302.268 777.22 303.108 777.66 303.209C778.082 303.29 779.39 302.964 779.39 302.964C779.39 302.964 778.718 304.337 778.643 304.869C778.584 305.4 778.877 306.971 778.877 306.971Z" fill="url(#paint1_radial_54_4398)"/>
<path opacity="0.5" d="M773.758 209.086C773.758 209.086 772.613 208.246 772.173 208.145C771.75 208.064 770.443 208.39 770.443 208.39C770.443 208.39 771.115 207.017 771.19 206.485C771.249 205.974 770.956 204.383 770.956 204.383C770.956 204.383 772.101 205.223 772.541 205.324C772.98 205.405 774.271 205.079 774.271 205.079C774.271 205.079 773.599 206.452 773.524 206.984C773.465 207.495 773.758 209.086 773.758 209.086Z" fill="url(#paint2_radial_54_4398)"/>
<path d="M806.094 232.782C806.449 232.481 806.939 232.58 807.194 233.015C807.449 233.45 807.377 234.042 807.023 234.343C806.669 234.645 806.178 234.546 805.923 234.111C805.668 233.676 805.74 233.084 806.094 232.782ZM791.897 226.813C792.407 227.683 793.404 227.88 794.112 227.277C794.82 226.675 794.964 225.469 794.454 224.599C793.944 223.73 792.946 223.533 792.238 224.136C791.531 224.759 791.387 225.964 791.897 226.813ZM800.223 250.533C801.26 252.272 803.239 252.686 804.654 251.461C806.07 250.235 806.375 247.844 805.338 246.105C804.301 244.367 802.322 243.953 800.907 245.178C799.491 246.403 799.187 248.815 800.223 250.533ZM824.895 232.377C825.406 233.247 826.403 233.443 827.111 232.841C827.819 232.238 827.963 231.033 827.453 230.163C826.943 229.293 825.945 229.097 825.237 229.699C824.529 230.302 824.385 231.507 824.895 232.377Z" fill="url(#paint3_radial_54_4398)"/>
<path d="M742.255 231.833C741.882 232.095 741.39 231.955 741.166 231.478C740.944 231.022 741.05 230.428 741.439 230.165C741.812 229.904 742.304 230.043 742.527 230.52C742.75 230.977 742.627 231.551 742.255 231.833ZM756 239.205C755.538 238.293 754.569 237.973 753.824 238.516C753.08 239.059 752.834 240.229 753.296 241.142C753.758 242.054 754.728 242.374 755.472 241.831C756.217 241.308 756.462 240.118 756 239.205ZM749.347 214.755C748.44 212.929 746.485 212.311 744.995 213.378C743.505 214.444 743.031 216.803 743.938 218.629C744.846 220.455 746.8 221.073 748.29 220.007C749.797 218.94 750.254 216.582 749.347 214.755ZM723.462 230.288C723 229.375 722.03 229.056 721.286 229.599C720.541 230.142 720.295 231.312 720.757 232.224C721.219 233.137 722.189 233.457 722.933 232.913C723.679 232.39 723.925 231.221 723.462 230.288Z" fill="url(#paint4_radial_54_4398)"/>
</g>
<path opacity="0.6" d="M801.034 184.771C801.034 184.771 801.93 189.524 801.719 191.078C801.526 192.651 799.494 196.77 799.494 196.77C799.494 196.77 803.399 195.772 804.685 196.057C805.986 196.32 809.422 198.859 809.422 198.859C809.422 198.859 808.527 194.106 808.738 192.552C808.931 190.979 810.962 186.86 810.962 186.86C810.962 186.86 807.058 187.858 805.772 187.574C804.47 187.31 801.034 184.771 801.034 184.771Z" fill="url(#paint5_radial_54_4398)"/>
<g opacity="0.6">
<path opacity="0.5" d="M597.7 241.28C597.7 241.28 596.555 240.441 596.115 240.34C595.676 240.259 594.385 240.584 594.385 240.584C594.385 240.584 595.057 239.212 595.132 238.68C595.19 238.149 594.898 236.578 594.898 236.578C594.898 236.578 596.043 237.418 596.483 237.519C596.905 237.6 598.213 237.274 598.213 237.274C598.213 237.274 597.541 238.647 597.466 239.178C597.408 239.709 597.7 241.28 597.7 241.28Z" fill="url(#paint6_radial_54_4398)"/>
<path opacity="0.5" d="M678.04 230.394C678.04 230.394 676.895 229.554 676.455 229.453C676.032 229.372 674.725 229.698 674.725 229.698C674.725 229.698 675.396 228.325 675.472 227.793C675.547 227.262 675.238 225.692 675.238 225.692C675.238 225.692 676.383 226.531 676.823 226.632C677.262 226.713 678.553 226.387 678.553 226.387C678.553 226.387 677.881 227.76 677.806 228.292C677.747 228.803 678.04 230.394 678.04 230.394Z" fill="url(#paint7_radial_54_4398)"/>
<path d="M624.918 167.092C625.272 166.791 625.762 166.889 626.017 167.324C626.272 167.759 626.2 168.352 625.846 168.653C625.492 168.954 625.002 168.856 624.747 168.421C624.492 167.986 624.564 167.393 624.918 167.092ZM574.038 246.508C575.001 248.108 576.846 248.508 578.148 247.369C579.45 246.231 579.746 244.002 578.782 242.402C577.819 240.802 575.975 240.402 574.673 241.541C573.37 242.659 573.09 244.887 574.038 246.508ZM619.047 184.843C620.084 186.582 622.063 186.996 623.478 185.77C624.893 184.545 625.198 182.153 624.161 180.415C623.124 178.676 621.145 178.262 619.73 179.488C618.316 180.733 618.011 183.125 619.047 184.843ZM643.719 166.686C644.229 167.556 645.226 167.753 645.934 167.15C646.643 166.548 646.786 165.342 646.276 164.472C645.766 163.603 644.769 163.406 644.061 164.009C643.352 164.611 643.192 165.818 643.719 166.686Z" fill="url(#paint8_radial_54_4398)"/>
<path d="M561.078 166.143C560.705 166.404 560.213 166.265 559.99 165.788C559.767 165.331 559.873 164.737 560.262 164.475C560.635 164.213 561.127 164.353 561.351 164.829C561.556 165.287 561.45 165.861 561.078 166.143ZM574.823 173.515C574.361 172.602 573.392 172.282 572.648 172.826C571.903 173.369 571.657 174.539 572.119 175.451C572.581 176.364 573.551 176.684 574.295 176.14C575.04 175.617 575.285 174.427 574.823 173.515ZM568.17 149.065C567.263 147.239 565.308 146.621 563.818 147.687C562.328 148.753 561.854 151.112 562.761 152.938C563.669 154.764 565.624 155.383 567.113 154.316C568.603 153.25 569.077 150.891 568.17 149.065ZM542.285 164.597C541.823 163.685 540.853 163.365 540.109 163.908C539.364 164.452 539.119 165.621 539.581 166.534C540.043 167.447 541.012 167.766 541.756 167.223C542.502 166.7 542.731 165.531 542.285 164.597Z" fill="url(#paint9_radial_54_4398)"/>
</g>
<path opacity="0.6" d="M743.805 131.945C743.805 131.945 741.74 126.903 740.61 125.677C739.48 124.43 735.165 122.421 735.165 122.421C735.165 122.421 739.286 120.01 740.277 118.663C741.285 117.315 742.863 112.12 742.863 112.12C742.863 112.12 744.928 117.162 746.058 118.389C747.189 119.635 751.503 121.645 751.503 121.645C751.503 121.645 747.382 124.055 746.391 125.402C745.399 126.729 743.805 131.945 743.805 131.945Z" fill="url(#paint10_radial_54_4398)"/>
<path opacity="0.6" d="M591.007 168.418C591.007 168.418 592.649 177.239 592.284 180.141C591.92 183.044 588.149 190.719 588.149 190.719C588.149 190.719 595.396 188.892 597.797 189.387C600.198 189.883 606.601 194.597 606.601 194.597C606.601 194.597 604.959 185.776 605.324 182.874C605.688 179.972 609.459 172.296 609.459 172.296C609.459 172.296 602.212 174.123 599.811 173.628C597.409 173.112 591.007 168.418 591.007 168.418Z" fill="url(#paint11_radial_54_4398)"/>
<g opacity="0.6">
<path opacity="0.5" d="M45.6565 31.6917C45.6565 31.6917 45.0724 33.1416 45.0473 33.6711C45.0222 34.2005 45.4138 35.7462 45.4138 35.7462C45.4138 35.7462 44.2068 35.0112 43.7695 34.9711C43.3323 34.9309 42.0642 35.3771 42.0642 35.3771C42.0642 35.3771 42.6483 33.9272 42.6734 33.3978C42.6985 32.8684 42.3069 31.3226 42.3069 31.3226C42.3069 31.3226 43.5139 32.0576 43.9512 32.0978C44.3894 32.1583 45.6565 31.6917 45.6565 31.6917Z" fill="url(#paint12_radial_54_4398)"/>
<path d="M2.42257 77.8524C-0.199454 80.1102 -3.86999 79.3297 -5.78112 76.1089C-7.69224 72.8881 -7.11601 68.4521 -4.49399 66.1943C-1.87197 63.9365 1.79857 64.717 3.70969 67.9378C5.62082 71.1586 5.04459 75.5946 2.42257 77.8524Z" fill="url(#paint13_radial_54_4398)"/>
</g>
<g opacity="0.6">
<path opacity="0.5" d="M509.276 68.5857C509.276 68.5857 508.554 69.9406 508.477 70.4521C508.401 70.9636 508.644 72.5571 508.644 72.5571C508.644 72.5571 507.513 71.6559 507.09 71.5542C506.666 71.4524 505.356 71.7178 505.356 71.7178C505.356 71.7178 506.079 70.3629 506.155 69.8514C506.231 69.3398 505.988 67.7464 505.988 67.7464C505.988 67.7464 507.119 68.6475 507.543 68.7493C507.967 68.8714 509.276 68.5857 509.276 68.5857Z" fill="url(#paint14_radial_54_4398)"/>
<path opacity="0.5" d="M428.474 69.3969C428.474 69.3969 427.752 70.7517 427.676 71.2633C427.6 71.7748 427.843 73.3683 427.843 73.3683C427.843 73.3683 426.712 72.4671 426.288 72.3653C425.865 72.2636 424.554 72.5289 424.554 72.5289C424.554 72.5289 425.277 71.1741 425.353 70.6625C425.429 70.151 425.186 68.5575 425.186 68.5575C425.186 68.5575 426.317 69.4587 426.741 69.5605C427.165 69.6825 428.474 69.3969 428.474 69.3969Z" fill="url(#paint15_radial_54_4398)"/>
<path d="M448.594 31.5263C448.355 31.0907 448.444 30.4972 448.798 30.196C449.153 29.915 449.645 30.0339 449.9 30.4687C450.138 30.9044 450.049 31.4978 449.695 31.799C449.341 32.1003 448.85 31.9814 448.594 31.5263ZM443.435 48.4105C444.161 47.8275 444.355 46.6399 443.861 45.7491C443.367 44.8584 442.383 44.6003 441.657 45.1833C440.932 45.7664 440.737 46.954 441.231 47.8447C441.726 48.7355 442.709 48.9935 443.435 48.4105ZM463.144 39.6321C464.596 38.4661 464.969 36.0916 463.997 34.3296C463.026 32.5676 461.043 32.0523 459.607 33.1973C458.155 34.3634 457.783 36.7378 458.754 38.4998C459.726 40.2821 461.692 40.7779 463.144 39.6321ZM448.616 8.73025C449.342 8.14723 449.536 6.95962 449.042 6.06887C448.548 5.17812 447.564 4.92008 446.838 5.5031C446.113 6.08612 445.918 7.27373 446.412 8.16448C446.907 9.05524 447.89 9.31327 448.616 8.73025Z" fill="url(#paint16_radial_54_4398)"/>
<path d="M446.657 108.841C446.864 109.319 446.74 109.893 446.35 110.135C445.976 110.377 445.483 110.217 445.276 109.739C445.07 109.282 445.193 108.687 445.583 108.445C445.956 108.183 446.433 108.364 446.657 108.841ZM452.984 92.5716C452.221 93.0751 451.94 94.2261 452.37 95.1606C452.799 96.0951 453.771 96.4553 454.534 95.9517C455.297 95.4482 455.577 94.2972 455.148 93.3627C454.718 92.4283 453.747 92.0681 452.984 92.5716ZM432.707 99.2843C431.181 100.291 430.638 102.613 431.497 104.482C432.356 106.351 434.282 107.052 435.808 106.045C437.334 105.038 437.877 102.716 437.018 100.847C436.16 98.9984 434.234 98.2976 432.707 99.2843ZM445.055 131.509C444.292 132.012 444.011 133.163 444.441 134.098C444.87 135.032 445.825 135.393 446.588 134.89C447.351 134.386 447.632 133.235 447.202 132.301C446.773 131.366 445.819 131.025 445.055 131.509Z" fill="url(#paint17_radial_54_4398)"/>
</g>
<path opacity="0.6" d="M408.943 35.0352C408.943 35.0352 412.872 34.2187 414.16 34.5435C415.448 34.8684 418.824 37.5523 418.824 37.5523C418.824 37.5523 418.078 32.7728 418.322 31.2171C418.566 29.6615 420.719 25.6179 420.719 25.6179C420.719 25.6179 416.789 26.4343 415.501 26.1095C414.213 25.7847 410.837 23.1007 410.837 23.1007C410.837 23.1007 411.583 27.8803 411.339 29.4359C411.078 30.9924 408.943 35.0352 408.943 35.0352Z" fill="url(#paint18_radial_54_4398)"/>
<g opacity="0.6">
<path opacity="0.5" d="M716.029 13.9057C716.029 13.9057 715.262 12.5606 715.171 12.057C715.063 11.5339 715.272 9.93936 715.272 9.93936C715.272 9.93936 714.176 10.8447 713.762 10.9456C713.333 11.0676 712.013 10.7849 712.013 10.7849C712.013 10.7849 712.78 12.13 712.872 12.6538C712.981 13.1769 712.772 14.7715 712.772 14.7715C712.772 14.7715 713.868 13.8662 714.281 13.7653C714.711 13.6433 716.029 13.9057 716.029 13.9057Z" fill="url(#paint19_radial_54_4398)"/>
<path opacity="0.5" d="M711.893 111.885C711.893 111.885 711.126 110.54 711.035 110.036C710.927 109.513 711.135 107.919 711.135 107.919C711.135 107.919 710.04 108.824 709.626 108.925C709.197 109.047 707.877 108.764 707.877 108.764C707.877 108.764 708.644 110.109 708.735 110.613C708.844 111.136 708.635 112.73 708.635 112.73C708.635 112.73 709.73 111.825 710.161 111.723C710.575 111.623 711.893 111.885 711.893 111.885Z" fill="url(#paint20_radial_54_4398)"/>
<path d="M661.373 42.0194C662.068 42.5552 662.271 43.663 661.858 44.4749C661.428 45.308 660.518 45.5341 659.841 45.0177C659.145 44.4819 658.942 43.3741 659.356 42.5622C659.768 41.7299 660.677 41.4836 661.373 42.0194ZM644.625 12.3404C643.766 13.9862 644.206 16.2001 645.58 17.2725C646.953 18.345 648.772 17.8523 649.631 16.2064C650.491 14.5606 650.051 12.3467 648.677 11.2743C647.286 10.2026 645.468 10.6953 644.625 12.3404ZM677.74 29.499C676.038 32.8102 676.884 37.2192 679.648 39.3634C682.411 41.4872 686.033 40.5432 687.751 37.2312C689.453 33.9201 688.607 29.511 685.843 27.3669C683.063 25.2438 679.441 26.1879 677.74 29.499ZM656.78 85.9787C655.92 87.6246 656.361 89.8385 657.734 90.9109C659.108 91.9834 660.926 91.4907 661.786 89.8449C662.645 88.199 662.205 85.9851 660.832 84.9127C659.441 83.841 657.622 84.3134 656.78 85.9787Z" fill="url(#paint21_radial_54_4398)"/>
</g>
<path opacity="0.6" d="M711.376 183.139C711.376 183.139 703.446 179.046 701.423 176.643C699.4 174.24 695.834 164.739 695.834 164.739C695.834 164.739 692.604 174.279 690.659 176.687C688.714 179.096 680.941 183.244 680.941 183.244C680.941 183.244 688.854 187.337 690.894 189.739C692.917 192.142 696.482 201.643 696.482 201.643C696.482 201.643 699.713 192.104 701.658 189.695C703.603 187.287 711.376 183.139 711.376 183.139Z" fill="url(#paint22_radial_54_4398)"/>
<path opacity="0.6" d="M585.461 36.5034C585.461 36.5034 592.814 37.9623 595.179 37.342C597.544 36.7218 603.635 31.6987 603.635 31.6987C603.635 31.6987 602.567 40.5871 603.122 43.466C603.677 46.3448 607.934 53.8222 607.934 53.8222C607.934 53.8222 600.581 52.3634 598.216 52.9836C595.851 53.6039 589.761 58.6269 589.761 58.6269C589.761 58.6269 590.829 49.7386 590.273 46.8597C589.701 43.9816 585.461 36.5034 585.461 36.5034Z" fill="url(#paint23_radial_54_4398)"/>
<g opacity="0.6">
<path opacity="0.5" d="M205.513 324.638C205.513 324.638 206.237 323.304 206.312 322.772C206.405 322.26 206.162 320.666 206.162 320.666C206.162 320.666 207.276 321.568 207.717 321.669C208.141 321.791 209.451 321.526 209.451 321.526C209.451 321.526 208.728 322.86 208.652 323.392C208.559 323.904 208.803 325.498 208.803 325.498C208.803 325.498 207.688 324.596 207.248 324.495C206.824 324.373 205.513 324.638 205.513 324.638Z" fill="url(#paint24_radial_54_4398)"/>
<path opacity="0.5" d="M286.339 324.334C286.339 324.334 287.063 322.999 287.138 322.467C287.231 321.955 286.988 320.362 286.988 320.362C286.988 320.362 288.102 321.264 288.542 321.365C288.967 321.487 290.277 321.221 290.277 321.221C290.277 321.221 289.553 322.556 289.478 323.088C289.385 323.6 289.628 325.193 289.628 325.193C289.628 325.193 288.514 324.292 288.074 324.191C287.649 324.068 286.339 324.334 286.339 324.334Z" fill="url(#paint25_radial_54_4398)"/>
<path d="M266.046 362.071C266.285 362.526 266.196 363.12 265.825 363.402C265.453 363.683 264.962 363.565 264.722 363.109C264.483 362.653 264.572 362.059 264.944 361.778C265.316 361.496 265.807 361.615 266.046 362.071ZM271.29 345.223C270.565 345.806 270.37 346.994 270.864 347.884C271.359 348.775 272.342 349.033 273.068 348.45C273.794 347.867 273.988 346.679 273.494 345.789C273.001 344.918 272.017 344.66 271.29 345.223ZM251.542 353.881C250.089 355.027 249.7 357.402 250.672 359.185C251.644 360.967 253.611 361.483 255.063 360.337C256.516 359.191 256.906 356.816 255.933 355.034C254.961 353.252 252.994 352.736 251.542 353.881ZM265.94 384.871C265.215 385.454 265.02 386.641 265.514 387.532C266.009 388.423 266.992 388.681 267.718 388.098C268.444 387.515 268.638 386.327 268.144 385.436C267.65 384.546 266.666 384.288 265.94 384.871Z" fill="url(#paint26_radial_54_4398)"/>
<path d="M268.319 284.781C268.112 284.303 268.252 283.727 268.626 283.486C268.999 283.245 269.493 283.425 269.699 283.882C269.906 284.36 269.766 284.935 269.392 285.177C269.02 285.438 268.542 285.258 268.319 284.781ZM261.922 300.992C262.686 300.489 262.966 299.338 262.536 298.403C262.107 297.469 261.152 297.108 260.389 297.611C259.626 298.115 259.346 299.266 259.775 300.2C260.188 301.136 261.143 301.496 261.922 300.992ZM282.222 294.421C283.749 293.434 284.309 291.111 283.465 289.221C282.623 287.352 280.697 286.631 279.153 287.618C277.626 288.605 277.067 290.927 277.91 292.817C278.769 294.686 280.695 295.407 282.222 294.421ZM270.021 262.108C270.784 261.604 271.065 260.453 270.635 259.519C270.206 258.584 269.251 258.223 268.488 258.727C267.725 259.23 267.444 260.382 267.874 261.316C268.287 262.251 269.258 262.611 270.021 262.108Z" fill="url(#paint27_radial_54_4398)"/>
</g>
<path opacity="0.6" d="M305.726 358.824C305.726 358.824 301.795 359.621 300.507 359.275C299.218 358.93 295.858 356.246 295.858 356.246C295.858 356.246 296.588 361.026 296.327 362.582C296.066 364.139 293.913 368.162 293.913 368.162C293.913 368.162 297.843 367.366 299.132 367.711C300.421 368.056 303.78 370.741 303.78 370.741C303.78 370.741 303.051 365.961 303.312 364.404C303.556 362.849 305.726 358.824 305.726 358.824Z" fill="url(#paint28_radial_54_4398)"/>
<g opacity="0.6">
<path opacity="0.5" d="M263.908 109.091C263.908 109.091 264.632 107.756 264.707 107.224C264.8 106.712 264.557 105.119 264.557 105.119C264.557 105.119 265.671 106.021 266.111 106.122C266.536 106.244 267.846 105.978 267.846 105.978C267.846 105.978 267.122 107.313 267.047 107.845C266.954 108.357 267.197 109.95 267.197 109.95C267.197 109.95 266.083 109.048 265.643 108.947C265.219 108.846 263.908 109.091 263.908 109.091Z" fill="url(#paint29_radial_54_4398)"/>
<path opacity="0.5" d="M271.008 207.085C271.008 207.085 271.731 205.75 271.806 205.219C271.899 204.706 271.656 203.113 271.656 203.113C271.656 203.113 272.771 204.015 273.211 204.116C273.635 204.238 274.945 203.972 274.945 203.972C274.945 203.972 274.222 205.307 274.146 205.839C274.054 206.351 274.297 207.945 274.297 207.945C274.297 207.945 273.182 207.043 272.742 206.942C272.318 206.82 271.008 207.085 271.008 207.085Z" fill="url(#paint30_radial_54_4398)"/>
<path opacity="0.5" d="M344.718 108.808C344.718 108.808 345.442 107.473 345.517 106.941C345.61 106.429 345.367 104.835 345.367 104.835C345.367 104.835 346.481 105.737 346.921 105.838C347.346 105.96 348.656 105.695 348.656 105.695C348.656 105.695 347.932 107.03 347.857 107.561C347.764 108.074 348.007 109.667 348.007 109.667C348.007 109.667 346.893 108.765 346.453 108.664C346.028 108.542 344.718 108.808 344.718 108.808Z" fill="url(#paint31_radial_54_4398)"/>
<path d="M324.425 146.544C324.665 147 324.576 147.593 324.204 147.875C323.832 148.157 323.341 148.038 323.102 147.582C322.862 147.126 322.951 146.533 323.323 146.251C323.695 145.969 324.186 146.088 324.425 146.544ZM329.67 129.697C328.944 130.28 328.749 131.467 329.243 132.358C329.738 133.249 330.721 133.507 331.447 132.924C332.173 132.341 332.368 131.153 331.873 130.262C331.379 129.372 330.396 129.134 329.67 129.697ZM309.921 138.355C308.469 139.501 308.079 141.876 309.051 143.658C310.023 145.44 311.99 145.957 313.443 144.811C314.895 143.665 315.285 141.29 314.313 139.507C313.34 137.725 311.374 137.209 309.921 138.355ZM324.32 169.344C323.594 169.927 323.399 171.115 323.893 172.005C324.388 172.896 325.371 173.154 326.097 172.571C326.823 171.988 327.018 170.801 326.523 169.91C326.029 169.019 325.045 168.761 324.32 169.344Z" fill="url(#paint32_radial_54_4398)"/>
<path d="M326.715 69.2534C326.508 68.7757 326.648 68.2002 327.021 67.9589C327.412 67.7169 327.889 67.8974 328.095 68.3549C328.302 68.8327 328.162 69.4082 327.788 69.6494C327.399 69.9117 326.921 69.7312 326.715 69.2534ZM320.301 85.4658C321.064 84.9623 321.345 83.8113 320.915 82.8768C320.486 81.9423 319.531 81.5813 318.768 82.0849C318.005 82.5884 317.725 83.7394 318.154 84.6739C318.567 85.6092 319.538 85.9693 320.301 85.4658ZM340.618 78.8934C342.145 77.9066 342.704 75.5843 341.861 73.6943C341.019 71.8246 339.092 71.1034 337.549 72.091C336.022 73.0778 335.462 75.4001 336.305 77.2901C337.148 79.1598 339.074 79.881 340.618 78.8934ZM328.4 46.5815C329.163 46.078 329.443 44.927 329.014 43.9925C328.584 43.058 327.63 42.6971 326.867 43.2006C326.104 43.7041 325.823 44.8551 326.253 45.7896C326.682 46.7241 327.637 47.085 328.4 46.5815Z" fill="url(#paint33_radial_54_4398)"/>
</g>
<path opacity="0.6" d="M350.623 292.695C350.623 292.695 354.822 290.484 355.866 289.195C356.909 287.907 358.675 282.784 358.675 282.784C358.675 282.784 360.577 287.915 361.659 289.205C362.742 290.494 367.001 292.73 367.001 292.73C367.001 292.73 362.803 294.94 361.759 296.229C360.715 297.518 358.949 302.641 358.949 302.641C358.949 302.641 357.047 297.51 355.965 296.22C354.881 294.91 350.623 292.695 350.623 292.695Z" fill="url(#paint34_radial_54_4398)"/>
<path opacity="0.6" d="M364.105 143.298C364.105 143.298 360.174 144.094 358.885 143.749C357.597 143.404 354.237 140.719 354.237 140.719C354.237 140.719 354.967 145.5 354.706 147.056C354.445 148.613 352.292 152.636 352.292 152.636C352.292 152.636 356.222 151.84 357.511 152.185C358.8 152.53 362.159 155.215 362.159 155.215C362.159 155.215 361.43 150.434 361.691 148.878C361.952 147.321 364.105 143.298 364.105 143.298Z" fill="url(#paint35_radial_54_4398)"/>
<path opacity="0.6" d="M14.9135 305.554C14.9135 305.554 10.983 306.351 9.69406 306.006C8.40512 305.66 5.04599 302.976 5.04599 302.976C5.04599 302.976 5.7754 307.756 5.51446 309.312C5.25351 310.869 3.10046 314.892 3.10046 314.892C3.10046 314.892 7.03098 314.096 8.31992 314.441C9.60886 314.786 12.968 317.471 12.968 317.471C12.968 317.471 12.2386 312.691 12.4995 311.134C12.7438 309.579 14.9135 305.554 14.9135 305.554Z" fill="url(#paint36_radial_54_4398)"/>
<g opacity="0.6">
<path opacity="0.5" d="M17.2901 346.42C17.2901 346.42 18.0405 347.765 18.1491 348.288C18.241 348.812 18.0488 350.406 18.0488 350.406C18.0488 350.406 19.1453 349.521 19.5749 349.399C20.0054 349.297 21.3239 349.56 21.3239 349.56C21.3239 349.56 20.5734 348.214 20.4649 347.691C20.373 347.167 20.5652 345.573 20.5652 345.573C20.5652 345.573 19.4686 346.458 19.0391 346.58C18.6095 346.702 17.2901 346.42 17.2901 346.42Z" fill="url(#paint37_radial_54_4398)"/>
</g>
<path opacity="0.6" d="M94.6914 261.335C94.6914 261.335 98.9501 263.571 100.033 264.86C101.115 266.149 103.017 271.28 103.017 271.28C103.017 271.28 104.783 266.158 105.827 264.869C106.87 263.58 111.069 261.37 111.069 261.37C111.069 261.37 106.81 259.134 105.727 257.845C104.645 256.555 102.743 251.424 102.743 251.424C102.743 251.424 100.977 256.546 99.9335 257.835C98.8896 259.124 94.6914 261.335 94.6914 261.335Z" fill="url(#paint38_radial_54_4398)"/>
<g opacity="0.6">
<path opacity="0.5" d="M56.8926 162.483C56.8926 162.483 57.643 163.829 57.7516 164.352C57.8435 164.876 57.6513 166.47 57.6513 166.47C57.6513 166.47 58.7478 165.585 59.1774 165.463C59.6079 165.361 60.9264 165.623 60.9264 165.623C60.9264 165.623 60.1759 164.278 60.0674 163.755C59.9755 163.231 60.1677 161.637 60.1677 161.637C60.1677 161.637 59.0711 162.522 58.6416 162.644C58.212 162.766 56.8926 162.483 56.8926 162.483Z" fill="url(#paint39_radial_54_4398)"/>
<path opacity="0.5" d="M61.4492 64.5448C61.4492 64.5448 62.1997 65.8907 62.3082 66.4137C62.4001 66.9376 62.2079 68.5314 62.2079 68.5314C62.2079 68.5314 63.3045 67.6463 63.734 67.5244C64.1645 67.4226 65.483 67.6851 65.483 67.6851C65.483 67.6851 64.7326 66.3392 64.624 65.8161C64.5321 65.2923 64.7243 63.6985 64.7243 63.6985C64.7243 63.6985 63.6278 64.5835 63.1982 64.7055C62.7677 64.8072 61.4492 64.5448 61.4492 64.5448Z" fill="url(#paint40_radial_54_4398)"/>
<path opacity="0.5" d="M137.722 163.316C137.722 163.316 138.472 164.662 138.581 165.185C138.673 165.709 138.48 167.303 138.48 167.303C138.48 167.303 139.577 166.418 140.006 166.296C140.437 166.194 141.755 166.457 141.755 166.457C141.755 166.457 141.005 165.111 140.896 164.588C140.805 164.064 140.997 162.47 140.997 162.47C140.997 162.47 139.9 163.355 139.471 163.477C139.041 163.599 137.722 163.316 137.722 163.316Z" fill="url(#paint41_radial_54_4398)"/>
<path d="M115.357 125.716C114.992 125.429 114.88 124.825 115.11 124.387C115.34 123.95 115.837 123.825 116.202 124.112C116.567 124.399 116.68 125.004 116.449 125.441C116.219 125.879 115.739 126.003 115.357 125.716ZM124.308 141.768C124.768 140.872 124.544 139.684 123.796 139.11C123.049 138.536 122.073 138.786 121.613 139.681C121.154 140.577 121.377 141.765 122.125 142.339C122.871 142.893 123.847 142.643 124.308 141.768ZM106.517 132.414C107.437 130.644 106.989 128.268 105.511 127.098C104.033 125.95 102.081 126.449 101.144 128.22C100.223 129.991 100.671 132.367 102.149 133.536C103.644 134.684 105.596 134.185 106.517 132.414ZM117.935 102.088C118.395 101.193 118.171 100.004 117.424 99.4305C116.677 98.8565 115.701 99.106 115.241 100.001C114.781 100.897 115.005 102.085 115.752 102.659C116.499 103.213 117.475 102.963 117.935 102.088Z" fill="url(#paint42_radial_54_4398)"/>
<path d="M121.811 202.348C122.207 202.593 122.352 203.176 122.157 203.652C121.962 204.129 121.484 204.294 121.088 204.048C120.691 203.803 120.546 203.221 120.741 202.744C120.937 202.288 121.414 202.103 121.811 202.348ZM111.784 187.262C111.393 188.195 111.7 189.359 112.477 189.87C113.254 190.362 114.209 190.011 114.617 189.078C115.008 188.145 114.701 186.981 113.923 186.47C113.13 185.979 112.175 186.329 111.784 187.262ZM130.141 194.781C129.342 196.647 129.955 198.975 131.51 199.978C133.065 200.981 134.974 200.28 135.772 198.414C136.571 196.548 135.958 194.22 134.404 193.217C132.831 192.195 130.923 192.915 130.141 194.781ZM120.902 226.222C120.511 227.155 120.817 228.319 121.595 228.831C122.372 229.322 123.326 228.972 123.734 228.038C124.125 227.105 123.819 225.942 123.041 225.43C122.247 224.919 121.292 225.269 120.902 226.222Z" fill="url(#paint43_radial_54_4398)"/>
</g>
<path opacity="0.6" d="M88.7509 49.5751C88.7509 49.5751 93.0096 51.8107 94.0923 53.1002C95.1749 54.3896 97.0763 59.5206 97.0763 59.5206C97.0763 59.5206 98.8423 54.3983 99.8862 53.1094C100.93 51.8205 105.128 49.6097 105.128 49.6097C105.128 49.6097 100.87 47.3741 99.7869 46.0846C98.7042 44.7951 96.8028 39.6642 96.8028 39.6642C96.8028 39.6642 95.0369 44.7865 93.993 46.0754C92.9501 47.3846 88.7509 49.5751 88.7509 49.5751Z" fill="url(#paint44_radial_54_4398)"/>
<path opacity="0.6" d="M156.233 128.955C156.233 128.955 152.276 128.148 151.002 128.473C149.728 128.797 146.44 131.473 146.44 131.473C146.44 131.473 147.033 126.69 146.742 125.14C146.45 123.589 144.182 119.553 144.182 119.553C144.182 119.553 148.139 120.36 149.413 120.036C150.686 119.711 153.975 117.035 153.975 117.035C153.975 117.035 153.382 121.818 153.673 123.368C153.947 124.899 156.233 128.955 156.233 128.955Z" fill="url(#paint45_radial_54_4398)"/>
</g>
<mask id="mask1_54_4398" style="mask-type:luminance" maskUnits="userSpaceOnUse" x="-437" y="-236" width="1302" height="1074">
<path d="M815.974 -236L-437 -176.479L-388.854 837.053L864.121 777.532L815.974 -236Z" fill="white"/>
</mask>
<g mask="url(#mask1_54_4398)">
<g opacity="0.81">
<path d="M711.777 358.308C711.666 355.957 713.146 353.977 715.084 353.884C713.146 353.977 711.485 352.146 711.373 349.794C711.485 352.146 710.005 354.126 708.067 354.218C710.005 354.126 711.666 355.957 711.777 358.308Z" fill="white"/>
<path d="M715.995 354.024C716.135 356.984 714.277 359.469 711.838 359.585C709.399 359.701 707.314 357.403 707.174 354.443C707.033 351.484 708.891 348.998 711.33 348.882C713.769 348.766 715.854 351.065 715.995 354.024Z" fill="url(#paint46_radial_54_4398)"/>
<path d="M613.254 268.05C613.142 265.698 614.622 263.718 616.56 263.626C614.622 263.718 612.961 261.887 612.85 259.536C612.961 261.887 611.481 263.867 609.544 263.959C611.481 263.867 613.142 265.698 613.254 268.05Z" fill="white"/>
<path d="M617.471 263.766C617.612 266.725 615.754 269.211 613.315 269.327C610.876 269.443 608.791 267.144 608.65 264.185C608.51 261.225 610.367 258.74 612.806 258.624C615.245 258.488 617.331 260.806 617.471 263.766Z" fill="url(#paint47_radial_54_4398)"/>
<path d="M675.083 324.294C674.971 321.943 676.451 319.963 678.389 319.871C676.451 319.963 674.79 318.132 674.678 315.781C674.79 318.132 673.31 320.112 671.372 320.204C673.311 320.132 674.972 321.963 675.083 324.294Z" fill="white"/>
<path d="M679.3 320.01C679.44 322.97 677.583 325.455 675.144 325.571C672.704 325.687 670.619 323.389 670.479 320.429C670.338 317.47 672.196 314.984 674.635 314.868C677.074 314.753 679.16 317.071 679.3 320.01Z" fill="url(#paint48_radial_54_4398)"/>
<path d="M189.191 53.2961C189.079 50.9447 190.559 48.9647 192.497 48.8726C190.559 48.9647 188.898 47.1338 188.786 44.7824C188.898 47.1338 187.418 49.1139 185.48 49.2059C187.418 49.1139 189.079 50.9447 189.191 53.2961Z" fill="white"/>
<path d="M189.251 54.5731C191.687 54.4574 193.548 51.9677 193.408 49.0121C193.267 46.0566 191.179 43.7545 188.743 43.8702C186.307 43.9859 184.446 46.4756 184.587 49.4312C184.727 52.3867 186.816 54.6888 189.251 54.5731Z" fill="url(#paint49_radial_54_4398)"/>
<path d="M538.647 353.794C538.45 349.638 541.064 346.162 544.472 346C541.064 346.162 538.131 342.929 537.935 338.794C538.132 342.949 535.518 346.426 532.11 346.587C535.534 346.404 538.45 349.638 538.647 353.794Z" fill="white"/>
<path d="M546.107 346.227C546.356 351.457 543.065 355.839 538.771 356.043C534.461 356.248 530.785 352.176 530.537 346.967C530.29 341.757 533.58 337.355 537.874 337.151C542.167 336.947 545.859 340.997 546.107 346.227Z" fill="url(#paint50_radial_54_4398)"/>
<path d="M440.109 357.317C439.911 353.161 442.526 349.685 445.934 349.523C442.526 349.685 439.593 346.452 439.396 342.317C439.594 346.472 436.979 349.948 433.571 350.11C436.978 349.928 439.911 353.161 440.109 357.317Z" fill="white"/>
<path d="M440.216 359.567C444.515 359.363 447.8 354.968 447.552 349.751C447.304 344.534 443.618 340.47 439.318 340.675C435.019 340.879 431.734 345.274 431.982 350.491C432.23 355.708 435.916 359.771 440.216 359.567Z" fill="url(#paint51_radial_54_4398)"/>
<path d="M166.474 23.088C166.277 18.9325 168.891 15.4561 172.299 15.2942C168.874 15.4569 165.958 12.2229 165.761 8.08771C165.959 12.2432 163.344 15.7196 159.936 15.8815C163.343 15.6993 166.277 18.9325 166.474 23.088Z" fill="white"/>
<path d="M166.581 25.338C170.881 25.1337 174.165 20.739 173.917 15.522C173.67 10.3051 169.983 6.24148 165.684 6.44573C161.384 6.64998 158.099 11.0447 158.347 16.2617C158.595 21.4786 162.281 25.5422 166.581 25.338Z" fill="url(#paint52_radial_54_4398)"/>
<path d="M79.8953 105.317C79.6979 101.162 82.3123 97.6853 85.7204 97.5234C82.2956 97.6861 79.3792 94.4521 79.1828 90.3168C79.3802 94.4723 76.7658 97.9487 73.3577 98.1106C76.7649 97.9285 79.6979 101.162 79.8953 105.317Z" fill="white"/>
<path d="M80.0024 107.567C84.302 107.363 87.5867 102.968 87.3389 97.7513C87.091 92.5343 83.4046 88.4707 79.105 88.675C74.8054 88.8792 71.5207 93.274 71.7685 98.4909C72.0164 103.708 75.7028 107.771 80.0024 107.567Z" fill="url(#paint53_radial_54_4398)"/>
<path d="M30.7889 131.115C34.1382 130.956 36.6968 127.533 36.5037 123.469C36.3107 119.405 33.4391 116.24 30.0898 116.399C26.7405 116.558 24.1819 119.981 24.3749 124.045C24.568 128.109 27.4396 131.275 30.7889 131.115Z" fill="url(#paint54_linear_54_4398)"/>
<path d="M685.6 174.876C688.949 174.716 691.508 171.293 691.315 167.229C691.122 163.165 688.25 160 684.901 160.159C681.552 160.318 678.993 163.742 679.186 167.805C679.379 171.869 682.251 175.035 685.6 174.876Z" fill="url(#paint55_linear_54_4398)"/>
<path d="M345.146 338.119C346.142 338.071 346.903 337.053 346.846 335.844C346.788 334.635 345.934 333.693 344.938 333.74C343.941 333.787 343.18 334.806 343.237 336.015C343.295 337.224 344.149 338.166 345.146 338.119Z" fill="white"/>
</g>
</g>
<g filter="url(#filter0_b_54_4398)">
<rect width="818" height="364" fill="url(#paint56_linear_54_4398)" fill-opacity="0.01"/>
</g>
</g>
</g>
<defs>
<filter id="filter0_b_54_4398" x="-20" y="-20" width="858" height="404" filterUnits="userSpaceOnUse" color-interpolation-filters="sRGB">
<feFlood flood-opacity="0" result="BackgroundImageFix"/>
<feGaussianBlur in="BackgroundImageFix" stdDeviation="10"/>
<feComposite in2="SourceAlpha" operator="in" result="effect1_backgroundBlur_54_4398"/>
<feBlend mode="normal" in="SourceGraphic" in2="effect1_backgroundBlur_54_4398" result="shape"/>
</filter>
<linearGradient id="paint0_linear_54_4398" x1="-223.814" y1="-122.622" x2="-156.762" y2="527.997" gradientUnits="userSpaceOnUse">
<stop stop-color="#070070"/>
<stop offset="1" stop-color="#300045"/>
</linearGradient>
<radialGradient id="paint1_radial_54_4398" cx="0" cy="0" r="1" gradientUnits="userSpaceOnUse" gradientTransform="translate(881.17 356.719) rotate(139.135) scale(198.501 211.378)">
<stop offset="0.0593" stop-color="#FFE080"/>
<stop offset="0.963" stop-color="#FF88FF"/>
</radialGradient>
<radialGradient id="paint2_radial_54_4398" cx="0" cy="0" r="1" gradientUnits="userSpaceOnUse" gradientTransform="translate(799.454 377.225) rotate(139.135) scale(198.501 211.378)">
<stop offset="0.0593" stop-color="#FFE080"/>
<stop offset="0.963" stop-color="#FF88FF"/>
</radialGradient>
<radialGradient id="paint3_radial_54_4398" cx="0" cy="0" r="1" gradientUnits="userSpaceOnUse" gradientTransform="translate(810.096 237.41) rotate(-2.7197) scale(15.2057 18.4498)">
<stop offset="0.0593" stop-color="#FFE080"/>
<stop offset="0.963" stop-color="#FF88FF"/>
</radialGradient>
<radialGradient id="paint4_radial_54_4398" cx="0" cy="0" r="1" gradientUnits="userSpaceOnUse" gradientTransform="translate(738.018 228.072) rotate(-2.7197) scale(15.1555 18.389)">
<stop offset="0.0593" stop-color="#FFE080"/>
<stop offset="0.963" stop-color="#FF88FF"/>
</radialGradient>
<radialGradient id="paint5_radial_54_4398" cx="0" cy="0" r="1" gradientUnits="userSpaceOnUse" gradientTransform="translate(805.229 191.827) rotate(177.28) scale(5.9657 7.2385)">
<stop offset="0.0593" stop-color="#FFE080"/>
<stop offset="0.963" stop-color="#FF88FF"/>
</radialGradient>
<radialGradient id="paint6_radial_54_4398" cx="0" cy="0" r="1" gradientUnits="userSpaceOnUse" gradientTransform="translate(699.988 291.02) rotate(139.135) scale(198.495 211.371)">
<stop offset="0.0593" stop-color="#FFE080"/>
<stop offset="0.963" stop-color="#FF88FF"/>
</radialGradient>
<radialGradient id="paint7_radial_54_4398" cx="0" cy="0" r="1" gradientUnits="userSpaceOnUse" gradientTransform="translate(618.273 311.529) rotate(139.135) scale(198.494 211.371)">
<stop offset="0.0593" stop-color="#FFE080"/>
<stop offset="0.963" stop-color="#FF88FF"/>
</radialGradient>
<radialGradient id="paint8_radial_54_4398" cx="0" cy="0" r="1" gradientUnits="userSpaceOnUse" gradientTransform="translate(610.064 205.865) rotate(-2.7197) scale(35.9701 43.6444)">
<stop offset="0.0593" stop-color="#FFE080"/>
<stop offset="0.963" stop-color="#FF88FF"/>
</radialGradient>
<radialGradient id="paint9_radial_54_4398" cx="0" cy="0" r="1" gradientUnits="userSpaceOnUse" gradientTransform="translate(556.836 162.383) rotate(-2.7197) scale(15.1555 18.389)">
<stop offset="0.0593" stop-color="#FFE080"/>
<stop offset="0.963" stop-color="#FF88FF"/>
</radialGradient>
<radialGradient id="paint10_radial_54_4398" cx="0" cy="0" r="1" gradientUnits="userSpaceOnUse" gradientTransform="translate(743.338 122.024) rotate(177.28) scale(8.18677 9.93347)">
<stop offset="0.0593" stop-color="#FFE080"/>
<stop offset="0.963" stop-color="#FF88FF"/>
</radialGradient>
<radialGradient id="paint11_radial_54_4398" cx="0" cy="0" r="1" gradientUnits="userSpaceOnUse" gradientTransform="translate(598.805 181.501) rotate(177.28) scale(11.0803 13.4442)">
<stop offset="0.0593" stop-color="#FFE080"/>
<stop offset="0.963" stop-color="#FF88FF"/>
</radialGradient>
<radialGradient id="paint12_radial_54_4398" cx="0" cy="0" r="1" gradientUnits="userSpaceOnUse" gradientTransform="translate(76.2076 -95.1035) rotate(54.8185) scale(211.691 198.202)">
<stop offset="0.0593" stop-color="#FFE080"/>
<stop offset="0.963" stop-color="#FF88FF"/>
</radialGradient>
<radialGradient id="paint13_radial_54_4398" cx="0" cy="0" r="1" gradientUnits="userSpaceOnUse" gradientTransform="translate(17.918 89.9873) rotate(-96.6368) scale(34.0324 28.1101)">
<stop offset="0.0593" stop-color="#FFE080"/>
<stop offset="0.963" stop-color="#FF88FF"/>
</radialGradient>
<radialGradient id="paint14_radial_54_4398" cx="0" cy="0" r="1" gradientUnits="userSpaceOnUse" gradientTransform="translate(552.154 -52.606) rotate(61.1025) scale(215.927 194.314)">
<stop offset="0.0593" stop-color="#FFE080"/>
<stop offset="0.963" stop-color="#FF88FF"/>
</radialGradient>
<radialGradient id="paint15_radial_54_4398" cx="0" cy="0" r="1" gradientUnits="userSpaceOnUse" gradientTransform="translate(567.572 47.5388) rotate(61.1026) scale(215.924 194.311)">
<stop offset="0.0593" stop-color="#FFE080"/>
<stop offset="0.963" stop-color="#FF88FF"/>
</radialGradient>
<radialGradient id="paint16_radial_54_4398" cx="0" cy="0" r="1" gradientUnits="userSpaceOnUse" gradientTransform="translate(452.495 26.939) rotate(-90.986) scale(18.4458 15.2089)">
<stop offset="0.0593" stop-color="#FFE080"/>
<stop offset="0.963" stop-color="#FF88FF"/>
</radialGradient>
<radialGradient id="paint17_radial_54_4398" cx="0" cy="0" r="1" gradientUnits="userSpaceOnUse" gradientTransform="translate(443.482 113.759) rotate(-90.986) scale(18.3851 15.1589)">
<stop offset="0.0593" stop-color="#FFE080"/>
<stop offset="0.963" stop-color="#FF88FF"/>
</radialGradient>
<radialGradient id="paint18_radial_54_4398" cx="0" cy="0" r="1" gradientUnits="userSpaceOnUse" gradientTransform="translate(414.824 30.3254) rotate(177.28) scale(6.10322 7.40529)">
<stop offset="0.0593" stop-color="#FFE080"/>
<stop offset="0.963" stop-color="#FF88FF"/>
</radialGradient>
<radialGradient id="paint19_radial_54_4398" cx="0" cy="0" r="1" gradientUnits="userSpaceOnUse" gradientTransform="translate(763.088 134.839) rotate(-62.7168) scale(213.385 196.63)">
<stop offset="0.0593" stop-color="#FFE080"/>
<stop offset="0.963" stop-color="#FF88FF"/>
</radialGradient>
<radialGradient id="paint20_radial_54_4398" cx="0" cy="0" r="1" gradientUnits="userSpaceOnUse" gradientTransform="translate(775.05 34.6155) rotate(-62.7168) scale(213.386 196.63)">
<stop offset="0.0593" stop-color="#FFE080"/>
<stop offset="0.963" stop-color="#FF88FF"/>
</radialGradient>
<radialGradient id="paint21_radial_54_4398" cx="0" cy="0" r="1" gradientUnits="userSpaceOnUse" gradientTransform="translate(666.87 51.0458) rotate(-90.986) scale(34.2597 28.2478)">
<stop offset="0.0593" stop-color="#FFE080"/>
<stop offset="0.963" stop-color="#FF88FF"/>
</radialGradient>
<radialGradient id="paint22_radial_54_4398" cx="0" cy="0" r="1" gradientUnits="userSpaceOnUse" gradientTransform="translate(696.173 183.189) rotate(177.28) scale(15.1951 18.4371)">
<stop offset="0.0593" stop-color="#FFE080"/>
<stop offset="0.963" stop-color="#FF88FF"/>
</radialGradient>
<radialGradient id="paint23_radial_54_4398" cx="0" cy="0" r="1" gradientUnits="userSpaceOnUse" gradientTransform="translate(596.695 45.1739) rotate(177.28) scale(10.8098 13.1161)">
<stop offset="0.0593" stop-color="#FFE080"/>
<stop offset="0.963" stop-color="#FF88FF"/>
</radialGradient>
<radialGradient id="paint24_radial_54_4398" cx="0" cy="0" r="1" gradientUnits="userSpaceOnUse" gradientTransform="translate(162.132 445.551) rotate(-118.634) scale(216.095 194.159)">
<stop offset="0.0593" stop-color="#FFE080"/>
<stop offset="0.963" stop-color="#FF88FF"/>
</radialGradient>
<radialGradient id="paint25_radial_54_4398" cx="0" cy="0" r="1" gradientUnits="userSpaceOnUse" gradientTransform="translate(147.137 345.33) rotate(-118.634) scale(216.09 194.156)">
<stop offset="0.0593" stop-color="#FFE080"/>
<stop offset="0.963" stop-color="#FF88FF"/>
</radialGradient>
<radialGradient id="paint26_radial_54_4398" cx="0" cy="0" r="1" gradientUnits="userSpaceOnUse" gradientTransform="translate(262.654 366.986) rotate(-2.7197) scale(15.1921 18.4334)">
<stop offset="0.0593" stop-color="#FFE080"/>
<stop offset="0.963" stop-color="#FF88FF"/>
</radialGradient>
<radialGradient id="paint27_radial_54_4398" cx="0" cy="0" r="1" gradientUnits="userSpaceOnUse" gradientTransform="translate(270.974 279.587) rotate(-2.7197) scale(15.098 18.3191)">
<stop offset="0.0593" stop-color="#FFE080"/>
<stop offset="0.963" stop-color="#FF88FF"/>
</radialGradient>
<radialGradient id="paint28_radial_54_4398" cx="0" cy="0" r="1" gradientUnits="userSpaceOnUse" gradientTransform="translate(299.821 363.486) rotate(177.28) scale(6.12192 7.42801)">
<stop offset="0.0593" stop-color="#FFE080"/>
<stop offset="0.963" stop-color="#FF88FF"/>
</radialGradient>
<radialGradient id="paint29_radial_54_4398" cx="0" cy="0" r="1" gradientUnits="userSpaceOnUse" gradientTransform="translate(220.514 230.024) rotate(-118.634) scale(216.1 194.165)">
<stop offset="0.0593" stop-color="#FFE080"/>
<stop offset="0.963" stop-color="#FF88FF"/>
</radialGradient>
<radialGradient id="paint30_radial_54_4398" cx="0" cy="0" r="1" gradientUnits="userSpaceOnUse" gradientTransform="translate(205.513 129.797) rotate(-118.634) scale(216.099 194.165)">
<stop offset="0.0593" stop-color="#FFE080"/>
<stop offset="0.963" stop-color="#FF88FF"/>
</radialGradient>
<radialGradient id="paint31_radial_54_4398" cx="0" cy="0" r="1" gradientUnits="userSpaceOnUse" gradientTransform="translate(205.515 129.796) rotate(-118.634) scale(216.098 194.163)">
<stop offset="0.0593" stop-color="#FFE080"/>
<stop offset="0.963" stop-color="#FF88FF"/>
</radialGradient>
<radialGradient id="paint32_radial_54_4398" cx="0" cy="0" r="1" gradientUnits="userSpaceOnUse" gradientTransform="translate(321.039 151.457) rotate(-2.7197) scale(15.1921 18.4334)">
<stop offset="0.0593" stop-color="#FFE080"/>
<stop offset="0.963" stop-color="#FF88FF"/>
</radialGradient>
<radialGradient id="paint33_radial_54_4398" cx="0" cy="0" r="1" gradientUnits="userSpaceOnUse" gradientTransform="translate(329.359 64.0581) rotate(-2.7197) scale(15.098 18.3192)">
<stop offset="0.0593" stop-color="#FFE080"/>
<stop offset="0.963" stop-color="#FF88FF"/>
</radialGradient>
<radialGradient id="paint34_radial_54_4398" cx="0" cy="0" r="1" gradientUnits="userSpaceOnUse" gradientTransform="translate(358.809 292.716) rotate(177.28) scale(8.17958 9.92474)">
<stop offset="0.0593" stop-color="#FFE080"/>
<stop offset="0.963" stop-color="#FF88FF"/>
</radialGradient>
<radialGradient id="paint35_radial_54_4398" cx="0" cy="0" r="1" gradientUnits="userSpaceOnUse" gradientTransform="translate(358.206 147.957) rotate(177.28) scale(6.12192 7.42801)">
<stop offset="0.0593" stop-color="#FFE080"/>
<stop offset="0.963" stop-color="#FF88FF"/>
</radialGradient>
<radialGradient id="paint36_radial_54_4398" cx="0" cy="0" r="1" gradientUnits="userSpaceOnUse" gradientTransform="translate(9.00795 310.215) rotate(177.28) scale(6.12192 7.42804)">
<stop offset="0.0593" stop-color="#FFE080"/>
<stop offset="0.963" stop-color="#FF88FF"/>
</radialGradient>
<radialGradient id="paint37_radial_54_4398" cx="0" cy="0" r="1" gradientUnits="userSpaceOnUse" gradientTransform="translate(-46.1949 423.298) rotate(117.556) scale(213.198 196.801)">
<stop offset="0.0593" stop-color="#FFE080"/>
<stop offset="0.963" stop-color="#FF88FF"/>
</radialGradient>
<radialGradient id="paint38_radial_54_4398" cx="0" cy="0" r="1" gradientUnits="userSpaceOnUse" gradientTransform="translate(102.875 261.362) rotate(177.28) scale(8.17961 9.92474)">
<stop offset="0.0593" stop-color="#FFE080"/>
<stop offset="0.963" stop-color="#FF88FF"/>
</radialGradient>
<radialGradient id="paint39_radial_54_4398" cx="0" cy="0" r="1" gradientUnits="userSpaceOnUse" gradientTransform="translate(10.3577 41.2701) rotate(117.556) scale(213.206 196.807)">
<stop offset="0.0593" stop-color="#FFE080"/>
<stop offset="0.963" stop-color="#FF88FF"/>
</radialGradient>
<radialGradient id="paint40_radial_54_4398" cx="0" cy="0" r="1" gradientUnits="userSpaceOnUse" gradientTransform="translate(-2.0341 141.416) rotate(117.556) scale(213.207 196.807)">
<stop offset="0.0593" stop-color="#FFE080"/>
<stop offset="0.963" stop-color="#FF88FF"/>
</radialGradient>
<radialGradient id="paint41_radial_54_4398" cx="0" cy="0" r="1" gradientUnits="userSpaceOnUse" gradientTransform="translate(-2.03616 141.412) rotate(117.556) scale(213.201 196.803)">
<stop offset="0.0593" stop-color="#FFE080"/>
<stop offset="0.963" stop-color="#FF88FF"/>
</radialGradient>
<radialGradient id="paint42_radial_54_4398" cx="0" cy="0" r="1" gradientUnits="userSpaceOnUse" gradientTransform="translate(111.935 121.244) rotate(-2.7197) scale(15.1973 18.4397)">
<stop offset="0.0593" stop-color="#FFE080"/>
<stop offset="0.963" stop-color="#FF88FF"/>
</radialGradient>
<radialGradient id="paint43_radial_54_4398" cx="0" cy="0" r="1" gradientUnits="userSpaceOnUse" gradientTransform="translate(124.573 207.326) rotate(-2.7197) scale(15.1913 18.4324)">
<stop offset="0.0593" stop-color="#FFE080"/>
<stop offset="0.963" stop-color="#FF88FF"/>
</radialGradient>
<radialGradient id="paint44_radial_54_4398" cx="0" cy="0" r="1" gradientUnits="userSpaceOnUse" gradientTransform="translate(96.9482 49.6084) rotate(177.28) scale(8.17961 9.92474)">
<stop offset="0.0593" stop-color="#FFE080"/>
<stop offset="0.963" stop-color="#FF88FF"/>
</radialGradient>
<radialGradient id="paint45_radial_54_4398" cx="0" cy="0" r="1" gradientUnits="userSpaceOnUse" gradientTransform="translate(150.196 124.245) rotate(177.28) scale(5.79914 7.03636)">
<stop offset="0.0593" stop-color="#FFE080"/>
<stop offset="0.963" stop-color="#FF88FF"/>
</radialGradient>
<radialGradient id="paint46_radial_54_4398" cx="0" cy="0" r="1" gradientUnits="userSpaceOnUse" gradientTransform="translate(711.583 354.23) rotate(-2.7197) scale(4.4196 5.36256)">
<stop offset="0.5628" stop-color="white"/>
<stop offset="1" stop-color="white" stop-opacity="0"/>
</radialGradient>
<radialGradient id="paint47_radial_54_4398" cx="0" cy="0" r="1" gradientUnits="userSpaceOnUse" gradientTransform="translate(613.063 263.969) rotate(-2.7197) scale(4.41965 5.36256)">
<stop offset="0.5628" stop-color="white"/>
<stop offset="1" stop-color="white" stop-opacity="0"/>
</radialGradient>
<radialGradient id="paint48_radial_54_4398" cx="0" cy="0" r="1" gradientUnits="userSpaceOnUse" gradientTransform="translate(674.889 320.23) rotate(-2.7197) scale(4.4196 5.36256)">
<stop offset="0.5628" stop-color="white"/>
<stop offset="1" stop-color="white" stop-opacity="0"/>
</radialGradient>
<radialGradient id="paint49_radial_54_4398" cx="0" cy="0" r="1" gradientUnits="userSpaceOnUse" gradientTransform="translate(188.997 49.2266) rotate(-2.7197) scale(4.41962 5.36256)">
<stop offset="0.5628" stop-color="white"/>
<stop offset="1" stop-color="white" stop-opacity="0"/>
</radialGradient>
<radialGradient id="paint50_radial_54_4398" cx="0" cy="0" r="1" gradientUnits="userSpaceOnUse" gradientTransform="translate(538.312 346.597) rotate(-2.7197) scale(7.80079 9.4651)">
<stop offset="0.5628" stop-color="white"/>
<stop offset="1" stop-color="white" stop-opacity="0"/>
</radialGradient>
<radialGradient id="paint51_radial_54_4398" cx="0" cy="0" r="1" gradientUnits="userSpaceOnUse" gradientTransform="translate(439.77 350.122) rotate(-2.7197) scale(7.80079 9.4651)">
<stop offset="0.5628" stop-color="white"/>
<stop offset="1" stop-color="white" stop-opacity="0"/>
</radialGradient>
<radialGradient id="paint52_radial_54_4398" cx="0" cy="0" r="1" gradientUnits="userSpaceOnUse" gradientTransform="translate(166.125 15.8908) rotate(-2.7197) scale(7.80079 9.4651)">
<stop offset="0.5628" stop-color="white"/>
<stop offset="1" stop-color="white" stop-opacity="0"/>
</radialGradient>
<radialGradient id="paint53_radial_54_4398" cx="0" cy="0" r="1" gradientUnits="userSpaceOnUse" gradientTransform="translate(79.5478 98.1208) rotate(-2.7197) scale(7.80079 9.4651)">
<stop offset="0.5628" stop-color="white"/>
<stop offset="1" stop-color="white" stop-opacity="0"/>
</radialGradient>
<linearGradient id="paint54_linear_54_4398" x1="24.3825" y1="124.047" x2="36.4946" y2="123.471" gradientUnits="userSpaceOnUse">
<stop offset="0.1667" stop-color="#0380B6" stop-opacity="0"/>
<stop offset="1" stop-color="#0AE0BC"/>
</linearGradient>
<linearGradient id="paint55_linear_54_4398" x1="679.19" y1="167.805" x2="691.302" y2="167.229" gradientUnits="userSpaceOnUse">
<stop offset="0.1667" stop-color="#0380B6" stop-opacity="0"/>
<stop offset="1" stop-color="#0AE0BC"/>
</linearGradient>
<linearGradient id="paint56_linear_54_4398" x1="-223.814" y1="-122.622" x2="-156.762" y2="527.997" gradientUnits="userSpaceOnUse">
<stop stop-color="#070070"/>
<stop offset="1" stop-color="#300045"/>
</linearGradient>
<clipPath id="clip0_54_4398">
<rect width="800" height="360" fill="white"/>
</clipPath>
<clipPath id="clip1_54_4398">
<rect width="1514" height="1369" fill="white" transform="translate(-667 -214.161) rotate(-2.7197)"/>
</clipPath>
</defs>
</svg>
