<svg width="112" height="196" viewBox="0 0 112 196" fill="none" xmlns="http://www.w3.org/2000/svg">
<g style="mix-blend-mode:multiply" opacity="0.2">
<path d="M101.67 190.99C101.67 193.78 81.67 195.99 56.97 195.99C32.27 195.99 12.26 193.73 12.26 190.99C12.26 188.25 32.26 185.99 56.97 185.99C81.68 185.99 101.67 188.21 101.67 190.99Z" fill="#3F6EAC"/>
</g>
<path d="M37.71 95.74L25.18 140.91H83.89L71.44 93.83L37.71 95.74Z" fill="#573E52"/>
<path d="M59.77 153.7L62.67 188.1L76.94 187.43L74.19 157.13L59.77 153.7Z" fill="#EAAD82"/>
<path d="M74.19 157.13L59.77 153.72L62.67 188.12L76.56 187.47C76.67 187.24 76.78 187.01 76.88 186.78L75.18 168.09C72.31 169.22 68.04 170.5 65.83 168.49C63.62 166.48 64.75 164.49 65.18 162.21C68.3741 162.028 71.5782 162.266 74.71 162.92L74.19 157.13Z" fill="#E39073"/>
<path d="M74.44 159.89L74.19 157.13L59.77 153.72L60.45 159.45C64.14 160.35 71.28 161.02 74.44 159.89Z" fill="#CC715D"/>
<path d="M53.64 153.7L50.73 188.1L36.47 187.43L39.22 157.13L53.64 153.7Z" fill="#EAAD82"/>
<path d="M38.69 162.9C41.8219 162.247 45.026 162.008 48.22 162.19C48.65 164.45 50.13 168 47.87 170.06C45.61 172.12 41.03 169.55 38.16 168.42L36.53 186.72C36.63 186.95 36.73 187.18 36.84 187.41L50.73 188.06L53.64 153.66L39.22 157.09L38.69 162.9Z" fill="#E39073"/>
<path d="M38.97 159.89L39.22 157.13L53.64 153.72L52.95 159.45C49.27 160.35 42.13 161.02 38.97 159.89Z" fill="#CC715D"/>
<path d="M54.5 126.13L76.9 131.72L78.95 155.92C78.95 155.92 72 161.97 58.13 158.27L57.61 144.27L54.5 126.13Z" fill="#CED2D6"/>
<path d="M58.9 126.13L36.32 131.29L34.45 155.88C34.45 155.88 41.39 161.93 55.27 158.23L57.86 144.23L58.9 126.13Z" fill="#CED2D6"/>
<path d="M74.81 154.4C76.98 149.02 77.08 141.89 75.61 136.27C68.43 136.04 61.5 136.76 54.5 135.16V126.16L76.9 131.72L78.95 155.92C78.95 155.92 74.24 160.01 64.85 159.4C69.54 157.97 75.9 154.03 74.81 154.4Z" fill="#ADADCF"/>
<path d="M38.6 154.4C36.4162 148.605 36.0328 142.286 37.5 136.27C44.68 136.04 67.85 136.72 75.61 136.27L58.9 126.13L36.32 131.29L34.45 155.88C34.45 155.88 39.15 159.97 48.55 159.36C43.9 157.97 37.54 154.03 38.6 154.4Z" fill="#ADADCF"/>
<path d="M55.81 144.27C57.39 142.35 58.94 142.61 60.53 140.7L58.97 145.06L63.45 143.32L59.98 146.26L61.2 146.61C61.09 149.75 60.97 152.89 60.86 156.03C65.3176 155.969 69.7062 154.92 73.71 152.96L72.54 142.11C72.34 143.61 70.03 143.91 68.93 142.86C67.83 141.81 67.63 140.16 67.5 138.65C67.43 137.75 60.18 137.42 59.34 137.4C56.48 137.35 53.69 138.15 50.78 137.95C51.1645 138.695 51.7731 139.3 52.52 139.68C51.36 139.08 48.77 139.43 47.45 139.38C45.6459 139.245 43.8342 139.245 42.03 139.38C43.49 145.38 45.03 151.7 47.92 157.29C48.9144 157.44 49.9256 157.44 50.92 157.29C51.4185 157.219 51.896 157.043 52.3204 156.772C52.7448 156.501 53.1061 156.142 53.38 155.72C53.6187 155.269 53.7841 154.783 53.87 154.28C54.5 151.6 55.81 144.27 55.81 144.27Z" fill="#F2E6D7"/>
<path d="M15.07 85.86C14.42 81.54 13.81 78.39 13.32 75.96C9.3568 76.4578 5.36399 76.6816 1.37 76.63C1.37 78.44 1.28999 80.18 1.26999 81.71C1.20999 82.71 1.18999 83.87 1.26999 85.08C1.29248 88.5736 2.29745 91.9905 4.17 94.94C8.87 101.62 22.44 99.89 22.44 99.89L25.81 85.89L15.07 85.86Z" fill="#EAAD82"/>
<path d="M1.23999 85.08C1.23999 85.8 1.33999 86.55 1.42999 87.31C6.23999 87.62 10.69 85.96 14.68 83.37C14.18 80.3 13.68 77.89 13.32 75.96C9.3568 76.4578 5.36399 76.6816 1.37 76.63C1.37 78.44 1.28999 80.18 1.26999 81.71C1.20999 82.71 1.18999 83.87 1.26999 85.08H1.23999Z" fill="#E39073"/>
<path d="M18.6 85.81C18.6 90.54 18.78 95.28 19.04 100.01C21.04 100.01 22.42 99.81 22.42 99.81L25.79 85.81H18.6Z" fill="#E39073"/>
<path d="M48.95 76.26L49.95 88.61C49.95 88.61 57.29 91.37 61.12 88.74L60.12 75.6L48.95 76.26Z" fill="#EAAD82"/>
<path d="M60.62 82.72L60.35 79.29C58.4028 77.9565 56.3215 76.8304 54.14 75.93L48.95 76.24L49.12 78.43C52.04 81.81 56.19 82.3 60.62 82.72Z" fill="#E39073"/>
<path d="M110.46 81.72C110.46 80.89 110.46 80 110.46 79.06C106.34 78.58 102.21 78.32 98.11 77.7C97.69 79.86 97.21 82.51 96.7 85.87L85.99 85.94L89.37 99.94C89.37 99.94 102.94 101.67 107.64 94.99C109.508 92.0385 110.513 88.6229 110.54 85.13C110.576 83.9927 110.549 82.8543 110.46 81.72Z" fill="#EAAD82"/>
<path d="M110.28 87.47C110.39 86.66 110.46 85.85 110.5 85.08C110.561 83.9575 110.561 82.8325 110.5 81.71C110.5 80.88 110.5 79.99 110.5 79.05C106.38 78.57 102.25 78.31 98.15 77.69C97.82 79.39 97.45 81.4 97.06 83.81C100.9 86.4 105.58 87.28 110.28 87.47Z" fill="#E39073"/>
<path d="M93.14 85.81C93.14 90.54 92.95 95.28 92.69 100.01C90.69 100.01 89.31 99.81 89.31 99.81L85.94 85.81H93.14Z" fill="#E39073"/>
<path d="M104.64 62.84C104.539 63.1444 104.372 63.4229 104.151 63.6557C103.931 63.8886 103.661 64.0701 103.363 64.1874C103.064 64.3047 102.743 64.355 102.423 64.3347C102.103 64.3145 101.791 64.2241 101.51 64.07C101.76 64.33 100.02 65.5 99.7 65.66C99.5341 65.7248 99.354 65.7441 99.1782 65.716C99.0024 65.6878 98.8373 65.6133 98.7 65.5C98.423 65.2648 98.1924 64.9799 98.02 64.66C97.8621 65.6724 97.9795 66.7086 98.36 67.66C99.96 66.66 101.93 66.94 104.05 69.17C103.05 68.1 107.98 65.65 108.51 65.61C106.77 65.72 104.73 64.56 104.64 62.84Z" fill="#E39073"/>
<path d="M64.84 85.51C78.71 85.39 91.63 84.11 91.63 84.11L89.44 104.34L67.55 100.85L64.84 85.51Z" fill="#CED2D6"/>
<path d="M87.52 86.84C82.44 87.52 76.89 88.69 72.09 88.3C77.35 94.53 87.33 98.15 87.52 86.84Z" fill="#F2E6D7"/>
<path d="M42.49 85.16L67.25 85.66C67.49 85.76 72.49 110.9 76.91 131.66C76.91 131.66 63.25 137.38 36.47 132.05L42.49 85.16Z" fill="#F2E6D7"/>
<path d="M66.45 126.48C61.73 127.6 53.32 127.84 50.45 123.48C47.36 118.71 47.27 115.24 47.68 108.04C53.33 112.52 63.49 116.44 70.55 116.92C68.17 114.11 63.91 112.11 61.02 109.5C57.02 105.87 51.72 101.6 49.13 96.76C52.54 97.67 55.9 99 59.64 99.51C62.64 99.91 67.73 101.51 71.01 101.45C70.76 100.08 70.58 96 70.35 94.81C68.87 89.81 68.35 86.42 67.48 85.81C67.408 85.7601 67.3262 85.726 67.24 85.71C65.99 85.54 61.09 85.43 55.98 85.35C53.79 85.35 51.56 85.29 49.56 85.27L42.48 85.21L37.15 126.72L36.47 132.06C63.26 137.4 76.9 131.72 76.9 131.72C76.29 128.82 75.71 125.85 75.17 122.87C72.4392 124.461 69.506 125.675 66.45 126.48Z" fill="#CED2D6"/>
<path d="M75.61 126.72L75.33 124.2C75.24 123.77 75.14 123.33 75.05 122.9C73.76 123.13 62.27 125.13 55.77 124.17C48.88 123.17 40.49 122.66 40.49 122.66V101.44L40.37 101.67L37.06 127.42L75.61 126.72Z" fill="#ADADCF"/>
<path d="M42.49 85.16C28.62 85.04 20.1 84.16 20.1 84.16L22.3 104.39L44.18 100.9L42.49 85.16Z" fill="#CED2D6"/>
<path d="M24.21 86.84C29.3 87.52 34.85 88.69 39.65 88.3C34.38 94.53 24.4 98.15 24.21 86.84Z" fill="#F2E6D7"/>
<path d="M79.58 29.04C79.76 29.44 89.85 50.04 87.29 63.36C84.73 76.68 58.69 86.02 44.29 77.14C29.89 68.26 27.09 45.24 27.09 45.24L37.18 25.57C37.18 25.57 66.72 18.71 67.18 19.02C67.64 19.33 79.58 29.04 79.58 29.04Z" fill="#EAAD82"/>
<path d="M79.58 29.04C79.58 29.04 67.65 19.33 67.2 19.04C66.75 18.75 37.2 25.59 37.2 25.59L34.56 30.72C34.2276 34.0425 34.1473 37.3854 34.32 40.72L44.05 44.81C45.7447 47.3668 46.5527 50.4093 46.35 53.47C47.155 50.0094 46.7747 46.3787 45.27 43.16C48.2937 42.7628 51.1123 41.4125 53.3168 39.3051C55.5213 37.1977 56.9971 34.4428 57.53 31.44C60.0729 33.6215 63.273 34.8889 66.62 35.04C64.0512 34.184 61.8299 32.5171 60.29 30.29C63.7041 33.0003 67.763 34.7782 72.07 35.45C75.1031 36.009 78.2337 35.6612 81.07 34.45C81.3383 34.3259 81.5988 34.1857 81.85 34.03C80.59 31.12 79.63 29.16 79.58 29.04Z" fill="#E39073"/>
<path d="M71.6 66.19L60.36 64.84C60.0402 65.9057 60.0393 67.0416 60.3574 68.1078C60.6755 69.174 61.2986 70.1237 62.15 70.84C63.0601 71.5349 64.1422 71.969 65.2802 72.0958C66.4182 72.2226 67.5692 72.0374 68.61 71.56C70.74 70.59 71.49 68.41 71.6 66.19Z" fill="#D7514C"/>
<path d="M50.99 46.17C50.29 44.91 57.82 41.62 58.99 43.56C60.16 45.5 51.8 47.64 50.99 46.17Z" fill="#41283D"/>
<path d="M70.19 41.18C70.19 39.74 78.36 40.46 78.51 42.75C78.66 45.04 70.2 42.86 70.19 41.18Z" fill="#41283D"/>
<path d="M54.71 66.31C54.8272 67.5054 54.5872 68.7087 54.0202 69.7675C53.4533 70.8264 52.5849 71.6933 51.5251 72.2584C50.4652 72.8236 49.2616 73.0616 48.0664 72.9423C46.8712 72.8231 45.7383 72.352 44.811 71.5886C43.8837 70.8252 43.2037 69.8038 42.8572 68.6538C42.5106 67.5038 42.513 66.2768 42.8641 65.1281C43.2151 63.9795 43.8991 62.9608 44.8294 62.201C45.7596 61.4413 46.8944 60.9746 48.09 60.86C48.8826 60.7827 49.6827 60.8625 50.4445 61.0946C51.2063 61.3267 51.9148 61.7068 52.5296 62.2129C53.1444 62.7191 53.6535 63.3414 54.0276 64.0444C54.4017 64.7475 54.6336 65.5173 54.71 66.31Z" fill="#E39073"/>
<path d="M87.29 63.36C87.7497 60.7185 87.8372 58.0257 87.55 55.36C86.5581 55.2488 85.5538 55.3599 84.6102 55.6854C83.6665 56.0108 82.8073 56.5424 82.0948 57.2415C81.3823 57.9406 80.8345 58.7896 80.4912 59.7269C80.1479 60.6641 80.0176 61.6661 80.11 62.66C80.2446 64.0285 80.7964 65.3225 81.6907 66.3671C82.585 67.4116 83.7786 68.1562 85.11 68.5C86.1838 66.9556 86.9261 65.2055 87.29 63.36Z" fill="#E39073"/>
<path d="M58.64 51.96C59.0066 52.4637 59.1954 53.075 59.1767 53.6977C59.158 54.3205 58.9329 54.9193 58.5368 55.4002C58.1407 55.881 57.596 56.2166 56.9884 56.3541C56.3807 56.4917 55.7446 56.4234 55.18 56.16C54.7478 55.9868 54.3806 55.6825 54.13 55.29C53.7634 54.7863 53.5746 54.175 53.5933 53.5523C53.612 52.9295 53.8371 52.3307 54.2332 51.8498C54.6293 51.369 55.174 51.0334 55.7817 50.8959C56.3893 50.7583 57.0254 50.8266 57.59 51.09C58.0223 51.2633 58.3894 51.5675 58.64 51.96Z" fill="#41283D"/>
<path d="M69.39 51.58C69.3584 52.2025 69.5339 52.818 69.8891 53.3302C70.2444 53.8424 70.7593 54.2225 71.3535 54.411C71.9476 54.5996 72.5875 54.5859 73.1731 54.3723C73.7586 54.1586 74.2569 53.7569 74.59 53.23C74.8486 52.8562 74.9913 52.4145 75 51.96C75.0316 51.3375 74.8561 50.722 74.5009 50.2098C74.1456 49.6976 73.6307 49.3175 73.0365 49.129C72.4424 48.9404 71.8025 48.9541 71.2169 49.1677C70.6313 49.3814 70.1331 49.7831 69.8 50.31C69.5414 50.6838 69.3987 51.1256 69.39 51.58Z" fill="#41283D"/>
<path d="M42.59 41.19C42.59 41.19 48.54 48.87 44.2 57.88C44.2 57.88 46.96 49.82 41.65 42.88C36.34 35.94 42.59 41.19 42.59 41.19Z" fill="#41283D"/>
<path d="M87.52 23.18C88.9903 21.6941 90.1479 19.9286 90.9242 17.9877C91.7006 16.0468 92.08 13.97 92.04 11.88C91.9304 7.68653 90.7348 3.59321 88.57 0C89.621 2.50001 89.9232 5.25146 89.44 7.92C88.7194 5.41757 87.4484 3.10791 85.72 1.16C86.1748 2.0411 86.406 3.02045 86.3933 4.0119C86.3807 5.00334 86.1245 5.97648 85.6475 6.84569C85.1704 7.71489 84.487 8.45352 83.6574 8.99658C82.8278 9.53964 81.8775 9.87049 80.89 9.96C81.5074 9.43357 82.0373 8.81251 82.46 8.12C82.54 7.98 82.63 7.84 82.7 7.7C83.1701 6.76136 83.4396 5.7351 83.4912 4.68659C83.5429 3.63808 83.3756 2.5903 83 1.61C82.6913 2.69241 82.1156 3.67992 81.3259 4.48191C80.5361 5.28391 79.5575 5.87468 78.48 6.2C76.3089 6.82284 74.0174 6.89842 71.81 6.42C69.6 6.03 67.43 5.42 65.21 5.09C62.0055 4.66465 58.7467 4.94843 55.664 5.92129C52.5813 6.89415 49.7499 8.53232 47.37 10.72C43.9881 9.58628 40.3961 9.22063 36.8551 9.64962C33.3141 10.0786 29.9133 11.2915 26.9 13.2C23.9598 15.1467 21.4992 17.7346 19.7031 20.7692C17.907 23.8037 16.8221 27.2059 16.53 30.72C16.53 30.72 11.16 35.56 12.42 44.52C12.42 44.52 12.32 38.13 15.97 34.18C15.97 34.18 11.18 41.89 17.04 52.56C22.9 63.23 29.52 63.72 29.52 63.72L38.35 62.29C38.35 62.29 48.52 57.39 42.72 42.66C42.72 42.66 54.05 38.3 56.72 28.35C62.0423 33.1123 68.6517 36.1979 75.72 37.22C70.2817 36.183 65.3228 33.4195 61.58 29.34C64.3421 30.9116 67.2488 32.2143 70.26 33.23C73.2898 34.247 76.5394 34.4199 79.66 33.73C83.135 32.7401 86.1861 30.6311 88.34 27.73C90.4626 24.8335 92.054 21.583 93.04 18.13C91.7216 20.3072 89.8056 22.06 87.52 23.18Z" fill="#41283D"/>
<path d="M17.9 30.81C17.9 30.81 8.74999 22.22 7.98999 35.95C7.98999 35.95 10.23 26.59 17.36 32.6L18.3 30.77" fill="#41283D"/>
<path d="M39.44 42.95C38.153 40.6763 36.2818 38.7878 34.02 37.48C33.0341 36.8808 32.0122 36.3431 30.96 35.87C30.9802 35.8943 30.997 35.9212 31.01 35.95C32.46 38.13 34.54 40.37 35.55 42.76C34.32 41.85 33.69 40.37 32.17 39.6C30.8376 38.8409 29.3979 38.288 27.9 37.96C28.08 41.76 29.4 46.72 32.4 49.32C27.7261 45.9102 24.2868 41.0741 22.6 35.54C21.3749 37.3021 20.7125 39.394 20.7 41.54C20.51 39.38 20.53 37.35 20.52 35.24C19.17 37.09 17.52 40.34 17.89 42.64C17.6939 41.0369 17.7581 39.4127 18.08 37.83C18.2822 36.6871 18.5799 35.5632 18.97 34.47C18.2164 34.8559 17.5618 35.4103 17.0571 36.0901C16.5524 36.77 16.2112 37.5569 16.06 38.39C15.48 40.82 15.27 44.86 16.88 46.99C20.03 51.14 27.24 53.9 32.07 53.99C34.07 53.99 37.76 52.08 39.29 50.57C41.04 48.86 40.44 45 39.44 42.95Z" fill="#4E2B4B"/>
<path d="M18.5 42.77C18.0565 43.182 17.785 43.7463 17.74 44.35C17.7314 45.1448 17.897 45.9318 18.2253 46.6557C18.5535 47.3796 19.0364 48.0228 19.64 48.54C20.98 49.54 22.09 48.84 22.34 47.25C22.405 46.4314 22.2911 45.6085 22.0061 44.8383C21.7212 44.0681 21.2721 43.3692 20.69 42.79C20.3983 42.5044 20.0073 42.3427 19.599 42.339C19.1908 42.3353 18.7969 42.4897 18.5 42.77Z" fill="#644768"/>
<path d="M37.34 61.37C33.11 58.86 24.34 57.04 23.02 62.12C21.7 67.2 30.02 79.74 37.63 79.57C45.24 79.4 44.23 72.24 42.99 68.47C41.9889 65.5187 39.9911 63.0082 37.34 61.37Z" fill="#EAAD82"/>
<path d="M26.38 63.6C30.49 62.42 37.24 65.68 38.58 68.97C39.92 72.26 40.58 76.97 36.39 75.49C32.2 74.01 28.39 68.42 31.54 67.7C32.4394 67.4866 33.3736 67.4654 34.2817 67.6377C35.1898 67.81 36.0514 68.172 36.81 68.7C36.81 68.7 33.75 65.3 31.03 64.5C29.5177 64.0302 27.9583 63.7284 26.38 63.6Z" fill="#E39073"/>
<path d="M52.35 28.38C51.266 29.6531 49.8544 30.6055 48.2681 31.1343C46.6818 31.6631 44.9811 31.748 43.35 31.38C43.34 32.1055 43.1833 32.8214 42.8895 33.4847C42.5956 34.1481 42.1706 34.7451 41.64 35.24C41.1197 35.7404 40.5029 36.1297 39.8272 36.3842C39.1516 36.6386 38.4312 36.7529 37.71 36.72C39.18 38.53 39.94 41.51 38.87 43.58C40.4765 42.7515 41.8667 41.5585 42.9294 40.0964C43.9921 38.6343 44.6978 36.9437 44.99 35.16C45.3904 36.6723 45.4383 38.2563 45.13 39.79C49.36 37.46 51.59 33.15 52.35 28.38Z" fill="#4E2B4B"/>
<path d="M37.58 59.55C39.0757 57.1411 39.9168 54.3836 40.02 51.55C39.1481 53.8864 37.6029 55.9117 35.58 57.37C37.3752 54.1716 38.3477 50.5773 38.41 46.91C38.8 47.63 39.19 50.91 38.62 51.41C40.1004 50.0165 41.0033 48.1178 41.15 46.09C42.03 49.09 42.58 52.98 41.03 55.84C40.18 57.42 38.42 58.2 37.58 59.55Z" fill="#4E2B4B"/>
<path d="M35.35 167.08V183.52C35.35 183.52 24.66 182.99 23.8 190.78H51.6L52.51 175.23L35.35 167.08Z" fill="#A23127"/>
<path d="M35.35 167.08V183.52C35.35 183.52 24.66 182.99 23.8 190.78H51.6L52.51 175.23L35.35 167.08Z" fill="#783E6F"/>
<path d="M31.48 185.56C30.37 185.29 27.89 185.17 27.14 186.56C27.0485 186.725 26.9906 186.907 26.9698 187.095C26.9489 187.282 26.9655 187.473 27.0185 187.654C27.0715 187.835 27.1599 188.004 27.2786 188.151C27.3973 188.298 27.5439 188.42 27.71 188.51C28.0784 188.66 28.4749 188.727 28.8721 188.708C29.2693 188.689 29.6576 188.584 30.01 188.4C31.15 187.88 33.64 186.1 31.48 185.56Z" fill="#8C527F"/>
<path d="M77.25 167.08V183.52C77.25 183.52 87.94 182.99 88.8 190.78H61L60.08 175.23L77.25 167.08Z" fill="#783E6F"/>
<path d="M81.12 185.56C82.23 185.29 84.7 185.17 85.46 186.56C85.6421 186.894 85.6843 187.287 85.5775 187.653C85.4707 188.018 85.2235 188.326 84.89 188.51C84.5216 188.66 84.1251 188.727 83.7279 188.708C83.3307 188.689 82.9424 188.584 82.59 188.4C81.45 187.88 78.96 186.1 81.12 185.56Z" fill="#8C527F"/>
<path d="M15.63 82.72C15.19 80.54 12.36 71.15 12.28 69.82C13.28 69.82 17.09 68.01 17.18 67.01C17.2102 66.5102 17.0634 66.0157 16.7653 65.6134C16.4672 65.2111 16.0369 64.9266 15.55 64.81C15.6496 63.4929 15.3424 62.1769 14.67 61.04C13.95 60.04 12.34 59.61 11.47 60.48C10.8832 59.8483 10.0706 59.4739 9.20909 59.4383C8.34759 59.4027 7.50691 59.7088 6.87 60.29C6.52494 60.0004 6.11573 59.7974 5.67639 59.6978C5.23706 59.5981 4.78029 59.6049 4.34407 59.7173C3.90785 59.8298 3.50479 60.0448 3.1684 60.3444C2.832 60.644 2.57199 61.0197 2.40999 61.44C1.87999 63.69 0.17 79.53 0 85.25C4.33 85.81 10.17 85.81 15.63 82.72Z" fill="#8C527F"/>
<path d="M7.09998 62.84C7.19998 63.1441 7.36575 63.4225 7.58548 63.6553C7.80521 63.8881 8.07352 64.0697 8.37135 64.1871C8.66919 64.3045 8.98923 64.3549 9.30873 64.3347C9.62823 64.3144 9.93935 64.2241 10.22 64.07C9.97999 64.33 11.71 65.5 12.04 65.66C12.2058 65.7248 12.3859 65.7441 12.5617 65.716C12.7375 65.6878 12.9026 65.6133 13.04 65.5C13.3169 65.2648 13.5476 64.9799 13.72 64.66C13.8861 65.6714 13.772 66.7089 13.39 67.66C11.78 66.66 9.81998 66.94 7.69998 69.17C8.69998 68.1 3.75998 65.65 3.22998 65.61C4.95998 65.72 7.00998 64.56 7.09998 62.84Z" fill="#783E6F"/>
<path d="M96.17 82.72C96.61 80.54 99.44 71.15 99.52 69.82C98.52 69.82 94.71 68.01 94.62 67.01C94.5898 66.5102 94.7366 66.0157 95.0347 65.6134C95.3328 65.2111 95.7631 64.9266 96.25 64.81C96.1504 63.4929 96.4576 62.1769 97.13 61.04C97.85 60.04 99.46 59.61 100.33 60.48C100.917 59.8483 101.729 59.4739 102.591 59.4383C103.452 59.4027 104.293 59.7088 104.93 60.29C105.275 60.0004 105.684 59.7974 106.124 59.6978C106.563 59.5981 107.02 59.6049 107.456 59.7173C107.892 59.8298 108.295 60.0448 108.632 60.3444C108.968 60.644 109.228 61.0197 109.39 61.44C109.92 63.69 111.63 79.53 111.8 85.25C107.47 85.81 101.63 85.81 96.17 82.72Z" fill="#8C527F"/>
<path d="M104.7 62.84C104.6 63.1441 104.434 63.4225 104.215 63.6553C103.995 63.8881 103.726 64.0697 103.429 64.1871C103.131 64.3045 102.811 64.3549 102.491 64.3347C102.172 64.3144 101.861 64.2241 101.58 64.07C101.82 64.33 100.09 65.5 99.76 65.66C99.5942 65.7248 99.4141 65.7441 99.2383 65.716C99.0625 65.6878 98.8974 65.6133 98.76 65.5C98.4831 65.2648 98.2524 64.9799 98.08 64.66C97.9139 65.6714 98.0281 66.7089 98.41 67.66C100.02 66.66 101.98 66.94 104.1 69.17C103.1 68.1 108.04 65.65 108.57 65.61C106.84 65.72 104.79 64.56 104.7 62.84Z" fill="#783E6F"/>
<path d="M35.15 122.79L34.22 133.13C42.6043 134.364 51.0655 135.003 59.54 135.04C72.12 134.96 79.16 132.73 79.16 132.73L78 121.99C71.3918 124.43 64.4312 125.781 57.39 125.99C46.73 126.05 35.15 122.79 35.15 122.79Z" fill="#D8A24E"/>
<path d="M52.27 124.79C52.27 124.79 59.81 125.35 63.14 124.63L63.71 135.43C63.71 135.43 55.71 135.65 52.1 135.51L52.27 124.79Z" fill="#E1CC53"/>
<path d="M53.04 134.92L63.04 134.77L62.66 125.14L52.98 125.52L53.04 134.92Z" fill="#D8A24E"/>
<path d="M54.48 126.66L54.53 134.13L61.53 133.84L61.48 126.22L54.48 126.66Z" fill="#D07E3D"/>
<path d="M63.64 125.83C63.64 125.83 74 123.91 77.52 122.57L77.7 123.42C77.7 123.42 74.06 124.26 70.7 125.09C68.3968 125.63 66.0572 126.001 63.7 126.2" fill="#E1CC53"/>
<path d="M52.01 126.28V126.68C52.01 126.68 37.91 125.46 35.34 124.63V123.15C38.3474 124.105 41.4276 124.814 44.55 125.27C48.9 125.8 52.01 126.28 52.01 126.28Z" fill="#E1CC53"/>
<path d="M64.16 134.57L63.65 127.27L64.9 132.51L78.06 129.36L78.64 132.41C78.64 132.41 73.9 134.36 64.16 134.57Z" fill="#D07E3D"/>
<path d="M52.02 127.66L51.72 134.47C46.016 134.495 40.3229 133.969 34.72 132.9L35.37 127.46L36 130.05L51.28 131.79L52.02 127.66Z" fill="#D07E3D"/>
<path d="M48.95 85.29L48.38 81.98L61.89 82.41V85.54C61.89 85.54 56.69 87.35 56 87.54C55.31 87.73 48.95 85.29 48.95 85.29Z" fill="#F2E6D7"/>
<path d="M47.54 12.25C44.5999 10.882 41.3667 10.2636 38.1293 10.4502C34.8919 10.6367 31.7512 11.6224 28.9877 13.3191C26.2242 15.0158 23.9241 17.3707 22.2929 20.1734C20.6618 22.976 19.7503 26.1391 19.64 29.38L22.34 23.65C21.7147 25.5434 21.5334 27.5553 21.81 29.53C26.3535 27.1536 29.9694 23.3229 32.08 18.65C31.6651 22.8872 29.9141 26.8829 27.08 30.06C30.2889 29.1257 33.0608 27.0805 34.9 24.29C34.8276 25.746 34.4679 27.1734 33.8414 28.4897C33.215 29.8061 32.3343 30.9855 31.25 31.96C34.76 31.69 38.61 31.26 41.06 28.71C40.3737 30.7792 39.0418 32.5738 37.26 33.83C41.3308 34.3501 45.4607 33.5382 49.0316 31.5156C52.6025 29.4931 55.4227 26.3688 57.07 22.61C60.1836 24.5611 63.4629 26.2343 66.87 27.61C70.2972 28.944 74.0154 29.351 77.65 28.79C79.4605 28.4955 81.1857 27.8119 82.7066 26.7865C84.2276 25.761 85.5081 24.418 86.46 22.85C85.2679 23.9746 83.7398 24.6772 82.11 24.85C84.7484 22.6769 86.6282 19.7219 87.4784 16.4112C88.3285 13.1006 88.105 9.6054 86.84 6.43C85.9406 8.51946 84.3887 10.2615 82.4166 11.3953C80.4445 12.5292 78.1583 12.9939 75.9 12.72C77.3655 12.1143 78.6918 11.2156 79.7975 10.0789C80.9032 8.94226 81.765 7.59166 82.33 6.11C79.68 8.52 75.73 8.88 72.17 8.42C68.61 7.96 65.17 6.82 61.57 6.7C55.84 6.5 51.38 8 47.54 12.25Z" fill="#4E2B4B"/>
<path d="M25.29 19.18C24.64 17.75 27.14 15.71 28.03 15C28.3377 14.726 28.6986 14.5184 29.09 14.39C29.2878 14.3297 29.4978 14.322 29.6995 14.3676C29.9011 14.4132 30.0874 14.5105 30.24 14.65C30.4193 14.9159 30.5151 15.2293 30.5151 15.55C30.5151 15.8707 30.4193 16.1841 30.24 16.45C29.73 17.52 26.59 21.45 25.34 19.28C25.32 19.25 25.31 19.21 25.29 19.18Z" fill="#644768"/>
<path d="M53.29 13.6H53.57C54.9252 13.575 56.2708 13.3664 57.57 12.98C58.94 12.5 61.07 11.21 60.35 9.48C59.93 8.48 58.97 8.3 57.96 8.34C55.96 8.43 52.82 9.59 51.58 11.24C51.3862 11.4741 51.265 11.7596 51.2312 12.0616C51.1975 12.3636 51.2526 12.6689 51.39 12.94C51.6256 13.2009 51.9233 13.3982 52.2554 13.5136C52.5875 13.629 52.9433 13.6587 53.29 13.6Z" fill="#644768"/>
<path d="M63.9 8.62C63.4918 8.6536 63.1069 8.82389 62.8075 9.10335C62.508 9.38281 62.3116 9.75509 62.25 10.16C62.2545 10.44 62.3362 10.7133 62.4862 10.9497C62.6362 11.1862 62.8486 11.3766 63.1 11.5C63.3551 11.613 63.631 11.6714 63.91 11.6714C64.189 11.6714 64.4649 11.613 64.72 11.5C65.093 11.3668 65.4069 11.1061 65.6063 10.7639C65.8057 10.4218 65.8779 10.0202 65.81 9.63C65.652 9.27104 65.3775 8.97596 65.0308 8.79263C64.6841 8.6093 64.2856 8.54847 63.9 8.62Z" fill="#644768"/>
<path d="M48.95 85.29C48.95 85.29 47.56 89.8 38.69 85.11C38.69 85.11 44.52 80.98 48.95 85.29Z" fill="#8C527F"/>
<path d="M61.9 85.54C61.9 85.54 65.95 81.54 71.45 85.37C71.44 85.37 65.9 88.54 61.9 85.54Z" fill="#8C527F"/>
<path d="M70.24 63.39C70.16 63.1 70.67 62.7 70.76 62.01C70.7899 61.8413 70.7899 61.6687 70.76 61.5C70.7645 61.4702 70.7645 61.4398 70.76 61.41C70.76 61.41 70.76 61.23 70.76 61.27C70.7194 61.1738 70.6726 61.0802 70.62 60.99C70.2891 60.4857 69.9034 60.0195 69.47 59.6C67.35 57.36 65.97 55.21 66.4 54.81C66.83 54.41 68.89 55.9 71.01 58.15C71.6297 58.7351 72.1143 59.4484 72.43 60.24C72.5032 60.4513 72.5568 60.6689 72.59 60.89C72.59 61.09 72.59 61.05 72.59 61.21C72.59 61.37 72.59 61.48 72.59 61.58C72.5399 61.9672 72.3994 62.3371 72.18 62.66C72.0413 62.8881 71.8584 63.0861 71.642 63.2424C71.4256 63.3987 71.1801 63.5101 70.92 63.57C70.49 63.63 70.28 63.52 70.24 63.39Z" fill="#E39073"/>
</svg>
