<svg width="129" height="197" viewBox="0 0 129 197" fill="none" xmlns="http://www.w3.org/2000/svg">
<g style="mix-blend-mode:multiply" opacity="0.2">
<path d="M74.94 196.12C104.576 196.12 128.6 193.407 128.6 190.06C128.6 186.713 104.576 184 74.94 184C45.3044 184 21.28 186.713 21.28 190.06C21.28 193.407 45.3044 196.12 74.94 196.12Z" fill="#3F6EAC"/>
</g>
<path d="M108.41 71.88L90.33 82.4L86.33 89.57C86.33 89.57 91.33 94.57 100.99 90.57C106.46 88.3 111.65 82.34 115.11 77.57C112.917 75.67 110.683 73.7733 108.41 71.88Z" fill="#EAAD82"/>
<path d="M103.84 74.54L109.39 81.91L111.89 78.33L103.84 74.54Z" fill="#E39073"/>
<path d="M125.43 66.66C124.89 64.53 120.34 66.71 120.34 66.71C120.34 66.71 125.49 63.65 123.78 61.94C122.07 60.23 118.59 64.58 118.59 64.58C118.59 64.58 122.07 60.37 119.94 59.32C117.81 58.27 115.07 66.18 115.07 66.18C115.07 66.18 111.89 62.18 110.6 63.64C109.31 65.1 112.91 69.27 112.91 69.27L109.39 71.27C111.55 73.06 113.67 74.9 115.78 76.75C118.04 73.58 119.41 71.17 119.41 71.17C119.41 71.17 125.96 68.78 125.43 66.66Z" fill="#6A6F3B"/>
<path d="M111.89 78.33C110.63 79.33 109.3 80.33 107.89 81.27C105.57 82.84 102.34 84.98 99.37 84.9C96.09 84.81 95.91 82.16 95.65 79.29L90.33 82.4L86.33 89.57C86.33 89.57 91.33 94.57 100.99 90.57C105.63 88.65 110.07 84.06 113.42 79.83C112.936 79.304 112.426 78.8033 111.89 78.33Z" fill="#E39073"/>
<path d="M93.59 80.51L90.33 82.4L86.33 89.57C86.33 89.57 89.8 93.03 96.47 91.93C95.8037 88.0552 94.8408 84.2374 93.59 80.51Z" fill="#CC715D"/>
<path d="M112.91 69.27L102.84 73.52L112.91 83.78L119.41 71.21L112.91 69.27Z" fill="#6A6F3B"/>
<path d="M17.05 74.58L35.12 85.11L39.12 92.27C39.12 92.27 34.12 97.27 24.47 93.27C19 91 13.81 85.04 10.34 80.27C12.53 78.41 14.77 76.47 17.05 74.58Z" fill="#EAAD82"/>
<path d="M21.61 77.24L16.06 84.61L13.57 81.03L21.61 77.24Z" fill="#E39073"/>
<path d="M0.0300077 69.36C0.560008 67.23 5.11001 69.36 5.11001 69.36C5.11001 69.36 -0.0299946 66.3 1.68001 64.59C3.39001 62.88 6.87001 67.24 6.87001 67.24C6.87001 67.24 3.39001 63.02 5.52001 61.97C7.65001 60.92 10.38 68.83 10.38 68.83C10.38 68.83 13.56 64.88 14.85 66.29C16.14 67.7 12.55 71.92 12.55 71.92L16.06 73.92C13.9067 75.72 11.7767 77.5467 9.67001 79.4C7.42001 76.23 6.04001 73.82 6.04001 73.82C6.04001 73.82 -0.499992 71.49 0.0300077 69.36Z" fill="#6A6F3B"/>
<path d="M13.57 81.03C14.82 82.03 16.16 83.03 17.57 83.97C19.89 85.54 23.13 87.68 26.09 87.6C29.37 87.51 29.55 84.86 29.82 81.99L35.16 85.11L39.16 92.27C39.16 92.27 34.16 97.27 24.51 93.27C19.79 91.39 15.33 86.78 11.99 82.57C12.4866 82.0267 13.0141 81.5125 13.57 81.03Z" fill="#E39073"/>
<path d="M31.86 83.21L35.12 85.11L39.12 92.27C39.12 92.27 35.66 95.73 28.98 94.63C29.657 90.7575 30.6196 86.9404 31.86 83.21Z" fill="#CC715D"/>
<path d="M12.55 71.97L22.61 76.22L12.55 86.48L6.04001 73.91L12.55 71.97Z" fill="#6A6F3B"/>
<path d="M54.33 78.54L56.96 90.65C56.96 90.65 64.6 92.4 68.03 89.29L65.25 76.41L54.33 78.54Z" fill="#E39073"/>
<path d="M67.08 85.04L66 80.04C63.8895 78.9793 61.6742 78.1415 59.39 77.54L54.29 78.54L54.75 80.69C58.1665 83.6394 62.5691 85.1926 67.08 85.04Z" fill="#CC715D"/>
<path d="M65.61 99.67C64.4814 98.4553 62.9971 97.6291 61.37 97.31C55.3898 95.5438 49.2115 94.5359 42.98 94.31C38.5973 110.931 28.625 125.537 14.74 135.67C27.83 142.67 42.86 145.33 57.74 146.26C65.84 133.97 68.16 118.56 66.89 103.89C66.8709 102.391 66.4271 100.927 65.61 99.67Z" fill="#3A3A26"/>
<path d="M51.88 158.22L51.01 164.11L40.79 167L37.11 173.14L40.64 179.05C40.64 179.05 61.13 179.28 63.72 173.29C65.5613 168.607 66.9901 163.772 67.99 158.84L51.88 158.22Z" fill="#EAAD82"/>
<path d="M85.73 156.66L106.69 184.09L116.9 173.94L98.29 149.91L85.73 156.66Z" fill="#EAAD82"/>
<path d="M67.99 158.84C66.9901 163.772 65.5613 168.607 63.72 173.29C61.13 179.29 40.64 179.05 40.64 179.05L37.11 173.14L40.79 167L41.23 166.87C41.8 168.44 43.16 169.09 45.88 168.99C48.6 168.89 53.56 169.26 54.11 165.66C52.9608 165.284 51.8573 164.781 50.82 164.16H51.01L51.88 158.27L67.99 158.84ZM98.29 149.91L85.73 156.66L106.73 184.08L116.67 174.2C116.62 173.93 116.58 173.67 116.52 173.4L108.09 162.51C106.58 165.41 104.53 168.57 101.79 168.33C99.05 168.09 95.34 162.49 94.42 160.27C96.6342 158.017 99.1397 156.069 101.87 154.48L98.29 149.91Z" fill="#E39073"/>
<path d="M99.98 152.1L98.33 149.91L85.77 156.66L88.59 160.36C91.8274 158.677 94.8834 156.667 97.71 154.36C98.5436 153.688 99.3045 152.931 99.98 152.1Z" fill="#CC715D"/>
<path d="M67.74 160C64.3388 159.255 60.8608 158.919 57.38 159L51.79 158.89L51.19 162.89C56.2492 164.592 61.683 164.848 66.88 163.63C67.26 162.13 67.55 160.86 67.74 160Z" fill="#CC715D"/>
<path d="M48.19 137.21L48.3 159.51C48.3 159.51 55.24 165.56 69.12 161.85L73.7 144.15L83.49 160.15C83.49 160.15 98.97 155.84 101.89 148.04L90.16 128.97L48.19 137.21Z" fill="#D07E3D"/>
<path d="M90.16 129.01L74.64 129.33L48.19 137.21L48.3 159.51C48.3 159.51 53 163.6 62.4 162.99C57.7203 161.741 53.2964 159.68 49.33 156.9L52.49 158.03C50.3096 152.593 49.9207 146.603 51.38 140.93C58.64 140.7 65.94 140.39 73.01 138.74C79.01 137.34 86.58 134.74 91.37 130.9L90.16 129.01Z" fill="#B86E3B"/>
<path d="M50.04 86.69C50.04 86.69 66.84 85.95 69.71 85.95C72.58 85.95 83 109 90.16 129C90.16 129 79.71 142.86 48.16 137.59L50.04 86.69Z" fill="#D8A24E"/>
<path d="M69.71 85.95C77.25 83.8 92.32 78.39 92.32 78.39C92.32 78.39 95.32 89.97 95.27 95.39C95.27 95.39 86.7 98.54 73.99 97.39L69.71 85.95Z" fill="#D07E3D"/>
<path d="M50.04 86.69L48.52 134.83L48.19 137.59C68.87 141.05 79.92 136.27 85.75 132.59C86.31 132.24 86.81 131.9 87.25 131.59C87.9491 131.073 88.6169 130.516 89.25 129.92C89.5573 129.641 89.8478 129.344 90.12 129.03C89.19 126.42 88.2 123.76 87.12 121.1C84.4028 123.128 81.4221 124.776 78.26 126C73.73 127.74 65.42 129.11 62 125.12C58.3 120.81 57.75 117.38 57.19 110.18C63.39 113.87 73.98 116.39 81.04 115.93C78.31 113.46 73.82 112.05 70.61 109.84C66.16 106.79 60.34 103.26 57.12 98.84C60.62 99.29 64.12 100.16 67.91 100.16C70.98 100.16 74.28 98.68 77.37 98.16C74.15 91.45 71.37 86.74 69.95 86.07C69.858 86.0319 69.7596 86.0115 69.66 86.01L50.04 86.69Z" fill="#D07E3D"/>
<path d="M74.68 135.12C66.5039 136.533 58.1305 136.336 50.03 134.54L49.61 100.21L48.19 137.59C77.48 142.49 88.28 130.87 90.19 129.21C89.22 130.01 85.8 133.03 74.68 135.12Z" fill="#B86E3B"/>
<path d="M78.13 85.92C81.9216 84.2266 85.8617 82.8875 89.9 81.92C89.7078 83.1885 89.1707 84.3798 88.3474 85.3637C87.524 86.3477 86.4461 87.0864 85.2314 87.4992C84.0166 87.912 82.7118 87.9831 81.4594 87.7046C80.207 87.4261 79.0553 86.8087 78.13 85.92Z" fill="#D8A24E"/>
<path d="M50.04 86.69C39.4 83.69 45.67 85.61 33.53 81.25C33.53 81.25 30.53 92.83 30.53 98.25C30.53 98.25 39.1 101.4 51.81 100.25L50.04 86.69Z" fill="#D07E3D"/>
<path d="M47.72 88.78C43.9312 87.0882 39.9946 85.7492 35.96 84.78C36.1534 86.0465 36.6908 87.2357 37.5135 88.2179C38.3362 89.2001 39.4126 89.9377 40.6256 90.3503C41.8386 90.7628 43.1416 90.8346 44.3925 90.5577C45.6435 90.2808 46.7944 89.6659 47.72 88.78Z" fill="#D8A24E"/>
<path d="M83.33 144.33C81.38 144.98 78.78 143.13 80.42 140.66C79.04 141.3 77.96 142.4 76.42 142.59C76.56 141.7 76.16 140.59 76.42 139.72C72.75 142.65 72.34 141.57 68.68 141.02C69.1437 141.923 69.8326 142.691 70.68 143.25C66.35 144.49 61.33 145.4 56.52 144.34C56.52 149.93 56.29 154.59 56.52 159.14C58.8019 159.742 61.163 159.988 63.52 159.87C64.0312 159.864 64.5423 159.89 65.05 159.95C65.64 159.85 66.22 159.74 66.82 159.61L73.32 142.38L76.03 145.88L76.35 145.65C79.48 147.55 82.5 152.84 84.18 156.09C86.6 155.73 96.04 150.96 95.91 148.92C95.78 146.88 90.27 141.03 88.85 139.57C87.46 140.78 85.13 143.78 83.33 144.33Z" fill="#D8A24E"/>
<path d="M105.82 156.38L117.25 172.08C117.25 172.08 122.37 165.2 128.25 172.28L108.57 188.05L94.21 172.27L105.82 156.38Z" fill="#6A6F3B"/>
<path d="M124.94 172.9C124.514 173.693 123.899 174.369 123.149 174.866C122.398 175.363 121.536 175.667 120.64 175.75C120.28 175.808 119.91 175.744 119.59 175.57C119.422 175.449 119.287 175.288 119.198 175.1C119.108 174.913 119.068 174.707 119.08 174.5C119.098 174.083 119.222 173.677 119.44 173.32C119.844 172.594 120.406 171.968 121.084 171.488C121.763 171.009 122.541 170.688 123.36 170.55C123.667 170.429 124.007 170.417 124.322 170.515C124.637 170.613 124.91 170.816 125.094 171.09C125.278 171.364 125.363 171.693 125.335 172.022C125.307 172.351 125.168 172.661 124.94 172.9Z" fill="#878E3F"/>
<path d="M88.9 32.78C89.04 33.2 97.11 54.65 93.28 67.68C89.45 80.71 62.64 87.49 49.18 77.27C35.72 67.05 35.13 43.78 35.13 43.78L47.06 25.18C47.06 25.18 77.12 21.18 77.54 21.54C77.96 21.9 88.9 32.78 88.9 32.78Z" fill="#EAAD82"/>
<path d="M88.9 32.78L81.1 25.09C76.0525 23.7532 70.7364 23.8147 65.7212 25.268C60.706 26.7213 56.1807 29.5116 52.63 33.34C50.89 35.34 49.37 37.63 49.29 40.24C49.17 44.52 52.9 48.16 52.88 52.44C53.4207 49.4882 53.3594 46.4576 52.7 43.53C55.972 44.5164 59.484 44.3449 62.6443 43.0443C65.8046 41.7438 68.42 39.3937 70.05 36.39C71.1732 37.9736 72.6676 39.2575 74.4023 40.1292C76.137 41.0009 78.0591 41.4338 80 41.39C77.2625 40.1891 75.033 38.0658 73.7 35.39C76.1337 37.5275 79.1621 38.8708 82.38 39.24C80.4194 38.5305 78.6133 37.4509 77.06 36.06C79.22 37.89 82.46 37.17 85.21 36.5C86.7763 36.0596 88.4125 35.9238 90.03 36.1C89.39 34.08 88.93 32.84 88.9 32.78Z" fill="#E39073"/>
<path d="M58.79 47.04C58.22 45.72 66.03 43.17 67.06 45.22C68.09 47.27 59.46 48.59 58.79 47.04Z" fill="#4B2720"/>
<path d="M78.38 43.93C78.51 42.49 86.59 43.99 86.52 46.29C86.45 48.59 78.23 45.6 78.38 43.93Z" fill="#4B2720"/>
<path d="M60.56 67.45C60.562 68.651 60.2077 69.8255 59.5419 70.825C58.8761 71.8246 57.9288 72.6041 56.8198 73.0651C55.7109 73.526 54.4901 73.6477 53.3119 73.4146C52.1338 73.1815 51.0513 72.6042 50.2014 71.7557C49.3515 70.9072 48.7724 69.8256 48.5374 68.6479C48.3024 67.4701 48.422 66.2492 48.8811 65.1394C49.3402 64.0297 50.1182 63.0811 51.1167 62.4137C52.1151 61.7463 53.2891 61.39 54.49 61.39C56.0981 61.39 57.6406 62.0281 58.7786 63.1643C59.9167 64.3005 60.5574 65.8419 60.56 67.45Z" fill="#E39073"/>
<path d="M93.33 67.64C94.0306 65.0322 94.3671 62.34 94.33 59.64C93.8667 59.5397 93.394 59.4894 92.92 59.49C91.3403 59.4806 89.8082 60.0296 88.594 61.0401C87.3798 62.0506 86.5617 63.4577 86.2842 65.0128C86.0067 66.5679 86.2876 68.171 87.0772 69.5392C87.8669 70.9073 89.1146 71.9524 90.6 72.49C91.8365 71.0802 92.7662 69.4285 93.33 67.64Z" fill="#E39073"/>
<path d="M65.85 53.54C66.1649 54.076 66.2933 54.7012 66.2149 55.3179C66.1365 55.9346 65.8559 56.5079 65.4169 56.948C64.9779 57.3881 64.4053 57.6703 63.7888 57.7503C63.1724 57.8302 62.5468 57.7035 62.01 57.39C61.5757 57.1758 61.2242 56.8243 61.01 56.39C60.7013 55.8526 60.5781 55.2285 60.6597 54.6141C60.7412 53.9998 61.0229 53.4294 61.4611 52.9911C61.8994 52.5529 62.4698 52.2712 63.0841 52.1897C63.6985 52.1081 64.3226 52.2313 64.86 52.54C65.2893 52.7578 65.6366 53.1086 65.85 53.54Z" fill="#4B2720"/>
<path d="M76.6 54.2C76.5072 54.815 76.6211 55.4435 76.9239 55.9868C77.2266 56.5302 77.7011 56.9577 78.2729 57.2025C78.8447 57.4472 79.4816 57.4953 80.0837 57.3392C80.6858 57.1832 81.2191 56.8317 81.6 56.34C81.8949 55.9927 82.0764 55.5635 82.12 55.11C82.2128 54.495 82.0989 53.8665 81.7961 53.3232C81.4934 52.7798 81.0189 52.3523 80.4471 52.1075C79.8752 51.8628 79.2384 51.8147 78.6363 51.9708C78.0342 52.1268 77.5009 52.4783 77.12 52.97C76.8251 53.3173 76.6436 53.7465 76.6 54.2Z" fill="#4B2720"/>
<path d="M50.91 41.28C50.91 41.28 56.1 49.5 50.91 58.05C50.91 58.05 54.43 50.29 49.82 42.86C45.21 35.43 50.91 41.28 50.91 41.28Z" fill="#4B2720"/>
<path d="M70.58 34.45C69.37 37.96 65.45 40.31 61.91 41.45C58.3362 42.4664 54.6217 42.8986 50.91 42.73C55.27 57.95 44.67 61.84 44.67 61.84L35.75 62.43C35.75 62.43 29.19 61.37 24.39 50.18C19.59 38.99 25.09 31.78 25.09 31.78C21.09 35.36 20.56 41.78 20.56 41.78C20.17 32.78 25.98 28.44 25.98 28.44C27.92 22.78 32.89 18.56 38.33 16.18C43.77 13.8 49.82 13.08 55.77 12.71C58.56 12.53 61.53 12.38 63.84 10.8C66.15 9.22 67.37 5.66 65.51 3.57C67.481 4.63032 69.1134 6.22457 70.22 8.17C70.4353 6.42365 70.0196 4.65783 69.0478 3.19095C68.076 1.72408 66.6121 0.652699 64.92 0.17C68.289 -0.266768 71.7064 0.453006 74.6131 2.21152C77.5197 3.97002 79.7433 6.66311 80.92 9.85C81.0968 8.76097 81.0181 7.64575 80.6901 6.59234C80.3621 5.53894 79.7938 4.57617 79.03 3.78C80.7424 4.00369 82.3184 4.83209 83.4736 6.11571C84.6289 7.39932 85.2873 9.0536 85.33 10.78C85.5499 9.87307 85.5881 8.93158 85.4423 8.00982C85.2966 7.08807 84.9698 6.20429 84.4808 5.40945C83.9918 4.61461 83.3503 3.92444 82.5932 3.37875C81.8362 2.83305 80.9787 2.44263 80.07 2.23C82.3252 2.35474 84.5045 3.08822 86.3762 4.35246C88.248 5.61671 89.7421 7.36448 90.7 9.41C92.56 13.52 92.48 19.62 89.65 23.12C91.6702 22.5544 93.8279 22.7514 95.7124 23.6733C97.5969 24.5953 99.0766 26.1779 99.87 28.12C97.7986 26.6706 95.2508 26.0694 92.75 26.44C93.8939 26.9464 94.8915 27.7334 95.6501 28.7281C96.4088 29.7228 96.9041 30.8929 97.09 32.13C97.2588 33.3568 97.1093 34.6065 96.6557 35.7588C96.2021 36.9111 95.4598 37.9274 94.5 38.71C94.64 35.87 91.17 33.57 88.6 33.53C86.42 33.53 84.34 34.35 82.21 34.82C80.08 35.29 77.63 35.3 75.99 33.82C78.6133 36.1755 82.0582 37.404 85.58 37.24C81.55 38.93 74.77 37.53 70.58 34.45Z" fill="#4B2720"/>
<path d="M27.33 28.57C27.33 28.57 19.02 19.15 16.94 32.78C16.94 32.78 20.06 23.68 26.58 30.34L27.7 28.61" fill="#4B2720"/>
<path d="M47.61 42.78C46.555 40.3789 44.8728 38.3063 42.74 36.78C41.8176 36.0865 40.8524 35.4519 39.85 34.88V34.97C41.08 37.27 42.94 39.7 43.72 42.18C42.58 41.18 42.09 39.62 40.65 38.71C39.3993 37.8341 38.0193 37.1593 36.56 36.71C36.37 40.5 37.21 45.57 39.95 48.45C35.641 44.5956 32.6972 39.4484 31.56 33.78C30.1768 35.4122 29.3162 37.4225 29.09 39.55C29.09 37.38 29.33 35.36 29.52 33.26C28 34.98 26.09 38.05 26.19 40.38C26.1459 38.762 26.3655 37.1475 26.84 35.6C27.1514 34.4814 27.5562 33.3909 28.05 32.34C27.2619 32.6536 26.5563 33.144 25.9876 33.7733C25.4189 34.4027 25.0023 35.1542 24.77 35.97C23.97 38.33 23.37 42.33 24.77 44.6C27.51 49.04 34.42 52.47 39.21 53.07C41.21 53.31 45.06 51.72 46.72 50.36C48.64 48.78 48.41 44.86 47.61 42.78Z" fill="#64332C"/>
<path d="M26.78 40.54C26.3026 40.9112 25.9787 41.4452 25.87 42.04C25.7831 42.8276 25.8687 43.6246 26.1209 44.3758C26.373 45.127 26.7856 45.8143 27.33 46.39C28.57 47.52 29.74 46.92 30.14 45.39C30.2898 44.582 30.2618 43.7511 30.058 42.955C29.8542 42.1589 29.4796 41.4167 28.96 40.78C28.6984 40.4656 28.325 40.2649 27.9184 40.2202C27.5119 40.1754 27.1038 40.2901 26.78 40.54Z" fill="#854F40"/>
<path d="M43.75 60.86C39.75 57.96 31.19 55.3 29.43 60.23C27.67 65.16 34.68 78.44 42.33 79C49.98 79.56 49.61 72.35 48.73 68.48C48.0038 65.4394 46.2434 62.7457 43.75 60.86Z" fill="#EAAD82"/>
<path d="M32.62 62.03C36.83 61.25 43.24 65.14 44.25 68.54C45.26 71.94 45.47 76.67 41.45 74.83C37.43 72.99 34.18 67.02 37.36 66.61C38.2757 66.4824 39.208 66.5501 40.0956 66.8086C40.9832 67.0672 41.8061 67.5107 42.51 68.11C42.51 68.11 39.8 64.44 37.17 63.37C35.706 62.7607 34.1805 62.3114 32.62 62.03Z" fill="#E39073"/>
<path d="M44.16 59.08C45.8711 56.8267 46.9639 54.1655 47.33 51.36C46.2329 53.6037 44.4922 55.4698 42.33 56.72C44.444 53.7148 45.7742 50.2294 46.2 46.58C46.52 47.34 46.6 50.58 45.97 51.09C47.5665 49.8369 48.6367 48.032 48.97 46.03C49.55 49.13 49.73 53.03 47.91 55.73C46.96 57.21 45.13 57.78 44.16 59.08Z" fill="#64332C"/>
<path d="M54.42 181.13L34.99 181.24C34.99 181.24 37.6 189.42 28.8 189.84L27.48 164.65L48.28 162.43L54.42 181.13Z" fill="#6A6F3B"/>
<path d="M30.65 186.59C30.255 185.782 30.0665 184.889 30.1014 183.99C30.1363 183.091 30.3935 182.215 30.85 181.44C31.0136 181.116 31.2764 180.854 31.6 180.69C31.7987 180.624 32.0106 180.609 32.2166 180.646C32.4226 180.682 32.6162 180.77 32.78 180.9C33.1097 181.165 33.3676 181.509 33.53 181.9C33.8879 182.649 34.0736 183.469 34.0736 184.3C34.0736 185.131 33.8879 185.951 33.53 186.7C33.4314 186.963 33.2709 187.199 33.062 187.387C32.8531 187.575 32.602 187.71 32.33 187.78C31.57 187.87 30.97 187.23 30.65 186.59Z" fill="#878E3F"/>
<path d="M45.48 130.78L46.41 141.13C46.41 141.13 60.98 139.62 74.01 137.13C87.04 134.64 92.93 132.04 92.93 132.04L89.76 121.71C83.5734 124.934 76.9609 127.263 70.12 128.63C59.08 130.78 45.48 130.78 45.48 130.78Z" fill="#464C31"/>
<path d="M64.6 128.42C64.6 128.42 72.51 127.51 75.83 126.15L78.4 136.66C78.4 136.66 70.18 138.43 66.4 138.99L64.6 128.42Z" fill="#6A6F3B"/>
<path d="M67.25 138.23L77.59 136.14L75.43 126.76L65.46 129.01L67.25 138.23Z" fill="#464C31"/>
<path d="M67.23 129.84L68.65 137.16L75.86 135.52L74.4 128.04L67.23 129.84Z" fill="#3A3A26"/>
<path d="M76.58 127.23C76.58 127.23 85.95 124.33 89.36 122.33L89.71 123.13C89.71 123.13 86.09 124.66 82.71 126.13C80.7962 127.003 78.7317 127.499 76.63 127.59" fill="#6A6F3B"/>
<path d="M64.6 129.94L64.68 130.33C64.68 130.33 48.83 132.87 46.02 132.55L45.74 131.09C49.037 131.45 52.357 131.554 55.67 131.4C58.6814 131.157 61.668 130.669 64.6 129.94Z" fill="#6A6F3B"/>
<path d="M78.72 135.78L76.85 128.69L79.1 133.6L91.17 128.95L92.33 131.78C92.33 131.78 88.81 133.62 78.72 135.78Z" fill="#3A3A26"/>
<path d="M64.86 131.29L65.8 138.04C65.8 138.04 55.42 140.93 46.88 140.81L46.56 135.33L47.68 137.78L64.84 135.51L64.86 131.29Z" fill="#3A3A26"/>
<path d="M84.33 39.63C81.1648 40.1777 77.9084 39.7769 74.9706 38.4779C72.0327 37.1789 69.5448 35.0399 67.82 32.33C68.4969 31.464 69.376 30.7773 70.38 30.33C71.6553 32.9904 73.6238 35.2581 76.0786 36.8946C78.5334 38.5312 81.3837 39.4761 84.33 39.63Z" fill="#4B2720"/>
<path d="M48.9 37.24C51.8554 36.0873 54.5688 34.3914 56.9 32.24C55.1377 35.4767 52.6702 38.2758 49.68 40.43C52.68 42.32 56.68 40.98 59.55 38.92C62.42 36.86 64.86 34.08 68.15 32.77C70.57 31.77 73.25 31.77 75.75 31.01C78.9839 30.0122 81.8162 28.0111 83.837 25.2964C85.8578 22.5816 86.9621 19.2942 86.99 15.91L80.93 22.24C81.9135 19.4828 82.2954 16.547 82.05 13.63C80.9216 16.2205 79.1654 18.4889 76.94 20.23C76.94 17.79 76.94 15.35 76.94 12.91C75.5 15.13 74.0533 17.35 72.6 19.57C73.5639 17.1356 73.9386 14.5078 73.6935 11.9009C73.4485 9.29413 72.5906 6.78218 71.19 4.57001C71.8097 7.73677 71.2633 11.0208 69.6515 13.8163C68.0396 16.6117 65.4712 18.7299 62.42 19.78L67 13.93L47.79 17.6C44.6537 18.0461 41.5966 18.935 38.71 20.24C37.2705 20.9012 35.9857 21.8569 34.9384 23.0454C33.8912 24.2339 33.1048 25.6288 32.63 27.14L36.16 24.78C35.208 26.9576 34.8624 29.3521 35.16 31.71C36.58 28.22 40.4 25.85 43.92 24.5C47.4986 23.3094 51.223 22.6129 54.99 22.43C49.9817 25.0179 45.2848 28.1683 40.99 31.82C46.3587 30.8341 51.5366 29.0012 56.33 26.39C53.5 29.99 51.72 33.64 48.9 37.24Z" fill="#64332C"/>
<path d="M89.13 28.5C85.82 27.24 82.38 25.95 78.84 26.13C75.3 26.31 71.59 28.35 70.62 31.76C76.9814 32.887 83.5364 31.7326 89.13 28.5Z" fill="#64332C"/>
<path d="M41.89 20.48C40.805 20.7408 39.8123 21.2942 39.02 22.08C38.7765 22.3042 38.5964 22.5887 38.4981 22.9047C38.3998 23.2208 38.3866 23.5572 38.46 23.88C38.5425 24.0745 38.6682 24.2476 38.8276 24.3862C38.987 24.5249 39.176 24.6253 39.38 24.68C39.7901 24.785 40.22 24.785 40.63 24.68C41.271 24.5439 41.8733 24.2657 42.3925 23.8659C42.9117 23.4661 43.3346 22.9549 43.63 22.37C43.81 20.63 42.94 20.27 41.89 20.48Z" fill="#854F40"/>
<path d="M47.4 21.44C47.9 21.23 48.4 20.73 48.23 20.21C48.06 19.69 47.41 19.57 46.88 19.58C46.35 19.59 45.52 19.79 45.35 20.38C45.2995 20.6167 45.3365 20.8637 45.4541 21.0751C45.5718 21.2866 45.7622 21.4482 45.99 21.53C46.2187 21.612 46.4618 21.6464 46.7043 21.6309C46.9468 21.6154 47.1836 21.5505 47.4 21.44Z" fill="#854F40"/>
<path d="M65.8 64.13C67.427 65.9098 69.4771 67.25 71.7602 68.0262C74.0432 68.8023 76.4853 68.9894 78.86 68.57C78.6117 69.4798 78.1797 70.3291 77.5908 71.0656C77.0019 71.8022 76.2684 72.4104 75.4356 72.8528C74.6027 73.2952 73.6882 73.5624 72.7482 73.6381C71.8081 73.7137 70.8626 73.5961 69.9697 73.2926C69.0769 72.9891 68.2556 72.506 67.5565 71.8731C66.8573 71.2402 66.2952 70.4709 65.9045 69.6125C65.5139 68.7542 65.3031 67.8249 65.2852 66.8821C65.2672 65.9392 65.4424 65.0026 65.8 64.13Z" fill="#F2E6D7"/>
<path d="M74.71 65.78C74.71 65.48 75.26 65.19 75.49 64.53C75.5539 64.3709 75.5878 64.2014 75.59 64.03C75.5917 64 75.5917 63.97 75.59 63.94C75.59 63.94 75.59 63.75 75.59 63.79C75.574 63.6884 75.5506 63.5882 75.52 63.49C75.2978 62.9276 75.0091 62.3938 74.66 61.9C73.03 59.28 72.1 56.9 72.6 56.59C73.1 56.28 74.83 58.16 76.46 60.78C76.9523 61.4783 77.293 62.272 77.46 63.11C77.485 63.3326 77.485 63.5574 77.46 63.78C77.4674 63.8865 77.4674 63.9935 77.46 64.1C77.46 64.24 77.43 64.36 77.37 64.46C77.2438 64.8347 77.0354 65.1763 76.76 65.46C76.5773 65.6544 76.3575 65.8103 76.1137 65.9185C75.8698 66.0267 75.6067 66.085 75.34 66.09C74.9 66.07 74.72 65.93 74.71 65.78Z" fill="#E39073"/>
<path d="M54.76 86.48L53.33 83.37L69.24 82.7L68.03 86.33C68.03 86.33 62.96 89.57 54.76 86.48Z" fill="#D07E3D"/>
<path d="M54.76 86.48C54.76 86.48 50.3 82.48 47.42 85.95C47.42 85.95 48.76 91.14 54.76 86.48Z" fill="#464C31"/>
<path d="M67.99 86.33C68.6931 85.4278 69.6664 84.7742 70.7675 84.4648C71.8686 84.1553 73.0399 84.2062 74.11 84.61C74.11 84.61 73.33 89.68 67.99 86.33Z" fill="#464C31"/>
</svg>
