<svg width="106" height="196" viewBox="0 0 106 196" fill="none" xmlns="http://www.w3.org/2000/svg">
<g style="mix-blend-mode:multiply" opacity="0.2">
<path d="M91.35 190.87C91.35 193.66 71.35 195.87 46.65 195.87C21.95 195.87 1.95001 193.61 1.95001 190.87C1.95001 188.13 21.95 185.87 46.65 185.87C71.35 185.87 91.35 188.09 91.35 190.87Z" fill="#3F6EAC"/>
</g>
<path d="M101.23 76.02V72.65C102.272 72.9791 103.216 73.563 103.975 74.3487C104.735 75.1345 105.286 76.0973 105.58 77.15C104.277 76.3428 102.761 75.9489 101.23 76.02Z" fill="#28374B"/>
<path d="M100.43 71.12V67.76C101.471 68.089 102.413 68.6716 103.172 69.4554C103.932 70.2392 104.484 71.1996 104.78 72.25C103.477 71.4428 101.961 71.0489 100.43 71.12Z" fill="#28374B"/>
<path d="M30.23 96.6L19.41 150.06C19.41 150.06 53.01 156.89 78.41 150.06L65.86 97.6L30.23 96.6Z" fill="#CC612D"/>
<path d="M51.82 153.58L54.72 187.98L68.98 187.31L66.24 157.01L51.82 153.58Z" fill="#EAAD82"/>
<path d="M66.23 157.01L51.82 153.6L54.72 188L68.61 187.35C68.72 187.12 68.83 186.89 68.93 186.66L67.23 167.95C64.36 169.08 60.09 170.36 57.88 168.35C55.67 166.34 56.8 164.35 57.23 162.07C60.4241 161.887 63.6283 162.126 66.76 162.78L66.23 157.01Z" fill="#E39073"/>
<path d="M66.49 159.77L66.24 157.01L51.82 153.6L52.5 159.33C56.23 160.23 63.33 160.9 66.49 159.77Z" fill="#CC715D"/>
<path d="M45.68 153.58L42.78 187.98L28.52 187.31L31.27 157.01L45.68 153.58Z" fill="#EAAD82"/>
<path d="M30.74 162.78C33.8719 162.127 37.076 161.888 40.27 162.07C40.7 164.33 42.18 167.88 39.92 169.94C37.66 172 33.08 169.43 30.21 168.3L28.58 186.6C28.68 186.83 28.78 187.06 28.9 187.29L42.79 187.94L45.69 153.54L31.23 157.01L30.74 162.78Z" fill="#E39073"/>
<path d="M31.02 159.77L31.27 157.01L45.69 153.6L45 159.33C41.32 160.23 34.23 160.9 31.02 159.77Z" fill="#CC715D"/>
<path d="M46.55 126.01L68.9601 131.6L70.9601 155.8C70.9601 155.8 64.01 161.85 50.14 158.15L49.6201 144.15L46.55 126.01Z" fill="#304D78"/>
<path d="M50.95 126.01L28.37 131.17L26.5 155.76C26.5 155.76 33.44 161.81 47.32 158.11L49.91 144.11L50.95 126.01Z" fill="#304D78"/>
<path d="M66.86 154.28C69.04 148.9 69.13 141.77 67.66 136.15C60.48 135.92 53.55 136.64 46.55 135.04V126.04L68.9601 131.6L70.9601 155.8C70.9601 155.8 66.25 159.89 56.86 159.28C61.59 157.85 67.91 153.91 66.86 154.28Z" fill="#28374B"/>
<path d="M30.65 154.28C28.4711 148.484 28.0878 142.167 29.55 136.15C36.73 135.92 59.9 136.6 67.66 136.15L50.95 126.01L28.37 131.17L26.5 155.76C26.5 155.76 31.21 159.85 40.6 159.24C35.92 157.85 29.6 153.91 30.65 154.28Z" fill="#28374B"/>
<path d="M47.86 144.15C49.44 142.23 51 142.49 52.58 140.58C52.06 142.03 51.58 143.49 51.03 144.94L55.5 143.2L52.03 146.14L53.26 146.49C53.14 149.63 53.0233 152.77 52.91 155.91C57.3676 155.849 61.7562 154.8 65.76 152.84L64.6 141.99C64.39 143.49 62.08 143.79 60.98 142.74C59.88 141.69 59.68 140.04 59.56 138.53C59.48 137.63 52.23 137.3 51.39 137.28C48.53 137.23 45.75 138.03 42.83 137.83C43.223 138.572 43.8337 139.176 44.58 139.56C43.41 138.96 40.82 139.31 39.5 139.26C37.6959 139.125 35.8842 139.125 34.08 139.26C35.55 145.26 37.08 151.58 39.98 157.17C40.9744 157.32 41.9856 157.32 42.98 157.17C43.4767 157.098 43.9523 156.921 44.3748 156.65C44.7974 156.379 45.1572 156.021 45.43 155.6C45.6687 155.149 45.8341 154.663 45.92 154.16C46.55 151.48 47.86 144.15 47.86 144.15Z" fill="#395780"/>
<path d="M41 76.14L42 88.49C42 88.49 49.33 91.25 53.16 88.62L52.16 75.48L41 76.14Z" fill="#E39073"/>
<path d="M52.81 84.29L52.41 79.19C50.4581 77.8584 48.3737 76.7325 46.19 75.83L41 76.14L41.18 78.33C44.1664 81.7122 48.3205 83.841 52.81 84.29Z" fill="#CC715D"/>
<path d="M92.51 70.72C92.4209 71.7982 92.2673 72.8701 92.05 73.93L101.63 72.93C101.74 68.02 101.83 63.26 101.38 61.34C101.218 60.9196 100.958 60.5441 100.622 60.2444C100.285 59.9448 99.8821 59.7298 99.4459 59.6173C99.0097 59.5049 98.5529 59.4981 98.1136 59.5977C97.6743 59.6973 97.2651 59.9004 96.92 60.19C96.2831 59.6088 95.4424 59.3027 94.5809 59.3383C93.7194 59.3739 92.9068 59.7483 92.32 60.38C91.45 59.51 89.84 59.94 89.11 60.94C88.4452 62.0797 88.1419 63.3942 88.24 64.71C87.7522 64.8264 87.3207 65.1105 87.021 65.5125C86.7212 65.9146 86.5722 66.4092 86.6 66.91C86.69 67.91 91.51 70.69 92.51 70.72Z" fill="#28374B"/>
<path d="M101.52 81.6C101.52 79.37 101.52 76.7 101.6 74.01H91.84C91.31 76.65 90.54 80.25 89.71 85.75L78 85.82L81.38 99.82C81.38 99.82 93.95 101.55 98.65 94.87C100.518 91.9185 101.523 88.5029 101.55 85.01C101.6 83.75 101.58 82.6 101.52 81.6Z" fill="#EAAD82"/>
<path d="M85.23 85.77C85.23 90.5 85.04 95.16 84.79 99.89C82.79 99.89 81.41 99.69 81.41 99.69L78.03 85.69L85.23 85.77Z" fill="#E39073"/>
<path d="M96.69 62.72C96.5888 63.0244 96.422 63.3029 96.2013 63.5357C95.9806 63.7686 95.7114 63.9501 95.4128 64.0674C95.1142 64.1847 94.7935 64.235 94.4734 64.2147C94.1532 64.1945 93.8414 64.1041 93.56 63.95C93.81 64.21 92.07 65.38 91.75 65.54C91.5842 65.6048 91.4041 65.6241 91.2283 65.5959C91.0525 65.5678 90.8873 65.4933 90.75 65.38C90.473 65.1447 90.2424 64.8599 90.07 64.54C89.9121 65.5524 90.0295 66.5886 90.41 67.54C92.01 66.54 93.98 66.82 96.1 69.05C95.1 67.98 100.03 65.53 100.56 65.49C98.82 65.6 96.78 64.44 96.69 62.72Z" fill="#212E34"/>
<path d="M56.89 85.39C70.76 85.27 83.68 83.99 83.68 83.99L81.49 104.22L59.6 100.73L56.89 85.39Z" fill="#28374B"/>
<path d="M79.57 86.72C74.49 87.4 68.94 88.57 64.14 88.18C69.41 94.41 79.38 98.03 79.57 86.72Z" fill="#304D78"/>
<path d="M33.43 85.34L59.3 85.54C59.54 85.64 64.54 110.78 68.96 131.54C68.96 131.54 55.3 137.26 28.52 131.93L33.43 85.34Z" fill="#304D78"/>
<path d="M58.5 126.36C53.78 127.48 45.37 127.72 42.5 123.36C39.41 118.59 39.32 115.12 39.73 107.92C45.38 112.4 55.54 116.32 62.6 116.8C60.23 113.99 55.96 111.99 53.07 109.38C49.07 105.75 43.7701 101.48 41.1801 96.64C44.5901 97.55 47.96 98.88 51.7 99.39C54.7 99.79 59.78 101.39 63.06 101.33C62.82 99.96 62.6301 95.88 62.4001 94.69C60.9201 89.69 60.4 86.3 59.53 85.69C59.458 85.6401 59.3762 85.606 59.29 85.59C58.04 85.42 53.15 85.31 48.04 85.23C45.84 85.23 43.61 85.17 41.61 85.15C37.61 85.15 33.42 85.39 33.42 85.39L29.23 126.6L28.55 131.94C55.32 137.27 68.97 131.55 68.97 131.55C68.36 128.65 67.7801 125.68 67.2401 122.7C64.5056 124.31 61.5655 125.541 58.5 126.36Z" fill="#28374B"/>
<path d="M71.63 28.92C71.81 29.32 81.9 49.92 79.34 63.24C76.78 76.56 50.75 85.9 36.34 77.02C21.93 68.14 19.14 45.12 19.14 45.12L29.23 25.45C29.23 25.45 58.8 18.6 59.23 18.9C59.66 19.2 71.63 28.92 71.63 28.92Z" fill="#EAAD82"/>
<path d="M72.91 31.72C72.17 30.03 71.67 29 71.63 28.92C71.59 28.84 59.7 19.21 59.25 18.92C58.8 18.63 29.25 25.47 29.25 25.47L24.6201 34.47C24.0151 38.9644 24.0758 43.5233 24.8001 48L33.28 59C35.2456 57.0996 36.6488 54.6937 37.3351 52.0472C38.0214 49.4007 37.9643 46.6161 37.1701 44C39.5856 44.3205 42.0371 44.2495 44.4301 43.79C42.1026 43.1853 39.9486 42.045 38.1401 40.46C50.1101 43.36 63.23 39.3 72.91 31.72Z" fill="#E39073"/>
<path d="M73.0801 5.6C72.892 7.00475 72.4101 8.35412 71.6657 9.56021C70.9214 10.7663 69.9314 11.8021 68.76 12.6C69.4362 11.8399 69.9386 10.9416 70.2322 9.96753C70.5258 8.99348 70.6036 7.96715 70.4601 6.96C69.243 9.20656 67.2957 10.9705 64.94 11.96C64.6007 11.1028 64.44 10.1853 64.4678 9.26375C64.4956 8.34222 64.7113 7.43608 65.1018 6.60089C65.4922 5.7657 66.0491 5.01905 66.7384 4.40674C67.4276 3.79442 68.2347 3.32934 69.1101 3.04C67.0327 2.78983 64.9293 3.19755 63.0959 4.20574C61.2625 5.21393 59.7915 6.77181 58.8901 8.66C58.6933 7.29707 58.8379 5.90661 59.3108 4.61333C59.7838 3.32005 60.5704 2.16439 61.6 1.25C57.45 1.04 53.6001 0.979997 49.7001 2.61C46.7001 3.86 42.3001 6.46 40.9201 9.61C42.7159 5.55366 45.7559 2.17397 49.6 -0.0400009C46.49 0.959999 43.3201 2.04 40.7001 3.96C38.0801 5.88 36.0501 8.96 36.1801 12.24C31.4338 11.5682 26.5944 12.2552 22.2228 14.2216C17.8511 16.188 14.1263 19.3531 11.4801 23.35C10.4402 24.798 9.64312 26.4057 9.12007 28.11C8.99685 28.9994 8.76163 29.8696 8.42005 30.7C7.54005 32.21 6.32005 33.38 5.60005 35.06C4.27005 38.17 4.42004 41.06 4.47004 44.34C4.47004 44.34 4.37006 37.94 8.02006 34C8.02006 34 3.23004 41.71 9.09004 52.38C14.95 63.05 21.57 63.6 21.57 63.6L30.4001 62.17C30.4001 62.17 40.17 57.45 35.09 43.39C37.1485 43.8166 39.2815 43.7138 41.2894 43.0912C43.2972 42.4685 45.1142 41.3464 46.57 39.83C42.83 40.7282 38.8937 40.2932 35.44 38.6C44.11 39.77 52.95 38.26 61.31 35.71C64.6313 34.8692 67.7632 33.4068 70.54 31.4C72.3694 29.8812 73.8679 28.0035 74.9428 25.8827C76.0178 23.762 76.6465 21.4433 76.79 19.07C77.044 14.2968 75.7421 9.57006 73.0801 5.6Z" fill="#CC612D"/>
<path d="M63.07 66.68C61.4427 66.4977 59.8735 65.9676 58.4691 65.1256C57.0646 64.2837 55.8576 63.1495 54.93 61.8C54.5152 62.334 54.2183 62.9499 54.0591 63.6071C53.8999 64.2643 53.8819 64.9478 54.0063 65.6124C54.1308 66.2771 54.3949 66.9078 54.7811 67.4628C55.1673 68.0178 55.6669 68.4846 56.2469 68.8323C56.8268 69.18 57.474 69.4007 58.1455 69.4798C58.8171 69.5589 59.4978 69.4946 60.1427 69.2912C60.7875 69.0878 61.3819 68.7498 61.8865 68.2997C62.3912 67.8496 62.7945 67.2975 63.07 66.68Z" fill="#D7514C"/>
<path d="M43.04 46.05C42.34 44.79 49.87 41.5 51.1 43.44C52.33 45.38 43.86 47.52 43.04 46.05Z" fill="#41283D"/>
<path d="M62.23 41.06C62.23 39.62 70.4 40.34 70.55 42.63C70.7 44.92 62.23 42.74 62.23 41.06Z" fill="#41283D"/>
<path d="M46.76 66.19C46.8772 67.3854 46.6371 68.5886 46.0702 69.6475C45.5032 70.7064 44.6349 71.5733 43.5751 72.1384C42.5152 72.7036 41.3115 72.9416 40.1164 72.8223C38.9212 72.7031 37.7883 72.232 36.861 71.4686C35.9337 70.7052 35.2537 69.6838 34.9072 68.5338C34.5606 67.3838 34.563 66.1568 34.9141 65.0081C35.2651 63.8595 35.9491 62.8408 36.8794 62.081C37.8096 61.3213 38.9444 60.8546 40.14 60.74C40.9326 60.6627 41.7327 60.7425 42.4944 60.9746C43.2562 61.2067 43.9648 61.5867 44.5796 62.0929C45.1944 62.5991 45.7034 63.2214 46.0776 63.9244C46.4517 64.6275 46.6836 65.3973 46.76 66.19Z" fill="#E39073"/>
<path d="M79.34 63.24C79.7997 60.5985 79.8872 57.9057 79.6 55.24C78.608 55.1288 77.6038 55.2399 76.6602 55.5654C75.7165 55.8908 74.8573 56.4224 74.1448 57.1215C73.4323 57.8206 72.8845 58.6696 72.5412 59.6068C72.1978 60.5441 72.0676 61.5461 72.16 62.54C72.2946 63.9085 72.8464 65.2025 73.7407 66.2471C74.635 67.2916 75.8286 68.0362 77.16 68.38C78.2338 66.8356 78.9761 65.0855 79.34 63.24Z" fill="#E39073"/>
<path d="M50.69 51.84C51.0566 52.3437 51.2454 52.955 51.2268 53.5777C51.2081 54.2005 50.983 54.7993 50.5868 55.2802C50.1907 55.761 49.646 56.0966 49.0384 56.2341C48.4307 56.3717 47.7946 56.3034 47.2301 56.04C46.7978 55.8668 46.4306 55.5625 46.1801 55.17C45.8135 54.6663 45.6247 54.055 45.6434 53.4323C45.662 52.8095 45.8871 52.2107 46.2833 51.7298C46.6794 51.249 47.2241 50.9134 47.8317 50.7759C48.4393 50.6383 49.0755 50.7066 49.6401 50.97C50.0723 51.1433 50.4395 51.4475 50.69 51.84Z" fill="#41283D"/>
<path d="M61.45 51.46C61.4136 52.0834 61.5859 52.7012 61.9397 53.2158C62.2935 53.7304 62.8087 54.1125 63.4038 54.3017C63.999 54.4909 64.6402 54.4764 65.2262 54.2606C65.8122 54.0448 66.3097 53.64 66.64 53.11C66.9031 52.7384 67.0462 52.2953 67.05 51.84C67.0816 51.2175 66.9061 50.602 66.5508 50.0898C66.1956 49.5776 65.6807 49.1975 65.0865 49.0089C64.4924 48.8204 63.8525 48.8341 63.2669 49.0477C62.6813 49.2614 62.183 49.6631 61.85 50.19C61.5898 50.5624 61.4502 51.0057 61.45 51.46Z" fill="#41283D"/>
<path d="M9.92001 30.69C9.92001 30.69 0.77 22.1 0 35.83C0 35.83 2.24003 26.47 9.37003 32.48L10.31 30.65" fill="#CC612D"/>
<path d="M31.49 42.83C30.2031 40.5563 28.3318 38.6678 26.07 37.36C25.0842 36.7608 24.0622 36.2231 23.01 35.75L23.07 35.83C24.51 38.01 26.59 40.25 27.61 42.64C26.37 41.73 25.74 40.25 24.22 39.48C22.8876 38.7209 21.448 38.168 19.95 37.84C20.13 41.64 21.45 46.6 24.45 49.2C19.7793 45.7871 16.3408 40.9521 14.6501 35.42C13.4295 37.1843 12.7675 39.2747 12.75 41.42C12.56 39.26 12.58 37.23 12.57 35.12C11.22 36.97 9.57003 40.22 9.94003 42.52C9.744 40.9169 9.80816 39.2926 10.13 37.71C10.3316 36.5659 10.6327 35.4416 11.03 34.35C10.2741 34.7341 9.61716 35.2878 9.11062 35.9678C8.60408 36.6478 8.26165 37.4357 8.11004 38.27C7.53004 40.7 7.32003 44.74 8.94003 46.87C12.09 51.02 19.2901 53.78 24.1201 53.87C26.1201 53.87 29.81 51.96 31.34 50.45C33.1 48.74 32.5 44.88 31.49 42.83Z" fill="#D07E3D"/>
<path d="M10.54 42.01C10.0982 42.4274 9.82733 42.9941 9.77998 43.6C9.77135 44.3948 9.93698 45.1818 10.2652 45.9057C10.5935 46.6296 11.0764 47.2728 11.68 47.79C13.02 48.79 14.13 48.09 14.38 46.5C14.443 45.6807 14.3272 44.8575 14.0405 44.0874C13.7539 43.3173 13.3033 42.6187 12.72 42.04C12.43 41.7559 12.0419 41.5943 11.636 41.5887C11.2301 41.5832 10.8377 41.734 10.54 42.01Z" fill="#DCA65C"/>
<path d="M29.39 61.25C25.16 58.74 16.39 56.92 15.07 62C13.75 67.08 22.07 79.62 29.68 79.45C37.29 79.28 36.29 72.12 35.05 68.35C34.0456 65.3976 32.0443 62.8871 29.39 61.25Z" fill="#EAAD82"/>
<path d="M18.4301 63.48C22.5401 62.3 29.3 65.56 30.63 68.85C31.96 72.14 32.63 76.85 28.44 75.37C24.25 73.89 20.44 68.3 23.59 67.58C24.4894 67.3666 25.4236 67.3454 26.3318 67.5177C27.2399 67.69 28.1014 68.052 28.86 68.58C28.86 68.58 25.81 65.18 23.08 64.38C21.5678 63.9102 20.0084 63.6084 18.4301 63.48Z" fill="#E39073"/>
<path d="M29.63 59.43C31.1284 57.0217 31.9729 54.2643 32.08 51.43C31.2011 53.7653 29.6533 55.7897 27.63 57.25C29.4307 54.0538 30.4036 50.4581 30.46 46.79C30.85 47.51 31.24 50.79 30.67 51.29C32.1592 49.9038 33.0729 48.0084 33.23 45.98C34.11 48.98 34.66 52.87 33.11 55.73C32.23 57.3 30.48 58.08 29.63 59.43Z" fill="#D07E3D"/>
<path d="M27.4 166.96V183.4C27.4 183.4 16.71 182.87 15.85 190.66H43.65L44.57 175.11L27.4 166.96Z" fill="#A23127"/>
<path d="M27.4 166.96V183.4C27.4 183.4 16.71 182.87 15.85 190.66H43.65L44.57 175.11L27.4 166.96Z" fill="#212E34"/>
<path d="M69.3 166.96V183.4C69.3 183.4 79.99 182.87 80.85 190.66H53.05L52.13 175.11L69.3 166.96Z" fill="#212E34"/>
<path d="M23.53 185.97C22.42 185.69 19.95 185.57 19.19 186.97C19.0919 187.138 19.0288 187.324 19.0044 187.516C18.98 187.709 18.9949 187.905 19.0482 188.092C19.1014 188.278 19.192 188.453 19.3143 188.604C19.4366 188.755 19.5882 188.879 19.76 188.97C20.1293 189.117 20.5261 189.183 20.9232 189.162C21.3203 189.142 21.7081 189.035 22.06 188.85C23.23 188.29 25.69 186.5 23.53 185.97Z" fill="#395780"/>
<path d="M73.17 185.97C74.28 185.69 76.75 185.57 77.51 186.97C77.6067 187.138 77.6687 187.324 77.6923 187.516C77.7159 187.709 77.7007 187.904 77.6476 188.09C77.5944 188.277 77.5044 188.451 77.3829 188.602C77.2613 188.753 77.1107 188.878 76.94 188.97C76.5707 189.117 76.1739 189.183 75.7768 189.162C75.3798 189.142 74.9919 189.035 74.64 188.85C73.5 188.29 71.01 186.5 73.17 185.97Z" fill="#395780"/>
<path d="M17.28 124.35L25.44 106.85L24.64 99.02C24.64 99.02 17.91 97.81 12.5 106.24C9.75 110.53 8.79 117.05 8.5 122.41C11.47 122.89 14.38 123.6 17.28 124.35Z" fill="#EAAD82"/>
<path d="M14.8301 129.6L16.8301 125.33C14.0601 124.64 11.3001 123.95 8.49006 123.48C8.38439 126.201 8.43447 128.925 8.64005 131.64C8.64005 131.64 4.80004 137.13 6.38004 138.52C7.96004 139.91 10.38 135.69 10.38 135.69C10.38 135.69 7.99004 140.93 10.28 141.35C12.57 141.77 12.9301 136.41 12.9301 136.41C12.9301 136.41 12.49 141.65 14.75 141.31C17.01 140.97 14.8301 133.22 14.8301 133.22C14.8301 133.22 19.51 134.6 19.75 132.78C19.99 130.96 14.8301 129.6 14.8301 129.6Z" fill="#28374B"/>
<path d="M23.91 110.14L25.44 106.85L24.64 99.02C24.64 99.02 20.01 98.19 15.34 102.72C18.0077 105.404 20.8723 107.884 23.91 110.14Z" fill="#E39073"/>
<path d="M39.78 92.75C35.01 98.57 26.08 111.11 26.08 111.11C26.08 111.11 17.39 103.59 14.44 99.33C14.44 99.33 26.04 84.33 34.08 85.09L39.78 92.75Z" fill="#28374B"/>
<path d="M27.34 93.42C25.2719 96.831 22.8989 100.048 20.25 103.03C19.7154 101.923 19.4931 100.692 19.6069 99.4683C19.7208 98.2446 20.1666 97.0752 20.8962 96.0863C21.6258 95.0974 22.6115 94.3264 23.7471 93.8566C24.8827 93.3867 26.1249 93.2357 27.34 93.42Z" fill="#304D78"/>
<path d="M26.38 123.43L25.45 133.77C33.8342 135.004 42.2955 135.643 50.77 135.68C63.35 135.6 70.39 133.37 70.39 133.37L69.23 122.6C62.621 125.037 55.6609 126.388 48.62 126.6C37.96 126.69 26.38 123.43 26.38 123.43Z" fill="#D8A24E"/>
<path d="M43.5 125.43C43.5 125.43 51.04 125.99 54.36 125.27L54.94 136.07C54.94 136.07 46.94 136.29 43.33 136.15L43.5 125.43Z" fill="#E1CC53"/>
<path d="M44.26 135.56L54.26 135.41L53.88 125.79L44.2 126.17L44.26 135.56Z" fill="#D8A24E"/>
<path d="M45.7 127.31L45.75 134.77L52.76 134.49L52.7 126.86L45.7 127.31Z" fill="#D07E3D"/>
<path d="M54.87 126.47C54.87 126.47 65.23 124.6 68.75 123.21L68.93 124.06C68.93 124.06 65.29 124.9 61.93 125.73C59.6268 126.27 57.2872 126.641 54.93 126.84" fill="#E1CC53"/>
<path d="M43.23 126.92V127.32C43.23 127.32 29.13 126.1 26.56 125.27V123.79C29.5642 124.745 32.641 125.454 35.76 125.91C40.08 126.44 43.23 126.92 43.23 126.92Z" fill="#E1CC53"/>
<path d="M55.39 135.22L54.88 127.91L56.13 133.15L69.29 130L69.87 133C69.87 133 65.16 135 55.39 135.22Z" fill="#D07E3D"/>
<path d="M43.23 128.3L42.9301 135.11C37.2261 135.135 31.533 134.609 25.9301 133.54L26.58 128.1L27.2101 130.7L42.4901 132.43L43.23 128.3Z" fill="#D07E3D"/>
<path d="M8.63004 131.6L7.93005 115.75C7.93005 115.75 17.9301 118.43 19.6201 121.43L14.83 129.6L8.63004 131.6Z" fill="#28374B"/>
<path d="M92.51 70.72L88.48 81.45L102.48 81.65L101.65 63.82L98.98 70.41L92.51 70.72Z" fill="#28374B"/>
<path d="M40.72 85.8L39.86 82.62L54.93 82.09L53.94 86.45L40.72 85.8Z" fill="#28374B"/>
<path d="M9.35999 120.47C9.24999 121.59 9.13998 122.71 9.03998 123.82C8.02973 123.4 7.14024 122.735 6.45221 121.885C5.76417 121.034 5.29936 120.026 5.09998 118.95C6.32909 119.884 7.81715 120.415 9.35999 120.47Z" fill="#28374B"/>
<path d="M9.67004 125.41C9.56004 126.53 9.45004 127.65 9.35004 128.77C8.34179 128.347 7.45412 127.681 6.76651 126.831C6.0789 125.981 5.61282 124.974 5.41003 123.9C6.64253 124.827 8.12917 125.353 9.67004 125.41Z" fill="#28374B"/>
<path d="M41 85.09C41 85.09 39.2501 89.09 33.4301 85.34C33.4301 85.34 35.64 81.97 41 85.09Z" fill="#D07E3D"/>
<path d="M53.94 85.34C53.94 85.34 57.44 81.34 61.94 85.4C61.9 85.4 57.23 89.09 53.94 85.34Z" fill="#D07E3D"/>
<path d="M40.35 23.67C37.2705 28.1895 33.205 31.9507 28.46 34.67C33.73 34.78 38.94 35.79 44.19 36.22C49.44 36.65 54.89 36.48 59.72 34.36C63.6411 32.5237 66.8987 29.5203 69.0469 25.7611C71.195 22.0018 72.1287 17.6704 71.72 13.36C69.4835 17.365 66.0448 20.5658 61.89 22.51L65.89 13.85C63.0857 15.9762 59.7509 17.2907 56.25 17.65L59.23 12.11L52.87 15.68C52.9778 11.0321 54.313 6.49535 56.74 2.53C52.9284 3.4165 49.3863 5.2079 46.4133 7.75267C43.4404 10.2975 41.1239 13.5208 39.66 17.15C39.802 15.3095 40.3666 13.5266 41.31 11.94C39.6118 12.5726 38.1609 13.7326 37.17 15.25C36.3681 14.4373 35.3935 13.8157 34.3184 13.4313C33.2433 13.047 32.0954 12.9098 30.96 13.03C28.689 13.2769 26.4861 13.9558 24.47 15.03C21.0834 16.524 18.025 18.6717 15.47 21.35C14.1973 22.6937 13.207 24.2789 12.5578 26.012C11.9085 27.7451 11.6134 29.5909 11.69 31.44C13.0174 28.2843 15.2079 25.5669 18.01 23.6C16.1919 25.8185 15.0592 28.5184 14.75 31.37C16.2789 28.4964 18.4003 25.98 20.974 23.9872C23.5478 21.9945 26.5151 20.5707 29.68 19.81C27.2929 21.3501 25.2377 23.3519 23.6355 25.6977C22.0332 28.0436 20.9162 30.6862 20.35 33.47C22.144 30.5893 24.5768 28.1599 27.46 26.37C26.5532 28.9431 25.0764 31.278 23.14 33.2L40.35 23.67Z" fill="#D07E3D"/>
<path d="M27.83 18.74C28.7214 18.6262 29.5577 18.2463 30.23 17.65C30.4497 17.4413 30.6103 17.1782 30.6956 16.8874C30.7809 16.5966 30.7879 16.2885 30.7158 15.9941C30.6438 15.6998 30.4952 15.4297 30.2852 15.2112C30.0752 14.9928 29.8113 14.8337 29.52 14.75C27.85 14.06 24.85 15.62 23.52 16.58C22.87 17.05 22.23 17.88 22.63 18.58C22.94 19.12 23.63 19.19 24.31 19.17C25.4939 19.1328 26.672 18.9889 27.83 18.74Z" fill="#DCA65C"/>
<path d="M58.93 63.23C58.93 62.93 59.48 62.64 59.7 61.98C59.766 61.8212 59.8032 61.6519 59.81 61.48C59.8124 61.45 59.8124 61.4199 59.81 61.39C59.81 61.39 59.81 61.2 59.81 61.24C59.7962 61.138 59.7727 61.0376 59.74 60.94C59.5096 60.3814 59.2214 59.8485 58.88 59.35C57.24 56.73 56.32 54.35 56.82 54.04C57.32 53.73 59.04 55.6 60.68 58.23C61.1723 58.9283 61.513 59.722 61.68 60.56C61.705 60.7826 61.705 61.0074 61.68 61.23C61.6874 61.3365 61.6874 61.4435 61.68 61.55C61.6567 61.6693 61.6232 61.7864 61.58 61.9C61.4599 62.2752 61.2545 62.6175 60.98 62.9C60.7981 63.0962 60.5787 63.254 60.3348 63.3639C60.0909 63.4738 59.8274 63.5337 59.56 63.54C59.12 63.51 58.94 63.36 58.93 63.23Z" fill="#E39073"/>
</svg>
