<svg width="120" height="192" viewBox="0 0 120 192" fill="none" xmlns="http://www.w3.org/2000/svg">
<g style="mix-blend-mode:multiply" opacity="0.2">
<path d="M103.15 185.93C103.15 189.14 80.06 191.75 51.57 191.75C23.08 191.75 0 189.14 0 185.93C0 182.72 23.09 180.11 51.57 180.11C80.05 180.11 103.15 182.71 103.15 185.93Z" fill="#3F6EAC"/>
</g>
<path d="M88.76 102.32C90.8338 107.021 94.1192 111.086 98.28 114.1C96.0777 110.325 94.1687 106.387 92.57 102.32C95.1927 106.9 98.7049 110.908 102.9 114.11C105.2 112.777 107.467 111.343 109.7 109.81C100.3 99.61 101.58 83.37 103.78 70.55C105.56 60.14 109.68 49.64 109.7 39.19C109.561 31.0781 106.87 23.216 102.01 16.72C102.13 21.13 102.24 26.6 99.13 29.63C98.3837 30.4638 97.4032 31.0531 96.3167 31.3207C95.2301 31.5883 94.0882 31.5219 93.04 31.13C93.82 36.58 84.31 33.36 82.31 32.25C70.51 25.69 58.14 26.46 45.39 29.81C41.7 30.81 36.25 38.44 35.25 34.81C33.11 26.96 30.8 29.49 30.47 36.34C29.93 47.69 32.76 70.99 31.91 82.34C31.06 93.69 26.91 105.56 17.42 111.87C18.3624 112.752 19.3648 113.567 20.42 114.31C24.7635 111.762 28.6866 108.558 32.05 104.81C30.3278 109.197 27.6653 113.153 24.25 116.4L24.1 116.55C29.74 119.5 36.27 120.97 42.62 122.06C53.91 123.98 65.45 125.06 76.8 123.64C83.4372 122.724 89.8852 120.752 95.9 117.8C92.6363 113.095 90.2199 107.857 88.76 102.32Z" fill="#451F32"/>
<path d="M55.01 128.84C55.01 128.84 51.01 126.34 52.93 124.37C54.85 122.4 55.58 125.78 55.58 125.78C55.58 125.78 57.04 123 58.58 125.04C60.12 127.08 55.01 128.84 55.01 128.84Z" fill="#F2E6D7"/>
<path d="M73.63 89.93L58.85 90.12C57.0435 89.9964 55.2335 90.3049 53.57 91.02C51.92 91.89 49.17 89.07 48.21 90.57C40.62 102.43 32.79 117.57 21.66 126.8C43.24 140.99 71.82 145.8 97.45 139.48C92.1767 124.653 86.91 109.82 81.65 94.98C81.2718 93.4678 80.4457 92.1049 79.28 91.07C77.75 89.93 75.6 89.91 73.63 89.93Z" fill="#CED2D6"/>
<path d="M89.09 42.51C93.42 41.73 94.96 41.6 95.46 45.06C95.46 45.06 97.74 43.26 97.52 47.42C97.3 51.58 88.86 60.59 86.52 59.13C84.18 57.67 83.34 50.81 83.52 50.59C83.7 50.37 86.82 45.3 87.04 45.21C87.778 44.3529 88.4627 43.4512 89.09 42.51Z" fill="#49789E"/>
<path d="M90.96 44.14C91.3176 43.8567 91.755 43.6928 92.2107 43.6713C92.6664 43.6498 93.1173 43.7717 93.5 44.02C94.2046 44.7342 94.6151 45.6873 94.65 46.69C95.18 46.35 95.94 46.06 96.27 46.69C96.6 47.32 95.86 48.62 95.5 49.22C95.154 49.8193 94.7768 50.4001 94.37 50.96C93.57 49.692 92.337 48.7575 90.9 48.33C91.1447 46.9456 91.165 45.5308 90.96 44.14Z" fill="#D7514C"/>
<path d="M68.37 76.84L67.56 82.59C67.56 82.59 65.18 83.66 60.42 80.96L60.14 75.21L68.37 76.84Z" fill="#E39073"/>
<path d="M95.47 57.1C91.18 56.3 84.65 60.27 83.62 63.74C82.59 67.21 82.38 72.02 86.48 70.14C90.58 68.26 93.88 62.14 90.64 61.77C89.7072 61.6389 88.7572 61.7065 87.8524 61.9685C86.9476 62.2304 86.1084 62.6808 85.39 63.29C85.39 63.29 88.16 59.55 90.84 58.47C92.3281 57.8442 93.8809 57.3847 95.47 57.1Z" fill="#E39073"/>
<path d="M87.49 72.18C88.05 73.46 86.49 75.46 86.21 76.78C85.9399 77.9985 85.9399 79.2615 86.21 80.48C84.53 79.89 83.15 77.62 82.53 76C82.2307 76.4773 81.8596 76.9056 81.43 77.27C80.8646 76.5244 80.3818 75.7197 79.99 74.87C78.1683 76.6126 75.7866 77.6511 73.27 77.8C73.94 74.94 71.07 73.25 71.41 70.38C72.07 64.97 81.24 66.09 84.41 68.38C85.56 69.22 87.18 70.61 87.49 72.18Z" fill="#451F32"/>
<path d="M38.14 27.26C38 27.68 29.78 49.54 33.67 62.82C37.56 76.1 64.9 83.03 78.6 72.58C92.3 62.13 92.92 38.58 92.92 38.58L80.76 19.58C80.76 19.58 50.13 15.52 49.71 15.88C49.29 16.24 38.14 27.26 38.14 27.26Z" fill="#EAAD82"/>
<path d="M56.75 60.49C54.6 63.28 51.2 64.78 48.49 64.36C48.49 64.36 51.31 68.29 55.43 66.68C59.39 65.14 56.75 60.49 56.75 60.49Z" fill="#D7514C"/>
<path d="M34.26 40.8C35.2506 36.2053 36.5468 31.682 38.14 27.26C38.14 27.26 49.29 16.26 49.71 15.89C50.13 15.52 78.14 19.25 80.59 19.57L80.84 19.72L89.13 32.65C89.36 37.09 87.97 41.28 87.99 46.14L80.99 56.72C75.44 56.29 72.18 51.72 70.61 46.77C70.38 46.02 69.78 43.29 69.78 43.29C69.78 43.29 48.15 43.29 34.61 40.85L34.26 40.8Z" fill="#E39073"/>
<path d="M67.01 62.63C67.01 63.8523 67.3725 65.0471 68.0515 66.0634C68.7306 67.0797 69.6958 67.8718 70.825 68.3396C71.9543 68.8073 73.1969 68.9297 74.3957 68.6913C75.5945 68.4528 76.6956 67.8642 77.5599 66.9999C78.4242 66.1356 79.0128 65.0345 79.2513 63.8357C79.4897 62.6369 79.3673 61.3943 78.8996 60.265C78.4318 59.1358 77.6397 58.1706 76.6234 57.4915C75.6071 56.8125 74.4123 56.45 73.19 56.45C72.3781 56.4487 71.5739 56.6077 70.8235 56.9178C70.0731 57.2279 69.3913 57.683 68.8171 58.2571C68.243 58.8313 67.7878 59.5131 67.4777 60.2635C67.1676 61.0139 67.0087 61.8181 67.01 62.63Z" fill="#E39073"/>
<path d="M33.67 62.82C32.9637 60.1758 32.6272 57.4465 32.67 54.71C33.1407 54.6141 33.6196 54.5638 34.1 54.56C35.7064 54.5527 37.2638 55.1126 38.4978 56.1412C39.7318 57.1697 40.5631 58.6008 40.8452 60.1823C41.1273 61.7637 40.8421 63.394 40.0399 64.7858C39.2376 66.1775 37.9699 67.2415 36.46 67.79C35.199 66.3422 34.2494 64.6505 33.67 62.82Z" fill="#E39073"/>
<path d="M39.51 14.61C47.09 0.969991 67.67 -4.38999 86.21 4.10001C104.75 12.59 108.84 28.44 108.98 38.88C109.12 49.32 106.07 55.98 100.32 62.37C94.57 68.76 92.01 75.37 97.18 73.65C97.18 73.65 94.42 77.73 92.38 72.48C92.1945 73.7514 92.3215 75.0488 92.75 76.26C92.75 76.26 90.57 75.6 90.23 73.71C90.23 73.71 89.76 77.82 91.54 79.52C91.54 79.52 84.03 80.79 84.65 71.89C85.1133 66.8172 83.8252 61.7387 81 57.5C81 57.5 71 54.04 73.43 35.86C75.86 17.68 39.51 14.61 39.51 14.61Z" fill="#552437"/>
<path d="M108.98 38.88C108.953 30.9536 106.511 23.2237 101.98 16.72C102.1 21.13 102.21 26.6 99.1 29.63C98.3537 30.4638 97.3732 31.0531 96.2867 31.3207C95.2001 31.5883 94.0581 31.5219 93.01 31.13C93.79 36.58 84.28 33.36 82.28 32.25C80.28 31.14 77.28 28.91 74.76 29.67C74.1633 29.871 73.6244 30.2142 73.19 30.67C73.5098 32.0151 73.6244 33.4007 73.53 34.78C73.53 35.12 73.48 35.47 73.44 35.78C73.0981 38.2577 72.9976 40.7628 73.14 43.26C73.14 43.7 73.21 44.12 73.25 44.52C74.44 55.13 81.01 57.42 81.01 57.42C81.01 57.42 81.25 57.73 81.61 58.32C81.6548 58.4064 81.7049 58.4898 81.76 58.57C82 58.9767 82.27 59.4967 82.57 60.13C82.68 60.37 82.79 60.63 82.91 60.91C83.03 61.19 83.08 61.33 83.17 61.55C83.35 62.03 83.53 62.55 83.69 63.09C83.966 63.9822 84.1864 64.8906 84.35 65.81C84.43 66.26 84.5 66.71 84.55 67.18C84.7298 68.7166 84.7667 70.2666 84.66 71.81C84.4396 73.6021 84.7895 75.4181 85.66 77L85.83 77.26C87.83 80.07 91.59 79.44 91.59 79.44C89.81 77.74 90.28 73.63 90.28 73.63C90.4529 74.2321 90.7742 74.7811 91.2145 75.2266C91.6548 75.6722 92.2 76 92.8 76.18C92.428 75.2262 92.2776 74.2004 92.36 73.18C92.3695 72.9189 92.3929 72.6586 92.43 72.4C94.43 77.65 97.23 73.57 97.23 73.57C94.65 74.44 94 73.22 94.71 70.98C95.42 68.74 97.5 65.48 100.37 62.29C103.526 58.9478 105.93 54.9686 107.42 50.62C107.745 49.6348 108.019 48.6335 108.24 47.62C108.829 44.7318 109.094 41.7869 109.03 38.84L108.98 38.88Z" fill="#451F32"/>
<path d="M84.13 55.91C88.13 52.91 96.93 50.25 98.73 55.27C100.53 60.29 93.38 73.82 85.62 74.39C77.86 74.96 78.21 67.61 79.1 63.67C79.8258 60.5782 81.604 57.8349 84.13 55.91Z" fill="#EAAD82"/>
<path d="M95.47 57.1C91.18 56.3 84.65 60.27 83.62 63.74C82.59 67.21 82.38 72.02 86.48 70.14C90.58 68.26 93.88 62.14 90.64 61.77C89.7072 61.6389 88.7572 61.7065 87.8524 61.9685C86.9476 62.2304 86.1084 62.6808 85.39 63.29C85.39 63.29 88.16 59.55 90.84 58.47C92.3281 57.8442 93.8809 57.3847 95.47 57.1Z" fill="#E39073"/>
<path d="M78.66 48.14C81.33 61.89 79.95 66.55 77.18 70.56C77.18 70.56 84.18 67.49 83.71 53.56C83.24 39.63 78.66 48.14 78.66 48.14Z" fill="#451F32"/>
<path d="M69 41.83C69.58 40.49 61.63 37.89 60.57 39.97C59.51 42.05 68.32 43.4 69 41.83Z" fill="#451F32"/>
<path d="M49.04 38.66C48.91 37.19 40.68 38.72 40.75 41.06C40.82 43.4 49.19 40.36 49.04 38.66Z" fill="#451F32"/>
<path d="M32.84 10.82C32.84 10.82 61.09 10.49 82.99 16.08C79.33 21.08 74.22 34.13 80.08 40.77C76.39 40.77 72.82 41.03 69.16 40.77C63.79 40.4 63.57 34.69 61.11 30.91C60.95 33.91 62.27 37.79 63.61 40.49C60.77 40.68 57.99 40.33 55.18 40.3C54.18 40.3 51.95 40.72 51.1 40.21C49.1 38.96 47.86 31.62 47.43 29.1C47.5549 32.9397 48.0167 36.761 48.81 40.52C46.06 37.87 45.31 34.07 43.9 30.52C43.698 33.6615 44.3184 36.8014 45.7 39.63C42.78 40.63 38.45 38.93 35.58 38.44C32.23 37.88 28.25 38.85 26.94 35.35C25.4 31.21 19.9 19.69 32.84 10.82Z" fill="#702D3F"/>
<path d="M96.45 12.47C93.36 7.98 85.73 4.85999 80.58 3.83999C75.43 2.81999 70.37 2.69998 66.51 6.54998C64.8692 8.26337 63.5454 10.2542 62.6 12.43C71.93 13.13 81.85 14.24 90.14 18.77C87.74 13.34 81.96 11.46 77.67 8.01001C83.48 8.01001 89.2 11.89 94.1 14.61C92.71 12.73 90.63 11.36 89.1 9.76001C91.35 10.12 96.45 12.47 96.45 12.47Z" fill="#702D3F"/>
<path d="M75.15 18.46C72.23 20.83 73.15 26.04 73 29.46C70.64 29.58 69.28 29.89 67.86 27.99C66.818 26.2724 66.0489 24.4035 65.58 22.45C65.1191 24.1087 64.9266 25.8305 65.01 27.55C63.91 25.8 63.21 23.48 61.77 21.94C60.84 22.77 60.6 24.27 60.3 25.48C58.17 23.93 58.1 22.9 55.17 23.38C54.17 23.54 52.92 24.28 51.89 24.1C50.65 23.88 49.51 22.45 48.37 21.86C47.345 21.2944 46.1781 21.0378 45.0104 21.1212C43.8427 21.2046 42.7242 21.6245 41.79 22.33C39.37 23.86 39.44 26.14 39.42 28.81C38.0599 27.1312 36.8738 25.3185 35.88 23.4C34.75 24.24 34.68 26.62 34.48 28.05C31.96 28.18 31.16 28.4 30.48 25.71C29.8426 23.5471 29.808 21.2511 30.38 19.07C31.0716 17.2576 32.2604 15.6771 33.81 14.51C35.88 12.97 36.97 13.37 39.4 13.77C39.5 15.44 39.09 17.56 39.68 19.08C40.2004 17.8237 40.9085 16.6538 41.78 15.61C42.59 16.8 42.7 18.47 44.13 18.88C45.98 19.41 48.8 17.72 51.04 18.55C52.62 19.13 53.75 21.16 55.53 21.05C57.15 20.94 57.93 18.99 58.92 17.96C59.6 18.59 59.61 19.78 59.69 20.79C60.31 18.63 61.4 16.39 63.59 15.44C63.5765 16.396 63.7674 17.3438 64.15 18.22C64.5723 17.498 65.1094 16.8495 65.74 16.3C66.99 17.63 67.68 19.3 68.8 20.73C68.8759 19.6805 69.2202 18.6681 69.8 17.79C71.5012 18.4497 73.3387 18.6798 75.15 18.46Z" fill="#552437"/>
<path d="M99.26 47.08C99.4242 47.9828 99.9335 48.7863 100.68 49.32C101.213 49.5864 101.815 49.6832 102.405 49.5974C102.995 49.5116 103.545 49.2473 103.98 48.84C104.838 48.001 105.488 46.9739 105.88 45.84C108.31 40.04 109.32 33.12 106.31 27.6C105 30.89 102.84 33.75 101.19 36.88C99.54 40.01 98.37 43.66 99.26 47.08Z" fill="#552437"/>
<path d="M75.59 150.59L76.43 156.25L86.25 159.03L89.79 164.93L86.39 170.61C86.39 170.61 66.7 170.83 64.21 165.07C62.4398 160.572 61.0679 155.928 60.11 151.19L75.59 150.59Z" fill="#EAAD82"/>
<path d="M43.05 149.09L22.91 175.45L13.1 165.69L30.98 142.6L43.05 149.09Z" fill="#EAAD82"/>
<path d="M75.59 150.59L76.43 156.25H76.6C75.6085 156.849 74.5516 157.332 73.45 157.69C73.98 161.15 78.68 160.79 81.36 160.89C84.04 160.99 85.28 160.37 85.82 158.89L86.25 159.01L89.79 164.91L86.39 170.59C86.39 170.59 66.7 170.81 64.21 165.05C62.4398 160.552 61.0679 155.908 60.11 151.17L75.59 150.59Z" fill="#E39073"/>
<path d="M27.58 147.03C30.2077 148.554 32.6163 150.428 34.74 152.6C33.86 154.73 31.74 158.82 29.08 159.06C26.42 159.3 24.65 155.46 23.21 152.68L13.5 165.21C13.5 165.47 13.4 165.72 13.36 165.98L22.91 175.48L43.06 149.12L30.99 142.63L27.58 147.03Z" fill="#E39073"/>
<path d="M29.36 144.71L30.99 142.6L43.06 149.09L40.34 152.65C37.2268 151.03 34.2909 149.089 31.58 146.86C30.7659 146.224 30.0217 145.503 29.36 144.71Z" fill="#CC715D"/>
<path d="M60.34 152.3C63.6213 151.568 66.9787 151.232 70.34 151.3L75.72 151.2L76.29 155.07C71.4311 156.707 66.2113 156.953 61.22 155.78C60.81 154.35 60.53 153.12 60.34 152.3Z" fill="#CC715D"/>
<path d="M79.03 151.83C70.57 159.21 40.34 152.65 27.52 140.83L42.44 120.23L77.23 128.17L79.03 151.83Z" fill="#803127"/>
<path d="M27.52 140.85C36.66 149.26 54.64 155 67.28 154.94C70.4775 153.375 73.4953 151.468 76.28 149.25L74.65 134.31C53.04 134.31 43.02 127.4 39.58 124.24L27.52 140.85Z" fill="#9E3127"/>
<path d="M22.14 73.47C20.78 71.69 19.62 70.22 19 69.22C19.83 68.74 22.25 65.49 21.88 64.61C21.6855 64.1649 21.3358 63.8059 20.896 63.5998C20.4562 63.3937 19.9564 63.3547 19.49 63.49C18.9728 62.332 18.1191 61.3564 17.04 60.69C15.97 60.17 14.4 60.54 14.04 61.69C13.2549 61.4149 12.3928 61.4626 11.6428 61.8225C10.8929 62.1825 10.3164 62.8254 10.04 63.61C9.62822 63.5145 9.19924 63.522 8.79107 63.6319C8.3829 63.7418 8.00814 63.9506 7.69999 64.24C7.35132 64.5207 7.08338 64.8889 6.92351 65.3071C6.76363 65.7252 6.71756 66.1783 6.78999 66.62C7.38999 68.84 10.07 74.47 12.61 79.52C16.19 78.37 19.07 75.74 22.14 73.47Z" fill="#9E3127"/>
<path d="M39.74 81.18L28.08 82.18C26.468 79.441 24.681 76.8088 22.73 74.3C19.59 76.56 16.73 79.25 13.13 80.51C13.81 81.87 14.48 83.17 15.13 84.33C15.5816 85.3079 16.0823 86.2625 16.63 87.19C18.2469 90.1236 20.6504 92.5479 23.57 94.19C30.57 97.71 42.13 93.82 42.13 93.82L39.74 81.18Z" fill="#EAAD82"/>
<path d="M31.03 95.64C34.7812 95.5455 38.5006 94.9262 42.08 93.8L39.74 81.18L30.62 82.18C30.13 86.58 30.72 91.14 31.03 95.64Z" fill="#CC715D"/>
<path d="M57.4 86.26C58.04 96.55 32.4 96.8 32.4 96.8L31.7 80.41L57.7 80.9C62.01 81.62 57.12 81.75 57.4 86.26Z" fill="#9E3127"/>
<path d="M11.43 65.65C11.6534 65.8621 11.9209 66.0222 12.2134 66.1188C12.5059 66.2155 12.8161 66.2463 13.1219 66.209C13.4277 66.1717 13.7214 66.0673 13.9821 65.9033C14.2428 65.7392 14.4641 65.5196 14.63 65.26C14.55 65.6 16.55 65.79 16.9 65.78C17.0725 65.7574 17.2361 65.6901 17.3746 65.5849C17.5132 65.4796 17.6219 65.3401 17.69 65.18C17.8166 64.8619 17.8811 64.5224 17.88 64.18C18.4608 64.9544 18.8265 65.8686 18.94 66.83C17.12 66.7 15.59 67.83 14.81 70.7C15.19 69.33 9.92999 69.7 9.45999 69.95C10.97 69.26 12.13 67.14 11.43 65.65Z" fill="#803127"/>
<path d="M27.44 87.6C25.22 84.24 23.08 80.74 20.19 77.91C19.1742 76.9296 18.0695 76.0457 16.89 75.27C16.7531 75.3471 16.6091 75.4107 16.46 75.46C14.6394 75.9078 12.7608 76.0731 10.89 75.95C12.3 78.86 13.84 81.88 15.08 84.28C15.5316 85.2579 16.0323 86.2125 16.58 87.14C18.1969 90.0736 20.6004 92.4979 23.52 94.14C25.8381 95.19 28.3665 95.6929 30.91 95.61C30.72 92.76 29.06 90.03 27.44 87.6Z" fill="#E39073"/>
<path d="M45.44 81.78C44.16 83.63 41.3 84.22 39.08 84.59C36.86 84.96 34.31 83.78 33.65 81.59C37.18 80.78 41.83 81.5 45.44 81.78Z" fill="#B94719"/>
<path d="M72.4 82.8C72.4 82.8 59.14 81.13 56.4 81.13C53.66 81.13 45.4 105.45 38.47 124.68C38.47 124.68 48.47 135.83 78.79 130.77L72.4 82.8Z" fill="#B94719"/>
<path d="M38.45 124.68C39.45 122.01 40.63 118.24 41.71 115.52C44.53 117.75 44.91 118.38 48.08 119.6C52.43 121.27 60.42 122.6 63.71 118.75C67.26 114.6 67.8 111.31 68.33 104.39C62.33 107.94 52.19 110.39 45.41 109.92C48.03 107.54 52.35 106.19 55.41 104.07C59.68 101.13 65.28 97.74 68.41 93.46C65.04 93.89 61.67 94.73 58.04 94.73C55.2012 94.7475 52.3646 94.5704 49.55 94.2C48.67 88.2 55.12 81.13 56.39 81.13C58.09 81.13 67.32 80.44 72.01 84.66C74.92 87.28 74.38 95.59 74.38 95.59L78.78 130.77C48.48 135.83 38.45 124.68 38.45 124.68Z" fill="#9E3127"/>
<path d="M104.44 73.93C105.8 72.15 106.95 70.69 107.57 69.68C106.74 69.21 104.32 65.96 104.7 65.07C104.894 64.6271 105.242 64.2696 105.68 64.0637C106.118 63.8578 106.615 63.8174 107.08 63.95C107.598 62.7919 108.456 61.8188 109.54 61.16C110.61 60.64 112.17 61.01 112.54 62.16C113.326 61.8881 114.189 61.9385 114.938 62.3001C115.687 62.6617 116.263 63.3052 116.54 64.09C116.952 63.9914 117.383 63.9965 117.793 64.1046C118.203 64.2128 118.58 64.4208 118.89 64.71C119.237 64.9918 119.503 65.3606 119.661 65.7786C119.819 66.1967 119.864 66.6491 119.79 67.09C119.2 69.31 116.51 74.94 113.97 80C110.38 78.83 107.5 76.2 104.44 73.93Z" fill="#9E3127"/>
<path d="M86.84 81.64L98.49 82.59C100.104 79.8525 101.891 77.2205 103.84 74.71C106.98 76.97 109.84 79.66 113.45 80.92C112.76 82.28 112.09 83.59 111.45 84.74C111 85.7189 110.5 86.6736 109.95 87.6C108.333 90.5336 105.93 92.9579 103.01 94.6C96.01 98.12 84.45 94.23 84.45 94.23L86.84 81.64Z" fill="#EAAD82"/>
<path d="M95.54 96.11C91.7888 96.0155 88.0694 95.3962 84.49 94.27L86.84 81.64L95.95 82.64C96.44 87.03 95.9 91.61 95.54 96.11Z" fill="#CC715D"/>
<path d="M115.14 66.11C114.917 66.3226 114.65 66.4833 114.358 66.5807C114.066 66.6782 113.756 66.7099 113.451 66.6736C113.145 66.6372 112.851 66.5338 112.59 66.3707C112.329 66.2076 112.107 65.9888 111.94 65.73C112.03 66.07 110.03 66.26 109.68 66.25C109.506 66.229 109.34 66.1625 109.2 66.0572C109.059 65.9519 108.949 65.8114 108.88 65.65C108.76 65.3299 108.696 64.9917 108.69 64.65C108.108 65.4235 107.742 66.3382 107.63 67.3C109.46 67.16 110.98 68.3 111.76 71.17C111.39 69.8 116.64 70.17 117.11 70.42C115.6 69.73 114.44 67.6 115.14 66.11Z" fill="#803127"/>
<path d="M99.13 88.03C101.35 84.68 103.49 81.18 106.38 78.35C107.399 77.3662 108.507 76.4791 109.69 75.7C109.821 75.7812 109.962 75.845 110.11 75.89C111.933 76.346 113.815 76.5147 115.69 76.39C114.27 79.29 112.69 82.31 111.49 84.71C111.04 85.6889 110.54 86.6436 109.99 87.57C108.373 90.5036 105.97 92.9279 103.05 94.57C100.73 95.6152 98.203 96.118 95.66 96.04C95.9 93.23 97.52 90.51 99.13 88.03Z" fill="#E39073"/>
<path d="M116.4 74.95L107.57 69.68L97.49 80.94C97.49 80.94 105.36 89.39 109.49 90.39L116.4 74.95Z" fill="#9E3127"/>
<path d="M107.55 70.8C108.988 71.4057 110.29 72.2931 111.38 73.41C109.904 75.2859 108.106 76.8841 106.07 78.13C105.354 78.6609 104.491 78.9577 103.6 78.98C103.21 78.9516 102.832 78.839 102.49 78.65L107.55 70.8Z" fill="#B94719"/>
<path d="M63.41 81.74C63.46 84.79 70.71 91.45 71.26 94.45C77.47 99.19 94.2 97.92 94.2 97.92L94.91 81.28L63.41 81.74Z" fill="#9E3127"/>
<path d="M51.61 128.39C61.98 130.33 73.81 129.03 77.42 128.54C78.02 128.46 77.42 127.89 77.3 127.3C77.3 127.3 74 95.82 74.37 95.59C74.37 95.59 74.68 97.64 74.8 98.39L78.61 129.73C78.6387 129.867 78.6383 130.009 78.6086 130.146C78.5789 130.284 78.5206 130.413 78.4376 130.526C78.3546 130.639 78.2487 130.734 78.1268 130.803C78.0049 130.873 77.8697 130.916 77.73 130.93C50.28 135.19 37.81 124.29 36.02 122.7C36.9 123.47 40.9 126.38 51.61 128.39Z" fill="#803127"/>
<path d="M77.9 84.17C78.8511 85.2528 80.077 86.0585 81.4482 86.5021C82.8194 86.9456 84.285 87.0106 85.69 86.69C88.5033 85.9912 91.0024 84.372 92.79 82.09L77.9 84.17Z" fill="#B94719"/>
<path d="M40.18 127.1C43.3778 129.965 47.0535 132.246 51.04 133.84C47.085 136.933 43.5042 140.477 40.37 144.4C45.28 142.4 49 138.07 54.01 136.4C59.53 134.56 65.53 136.27 71.08 137.99C71.76 141.4 72.44 144.93 71.61 148.31C70.78 151.69 67.99 154.84 64.51 154.89C62.41 150.417 60.3067 145.95 58.2 141.49C58.64 144.38 58.73 148.03 56.2 149.43C54.65 150.29 52.72 149.88 51.01 149.43C43.439 147.348 36.1338 144.399 29.24 140.64C32.5 135.48 36.72 131.14 40.18 127.1Z" fill="#B94719"/>
<path d="M81.12 122.57L80.47 132.93C71.3339 132.922 62.2092 132.287 53.16 131.03C40.73 129.03 36.16 125.78 36.16 125.78L38.9 115.3C44.2389 118.917 50.3037 121.323 56.67 122.35C67.18 124.03 81.12 122.57 81.12 122.57Z" fill="#D8A24E"/>
<path d="M61.9 121.96C61.9 121.96 54.37 121.37 51.18 120.16L48.99 130.75C48.99 130.75 56.83 132.17 60.45 132.58L61.9 121.96Z" fill="#E1CC53"/>
<path d="M59.6 131.85L49.74 130.19L51.56 120.74L61.08 122.57L59.6 131.85Z" fill="#D8A24E"/>
<path d="M59.78 123.21L58.5 131.24L51.01 129.78L52.32 121.58L59.78 123.21Z" fill="#D07E3D"/>
<path d="M50.49 121.26C50.49 121.26 42.55 117.8 39.27 115.95L38.96 116.76C38.96 116.76 42.43 118.14 45.65 119.47C48.87 120.8 50.43 121.63 50.43 121.63" fill="#E1CC53"/>
<path d="M61.9 123.47L61.84 123.86C61.84 123.86 77.96 124.79 80.63 124.35L80.86 122.89C77.7447 123.384 74.5942 123.622 71.44 123.6C67.12 123.48 61.9 123.47 61.9 123.47Z" fill="#E1CC53"/>
<path d="M48.66 129.83L50.26 122.68L48.26 127.68L37.72 122.57L36.72 125.51C36.72 125.51 39.03 128.14 48.66 129.83Z" fill="#D07E3D"/>
<path d="M61.7 124.83L60.97 131.61C60.97 131.61 71.92 133.1 80.03 132.61L80.2 127.13L79.2 129.6L61.82 129.03L61.7 124.83Z" fill="#D07E3D"/>
<path d="M70.37 81.48C70.37 81.48 73.69 86.38 79.2 81.48C79.2 81.48 74.1 78.46 70.37 81.48Z" fill="#F2E6D7"/>
<path d="M57.61 80.86C57.61 80.86 53.41 77.55 49.26 80.86C49.26 80.88 53.64 83.54 57.61 80.86Z" fill="#F2E6D7"/>
<path d="M10.18 74.48L19 69.22L29.08 80.48C29.08 80.48 21.21 88.92 17.08 89.93L10.18 74.48Z" fill="#9E3127"/>
<path d="M19.03 70.33C17.5876 70.933 16.2815 71.8207 15.19 72.94C16.6696 74.8162 18.471 76.4144 20.51 77.66C21.2203 78.1948 22.081 78.4923 22.97 78.51C23.3609 78.4791 23.7417 78.3703 24.09 78.19L19.03 70.33Z" fill="#B94719"/>
<path d="M57.61 80.86L57.83 79.39L70.37 78.52V82.47L61.7 82.94L57.61 80.86Z" fill="#9E3127"/>
<path d="M73.9 172.13L92.75 174.55C92.75 174.55 92.01 181.46 98.45 182.38L101.24 159.7L80.24 155.87L73.9 172.13Z" fill="#9E3127"/>
<path d="M97.06 179.2C97.5071 178.42 97.7538 177.541 97.7783 176.643C97.8027 175.744 97.604 174.853 97.2 174.05C97.0538 173.715 96.8052 173.435 96.49 173.25C96.2957 173.175 96.0862 173.147 95.8791 173.17C95.672 173.193 95.4734 173.265 95.3 173.38C94.9617 173.625 94.6873 173.947 94.5 174.32C94.0975 175.047 93.8641 175.855 93.8174 176.684C93.7706 177.514 93.9117 178.343 94.23 179.11C94.3092 179.379 94.4525 179.626 94.6475 179.828C94.8425 180.03 95.0836 180.181 95.35 180.27C96.06 180.42 96.7 179.82 97.06 179.2Z" fill="#B94719"/>
<path d="M20.51 152.61L9.89999 167.66C9.89999 167.66 4.32 163.54 0.279999 168.66L18.46 182.5L32.35 166.3L20.51 152.61Z" fill="#9E3127"/>
<path d="M4.03999 169.72C4.66676 170.364 5.44322 170.842 6.3 171.113C7.15678 171.383 8.06723 171.437 8.94999 171.27C9.32573 171.234 9.67822 171.072 9.94999 170.81C10.0802 170.646 10.1668 170.452 10.2018 170.246C10.2367 170.039 10.2189 169.828 10.15 169.63C10.006 169.25 9.7768 168.908 9.47999 168.63C8.88754 168.034 8.16746 167.58 7.37408 167.303C6.5807 167.026 5.73472 166.933 4.89999 167.03C4.62054 167.038 4.34672 167.11 4.10025 167.242C3.85377 167.374 3.64141 167.562 3.47999 167.79C3.36665 168.131 3.35952 168.498 3.45953 168.842C3.55954 169.187 3.76198 169.493 4.03999 169.72Z" fill="#B94719"/>
<path d="M51.12 58.41C51.12 58.11 50.57 57.82 50.34 57.17C50.277 57.0072 50.2432 56.8345 50.24 56.66C50.2283 56.6311 50.2283 56.5989 50.24 56.57C50.24 56.57 50.24 56.38 50.24 56.42C50.24 56.46 50.24 56.23 50.32 56.12C50.5422 55.5576 50.8309 55.0238 51.18 54.53C52.81 51.92 53.73 49.53 53.24 49.23C52.75 48.93 51.01 50.79 49.37 53.41C48.8774 54.1082 48.5367 54.9019 48.37 55.74C48.35 55.9662 48.35 56.1938 48.37 56.42C48.362 56.5232 48.362 56.6268 48.37 56.73C48.3857 56.8531 48.416 56.9739 48.46 57.09C48.582 57.4666 48.7909 57.8092 49.07 58.09C49.2518 58.2862 49.4712 58.444 49.7151 58.5539C49.959 58.6639 50.2225 58.7237 50.49 58.73C50.9 58.69 51.11 58.55 51.12 58.41Z" fill="#E39073"/>
<path d="M46.41 50.03C46.2029 50.5507 45.8459 50.9982 45.3842 51.3157C44.9226 51.6333 44.377 51.8067 43.8167 51.8139C43.2564 51.8211 42.7066 51.6618 42.2369 51.3562C41.7672 51.0506 41.3988 50.6124 41.1784 50.0972C40.958 49.582 40.8956 49.013 40.9989 48.4623C41.1022 47.9115 41.3667 47.4038 41.7589 47.0036C42.151 46.6033 42.6532 46.3285 43.2017 46.2139C43.7502 46.0994 44.3204 46.1502 44.84 46.36C45.5336 46.6401 46.0881 47.1833 46.3823 47.871C46.6765 48.5588 46.6864 49.335 46.41 50.03Z" fill="#451F32"/>
<path d="M41.9 48.45C41.9 48.45 39.44 46.88 38.48 47.08C37.29 47.32 41.78 49.49 41.78 49.49L41.9 48.45Z" fill="#451F32"/>
<path d="M59.17 50.85C59.2445 51.4051 59.482 51.9256 59.8525 52.3457C60.223 52.7657 60.7097 53.0664 61.2512 53.2096C61.7927 53.3528 62.3645 53.3321 62.8942 53.1502C63.4239 52.9682 63.8877 52.6332 64.2269 52.1875C64.5661 51.7418 64.7654 51.2055 64.7996 50.6464C64.8338 50.0874 64.7013 49.5308 64.419 49.047C64.1366 48.5633 63.7171 48.1743 63.2135 47.9292C62.7099 47.684 62.1449 47.5938 61.59 47.67C60.8479 47.7719 60.1764 48.1638 59.7228 48.7599C59.2692 49.356 59.0704 50.1076 59.17 50.85Z" fill="#451F32"/>
<path d="M63.9 50.45C63.9 50.45 66.67 49.53 67.55 49.95C68.65 50.48 63.77 51.49 63.77 51.49L63.9 50.45Z" fill="#451F32"/>
</svg>
