<svg width="126" height="190" viewBox="0 0 126 190" fill="none" xmlns="http://www.w3.org/2000/svg">
<g style="mix-blend-mode:multiply" opacity="0.2">
<path d="M117.24 186.06C117.24 188.11 102.49 189.78 84.24 189.78C65.99 189.78 51.24 188.11 51.24 186.06C51.24 184.01 66 182.34 84.24 182.34C102.48 182.34 117.24 184 117.24 186.06Z" fill="#3F6EAC"/>
</g>
<path d="M96.64 135.9L119.38 160.06L108.17 168.16L88.28 146.76L96.64 135.9Z" fill="#EAAD82"/>
<path d="M92.06 150.83C93.9932 148.487 96.2333 146.415 98.72 144.67C100.72 145.89 104.38 148.61 104.17 151.31C103.96 154.01 99.9 155.09 96.92 156.07L107.72 167.68L108.46 167.94L119.38 160.06L96.64 135.9L88.27 146.76L92.06 150.83Z" fill="#E39073"/>
<path d="M90.09 148.71L88.27 146.76L96.64 135.9L99.7 139.16C97.5955 141.966 95.2098 144.549 92.58 146.87C91.8146 147.566 90.9803 148.183 90.09 148.71Z" fill="#CC715D"/>
<path d="M96.45 158.72L109.59 171.62C109.59 171.62 104.59 176.46 108.99 181.28L125.6 165.58L111.83 149.25L96.45 158.72Z" fill="#212E34"/>
<path d="M110.67 177.75C111.408 177.236 112.006 176.546 112.411 175.743C112.816 174.94 113.015 174.049 112.99 173.15C113 172.793 112.895 172.442 112.69 172.15C112.55 171.997 112.375 171.882 112.179 171.814C111.984 171.746 111.774 171.727 111.57 171.76C111.158 171.83 110.769 172.002 110.44 172.26C109.765 172.746 109.208 173.378 108.81 174.108C108.411 174.839 108.183 175.649 108.14 176.48C108.1 176.758 108.126 177.041 108.216 177.307C108.307 177.573 108.459 177.814 108.66 178.01C108.983 178.172 109.347 178.234 109.705 178.188C110.063 178.141 110.399 177.989 110.67 177.75Z" fill="#304D78"/>
<path d="M40.72 139.07C46.18 126.13 42.72 111.24 45.02 97.37C45.4 95.05 46.02 92.58 47.84 91.05C49.0352 90.1617 50.3948 89.5193 51.84 89.16L77.13 81.16C81.9828 87.2063 88.0602 92.157 94.9629 95.6867C101.866 99.2165 109.437 101.245 117.18 101.64C115.35 111.29 107.5 118.49 100.1 124.95C94.04 130.24 87.87 135.6 80.52 138.84C68.13 144.32 53.66 143.16 40.72 139.07Z" fill="#CC612D"/>
<path d="M67.71 150.64L67.83 156.59L77.6 160.75L80.47 167.31L76.22 172.73C76.22 172.73 55.87 170.35 54.06 164.08C52.8276 159.203 52.0245 154.227 51.66 149.21L67.71 150.64Z" fill="#EAAD82"/>
<path d="M67.71 150.64L67.83 156.59L68.01 156.66C66.9049 157.15 65.7474 157.512 64.56 157.74C64.65 161.37 69.56 161.62 72.3 162.08C75.04 162.54 76.42 162.08 77.18 160.57L77.6 160.75L80.47 167.31L76.22 172.73C76.22 172.73 55.87 170.35 54.06 164.08C52.8276 159.203 52.0245 154.227 51.66 149.21L67.71 150.64Z" fill="#E39073"/>
<path d="M61.71 153.61C63.71 153.55 65.76 153.73 67.77 153.67V151.27L62.21 150.67C58.7631 150.168 55.2689 150.074 51.8 150.39C51.8 150.87 51.91 151.48 51.98 152.18C55.0778 153.37 58.4008 153.858 61.71 153.61Z" fill="#CC715D"/>
<path d="M53.16 146.32C51.6 143.42 53.07 139.68 55.62 137.55C58.17 135.42 61.55 134.5 64.8 133.66L78.36 130.16C81.84 129.25 85.45 128.34 88.98 128.96C91.6152 129.425 94.0309 130.726 95.87 132.67C96.9422 133.702 97.6152 135.08 97.77 136.56C97.9 139.43 95.2 141.56 92.66 143.07C80.5595 150.023 66.4492 152.641 52.66 150.49C52.36 150.49 53.03 149.98 52.73 149.98C52.24 148.61 52.94 147.72 53.16 146.32Z" fill="#28374B"/>
<path d="M58.07 139.05C57.9098 143.546 58.0803 148.049 58.58 152.52C62.7003 152.845 66.8397 152.845 70.96 152.52C72.5636 152.453 74.1607 152.276 75.74 151.99C75.22 146.99 74.47 141.99 73.46 137.09C75.82 141.683 78.1733 146.273 80.52 150.86C85.5206 149.35 90.2691 147.106 94.61 144.2L87.61 131.9L98.55 141.26C100.297 139.942 101.748 138.273 102.81 136.36L87.57 115.3L52.57 124.36L48.36 148.5C50.3232 150.177 52.6688 151.344 55.19 151.9C56.1633 147.62 57.1233 143.337 58.07 139.05Z" fill="#304D78"/>
<path d="M62.14 73.6L63.47 79.25C63.47 79.25 61.64 81.11 56.23 80.32L53.88 75.07L62.14 73.6Z" fill="#E39073"/>
<path d="M81.9 44.6C77.61 45.41 72.97 51.48 73.27 55.08C73.57 58.68 75.12 63.25 78.27 60.01C81.42 56.77 82.27 49.92 79.11 50.7C78.1941 50.918 77.3348 51.3275 76.5885 51.9014C75.8422 52.4754 75.2258 53.2008 74.78 54.03C74.78 54.03 75.99 49.54 78.1 47.56C79.2568 46.4399 80.5308 45.4475 81.9 44.6Z" fill="#E39073"/>
<path d="M78.04 62.67C79.04 63.67 78.32 66.1 78.58 67.41C78.7873 68.6426 79.258 69.8159 79.96 70.85C78.18 70.93 76.05 69.35 74.87 68.08C74.7718 68.6344 74.5897 69.1705 74.33 69.67C73.523 69.1914 72.7717 68.6246 72.09 67.98C71.0586 70.2819 69.2395 72.14 66.96 73.22C66.5 70.32 63.21 69.83 62.46 67.04C61.03 61.78 69.95 59.37 73.72 60.3C75.14 60.66 77.16 61.34 78.04 62.67Z" fill="#B9BABB"/>
<path d="M12.98 45.16C8.98 45.63 17.98 64.24 18.33 65.28C19.03 67.5 18.97 70.16 17.43 71.9C21.52 69.78 23.19 64.56 22.55 59.99C22.31 58.31 17.55 44.62 15.78 44.84L12.98 45.16Z" fill="#CC612D"/>
<path d="M17.65 37.59C17.65 38.04 17.94 61.39 26.39 72.35C34.84 83.31 62.83 79.83 71.83 65.16C80.83 50.49 72.83 28.25 72.83 28.25L54.63 15C54.63 15 24.63 22.32 24.35 22.81C24.07 23.3 17.65 37.59 17.65 37.59Z" fill="#EAAD82"/>
<path d="M44.74 22.36C36.66 21.65 28.59 24.36 21.67 28.63L17.67 37.63C17.8079 42.7259 18.3092 47.8055 19.17 52.83C26.45 52.38 50.41 44.44 50.41 44.44C50.41 44.44 57.22 48.57 60.91 47.95C62.09 47.6815 63.1688 47.0814 64.0191 46.2204C64.8695 45.3594 65.4562 44.2733 65.71 43.09C66.1821 40.7051 65.8808 38.2318 64.85 36.03C61.57 28.16 53.22 23.16 44.74 22.36Z" fill="#E39073"/>
<path d="M74.65 10.67C82.1 -1.39999 101.56 -4.21 110.82 7.5C120.08 19.21 119.28 31.16 113.45 40.91C107.62 50.66 111.34 57.39 116.71 54.46C116.71 54.46 111.33 60.15 101.48 58.46C91.63 56.77 87.48 52.2 84.48 43.14C84.48 43.14 76.62 41.66 74.06 31.06C71.13 19.1 71.83 15.21 74.65 10.67Z" fill="#CC612D"/>
<path d="M81.1 12.49C82.3161 12.2452 83.5787 12.3995 84.7 12.93C87.5622 14.435 89.8809 16.7991 91.33 19.69C92.75 22.6 92.94 26 94.46 28.83C92.83 25.89 93.98 21.57 92.89 18.27C91.12 12.95 85.07 10.27 80.46 8.09C82.51 8.22 84.39 7.78 86.53 8.25C90.1489 9.02574 93.433 10.9176 95.9196 13.6589C98.4062 16.4003 99.9698 19.8528 100.39 23.53C100.85 28.47 97.94 35.06 101.39 39.41C101.479 39.5388 101.579 39.6593 101.69 39.77C101.58 39.65 101.49 39.53 101.39 39.41C100.11 37.64 100.49 34.54 100.91 32.58C102.18 26.58 103.18 20.91 100.69 14.94C98.61 9.94 92.28 5.94001 86.94 5.35001C88.76 5.40001 90.63 5.16 92.46 5.25C101.53 5.68 108 9.98002 112.06 17.83C111.594 15.2532 110.648 12.7869 109.27 10.56C107.693 8.07805 105.544 6.0096 103.004 4.52741C100.465 3.04522 97.6068 2.19233 94.67 2.04001C99.67 1.85001 104.67 3.24001 107.99 6.70001C115.2 14.15 114.99 24.7 110.92 33.82C109.72 36.49 107.8 39.13 106.35 41.74C105.856 42.6265 105.153 43.3784 104.301 43.9295C103.449 44.4807 102.475 44.8144 101.464 44.9012C100.453 44.9881 99.4361 44.8256 98.5026 44.4278C97.5692 44.0301 96.7476 43.4093 96.11 42.62L96.04 42.54C93.9869 40.0401 92.4138 37.182 91.4 34.11C90.31 30.56 90.26 26.53 88.62 23.11C86.73 19.16 83.23 16.16 81.1 12.49Z" fill="#D07E3D"/>
<path d="M11.96 27.32C13.86 11.84 30.96 -0.88997 51.3 0.0500303C71.64 0.99003 81.41 14.12 85.46 23.74C89.51 33.36 89.18 40.69 86.25 48.74C83.32 56.79 83.44 63.94 87.57 60.37C87.57 60.37 86.57 65.19 82.69 61.09C82.9899 62.3392 83.5907 63.4961 84.44 64.46C83.8169 64.5139 83.1902 64.4125 82.616 64.1647C82.0418 63.9168 81.5381 63.5304 81.15 63.04C81.15 63.04 82.27 67.04 84.54 67.93C84.54 67.93 78.06 71.93 75.3 63.45C73.8279 58.5656 70.7299 54.3313 66.52 51.45C66.52 51.45 55.99 51.98 51.37 34.23C46.75 16.48 11.96 27.32 11.96 27.32Z" fill="#D07E3D"/>
<path d="M85.46 23.74C82.4555 16.4023 77.2858 10.1547 70.64 5.83002C72.41 9.88002 74.57 14.9 72.82 18.88C71.89 21 70 22.65 67.74 22.55C70.51 27.31 60.49 27.9 58.21 27.62C55.93 27.34 52.36 26.39 50.28 28.05C49.805 28.4742 49.4382 29.0055 49.21 29.6C50.0073 30.7272 50.6309 31.9677 51.06 33.28C51.17 33.6 51.28 33.93 51.37 34.28C51.9793 36.7089 52.8302 39.0707 53.91 41.33C54.1 41.72 54.29 42.1 54.48 42.46C59.57 51.85 66.48 51.46 66.48 51.46C66.7839 51.6476 67.0776 51.8513 67.36 52.07L67.6 52.25C67.97 52.54 68.43 52.92 68.93 53.39C69.13 53.57 69.33 53.77 69.55 53.98L70.02 54.48C70.37 54.85 70.73 55.26 71.09 55.71C71.682 56.434 72.2265 57.1956 72.72 57.99C72.96 58.37 73.19 58.77 73.42 59.18C74.1657 60.5356 74.7818 61.9586 75.26 63.43C75.7123 65.1763 76.7066 66.7343 78.1 67.88C78.1793 67.9423 78.2629 67.9992 78.35 68.05C81.23 69.92 84.5 67.91 84.5 67.91C82.23 67.01 81.11 63.02 81.11 63.02C81.4981 63.5104 82.0019 63.8968 82.576 64.1446C83.1502 64.3924 83.7769 64.4939 84.4 64.44C83.7094 63.691 83.1907 62.8003 82.88 61.83C82.7897 61.581 82.7129 61.3273 82.65 61.07C86.5 65.17 87.53 60.35 87.53 60.35C85.46 62.13 84.4 61.24 84.22 58.9C84.04 56.56 84.75 52.76 86.22 48.72C87.8927 44.439 88.6292 39.8494 88.38 35.26C88.3067 34.2137 88.1765 33.1722 87.99 32.14C87.4578 29.2391 86.599 26.4078 85.43 23.7L85.46 23.74Z" fill="#CC612D"/>
<path d="M4.36 26.32C4.36 26.32 30.42 15.4 52.81 12.32C51.3 18.32 51.45 32.32 59.38 36.32C55.96 37.7 52.75 39.32 49.26 40.42C44.14 42.09 41.79 36.88 38.09 34.31C39.09 37.17 41.75 40.25 44.01 42.24C41.45 43.49 38.74 44.24 36.13 45.24C35.13 45.61 33.29 46.84 32.31 46.69C29.94 46.3 26.08 39.94 24.74 37.77C26.2921 41.2863 28.1562 44.6565 30.31 47.84C26.76 46.41 24.64 43.17 21.98 40.38C22.9755 43.3694 24.7334 46.0474 27.08 48.15C24.73 50.15 20.08 50.22 17.25 50.85C13.93 51.58 10.61 53.98 8.08 51.22C5.11 48.01 -4.32 39.39 4.36 26.32Z" fill="#D07E3D"/>
<path d="M63.94 3.96999C59.38 0.969994 51.14 0.969994 45.94 1.96999C40.74 2.96999 36.05 4.74 33.94 9.76C33.061 11.961 32.5802 14.3007 32.52 16.67C41.43 13.82 51.05 11.13 60.43 12.21C56.16 8.07998 50.1 8.51001 44.84 6.92001C50.23 4.78001 56.97 6.18999 62.53 6.86999C60.53 5.64999 58.1 5.15998 56.05 4.26998C58.32 3.69998 63.94 3.96999 63.94 3.96999Z" fill="#DCA65C"/>
<path d="M46.43 17.51C44.62 20.8 47.43 25.28 48.57 28.51C46.43 29.51 45.28 30.3 43.26 29.07C41.6462 27.8701 40.2292 26.4261 39.06 24.79C39.2545 26.5007 39.7239 28.1689 40.45 29.73C38.77 28.53 37.26 26.64 35.34 25.73C34.79 26.85 35.13 28.33 35.34 29.56C32.79 28.93 32.34 28 29.8 29.56C28.94 30.09 28.06 31.24 27.03 31.46C25.8 31.72 24.21 30.83 22.93 30.71C21.7685 30.5692 20.5911 30.7682 19.5403 31.2829C18.4896 31.7976 17.6107 32.606 17.01 33.61C15.35 35.94 16.26 38.02 17.24 40.5C15.3471 39.4609 13.5675 38.2276 11.93 36.82C11.2 38.02 12.03 40.26 12.38 41.66C10.09 42.73 9.44 43.22 7.8 40.99C6.39951 39.2225 5.50751 37.1066 5.21999 34.87C5.18219 32.9316 5.69168 31.0219 6.68999 29.36C8.02999 27.15 9.19 27.11 11.59 26.57C12.31 28.08 12.73 30.2 13.84 31.39C13.8554 30.0317 14.0745 28.6833 14.49 27.39C15.69 28.19 16.41 29.7 17.89 29.54C19.81 29.34 21.78 26.72 24.18 26.64C25.86 26.58 27.67 28.04 29.27 27.27C30.87 26.5 30.72 24.46 31.27 23.13C32.13 23.47 32.59 24.56 33.04 25.48C32.81 23.23 32.98 20.75 34.64 19.05C34.9934 19.9403 35.5281 20.7474 36.21 21.42C36.3294 20.5913 36.5827 19.7875 36.96 19.04C38.63 19.8 39.89 21.09 41.47 22.04C41.1357 21.0413 41.0701 19.9721 41.28 18.94C43.0875 18.8899 44.8554 18.399 46.43 17.51Z" fill="#DCA65C"/>
<path d="M78.6 35.36C79.0936 36.1355 79.8673 36.6907 80.76 36.91C81.3534 36.953 81.9458 36.8143 82.4585 36.5125C82.9711 36.2106 83.3798 35.7598 83.63 35.22C84.117 34.1342 84.3398 32.9485 84.28 31.76C84.36 25.47 82.7 18.68 77.83 14.69C77.83 18.23 76.93 21.69 76.57 25.21C76.21 28.73 76.49 32.53 78.6 35.36Z" fill="#D07E3D"/>
<path d="M56.9 61.01C57.343 62.1492 58.1139 63.1313 59.1152 63.8324C60.1164 64.5334 61.3031 64.9218 62.5251 64.9484C63.747 64.975 64.9495 64.6387 65.9803 63.982C67.0111 63.3252 67.8241 62.3776 68.3163 61.2588C68.8086 60.14 68.9581 58.9004 68.7458 57.6967C68.5336 56.493 67.9692 55.3793 67.1239 54.4964C66.2787 53.6134 65.1907 53.001 63.9974 52.7364C62.8041 52.4718 61.5592 52.567 60.42 53.01C59.6627 53.3031 58.9708 53.7427 58.3838 54.3037C57.7968 54.8647 57.3263 55.5361 56.9993 56.2793C56.6722 57.0225 56.4951 57.8229 56.4781 58.6347C56.4611 59.4465 56.6044 60.2537 56.9 61.01Z" fill="#E39073"/>
<path d="M26.39 72.35C24.7595 70.1446 23.4405 67.7252 22.47 65.16C22.8728 64.8966 23.3018 64.6754 23.75 64.5C25.2439 63.9114 26.8975 63.8688 28.4197 64.3796C29.942 64.8904 31.2352 65.9219 32.0716 67.2924C32.9081 68.663 33.2341 70.2848 32.9923 71.8721C32.7506 73.4595 31.9565 74.9106 30.75 75.97C29.0629 75.0765 27.5785 73.8441 26.39 72.35Z" fill="#E39073"/>
<path d="M70.9 47.61C73.6 43.38 80.77 37.68 84.27 41.71C87.77 45.74 86.02 60.94 79 64.29C71.98 67.64 69.63 60.66 69 56.66C68.5687 53.5144 69.2401 50.3165 70.9 47.61Z" fill="#EAAD82"/>
<path d="M81.9 44.6C77.61 45.41 72.97 51.48 73.27 55.08C73.57 58.68 75.12 63.25 78.27 60.01C81.42 56.77 82.27 49.92 79.11 50.7C78.1941 50.918 77.3348 51.3275 76.5885 51.9014C75.8422 52.4754 75.2258 53.2008 74.78 54.03C74.78 54.03 75.99 49.54 78.1 47.56C79.2568 46.4399 80.5308 45.4475 81.9 44.6Z" fill="#E39073"/>
<path d="M15.36 76.28C14 74.5 12.84 73.04 12.22 72.03C13.05 71.55 15.47 68.3 15.1 67.42C14.8942 66.9844 14.5429 66.6341 14.1066 66.4297C13.6704 66.2252 13.1764 66.1794 12.71 66.3C12.1928 65.142 11.3391 64.1664 10.26 63.5C9.18999 62.99 7.61999 63.35 7.25999 64.5C6.47353 64.2281 5.61144 64.2785 4.86199 64.6401C4.11253 65.0017 3.53661 65.6452 3.25999 66.43C2.83685 66.3447 2.39952 66.361 1.9839 66.4775C1.56827 66.594 1.18619 66.8074 0.869017 67.1002C0.551842 67.393 0.308614 67.7568 0.159289 68.1618C0.00996289 68.5668 -0.0412027 69.0014 0.00999274 69.43C0.609993 71.65 3.28999 77.28 5.82999 82.34C9.40999 81.16 12.29 78.55 15.36 76.28Z" fill="#304D78"/>
<path d="M32.96 83.99L21.3 84.94C19.6856 82.2025 17.8987 79.5705 15.95 77.06C12.81 79.32 9.94999 82.06 6.34999 83.27C7.02999 84.63 7.69999 85.93 8.29999 87.09C8.74955 88.0689 9.25024 89.0236 9.79999 89.95C11.4122 92.8872 13.8168 95.3126 16.74 96.95C23.74 100.47 35.3 96.58 35.3 96.58L32.96 83.99Z" fill="#EAAD82"/>
<path d="M24.25 98.45C27.9849 98.3565 31.688 97.7371 35.25 96.61L32.91 83.99L23.79 84.99C23.35 89.39 23.94 93.96 24.25 98.45Z" fill="#CC715D"/>
<path d="M4.64999 68.46C4.87352 68.6709 5.14061 68.8302 5.43242 68.9266C5.72423 69.023 6.03363 69.0542 6.33881 69.0179C6.64399 68.9817 6.93749 68.8789 7.1986 68.7169C7.45972 68.5548 7.68208 68.3374 7.84999 68.08C7.76999 68.41 9.77 68.61 10.12 68.6C10.2925 68.5774 10.4561 68.5101 10.5946 68.4049C10.7332 68.2997 10.8419 68.1601 10.91 68C11.0346 67.6813 11.099 67.3422 11.1 67C11.6824 67.7773 12.0482 68.6952 12.16 69.66C10.34 69.52 8.80999 70.66 8.02999 73.52C8.41 72.15 3.14999 72.57 2.67999 72.78C4.18999 72.08 5.34999 69.95 4.64999 68.46Z" fill="#28374B"/>
<path d="M20.66 90.41C18.44 87.05 16.3 83.56 13.41 80.73C12.3973 79.7432 11.2922 78.8558 10.11 78.08C9.97521 78.1612 9.83074 78.225 9.67999 78.27C7.86018 78.7225 5.98084 78.8878 4.10999 78.76C5.51999 81.67 7.05999 84.69 8.29999 87.09C8.74955 88.0689 9.25024 89.0236 9.79999 89.95C11.4122 92.8872 13.8168 95.3126 16.74 96.95C19.0573 98.0034 21.5858 98.5098 24.13 98.43C23.94 95.58 22.28 92.86 20.66 90.41Z" fill="#E39073"/>
<path d="M1.30999 82.43C1.44645 81.3926 1.82185 80.4011 2.40664 79.5335C2.99143 78.6658 3.76963 77.9458 4.67999 77.43C4.99623 78.8581 5.68647 80.1765 6.67999 81.25C5.5051 82.3061 4.63694 83.6597 4.16702 85.168C3.69711 86.6763 3.64286 88.2835 4.00999 89.82C5.15756 87.1789 7.19126 85.0214 9.75999 83.72C10.25 83.48 10.84 83.15 10.85 82.61C10.8188 82.2959 10.6853 82.0008 10.47 81.77C8.3052 78.8873 5.92505 76.1729 3.34999 73.65C2.36663 74.8631 1.67197 76.2839 1.31855 77.805C0.96513 79.3261 0.962204 80.9076 1.30999 82.43Z" fill="#304D78"/>
<path d="M3.39999 77.29L12.22 72.03L22.3 83.29C22.3 83.29 14.43 91.74 10.35 92.74L3.39999 77.29Z" fill="#304D78"/>
<path d="M12.25 73.16C10.8091 73.7703 9.50378 74.6609 8.41 75.78C9.89508 77.651 11.6955 79.2483 13.73 80.5C14.4425 81.0307 15.3019 81.3276 16.19 81.35C16.5813 81.3144 16.9619 81.2023 17.31 81.02L12.25 73.16Z" fill="#395780"/>
<path d="M53.69 80.49C46.19 81.19 30.21 83.27 30.21 83.27C30.21 83.27 31.59 94.67 33.48 99.5C33.48 99.5 42.26 99.34 53.26 93.91L53.69 80.49Z" fill="#28374B"/>
<path d="M44.61 84.24C40.6228 84.0449 36.6261 84.2156 32.67 84.75C33.2906 85.8109 34.1886 86.6826 35.2676 87.2713C36.3466 87.8599 37.5656 88.1432 38.7936 88.0908C40.0216 88.0383 41.212 87.6521 42.2368 86.9736C43.2617 86.2951 44.0822 85.35 44.61 84.24Z" fill="#304D78"/>
<path d="M68.43 76.35C68.43 76.35 55.43 79.6 52.89 80.6C50.35 81.6 49.52 106.65 50.08 127.07C50.08 127.07 65.41 134.53 91.81 118.83L68.43 76.35Z" fill="#304D78"/>
<path d="M50.08 127.07C50 124.23 49.89 119.71 49.91 116.78C53.34 117.84 55.72 119.48 59.12 119.46C63.78 119.46 71.69 117.77 73.37 113C75.18 107.85 74.48 104.58 72.47 98C68.2 103.46 59.59 109.41 53.11 111.46C54.69 108.3 58.23 105.46 60.33 102.37C63.25 98.09 67.24 92.89 68.57 87.79C65.57 89.41 51.69 95.44 48.68 96.19C49.46 88.43 51.68 81.12 52.89 80.65C55.47 79.65 68.43 76.4 68.43 76.4L91.83 118.83C65.41 134.53 50.08 127.07 50.08 127.07Z" fill="#28374B"/>
<path d="M64.55 120.23C74.92 118.28 81.17 112.36 84.36 110.6C84.89 110.31 84.16 110.08 83.84 109.6C83.84 109.6 75.96 94.55 76.22 94.2L74.83 88.44L91.83 118.83C67.3 133.42 52.64 128.01 50.37 127.17C51.47 127.56 53.83 122.24 64.55 120.23Z" fill="#212E34"/>
<path d="M89.33 109.16L93.19 118.8C84.9195 122.693 76.393 126.017 67.67 128.75C55.59 132.27 50.02 131.3 50.02 131.3L48.02 120.68C54.3945 121.658 60.9056 121.235 67.1 119.44C77.37 116.47 89.33 109.16 89.33 109.16Z" fill="#D8A24E"/>
<path d="M71.7 116.86C71.7 116.86 64.64 119.56 61.24 119.86L63.83 130.33C63.83 130.33 71.53 128.26 74.98 127.08L71.7 116.86Z" fill="#E1CC53"/>
<path d="M73.87 126.79L64.25 129.51L61.85 120.18L71.24 117.77L73.87 126.79Z" fill="#D8A24E"/>
<path d="M70.34 118.9L72.61 126.7L65.22 128.59L62.89 120.62L70.34 118.9Z" fill="#D07E3D"/>
<path d="M61.1 121.16C61.1 121.16 52.44 121.44 48.68 121.16L48.75 122.03C48.75 122.03 52.47 121.79 55.96 121.62C59.45 121.45 61.2 121.52 61.2 121.52" fill="#E1CC53"/>
<path d="M72.37 118.21L72.48 118.59C72.48 118.59 87.48 112.53 89.67 110.99L89.26 109.57C86.6543 111.349 83.9086 112.914 81.05 114.25C77.07 115.99 72.37 118.21 72.37 118.21Z" fill="#E1CC53"/>
<path d="M63.11 129.64L61.5 122.49L61.81 127.87L50.1 127.77L50.43 130.87C50.43 130.87 53.69 132.24 63.11 129.64Z" fill="#D07E3D"/>
<path d="M72.76 119.53L75 125.98C75 125.98 85.53 122.64 92.66 118.74L90.47 113.74L90.61 116.41L74.61 123.3L72.76 119.53Z" fill="#D07E3D"/>
<path d="M54.1 80.16C52.6552 79.7165 51.1311 79.5932 49.6337 79.7987C48.1364 80.0042 46.7019 80.5336 45.43 81.35C45.43 81.35 50.41 84.51 54.1 80.16Z" fill="#CC612D"/>
<path d="M51.83 56.88C50.44 61.64 46.74 65.34 42.98 66.17C42.98 66.17 48.68 69.88 53.26 65.67C57.63 61.63 51.83 56.88 51.83 56.88Z" fill="#F2E6D7"/>
<path d="M46.59 48.76C46.573 49.3255 46.7253 49.8832 47.0274 50.3616C47.3294 50.8399 47.7674 51.2172 48.2853 51.4449C48.8032 51.6727 49.3773 51.7406 49.934 51.64C50.4907 51.5393 51.0047 51.2747 51.41 50.88C51.6779 50.6329 51.8918 50.3329 52.0381 49.999C52.1844 49.6651 52.2599 49.3045 52.26 48.94C52.2721 48.3766 52.1168 47.8222 51.8139 47.347C51.511 46.8717 51.074 46.497 50.5581 46.2701C50.0422 46.0432 49.4707 45.9743 48.9156 46.0722C48.3606 46.1701 47.8471 46.4303 47.44 46.82C47.1701 47.0656 46.9549 47.3653 46.8085 47.6995C46.662 48.0338 46.5876 48.3951 46.59 48.76Z" fill="#4B2720"/>
<path d="M51.28 48.39C51.28 48.39 53.76 46.85 54.71 47.05C55.9 47.31 51.39 49.43 51.39 49.43L51.28 48.39Z" fill="#4B2720"/>
<path d="M37.02 54.45C37.014 55.0097 36.8422 55.555 36.5264 56.0171C36.2105 56.4791 35.7646 56.8371 35.2453 57.0458C34.7259 57.2545 34.1564 57.3045 33.6086 57.1895C33.0609 57.0744 32.5595 56.7996 32.1679 56.3996C31.7764 55.9997 31.5122 55.4926 31.4088 54.9425C31.3055 54.3925 31.3675 53.8241 31.5872 53.3093C31.8068 52.7945 32.1742 52.3564 32.6428 52.0503C33.1115 51.7443 33.6603 51.5841 34.22 51.59C34.9697 51.6005 35.6849 51.9071 36.2094 52.4429C36.734 52.9787 37.0254 53.7002 37.02 54.45Z" fill="#4B2720"/>
<path d="M32.29 54.64C32.29 54.64 29.43 54.08 28.61 54.64C27.61 55.3 32.61 55.69 32.61 55.69L32.29 54.64Z" fill="#4B2720"/>
<path d="M51.69 39.98C51.75 38.51 43.39 38.98 43.17 41.3C42.95 43.62 51.63 41.69 51.69 39.98Z" fill="#4B2720"/>
<path d="M31.94 44.25C31.29 42.94 24.18 47.35 25.09 49.5C26 51.65 32.7 45.79 31.94 44.25Z" fill="#4B2720"/>
<path d="M63.83 172.87L82.12 174.92C82.12 174.92 81.2 181.8 87.61 182.92L91.01 160.33L70.13 155.94L63.83 172.87Z" fill="#212E34"/>
<path d="M86.73 179.08C86.9968 178.222 87.0451 177.31 86.8705 176.428C86.6959 175.546 86.3039 174.722 85.73 174.03C85.5188 173.735 85.2167 173.517 84.87 173.41C84.664 173.375 84.4524 173.392 84.2549 173.46C84.0573 173.528 83.8802 173.645 83.74 173.8C83.4626 174.112 83.2637 174.486 83.16 174.89C82.9302 175.689 82.8819 176.529 83.0186 177.349C83.1553 178.169 83.4735 178.949 83.95 179.63C84.0915 179.873 84.2884 180.08 84.5248 180.233C84.7611 180.386 85.0301 180.481 85.31 180.51C86.03 180.5 86.52 179.77 86.73 179.08Z" fill="#304D78"/>
<path d="M91.71 102.02C95.48 102.34 99.22 102.95 102.95 103.58C103.09 102.45 103.21 101.37 103.32 100.39C103.43 99.41 103.58 98.39 103.64 97.32C103.922 94.1298 103.302 90.9245 101.85 88.07C98.14 81.55 86.92 78.53 86.92 78.53L82.09 89.8L90.55 94.21C91.0846 96.7892 91.4719 99.3967 91.71 102.02Z" fill="#E39073"/>
<path d="M106.83 110.71C106.096 111.457 105.197 112.022 104.206 112.361C103.214 112.699 102.158 112.802 101.12 112.66C101.728 111.331 101.973 109.865 101.83 108.41C103.404 108.28 104.915 107.727 106.201 106.81C107.488 105.893 108.503 104.646 109.14 103.2C106.627 104.607 103.703 105.095 100.87 104.58C100.34 104.48 99.67 104.38 99.33 104.81C99.1679 105.081 99.0977 105.396 99.13 105.71C99.1129 109.314 99.3669 112.914 99.89 116.48C101.408 116.107 102.822 115.393 104.024 114.394C105.226 113.394 106.186 112.135 106.83 110.71Z" fill="#304D78"/>
<path d="M91.83 103.1C92.0289 105.518 92.099 107.945 92.04 110.37C91.13 110.31 87.7 111.51 87.54 112.42C87.4783 112.873 87.5737 113.333 87.8103 113.725C88.0468 114.116 88.4102 114.414 88.84 114.57C88.6301 115.764 88.7943 116.993 89.31 118.09C89.4363 118.34 89.6138 118.561 89.8311 118.739C90.0484 118.916 90.3006 119.046 90.5712 119.119C90.8419 119.193 91.125 119.209 91.4021 119.166C91.6793 119.123 91.9443 119.022 92.18 118.87C92.6587 119.502 93.3681 119.919 94.1533 120.03C94.9384 120.14 95.7354 119.935 96.37 119.46C96.6455 119.755 96.9893 119.978 97.3713 120.109C97.7532 120.24 98.1614 120.274 98.56 120.21C98.9902 120.175 99.4031 120.025 99.7551 119.775C100.107 119.525 100.385 119.185 100.56 118.79C101.3 116.61 102.2 110.21 102.88 104.64C99.16 104.03 95.5 103.43 91.83 103.1Z" fill="#304D78"/>
<path d="M96.62 82.89C93.6063 80.9905 90.3412 79.5228 86.92 78.53L82.09 89.8L89.41 93.62C91.92 90.16 94.16 86.43 96.62 82.89Z" fill="#CC715D"/>
<path d="M95.4 99.16C97.27 99.37 99.15 99.61 101.03 99.78C101.82 99.85 102.6 99.87 103.38 99.88C103.49 99.08 103.59 98.21 103.64 97.28C103.922 94.0898 103.302 90.8845 101.85 88.03C100.566 85.9656 98.8243 84.2241 96.76 82.94C95.39 85.33 95.27 88.37 95.26 91.17C95.25 93.97 95.18 96.55 95.4 99.16Z" fill="#EAAD82"/>
<path d="M63.2 77.16C61.6 78.16 60.47 78.82 60.47 78.82C59.79 80.52 68.91 80.82 68.55 81.89C71.73 89.02 88.04 94.65 88.04 94.65L96.16 81.26L86.16 76.19C82.5706 74.3706 78.5738 73.5043 74.5532 73.6741C70.5326 73.844 66.6232 75.0443 63.2 77.16Z" fill="#28374B"/>
<path d="M79.83 75.62C80.1362 77.035 80.8206 78.3405 81.8103 79.3971C82.8001 80.4538 84.058 81.222 85.45 81.62C88.2554 82.3604 91.2283 82.135 93.89 80.98L79.83 75.62Z" fill="#304D78"/>
<path d="M92.01 110.37L102.07 110.48L104.98 99.28C104.98 99.28 92.72 97.72 89.52 98.45L92.01 110.37Z" fill="#304D78"/>
<path d="M96.29 101.16C96.83 100.87 104.03 100.16 104.03 100.16L101.44 109.42L98.69 109.25L96.29 101.16Z" fill="#395780"/>
<path d="M53.26 78.53L64.43 74.59V79.34L54.59 81.16L53.26 78.53Z" fill="#28374B"/>
<path d="M64.42 76.44C66.6384 74.5513 69.5156 73.6198 72.42 73.85C72.42 73.85 69.67 78.71 64.42 76.44Z" fill="#CC612D"/>
<path d="M60.83 43.71C68.47 55.45 68.94 60.29 67.83 65.04C67.83 65.04 73.15 59.57 67.51 46.87C61.87 34.17 60.83 43.71 60.83 43.71Z" fill="#CC612D"/>
<path d="M45.83 62.36C45.67 62.11 45.03 62.24 44.45 61.87C44.2996 61.7825 44.1645 61.671 44.05 61.54V61.46C44.05 61.46 43.94 61.31 43.97 61.34C44 61.37 43.83 61.16 43.83 61.06C43.6638 60.4789 43.5566 59.8826 43.51 59.28C43.16 56.21 42.4 53.78 41.82 53.84C41.24 53.9 41.05 56.45 41.4 59.53C41.4625 60.3797 41.7009 61.2072 42.1 61.96C42.2153 62.1526 42.3493 62.3335 42.5 62.5C42.5688 62.5811 42.6459 62.6549 42.73 62.72C42.8205 62.8011 42.9175 62.8747 43.02 62.94C43.3489 63.1496 43.7221 63.2797 44.11 63.32C44.3743 63.3608 44.6441 63.3482 44.9035 63.283C45.1629 63.2177 45.4065 63.1011 45.62 62.94C45.83 62.7 45.9 62.47 45.83 62.36Z" fill="#E39073"/>
</svg>
