<svg width="103" height="200" viewBox="0 0 103 200" fill="none" xmlns="http://www.w3.org/2000/svg">
<g style="mix-blend-mode:multiply" opacity="0.2">
<path d="M75.26 195.62C75.26 197.67 60.51 199.34 42.26 199.34C24.01 199.34 9.25998 197.67 9.25998 195.62C9.25998 193.57 24.02 191.9 42.26 191.9C60.5 191.9 75.26 193.56 75.26 195.62Z" fill="#3F6EAC"/>
</g>
<path d="M64.87 101.19C63.87 99.57 62.71 97.77 60.87 97.26C59.03 96.75 56.87 97.84 55.02 98.78C48.1742 102.224 40.3671 103.26 32.86 101.72C34.0046 116.48 38.225 130.838 45.25 143.87C46.92 146.97 48.87 150.11 51.93 151.87C54.81 153.52 58.29 153.69 61.61 153.6C69.86 153.4 78.18 151.84 85.53 148.09C92.88 144.34 99.21 138.26 102.33 130.62C86.8599 125.355 73.6466 114.974 64.87 101.19Z" fill="#9494BF"/>
<path d="M49.94 84.55L49.13 90.29C49.13 90.29 46.76 91.36 42 88.67L41.71 82.92L49.94 84.55Z" fill="#E39073"/>
<path d="M93.52 47.84C93.52 51.28 92.83 54.69 92.63 58.13C92.43 61.57 92.71 65.13 94.42 68.19C90.85 68.84 87.83 68.09 84.32 67.41C87.32 71.31 85.73 77.55 81.18 79.78C79.18 80.78 76.82 81.01 74.75 81.9C72.68 82.79 70.8 84.75 71.29 86.82C67.51 83.27 67.76 77.39 69.55 72.67C71.34 67.95 74.37 63.62 75.48 58.72C76.41 54.59 75.91 50.31 76.4 46.12C76.85 42.31 79.64 34.12 84.98 34.32C91.51 34.62 93.61 43.17 93.52 47.84Z" fill="#41283D"/>
<path d="M78.04 63.81C73.76 63.01 67.23 66.98 66.2 70.44C65.17 73.9 64.96 78.73 69.05 76.85C73.14 74.97 76.46 68.85 73.22 68.47C72.2865 68.3422 71.3366 68.4123 70.4321 68.6759C69.5275 68.9396 68.6886 69.3907 67.97 70C67.97 70 70.73 66.26 73.41 65.18C74.8981 64.5542 76.4509 64.0947 78.04 63.81Z" fill="#E39073"/>
<path d="M70.07 78.89C70.63 80.17 69.07 82.17 68.79 83.48C68.5201 84.7019 68.5201 85.9681 68.79 87.19C67.11 86.6 65.73 84.33 65.11 82.71C64.8076 83.185 64.437 83.6129 64.01 83.98C63.4411 83.2368 62.958 82.4317 62.57 81.58C60.7442 83.3225 58.3594 84.3608 55.84 84.51C56.51 81.65 53.64 79.96 53.99 77.09C54.64 71.68 63.82 72.8 66.99 75.09C68.14 75.93 69.75 77.32 70.07 78.89Z" fill="#41283D"/>
<path d="M33.4 77.28C34.12 74.71 32.94 72.05 32.05 69.53C30.3856 64.787 29.7051 59.7547 30.05 54.74C30.33 50.74 31.25 46.85 31.41 42.86C31.6 38.33 30.5 32.5 26.63 29.58C22.76 26.66 16.09 27.67 12.7 30.93C10.15 33.38 8.90999 36.84 7.32999 40C5.74999 43.16 3.43999 46.33 0.019989 47.2C1.22089 48.1521 2.61048 48.8379 4.09662 49.212C5.58275 49.5861 7.13145 49.64 8.63998 49.37C5.74998 49.91 4.94997 57.04 5.12997 59.13C5.47997 63.13 8.12999 66.41 9.60999 70.05C10.73 72.85 11.21 76.22 9.53998 78.73C12.0648 79.0357 14.626 78.7603 17.0281 77.925C19.4302 77.0896 21.6097 75.7163 23.4 73.91C23.4137 76.8315 22.4765 79.6781 20.73 82.02L24.73 80.51L23.61 83.45C27.61 82.64 32.31 81.21 33.4 77.28Z" fill="#41283D"/>
<path d="M20.71 33.97C20.57 34.39 12.35 56.25 16.25 69.53C20.15 82.81 47.47 89.71 61.18 79.29C74.89 68.87 75.49 45.29 75.49 45.29L63.34 26.29C63.34 26.29 32.71 22.23 32.29 22.59C31.87 22.95 20.71 33.97 20.71 33.97Z" fill="#EAAD82"/>
<path d="M62.26 30.72C60.6352 28.2801 58.2997 26.3985 55.57 25.33C47.81 24.33 36.57 22.9 33.25 22.65L32.12 22.8C30.66 24.19 20.71 34.01 20.71 34.01C20.71 34.01 19.81 36.44 18.78 39.94C21.6047 40.8921 24.6128 41.1709 27.5643 40.7542C30.5159 40.3375 33.3293 39.2369 35.78 37.54C37.271 40.0233 39.6328 41.8628 42.4056 42.7002C45.1785 43.5376 48.1637 43.3129 50.78 42.07C50.1887 45.967 50.9601 49.9487 52.9642 53.3428C54.9682 56.7369 58.0821 59.3356 61.78 60.7C60.38 55.79 61.88 50.59 63.02 45.61C64.16 40.63 64.93 35.03 62.26 30.72Z" fill="#E39073"/>
<path d="M49.61 69.33C49.61 70.5523 49.9724 71.7471 50.6515 72.7634C51.3306 73.7797 52.2957 74.5718 53.425 75.0396C54.5542 75.5073 55.7968 75.6297 56.9956 75.3913C58.1944 75.1528 59.2956 74.5642 60.1599 73.6999C61.0242 72.8356 61.6128 71.7344 61.8512 70.5356C62.0897 69.3368 61.9673 68.0943 61.4996 66.965C61.0318 65.8358 60.2397 64.8706 59.2234 64.1915C58.2071 63.5125 57.0123 63.15 55.79 63.15C54.1509 63.15 52.579 63.8011 51.4201 64.9601C50.2611 66.1191 49.61 67.6909 49.61 69.33Z" fill="#E39073"/>
<path d="M16.25 69.53C15.5315 66.8873 15.1782 64.1586 15.2 61.42C16.8852 61.0662 18.6418 61.3619 20.1183 62.248C21.5947 63.1341 22.6819 64.5452 23.1623 66.1988C23.6427 67.8523 23.4808 69.6263 22.709 71.1656C21.9372 72.7049 20.6125 73.8958 19 74.5C17.7491 73.0516 16.8127 71.3592 16.25 69.53Z" fill="#E39073"/>
<path d="M51.61 48.54C52.2 47.19 44.24 44.6 43.19 46.68C42.14 48.76 50.89 50.11 51.61 48.54Z" fill="#41283D"/>
<path d="M31.61 45.36C31.47 43.9 23.25 45.43 23.32 47.77C23.39 50.11 31.77 47.07 31.61 45.36Z" fill="#41283D"/>
<path d="M31.29 55.32C31.1 55.67 30.57 55.77 29.86 55.67C29.5 55.62 29.07 55.48 28.8 55.45C28.5843 55.4205 28.3657 55.4205 28.15 55.45C27.15 55.59 25.55 56.82 24.96 56.25C24.67 55.99 24.64 55.46 24.96 54.74C25.1624 54.3001 25.4515 53.9055 25.81 53.58C26.3248 53.1413 26.9453 52.8449 27.61 52.72C28.3561 52.5685 29.1317 52.6853 29.8 53.05C30.184 53.2802 30.5228 53.5784 30.8 53.93C31.29 54.47 31.49 54.98 31.29 55.32Z" fill="#41283D"/>
<path d="M47.31 55.32C47.12 55.67 46.58 55.77 45.87 55.67C45.51 55.62 45.08 55.48 44.81 55.45C44.5977 55.4204 44.3823 55.4204 44.17 55.45C43.17 55.59 41.57 56.82 40.98 56.25C40.69 55.99 40.65 55.46 40.98 54.74C41.1824 54.3001 41.4715 53.9055 41.83 53.58C42.3391 53.1444 42.9524 52.8482 43.61 52.72C44.3561 52.5685 45.1317 52.6853 45.8 53.05C46.184 53.2802 46.5228 53.5784 46.8 53.93C47.31 54.47 47.5 54.98 47.31 55.32Z" fill="#41283D"/>
<path d="M79.03 19.18C75.94 14.69 68.31 11.57 63.15 10.55C57.99 9.52998 52.95 9.41 49.09 13.26C47.4461 14.9708 46.1218 16.9623 45.18 19.14C54.51 19.84 64.43 20.95 72.72 25.48C70.31 20.05 64.53 18.17 60.25 14.72C66.06 14.77 71.78 18.6 76.67 21.32C75.29 19.44 73.21 18.07 71.67 16.47C73.93 16.82 79.03 19.18 79.03 19.18Z" fill="#702D3F"/>
<path d="M39.7 153.6L47.34 192.71L33.67 193.03L27.13 157.85L39.7 153.6Z" fill="#EAAD82"/>
<path d="M28.37 166.4C28.01 164.8 35.15 167.93 35.77 168.4C38.17 170.28 40.31 173.32 38.66 175.65C37.19 177.72 33.61 177.04 30.56 176.15L33.56 192.37L34.07 193.01L47.38 192.7L39.74 153.59L27.16 157.83L28.37 166.4Z" fill="#E39073"/>
<path d="M27.14 170.18L29.14 189.34C29.14 189.34 20.92 188.14 22.47 195.66H49.08L45.61 175.91L27.14 170.18Z" fill="#CED2D6"/>
<path d="M41.61 162.04L39.61 153.6L27.03 157.84C27.03 157.84 27.17 158.45 27.5 159.94C32.1652 160.876 36.8744 161.577 41.61 162.04Z" fill="#CC715D"/>
<path d="M23.93 193.2C23.7605 192.808 23.7274 192.37 23.8362 191.956C23.945 191.543 24.1893 191.178 24.53 190.92C25.2332 190.46 26.0348 190.172 26.87 190.08C27.72 189.93 28.87 189.89 29.28 190.71C29.69 191.53 28.95 192.45 28.28 193C27.6755 193.54 26.9528 193.93 26.17 194.14C25.7452 194.236 25.301 194.197 24.8994 194.029C24.4978 193.86 24.1589 193.571 23.93 193.2Z" fill="#F2E6D7"/>
<path d="M55.56 154.6L63.2 193.71L49.53 194.03L42.98 158.85L55.56 154.6Z" fill="#EAAD82"/>
<path d="M44.23 167.4C43.87 165.8 51 168.93 51.62 169.4C54.03 171.28 56.17 174.32 54.52 176.65C53.05 178.72 49.47 178.04 46.41 177.15L49.41 193.37C49.57 193.59 49.74 193.8 49.92 194.01L63.23 193.7L55.61 154.6L43.03 158.84L44.23 167.4Z" fill="#E39073"/>
<path d="M57.19 161.72L55.61 154.6L43.03 158.84L43.81 162.34C48.2796 162.543 52.7583 162.336 57.19 161.72Z" fill="#CC715D"/>
<path d="M42.94 170.18L44.94 189.34C44.94 189.34 36.73 188.14 38.27 195.66H64.88L61.44 175.91L42.94 170.18Z" fill="#E0E2E5"/>
<path d="M39.73 193.2C39.555 192.809 39.5191 192.369 39.6282 191.954C39.7373 191.54 39.985 191.175 40.33 190.92C41.0296 190.46 41.828 190.172 42.66 190.08C43.51 189.93 44.66 189.89 45.07 190.71C45.48 191.53 44.75 192.45 44.07 193C43.4668 193.542 42.7437 193.932 41.96 194.14C41.5367 194.236 41.0941 194.196 40.6942 194.028C40.2943 193.859 39.9572 193.57 39.73 193.2Z" fill="#F2E6D7"/>
<path d="M21.73 123.85C18.47 125.76 15.35 127.92 12.25 130.09L10.55 127.37C9.96905 126.521 9.43168 125.643 8.93997 124.74C7.30807 121.98 6.48993 118.815 6.57998 115.61C7.12998 108.14 15.96 100.61 15.96 100.61L25.16 108.71L19.43 116.33C20.048 118.88 20.8159 121.391 21.73 123.85Z" fill="#E39073"/>
<path d="M22.11 124.86C22.9724 127.129 23.9503 129.351 25.04 131.52C25.84 131.07 29.46 130.69 30.04 131.43C30.2903 131.813 30.402 132.269 30.3565 132.724C30.311 133.179 30.1111 133.605 29.79 133.93C30.481 134.923 30.8605 136.1 30.88 137.31C30.78 138.44 29.71 139.54 28.61 139.31C28.4485 140.084 27.9882 140.763 27.3291 141.199C26.67 141.635 25.8653 141.794 25.09 141.64C24.9655 142.024 24.7494 142.373 24.4601 142.655C24.1709 142.937 23.8174 143.145 23.43 143.26C23.0275 143.406 22.5936 143.443 22.1721 143.368C21.7507 143.292 21.3567 143.107 21.03 142.83C19.43 141.17 15.86 135.78 12.86 131.05C15.86 128.87 18.92 126.72 22.11 124.86Z" fill="#CED2D6"/>
<path d="M9.07999 108.72C10.9881 105.715 13.3034 102.989 15.96 100.62L25.16 108.72L20.16 115.32C16.43 113.2 12.82 110.83 9.07999 108.72Z" fill="#CC715D"/>
<path d="M17.19 122.89C15.59 123.89 14 124.89 12.37 125.89C11.69 126.29 10.99 126.64 10.29 127C9.83997 126.32 9.37997 125.58 8.93997 124.76C7.30807 122 6.48993 118.835 6.57998 115.63C6.85115 113.215 7.67587 110.895 8.98998 108.85C11.25 110.42 12.67 113.12 13.88 115.64C15.09 118.16 16.25 120.41 17.19 122.89Z" fill="#EAAD82"/>
<path d="M39.55 88.47C41.42 88.68 39.96 89.47 39.96 89.47C41.31 90.71 33.2 94.89 33.96 95.71C34.16 103.52 21.85 115.62 21.85 115.62L8.75998 107.01L15.57 98.16C20.61 91.65 31.4 87.57 39.55 88.47Z" fill="#579391"/>
<path d="M30.25 100.84L17.99 113.06L21.87 115.62C25.1146 112.352 28.0287 108.771 30.57 104.93L30.25 100.84Z" fill="#477780"/>
<path d="M21.11 94.91C21.4368 96.3162 21.3769 97.7847 20.9368 99.1597C20.4966 100.535 19.6926 101.765 18.61 102.72C16.3869 104.57 13.6105 105.625 10.72 105.72L21.11 94.91Z" fill="#67A999"/>
<path d="M25.04 131.52L16.04 135.95L8.60999 127.09C8.60999 127.09 19.01 120.4 22.22 119.69L25.04 131.52Z" fill="#CED2D6"/>
<path d="M17.2 125C16.59 125 9.79999 127.46 9.79999 127.46L16.12 134.71L18.53 133.37L17.2 125Z" fill="#F2E6D7"/>
<path d="M69.39 154.28C63.23 163.28 32.3 163.2 16.73 154.35L24.39 129.08L60.11 129.55L69.39 154.28Z" fill="#477780"/>
<path d="M16.73 154.35C27.83 160.65 46.73 162.5 58.9 159.79C61.551 157.591 63.937 155.091 66.01 152.34L59.25 136.08C38.42 140.65 26.25 134.27 22.09 131.9L16.73 154.35Z" fill="#579391"/>
<path d="M24.02 135.25C27.8472 137.373 32.0058 138.833 36.32 139.57C33.32 143.41 31.97 149.64 30.03 154.13C34.23 151.13 35.5 144.13 39.88 141.44C44.7 138.44 50.95 138.9 56.78 139.44C58.36 142.63 61.1 147.94 61.22 151.44C61.34 154.94 59.5 158.59 56.16 159.37L46.43 147.59C47.64 150.32 48.72 153.87 46.63 155.78C45.36 156.94 43.4 156.95 41.63 156.85C33.7136 156.406 25.8734 155.064 18.26 152.85C20.01 147.06 21.77 139.93 24.02 135.25Z" fill="#67A999"/>
<path d="M46.91 131.9C51.44 132.02 56.29 132.28 60.59 130.95L61.46 130.67L54.12 89.51C54.12 89.51 38.82 88.84 36.05 88.84C33.28 88.84 27.85 107.84 22.56 126.39C30.24 130.22 38.52 131.72 46.91 131.9Z" fill="#67A999"/>
<path d="M22.61 121.28C22.01 123.08 23.19 124.28 22.61 126.38C30.29 130.22 38.61 131.67 46.97 131.9C51.5 132.02 56.35 132.28 60.65 130.95L61.55 130.66L56.95 102.3C56.95 102.3 56.95 93.99 53.89 91.37C48.89 87.15 37.81 88.7 36.11 88.84C30.77 89.26 28.65 100.65 28.65 100.65C31.75 101.04 37.49 101.44 40.56 101.44C44.19 101.44 47.51 100.6 50.85 100.17C48.03 104.45 42.64 107.84 38.55 110.78C35.61 112.89 31.37 114.25 28.9 116.63C35.71 117.07 45.74 114.63 51.47 111.1C51.52 115.63 52.08 119 46.57 122.45C42.36 125.05 25.52 123.51 22.61 121.28Z" fill="#579391"/>
<path d="M37.76 125.66C46.83 126.5 58.66 124.77 58.5 124.17C58.5 124.17 56.5 102.53 56.89 102.3C56.89 102.3 57.34 104.35 57.5 105.1L62.17 134.44C62.199 134.572 62.2012 134.708 62.1764 134.84C62.1516 134.972 62.1003 135.098 62.0256 135.21C61.9509 135.322 61.8543 135.418 61.7416 135.492C61.629 135.566 61.5026 135.616 61.37 135.64C34.19 139.9 25.27 125.07 23.37 123.49C24.33 124.26 26.87 124.65 37.76 125.66Z" fill="#477780"/>
<path d="M62.03 125.98L62.97 135.85C54.2159 136.532 45.4254 136.616 36.66 136.1C24.53 135.17 19.66 132.43 19.66 132.43L21.79 123.32C27.1072 125.815 32.8477 127.284 38.71 127.65C48.97 128.44 62.03 125.98 62.03 125.98Z" fill="#D8A24E"/>
<path d="M43.61 126.87C43.61 126.87 36.34 126.87 33.13 125.99L32.62 136.19C32.62 136.19 40.31 136.94 43.82 137.05L43.61 126.87Z" fill="#E1CC53"/>
<path d="M42.93 136.43L33.29 135.61L33.62 126.51L42.95 127.52L42.93 136.43Z" fill="#D8A24E"/>
<path d="M41.81 128.22L41.79 135.93L34.44 135.12L34.46 127.25L41.81 128.22Z" fill="#D07E3D"/>
<path d="M32.67 127.09C29.1309 126.259 25.6502 125.196 22.25 123.91L22.07 124.7C24.0145 124.804 25.9372 125.161 27.79 125.76C31.06 126.76 32.66 127.44 32.66 127.44" fill="#E1CC53"/>
<path d="M43.88 128.3V128.72C43.88 128.72 59.38 128.36 61.88 127.72V126.32C58.9702 127.028 56.0067 127.493 53.02 127.71C48.83 127.91 43.88 128.3 43.88 128.3Z" fill="#E1CC53"/>
<path d="M32.2 135.35L32.66 128.45L31.48 133.34L20.68 129.34L20.14 132.2C20.14 132.2 22.78 134.48 32.2 135.35Z" fill="#D07E3D"/>
<path d="M43.88 129.61L44.19 136.09C44.19 136.09 54.85 136.67 62.5 135.59L61.84 130.39L61.25 132.81L44.62 133.57L43.88 129.61Z" fill="#D07E3D"/>
<path d="M66.61 123.85C69.88 125.76 72.99 127.92 76.1 130.09L77.8 127.37C78.32 126.6 78.88 125.71 79.41 124.74C81.0313 121.976 81.8487 118.814 81.77 115.61C81.22 108.14 72.38 100.61 72.38 100.61L63.19 108.71L68.92 116.33C68.3034 118.881 67.532 121.393 66.61 123.85Z" fill="#E39073"/>
<path d="M66.21 124.86C65.3519 127.13 64.3739 129.353 63.28 131.52C62.48 131.07 58.87 130.69 58.33 131.43C58.0797 131.813 57.9679 132.269 58.0134 132.724C58.0589 133.179 58.2589 133.605 58.58 133.93C57.8839 134.921 57.5039 136.099 57.49 137.31C57.59 138.44 58.66 139.54 59.75 139.31C59.9114 140.086 60.3731 140.766 61.0345 141.203C61.6959 141.639 62.5032 141.797 63.28 141.64C63.4045 142.024 63.6206 142.373 63.9098 142.655C64.199 142.937 64.5526 143.145 64.94 143.26C65.3408 143.406 65.7732 143.444 66.1931 143.368C66.613 143.292 67.0053 143.107 67.33 142.83C68.94 141.17 72.51 135.78 75.51 131.05C72.46 128.87 69.41 126.72 66.21 124.86Z" fill="#CED2D6"/>
<path d="M79.25 108.72C77.34 105.714 75.0211 102.987 72.36 100.62L63.17 108.72L68.17 115.32C71.9 113.2 75.51 110.83 79.25 108.72Z" fill="#CC715D"/>
<path d="M71.14 122.89C72.74 123.89 74.33 124.89 75.96 125.89C76.64 126.29 77.33 126.64 78.03 127C78.48 126.32 78.94 125.58 79.39 124.76C81.0114 121.996 81.8287 118.834 81.75 115.63C81.4743 113.216 80.6499 110.897 79.34 108.85C77.08 110.42 75.66 113.12 74.45 115.64C73.24 118.16 72.08 120.41 71.14 122.89Z" fill="#EAAD82"/>
<path d="M51.54 89.14C49.67 89.35 48.36 89.47 48.36 89.47C47.02 90.71 55.13 94.89 54.36 95.71C54.16 103.52 66.47 115.62 66.47 115.62L79.56 107.01L72.76 98.16C70.2982 94.9576 67.0515 92.4447 63.334 90.8645C59.6166 89.2843 55.5542 88.6904 51.54 89.14Z" fill="#579391"/>
<path d="M67.21 94.91C66.8906 96.3159 66.9571 97.7821 67.4024 99.1533C67.8478 100.525 68.6555 101.75 69.74 102.7C71.9631 104.55 74.7395 105.605 77.63 105.7L67.21 94.91Z" fill="#67A999"/>
<path d="M63.28 131.52L72.28 135.95L79.72 127.09C79.72 127.09 69.32 120.4 66.12 119.69L63.28 131.52Z" fill="#CED2D6"/>
<path d="M71.12 125C71.74 125 78.53 127.46 78.53 127.46L72.21 134.72L69.8 133.38L71.12 125Z" fill="#F2E6D7"/>
<path d="M38.04 86.25L38.39 89.15L51.47 89.93L52.03 86.25H38.04Z" fill="#579391"/>
<path d="M82.91 38.61C85.66 33.77 85.45 27.78 83.62 22.53C82.6857 19.9031 81.2092 17.5021 79.2866 15.483C77.3639 13.4639 75.038 11.8717 72.46 10.81C67.95 8.98 62.94 8.90001 58.17 7.89001C53.4 6.88001 48.43 4.5 46.56 0C45.2227 1.52991 44.2519 3.34472 43.7216 5.30634C43.1914 7.26795 43.1156 9.32468 43.5 11.32C40.1 7.24001 33.5 6.15001 28.67 8.32001C23.84 10.49 20.17 14.58 16.41 18.32C12.65 22.06 8.40998 25.74 3.19998 26.78C6.4541 32.2105 11.7097 36.1467 17.8362 37.7419C23.9628 39.3371 30.4707 38.4639 35.96 35.31C37.6538 38.05 40.3348 40.0352 43.4499 40.8559C46.5649 41.6765 49.8761 41.2699 52.7 39.72C52.7 45.42 53.19 50.9 56.02 55.86C58.02 59.31 60.73 62.51 64.42 63.97C68.11 65.43 72.85 64.68 75.2 61.49C77.68 63.03 80.65 62.54 83.01 60.83C85.3106 58.9908 86.8955 56.4048 87.49 53.52C88.79 48.16 87.35 41.87 82.91 38.61Z" fill="#41283D"/>
<path d="M65.77 58.24C65.9554 61.1412 65.1937 64.0242 63.5995 66.4552C62.0052 68.8862 59.6647 70.7338 56.93 71.72C60.1681 67.1009 61.5399 61.4283 60.77 55.84C63.49 55.42 65.54 55.49 65.77 58.24Z" fill="#41283D"/>
<path d="M66.71 62.62C70.71 59.62 79.51 56.96 81.3 61.98C83.09 67 75.95 80.53 68.2 81.1C60.45 81.67 60.78 74.32 61.67 70.38C62.403 67.2888 64.1839 64.5467 66.71 62.62Z" fill="#EAAD82"/>
<path d="M78.04 63.81C73.76 63.01 67.23 66.98 66.2 70.44C65.17 73.9 64.96 78.73 69.05 76.85C73.14 74.97 76.46 68.85 73.22 68.47C72.2865 68.3422 71.3366 68.4123 70.4321 68.6759C69.5275 68.9396 68.6886 69.3907 67.97 70C67.97 70 70.73 66.26 73.41 65.18C74.8981 64.5542 76.4509 64.0947 78.04 63.81Z" fill="#E39073"/>
<path d="M34.61 66.37C34.61 66.07 34.05 65.78 33.83 65.12C33.7661 64.9609 33.7322 64.7914 33.73 64.62C33.7248 64.5902 33.7248 64.5598 33.73 64.53C33.73 64.53 33.73 64.34 33.73 64.38C33.746 64.2784 33.7694 64.1781 33.8 64.08C34.0303 63.5214 34.3186 62.9885 34.66 62.49C36.3 59.87 37.22 57.49 36.72 57.18C36.22 56.87 34.5 58.75 32.86 61.37C32.3677 62.0683 32.027 62.8621 31.86 63.7C31.8402 63.9229 31.8402 64.1471 31.86 64.37C31.8526 64.4765 31.8526 64.5835 31.86 64.69C31.8834 64.8125 31.9169 64.9329 31.96 65.05C32.082 65.4266 32.2909 65.7692 32.57 66.05C32.7515 66.2432 32.9697 66.3984 33.2117 66.5066C33.4538 66.6147 33.7149 66.6737 33.98 66.68C34.42 66.65 34.61 66.51 34.61 66.37Z" fill="#E39073"/>
<path d="M32.61 70.4C36.9691 69.2147 41.0831 67.2644 44.76 64.64C44.7187 66.0303 44.2941 67.3821 43.5331 68.5464C42.7721 69.7106 41.7044 70.6421 40.4475 71.2379C39.1907 71.8337 37.7937 72.0708 36.4107 71.9229C35.0277 71.7751 33.7124 71.248 32.61 70.4Z" fill="#D7514C"/>
<path d="M80.52 31.48C81.6525 27.6002 81.2226 23.4312 79.3223 19.8641C77.4219 16.2969 74.2018 13.6145 70.35 12.39C66.29 11.1 61.91 11.53 57.68 11.07C53.45 10.61 48.86 8.82001 47.17 4.92001C46.3999 6.43711 46.1539 8.16654 46.4705 9.8382C46.7871 11.5098 47.6484 13.0296 48.92 14.16C43.8247 11.4079 37.8816 10.6699 32.2681 12.0923C26.6545 13.5147 21.7799 16.9936 18.61 21.84C17.13 24.11 16.06 27.13 17.46 29.45C18.86 31.77 21.88 32.25 24.54 32.25C30.5431 32.2174 36.4463 30.7099 41.73 27.86C39.61 30.28 41.17 34.44 44.03 35.86C46.89 37.28 50.38 36.74 53.4 35.63C56.42 34.52 59.3 32.93 62.46 32.37C60.6985 34.5102 58.4857 36.2347 55.98 37.42C57.5407 37.8137 59.1891 37.6621 60.652 36.9906C62.1149 36.319 63.3043 35.1678 64.0232 33.7276C64.7421 32.2874 64.9474 30.6449 64.6049 29.0721C64.2623 27.4993 63.3927 26.0908 62.14 25.08C65.8715 26.2181 69.179 28.4429 71.64 31.47C69.6065 26.1556 65.6673 21.7887 60.59 19.22C61.8142 19.0024 63.0706 19.0458 64.2769 19.3474C65.4832 19.649 66.6122 20.2019 67.59 20.97L62.59 15.97C66.0246 16.2363 69.2405 17.7596 71.6223 20.2484C74.0042 22.7373 75.3848 26.017 75.5 29.46C76.1126 26.5589 75.9679 23.549 75.08 20.72C77.94 23.72 80.3 27.4 80.52 31.48Z" fill="#4E2B4B"/>
<path d="M73.18 36.23C74.6338 39.7828 74.8763 43.7156 73.87 47.42C75.0333 45.9256 75.8265 44.177 76.1845 42.3173C76.5425 40.4576 76.4553 38.5395 75.93 36.72C79.8129 39.2239 82.7755 42.9236 84.37 47.26C84.7074 45.2983 84.5995 43.2858 84.0542 41.3713C83.509 39.4569 82.5403 37.6896 81.22 36.2C84.74 35.34 88.39 37.97 89.83 41.3C91.27 44.63 91 48.42 90.5 52.01C90 55.6 89.29 59.25 89.92 62.82C87.2282 59.9283 85.5504 56.2393 85.14 52.31C85.14 54.47 85.21 56.62 85.25 58.78L78.67 50.01C78.2888 51.6221 77.5242 53.1183 76.4409 54.3715C75.3577 55.6248 73.9879 56.5979 72.448 57.2084C70.908 57.8188 69.2435 58.0484 67.5958 57.8778C65.9481 57.7071 64.366 57.1412 62.9838 56.228C61.6017 55.3149 60.4605 54.0816 59.6572 52.6329C58.8538 51.1843 58.412 49.5631 58.3694 47.9071C58.3268 46.2512 58.6847 44.6094 59.4125 43.1213C60.1403 41.6333 61.2166 40.343 62.55 39.36C61.5842 41.1732 61.1815 43.2333 61.3935 45.2767C61.6055 47.3201 62.4225 49.2537 63.74 50.83C63.4473 48.5396 63.6406 46.2132 64.3074 44.0025C64.9743 41.7918 66.0996 39.7465 67.61 38V46.24C70.4201 43.531 72.3593 40.046 73.18 36.23Z" fill="#4E2B4B"/>
<path d="M33.36 14.01C30.06 14.08 26.54 16.17 24.44 18.55C24.1069 18.846 23.8496 19.2174 23.6896 19.6332C23.5295 20.049 23.4714 20.4971 23.52 20.94C23.81 22.03 25.13 22.43 26.25 22.54C28.8942 22.7673 31.5529 22.3236 33.98 21.25C35.2417 20.774 36.3295 19.9268 37.1 18.82C38.77 16.14 36.46 14.12 33.81 14.02L33.36 14.01Z" fill="#644768"/>
<path d="M56.69 11.35C51.61 9.97 50.47 17.24 56.22 15.99C57.53 15.71 58.87 14.62 58.69 13.29C58.5807 12.8075 58.3335 12.3671 57.9784 12.0227C57.6233 11.6782 57.1756 11.4445 56.69 11.35Z" fill="#644768"/>
<path d="M51.54 89.14C51.54 89.14 55.75 93.86 60.67 89.93C59.3714 88.964 57.8296 88.3785 56.2171 88.2389C54.6047 88.0994 52.9852 88.4114 51.54 89.14Z" fill="#F2E6D7"/>
<path d="M38.39 88.38C37.0918 89.395 35.5453 90.0435 33.9115 90.2581C32.2777 90.4726 30.6162 90.2454 29.1 89.6C29.1 89.6 33.29 85.44 38.39 88.38Z" fill="#F2E6D7"/>
</svg>
