<svg xmlns="http://www.w3.org/2000/svg" xmlns:xlink="http://www.w3.org/1999/xlink" viewBox="0 0 64.98 63.37"><defs><style>.cls-1{isolation:isolate;}.cls-10,.cls-12,.cls-13,.cls-14,.cls-15,.cls-17,.cls-18,.cls-19,.cls-2,.cls-20,.cls-21,.cls-22,.cls-23,.cls-24,.cls-25,.cls-26,.cls-27,.cls-28,.cls-30,.cls-4,.cls-5,.cls-7,.cls-8,.cls-9{fill-rule:evenodd;}.cls-2{fill:url(#radial-gradient);}.cls-19,.cls-20,.cls-21,.cls-3{opacity:0.4;}.cls-13,.cls-16,.cls-18,.cls-19,.cls-20,.cls-21,.cls-22,.cls-3,.cls-6{mix-blend-mode:multiply;}.cls-4{fill:url(#radial-gradient-2);}.cls-11,.cls-14,.cls-15,.cls-23,.cls-24,.cls-25,.cls-26,.cls-27,.cls-28,.cls-29,.cls-5,.cls-8{mix-blend-mode:screen;}.cls-5{fill:url(#radial-gradient-3);}.cls-6,.cls-8{opacity:0.65;}.cls-7{fill:url(#radial-gradient-4);}.cls-8{fill:url(#radial-gradient-5);}.cls-9{fill:url(#radial-gradient-6);}.cls-10{fill:url(#radial-gradient-7);}.cls-11{opacity:0.2;}.cls-12{fill:url(#radial-gradient-8);}.cls-13,.cls-18{opacity:0.55;}.cls-13{fill:url(#New_Gradient_Swatch_60);}.cls-14,.cls-28{opacity:0.75;}.cls-14{fill:url(#radial-gradient-9);}.cls-15{fill:url(#radial-gradient-10);}.cls-16,.cls-29{opacity:0.5;}.cls-17{fill:url(#radial-gradient-11);}.cls-18{fill:url(#New_Gradient_Swatch_60-2);}.cls-19{fill:url(#New_Gradient_Swatch_60-3);}.cls-20{fill:url(#New_Gradient_Swatch_60-4);}.cls-21{fill:url(#New_Gradient_Swatch_60-5);}.cls-22{fill:url(#New_Gradient_Swatch_60-6);}.cls-23{fill:url(#radial-gradient-12);}.cls-24{fill:url(#radial-gradient-13);}.cls-25{fill:url(#radial-gradient-14);}.cls-26{fill:url(#radial-gradient-15);}.cls-27{fill:url(#radial-gradient-16);}.cls-28{fill:url(#radial-gradient-17);}.cls-30{fill:url(#radial-gradient-18);}</style><radialGradient id="radial-gradient" cx="50.76" cy="37.67" r="59.35" gradientUnits="userSpaceOnUse"><stop offset="0" stop-color="#ffaddb"/><stop offset="0.07" stop-color="#fda1d4"/><stop offset="0.2" stop-color="#f880c2"/><stop offset="0.37" stop-color="#ef4ca5"/><stop offset="0.5" stop-color="#e8218d"/><stop offset="0.96" stop-color="#63004e"/></radialGradient><radialGradient id="radial-gradient-2" cx="60.47" cy="49.32" r="41.93" gradientUnits="userSpaceOnUse"><stop offset="0.45" stop-color="#fff"/><stop offset="0.5" stop-color="#f8f4f9"/><stop offset="0.58" stop-color="#e7d6e8"/><stop offset="0.69" stop-color="#caa6cd"/><stop offset="0.83" stop-color="#a263a8"/><stop offset="0.97" stop-color="#700f79"/><stop offset="1" stop-color="#670070"/></radialGradient><radialGradient id="radial-gradient-3" cx="65.21" cy="59.45" r="36.26" gradientUnits="userSpaceOnUse"><stop offset="0.04"/><stop offset="0.84"/><stop offset="0.85" stop-color="#160b11"/><stop offset="0.9" stop-color="#683652"/><stop offset="0.93" stop-color="#a95886"/><stop offset="0.96" stop-color="#d770ab"/><stop offset="0.99" stop-color="#f47fc1"/><stop offset="1" stop-color="#ff85ca"/></radialGradient><radialGradient id="radial-gradient-4" cx="47.39" cy="37.89" r="59.82" gradientUnits="userSpaceOnUse"><stop offset="0" stop-color="#843e8c"/><stop offset="1" stop-color="#340e47"/></radialGradient><radialGradient id="radial-gradient-5" cx="56.05" cy="49.42" r="22.11" gradientUnits="userSpaceOnUse"><stop offset="0" stop-color="#ff8fcd"/><stop offset="1"/></radialGradient><radialGradient id="radial-gradient-6" cx="47.94" cy="38.86" r="58.52" gradientUnits="userSpaceOnUse"><stop offset="0" stop-color="#f242f5"/><stop offset="1" stop-color="#66005e"/></radialGradient><radialGradient id="radial-gradient-7" cx="71.31" cy="51.13" r="26.07" xlink:href="#radial-gradient-6"/><radialGradient id="radial-gradient-8" cx="47.78" cy="43.01" r="42.56" gradientUnits="userSpaceOnUse"><stop offset="0" stop-color="#f946de"/><stop offset="0.12" stop-color="#cc39b6"/><stop offset="0.39" stop-color="#5d1a53"/><stop offset="0.6"/></radialGradient><radialGradient id="New_Gradient_Swatch_60" cx="46.01" cy="49.93" r="11.47" gradientUnits="userSpaceOnUse"><stop offset="0" stop-color="#fff"/><stop offset="0.1" stop-color="#fcf9fc"/><stop offset="0.22" stop-color="#f2e9f3"/><stop offset="0.36" stop-color="#e2cee3"/><stop offset="0.51" stop-color="#cba8ce"/><stop offset="0.68" stop-color="#ae77b3"/><stop offset="0.84" stop-color="#8b3d92"/><stop offset="1" stop-color="#670070"/></radialGradient><radialGradient id="radial-gradient-9" cx="44.06" cy="39.04" r="38.93" xlink:href="#radial-gradient-5"/><radialGradient id="radial-gradient-10" cx="44.23" cy="66.71" r="15.91" xlink:href="#radial-gradient-5"/><radialGradient id="radial-gradient-11" cx="59.37" cy="53.52" r="39.56" gradientUnits="userSpaceOnUse"><stop offset="0.49" stop-color="#fff"/><stop offset="0.54" stop-color="#fcf9fc"/><stop offset="0.61" stop-color="#f2e9f3"/><stop offset="0.68" stop-color="#e2cee3"/><stop offset="0.75" stop-color="#cba8ce"/><stop offset="0.84" stop-color="#ae77b3"/><stop offset="0.92" stop-color="#8b3d92"/><stop offset="1" stop-color="#670070"/></radialGradient><radialGradient id="New_Gradient_Swatch_60-2" cx="87.31" cy="25.32" r="28.45" xlink:href="#New_Gradient_Swatch_60"/><radialGradient id="New_Gradient_Swatch_60-3" cx="48.72" cy="78.19" r="10.5" xlink:href="#New_Gradient_Swatch_60"/><radialGradient id="New_Gradient_Swatch_60-4" cx="64.94" cy="80.52" r="10.33" xlink:href="#New_Gradient_Swatch_60"/><radialGradient id="New_Gradient_Swatch_60-5" cx="83.54" cy="58.7" r="20.2" xlink:href="#New_Gradient_Swatch_60"/><radialGradient id="New_Gradient_Swatch_60-6" cx="44.86" cy="42.13" r="15.09" xlink:href="#New_Gradient_Swatch_60"/><radialGradient id="radial-gradient-12" cx="41.45" cy="48.01" r="20.53" gradientUnits="userSpaceOnUse"><stop offset="0" stop-color="#f7c7ff"/><stop offset="1"/></radialGradient><radialGradient id="radial-gradient-13" cx="53.7" cy="43.41" r="10.55" xlink:href="#radial-gradient-12"/><radialGradient id="radial-gradient-14" cx="44.38" cy="38.43" r="11.02" xlink:href="#radial-gradient-12"/><radialGradient id="radial-gradient-15" cx="38.69" cy="77.08" r="12.83" xlink:href="#radial-gradient-12"/><radialGradient id="radial-gradient-16" cx="61.75" cy="72.54" r="11.1" xlink:href="#radial-gradient-5"/><radialGradient id="radial-gradient-17" cx="72.04" cy="51.52" r="18.98" xlink:href="#radial-gradient-5"/><radialGradient id="radial-gradient-18" cx="72.79" cy="62.26" r="42.56" gradientUnits="userSpaceOnUse"><stop offset="0.04"/><stop offset="0.92"/><stop offset="0.93" stop-color="#160b11"/><stop offset="0.95" stop-color="#683652"/><stop offset="0.97" stop-color="#a95886"/><stop offset="0.98" stop-color="#d770ab"/><stop offset="0.99" stop-color="#f47fc1"/><stop offset="1" stop-color="#ff85ca"/></radialGradient></defs><title>2107.w032.n003.22B.p1.22 [преобразованный]</title><g class="cls-1"><g id="Layer_1" data-name="Layer 1"><path class="cls-2" d="M63.27,25.18A31.69,31.69,0,1,1,31.59,56.86,31.69,31.69,0,0,1,63.27,25.18Z" transform="translate(-29.97 -25.18)"/><g class="cls-3"><path class="cls-4" d="M73.56,73.2c-2,6.73-7.52,6.7-13.32,7.12-5.58.42-9.74-3.14-14-6.06-3.13-2.12-6.09-3-8.31-5.89-2.81-3.7-4.49-9.72-4.49-14.89A26.86,26.86,0,0,1,54,27.37,41.89,41.89,0,0,1,61.12,26c9-.3,14.42,1.85,18.91,6.35,3.33,3.33,1.45,9.41,2.83,14.16.7,2.39,2.75,5.4,2.19,9.93C84.24,63.09,75.9,65.21,73.56,73.2ZM95,56.86A31.69,31.69,0,1,0,63.27,88.55,31.69,31.69,0,0,0,95,56.86Z" transform="translate(-29.97 -25.18)"/></g><path class="cls-5" d="M63.27,25.18A31.69,31.69,0,1,1,31.59,56.86,31.69,31.69,0,0,1,63.27,25.18Z" transform="translate(-29.97 -25.18)"/><g class="cls-6"><path class="cls-7" d="M31.59,56.86a31.52,31.52,0,0,0,3.24,14l0,0c1.6-1.29,2.87-1.35,5-1.54,5.46-.5,11.47,1.71,16.59.31,9.14-2.51,13-13.49,21.05-18.86a97.3,97.3,0,0,1,12.66-6.59A4,4,0,0,0,91.75,43a31.85,31.85,0,0,0-5.48-7.89,1.47,1.47,0,0,0-.49.12,2.57,2.57,0,0,1,.07,3.93c-3.5,2.55-8.53,1.18-12.42.67a80.49,80.49,0,0,0-9.82-1.13c-1.88,0-3.6.16-5,1.55-1.85,1.88-2.44,4.87-3.18,7.29s-1.24,4.73-3.23,6.76c-2.36,2.41-6.77,3.35-9.82,1.55a21.26,21.26,0,0,1-3.61-2.89c-1.51-1.45-3.09-3.17-5-.75a12.44,12.44,0,0,0-2.21,4.66v0ZM46,46.32c-1.23,2.34-1.71,5.77,1.35,5,5.33-1.29,7.7-8.81,3.61-12-.77-.6-1.32.3-2,.93-.85.82-.69,1.94-1,3.22-.29,1.12-1.41,1.82-2,2.87Zm9.75,35.5c.71-4.46-2-6-5.85-6.63-1.42-.24-2.85-.43-4.29-.56-2.14-.2-5.76-.07-4.23,3.22,1.16,2.47,4.93,5,7.38,6,2.71,1.21,6.31,2.14,7-2.07Zm5.29-1.95c-1.17,1.1-1.33,3.61,0,4.66,2.13,1.62,5.7,1.22,8.09.54,2.24-.65,4.54-2.69,1.27-4.25a16.81,16.81,0,0,0-7.64-1.75,3,3,0,0,0-1.75.8Zm16.28-11c3.21,1.52,8.49,1.94,11.44-.35,3.1-2.4,3.87-9,2.66-12.72-1.34-4.09-3.78-5.25-7.8-3.91-2.94,1-7.69,5-9,7.69-1.7,3.38-.82,7.61,2.74,9.29Z" transform="translate(-29.97 -25.18)"/></g><path class="cls-8" d="M73,32.45c7.83,7.82,6.58,21.76-2.8,31.13S46.9,74.21,39.08,66.38s-6.57-21.76,2.8-31.13S65.19,24.62,73,32.45Z" transform="translate(-29.97 -25.18)"/><path class="cls-9" d="M54.57,68.26c3.53-1,6.52-2.93,9.79-6.09,5-4.89,6.4-7.83,12.79-12.07C81,47.54,85.07,45.26,89,42.84c2.71-1.67,2.62-3,1.18-5.1-.34-.51-3.2-4.76-5.14-3.88a2.61,2.61,0,0,1,.08,4c-3.56,2.59-8.67,1.19-12.62.68a81.05,81.05,0,0,0-10-1.15c-1.92,0-3.66.17-5,1.58-1.87,1.9-2.47,4.93-3.22,7.4S53,51.16,51,53.21c-2.4,2.46-6.87,3.41-10,1.58a21.31,21.31,0,0,1-3.65-2.93c-1.54-1.48-3.14-3.22-5.09-.77-3.45,4.34-2.67,12.87,0,17.72a3.65,3.65,0,0,0,1.14,1.35,1,1,0,0,0,1,0c1.62-1.32,1.92-1.12,4.06-1.31C44.05,68.38,49.37,69.68,54.57,68.26ZM47,51c1.36-.51,2.77-2.28,3.5-3.48,1.53-2.51,2.49-7-.25-9a2.1,2.1,0,0,0-2.58.42c-.86.84-.7,2-1,3.27a21.61,21.61,0,0,1-1.84,3.7,5,5,0,0,0-.76,3.46A2.09,2.09,0,0,0,47,51Zm1.6,23.42c-1.45-.24-2.9-.43-4.36-.56-2.18-.2-5.54-.33-4,3,1.17,2.5,5,5,7.48,6.13,2.76,1.23,6.11,2.43,6.79-1.84C55.3,76.67,52.57,75.12,48.64,74.46Zm20.83,5.72a17,17,0,0,0-7.75-1.78,3.1,3.1,0,0,0-1.77.82c-1.2,1.12-1.36,3.66,0,4.72,2.16,1.66,5.68.94,8.1.24C70.35,83.53,72.8,81.77,69.47,80.18ZM90.79,54.74c-1.36-4.15-3.85-5.33-7.92-4-3,1-7.81,5-9.19,7.81C72,62,72.85,66.3,76.47,68c3.26,1.54,8.62,2,11.62-.35S92,58.48,90.79,54.74Z" transform="translate(-29.97 -25.18)"/><path class="cls-10" d="M73.68,58.58C72,62,72.85,66.3,76.47,68c3.26,1.54,8.62,2,11.62-.35s3.92-9.18,2.7-12.92c-1.36-4.15-3.85-5.33-7.92-4-3,1-7.81,5-9.19,7.81Z" transform="translate(-29.97 -25.18)"/><g class="cls-11"><path class="cls-12" d="M54.57,68.26c3.53-1,6.52-2.93,9.79-6.09,5-4.89,6.4-7.83,12.79-12.07C81,47.54,85.07,45.26,89,42.84c2.71-1.67,2.62-3,1.18-5.1-.34-.51-3.2-4.76-5.14-3.88a2.61,2.61,0,0,1,.08,4c-3.56,2.59-8.67,1.19-12.62.68a81.05,81.05,0,0,0-10-1.15c-1.92,0-3.66.17-5,1.58-1.87,1.9-2.47,4.93-3.22,7.4S53,51.16,51,53.21c-2.4,2.46-6.87,3.41-10,1.58a21.31,21.31,0,0,1-3.65-2.93c-1.54-1.48-3.14-3.22-5.09-.77-3.45,4.34-2.67,12.87,0,17.72a3.65,3.65,0,0,0,1.14,1.35,1,1,0,0,0,1,0c1.62-1.32,1.92-1.12,4.06-1.31C44.05,68.38,49.37,69.68,54.57,68.26ZM47,51c1.36-.51,2.77-2.28,3.5-3.48,1.53-2.51,2.49-7-.25-9a2.1,2.1,0,0,0-2.58.42c-.86.84-.7,2-1,3.27a21.61,21.61,0,0,1-1.84,3.7,5,5,0,0,0-.76,3.46A2.09,2.09,0,0,0,47,51Zm1.6,23.42c-1.45-.24-2.9-.43-4.36-.56-2.18-.2-5.54-.33-4,3,1.17,2.5,5,5,7.48,6.13,2.76,1.23,6.11,2.43,6.79-1.84C55.3,76.67,52.57,75.12,48.64,74.46Zm20.83,5.72a17,17,0,0,0-7.75-1.78,3.1,3.1,0,0,0-1.77.82c-1.2,1.12-1.36,3.66,0,4.72,2.16,1.66,5.68.94,8.1.24C70.35,83.53,72.8,81.77,69.47,80.18ZM90.79,54.74c-1.36-4.15-3.85-5.33-7.92-4-3,1-7.81,5-9.19,7.81C72,62,72.85,66.3,76.47,68c3.26,1.54,8.62,2,11.62-.35S92,58.48,90.79,54.74Z" transform="translate(-29.97 -25.18)"/></g><path class="cls-13" d="M49.36,54.48a8.53,8.53,0,0,1-8.34.31,21.31,21.31,0,0,1-3.65-2.93c-1.24-1.19-2.51-2.54-4-1.76,1.75-.31,2.85,1.67,4.71,3.46,4.19,4,7.65,3.36,11.26.92Z" transform="translate(-29.97 -25.18)"/><path class="cls-14" d="M40.22,55.89c-1.8-1.07-3.44-3.45-5-5-.89-.84-1.34-.68-1.79,0a.74.74,0,0,0-.13.33,25.87,25.87,0,0,0,2.3,16.36,1.81,1.81,0,0,0,1.82,1A13.67,13.67,0,0,1,40.68,68c3.82.18,6.47.75,10,.5,5.12-.36,9.12-2.74,12.92-6.18,2-1.79,1.45-4.11,4.41-6.59,1.08-.9,3.4-2.1,4.2-3.07a5,5,0,0,0,1.14-3.84,25.11,25.11,0,0,0-1.7-6.68,4.71,4.71,0,0,0-1.5-2C68.74,39,66.72,38.38,63.86,38c-5.27-.63-7,1.91-8.47,6.67-1,3.24-1,5.5-2.28,7.55-2.67,4.45-8.31,6.36-12.89,3.63Z" transform="translate(-29.97 -25.18)"/><path class="cls-15" d="M41.58,74.59A16.94,16.94,0,0,0,47,77.12a17.28,17.28,0,0,0,5.23.56.42.42,0,0,0,.37-.25.41.41,0,0,0,0-.44c-1.08-1.44-2.94-2.09-5.39-2.54a13.58,13.58,0,0,0-5.34-.26l-.19.06a.17.17,0,0,0-.11.16.18.18,0,0,0,.08.18Z" transform="translate(-29.97 -25.18)"/><g class="cls-16"><path class="cls-17" d="M40.3,76.91c1.17,2.5,5,5,7.48,6.13,2.13.95,4.63,1.89,6,.28A28,28,0,0,1,39.9,75.53,3.79,3.79,0,0,0,40.3,76.91Zm27.78,7.27c1.54-.44,3.16-1.39,3-2.46a27.7,27.7,0,0,1-11,2.31C62.26,85.57,65.7,84.87,68.08,84.18ZM90.79,54.74C90,52.42,88.92,51,87.37,50.49a28,28,0,0,1-2.65,18.59,8,8,0,0,0,3.37-1.42C91.23,65.22,92,58.48,90.79,54.74ZM89,42.84a5.67,5.67,0,0,0,1.8-1.55c.71-1,.35-2.1-.62-3.55-.34-.51-3.2-4.76-5.14-3.88a2.18,2.18,0,0,1,.38.36,2.62,2.62,0,0,1-.3,3.63,7.63,7.63,0,0,1-2.93,1.27,28,28,0,0,1,2,3,29.44,29.44,0,0,1,1.42,2.8Z" transform="translate(-29.97 -25.18)"/></g><path class="cls-18" d="M74.61,39.79c3.27.59,8,1.69,11.19-.41a3.74,3.74,0,0,0,1.73-2.87,2.6,2.6,0,0,0-1.68-2.71.84.84,0,0,0-.44,0,1.24,1.24,0,0,0-.36.11,2.18,2.18,0,0,1,.38.36,2.62,2.62,0,0,1-.3,3.63c-3.56,2.59-8.67,1.19-12.62.68a81.05,81.05,0,0,0-10-1.15,13.16,13.16,0,0,0-2.21.15c4.83-.06,9.53,1.42,14.27,2.26Z" transform="translate(-29.97 -25.18)"/><path class="cls-19" d="M48.57,74.45c3,.88,5.28,2,5.3,5.81A4.72,4.72,0,0,1,53.59,82c-.67,1.74-2,2-3.5,2,2.07.59,4,.38,4.48-2.73.73-4.53-2-6.08-5.93-6.74Z" transform="translate(-29.97 -25.18)"/><path class="cls-20" d="M69.37,82.78a13.93,13.93,0,0,1-7.51,2,13.52,13.52,0,0,0,6.22-.61c2.27-.65,4.72-2.41,1.39-4-.25-.12-.52-.25-.81-.36,1.14.64,2.44,1.72.71,3Z" transform="translate(-29.97 -25.18)"/><path class="cls-21" d="M87.7,66.5a10.56,10.56,0,0,1-7,2.68c2.64.31,5.45-.06,7.34-1.52,3.14-2.44,3.92-9.18,2.7-12.92a8.28,8.28,0,0,0-1.65-3.07C91.85,56,91.41,63.09,87.7,66.5Z" transform="translate(-29.97 -25.18)"/><path class="cls-22" d="M47.39,49.7a2.14,2.14,0,0,1-3.4-1,3,3,0,0,0,.08.66A2.09,2.09,0,0,0,47,51c1.36-.51,2.77-2.28,3.5-3.48a9.54,9.54,0,0,0,1.35-6.43,9.75,9.75,0,0,1-4.5,8.57Z" transform="translate(-29.97 -25.18)"/><path class="cls-23" d="M35.25,51.33c-.46-.54-1.11.58-.72,1.43,2,4.26,5.28,7.29,10.13,6.88,4-.33,8.74-4,10.26-8a7.55,7.55,0,0,0,.47-2c0-.33-.28-.63-.65.42a11.8,11.8,0,0,1-8.35,7.52A8.53,8.53,0,0,1,39,55.68a27.7,27.7,0,0,1-3.75-4.35Z" transform="translate(-29.97 -25.18)"/><path class="cls-24" d="M57.75,40.75c-1.18,1.08-2.18,4.55-2.36,6.13-.14,1.19.28,2.41.79.1.1-.45.21-.9.32-1.34a22.7,22.7,0,0,1,1.7-4.48c.4-.78.56-1.34-.45-.41Z" transform="translate(-29.97 -25.18)"/><path class="cls-25" d="M47.28,40.65a6.41,6.41,0,0,1-1.11,3.58c-.65,1-1,1.82-.79,2S46.06,46.07,47,45a7.12,7.12,0,0,0,1.85-4.44c.06-.63-.18-1.28-.56-1.36-.62-.14-.94,1-1,1.43Z" transform="translate(-29.97 -25.18)"/><path class="cls-26" d="M46.31,75.48c3,.26,3.3-.38.18-1-2.7-.56-4.22-.36-4.24-.08s1.24.86,4.06,1.11Z" transform="translate(-29.97 -25.18)"/><path class="cls-27" d="M60.3,79.2c-.91.78-.4,1.22.66,1.35a23.48,23.48,0,0,0,3.35.15c3.7-.08,4.78-1.06.36-2-1.21-.24-3.58-.23-4.37.45Z" transform="translate(-29.97 -25.18)"/><path class="cls-28" d="M73.78,64.5a4.75,4.75,0,0,1-.71-3,9.1,9.1,0,0,1,2.3-4.95c1.18-1.39,3.66-3.67,5.44-4.21.51-.16.82-.12.87,0,.24.64-1.77,2.58-3.29,4.93A18.49,18.49,0,0,0,76.88,60c-.65,1.5-.53,3.12-1,4.32a1.18,1.18,0,0,1-2.13.22Z" transform="translate(-29.97 -25.18)"/><g class="cls-29"><path class="cls-30" d="M54.57,68.26c3.53-1,6.52-2.93,9.79-6.09,5-4.89,6.4-7.83,12.79-12.07C81,47.54,85.07,45.26,89,42.84c2.71-1.67,2.62-3,1.18-5.1-.34-.51-3.2-4.76-5.14-3.88a2.61,2.61,0,0,1,.08,4c-3.56,2.59-8.67,1.19-12.62.68a81.05,81.05,0,0,0-10-1.15c-1.92,0-3.66.17-5,1.58-1.87,1.9-2.47,4.93-3.22,7.4S53,51.16,51,53.21c-2.4,2.46-6.87,3.41-10,1.58a21.31,21.31,0,0,1-3.65-2.93c-1.54-1.48-3.14-3.22-5.09-.77-3.45,4.34-2.67,12.87,0,17.72a3.65,3.65,0,0,0,1.14,1.35,1,1,0,0,0,1,0c1.62-1.32,1.92-1.12,4.06-1.31C44.05,68.38,49.37,69.68,54.57,68.26ZM47,51c1.36-.51,2.77-2.28,3.5-3.48,1.53-2.51,2.49-7-.25-9a2.1,2.1,0,0,0-2.58.42c-.86.84-.7,2-1,3.27a21.61,21.61,0,0,1-1.84,3.7,5,5,0,0,0-.76,3.46A2.09,2.09,0,0,0,47,51Zm1.6,23.42c-1.45-.24-2.9-.43-4.36-.56-2.18-.2-5.54-.33-4,3,1.17,2.5,5,5,7.48,6.13,2.76,1.23,6.11,2.43,6.79-1.84C55.3,76.67,52.57,75.12,48.64,74.46Zm20.83,5.72a17,17,0,0,0-7.75-1.78,3.1,3.1,0,0,0-1.77.82c-1.2,1.12-1.36,3.66,0,4.72,2.16,1.66,5.68.94,8.1.24C70.35,83.53,72.8,81.77,69.47,80.18ZM90.79,54.74c-1.36-4.15-3.85-5.33-7.92-4-3,1-7.81,5-9.19,7.81C72,62,72.85,66.3,76.47,68c3.26,1.54,8.62,2,11.62-.35S92,58.48,90.79,54.74Z" transform="translate(-29.97 -25.18)"/></g></g></g></svg>