<svg xmlns="http://www.w3.org/2000/svg" xmlns:xlink="http://www.w3.org/1999/xlink" viewBox="0 0 66.82 65.32"><defs><style>.cls-1{isolation:isolate;}.cls-10,.cls-11,.cls-12,.cls-13,.cls-14,.cls-15,.cls-16,.cls-17,.cls-18,.cls-19,.cls-2,.cls-20,.cls-21,.cls-22,.cls-23,.cls-24,.cls-25,.cls-26,.cls-27,.cls-28,.cls-29,.cls-3,.cls-30,.cls-31,.cls-32,.cls-33,.cls-34,.cls-35,.cls-36,.cls-37,.cls-38,.cls-39,.cls-4,.cls-40,.cls-41,.cls-42,.cls-43,.cls-44,.cls-45,.cls-46,.cls-47,.cls-48,.cls-49,.cls-5,.cls-50,.cls-51,.cls-52,.cls-53,.cls-54,.cls-55,.cls-56,.cls-57,.cls-58,.cls-59,.cls-6,.cls-60,.cls-61,.cls-62,.cls-63,.cls-64,.cls-65,.cls-66,.cls-67,.cls-68,.cls-69,.cls-7,.cls-70,.cls-71,.cls-72,.cls-73,.cls-74,.cls-75,.cls-76,.cls-77,.cls-78,.cls-79,.cls-8,.cls-80,.cls-81,.cls-82,.cls-83,.cls-9{fill-rule:evenodd;}.cls-2{fill:url(#radial-gradient);}.cls-3,.cls-5,.cls-79,.cls-81,.cls-82,.cls-83{mix-blend-mode:screen;}.cls-3{fill:url(#radial-gradient-2);}.cls-17,.cls-18,.cls-23,.cls-29,.cls-33,.cls-4,.cls-40,.cls-60,.cls-65{mix-blend-mode:multiply;}.cls-4{fill:url(#radial-gradient-3);}.cls-5{fill:url(#radial-gradient-4);}.cls-6{fill:url(#radial-gradient-5);}.cls-7{fill:url(#radial-gradient-6);}.cls-8{fill:url(#radial-gradient-7);}.cls-9{fill:url(#radial-gradient-8);}.cls-10{fill:url(#radial-gradient-9);}.cls-11{fill:url(#radial-gradient-10);}.cls-12{fill:url(#radial-gradient-11);}.cls-13{fill:url(#radial-gradient-12);}.cls-14{fill:url(#radial-gradient-13);}.cls-15{fill:url(#radial-gradient-14);}.cls-16{fill:url(#radial-gradient-15);}.cls-17{fill:url(#radial-gradient-16);}.cls-18{fill:url(#radial-gradient-17);}.cls-19{fill:url(#radial-gradient-18);}.cls-20{fill:url(#radial-gradient-19);}.cls-21{fill:url(#radial-gradient-20);}.cls-22{fill:url(#radial-gradient-21);}.cls-23{fill:url(#radial-gradient-22);}.cls-24{fill:url(#radial-gradient-23);}.cls-25{fill:url(#radial-gradient-24);}.cls-26{fill:url(#radial-gradient-25);}.cls-27{fill:url(#radial-gradient-26);}.cls-28{fill:url(#radial-gradient-27);}.cls-29{fill:url(#radial-gradient-28);}.cls-30{fill:url(#radial-gradient-29);}.cls-31{fill:url(#radial-gradient-30);}.cls-32{fill:url(#radial-gradient-31);}.cls-33{fill:url(#radial-gradient-32);}.cls-34{fill:url(#radial-gradient-33);}.cls-35{fill:url(#radial-gradient-34);}.cls-36{fill:url(#radial-gradient-35);}.cls-37{fill:url(#radial-gradient-36);}.cls-38{fill:url(#radial-gradient-37);}.cls-39{fill:url(#radial-gradient-38);}.cls-40{fill:url(#radial-gradient-39);}.cls-41{fill:#7a369e;}.cls-42{fill:url(#radial-gradient-40);}.cls-43{fill:url(#radial-gradient-41);}.cls-44{fill:url(#radial-gradient-42);}.cls-45{fill:url(#radial-gradient-43);}.cls-46{fill:url(#radial-gradient-44);}.cls-47{fill:url(#radial-gradient-45);}.cls-48{fill:url(#radial-gradient-46);}.cls-49{fill:url(#radial-gradient-47);}.cls-50{fill:url(#radial-gradient-48);}.cls-51{fill:url(#radial-gradient-49);}.cls-52{fill:url(#radial-gradient-50);}.cls-53{fill:url(#radial-gradient-51);}.cls-54{fill:url(#radial-gradient-52);}.cls-55{fill:url(#radial-gradient-53);}.cls-56{fill:url(#radial-gradient-54);}.cls-57{fill:url(#radial-gradient-55);}.cls-58{fill:url(#radial-gradient-56);}.cls-59{fill:url(#radial-gradient-57);}.cls-60{fill:url(#radial-gradient-58);}.cls-61{fill:url(#radial-gradient-59);}.cls-62{fill:url(#radial-gradient-60);}.cls-63{fill:url(#radial-gradient-61);}.cls-64{fill:url(#radial-gradient-62);}.cls-65{fill:url(#radial-gradient-63);}.cls-66{fill:url(#radial-gradient-64);}.cls-67{fill:url(#radial-gradient-65);}.cls-68{fill:url(#radial-gradient-66);}.cls-69{fill:url(#radial-gradient-67);}.cls-70{fill:url(#radial-gradient-68);}.cls-71{fill:url(#radial-gradient-69);}.cls-72{fill:url(#radial-gradient-70);}.cls-73{fill:url(#radial-gradient-71);}.cls-74{fill:url(#radial-gradient-72);}.cls-75{fill:url(#radial-gradient-73);}.cls-76{fill:url(#radial-gradient-74);}.cls-77{fill:url(#radial-gradient-75);}.cls-78{fill:url(#radial-gradient-76);}.cls-79{fill:#796ae5;}.cls-80{fill:url(#radial-gradient-77);}.cls-81{opacity:0.75;fill:url(#radial-gradient-78);}.cls-82{fill:url(#radial-gradient-79);}.cls-83{fill:url(#radial-gradient-80);}</style><radialGradient id="radial-gradient" cx="329.03" cy="128.72" r="51.82" gradientUnits="userSpaceOnUse"><stop offset="0" stop-color="#94ffe1"/><stop offset="0.09" stop-color="#88f9dd"/><stop offset="0.25" stop-color="#67e9d1"/><stop offset="0.47" stop-color="#33cebd"/><stop offset="0.5" stop-color="#2dcbbb"/><stop offset="0.96" stop-color="#008a86"/></radialGradient><radialGradient id="radial-gradient-2" cx="343.04" cy="149.2" r="38.82" gradientUnits="userSpaceOnUse"><stop offset="0.04"/><stop offset="0.84"/><stop offset="0.85" stop-color="#0b1611"/><stop offset="0.9" stop-color="#366851"/><stop offset="0.93" stop-color="#58a984"/><stop offset="0.96" stop-color="#70d7a9"/><stop offset="0.99" stop-color="#7ff4c0"/><stop offset="1" stop-color="#85ffc8"/></radialGradient><radialGradient id="radial-gradient-3" cx="328.38" cy="131.09" r="52.84" gradientUnits="userSpaceOnUse"><stop offset="0.33" stop-color="#fff"/><stop offset="0.4" stop-color="#f4fafa"/><stop offset="0.52" stop-color="#d6eeed"/><stop offset="0.68" stop-color="#a6dad7"/><stop offset="0.87" stop-color="#64beb9"/><stop offset="1" stop-color="#35aaa4"/></radialGradient><radialGradient id="radial-gradient-4" cx="316.94" cy="117.6" r="48.57" gradientUnits="userSpaceOnUse"><stop offset="0" stop-color="#c4ffe2"/><stop offset="1"/></radialGradient><radialGradient id="radial-gradient-5" cx="364.59" cy="138.61" r="16.32" gradientUnits="userSpaceOnUse"><stop offset="0" stop-color="#ab46db"/><stop offset="1" stop-color="#da92f7"/></radialGradient><radialGradient id="radial-gradient-6" cx="367.17" cy="127.04" r="12.78" gradientUnits="userSpaceOnUse"><stop offset="0" stop-color="#b24ced"/><stop offset="1" stop-color="#791d9b"/></radialGradient><radialGradient id="radial-gradient-7" cx="361.93" cy="133.49" r="10.71" gradientUnits="userSpaceOnUse"><stop offset="0" stop-color="#b24ced"/><stop offset="1" stop-color="#73069b"/></radialGradient><radialGradient id="radial-gradient-8" cx="364.61" cy="148.98" r="8.45" gradientUnits="userSpaceOnUse"><stop offset="0" stop-color="#d487ff"/><stop offset="1" stop-color="#7f34cb"/></radialGradient><radialGradient id="radial-gradient-9" cx="366.77" cy="147.65" r="16.18" xlink:href="#radial-gradient-8"/><radialGradient id="radial-gradient-10" cx="365.48" cy="156.07" r="16.23" gradientUnits="userSpaceOnUse"><stop offset="0" stop-color="#9d41fc"/><stop offset="1" stop-color="#6514a9"/></radialGradient><radialGradient id="radial-gradient-11" cx="361.93" cy="154.03" r="12.8" xlink:href="#radial-gradient-10"/><radialGradient id="radial-gradient-12" cx="362.83" cy="151.4" r="11.67" xlink:href="#radial-gradient-10"/><radialGradient id="radial-gradient-13" cx="330.4" cy="110.48" r="6.31" gradientUnits="userSpaceOnUse"><stop offset="0" stop-color="#c799ff"/><stop offset="1" stop-color="#7c4bc4"/></radialGradient><radialGradient id="radial-gradient-14" cx="337.58" cy="114.49" r="8.41" gradientUnits="userSpaceOnUse"><stop offset="0" stop-color="#6d31b5"/><stop offset="1" stop-color="#9b5bf5"/></radialGradient><radialGradient id="radial-gradient-15" cx="329.65" cy="120.84" r="11.04" gradientUnits="userSpaceOnUse"><stop offset="0" stop-color="#9b5bf5"/><stop offset="1" stop-color="#5617a3"/></radialGradient><radialGradient id="radial-gradient-16" cx="352.13" cy="150.72" r="9.07" gradientUnits="userSpaceOnUse"><stop offset="0" stop-color="#1a4340"/><stop offset="1" stop-color="#fff"/></radialGradient><radialGradient id="radial-gradient-17" cx="352.43" cy="136.72" r="6.41" xlink:href="#radial-gradient-16"/><radialGradient id="radial-gradient-18" cx="357.03" cy="138.6" r="9.87" gradientUnits="userSpaceOnUse"><stop offset="0" stop-color="#ba92ff"/><stop offset="1" stop-color="#7a5aef"/></radialGradient><radialGradient id="radial-gradient-19" cx="352.31" cy="138.77" r="5.62" gradientUnits="userSpaceOnUse"><stop offset="0" stop-color="#9969ff"/><stop offset="1" stop-color="#6b3fe0"/></radialGradient><radialGradient id="radial-gradient-20" cx="351.51" cy="136.61" r="6.52" gradientUnits="userSpaceOnUse"><stop offset="0" stop-color="#9969ff"/><stop offset="1" stop-color="#613bce"/></radialGradient><radialGradient id="radial-gradient-21" cx="352.19" cy="135.25" r="7.24" xlink:href="#radial-gradient-19"/><radialGradient id="radial-gradient-22" cx="347.68" cy="163.71" r="12.91" xlink:href="#radial-gradient-16"/><radialGradient id="radial-gradient-23" cx="340.56" cy="162.3" r="14.63" xlink:href="#radial-gradient-13"/><radialGradient id="radial-gradient-24" cx="342.09" cy="179.06" r="18.9" xlink:href="#radial-gradient-13"/><radialGradient id="radial-gradient-25" cx="332.21" cy="148.01" r="32.35" gradientUnits="userSpaceOnUse"><stop offset="0" stop-color="#ac70ff"/><stop offset="1" stop-color="#6d31b5"/></radialGradient><radialGradient id="radial-gradient-26" cx="341.02" cy="174.75" r="15.86" gradientUnits="userSpaceOnUse"><stop offset="0" stop-color="#9b5bf5"/><stop offset="1" stop-color="#5a1da3"/></radialGradient><radialGradient id="radial-gradient-27" cx="340.64" cy="157.71" r="24.55" gradientUnits="userSpaceOnUse"><stop offset="0" stop-color="#9b5bf5"/><stop offset="1" stop-color="#6d31b5"/></radialGradient><radialGradient id="radial-gradient-28" cx="329.86" cy="169.98" r="7.1" xlink:href="#radial-gradient-16"/><radialGradient id="radial-gradient-29" cx="326.18" cy="165.97" r="9.03" xlink:href="#radial-gradient-8"/><radialGradient id="radial-gradient-30" cx="328.13" cy="176.79" r="33.79" gradientUnits="userSpaceOnUse"><stop offset="0" stop-color="#7019bc"/><stop offset="1" stop-color="#9d41fc"/></radialGradient><radialGradient id="radial-gradient-31" cx="324.03" cy="170.13" r="13" xlink:href="#radial-gradient-10"/><radialGradient id="radial-gradient-32" cx="348.99" cy="116.89" r="11.09" xlink:href="#radial-gradient-16"/><radialGradient id="radial-gradient-33" cx="350.05" cy="113.63" r="5.57" xlink:href="#radial-gradient-15"/><radialGradient id="radial-gradient-34" cx="349.45" cy="112.73" r="7.86" xlink:href="#radial-gradient-15"/><radialGradient id="radial-gradient-35" cx="349.09" cy="115" r="6.9" xlink:href="#radial-gradient-15"/><radialGradient id="radial-gradient-36" cx="347.02" cy="116.38" r="8.35" gradientUnits="userSpaceOnUse"><stop offset="0" stop-color="#9b5bf5"/><stop offset="1" stop-color="#622ca3"/></radialGradient><radialGradient id="radial-gradient-37" cx="349.01" cy="116.57" r="6.93" gradientUnits="userSpaceOnUse"><stop offset="0" stop-color="#ba82ff"/><stop offset="1" stop-color="#7c4bc4"/></radialGradient><radialGradient id="radial-gradient-38" cx="347.84" cy="111.41" r="10.39" xlink:href="#radial-gradient-37"/><radialGradient id="radial-gradient-39" cx="329.75" cy="137.77" r="34.44" xlink:href="#radial-gradient-16"/><radialGradient id="radial-gradient-40" cx="322.85" cy="148.12" r="22.33" xlink:href="#radial-gradient-25"/><radialGradient id="radial-gradient-41" cx="337.12" cy="145.03" r="18.92" xlink:href="#radial-gradient-36"/><radialGradient id="radial-gradient-42" cx="330.94" cy="136.56" r="25.19" xlink:href="#radial-gradient-26"/><radialGradient id="radial-gradient-43" cx="331.61" cy="133.58" r="21.01" xlink:href="#radial-gradient-37"/><radialGradient id="radial-gradient-44" cx="349.05" cy="147.43" r="20" xlink:href="#radial-gradient-14"/><radialGradient id="radial-gradient-45" cx="325.63" cy="142.56" r="29.96" xlink:href="#radial-gradient-13"/><radialGradient id="radial-gradient-46" cx="310.01" cy="155.05" r="14.96" xlink:href="#radial-gradient-5"/><radialGradient id="radial-gradient-47" cx="317.48" cy="158.58" r="12.48" xlink:href="#radial-gradient-6"/><radialGradient id="radial-gradient-48" cx="321.37" cy="158.09" r="7.46" gradientUnits="userSpaceOnUse"><stop offset="0" stop-color="#d173f7"/><stop offset="1" stop-color="#933cbc"/></radialGradient><radialGradient id="radial-gradient-49" cx="317.86" cy="157.45" r="10.16" xlink:href="#radial-gradient-7"/><radialGradient id="radial-gradient-50" cx="328.97" cy="158.84" r="18.88" gradientUnits="userSpaceOnUse"><stop offset="0" stop-color="#7a10ad"/><stop offset="1" stop-color="#b24ced"/></radialGradient><radialGradient id="radial-gradient-51" cx="358.61" cy="149.63" r="8" xlink:href="#radial-gradient-26"/><radialGradient id="radial-gradient-52" cx="352.67" cy="151.58" r="6.04" xlink:href="#radial-gradient-26"/><radialGradient id="radial-gradient-53" cx="352.73" cy="152.07" r="6.51" xlink:href="#radial-gradient-26"/><radialGradient id="radial-gradient-54" cx="352.12" cy="151.34" r="7.82" xlink:href="#radial-gradient-25"/><radialGradient id="radial-gradient-55" cx="354.31" cy="153.57" r="8.92" xlink:href="#radial-gradient-26"/><radialGradient id="radial-gradient-56" cx="353.07" cy="148.17" r="7.1" gradientUnits="userSpaceOnUse"><stop offset="0" stop-color="#b173ff"/><stop offset="1" stop-color="#7c4bc4"/></radialGradient><radialGradient id="radial-gradient-57" cx="353.02" cy="147.98" r="10.27" xlink:href="#radial-gradient-13"/><radialGradient id="radial-gradient-58" cx="314.93" cy="125.78" r="13.34" xlink:href="#radial-gradient-16"/><radialGradient id="radial-gradient-59" cx="309.05" cy="131.23" r="10.04" gradientUnits="userSpaceOnUse"><stop offset="0" stop-color="#bd6aff"/><stop offset="1" stop-color="#7f34cb"/></radialGradient><radialGradient id="radial-gradient-60" cx="325.26" cy="140.48" r="16.14" xlink:href="#radial-gradient-30"/><radialGradient id="radial-gradient-61" cx="304" cy="122.48" r="22.3" xlink:href="#radial-gradient-10"/><radialGradient id="radial-gradient-62" cx="312.1" cy="122.7" r="35.28" xlink:href="#radial-gradient-8"/><radialGradient id="radial-gradient-63" cx="304.97" cy="141.79" r="12.36" xlink:href="#radial-gradient-16"/><radialGradient id="radial-gradient-64" cx="307.42" cy="148.07" r="3.41" xlink:href="#radial-gradient-37"/><radialGradient id="radial-gradient-65" cx="304.98" cy="141.12" r="10.29" xlink:href="#radial-gradient-36"/><radialGradient id="radial-gradient-66" cx="305.35" cy="136.93" r="14.81" gradientUnits="userSpaceOnUse"><stop offset="0" stop-color="#cca3ff"/><stop offset="1" stop-color="#7c4bc4"/></radialGradient><radialGradient id="radial-gradient-67" cx="307.01" cy="138.68" r="13.28" xlink:href="#radial-gradient-36"/><radialGradient id="radial-gradient-68" cx="309.38" cy="139.72" r="4.76" xlink:href="#radial-gradient-27"/><radialGradient id="radial-gradient-69" cx="308.21" cy="139.15" r="6.93" gradientUnits="userSpaceOnUse"><stop offset="0" stop-color="#d4b3ff"/><stop offset="1" stop-color="#7c4bc4"/></radialGradient><radialGradient id="radial-gradient-70" cx="329.86" cy="125.05" r="23.3" gradientUnits="userSpaceOnUse"><stop offset="0" stop-color="#c799ff"/><stop offset="1" stop-color="#8e56e0"/></radialGradient><radialGradient id="radial-gradient-71" cx="333.01" cy="124.72" r="14.33" xlink:href="#radial-gradient-25"/><radialGradient id="radial-gradient-72" cx="337.89" cy="127.72" r="45.1" xlink:href="#radial-gradient-36"/><radialGradient id="radial-gradient-73" cx="334.16" cy="125.85" r="23.11" xlink:href="#radial-gradient-36"/><radialGradient id="radial-gradient-74" cx="336.21" cy="131.35" r="13.52" xlink:href="#radial-gradient-26"/><radialGradient id="radial-gradient-75" cx="333.27" cy="127.1" r="15.51" xlink:href="#radial-gradient-27"/><radialGradient id="radial-gradient-76" cx="330.43" cy="127.09" r="23.55" gradientUnits="userSpaceOnUse"><stop offset="0" stop-color="#b980ff"/><stop offset="1" stop-color="#883ff2"/></radialGradient><radialGradient id="radial-gradient-77" cx="334.69" cy="128.81" r="2.38" xlink:href="#radial-gradient-14"/><radialGradient id="radial-gradient-78" cx="323.75" cy="133.48" r="19.23" gradientUnits="userSpaceOnUse"><stop offset="0" stop-color="#fff"/><stop offset="1"/></radialGradient><radialGradient id="radial-gradient-79" cx="312.9" cy="115.26" r="16.08" xlink:href="#radial-gradient-78"/><radialGradient id="radial-gradient-80" cx="331.07" cy="117.39" r="12.47" xlink:href="#radial-gradient-78"/></defs><title>2</title><g class="cls-1"><g id="Layer_1" data-name="Layer 1"><path class="cls-2" d="M339,112.05A31.55,31.55,0,1,1,307.4,143.6,31.55,31.55,0,0,1,339,112.05Z" transform="translate(-305.38 -110.9)"/><path class="cls-3" d="M339,112.05A31.55,31.55,0,1,1,307.4,143.6,31.55,31.55,0,0,1,339,112.05Z" transform="translate(-305.38 -110.9)"/><path class="cls-4" d="M352.64,161.91c-.54.09-2.92-.3-3.75-.3a48.39,48.39,0,0,0-14.29,2.65,10.93,10.93,0,0,0-3.12,1.63c-.91.77-.61,2.2-2.54,2.13-1.34-.05-2.91-.7-2.78-2.18.12-1.31.24-3.1-.55-3.83a75.74,75.74,0,0,0-8.94-6.8c-2.07-1.4-3.14-.61-4.35-1-1.51-.51-2.25-2.63-2.6-4-.75-3,.57-7.82.51-9.65-.07-2.07-2.62.8-1.05-7.4a31.56,31.56,0,1,0,29.77-21,31.42,31.42,0,0,0-18.14,5.73A27.77,27.77,0,0,1,331,114a26.76,26.76,0,0,1,9.79.2,14.42,14.42,0,0,0,2.63,0c2.79.06,6,2.19,8.34,4,1.58,1.26,2.41,3.38,3.15,4.13.95.94,1,.14,2.1.92,2.23,1.62,6.85,10.7,6.59,13.44-.09.92-.64.93-.69,1.86s.49,2.51.44,3.4c-.4,6.13-3.05,5.78-4,10.78-.16.84-.07,3.42-.31,4.75a3.18,3.18,0,0,1-.87,1.74,11.23,11.23,0,0,1-5.56,2.66Z" transform="translate(-305.38 -110.9)"/><path class="cls-5" d="M310.53,138.77c.37.5,1.1.68,1.38,1.23a31.89,31.89,0,0,1,1.74,6.33c0,.58-.53,1.06-.56,1.64-.1,1.62,2,4.11,3.17,3.42.71-.43,1.12-1.27,1.84-1.68s2,.14,2.6-.06c.22-.07.32-.38.31-.61a2.39,2.39,0,0,0-.21-.77,4.26,4.26,0,0,1,.67-4.59,27.93,27.93,0,0,1,5.87-5c2-1.34,4.87-1.71,6.5-1.88,1.06-.11,1.54-1,.49-1.91a17.89,17.89,0,0,1-5.1-6.63c-.5-1.19-.33-4.56.46-5.62a8.74,8.74,0,0,1,6.6-3.68c2.75,0,6.57,1.35,9.17,2.37,2.31.91,2.71.7,3,.27s-.45-1.9-2.35-3.54c-5.31-4.57-11.21-4.51-17.7-2.42-.94.3-7.19,3-7,4.49,0,.12,2.42,2.93,2.76,3.58a3.18,3.18,0,0,1,.35,1.69,22.21,22.21,0,0,1-2.91,9.91,2.06,2.06,0,0,1-1.17.82c-1.84.55-6.26,1.55-8.18,1.32-.54-.06-.95-.87-1.48-.71s-.41,1.77-.26,2Zm37.76-15.06a10.71,10.71,0,0,0,2,3.54.72.72,0,0,0,.94,0c.82-1-.42-3.93-1-4.79s-2,.42-1.88,1.22Zm3.55,4.76a1,1,0,0,1,.48.7,2.37,2.37,0,0,1-.33,1.21,1.05,1.05,0,0,1-.61.58.62.62,0,0,1-.6-.34,3.21,3.21,0,0,1-.35-1.58,1,1,0,0,1,.5-.8,1.07,1.07,0,0,1,.91.23ZM342,138.64a.33.33,0,0,0,0,.42,8.73,8.73,0,0,0,4,2c1.47.26,1.53-2.05,1-2.6a2,2,0,0,0-1.35-.4c-.78,0-3.14,0-3.69.61Z" transform="translate(-305.38 -110.9)"/><path class="cls-6" d="M364.74,132a47.6,47.6,0,0,0,4.45-4.42,14.27,14.27,0,0,0-4.05-4.28,6,6,0,0,0-1.9.18,57,57,0,0,0,1.5,8.52Z" transform="translate(-305.38 -110.9)"/><path class="cls-7" d="M369.19,127.55a47.6,47.6,0,0,1-4.45,4.42,32.69,32.69,0,0,0,5.29,6.21,7.51,7.51,0,0,0,1.74-2.47,13.43,13.43,0,0,0,.43-2.36,12.9,12.9,0,0,0-3-5.8Z" transform="translate(-305.38 -110.9)"/><path class="cls-8" d="M365.14,123.27a14.27,14.27,0,0,1,4.05,4.28,12.9,12.9,0,0,1,3,5.8,16.64,16.64,0,0,0-.71-3.25,19.5,19.5,0,0,0-3.34-5,10.08,10.08,0,0,0-3-1.8Z" transform="translate(-305.38 -110.9)"/><path class="cls-9" d="M365.72,153.71a31.33,31.33,0,0,1,1.85-6,25.92,25.92,0,0,0-4.42,4.95,9.44,9.44,0,0,0,2.57,1.05Z" transform="translate(-305.38 -110.9)"/><path class="cls-10" d="M365.72,153.71a9.44,9.44,0,0,1-2.57-1.05,15,15,0,0,0-1.41,4,15.36,15.36,0,0,0,4-.66,14.43,14.43,0,0,1,0-2.28Z" transform="translate(-305.38 -110.9)"/><path class="cls-11" d="M365.76,156a15.36,15.36,0,0,1-4,.66,14.1,14.1,0,0,0,0,3.18,23.23,23.23,0,0,1,4.54-2.07,8.39,8.39,0,0,1-.53-1.77Z" transform="translate(-305.38 -110.9)"/><path class="cls-12" d="M366.29,157.76a23.23,23.23,0,0,0-4.54,2.07A11.38,11.38,0,0,0,365,161.4a12.75,12.75,0,0,0,3.27-1.62,9.73,9.73,0,0,1-2-2Z" transform="translate(-305.38 -110.9)"/><path class="cls-13" d="M365.76,156a8.39,8.39,0,0,0,.53,1.77,9.73,9.73,0,0,0,2,2,24.23,24.23,0,0,0,3.87-9.08,9.41,9.41,0,0,0-1.74-4.55,13.72,13.72,0,0,0-2.83,1.56,31.33,31.33,0,0,0-1.85,6,14.43,14.43,0,0,0,0,2.28Z" transform="translate(-305.38 -110.9)"/><path class="cls-14" d="M332.1,113.06a9.66,9.66,0,0,0-1.38-2.16,5.37,5.37,0,0,0-1.84.67,12.32,12.32,0,0,0-.66,2.86,25.54,25.54,0,0,1,3.88-1.37Z" transform="translate(-305.38 -110.9)"/><path class="cls-15" d="M330.72,110.9a9.66,9.66,0,0,1,1.38,2.16,29.64,29.64,0,0,1,3.61-.26H336a6.43,6.43,0,0,0-1-1.49,22.79,22.79,0,0,0-4.29-.41Z" transform="translate(-305.38 -110.9)"/><path class="cls-16" d="M335.71,112.8a29.64,29.64,0,0,0-3.61.26,25.54,25.54,0,0,0-3.88,1.37,30.91,30.91,0,0,1,7.49-1.63Z" transform="translate(-305.38 -110.9)"/><path class="cls-17" d="M350.25,155.66l5.91-6.9a21.15,21.15,0,0,1,2.32,3.64,8.2,8.2,0,0,1,.23,2.78,7.65,7.65,0,0,1-1.2,1.66,8.41,8.41,0,0,1-3.34,1.22,2.24,2.24,0,0,1-1.36-.4c-.91-.59-1.71-1.34-2.56-2Z" transform="translate(-305.38 -110.9)"/><path class="cls-18" d="M350.81,141.31,354,134.9A10.53,10.53,0,0,1,356.5,137a6.21,6.21,0,0,1,.77,2.11,6,6,0,0,1-.57,1.55,6.77,6.77,0,0,1-2.33,1.65,1.88,1.88,0,0,1-1.15,0c-.83-.26-1.6-.67-2.41-1Z" transform="translate(-305.38 -110.9)"/><path class="cls-19" d="M349.91,140.41a12.6,12.6,0,0,0,3.84-1,9.54,9.54,0,0,0,.92-1.87,18.36,18.36,0,0,0-1.62-2.93,8,8,0,0,0-1.74,1.67,16.81,16.81,0,0,0-1.4,4.09Z" transform="translate(-305.38 -110.9)"/><path class="cls-20" d="M353.75,139.45a12.6,12.6,0,0,1-3.84,1,3,3,0,0,0,1,1,12,12,0,0,0,2.61,0,7.51,7.51,0,0,0,.22-1.89Z" transform="translate(-305.38 -110.9)"/><path class="cls-21" d="M353.75,139.45a7.51,7.51,0,0,1-.22,1.89,7.84,7.84,0,0,0,2.09-2.05,13.23,13.23,0,0,0,.13-2,2.82,2.82,0,0,0-1.08.3,9.54,9.54,0,0,1-.92,1.87Z" transform="translate(-305.38 -110.9)"/><path class="cls-22" d="M353.05,134.65a18.36,18.36,0,0,1,1.62,2.93,2.82,2.82,0,0,1,1.08-.3,10.3,10.3,0,0,0-.94-1.75,2.31,2.31,0,0,0-1.76-.88Z" transform="translate(-305.38 -110.9)"/><path class="cls-23" d="M358.7,168.2a51,51,0,0,0-7.81-5.37L338,175.13l1,0a31.41,31.41,0,0,0,19.75-7Z" transform="translate(-305.38 -110.9)"/><path class="cls-24" d="M335,171.3a19.07,19.07,0,0,0,.67-3.22,16.39,16.39,0,0,1-3.07-1.63,15.4,15.4,0,0,0,2.4,4.85Z" transform="translate(-305.38 -110.9)"/><path class="cls-25" d="M335.63,168.08c.75.15,5.31.41,6.4.52a43.18,43.18,0,0,0,7.33-4.36,8.09,8.09,0,0,1-.59-1.78c-5.18,0-12.67,1.51-16.21,4a16.39,16.39,0,0,0,3.07,1.63Z" transform="translate(-305.38 -110.9)"/><path class="cls-26" d="M349.36,164.24A43.18,43.18,0,0,1,342,168.6c3.93,2.43,8.15,4.13,11.4,4.08a20.49,20.49,0,0,0,1.42-2,66.06,66.06,0,0,1-5.49-6.41Z" transform="translate(-305.38 -110.9)"/><path class="cls-27" d="M349.36,164.24a66.06,66.06,0,0,0,5.49,6.41,13.91,13.91,0,0,0,.42-1.51,12.6,12.6,0,0,0-.74-2.68,24.83,24.83,0,0,0-3.64-3.63,17.44,17.44,0,0,0-2.12-.37,8.09,8.09,0,0,0,.59,1.78Z" transform="translate(-305.38 -110.9)"/><path class="cls-28" d="M353.43,172.68c-3.25,0-7.47-1.65-11.4-4.08-1.09-.11-5.65-.37-6.4-.52a19.07,19.07,0,0,1-.67,3.22,22.11,22.11,0,0,0,4,4.76,22.21,22.21,0,0,0,14.45-3.38Z" transform="translate(-305.38 -110.9)"/><path class="cls-29" d="M335.3,174.94a14.18,14.18,0,0,1-3-3l-3.76,1.46a31.11,31.11,0,0,0,6.78,1.56Z" transform="translate(-305.38 -110.9)"/><path class="cls-30" d="M322.59,171.39a15.87,15.87,0,0,0,2.89.72,29.61,29.61,0,0,0,1.07-3.22,8.86,8.86,0,0,0-3.2.64,6.3,6.3,0,0,0-.76,1.86Z" transform="translate(-305.38 -110.9)"/><path class="cls-31" d="M325.48,172.11a15.87,15.87,0,0,1-2.89-.72,8.29,8.29,0,0,0,1.8,2.66,20.76,20.76,0,0,0,3.13,1.84,13.78,13.78,0,0,1-2-3.78Z" transform="translate(-305.38 -110.9)"/><path class="cls-32" d="M325.48,172.11a13.78,13.78,0,0,0,2,3.78,9.27,9.27,0,0,0,2-.58,13,13,0,0,0,2.57-2,4.47,4.47,0,0,0,.16-1.39,53.93,53.93,0,0,0-5.73-3,29.61,29.61,0,0,1-1.07,3.22Z" transform="translate(-305.38 -110.9)"/><path class="cls-33" d="M350.86,119.05a52.75,52.75,0,0,1,8.63.61,31.56,31.56,0,0,0-9.69-5.7l1.06,5.09Z" transform="translate(-305.38 -110.9)"/><path class="cls-34" d="M349.44,118.38a17.22,17.22,0,0,1-4.12-3.3,32.53,32.53,0,0,0,3.41,3.81,2.79,2.79,0,0,0,.71-.51Z" transform="translate(-305.38 -110.9)"/><path class="cls-35" d="M352.72,117.72a15.38,15.38,0,0,1-3.28.66,2.79,2.79,0,0,1-.71.51A18.42,18.42,0,0,0,353,119a9.89,9.89,0,0,1-.28-1.25Z" transform="translate(-305.38 -110.9)"/><path class="cls-36" d="M352.72,117.72A9.89,9.89,0,0,0,353,119a11.31,11.31,0,0,0,1.51-2.07,6.69,6.69,0,0,1-1.19-.3,7.44,7.44,0,0,0-.6,1.12Z" transform="translate(-305.38 -110.9)"/><path class="cls-37" d="M352.2,113a32.58,32.58,0,0,0,1.12,3.6,6.69,6.69,0,0,0,1.19.3,16.64,16.64,0,0,0-1.47-5.06,2.77,2.77,0,0,0-.87-.51,9.34,9.34,0,0,0,0,1.67Z" transform="translate(-305.38 -110.9)"/><path class="cls-38" d="M347.36,112.37a36,36,0,0,1,4.84.63,9.34,9.34,0,0,1,0-1.67,14.72,14.72,0,0,0-4.27.16,15.76,15.76,0,0,0-2.78,1.25,12.48,12.48,0,0,1,2.24-.37Z" transform="translate(-305.38 -110.9)"/><path class="cls-39" d="M352.2,113a36,36,0,0,0-4.84-.63,12.48,12.48,0,0,0-2.24.37,9.24,9.24,0,0,0,.2,2.34,17.22,17.22,0,0,0,4.12,3.3,15.38,15.38,0,0,0,3.28-.66,7.44,7.44,0,0,1,.6-1.12,32.58,32.58,0,0,1-1.12-3.6Z" transform="translate(-305.38 -110.9)"/><path class="cls-40" d="M327.6,165.66a14.68,14.68,0,0,0,3.37-3.79,10,10,0,0,1,2.79-.62,36.25,36.25,0,0,0,6.08,1.33,24.38,24.38,0,0,0,10.07-4,22.78,22.78,0,0,0,3.37-4.75,19.89,19.89,0,0,0-.36-6.08c-3-2.59-6.64-4.13-9.71-6.11-5.81,4.08-11.43,8-17.08,11.92,3.85,7.68,2.93,8-2.17,1.52-3.43,2.38-6.87,4.79-10.39,7.26a31.64,31.64,0,0,0,5.8,6,48.66,48.66,0,0,0,8.23-2.68Z" transform="translate(-305.38 -110.9)"/><path class="cls-41" d="M335.29,138.45a21.17,21.17,0,0,0-5.1,1.37,29.92,29.92,0,0,0-6.91,5.19,11.55,11.55,0,0,0-.65,3,27,27,0,0,0,5.56,8.75,37.63,37.63,0,0,0,9.37,2.8,26.12,26.12,0,0,0,7.71-3.68,18.62,18.62,0,0,0,3.58-6.32,12.25,12.25,0,0,0,.27-1.94,34.69,34.69,0,0,0-5.86-5.94,47.59,47.59,0,0,0-8-3.25Z" transform="translate(-305.38 -110.9)"/><path class="cls-42" d="M328.19,156.78a9,9,0,0,0,2.61-2.44,47.64,47.64,0,0,0-8.17-6.31,27,27,0,0,0,5.56,8.75Z" transform="translate(-305.38 -110.9)"/><path class="cls-43" d="M330.8,154.34a9,9,0,0,1-2.61,2.44,37.63,37.63,0,0,0,9.37,2.8,9.55,9.55,0,0,0-.94-3.92,24.93,24.93,0,0,1-5.82-1.32Z" transform="translate(-305.38 -110.9)"/><path class="cls-44" d="M339.67,152a19.7,19.7,0,0,1-3.05,3.66,9.55,9.55,0,0,1,.94,3.92,26.12,26.12,0,0,0,7.71-3.68,18.62,18.62,0,0,0,3.58-6.32,12.25,12.25,0,0,0,.27-1.94,12.87,12.87,0,0,1-3.59.14,25.72,25.72,0,0,1-5.86,4.22Z" transform="translate(-305.38 -110.9)"/><path class="cls-45" d="M338.2,145.11a36.3,36.3,0,0,0,1.47,6.89,25.72,25.72,0,0,0,5.86-4.22q-3.73-1.16-7.33-2.67Z" transform="translate(-305.38 -110.9)"/><path class="cls-46" d="M338.2,145.11q3.6,1.51,7.33,2.67a12.87,12.87,0,0,0,3.59-.14,34.69,34.69,0,0,0-5.86-5.94,47.59,47.59,0,0,0-8-3.25,21.17,21.17,0,0,0-5.1,1.37,46.1,46.1,0,0,0,8,5.29Z" transform="translate(-305.38 -110.9)"/><path class="cls-47" d="M339.67,152a36.3,36.3,0,0,1-1.47-6.89,46.1,46.1,0,0,1-8-5.29,29.92,29.92,0,0,0-6.91,5.19,11.55,11.55,0,0,0-.65,3,47.64,47.64,0,0,1,8.17,6.31,24.93,24.93,0,0,0,5.82,1.32,19.7,19.7,0,0,0,3.05-3.66Z" transform="translate(-305.38 -110.9)"/><path class="cls-48" d="M319.19,152c-1.15.48-6.06,2.86-8,4.63a31.12,31.12,0,0,1-.31,6.73,7.13,7.13,0,0,0,.89.95,10.29,10.29,0,0,0,4.35-.82,5.1,5.1,0,0,0,1.46-1.53,25.64,25.64,0,0,0,1.52-2.95,26.58,26.58,0,0,0,.08-7Z" transform="translate(-305.38 -110.9)"/><path class="cls-49" d="M320.9,161.56a13.33,13.33,0,0,0-3.31.35,5.1,5.1,0,0,1-1.46,1.53,10.29,10.29,0,0,1-4.35.82,21.91,21.91,0,0,0,4.91,3.06,14.28,14.28,0,0,0,3.82-.5,29.7,29.7,0,0,0,4.57-2.82,16.56,16.56,0,0,0-1.42-1.88c-.94-.24-1.85-.41-2.76-.56Z" transform="translate(-305.38 -110.9)"/><path class="cls-50" d="M317.59,161.91a13.33,13.33,0,0,1,3.31-.35,19.4,19.4,0,0,1-1.79-2.6,25.64,25.64,0,0,1-1.52,2.95Z" transform="translate(-305.38 -110.9)"/><path class="cls-51" d="M326.71,159.69a14.86,14.86,0,0,0-3,2.43,16.56,16.56,0,0,1,1.42,1.88h0a14.5,14.5,0,0,0,1.6-4.3Z" transform="translate(-305.38 -110.9)"/><path class="cls-52" d="M323.66,162.12a14.86,14.86,0,0,1,3-2.43,25.48,25.48,0,0,0-3.29-5.3,28.08,28.08,0,0,0-2.56-2.06,5,5,0,0,0-1.67-.38,26.58,26.58,0,0,1-.08,7,19.4,19.4,0,0,0,1.79,2.6c.91.15,1.82.32,2.76.56Z" transform="translate(-305.38 -110.9)"/><path class="cls-53" d="M356.52,151.48c-.17-.72-.59-2.34-.36-2.72a12.75,12.75,0,0,1,1,2.66,1.59,1.59,0,0,0-.61.06Z" transform="translate(-305.38 -110.9)"/><path class="cls-54" d="M355.27,154.06a15.76,15.76,0,0,0,1.25-2.58,1.59,1.59,0,0,1,.61-.06,18.82,18.82,0,0,1-.49,3.08,10,10,0,0,0-1.37-.44Z" transform="translate(-305.38 -110.9)"/><path class="cls-55" d="M355.27,154.06a10,10,0,0,1,1.37.44,11.8,11.8,0,0,1-2.13,2.2,12.38,12.38,0,0,1,0-2.11,2.79,2.79,0,0,0,.73-.53Z" transform="translate(-305.38 -110.9)"/><path class="cls-56" d="M354.54,154.59a12.38,12.38,0,0,0,0,2.11,10.21,10.21,0,0,1-1.36.73,26,26,0,0,1-2.9-1.77,4.78,4.78,0,0,1-.44-1,7.66,7.66,0,0,0,1.48-1,6.94,6.94,0,0,0,3.25.93Z" transform="translate(-305.38 -110.9)"/><path class="cls-57" d="M352.25,149.81a16.42,16.42,0,0,0-1,3.85,7.66,7.66,0,0,1-1.48,1,37.26,37.26,0,0,1,2.06-5.12l.38.31Z" transform="translate(-305.38 -110.9)"/><path class="cls-58" d="M352.25,149.81l-.38-.31a9.58,9.58,0,0,1,2.24-1.51,17.82,17.82,0,0,0-1.86,1.82Z" transform="translate(-305.38 -110.9)"/><path class="cls-59" d="M352.25,149.81a17.82,17.82,0,0,1,1.86-1.82,9.72,9.72,0,0,1,2.05.77c-.23.38.19,2,.36,2.72a15.76,15.76,0,0,1-1.25,2.58,2.79,2.79,0,0,1-.73.53,6.94,6.94,0,0,1-3.25-.93,16.42,16.42,0,0,1,1-3.85Z" transform="translate(-305.38 -110.9)"/><path class="cls-60" d="M310,135.5a6.77,6.77,0,0,0,3.35,1.78,27,27,0,0,0,9.17-1.92c1.49-2.23,2-6.15,2.17-9.17a10.81,10.81,0,0,0-1.78-3.18c-3.81,4.51-9.1,8-12.91,12.49Z" transform="translate(-305.38 -110.9)"/><path class="cls-61" d="M313.54,136.68a14.36,14.36,0,0,1-2.29-2.32,10.87,10.87,0,0,1-3.46-1.16,12.59,12.59,0,0,0,3.7,3.32,9.36,9.36,0,0,0,2.05.16Z" transform="translate(-305.38 -110.9)"/><path class="cls-62" d="M311.25,134.36a14.36,14.36,0,0,0,2.29,2.32c1.51-.16,6.66-2,7.45-2.63a14.91,14.91,0,0,1-2.18-3.68,49,49,0,0,1-7.56,4Z" transform="translate(-305.38 -110.9)"/><path class="cls-63" d="M318.81,130.37a14.91,14.91,0,0,0,2.18,3.68,24.86,24.86,0,0,0,2.81-8,9.12,9.12,0,0,0-.24-1.87,19.78,19.78,0,0,0-1.36-2.25,45.42,45.42,0,0,1-3.39,8.46Z" transform="translate(-305.38 -110.9)"/><path class="cls-64" d="M311.25,134.36a49,49,0,0,0,7.56-4,45.42,45.42,0,0,0,3.39-8.46,18.45,18.45,0,0,0-3.78-3,27.38,27.38,0,0,0-6.83,4.41,27.51,27.51,0,0,0-4,6.49,13.18,13.18,0,0,0,.22,3.38,10.87,10.87,0,0,0,3.46,1.16Z" transform="translate(-305.38 -110.9)"/><path class="cls-65" d="M307.4,143.6a31.09,31.09,0,0,0,.69,6.59,20.07,20.07,0,0,0,6.4-1.77,12.56,12.56,0,0,0-3.8-8.89l-3.14,1c-.1,1-.15,2.06-.15,3.11Z" transform="translate(-305.38 -110.9)"/><path class="cls-66" d="M306.45,148.8a18.63,18.63,0,0,0,1.51,1.1,2.3,2.3,0,0,0,.43.18,2.56,2.56,0,0,1-.77.26,6.75,6.75,0,0,1-1.17-1.54Z" transform="translate(-305.38 -110.9)"/><path class="cls-67" d="M308,149.9a11.17,11.17,0,0,1,1-2.87,24.52,24.52,0,0,0,3.83,0,15.78,15.78,0,0,1-4.44,3,2.3,2.3,0,0,1-.43-.18Z" transform="translate(-305.38 -110.9)"/><path class="cls-68" d="M309,147a11.17,11.17,0,0,0-1,2.87,18.63,18.63,0,0,1-1.51-1.1,32.43,32.43,0,0,1-1.07-3.58c0-1.51,0-3,.16-4.56a7,7,0,0,1,1.27-.86,25.87,25.87,0,0,0,2.64.08,1.71,1.71,0,0,0,.4.25,4.2,4.2,0,0,0-1.18,4.12A4.8,4.8,0,0,0,309,147Z" transform="translate(-305.38 -110.9)"/><path class="cls-69" d="M309,147a4.8,4.8,0,0,1-.33-2.78,4.2,4.2,0,0,1,1.18-4.12,12.93,12.93,0,0,0,1.33-.08c.39.84,1.73,5,1.65,7a24.52,24.52,0,0,1-3.83,0Z" transform="translate(-305.38 -110.9)"/><path class="cls-70" d="M311.18,140.05a12.93,12.93,0,0,1-1.33.08,1.71,1.71,0,0,1-.4-.25,10.89,10.89,0,0,1,1.24-.35,3,3,0,0,1,.49.52Z" transform="translate(-305.38 -110.9)"/><path class="cls-71" d="M310.69,139.53a10.89,10.89,0,0,0-1.24.35,25.87,25.87,0,0,1-2.64-.08c.71-.34,1.42-.67,2.16-1a17.58,17.58,0,0,1,1.72.68Z" transform="translate(-305.38 -110.9)"/><path class="cls-72" d="M329.85,127.77a17.89,17.89,0,0,1,.29-4.52,19.82,19.82,0,0,0,1.7,4.06,10.16,10.16,0,0,0-2,.46Z" transform="translate(-305.38 -110.9)"/><path class="cls-73" d="M329.85,127.77a10.16,10.16,0,0,1,2-.46,27,27,0,0,0,3.37,2.89,24.14,24.14,0,0,1-1.51,3.25,41.21,41.21,0,0,1-3.85-5.68Z" transform="translate(-305.38 -110.9)"/><path class="cls-74" d="M333.7,133.45a24.14,24.14,0,0,0,1.51-3.25A24.43,24.43,0,0,0,340.3,129a57.72,57.72,0,0,0,5.24,7.77,15.89,15.89,0,0,1-3.25.93,33.08,33.08,0,0,1-8.59-4.2Z" transform="translate(-305.38 -110.9)"/><path class="cls-75" d="M345.54,136.72A57.72,57.72,0,0,1,340.3,129c.66-.78,1.33-1.55,2-2.32a19,19,0,0,1,4,1,23.2,23.2,0,0,1,3.52,3.86,17.75,17.75,0,0,1-4.32,5.28Z" transform="translate(-305.38 -110.9)"/><path class="cls-76" d="M349.86,131.44a23.2,23.2,0,0,0-3.52-3.86,19,19,0,0,0,.15-4.73,38.7,38.7,0,0,1,3.37,8.59Z" transform="translate(-305.38 -110.9)"/><path class="cls-77" d="M346.49,122.85a19,19,0,0,1-.15,4.73,19,19,0,0,0-4-1,24.11,24.11,0,0,0-2.46-5.09,18.49,18.49,0,0,0-4.33-1.71,42.84,42.84,0,0,1,4.42.66c1.94.58,4.44,1.59,6.56,2.36Z" transform="translate(-305.38 -110.9)"/><path class="cls-78" d="M339.84,121.54a24.11,24.11,0,0,1,2.46,5.09c-.67.77-1.34,1.54-2,2.32a24.43,24.43,0,0,1-5.09,1.25,27,27,0,0,1-3.37-2.89,19.82,19.82,0,0,1-1.7-4.06,21,21,0,0,1,5.37-3.42,18.49,18.49,0,0,1,4.33,1.71Z" transform="translate(-305.38 -110.9)"/><path class="cls-79" d="M334,129.34a2.66,2.66,0,0,1,2.64.73c.17.31-1.35,1.16-1.81,1.07-.29-.06-1.11-1.5-.83-1.8Z" transform="translate(-305.38 -110.9)"/><path class="cls-80" d="M334,129.31a3.07,3.07,0,0,1,2.54.7c.13.3-1.25,1.17-1.67,1.08-.27-.05-1.12-1.51-.87-1.78Z" transform="translate(-305.38 -110.9)"/><path class="cls-81" d="M338.2,145.11a46.1,46.1,0,0,1-8-5.29,29.92,29.92,0,0,0-6.91,5.19,11.55,11.55,0,0,0-.65,3,54.2,54.2,0,0,1,5.3,3.75C330.41,151.87,337,147.84,338.2,145.11Z" transform="translate(-305.38 -110.9)"/><path class="cls-82" d="M311.25,134.36a49,49,0,0,0,7.56-4,45.42,45.42,0,0,0,3.39-8.46,18.45,18.45,0,0,0-3.78-3,27.38,27.38,0,0,0-6.83,4.41,27.51,27.51,0,0,0-4,6.49,13.18,13.18,0,0,0,.22,3.38,10.87,10.87,0,0,0,3.46,1.16Z" transform="translate(-305.38 -110.9)"/><path class="cls-83" d="M339.84,121.54a24.11,24.11,0,0,1,2.46,5.09c-.67.77-1.34,1.54-2,2.32a24.43,24.43,0,0,1-5.09,1.25,27,27,0,0,1-3.37-2.89,19.82,19.82,0,0,1-1.7-4.06,21,21,0,0,1,5.37-3.42,18.49,18.49,0,0,1,4.33,1.71Z" transform="translate(-305.38 -110.9)"/></g></g></svg>