<svg xmlns="http://www.w3.org/2000/svg" xmlns:xlink="http://www.w3.org/1999/xlink" viewBox="0 0 65.72 67.09"><defs><style>.cls-1{isolation:isolate;}.cls-10,.cls-11,.cls-12,.cls-13,.cls-14,.cls-2,.cls-4,.cls-5,.cls-6,.cls-7,.cls-8,.cls-9{fill-rule:evenodd;}.cls-2{fill:url(#radial-gradient);}.cls-11,.cls-3{mix-blend-mode:multiply;}.cls-4{fill:url(#radial-gradient-2);}.cls-5{fill:url(#radial-gradient-3);}.cls-6{fill:url(#radial-gradient-4);}.cls-7{fill:url(#radial-gradient-5);}.cls-8{fill:url(#New_Gradient_Swatch_65);}.cls-9{opacity:0.5;fill:url(#radial-gradient-6);}.cls-10,.cls-13,.cls-14,.cls-9{mix-blend-mode:screen;}.cls-10{fill:url(#radial-gradient-7);}.cls-11{fill:url(#radial-gradient-8);}.cls-12{fill:url(#radial-gradient-9);}.cls-13{fill:url(#radial-gradient-10);}.cls-14{fill:url(#linear-gradient);}</style><radialGradient id="radial-gradient" cx="332.53" cy="40.9" r="54.1" gradientUnits="userSpaceOnUse"><stop offset="0" stop-color="#71f5ff"/><stop offset="0.15" stop-color="#67e9ff"/><stop offset="0.43" stop-color="#4cc9ff"/><stop offset="0.5" stop-color="#44bfff"/><stop offset="0.92" stop-color="#ce2feb"/></radialGradient><radialGradient id="radial-gradient-2" cx="333.67" cy="48.66" r="48.88" gradientUnits="userSpaceOnUse"><stop offset="0.33" stop-color="#f5f5ff"/><stop offset="0.46" stop-color="#f0eafa"/><stop offset="0.68" stop-color="#e1cced"/><stop offset="0.98" stop-color="#ca9dd9"/><stop offset="1" stop-color="#c899d7"/></radialGradient><radialGradient id="radial-gradient-3" cx="323.33" cy="47.72" r="42.31" gradientUnits="userSpaceOnUse"><stop offset="0" stop-color="#e87923"/><stop offset="1" stop-color="#ad4200"/></radialGradient><radialGradient id="radial-gradient-4" cx="332.09" cy="40.85" r="53.14" gradientUnits="userSpaceOnUse"><stop offset="0" stop-color="#ed9600"/><stop offset="1" stop-color="#e94e1b"/></radialGradient><radialGradient id="radial-gradient-5" cx="341.25" cy="79.18" r="49.93" gradientUnits="userSpaceOnUse"><stop offset="0" stop-color="#f5812a"/><stop offset="1" stop-color="#b84706"/></radialGradient><radialGradient id="New_Gradient_Swatch_65" cx="322.27" cy="40.85" r="40.86" gradientUnits="userSpaceOnUse"><stop offset="0" stop-color="#f5812a"/><stop offset="1" stop-color="#bd5519"/></radialGradient><radialGradient id="radial-gradient-6" cx="330.32" cy="38" r="40.64" gradientUnits="userSpaceOnUse"><stop offset="0" stop-color="#a48a7b"/><stop offset="1" stop-color="#000a00"/></radialGradient><radialGradient id="radial-gradient-7" cx="329.01" cy="37.23" r="41.99" gradientUnits="userSpaceOnUse"><stop offset="0" stop-color="#c2f5f4"/><stop offset="1" stop-color="#000012"/></radialGradient><radialGradient id="radial-gradient-8" cx="338.03" cy="43.81" r="52.42" gradientUnits="userSpaceOnUse"><stop offset="0.33" stop-color="#e6f5f5"/><stop offset="0.46" stop-color="#e5f1f0"/><stop offset="0.61" stop-color="#e1e6e2"/><stop offset="0.76" stop-color="#dad4cb"/><stop offset="0.92" stop-color="#d1baab"/><stop offset="1" stop-color="#ccac99"/></radialGradient><radialGradient id="radial-gradient-9" cx="350.71" cy="66.16" r="27.5" gradientUnits="userSpaceOnUse"><stop offset="0" stop-color="#d45c00"/><stop offset="1" stop-color="#8c3500"/></radialGradient><radialGradient id="radial-gradient-10" cx="346.3" cy="53.52" r="41.29" gradientUnits="userSpaceOnUse"><stop offset="0.68"/><stop offset="0.72" stop-color="#040200"/><stop offset="0.76" stop-color="#100800"/><stop offset="0.8" stop-color="#241300"/><stop offset="0.84" stop-color="#402100"/><stop offset="0.88" stop-color="#643400"/><stop offset="0.92" stop-color="#904b00"/><stop offset="0.96" stop-color="#c36500"/><stop offset="1" stop-color="#f98100"/></radialGradient><linearGradient id="linear-gradient" x1="315.54" y1="31.13" x2="346.4" y2="64.92" gradientUnits="userSpaceOnUse"><stop offset="0" stop-color="#f98100"/><stop offset="0.08" stop-color="#f57f00"/><stop offset="0.17" stop-color="#e97900"/><stop offset="0.25" stop-color="#d56e00"/><stop offset="0.33" stop-color="#b96000"/><stop offset="0.41" stop-color="#954d00"/><stop offset="0.5" stop-color="#683600"/><stop offset="0.58" stop-color="#351b00"/><stop offset="0.65"/></linearGradient></defs><title>3</title><g class="cls-1"><g id="Layer_1" data-name="Layer 1"><path class="cls-2" d="M338.69,25.76a31.12,31.12,0,1,1-31.12,31.12,31.12,31.12,0,0,1,31.12-31.12Z" transform="translate(-305.93 -23.05)"/><g class="cls-3"><path class="cls-4" d="M362.28,54.83c0,.4.64.87,1.16.05a2.84,2.84,0,0,0,.13-2.53c-.2-.36-1.42-1.55-1.84-1a1.4,1.4,0,0,0,0,1.18A4.66,4.66,0,0,1,362.28,54.83ZM329.67,80.41a9.49,9.49,0,0,0,2.93,0,.42.42,0,0,0-.06-.45,3.75,3.75,0,0,0-2.37-.82C329.8,79.25,329,80.17,329.67,80.41Zm9.27.69c1.31-.52,2.88-1.9,1-2.8-.9-.43-8-1.31-6.87,1.18C333.51,80.45,336.87,81.93,338.94,81.1Zm-.25-55.34a31,31,0,0,0-8.33,1.13c1,0,2,0,3,0,.79,0,1.59-.11,2.38-.06,1.09.09,2.16.41,3.25.47s2.42-.2,3.62-.1a9.17,9.17,0,0,1,2.68.62c1,.37,1.75,1.07,2.69,1.49,1.41.64,2.95,1,4.34,1.66a12.69,12.69,0,0,1,1.86,1.34,14,14,0,0,1,2.94,2.12c.53.64.33,1.65.73,2.37.87,1.61,2.1,3,3,4.55a12.53,12.53,0,0,1,1.61,3.1c.46,1.71.29,3.54.67,5.27.24,1.1,1,2,1.19,3.15A14,14,0,0,1,364.1,57c-.44,2.37-1.23,4.65-1.81,7a14.39,14.39,0,0,1-.62,2.69,8.88,8.88,0,0,1-1.45,1.75,34.46,34.46,0,0,0-2.94,3.46c-.62,1-.62,2.3-1.29,3.26a7.35,7.35,0,0,1-2.59,2.27c-.9.47-2,.27-3,.62a33.84,33.84,0,0,0-3.41,1.7,44,44,0,0,1-5,2.48,7.74,7.74,0,0,1-3.1.37c-1.78-.13-3.5-.74-5.27-.93s-3.45-.15-5.17-.21a11,11,0,0,1-3.25-.1,11.54,11.54,0,0,1-4.39-2.59c-.8-.8-.63-2.23-1.29-3.15a22.36,22.36,0,0,0-2.9-2.58A27.61,27.61,0,0,1,312.54,69c-.75-1.11-.76-2.59-1.29-3.82s-1.49-2.13-1.81-3.36a21.37,21.37,0,0,1-.72-6.36c.1-2.07,1.17-4,1.34-6.09a25.51,25.51,0,0,0-.12-4.37,31.12,31.12,0,1,0,28.75-19.21Z" transform="translate(-305.93 -23.05)"/></g><path class="cls-5" d="M356.28,40.68c2.31-1.15,4.34-2.61,5-4.69,1.06-3.22-.62-2.84-1.34-4.18s-.24-1.9-2.47-3.5a6.13,6.13,0,0,0-.95-.57A26.72,26.72,0,0,0,344.83,25a32.07,32.07,0,0,0-8.16,1.29c6.67.24,12.25,1,15.78,2.77a6.63,6.63,0,0,1,3.28,3.27c.62,1.32,3.07,1.74,2.2,3.75-.8,1.84-4.24,3.62-7.55,4.94a29.14,29.14,0,0,1-4.85,1.92c-5.14,1-10.77,1.1-16.21,1.84-3.94.54-7.37,2.34-10.85,4.21-1.84,1-4,.84-6.15,2.72-1.94,1.69-2.55,4.17-3.36,6.45-1.59,4.46-1.29,9.64.83,15a21.82,21.82,0,0,0,1.35,2.8c-5.24-12-2.59-21.18,7-26,1.87-1,4.3-1,6.68-1.63,2.1-.53,4.1-2.12,6.6-1.89a23.64,23.64,0,0,0,11.85-1.52c5-1.79,9.52-2.43,13-4.16Z" transform="translate(-305.93 -23.05)"/><path class="cls-6" d="M337.29,36.65c2.38-.51,5.06-2.23,7.28-3.11s4.42-1.19,5.48-2.21l.09-.1a3.43,3.43,0,0,0,1-2.75c0-.05,0-.1,0-.15a3.7,3.7,0,0,0-.46-1.29,5.31,5.31,0,0,0-1.34-1.59l-.13-.09c-3.31-2.3-8.89-2.21-13.83-2.3-3.5-.06-7.46.18-10.45,1.5s-5.09,4.23-7.65,6.23c-.65.51-1.37,1-2.08,1.42A14.23,14.23,0,0,0,312.42,34a26,26,0,0,0-3.66,6.09,26.51,26.51,0,0,0-2.07,5.7c1.14-2.91,2.46-2.67,4.67-3.81a10.68,10.68,0,0,0,1.2-.71,22.84,22.84,0,0,1,6.86-3.49c5.25-1.37,12.35.06,17.87-1.13Zm6,8.19a23.64,23.64,0,0,1-11.85,1.52c-2.5-.23-4.5,1.36-6.6,1.89-2.38.61-4.81.68-6.68,1.63C311.91,53,308.6,58,308.5,64.43a27.88,27.88,0,0,0,2.64,11.49q.58,1,1.26,2c1,1.46,2.7,2.72,4,4.16a37.53,37.53,0,0,0,3.27,3.49c2.23,2,5.64,2.75,9.48,3.28,3.59.5,7.24,1.67,11,1.2A44.65,44.65,0,0,0,349,88c4.77-1.65,9.52-4.52,12.44-9a8.62,8.62,0,0,1-.65.72,29.35,29.35,0,0,1-11.69,7.07,24.88,24.88,0,0,1-6.37,1,18.94,18.94,0,0,1-6.42-.91c-4.92-1.64-9.5-2.3-13-5.38-4-3.58-5.41-10.57-4.2-14.58.54-1.8,2.32-3.06,3.64-4.58,2.83-3.23,3.43-7.48,10.84-7.27,3.11.1,6.25-2.83,9.83-3.35,3.37-.49,6.41-.59,9.77-3.36,1.87-1.55,3.68-1.88,5.47-2.91,2.52-1.45,4.8-3.35,5.48-6.31a9.06,9.06,0,0,0,0-3.61,8.44,8.44,0,0,0-.42-1.07c-1.37-2.85-4.1-5.08-7.29-6.66a6.13,6.13,0,0,1,.95.57c2.23,1.6,1.7,2.05,2.47,3.5.69,1.29,2.26,1,1.45,3.81,0,.12-.07.24-.11.37-.69,2.08-2.72,3.54-5,4.69-3.49,1.73-8,2.37-13,4.16Zm23.91-.5c5.07,3,5,13.45,3.83,18.77-1.21,5.74-5.52,12.56-12,13.51-4.61.69-6.41.92-8.67-.34-1.53-.86-2.28-4.69-1.73-5.78.44-.88,2.5-1.57,4.65-2.58,2.64-1.23,4.84-1.69,6.76-4.7s4.93-2.59,6.74-6.48a15.42,15.42,0,0,0,.41-12.4Z" transform="translate(-305.93 -23.05)"/><path class="cls-7" d="M323.93,77.89c-1.39-2.65-1-6.1-.77-8.9a11,11,0,0,1,1.54-5c2.39-3.9,6.68-6.65,11.63-8.5,5.84-2.18,13.84-2.61,18.25-4.5,1.92-.82,3.22-2.77,4.8-4.41,1.41-1.46,2.85-1.23,4.14-4.28a14.77,14.77,0,0,0,.94-2.89,7.69,7.69,0,0,0-.2-4,9.06,9.06,0,0,1,0,3.61c-.68,3-3,4.86-5.48,6.31-1.79,1-3.6,1.36-5.47,2.91-3.36,2.77-6.4,2.87-9.77,3.36-3.58.52-6.72,3.45-9.83,3.35-7.41-.21-8,4-10.84,7.27-1.32,1.52-3.1,2.78-3.64,4.58-1.21,4,.17,11,4.2,14.58,3.45,3.08,8,3.74,13,5.38a18.94,18.94,0,0,0,6.42.91,24.88,24.88,0,0,0,6.37-1,29.35,29.35,0,0,0,11.69-7.07,7.79,7.79,0,0,0,1.72-2.52l.24-.59a21.92,21.92,0,0,1-11.19,7.09c-1.86.53-3.89.56-5.81,1.16-7,2.22-9.37,1.37-13,.18a18,18,0,0,1-5.93-3.34,13,13,0,0,1-3-3.77Z" transform="translate(-305.93 -23.05)"/><path class="cls-8" d="M344.57,33.54c-2.22.88-4.9,2.6-7.28,3.11-5.52,1.19-12.62-.24-17.87,1.13a22.84,22.84,0,0,0-6.86,3.49c-3,2-4.54,1.12-5.87,4.52a29.69,29.69,0,0,0-.52,10.52c.31,2.56.86,4.59,1.8,5.55-.72-6.79-.14-12.12,2.54-15.84a9.63,9.63,0,0,1,3.33-2.87,30.53,30.53,0,0,1,5.27-1.46c1.9-.5,3.78-2,6.2-2.57,3-.68,6.18-.51,9.38-.56a59.85,59.85,0,0,0,9-.41c2.83-.51,3.91-1.71,5.85-3.83,1.43-1.55,4.39-1.88,1.91-5.85-.29-.46-.55-1-.83-1.43a3.43,3.43,0,0,1-.5,4.19l-.09.1c-1.06,1-3.31,1.36-5.48,2.21Z" transform="translate(-305.93 -23.05)"/><path class="cls-9" d="M321.66,32.34c-2.54,1.93-4,2.2-5.86,5.23a19.37,19.37,0,0,0-1.18,2.37,18.41,18.41,0,0,1,4.8-2.16c5.25-1.37,12.35.06,17.87-1.13,2.38-.51,5.06-2.23,7.28-3.11,1.36-.53,2.76-.87,3.87-1.29a5.41,5.41,0,0,0-1-1.53c-3.11-3.19-4.88-3.28-8.63-3.25-1.35,0-2.69-.2-4-.21a17.62,17.62,0,0,0-3.25.16A23.92,23.92,0,0,0,327,28.73c-2.76,1.12-3.29,2.05-5.34,3.61Zm9.76,14c-2.5-.23-4.5,1.36-6.6,1.89-2.38.61-4.81.68-6.68,1.63A19.56,19.56,0,0,0,312.59,54a3.37,3.37,0,0,0-.63,3.71l.44,1c1.61,3.74,1,3.92,4.55,6.64a9.68,9.68,0,0,0,2.36,1.24c.64-1.64,2.29-2.84,3.53-4.27,2.83-3.23,3.43-7.48,10.84-7.27,3.11.1,6.25-2.83,9.83-3.35a30.69,30.69,0,0,0,5.82-1.11,2.68,2.68,0,0,0,1.76-1.92c.13-.5.27-1,.45-1.48a16.51,16.51,0,0,0,1.09-5.07c-2.79.86-6,1.54-9.36,2.76a23.64,23.64,0,0,1-11.85,1.52Z" transform="translate(-305.93 -23.05)"/><path class="cls-10" d="M348.68,53.71a12.4,12.4,0,0,0-2.28,0c-1.26.17-2.46.65-3.71.9a23.25,23.25,0,0,0-2.77.49c-.39.14-.77.68-1.16.82-.81.31-1.73.21-2.57.46a26.47,26.47,0,0,0-7.41,3.73c-.44.33-.52,1-.9,1.41s-1,.66-1.41,1.11c-.78.85-2.46,3.59-2,4.78a2,2,0,0,0,.49.82,12.88,12.88,0,0,0,7.44-.6c6-2.18,5.45-3.93,9.27-7.31,1.19-1.05,2.8-1.56,4-2.62a9.52,9.52,0,0,0,3.05-4ZM316.55,42.77a5.46,5.46,0,0,0-3.79,2.1,38.2,38.2,0,0,0-1.55,3.68,11.57,11.57,0,0,0-.8,4.93,16.43,16.43,0,0,1,1.3-2.07,5.59,5.59,0,0,1,1.61-1.34c1.11-.56,2.91-.6,4.41-1.43,1.07-.59,1.91-1.57,3-2.07a25.39,25.39,0,0,1,3.05-.65c.75-.23,1.42-.69,2.16-.94a32.69,32.69,0,0,1,6-1.18c.66-.12,1.24-.57,1.91-.66,1.14-.14,2.3,0,3.45,0,1.49-.09,3-.36,4.46-.46,1.05-.06,2.11.11,3.15,0,2-.25,5.32-1.24,5.68-3.47a9.19,9.19,0,0,0-.94-2.16,2.74,2.74,0,0,0-.65-.71c-.57-.18-.62-.15-1.34.49-1.86,1.66-1.74,2.08-4.46,2.57-.73.14-1.49-.07-2.22,0a19.71,19.71,0,0,1-2.67.76,27.13,27.13,0,0,1-4.08-.6c-2.65-.37-7.38-.67-9.88.35-1.48.6-2.75,1.64-4.18,2.37a4.47,4.47,0,0,1-1.34.43c-.77.1-1.57-.06-2.34.05Zm30.57,16.85c.47,1.47,2.87-.93,3.43-1,5.69-.48-5.13-4.37-3.43,1Zm-.92.51c-1.1-.87-3.63.22-4.27,1.46-.54,1-1.7,3.53,0,4.17s3-2.79,4.72-3.3c.9-.28.07-1.92-.46-2.33ZM328,72.19c3.32.48,10.68.85,7.94-2.34-1.65-1.92-2.27-.78-5.11-.08-1.93.47-2.5-.28-3.68-.2-1.66.1-2.18,2.19.85,2.62Zm9.22-1.52c.27.52,1.31-.64,1.4-1,.34-1.38-.32-1-1.45-.86-1.55.23-.33,1.1.05,1.85Z" transform="translate(-305.93 -23.05)"/><path class="cls-11" d="M323.4,81.44a12.56,12.56,0,0,1-2.91-4,3.73,3.73,0,0,1-.72-1.73c-.11-.31-.21-.63-.3-1a1.72,1.72,0,0,0-.22-.37c-1.5-2.07-5-3.89-6.8-6.5-.74-1.09-.74-2.53-1.26-3.73a1.71,1.71,0,0,0-.86-.88c-1.34-.72-1.39-2-1.15-3.44a16.35,16.35,0,0,0-.68,4.55,27.88,27.88,0,0,0,2.64,11.49q.58,1,1.26,2c1,1.46,2.7,2.72,4,4.16a37.53,37.53,0,0,0,3.27,3.49c2.23,2,5.64,2.75,9.48,3.28,3.59.5,7.24,1.67,11,1.2A44.65,44.65,0,0,0,349,88c4.77-1.65,9.52-4.52,12.44-9a8.62,8.62,0,0,1-.65.72,29.35,29.35,0,0,1-11.69,7.07,24.88,24.88,0,0,1-6.37,1,18.94,18.94,0,0,1-6.42-.91c-4.92-1.64-9.5-2.3-13-5.38ZM310.33,38.19c.22-.68.28-1.37.54-2.11-.78,1.26-1.41,2.61-2.11,4a26.51,26.51,0,0,0-2.07,5.7,4.55,4.55,0,0,1,3.05-3.1v-.16a10.18,10.18,0,0,1-.08-2.27,11.93,11.93,0,0,1,.68-2.07Zm6.8-6.55c.78-.21,1.7-.15,2.32-.65,1.49-1.2.42-2.38,3.73-3.83,2.33-1,3.91-.94,6.4-.76,1.51.11,3.59-.48,5.45-.43l.35,0a13.8,13.8,0,0,1,1.55.23l.61.1a6.79,6.79,0,0,0,1,.12c.47,0,.88,0,1.27,0a9.72,9.72,0,0,1,4.88.5c.93.36,1.76,1.51,2.67,1.92,1.18.53,2.18,1.11,3.3,1.67a3.47,3.47,0,0,0,.45-2.06c0-.05,0-.1,0-.15a3.7,3.7,0,0,0-.46-1.29,5.31,5.31,0,0,0-1.34-1.59l-.13-.09c-3.31-2.3-8.89-2.21-13.83-2.3-3.5-.06-7.46.18-10.45,1.5s-5.09,4.23-7.65,6.23c-.63.5-1.34.94-2,1.39l1.92-.54ZM361.31,36a6.91,6.91,0,0,1-2.78,3.37c1.87.22,4.26,2,2.59,4.42a8.49,8.49,0,0,0,3.11-4.7,9.06,9.06,0,0,0,0-3.61,8.44,8.44,0,0,0-.42-1.07c-1.37-2.85-4.1-5.08-7.29-6.66a6.13,6.13,0,0,1,.95.57c2.23,1.6,1.7,2.05,2.47,3.5.69,1.29,2.26,1,1.45,3.81,0,.12-.07.24-.11.37Zm-.48,32c-.95,1.13-3.95,1.57-4.74,2.82-.61,1-.61,2.24-1.26,3.17a7.08,7.08,0,0,1-2.52,2.22,3.91,3.91,0,0,1-1.45.35,6.62,6.62,0,0,0,3,.64,36.33,36.33,0,0,0,5.16-.56A11.52,11.52,0,0,0,364.66,74,19.84,19.84,0,0,0,371,63.11c1.07-5.06,1.23-14.78-3.13-18.29a8.45,8.45,0,0,1,1.76,8.78c0,.11-.09.21-.13.31-.78,1.62-2.51,3.75-3.59,5.84s-.84,2.51-3,4c-.22.16-.45.31-.68.46-.64.41-1.26.78-1.68,1,1.44,1,.94,2,.26,2.79Z" transform="translate(-305.93 -23.05)"/><path class="cls-12" d="M367.88,44.82a7.18,7.18,0,0,0-.7-.48,15.42,15.42,0,0,1-.41,12.4,8.06,8.06,0,0,1-3.49,3.69A8.89,8.89,0,0,0,360,63.22c-1.92,3-4.12,3.47-6.76,4.7-2.15,1-4.21,1.7-4.65,2.58s-.09,3.22.76,4.7a3.36,3.36,0,0,1,.18-2.6c.75-1.43,3.77-3.71,5.11-4.66,1.9-1.35,3.68-1.66,5.64-2.62.4-.2,1.16-.64,1.94-1.14.23-.15.46-.3.68-.46,2.15-1.46,1.85-1.76,3-4s2.81-4.22,3.59-5.84c0-.1.09-.2.13-.31A8.45,8.45,0,0,0,367.88,44.82Z" transform="translate(-305.93 -23.05)"/><path class="cls-13" d="M337.29,36.65c2.38-.51,5.06-2.23,7.28-3.11s4.42-1.19,5.48-2.21l.09-.1a3.43,3.43,0,0,0,1-2.75c0-.05,0-.1,0-.15a3.7,3.7,0,0,0-.46-1.29,5.31,5.31,0,0,0-1.34-1.59l-.13-.09c-3.31-2.3-8.89-2.21-13.83-2.3-3.5-.06-7.46.18-10.45,1.5s-5.09,4.23-7.65,6.23c-.65.51-1.37,1-2.08,1.42A14.23,14.23,0,0,0,312.42,34a26,26,0,0,0-3.66,6.09,26.51,26.51,0,0,0-2.07,5.7c1.14-2.91,2.46-2.67,4.67-3.81a10.68,10.68,0,0,0,1.2-.71,22.84,22.84,0,0,1,6.86-3.49c5.25-1.37,12.35.06,17.87-1.13Z" transform="translate(-305.93 -23.05)"/><path class="cls-14" d="M343.27,44.84a23.64,23.64,0,0,1-11.85,1.52c-2.5-.23-4.5,1.36-6.6,1.89-2.38.61-4.81.68-6.68,1.63C311.91,53,308.6,58,308.5,64.43a27.88,27.88,0,0,0,2.64,11.49q.58,1,1.26,2c1,1.46,2.7,2.72,4,4.16a37.53,37.53,0,0,0,3.27,3.49c2.23,2,5.64,2.75,9.48,3.28,3.59.5,7.24,1.67,11,1.2A44.65,44.65,0,0,0,349,88c4.77-1.65,9.52-4.52,12.44-9a8.62,8.62,0,0,1-.65.72,29.35,29.35,0,0,1-11.69,7.07,24.88,24.88,0,0,1-6.37,1,18.94,18.94,0,0,1-6.42-.91c-4.92-1.64-9.5-2.3-13-5.38-4-3.58-5.41-10.57-4.2-14.58.54-1.8,2.32-3.06,3.64-4.58,2.83-3.23,3.43-7.48,10.84-7.27,3.11.1,6.25-2.83,9.83-3.35,3.37-.49,6.41-.59,9.77-3.36,1.87-1.55,3.68-1.88,5.47-2.91,2.52-1.45,4.8-3.35,5.48-6.31a9.06,9.06,0,0,0,0-3.61,8.44,8.44,0,0,0-.42-1.07c-1.37-2.85-4.1-5.08-7.29-6.66a6.13,6.13,0,0,1,.95.57c2.23,1.6,1.7,2.05,2.47,3.5.69,1.29,2.26,1,1.45,3.81,0,.12-.07.24-.11.37-.69,2.08-2.72,3.54-5,4.69-3.49,1.73-8,2.37-13,4.16Z" transform="translate(-305.93 -23.05)"/></g></g></svg>