<svg xmlns="http://www.w3.org/2000/svg" xmlns:xlink="http://www.w3.org/1999/xlink" viewBox="0 0 63.71 63.74"><defs><style>.cls-1{isolation:isolate;}.cls-10,.cls-11,.cls-12,.cls-13,.cls-14,.cls-2,.cls-3,.cls-4,.cls-5,.cls-6,.cls-7,.cls-8,.cls-9{fill-rule:evenodd;}.cls-2{fill:url(#linear-gradient);}.cls-3{fill:url(#radial-gradient);}.cls-4{fill:url(#radial-gradient-2);}.cls-10,.cls-11,.cls-12,.cls-13,.cls-14,.cls-5,.cls-7,.cls-9{mix-blend-mode:screen;}.cls-5{fill:url(#radial-gradient-3);}.cls-6{opacity:0.7;fill:url(#radial-gradient-4);}.cls-6,.cls-8{mix-blend-mode:multiply;}.cls-7{fill:url(#radial-gradient-5);}.cls-8{fill:url(#radial-gradient-6);}.cls-9{opacity:0.6;fill:url(#radial-gradient-7);}.cls-10{fill:url(#radial-gradient-8);}.cls-11{fill:url(#radial-gradient-9);}.cls-12{fill:url(#radial-gradient-10);}.cls-13{fill:url(#radial-gradient-11);}.cls-14{fill:url(#radial-gradient-12);}</style><linearGradient id="linear-gradient" x1="31.1" y1="151.75" x2="94.32" y2="151.75" gradientUnits="userSpaceOnUse"><stop offset="0" stop-color="#4f309e"/><stop offset="0.33" stop-color="#472990"/><stop offset="1" stop-color="#391d77"/></linearGradient><radialGradient id="radial-gradient" cx="51.26" cy="129.92" r="50.72" gradientUnits="userSpaceOnUse"><stop offset="0" stop-color="#71f5ff"/><stop offset="0.13" stop-color="#6ae9ff"/><stop offset="0.36" stop-color="#56c9ff"/><stop offset="0.38" stop-color="#54c5ff"/><stop offset="0.92" stop-color="#1483ff"/></radialGradient><radialGradient id="radial-gradient-2" cx="53.16" cy="128.94" r="50.14" gradientUnits="userSpaceOnUse"><stop offset="0" stop-color="#7a369e"/><stop offset="0.23" stop-color="#6e349e"/><stop offset="0.63" stop-color="#4f309e"/><stop offset="1" stop-color="#33128a"/></radialGradient><radialGradient id="radial-gradient-3" cx="40.82" cy="116.1" r="44.49" gradientUnits="userSpaceOnUse"><stop offset="0" stop-color="#8d6eff"/><stop offset="1"/></radialGradient><radialGradient id="radial-gradient-4" cx="54.63" cy="134.81" r="52.53" gradientUnits="userSpaceOnUse"><stop offset="0.45" stop-color="#fff"/><stop offset="0.5" stop-color="#f8f4f9"/><stop offset="0.58" stop-color="#e7d6e8"/><stop offset="0.69" stop-color="#caa6cd"/><stop offset="0.83" stop-color="#a263a8"/><stop offset="0.97" stop-color="#700f79"/><stop offset="1" stop-color="#670070"/></radialGradient><radialGradient id="radial-gradient-5" cx="44.69" cy="125.95" r="39.91" gradientUnits="userSpaceOnUse"><stop offset="0" stop-color="#91fbff"/><stop offset="1"/></radialGradient><radialGradient id="radial-gradient-6" cx="58.13" cy="135.56" r="49.82" gradientUnits="userSpaceOnUse"><stop offset="0.33" stop-color="#fff"/><stop offset="0.4" stop-color="#f4fafa"/><stop offset="0.52" stop-color="#d6eeed"/><stop offset="0.68" stop-color="#a6dad7"/><stop offset="0.87" stop-color="#64beb9"/><stop offset="1" stop-color="#35aaa4"/></radialGradient><radialGradient id="radial-gradient-7" cx="49.35" cy="145.19" r="58.79" gradientUnits="userSpaceOnUse"><stop offset="0" stop-color="#00e1ff"/><stop offset="1"/></radialGradient><radialGradient id="radial-gradient-8" cx="69.82" cy="148.95" r="6.15" xlink:href="#radial-gradient-7"/><radialGradient id="radial-gradient-9" cx="40.27" cy="130.27" r="7.11" xlink:href="#radial-gradient-7"/><radialGradient id="radial-gradient-10" cx="53.25" cy="128.29" r="6.6" xlink:href="#radial-gradient-7"/><radialGradient id="radial-gradient-11" cx="61.18" cy="137.18" r="7.02" xlink:href="#radial-gradient-7"/><radialGradient id="radial-gradient-12" cx="74.36" cy="151.75" r="47.47" gradientUnits="userSpaceOnUse"><stop offset="0.04"/><stop offset="0.84"/><stop offset="0.85" stop-color="#0f0a16"/><stop offset="0.9" stop-color="#452f68"/><stop offset="0.93" stop-color="#704ca9"/><stop offset="0.96" stop-color="#8f61d7"/><stop offset="0.99" stop-color="#a26ef4"/><stop offset="1" stop-color="#a973ff"/></radialGradient></defs><title>4</title><g class="cls-1"><g id="Layer_1" data-name="Layer 1"><path class="cls-2" d="M31.1,138.81l0,2.32,1.08,4,5.6,9.63L49.7,166.4,59.82,172l11.2.74,7.14-3.4,6.14-3.73L89,160.42l2.24-4.94,2.63-7.13.4-1.81.1-1.2C94.15,138.73,81.26,134,67.5,132c-16.59-2.37-35.07-2.35-36.4,6.77Z" transform="translate(-30.61 -111.51)"/><path class="cls-3" d="M62.53,112.82a31.07,31.07,0,1,1-31.06,31.06,31.07,31.07,0,0,1,31.06-31.06Z" transform="translate(-30.61 -111.51)"/><path class="cls-4" d="M42.5,119.94a4.78,4.78,0,0,1-.9,1.46c-1.61,1.7-5.14,3.53-5.23,6.12,0,.41.26.8.23,1.2a22,22,0,0,1-.48,2.39c-.2,1.16.33,2.63,1.75,2.28.77-.19,2.33-.73,2.53-.68.76.19,1.68,1.13,2.61,1,1.49-.15,2.75-1.5,4-1.88,2.71-.85,5.52,2.06,6.49,4.71,1.41,3.84,2.87,8.71,4.17,9.58.78.52,2.19.82,2.62,1.12,1.41,1,2.27,4.07,3.17,5.16a3.76,3.76,0,0,0,4.15,1.29c1.38-.38,4.12-1,5-1.08,2.45-.3,7.16.16,8.29-.37a23.09,23.09,0,0,0,4.28-3.15c1.9-1.49,3.52-2.11,4.42-3.46.38-.57.28-2,.31-2.93,0-1.36,1-1.8,1.49-2.78,1.22-2.51-.72-7.41-1.58-9.9-.24-.72-.55-1.41-.78-2.14-.16-.49-.27-.94-.37-1.39a13.05,13.05,0,0,0-3.06-5.34c-1.27-1.13-3.27-1.64-4.67-2.7a37.77,37.77,0,0,0-18.36-7c-1.51-.08-6.32,1.54-9.31,2.47s-6.29,1.92-8.92,3.75a5.43,5.43,0,0,0-1.88,2.2Zm-9.08,22.65a1,1,0,0,1-1.14-.1,6.42,6.42,0,0,1-1.18-3.68c-.26,1.65-.3,3.35-.4,5.07a34.87,34.87,0,0,0,.42,9.2c.48,1.64,2.61,5.26,6,9.92,2.34,3.26,6,7.4,7.59,8.2,2.44,1.24,11.77,4.05,17.86,4.05A47.12,47.12,0,0,0,70,174.7a36,36,0,0,0,7.42-1.83c2.47-1.32,6.61-5.18,9.27-8.47,2-2.48,5.46-7,5.76-7.83a60.84,60.84,0,0,0,1.85-11.23c-.3,3.18-1.33,3-2.66,5.51a34.65,34.65,0,0,0-1.41,3.25c-1,2.53-2,5.7-3.53,8a9.71,9.71,0,0,1-2.11,2.32,4.51,4.51,0,0,1-1.87.83c-.45.1-.92-.21-1.37-.12-2.26.47-3.51,2.68-5.23,3.82A11.54,11.54,0,0,1,73,170.33a6.86,6.86,0,0,1-7.43-2.45c-1.34-1.13-5.78-1.62-7.67-2.12-4.52-1.19-3.88-4.64-4.11-5.56a3,3,0,0,0-1.58-2.11c-.71-.37-5.11-.76-6.43-1.37-3.35-1.56-4.56-4.84-5-9.65a22.86,22.86,0,0,0-.89-4.69,3,3,0,0,0-3.2-1.39,28.38,28.38,0,0,0-3.2,1.6ZM69.24,148a5.63,5.63,0,0,0-.6,2.19c0,.31.15.84.41.8.83-.14,2.33-.42,3.54-.6.78-.11,1.63-.1,2.4-.28a.74.74,0,0,0,.54-.54c.07-.36-.86-1.56-1.24-1.72-1.15-.49-4.1-.72-5.05.15ZM58.67,131c-1.79.13-1.87,3.22-1.67,4.57a13,13,0,0,0,1.4,4.35A3.77,3.77,0,0,0,62,141.17a1.4,1.4,0,0,0,.92-1.1c.1-1.15-.54-2.27-.53-3.42s.85-3.76.27-4.28a5.85,5.85,0,0,0-4-1.4Zm-6.25-5.69a1.87,1.87,0,0,0-1.39.58,1.58,1.58,0,0,0-.31,1.5,12.21,12.21,0,0,0,2.64,3.27,1.14,1.14,0,0,0,1.13.34,1.69,1.69,0,0,0,.72-1.12,9.87,9.87,0,0,0,.39-3.2,1.29,1.29,0,0,0-.75-1,5.55,5.55,0,0,0-2.43-.42ZM44.48,127c-1.11.21-2.7,2.15-2,3a1,1,0,0,0,1,.39,14.58,14.58,0,0,0,2.51-1.3,6.42,6.42,0,0,0,1-.38,1,1,0,0,0-.06-1.47,4.24,4.24,0,0,0-2.37-.21Z" transform="translate(-30.61 -111.51)"/><path class="cls-5" d="M40.71,147.07a22.86,22.86,0,0,0-.89-4.69,3,3,0,0,0-3.2-1.39,28.38,28.38,0,0,0-3.2,1.6,1,1,0,0,1-.35.11,6.06,6.06,0,0,0,1.71,4.43c.75.83,1.68.72,3,2.58a19,19,0,0,0,1,1.74,9.34,9.34,0,0,0,2.45,2.07,5.07,5.07,0,0,0,1.32.47,15.86,15.86,0,0,1-1.91-6.92Zm18-16.1c-1.79.13-1.87,3.22-1.67,4.57a13,13,0,0,0,1.4,4.35A3.77,3.77,0,0,0,62,141.17a1.4,1.4,0,0,0,.92-1.1c.1-1.15-.54-2.27-.53-3.42s.85-3.76.27-4.28a5.85,5.85,0,0,0-4-1.4Zm-6.25-5.69a1.87,1.87,0,0,0-1.39.58,1.58,1.58,0,0,0-.31,1.5,12.21,12.21,0,0,0,2.64,3.27,1.14,1.14,0,0,0,1.13.34,1.69,1.69,0,0,0,.72-1.12,9.87,9.87,0,0,0,.39-3.2,1.29,1.29,0,0,0-.75-1,5.55,5.55,0,0,0-2.43-.42ZM44.48,127c-1.11.21-2.7,2.15-2,3a1,1,0,0,0,1,.39,14.58,14.58,0,0,0,2.51-1.3,6.42,6.42,0,0,0,1-.38,1,1,0,0,0-.06-1.47,4.24,4.24,0,0,0-2.37-.21ZM55,113.46,53.3,114c-3.13,1-6.29,1.92-8.92,3.75a5.43,5.43,0,0,0-1.88,2.2c0,.11-.1.22-.16.33a3.84,3.84,0,0,1-.74,1.13c-.68.71-1.69,1.45-2.64,2.25A6.64,6.64,0,0,0,36.43,127a3.86,3.86,0,0,0-.06.49c0,.41.26.8.23,1.2a22,22,0,0,1-.48,2.39,2.56,2.56,0,0,0,.31,1.77,1.24,1.24,0,0,0,1.44.51c.77-.19,2.33-.73,2.53-.68.76.19,1.68,1.13,2.61,1,1.49-.15,2.75-1.5,4-1.88,2.71-.85,5.52,2.06,6.49,4.71,1.41,3.84,2.87,8.71,4.17,9.58.78.52,2.19.82,2.62,1.12.92.63,1.61,2.18,2.22,3.48a15,15,0,0,0,1.8-2.16,25.26,25.26,0,0,1,1.79-2.7c1.25-1.26,3-1.21,4.06-3.61.43-1,.13-2.22.58-3.2.56-1.18,1.81-1.93,2.37-3.11a9.62,9.62,0,0,0,.84-2.78,7.83,7.83,0,0,0,.07-1.08c0-2.15-.72-4.25-1-6.39-.19-1.46,0-3-.38-4.39-.69-2.4-2.11-2.68-3.69-3.9a19.79,19.79,0,0,0-2.7-2.33,16.16,16.16,0,0,0-4.48-1.37,15.33,15.33,0,0,0-4.06-.14,11.67,11.67,0,0,1-1.82-.06c-.31,0-.62-.06-.95-.07Zm12.91,7.27c0-.28.38-.5.67-.54,1.42-.23,2.86,1.62,3.15,2.92.2.9,0,1.84.21,2.74s.61,1.64.78,2.49c.61,3,.73,5.25-1,7.76-1.13,1.61-2.51,1.26-2.58-.79a6,6,0,0,1,.5-2.28c.93-2.4,2.07-2.9,2-5.81a2.47,2.47,0,0,0-.34-1.33c-.31-.44-1.23-.79-1.28-1a5.32,5.32,0,0,0-.46-1.58c-.34-.52-.81-.47-1.2-.95a2.34,2.34,0,0,1-.46-1.64Zm-27.81,5.13c-.48-.23,0-1.77.29-2.09s1.07-.5,1.58-.79a4.13,4.13,0,0,0,1.16-.75c.19-.21.82-2.43,1.31-3.13.35-.51,1.56-1.27,1.92-.92.18.18,0,1.15-.08,1.38-.25.47-.89.8-1,1.68a16.23,16.23,0,0,1,.08,2.4,2.26,2.26,0,0,1-.79,1.5c-.51.34-1.23.11-1.82.29-.38.11-.65.51-1,.58a2.72,2.72,0,0,1-1.62-.15Z" transform="translate(-30.61 -111.51)"/><path class="cls-6" d="M57.83,167.05c-1.16-.38-8.08-1.64-9.87-3.65-.85-1-1.5-2.75-2.25-3.07a23.62,23.62,0,0,0-2.65-.43,15.85,15.85,0,0,1-2.82-.65A9.2,9.2,0,0,1,37,157c-3.52-3.67-2-4.39-3.28-8.63-.31-1-1.17-1.82-1.57-2.82a8.86,8.86,0,0,1-.66-2.93c0-.09,0-.18,0-.27a12.16,12.16,0,0,1,.06-1.22,9.06,9.06,0,0,1-.44-2.33c-.26,1.65-.3,3.35-.4,5.07a34.87,34.87,0,0,0,.42,9.2c.48,1.64,2.61,5.26,6,9.92,2.34,3.26,6,7.4,7.59,8.2,2.44,1.24,11.77,4.05,17.86,4.05A47.12,47.12,0,0,0,70,174.7a36,36,0,0,0,7.42-1.83c2.47-1.32,6.61-5.18,9.27-8.47,2-2.48,5.46-7,5.76-7.83a60.84,60.84,0,0,0,1.85-11.23,5.63,5.63,0,0,1-1.08,3.22,15,15,0,0,0-1.58,2.29,34.65,34.65,0,0,0-1.41,3.25c-1,2.53-2,5.7-3.53,8a9.71,9.71,0,0,1-2.11,2.32,4.51,4.51,0,0,1-1.87.83c-.45.1-.92-.21-1.37-.12-2.26.47-3.51,2.68-5.23,3.82A11.54,11.54,0,0,1,73,170.33a6.53,6.53,0,0,1-6.78-1.76,7.13,7.13,0,0,0-2.93-1.48,4.68,4.68,0,0,0-1.58,0,12.28,12.28,0,0,1-3.83-.08Zm26.55-36.18c.26,1.57,1.34,3,1.41,4.56a2.82,2.82,0,0,1-.23,1.32c-.59,1.37-2,2.31-1.34,7.31a12,12,0,0,1,.16,2.74,21.37,21.37,0,0,1-.71,3.63c.66-.55,1.2-1.05,1.54-1.31,1.9-1.49,3.52-2.11,4.42-3.46.38-.57.28-2,.31-2.93,0-1.27.88-1.74,1.38-2.59l.11-.19c1.22-2.51-.72-7.41-1.58-9.9-.24-.72-.55-1.41-.78-2.14,0-.12-.08-.24-.11-.36-.1-.35-.18-.7-.26-1a13.05,13.05,0,0,0-3.06-5.34c-1.27-1.13-3.27-1.64-4.67-2.7a37.77,37.77,0,0,0-18.36-7,12.57,12.57,0,0,0-3.16.59c1.91.23,4.08.49,6.16.86a25.31,25.31,0,0,1,5.66,1.55c.69.31,1,1.1,1.66,1.54,1,.73,2.23,1.2,3.24,2,.85.62,1.48,1.51,2.32,2.15a11.14,11.14,0,0,1,2,1.58,15.86,15.86,0,0,1,1.45,2.49,22.42,22.42,0,0,1,2.2,3.78,15,15,0,0,1,.29,2.86Z" transform="translate(-30.61 -111.51)"/><path class="cls-7" d="M36.13,128.44a29.65,29.65,0,0,0-3.44,10.29c-.11,1-.55,3.94,1.24,2.91,2.26-1.3,6.67-4.49,7.14.82.21,2.41.47,8.81,1.78,10.58,1.65,2.23,5.37,4.25,10.79,3.32,1.78-.3,3.63-2.2,3.57-2.9-.1-1.05-5.17-.92,3.19-2.47a.91.91,0,0,0,.71-.7,2,2,0,0,0-.77-1.62,6,6,0,0,0-1.36-.34c-2.47-.4-3-.72-3.53-2.64-.92-3.37-1.18-6.84-2.93-10.15A4.53,4.53,0,0,0,47,133.25c-1.52.54-4.34,2.49-5.89,2.41-1,0-1-.62-1-1.12s.09-.77-.12-.92c-.37-.27-1.57.2-2,.35-1,.33-2.08.52-2.39-1.05a5.19,5.19,0,0,1,.06-1.8,10.59,10.59,0,0,1,.46-1.52,9.32,9.32,0,0,0,.33-1c0-.11.05-.28,0-.33s-.17.11-.22.19Z" transform="translate(-30.61 -111.51)"/><path class="cls-8" d="M83.67,150.43A18.6,18.6,0,0,0,82,153.21c-.47,1.15.18,2.63-1.33,4.48a3.3,3.3,0,0,1-1.83,1c-3.3.76-7.44.39-10.45,3-1.78,1.54-1.61,4-4.83,5.31a5.74,5.74,0,0,1,2,.9A6.86,6.86,0,0,0,73,170.33a11.54,11.54,0,0,0,3.19-1.41c1.72-1.14,3-3.35,5.23-3.82.45-.09.92.22,1.37.12a4.51,4.51,0,0,0,1.87-.83,9.71,9.71,0,0,0,2.11-2.32c1.49-2.27,2.48-5.44,3.53-8a34.65,34.65,0,0,1,1.41-3.25,15,15,0,0,1,1.58-2.29,31.44,31.44,0,0,0,.35-4.68A30.91,30.91,0,0,0,89,127.55c0,.12.07.24.11.36.23.73.54,1.42.78,2.14.86,2.49,2.8,7.39,1.58,9.9-.47,1-1.46,1.42-1.49,2.78,0,.89.07,2.36-.31,2.93-.9,1.35-2.52,2-4.42,3.46-.34.26-.88.76-1.54,1.31ZM65.58,163a1.73,1.73,0,0,1-.41,1.51,3.67,3.67,0,0,1-1.81.91,5.75,5.75,0,0,1-3-.23c-.6-.5-.64-2.47.83-2.72.62-.1,1.26.12,1.89.08s1-.39,1.47-.3a1.21,1.21,0,0,1,1,.75Zm13.36-8.16a.89.89,0,0,1,.75.19,2.28,2.28,0,0,1,.41,2,3.23,3.23,0,0,1-2.59.79.53.53,0,0,1-.38-.46,2.6,2.6,0,0,1,1.81-2.49Z" transform="translate(-30.61 -111.51)"/><path class="cls-9" d="M39.94,145.51c.14,3.71-.47,6.89,1.16,10.58.9,2,3.54,2.65,5.56,2.65.87,0,1.7-.21,2.57-.24,1-.05,3.41.25,3.61,1.49s-.22,2.7.29,3.9a4.49,4.49,0,0,0,.94,1.32c1.46,1.42,2,1.22,4,1.51,1.35.21,5.41.65,6.58,1.32,1.67,1,2.67,2.81,5.14,3.65,1.42.48,6.09-1.13,7.3-2.32,1.5-1.48,2.16-2.73,3.57-3.32.77-.32,1.2.85,3.2-.21a7.09,7.09,0,0,0,1.74-1.29c3.95-4.24,4.44-9.87,7.07-15.28a12.09,12.09,0,0,0-1,1.58,34.65,34.65,0,0,0-1.41,3.25c-1,2.53-2,5.7-3.53,8a9.71,9.71,0,0,1-2.11,2.32,4.51,4.51,0,0,1-1.87.83c-.45.1-.92-.21-1.37-.12-2.26.47-3.51,2.68-5.23,3.82A11.54,11.54,0,0,1,73,170.33a6.86,6.86,0,0,1-7.43-2.45c-1.34-1.13-5.78-1.62-7.67-2.12-4.52-1.19-3.88-4.64-4.11-5.56a3,3,0,0,0-1.58-2.11c-.71-.37-5.11-.76-6.43-1.37-3.35-1.56-4.56-4.84-5-9.65a22.86,22.86,0,0,0-.89-4.69,3,3,0,0,0-3.2-1.39,28.38,28.38,0,0,0-3.2,1.6,1,1,0,0,1-1.14-.1,6.42,6.42,0,0,1-1.18-3.68c0,.25-.07.49-.1.74a13.49,13.49,0,0,0,.37,3.22c.28.87,1.46,1.57,2.22,1s1.57-1.74,2.53-2.33a2.32,2.32,0,0,1,.85-.29c2.37-.28,2.91,2.71,3,4.34Z" transform="translate(-30.61 -111.51)"/><path class="cls-10" d="M69.05,151c-.26,0-.41-.49-.41-.8a7.33,7.33,0,0,1,.19-1.14,5.4,5.4,0,0,0-.47,2.51c.09.33.85.52,1.31.4.84-.22,1.64-.6,2.47-.86s2.35-.53,2.85-.76a1.12,1.12,0,0,0,.43-.38.78.78,0,0,0,.08-.28.75.75,0,0,1-.51.43c-.77.18-1.62.17-2.4.28-1.21.18-2.71.46-3.54.6Z" transform="translate(-30.61 -111.51)"/><path class="cls-11" d="M41.61,130a1.57,1.57,0,0,0,2.18.8,23.61,23.61,0,0,1,2.83-2c-.23.08-.47.13-.69.23a14.58,14.58,0,0,1-2.51,1.3,1,1,0,0,1-1-.39c-.45-.55.12-1.61.88-2.31-.77.61-1.94,1.7-1.72,2.41Z" transform="translate(-30.61 -111.51)"/><path class="cls-12" d="M52.14,130.73a8.21,8.21,0,0,0,1.52,1.9.47.47,0,0,0,.52,0c.24-.22.24-.6.44-.86s.39-.15.47-.33a2.74,2.74,0,0,0,.21-.61,12.82,12.82,0,0,0,.28-2.94,13,13,0,0,1-.37,2,2.19,2.19,0,0,1-.48,1,1,1,0,0,1-.24.17,1.06,1.06,0,0,1-1-.21.64.64,0,0,1-.15-.13,12.21,12.21,0,0,1-2.64-3.27,1.16,1.16,0,0,1-.06-.67,1.86,1.86,0,0,0-.11.66,11.75,11.75,0,0,0,1.59,3.38Z" transform="translate(-30.61 -111.51)"/><path class="cls-13" d="M57,133.29a10.29,10.29,0,0,0-.68,4.07,9.73,9.73,0,0,0,.43,1.36,11.43,11.43,0,0,0,.48,2c.76,1.58,3.34,1.89,4.81,1.24.68-.29.82-1.11.85-1.81a1.45,1.45,0,0,1-.91,1,3.77,3.77,0,0,1-3.58-1.28,13,13,0,0,1-1.4-4.35,8.41,8.41,0,0,1,0-2.25Z" transform="translate(-30.61 -111.51)"/><path class="cls-14" d="M42.5,119.94a4.78,4.78,0,0,1-.9,1.46c-1.61,1.7-5.14,3.53-5.23,6.12,0,.41.26.8.23,1.2a22,22,0,0,1-.48,2.39c-.2,1.16.33,2.63,1.75,2.28.77-.19,2.33-.73,2.53-.68.76.19,1.68,1.13,2.61,1,1.49-.15,2.75-1.5,4-1.88,2.71-.85,5.52,2.06,6.49,4.71,1.41,3.84,2.87,8.71,4.17,9.58.78.52,2.19.82,2.62,1.12,1.41,1,2.27,4.07,3.17,5.16a3.76,3.76,0,0,0,4.15,1.29c1.38-.38,4.12-1,5-1.08,2.45-.3,7.16.16,8.29-.37a23.09,23.09,0,0,0,4.28-3.15c1.9-1.49,3.52-2.11,4.42-3.46.38-.57.28-2,.31-2.93,0-1.36,1-1.8,1.49-2.78,1.22-2.51-.72-7.41-1.58-9.9-.24-.72-.55-1.41-.78-2.14-.16-.49-.27-.94-.37-1.39a13.05,13.05,0,0,0-3.06-5.34c-1.27-1.13-3.27-1.64-4.67-2.7a37.77,37.77,0,0,0-18.36-7c-1.51-.08-6.32,1.54-9.31,2.47s-6.29,1.92-8.92,3.75a5.43,5.43,0,0,0-1.88,2.2Zm-9.08,22.65a1,1,0,0,1-1.14-.1,6.42,6.42,0,0,1-1.18-3.68c-.26,1.65-.3,3.35-.4,5.07a34.87,34.87,0,0,0,.42,9.2c.48,1.64,2.61,5.26,6,9.92,2.34,3.26,6,7.4,7.59,8.2,2.44,1.24,11.77,4.05,17.86,4.05A47.12,47.12,0,0,0,70,174.7a36,36,0,0,0,7.42-1.83c2.47-1.32,6.61-5.18,9.27-8.47,2-2.48,5.46-7,5.76-7.83a60.84,60.84,0,0,0,1.85-11.23c-.3,3.18-1.33,3-2.66,5.51a34.65,34.65,0,0,0-1.41,3.25c-1,2.53-2,5.7-3.53,8a9.71,9.71,0,0,1-2.11,2.32,4.51,4.51,0,0,1-1.87.83c-.45.1-.92-.21-1.37-.12-2.26.47-3.51,2.68-5.23,3.82A11.54,11.54,0,0,1,73,170.33a6.86,6.86,0,0,1-7.43-2.45c-1.34-1.13-5.78-1.62-7.67-2.12-4.52-1.19-3.88-4.64-4.11-5.56a3,3,0,0,0-1.58-2.11c-.71-.37-5.11-.76-6.43-1.37-3.35-1.56-4.56-4.84-5-9.65a22.86,22.86,0,0,0-.89-4.69,3,3,0,0,0-3.2-1.39,28.38,28.38,0,0,0-3.2,1.6ZM69.24,148a5.63,5.63,0,0,0-.6,2.19c0,.31.15.84.41.8.83-.14,2.33-.42,3.54-.6.78-.11,1.63-.1,2.4-.28a.74.74,0,0,0,.54-.54c.07-.36-.86-1.56-1.24-1.72-1.15-.49-4.1-.72-5.05.15ZM58.67,131c-1.79.13-1.87,3.22-1.67,4.57a13,13,0,0,0,1.4,4.35A3.77,3.77,0,0,0,62,141.17a1.4,1.4,0,0,0,.92-1.1c.1-1.15-.54-2.27-.53-3.42s.85-3.76.27-4.28a5.85,5.85,0,0,0-4-1.4Zm-6.25-5.69a1.87,1.87,0,0,0-1.39.58,1.58,1.58,0,0,0-.31,1.5,12.21,12.21,0,0,0,2.64,3.27,1.14,1.14,0,0,0,1.13.34,1.69,1.69,0,0,0,.72-1.12,9.87,9.87,0,0,0,.39-3.2,1.29,1.29,0,0,0-.75-1,5.55,5.55,0,0,0-2.43-.42ZM44.48,127c-1.11.21-2.7,2.15-2,3a1,1,0,0,0,1,.39,14.58,14.58,0,0,0,2.51-1.3,6.42,6.42,0,0,0,1-.38,1,1,0,0,0-.06-1.47,4.24,4.24,0,0,0-2.37-.21Z" transform="translate(-30.61 -111.51)"/></g></g></svg>