<svg xmlns="http://www.w3.org/2000/svg" xmlns:xlink="http://www.w3.org/1999/xlink" viewBox="0 0 66.16 64.85"><defs><style>.cls-1{isolation:isolate;}.cls-10,.cls-11,.cls-12,.cls-13,.cls-14,.cls-15,.cls-16,.cls-17,.cls-18,.cls-2,.cls-3,.cls-4,.cls-5,.cls-6,.cls-7,.cls-8,.cls-9{fill-rule:evenodd;}.cls-2{fill:url(#radial-gradient);}.cls-3,.cls-4{mix-blend-mode:screen;}.cls-3{fill:url(#radial-gradient-2);}.cls-4{fill:url(#radial-gradient-3);}.cls-5{fill:url(#radial-gradient-4);}.cls-10,.cls-11,.cls-12,.cls-13,.cls-17,.cls-18,.cls-6,.cls-7,.cls-8,.cls-9{mix-blend-mode:multiply;}.cls-6{fill:url(#radial-gradient-5);}.cls-7{fill:url(#radial-gradient-6);}.cls-8{fill:url(#radial-gradient-7);}.cls-9{fill:url(#radial-gradient-8);}.cls-10{fill:url(#radial-gradient-9);}.cls-11{fill:url(#radial-gradient-10);}.cls-12{fill:url(#radial-gradient-11);}.cls-13{fill:url(#radial-gradient-12);}.cls-14{fill:url(#radial-gradient-13);}.cls-15{opacity:0.65;fill:url(#radial-gradient-14);}.cls-16{fill:url(#radial-gradient-15);}.cls-17{fill:url(#radial-gradient-16);}.cls-18{fill:url(#radial-gradient-17);}</style><radialGradient id="radial-gradient" cx="233.7" cy="38.84" r="56.16" gradientUnits="userSpaceOnUse"><stop offset="0" stop-color="#71f5ff"/><stop offset="0.17" stop-color="#6ae9ff"/><stop offset="0.47" stop-color="#56c9ff"/><stop offset="0.5" stop-color="#54c5ff"/><stop offset="0.92" stop-color="#1483ff"/></radialGradient><radialGradient id="radial-gradient-2" cx="248.64" cy="58.43" r="35.34" gradientUnits="userSpaceOnUse"><stop offset="0.04"/><stop offset="0.84"/><stop offset="0.85" stop-color="#0d1516"/><stop offset="0.9" stop-color="#3e6268"/><stop offset="0.93" stop-color="#659fa9"/><stop offset="0.96" stop-color="#81cbd7"/><stop offset="0.99" stop-color="#93e6f4"/><stop offset="1" stop-color="#99f0ff"/></radialGradient><radialGradient id="radial-gradient-3" cx="223.75" cy="30.01" r="38.74" gradientUnits="userSpaceOnUse"><stop offset="0" stop-color="#86ffff"/><stop offset="1"/></radialGradient><radialGradient id="radial-gradient-4" cx="232.65" cy="50.66" r="50.39" gradientUnits="userSpaceOnUse"><stop offset="0" stop-color="#f2f6ff"/><stop offset="1" stop-color="#d6f3ff"/></radialGradient><radialGradient id="radial-gradient-5" cx="243.67" cy="50.9" r="42.1" gradientUnits="userSpaceOnUse"><stop offset="0.62" stop-color="#fff"/><stop offset="0.65" stop-color="#f5faff"/><stop offset="0.75" stop-color="#d0e8ff"/><stop offset="0.85" stop-color="#b4daff"/><stop offset="0.94" stop-color="#a4d2ff"/><stop offset="1" stop-color="#9ecfff"/></radialGradient><radialGradient id="radial-gradient-6" cx="221.85" cy="32.65" r="51.65" gradientUnits="userSpaceOnUse"><stop offset="0.7" stop-color="#fff"/><stop offset="1" stop-color="#aac2e6"/></radialGradient><radialGradient id="radial-gradient-7" cx="227.53" cy="57.65" r="7.62" gradientUnits="userSpaceOnUse"><stop offset="0" stop-color="#fff"/><stop offset="1" stop-color="#aac2e6"/></radialGradient><radialGradient id="radial-gradient-8" cx="235.94" cy="54.07" r="16.87" xlink:href="#radial-gradient-7"/><radialGradient id="radial-gradient-9" cx="234.42" cy="59.37" r="46.38" gradientUnits="userSpaceOnUse"><stop offset="0" stop-color="#fff"/><stop offset="1" stop-color="#cfe2ff"/></radialGradient><radialGradient id="radial-gradient-10" cx="247.91" cy="73.85" r="29.88" gradientUnits="userSpaceOnUse"><stop offset="0" stop-color="#aac2e6"/><stop offset="1" stop-color="#fff"/></radialGradient><radialGradient id="radial-gradient-11" cx="251.41" cy="60.78" r="31.23" xlink:href="#radial-gradient-7"/><radialGradient id="radial-gradient-12" cx="244.77" cy="40.14" r="55.24" xlink:href="#radial-gradient-7"/><radialGradient id="radial-gradient-13" cx="246.53" cy="69.52" r="23.97" xlink:href="#radial-gradient-4"/><radialGradient id="radial-gradient-14" cx="254.12" cy="74.22" r="21.66" xlink:href="#radial-gradient-4"/><radialGradient id="radial-gradient-15" cx="219.09" cy="35.53" r="50.24" xlink:href="#radial-gradient-4"/><radialGradient id="radial-gradient-16" cx="229.27" cy="31.93" r="21.62" xlink:href="#radial-gradient-7"/><radialGradient id="radial-gradient-17" cx="241.64" cy="31.75" r="14.08" xlink:href="#radial-gradient-7"/></defs><title>6</title><g class="cls-1"><g id="Layer_1" data-name="Layer 1"><path class="cls-2" d="M246.68,24.32a32.15,32.15,0,1,1-32.15,32.15,32.15,32.15,0,0,1,32.15-32.15Z" transform="translate(-214.53 -24.17)"/><path class="cls-3" d="M246.68,24.32a32.15,32.15,0,1,1-32.15,32.15,32.15,32.15,0,0,1,32.15-32.15Z" transform="translate(-214.53 -24.17)"/><path class="cls-4" d="M222.74,45.1c-.59-.41-.58-1.05-1.79-1.08s-2,1.13-2.38,2.36A19.4,19.4,0,0,0,219,59.25a20,20,0,0,0,2.45,3.93c1.25,1.7,3.82,4.06,6.19,3.25,1-.34,1.8-1.18,2.78-1.61a8,8,0,0,1,2.17-.53c1-.16,2.09-.15,3.13-.24,2.94-.27,2.12-1,4.14-1.73.67-.25,1.43-.21,2.12-.42a6.16,6.16,0,0,0,1.54-.71c1.68-1.08-.78-1.15-1.46-1.08a4.21,4.21,0,0,0-1,.36,18,18,0,0,1-2,.87,4.89,4.89,0,0,1-1.82.17c-.84-.09-1.62-.48-2.45-.65-.47-.1-.74,0-1.22-.15a3.08,3.08,0,0,1-1.25-.45c-1.93-1.42.07-3.68,2.62-3.48a4.09,4.09,0,0,0,2.18-.18.33.33,0,0,0,.06-.39,1.87,1.87,0,0,0-.28-.35c-.55-.55-1.1-1.2-.79-2.07a1.07,1.07,0,0,1,.65-.65c.57-.22,1.22,0,1.82-.12a1.54,1.54,0,0,0,.86-.38c.35-.4.4-1,.72-1.4,1.24-1.64,4.53-1.11,6.46-1.49a5.73,5.73,0,0,0,2.39-.9c.61-.47.84-2.57,1.55-3.22A9.07,9.07,0,0,1,253,44.38c2-.9,3.45-.74,4.59-2.92.38-.73.33-1.65.71-2.38.29-.55,1.58-1.1,1.82-1.67,1.63-3.85-4.28-10.78-8.76-10.16-2.6.36-1.65.91-.26,1.64,3.11,1.62,4.95,3.05,4.7,6.85-.11,1.75-2.05,1.42-2.5,1.64-.16.08-.2.3-.21.48a12.39,12.39,0,0,1,.09,2.35,4.45,4.45,0,0,1-1.16,2,4.09,4.09,0,0,1-1.79.89,6.11,6.11,0,0,1-2.09.18,6.32,6.32,0,0,1-2.44-.48,3.59,3.59,0,0,1-1.61-4.53,11.56,11.56,0,0,1,.92-1.43c.3-.53-.3-1,.94-1.76,1-.65,2.13-1.73-1.2-.74-1.34.4-2.81.6-2.27,2a4.12,4.12,0,0,1,.33,1c.41,4.09-2.32,3.25-5.63,3.87a14.52,14.52,0,0,0-1.88.36c-.55.19-1,.64-1.55.81-1.13.33-2.79,0-3.93.38a.82.82,0,0,0-.54.63c0,.37,1,1.07,0,1.94a4.8,4.8,0,0,1-2.92.66,6.52,6.52,0,0,1-3.68-.93Zm3.81,13.32c8.29-.3,4.9,5.56.87,4.08a6.26,6.26,0,0,1-1.79-1,1.73,1.73,0,0,1,.92-3.09Z" transform="translate(-214.53 -24.17)"/><path class="cls-5" d="M215.59,64.67a15,15,0,0,0-.5,2.56c0,.29.27.52.45.75a5.39,5.39,0,0,0,1.15,1.23c.65.45,1.75.25,2.44.44.31.08.55.35.85.46s.88.14,1.3.28c.19.07,1.32.54.61.87-.22.1-.49,0-.72,0a1,1,0,0,0-.48.25c-.27.29-.4.69-.67,1s-.82,0-1-.2a6.7,6.7,0,0,1-1.09-1.51,5,5,0,0,0-.27,1.18,8.52,8.52,0,0,0-.1,1.51.41.41,0,0,0,.16.31A24.77,24.77,0,0,0,221.76,76a16.66,16.66,0,0,0,1.85.46c1.68.33,1.37-.11,2.88-.67a22.06,22.06,0,0,1,2.55-.77c1.82-.4,3.7-.54,5.51-1,1.33-.35,2.58-1,3.87-1.43a25.17,25.17,0,0,1,2.88-1,2.31,2.31,0,0,1,1.25.09,1.56,1.56,0,0,1,.73.61,1.29,1.29,0,0,1,.16.79,1.06,1.06,0,0,1-.32.67c-.36.34-.87.48-1.24.79a4.93,4.93,0,0,0-.89,1c-.21.29-.22.69-.45,1a2.33,2.33,0,0,1-.85.56c-.84.36-1.74.58-2.59.92a4.84,4.84,0,0,0-.85.43,21.3,21.3,0,0,1-2.18,1.52,6.22,6.22,0,0,1-2,.45c-1.27.14-2.55.12-3.82.22-.92.08-1.87.46-2.77.06a6.28,6.28,0,0,0-.15,3.31c.17.61.85,1,1.4,1.29a5.68,5.68,0,0,0,1.78.5c1.1.19,2.23.2,3.33.41a7,7,0,0,1,1.45.51c.53.24,1,.57,1.53.83a11.15,11.15,0,0,0,1.52.73,5,5,0,0,0,1.42.32,14.36,14.36,0,0,0,2.07-.11c.7-.06,1.4-.14,2.1-.25.3,0,.59-.16.89-.22,1.09-.23,2.2-.38,3.28-.65a21.85,21.85,0,0,0,2.38-.74c1.23-.43,2.44-.91,3.65-1.39,1.75-.69,3.5-1.37,5.23-2.11a15.19,15.19,0,0,0,1.66-.84c1.73-1,3.47-2,5.15-3.09q1.92-1.24,3.72-2.66c1.1-.84,2.16-1.75,3.19-2.68s1.73-1.65,2.58-2.5c.28-.28.49-.63.79-.88.05,0,.13,0,.15.11.22.93-3.13,4.81-3.92,5.48-.61.51-1.26,1-1.88,1.49-.84.7-1.65,1.45-2.5,2.14-.62.51-1.24,1-1.91,1.48-1.15.78-2.35,1.46-3.56,2.28-.85.58-1.78,1.3-2.6,1.83a9.74,9.74,0,0,1-2,.88c-1,.4-2,.86-3.06,1.22-.6.2-1.22.29-1.82.46-1,.27-1.72.55-2.72.74,1.9.2,3,.77,4.16.24.48-.21.86-.61,1.34-.8a14.43,14.43,0,0,1,2.33-.67c2-.43,4.94-.91,6-1.58.63-.4,1-1,1.58-1.49.43-.34.95-.55,1.4-.86a26.75,26.75,0,0,0,4.5-3.55c1.48-1.62,2.42-3.66,3.72-5.42,1.08-1.47,2.67-2.69,3.4-4.47a21.68,21.68,0,0,0,.56-2.8,14.83,14.83,0,0,1,.78-2.33c1.36-3,1.81-2.84,2.2-6.7a8.6,8.6,0,0,0-.12-2.68,17.28,17.28,0,0,0-.89-2c-.26-.72-.4-1.49-.63-2.23-.15-.5-.33-1-.53-1.48s-.46-1-.68-1.46c.18.95.41,1.89.54,2.85a29.64,29.64,0,0,1,.24,5.65c-.31,5.72-2.52,10-6.51,14a35.11,35.11,0,0,1-2.92,2.8,7.59,7.59,0,0,1-1.61.88c-.76.35-1.55.62-2.32,1s-1.58.63-2.33,1a13.75,13.75,0,0,0-1.31,1c-.47.36-.91.77-1.41,1.09a16.88,16.88,0,0,1-1.86,1c-1.28.59-2.58,1.12-3.89,1.62a14.39,14.39,0,0,1-3.65,1.16c-.15,0-.35,0-.43-.1s0-.25.15-.3a24.7,24.7,0,0,0,3-1.74c.87-.6,1.59-1.38,2.45-2,.68-.48,1.49-.75,2.16-1.24a7.23,7.23,0,0,0,1.32-1.33c.73-.9,1.28-1.94,2-2.84a9.29,9.29,0,0,1,1.52-1.55,8.41,8.41,0,0,1,1.76-1,26.35,26.35,0,0,0,2.5-.87,3.74,3.74,0,0,0,1.28-1.31c.52-.83.72-1.84,1.22-2.68a44.5,44.5,0,0,1,2.57-3.66c.69-1,1.41-1.88,2.19-2.76a3.29,3.29,0,0,1,.78-.66.54.54,0,0,1,.41-.05c.25.07.27.41.83.35.87-.09,1.19-1.33,1.42-2A17.32,17.32,0,0,0,278.3,53c0-.15,0-.35-.18-.42s-.17.08-.29,0-.15-.15-.17-.25c-.19-1.14-.26-2.29-.4-3.43a16.92,16.92,0,0,0-.24-1.74,5,5,0,0,0-.38-1c-.06-.11-.13-.23-.24-.25s-.11.1-.17.14-.12.13-.21.14-.31,0-.35-.06a3.28,3.28,0,0,1-.15-.51c-.22-1.05-.37-2.07-.61-3.14a4.27,4.27,0,0,1-.13-.48s0-.09.06-.09.08.06.11.1c.15.27.27.55.41.83l.37.73c.11.2.18,0,.18,0a3.81,3.81,0,0,0-.15-1.11,14.14,14.14,0,0,0-.73-2.07,25.9,25.9,0,0,0-1-2.74,46.22,46.22,0,0,1-4.16-4.14c-1.3-1.65-3-4.9-4.5-5.87-.49-.32-1.26.14-3.12-.8a25.22,25.22,0,0,1-3.15-1.92c-.9-.64-11-1-14.16-.51,0,.46.79.6,1.28.61s1.25-.14,1.88-.18c.1,0,.27-.05.29.05s-.15.14-.24.2a4.48,4.48,0,0,0-1.05.81c-.29.34.41.3.58.31.85.07,2.31.12,2.66.14.62,0,1.25-.11,1.87,0a8,8,0,0,1,2,.47,13.13,13.13,0,0,1,1.2.72,16.28,16.28,0,0,0,2.18,1c.43.13.91,0,1.36.13a6.07,6.07,0,0,1,.67.25,4.89,4.89,0,0,1,1,.29,3.3,3.3,0,0,1,1,.9,6.9,6.9,0,0,1,.61,1.52c.21.63.29,1.29.55,1.9a3.28,3.28,0,0,0,.62.82,10.36,10.36,0,0,0,1.42,1.31c.48.32.62-.3.71-.39a.17.17,0,0,1,.18,0,.63.63,0,0,1,.33.24,4.66,4.66,0,0,1,.34.83c.19.52.15.51.56.85s.56.44.81.69a2.14,2.14,0,0,1,.5.58,3.43,3.43,0,0,1,.32.95c.07.33,0,.67.08,1a1.11,1.11,0,0,0,.16.39c.18.27.44.49.6.77s.21.67.37,1,.55.65.64,1.05a5.16,5.16,0,0,1-.64,3,8.28,8.28,0,0,1-1.06,1.24c-.43.51-.93,1-1.31,1.52a7.49,7.49,0,0,0-.56,1.22c-.38.82-.66,1.69-1.11,2.47a9.87,9.87,0,0,1-1.28,1.67,16.74,16.74,0,0,1-1.76,1.71c-.76.65-1.6,1.18-2.38,1.81s-1.4,1.25-2.14,1.81a26,26,0,0,1-2.54,1.75,21.41,21.41,0,0,1-2.22,1c-.53.23-1.09.39-1.62.63s-.84.44-1.25.67c-.7.38-1.38.79-2.09,1.16a23.1,23.1,0,0,1-2.11,1.06,5.28,5.28,0,0,1-1.36.32.78.78,0,0,1-.52-.1.25.25,0,0,1-.06-.31,1.48,1.48,0,0,1,.57-.48c.8-.46,1.65-.84,2.48-1.25s1.84-.84,2.73-1.31a15.82,15.82,0,0,0,1.92-1.2,19.44,19.44,0,0,0,2.27-1.89c1-1,1.88-2.14,2.86-3.18.45-.49.94-.95,1.43-1.41s1-.87,1.52-1.35,1.2-1.26,1.75-1.94a21.38,21.38,0,0,0,1.38-1.9,7.45,7.45,0,0,0,1-1.84,29.81,29.81,0,0,0,.67-4,13.14,13.14,0,0,0,.19-2c0-.62-.23-1.23-.22-1.85a3.34,3.34,0,0,1,.25-.91,3.87,3.87,0,0,0,.23-.65,12.62,12.62,0,0,0-.18-1.89,1.15,1.15,0,0,0-1.76-.66,2.05,2.05,0,0,0-.67,1c-.12.4-.13.82-.24,1.22-.23.86-.52.84-1.36,1.11-.64.21-1.33.28-2,.5a1,1,0,0,0-.53.38,1.68,1.68,0,0,0-.18.74,6.54,6.54,0,0,1,0,.89c-.2.8-1.15,1.4-1.72,1.94-.26.24-.44.57-.75.73a5.81,5.81,0,0,1-1.43.45c-.58.14-1.19.16-1.77.31a4.46,4.46,0,0,0-1.11.45,2,2,0,0,0-.62.53.65.65,0,0,0-.07.39.36.36,0,0,0,.09.22c.07.06.19.05.25.12s0,.66-.24.89-.41.11-.56.25-.32.56-.52.79a5.25,5.25,0,0,1-3.17,1.84c-.6.05-1.21-.06-1.81-.06-.75,0-1.51,0-2.26.06-1.15.07-1.95,0-2.58,1.08a8.79,8.79,0,0,1-.43.87,1,1,0,0,1-.46.31,3.06,3.06,0,0,1-.73.15,5.88,5.88,0,0,0-1,.06.8.8,0,0,0-.39.36.88.88,0,0,0-.19.55c0,.2.28.31.34.5s-.07.33,0,.48a.8.8,0,0,0,.3.42,1.1,1.1,0,0,0,.48.07,11.81,11.81,0,0,1,1.33,0,.47.47,0,0,1,.09.91,13.16,13.16,0,0,1-1.88.19c-.15,0-.31-.07-.46,0-.37.08-.71.34-1.09.39s-.91-.19-1.35-.11a9.88,9.88,0,0,0-1.25.55,7.12,7.12,0,0,0-.94.2c-1,.45-.92,1.46-.05,1.65s1.53,0,2.28.13a11.38,11.38,0,0,0,5.81.08c.33-.09.54-.43.87-.54s.85,0,1.23-.18.46-.57.78-.74a4,4,0,0,1,1.1-.27c.57-.13,1.15-.27,1.73-.39.4-.08,1.23-.19,1.16.49a1.81,1.81,0,0,1-.3.85,4,4,0,0,1-1,1c-.43.3-1,.43-1.43.71-.29.19-.48.53-.8.67a25.7,25.7,0,0,1-2.56.87c-.57.19-1.14.35-1.69.58a2.58,2.58,0,0,0-.49.32c-.37.27-.72.57-1.1.81a4.83,4.83,0,0,1-1,.52c-.83.26-1.68.43-2.52.61-.52.11-1.05.15-1.57.25s-1.26.28-1.89.45-1,.29-1.46.45-.7.3-1.07.4a4.64,4.64,0,0,1-.91.13c-.83.07-1.67.11-2.5.15-.61,0-1.22.07-1.83.08a6.72,6.72,0,0,1-1.27,0c-.79-.12-1.56-.36-2.34-.55-.5-.12-1-.26-1.49-.39a7.7,7.7,0,0,1-.95-.22,2.43,2.43,0,0,1-.81-.39,8.78,8.78,0,0,1-.94-1.07Zm8.74-5.75a1.54,1.54,0,0,0-.42.82c-.16,1.33,2,2.24,3.33,2.58.66.17,1,.12,2.11-.43.16-.09.4-.09.49-.24.2-.32.17-.74.33-1.08s.41-.48.54-.77a.5.5,0,0,0,0-.43,1.25,1.25,0,0,0-.54-.57c-.89-.34-5.06-.69-5.84.12Z" transform="translate(-214.53 -24.17)"/><path class="cls-6" d="M215.59,64.67a15,15,0,0,0-.5,2.56c0,.29.27.52.45.75a5.39,5.39,0,0,0,1.15,1.23c.65.45,1.75.25,2.44.44.31.08.55.35.85.46s.88.14,1.3.28c.19.07,1.32.54.61.87-.22.1-.49,0-.72,0a1,1,0,0,0-.48.25c-.27.29-.4.69-.67,1s-.82,0-1-.2a6.7,6.7,0,0,1-1.09-1.51,5,5,0,0,0-.27,1.18,8.52,8.52,0,0,0-.1,1.51.41.41,0,0,0,.16.31A24.77,24.77,0,0,0,221.76,76a16.66,16.66,0,0,0,1.85.46c1.68.33,1.37-.11,2.88-.67a22.06,22.06,0,0,1,2.55-.77c1.82-.4,3.7-.54,5.51-1,1.33-.35,2.58-1,3.87-1.43a25.17,25.17,0,0,1,2.88-1,2.31,2.31,0,0,1,1.25.09,1.56,1.56,0,0,1,.73.61,1.29,1.29,0,0,1,.16.79,1.06,1.06,0,0,1-.32.67c-.36.34-.87.48-1.24.79a4.93,4.93,0,0,0-.89,1c-.21.29-.22.69-.45,1a2.33,2.33,0,0,1-.85.56c-.84.36-1.74.58-2.59.92a4.84,4.84,0,0,0-.85.43,21.3,21.3,0,0,1-2.18,1.52,6.22,6.22,0,0,1-2,.45c-1.27.14-2.55.12-3.82.22-.92.08-1.87.46-2.77.06a6.28,6.28,0,0,0-.15,3.31c.17.61.85,1,1.4,1.29a5.68,5.68,0,0,0,1.78.5c1.1.19,2.23.2,3.33.41a7,7,0,0,1,1.45.51c.53.24,1,.57,1.53.83a11.15,11.15,0,0,0,1.52.73,5,5,0,0,0,1.42.32,14.36,14.36,0,0,0,2.07-.11c.7-.06,1.4-.14,2.1-.25.3,0,.59-.16.89-.22,1.09-.23,2.2-.38,3.28-.65a21.85,21.85,0,0,0,2.38-.74c1.23-.43,2.44-.91,3.65-1.39,1.75-.69,3.5-1.37,5.23-2.11a15.19,15.19,0,0,0,1.66-.84c1.73-1,3.47-2,5.15-3.09q1.92-1.24,3.72-2.66c1.1-.84,2.16-1.75,3.19-2.68s1.73-1.65,2.58-2.5c.28-.28.49-.63.79-.88.05,0,.13,0,.15.11.22.93-3.13,4.81-3.92,5.48-.61.51-1.26,1-1.88,1.49-.84.7-1.65,1.45-2.5,2.14-.62.51-1.24,1-1.91,1.48-1.15.78-2.35,1.46-3.56,2.28-.85.58-1.78,1.3-2.6,1.83a9.74,9.74,0,0,1-2,.88c-1,.4-2,.86-3.06,1.22-.6.2-1.22.29-1.82.46-1,.27-1.72.55-2.72.74,1.9.2,3,.77,4.16.24.48-.21.86-.61,1.34-.8a14.43,14.43,0,0,1,2.33-.67c2-.43,4.94-.91,6-1.58.63-.4,1-1,1.58-1.49.43-.34.95-.55,1.4-.86a26.75,26.75,0,0,0,4.5-3.55c1.48-1.62,2.42-3.66,3.72-5.42,1.08-1.47,2.67-2.69,3.4-4.47a21.68,21.68,0,0,0,.56-2.8,14.83,14.83,0,0,1,.78-2.33c1.36-3,1.81-2.84,2.2-6.7a8.6,8.6,0,0,0-.12-2.68,17.28,17.28,0,0,0-.89-2c-.26-.72-.4-1.49-.63-2.23-.15-.5-.33-1-.53-1.48s-.46-1-.68-1.46c.18.95.41,1.89.54,2.85a29.64,29.64,0,0,1,.24,5.65c-.31,5.72-2.52,10-6.51,14a35.11,35.11,0,0,1-2.92,2.8,7.59,7.59,0,0,1-1.61.88c-.76.35-1.55.62-2.32,1s-1.58.63-2.33,1a13.75,13.75,0,0,0-1.31,1c-.47.36-.91.77-1.41,1.09a16.88,16.88,0,0,1-1.86,1c-1.28.59-2.58,1.12-3.89,1.62a14.39,14.39,0,0,1-3.65,1.16c-.15,0-.35,0-.43-.1s0-.25.15-.3a24.7,24.7,0,0,0,3-1.74c.87-.6,1.59-1.38,2.45-2,.68-.48,1.49-.75,2.16-1.24a7.23,7.23,0,0,0,1.32-1.33c.73-.9,1.28-1.94,2-2.84a9.29,9.29,0,0,1,1.52-1.55,8.41,8.41,0,0,1,1.76-1,26.35,26.35,0,0,0,2.5-.87,3.74,3.74,0,0,0,1.28-1.31c.52-.83.72-1.84,1.22-2.68a44.5,44.5,0,0,1,2.57-3.66c.69-1,1.41-1.88,2.19-2.76a3.29,3.29,0,0,1,.78-.66.54.54,0,0,1,.41-.05c.25.07.27.41.83.35.87-.09,1.19-1.33,1.42-2A17.32,17.32,0,0,0,278.3,53c0-.15,0-.35-.18-.42s-.17.08-.29,0-.15-.15-.17-.25c-.19-1.14-.26-2.29-.4-3.43a16.92,16.92,0,0,0-.24-1.74,5,5,0,0,0-.38-1c-.06-.11-.13-.23-.24-.25s-.11.1-.17.14-.12.13-.21.14-.31,0-.35-.06a3.28,3.28,0,0,1-.15-.51c-.22-1.05-.37-2.07-.61-3.14a4.27,4.27,0,0,1-.13-.48s0-.09.06-.09.08.06.11.1c.15.27.27.55.41.83l.37.73c.11.2.18,0,.18,0a3.81,3.81,0,0,0-.15-1.11,14.14,14.14,0,0,0-.73-2.07,25.9,25.9,0,0,0-1-2.74,46.22,46.22,0,0,1-4.16-4.14c-1.3-1.65-3-4.9-4.5-5.87-.49-.32-1.26.14-3.12-.8a25.22,25.22,0,0,1-3.15-1.92c-.9-.64-11-1-14.16-.51,0,.46.79.6,1.28.61s1.25-.14,1.88-.18c.1,0,.27-.05.29.05s-.15.14-.24.2a4.48,4.48,0,0,0-1.05.81c-.29.34.41.3.58.31.85.07,2.31.12,2.66.14.62,0,1.25-.11,1.87,0a8,8,0,0,1,2,.47,13.13,13.13,0,0,1,1.2.72,16.28,16.28,0,0,0,2.18,1c.43.13.91,0,1.36.13a6.07,6.07,0,0,1,.67.25,4.89,4.89,0,0,1,1,.29,3.3,3.3,0,0,1,1,.9,6.9,6.9,0,0,1,.61,1.52c.21.63.29,1.29.55,1.9a3.28,3.28,0,0,0,.62.82,10.36,10.36,0,0,0,1.42,1.31c.48.32.62-.3.71-.39a.17.17,0,0,1,.18,0,.63.63,0,0,1,.33.24,4.66,4.66,0,0,1,.34.83c.19.52.15.51.56.85s.56.44.81.69a2.14,2.14,0,0,1,.5.58,3.43,3.43,0,0,1,.32.95c.07.33,0,.67.08,1a1.11,1.11,0,0,0,.16.39c.18.27.44.49.6.77s.21.67.37,1,.55.65.64,1.05a5.16,5.16,0,0,1-.64,3,8.28,8.28,0,0,1-1.06,1.24c-.43.51-.93,1-1.31,1.52a7.49,7.49,0,0,0-.56,1.22c-.38.82-.66,1.69-1.11,2.47a9.87,9.87,0,0,1-1.28,1.67,16.74,16.74,0,0,1-1.76,1.71c-.76.65-1.6,1.18-2.38,1.81s-1.4,1.25-2.14,1.81a26,26,0,0,1-2.54,1.75,21.41,21.41,0,0,1-2.22,1c-.53.23-1.09.39-1.62.63s-.84.44-1.25.67c-.7.38-1.38.79-2.09,1.16a23.1,23.1,0,0,1-2.11,1.06,5.28,5.28,0,0,1-1.36.32.78.78,0,0,1-.52-.1.25.25,0,0,1-.06-.31,1.48,1.48,0,0,1,.57-.48c.8-.46,1.65-.84,2.48-1.25s1.84-.84,2.73-1.31a15.82,15.82,0,0,0,1.92-1.2,19.44,19.44,0,0,0,2.27-1.89c1-1,1.88-2.14,2.86-3.18.45-.49.94-.95,1.43-1.41s1-.87,1.52-1.35,1.2-1.26,1.75-1.94a21.38,21.38,0,0,0,1.38-1.9,7.45,7.45,0,0,0,1-1.84,29.81,29.81,0,0,0,.67-4,13.14,13.14,0,0,0,.19-2c0-.62-.23-1.23-.22-1.85a3.34,3.34,0,0,1,.25-.91,3.87,3.87,0,0,0,.23-.65,12.62,12.62,0,0,0-.18-1.89,1.15,1.15,0,0,0-1.76-.66,2.05,2.05,0,0,0-.67,1c-.12.4-.13.82-.24,1.22-.23.86-.52.84-1.36,1.11-.64.21-1.33.28-2,.5a1,1,0,0,0-.53.38,1.68,1.68,0,0,0-.18.74,6.54,6.54,0,0,1,0,.89c-.2.8-1.15,1.4-1.72,1.94-.26.24-.44.57-.75.73a5.81,5.81,0,0,1-1.43.45c-.58.14-1.19.16-1.77.31a4.46,4.46,0,0,0-1.11.45,2,2,0,0,0-.62.53.65.65,0,0,0-.07.39.36.36,0,0,0,.09.22c.07.06.19.05.25.12s0,.66-.24.89-.41.11-.56.25-.32.56-.52.79a5.25,5.25,0,0,1-3.17,1.84c-.6.05-1.21-.06-1.81-.06-.75,0-1.51,0-2.26.06-1.15.07-1.95,0-2.58,1.08a8.79,8.79,0,0,1-.43.87,1,1,0,0,1-.46.31,3.06,3.06,0,0,1-.73.15,5.88,5.88,0,0,0-1,.06.8.8,0,0,0-.39.36.88.88,0,0,0-.19.55c0,.2.28.31.34.5s-.07.33,0,.48a.8.8,0,0,0,.3.42,1.1,1.1,0,0,0,.48.07,11.81,11.81,0,0,1,1.33,0,.47.47,0,0,1,.09.91,13.16,13.16,0,0,1-1.88.19c-.15,0-.31-.07-.46,0-.37.08-.71.34-1.09.39s-.91-.19-1.35-.11a9.88,9.88,0,0,0-1.25.55,7.12,7.12,0,0,0-.94.2c-1,.45-.92,1.46-.05,1.65s1.53,0,2.28.13a11.38,11.38,0,0,0,5.81.08c.33-.09.54-.43.87-.54s.85,0,1.23-.18.46-.57.78-.74a4,4,0,0,1,1.1-.27c.57-.13,1.15-.27,1.73-.39.4-.08,1.23-.19,1.16.49a1.81,1.81,0,0,1-.3.85,4,4,0,0,1-1,1c-.43.3-1,.43-1.43.71-.29.19-.48.53-.8.67a25.7,25.7,0,0,1-2.56.87c-.57.19-1.14.35-1.69.58a2.58,2.58,0,0,0-.49.32c-.37.27-.72.57-1.1.81a4.83,4.83,0,0,1-1,.52c-.83.26-1.68.43-2.52.61-.52.11-1.05.15-1.57.25s-1.26.28-1.89.45-1,.29-1.46.45-.7.3-1.07.4a4.64,4.64,0,0,1-.91.13c-.83.07-1.67.11-2.5.15-.61,0-1.22.07-1.83.08a6.72,6.72,0,0,1-1.27,0c-.79-.12-1.56-.36-2.34-.55-.5-.12-1-.26-1.49-.39a7.7,7.7,0,0,1-.95-.22,2.43,2.43,0,0,1-.81-.39,8.78,8.78,0,0,1-.94-1.07Zm8.74-5.75a1.54,1.54,0,0,0-.42.82c-.16,1.33,2,2.24,3.33,2.58.66.17,1,.12,2.11-.43.16-.09.4-.09.49-.24.2-.32.17-.74.33-1.08s.41-.48.54-.77a.5.5,0,0,0,0-.43,1.25,1.25,0,0,0-.54-.57c-.89-.34-5.06-.69-5.84.12Z" transform="translate(-214.53 -24.17)"/><path class="cls-7" d="M224.66,70.86a29.46,29.46,0,0,1,6.8-1.22,43.26,43.26,0,0,0,4.64-.15c2.47-.57,4-1.69,6.17-2.68.81-.37,1.85-.81,2.79-1.17.78-.43,1.59-.8,2.38-1.19s1.84-.84,2.73-1.31a15.82,15.82,0,0,0,1.92-1.2,19.44,19.44,0,0,0,2.27-1.89c1-1,1.88-2.14,2.86-3.18.45-.49.94-.95,1.43-1.41s1-.87,1.52-1.35,1.2-1.26,1.75-1.94a21.38,21.38,0,0,0,1.38-1.9,7.45,7.45,0,0,0,1-1.84,29.81,29.81,0,0,0,.67-4,13.14,13.14,0,0,0,.19-2c0-.62-.23-1.23-.22-1.85a3.34,3.34,0,0,1,.25-.91,3.87,3.87,0,0,0,.23-.65,12.62,12.62,0,0,0-.18-1.89,1.16,1.16,0,0,0-.89-.83,1.48,1.48,0,0,1,.26.3,1.33,1.33,0,0,1,.12.55,1.92,1.92,0,0,1-.11.76,3.47,3.47,0,0,1-.52.84c-.28.36-.72.6-.92,1a1.58,1.58,0,0,0-.06,1c.08.38.38.67.5,1a3,3,0,0,1,.24,1.25,5.51,5.51,0,0,1-.47,1.64c-.19.44-.56.78-.72,1.22-.27.75-.25,1.59-.57,2.33a10.93,10.93,0,0,1-1.49,2.53,16.08,16.08,0,0,1-2.44,2.44c-1.3,1.07-2.89,1.76-4.11,2.92-.91.87-1.32,2.15-2.18,3.07a9,9,0,0,1-2.23,1.7c-.52.29-1.18.25-1.7.54-1.24.68-2.34,1.61-3.54,2.35-1,.63-2.06,1.23-3.13,1.76a22.45,22.45,0,0,1-3.22,1.32,31.86,31.86,0,0,1-3.4.64c-1.25.24-2.53.39-3.77.69-1,.25-2,.69-3,1a5.65,5.65,0,0,1-1.4.25,16.07,16.07,0,0,1-1.83-.24,3.49,3.49,0,0,0-.91-.06,8.19,8.19,0,0,0-1.07.42,1.61,1.61,0,0,1-.6.12,7.07,7.07,0,0,1-1.7-.31c-.38-.14-1.77-1-1.86-1-.36,0-.7.26-1.06.26a2.46,2.46,0,0,1-.6-.07,1.91,1.91,0,0,1-.5-.19,3.82,3.82,0,0,1-1-1.31,3.67,3.67,0,0,1,0-1.28,6.64,6.64,0,0,0-.24,1.46c0,.29.27.52.45.75a5.39,5.39,0,0,0,1.15,1.23,1.53,1.53,0,0,0,.57.24c.62.14,1.36.06,1.87.2.31.08.55.35.85.46s.88.14,1.3.28c.19.07,1.32.54.61.87-.22.1-.49,0-.72,0a1,1,0,0,0-.48.25l-.13.16a1.4,1.4,0,0,1,.77-.23c.44,0,1,.2,1.4.17.84-.07,1.21-.51,1.93-.78Z" transform="translate(-214.53 -24.17)"/><path class="cls-8" d="M226.94,61.43a3.44,3.44,0,0,1-3-1.31c.23,1.12,2.09,1.89,3.31,2.2.66.17,1,.12,2.11-.43.16-.09.4-.09.49-.24.2-.32.17-.74.33-1.08s.41-.48.54-.77a.5.5,0,0,0,0-.43,1.25,1.25,0,0,0-.54-.57l-.08,0a.75.75,0,0,1,.1.17.62.62,0,0,1-.24.62c-.36.21-1.17.24-1.47.62-.16.2,0,.87-.36,1a2.83,2.83,0,0,1-1.18.24Z" transform="translate(-214.53 -24.17)"/><path class="cls-9" d="M239.23,59.13c0,.19.17.37.14.57s-.13.17-.23.21a7.87,7.87,0,0,1-2.88.2c-.43-.1-.82-.32-1.25-.41a1.11,1.11,0,0,0-.48,0c-.64.1-1,.19-1.53.24.6,0,1.21,0,1.81.06a11.38,11.38,0,0,0,5.81.08c.33-.09.54-.43.87-.54s.85,0,1.23-.18.46-.57.78-.74a4,4,0,0,1,1.1-.27c.57-.13,1.15-.27,1.73-.39a2,2,0,0,1,.82,0,9.58,9.58,0,0,0-3.5.06c-.56.07-1,0-1.1.53a.56.56,0,0,1-.23.37.94.94,0,0,1-.55.1c-.55,0-1.07-.26-1.62-.31-.3,0-.85.09-.92.43Z" transform="translate(-214.53 -24.17)"/><path class="cls-10" d="M239.69,77.07c-.84.36-1.74.58-2.59.92a4.84,4.84,0,0,0-.85.43,21.3,21.3,0,0,1-2.18,1.52,6.22,6.22,0,0,1-2,.45c-1.27.14-2.55.12-3.82.22-.92.08-1.87.46-2.77.06a6.28,6.28,0,0,0-.15,3.31c.17.61.85,1,1.4,1.29a5.68,5.68,0,0,0,1.78.5c1.1.19,2.23.2,3.33.41a7,7,0,0,1,1.45.51c.53.24,1,.57,1.53.83a11.15,11.15,0,0,0,1.52.73,5,5,0,0,0,1.42.32,14.36,14.36,0,0,0,2.07-.11c.63,0,1.25-.12,1.88-.22l.22,0c.3,0,.59-.16.89-.22,1.09-.23,2.2-.38,3.28-.65a21.85,21.85,0,0,0,2.38-.74c1.23-.43,2.44-.91,3.65-1.39,1.75-.69,3.5-1.37,5.23-2.11a15.19,15.19,0,0,0,1.66-.84c1.73-1,3.47-2,5.15-3.09q1.92-1.24,3.72-2.66c1.1-.84,2.16-1.75,3.19-2.68s1.73-1.65,2.58-2.5c.28-.28.49-.63.79-.88.05,0,.13,0,.15.11.22.93-3.13,4.81-3.92,5.48-.61.51-1.26,1-1.88,1.49-.84.7-1.65,1.45-2.5,2.14-.62.51-1.24,1-1.91,1.48-1.15.78-2.35,1.46-3.56,2.28-.85.58-1.78,1.3-2.6,1.83a9.74,9.74,0,0,1-2,.88c-1,.4-2,.86-3.06,1.22-.6.2-1.22.29-1.82.46-1,.27-1.72.55-2.72.74,1.9.2,3,.77,4.16.24.48-.21.86-.61,1.34-.8a14.43,14.43,0,0,1,2.33-.67c2-.43,4.94-.91,6-1.58.63-.4,1-1,1.58-1.49.43-.34.95-.55,1.4-.86a26.75,26.75,0,0,0,4.5-3.55c1.48-1.62,2.42-3.66,3.72-5.42,1.08-1.47,2.67-2.69,3.4-4.47a21.68,21.68,0,0,0,.56-2.8,14.83,14.83,0,0,1,.78-2.33c1.36-3,1.81-2.84,2.2-6.7a8.6,8.6,0,0,0-.12-2.68,17.28,17.28,0,0,0-.89-2c-.26-.72-.4-1.49-.63-2.23-.15-.5-.33-1-.53-1.48s-.46-1-.68-1.46c.18.95.41,1.89.54,2.85a29.64,29.64,0,0,1,.24,5.65c-.31,5.72-2.52,10-6.51,14a35.11,35.11,0,0,1-2.92,2.8,7.59,7.59,0,0,1-1.61.88c-.76.35-1.55.62-2.32,1s-1.58.63-2.33,1a13.75,13.75,0,0,0-1.31,1c-.47.36-.91.77-1.41,1.09a16.88,16.88,0,0,1-1.86,1c-1.28.59-2.58,1.12-3.89,1.62a14.39,14.39,0,0,1-3.65,1.16c-.15,0-.35,0-.43-.1s0-.25.15-.3a24.7,24.7,0,0,0,3-1.74c.87-.6,1.59-1.38,2.45-2,.68-.48,1.49-.75,2.16-1.24a7.23,7.23,0,0,0,1.32-1.33c.73-.9,1.28-1.94,2-2.84a9.29,9.29,0,0,1,1.52-1.55,8.41,8.41,0,0,1,1.76-1,26.35,26.35,0,0,0,2.5-.87,3.74,3.74,0,0,0,1.28-1.31c.52-.83.72-1.84,1.22-2.68a44.5,44.5,0,0,1,2.57-3.66c.69-1,1.41-1.88,2.19-2.76a3.29,3.29,0,0,1,.78-.66.54.54,0,0,1,.41-.05c.25.07.27.41.83.35.87-.09,1.19-1.33,1.42-2A17.32,17.32,0,0,0,278.3,53c0-.15,0-.35-.18-.42s-.17.08-.29,0-.15-.15-.17-.25c-.19-1.14-.26-2.29-.4-3.43a16.92,16.92,0,0,0-.24-1.74,5,5,0,0,0-.38-1c-.06-.11-.13-.23-.24-.25s-.11.1-.17.14-.12.13-.21.14-.31,0-.35-.06a3.28,3.28,0,0,1-.15-.51c-.22-1.05-.37-2.07-.61-3.14a4.27,4.27,0,0,1-.13-.48s0-.09.06-.09.08.06.11.1c.15.27.27.55.41.83l.37.73c.11.2.18,0,.18,0a2.51,2.51,0,0,0,0-.55,5.05,5.05,0,0,0-.12-.56,14.14,14.14,0,0,0-.73-2.07,25.9,25.9,0,0,0-1-2.74c-.33-.32-.72-.67-1.13-1.05a11.43,11.43,0,0,1,1.21,3,12.39,12.39,0,0,1,.21,1.37,18.22,18.22,0,0,1-.53,6.31c-.42,1.26-1.41,2.26-2,3.46s-.55,2.42-1.25,3.4a65.05,65.05,0,0,1-8.76,8.28c-2.87,2.07-8.91,5.87-12.34,6.73-2.52.63-5.2.47-7.74,1-1.77.38-3.38,1.3-5.13,1.75-2.67.7-4.67.9-7.5,1.76a5.34,5.34,0,0,1-3,.15c-.9-.11-1.84-.16-2.2.28-.16.2.07.62-.15.75a1.43,1.43,0,0,1-1.13,0c-.86-.29-1.59-.88-2.43-1.22a1,1,0,0,0-.7,0c-.27.08-.45.26-.67.27a.6.6,0,0,1-.46-.17,3.74,3.74,0,0,1-.65-2.21c0,.16-.05.32-.08.48a8.52,8.52,0,0,0-.1,1.51.41.41,0,0,0,.16.31,25.75,25.75,0,0,0,3.19,1.83,6.54,6.54,0,0,0,.88.39,16.66,16.66,0,0,0,1.85.46c1.68.33,1.37-.11,2.88-.67a22.06,22.06,0,0,1,2.55-.77c1.82-.4,3.7-.54,5.51-1,1.33-.35,2.58-1,3.87-1.43a25.17,25.17,0,0,1,2.88-1,2.31,2.31,0,0,1,1.25.09,1.56,1.56,0,0,1,.73.61,1.29,1.29,0,0,1,.16.79,1.06,1.06,0,0,1-.32.67c-.36.34-.87.48-1.24.79a4.93,4.93,0,0,0-.89,1c-.21.29-.22.69-.45,1a2.33,2.33,0,0,1-.85.56Z" transform="translate(-214.53 -24.17)"/><path class="cls-11" d="M233.11,73.49c-1.5.4-3.22.07-4.79.41a6,6,0,0,1-2.22-.05c-.9-.11-1.84-.16-2.2.28-.16.2.07.62-.15.75a1.43,1.43,0,0,1-1.13,0c-.86-.29-1.59-.88-2.43-1.22a1,1,0,0,0-.7,0c-.27.08-.45.26-.67.27a.6.6,0,0,1-.46-.17,3.74,3.74,0,0,1-.65-2.21c0,.16-.05.32-.08.48a8.52,8.52,0,0,0-.1,1.51.41.41,0,0,0,.16.31,25.75,25.75,0,0,0,3.19,1.83,6.54,6.54,0,0,0,.88.39,16.66,16.66,0,0,0,1.85.46c1.68.33,1.37-.11,2.88-.67a22.06,22.06,0,0,1,2.55-.77c1.82-.4,3.7-.54,5.51-1,1.33-.35,2.58-1,3.87-1.43a25.17,25.17,0,0,1,2.88-1,2.31,2.31,0,0,1,1.25.09,1.56,1.56,0,0,1,.73.61,1.29,1.29,0,0,1,.16.79,1.06,1.06,0,0,1-.32.67,2.19,2.19,0,0,1-.41.29,3.92,3.92,0,0,0,.64-.34c.9-.65.87-1.44,2.89-2.4,1.62-.77-1.52-.74-1.83-.73a13.63,13.63,0,0,0-4,.19c-2.06.57-4.81,2-7.34,2.71Z" transform="translate(-214.53 -24.17)"/><path class="cls-12" d="M257.07,67.85c-2.41.83-5.49,1.6-8,2.27-.24.06-1.41.3-1.5.56a3.84,3.84,0,0,0,1.78.09,59.86,59.86,0,0,0,7.42-1.55A29.59,29.59,0,0,0,264.13,67a9.12,9.12,0,0,0,2.59-2c.67-.8.81-1.95,1.38-2.83a12.54,12.54,0,0,1,1.81-2.11c1.12-1.11,2.39-2.06,3.52-3.16a6.64,6.64,0,0,0,1.49-1.73,11.61,11.61,0,0,0,.95-3.42,35.56,35.56,0,0,0,.08-4,4.14,4.14,0,0,1,.16-1.57l-.09,0c-.12,0-.31,0-.35-.06a3.28,3.28,0,0,1-.15-.51c-.22-1.05-.37-2.07-.61-3.14a4.27,4.27,0,0,1-.13-.48s0-.09.06-.09.08.06.11.1c.15.27.27.55.41.83l.37.73c.11.2.18,0,.18,0a2.51,2.51,0,0,0,0-.55,5.05,5.05,0,0,0-.12-.56,14.14,14.14,0,0,0-.73-2.07,25.9,25.9,0,0,0-1-2.74l-.12-.11a8.42,8.42,0,0,1,.81,3.13,1.65,1.65,0,0,1,0,.34c0,.07-.14.07-.15.14a10.17,10.17,0,0,0,.07,1.32,34.6,34.6,0,0,1,.23,3.8,18.81,18.81,0,0,1-.51,4.86,14.56,14.56,0,0,1-1.84,3.28,26.6,26.6,0,0,1-2.75,4.17c-.87.94-2.22,1.32-3.15,2.2-3.67,3.48-3.23,5-9.48,7.09Z" transform="translate(-214.53 -24.17)"/><path class="cls-13" d="M233.8,84.34a11.87,11.87,0,0,0-2,.62,5,5,0,0,1-3.53-.38c-2.1-.79-2.63-2-2.47-3.7a.49.49,0,0,1,0-.12,1.06,1.06,0,0,1-.25-.09,6.28,6.28,0,0,0-.15,3.31c.17.61.85,1,1.4,1.29a5.68,5.68,0,0,0,1.78.5c1.1.19,2.23.2,3.33.41a7,7,0,0,1,1.45.51c.53.24,1,.57,1.53.83a11.15,11.15,0,0,0,1.52.73,5,5,0,0,0,1.42.32,14.36,14.36,0,0,0,2.07-.11c.63,0,1.25-.12,1.88-.22l.22,0c.3,0,.59-.16.89-.22,1.09-.23,2.2-.38,3.28-.65a21.85,21.85,0,0,0,2.38-.74c1.23-.43,2.44-.91,3.65-1.39,1.75-.69,3.5-1.37,5.23-2.11a15.19,15.19,0,0,0,1.66-.84c1.73-1,3.47-2,5.15-3.09q1.92-1.24,3.72-2.66c1.1-.84,2.16-1.75,3.19-2.68s1.73-1.65,2.58-2.5c.28-.28.49-.63.79-.88.05,0,.13,0,.15.11.22.93-3.13,4.81-3.92,5.48l-.24.2c2.32-1.67,3.37-3,5.17-6,.21-.37.42-.74.62-1.12a24.1,24.1,0,0,0,1.3-2.89,5.54,5.54,0,0,0,.34-1.37s-.13.11-.25.31-.42.71-.49.84a27.85,27.85,0,0,1-2.46,3.69,21.19,21.19,0,0,1-1.58,1.7c-.85.84-1.7,1.68-2.62,2.44-.75.62-1.58,1.11-2.36,1.67-1,.75-2.09,1.48-3.1,2.27-.68.54-1.25,1.23-2,1.73a20.24,20.24,0,0,1-2.39,1.28c-1,.53-2.1,1-3.15,1.55-.68.33-1.33.74-2,1-1.3.5-2.66.79-4,1.28-.69.26-1.3.71-2,1-1.39.48-3.06.49-4.47.9-2.42.69-3.2,1.39-5.29,1.45a13.23,13.23,0,0,1-1.6-.06c-.7-.06-1-.32-1.12-.66-.11-.54.5-1.26,1.55-1.57,1.26-.37,2.56-.56,3.84-.89,2.62-.67,6.5-1.42,8.91-2.21a33.77,33.77,0,0,0,3.31-1.35l-.28.11a14.39,14.39,0,0,1-3.65,1.16c-.15,0-.35,0-.43-.1s0-.25.15-.3a24.7,24.7,0,0,0,3-1.74c.87-.6,1.59-1.38,2.45-2,.68-.48,1.49-.75,2.16-1.24a7.15,7.15,0,0,0,1.24-1.22,6.47,6.47,0,0,1-2.8,1.33,12.79,12.79,0,0,0-2.05.6c-.73.5-2.14,3.06-4.89,4a48,48,0,0,1-10.28,2.15c-1.82.2-3.67.14-5.48.41Z" transform="translate(-214.53 -24.17)"/><path class="cls-14" d="M236.25,78.42a21.3,21.3,0,0,1-2.18,1.52,6.22,6.22,0,0,1-2,.45c-1.27.14-2.55.12-3.82.22a10.92,10.92,0,0,1-2.19.22,6.29,6.29,0,0,0,2,0c2.4-.08,6.16.18,7.17,0a5,5,0,0,0,2-.84c.94-.62-.91-.63.3-1.13,1.65-.68,6-.47,7-2.24a.73.73,0,0,0,.09-.71c-.14-.21-.61,0-.72-.24s.16-.44.33-.56a27.25,27.25,0,0,1,5.19-2.78,19.49,19.49,0,0,1,2.89-.89c3-.64-2.72-.47-4.59,0a7,7,0,0,0-3.28,2,4.4,4.4,0,0,1-1,.8c-.8.34-1.93.37-2.51,1.22-.21.29-.22.69-.45,1a2.33,2.33,0,0,1-.85.56c-.84.36-1.74.58-2.59.92a4.84,4.84,0,0,0-.85.43Z" transform="translate(-214.53 -24.17)"/><path class="cls-15" d="M252.81,82.3c-1,.35-2,.61-3,.87s-2.32.52-3.48.8a22.33,22.33,0,0,0-2.47.63c-.12,0-.26.28-.15.32a4.05,4.05,0,0,0,1.43.24,26.18,26.18,0,0,0,3.07.12,2.25,2.25,0,0,0,1-.27c.75-.4,1.37-1,2.14-1.4a10.7,10.7,0,0,1,2.09-.62,20.1,20.1,0,0,0,2.59-.51,17.11,17.11,0,0,0,5.25-4c.05-.09,0-.26-.06-.3s-.25,0-.36.11c-.95.51-1.86,1.11-2.82,1.62s-1.66.84-2.51,1.22-1.77.81-2.69,1.13Z" transform="translate(-214.53 -24.17)"/><path class="cls-16" d="M232.29,27c.3-.12.54-.35.83-.5a12,12,0,0,1,8-.54c.73.21,1.53.11,2.26.33s1.17.63,1.79.86a12.62,12.62,0,0,1,1.85.51c.38.21.44.82.83,1,.67.33,1.49.17,2.18.45,1.7.69,4,2.61,4.26,4.56a3.84,3.84,0,0,1-.21,1.9c-.29.71-1.5.37-1.85.54-.19.1-.24.38-.26.6-.11.9.05,1.82-.12,2.71-.31,1.56-2,2.16-3.43,2.53-1.88.5-4.07-.25-3.69-2.59.1-.66.72-1.13,1-1.76s0-1.14.27-1.58c.68-1,2.55-1.48,2.8-1.85a2.45,2.45,0,0,0,.24-1.43,2.74,2.74,0,0,0-.32-1.29.43.43,0,0,0-.55-.12c-.6.41-.82,1.49-2.11,2s-3.57.51-4.67,1.88a.7.7,0,0,0-.15.57c.14.44.62.75.7,1.2a1.14,1.14,0,0,1-.29.87,3.82,3.82,0,0,1-1.31,1.16,40.42,40.42,0,0,1-3.91,1.25c-.63.22-1.25.5-1.87.75-3,1.2-5.81.9-6.17,1.28s-.28,1.13-.63,1.58c-1.21,1.55-2.47,2.11-4.17,1-.62-.42-1-1.19-1.67-1.52-.46-.23-1,0-1.55-.06-.87-.07-1.86-.46-2.68.24-.45.39-.74,1.34-1,1.48s.14-1.28.43-1.84c.46-.91-.8-1.67,2.33-4.32a9.23,9.23,0,0,0,1.93-2.65,5.37,5.37,0,0,1,.89-1.4,11.45,11.45,0,0,1,1.33-1.06c.74-.59,1.73-1.83,2.66-2.62.39-.33.89-.5,1.27-.83.86-.77,1.53-1.58,2.22-2.21.87-.8,1.67-.71,2.61-1.09Z" transform="translate(-214.53 -24.17)"/><path class="cls-17" d="M238.87,34.6c-2.79,2.5-1.06,2.67.33,2.87.64.09,1.46.41.51.82s-1.76.41-2.6.74c-.46.19-.82.6-1.28.81-3,1.37-7.05.54-9.34.88-1,.15-1.41,1.06-.57,1.88.6.57,1.22.58,1.24,1,0,.88-1.21,1.68-2,1.9a3.3,3.3,0,0,0,2.52-1.58c.35-.45.24-1.17.63-1.58s3.15-.08,6.17-1.28c.62-.25,1.24-.53,1.87-.75a40.42,40.42,0,0,0,3.91-1.25,3.82,3.82,0,0,0,1.31-1.16,1.14,1.14,0,0,0,.29-.87c-.08-.45-.56-.76-.7-1.2a.7.7,0,0,1,.15-.57c1.1-1.37,3.44-1.37,4.67-1.88s1.51-1.61,2.11-2a.43.43,0,0,1,.55.12,2.74,2.74,0,0,1,.32,1.29,2.45,2.45,0,0,1-.24,1.43c-.23.33-1.81.76-2.6,1.6,2.19-1.56,3.76-.9,3.79-2.73a4.8,4.8,0,0,0-.49-2.45.81.81,0,0,0-1.19-.12c-.85.85-1.22,1.88-2.45,2.24a23.09,23.09,0,0,1-2.47.53c-1.64.3-3.07.08-4.44,1.32Z" transform="translate(-214.53 -24.17)"/><path class="cls-18" d="M246.92,28c.09.33,0,1.16.53,1.28,1.05.24,2-.28,3.21.5,1.6,1.06,3.25,2.4,3,4.54-.11.79-.81.62-1.61.37-.53-.17-1.1-.24-1.21.25-.25,1.17.17,2.4.15,3.6,0,2.6-2,3.42-3.92,3.62a4.2,4.2,0,0,0,1.36-.14c1.4-.37,3.12-1,3.43-2.53.17-.89,0-1.81.12-2.71,0-.22.07-.5.26-.6.35-.17,1.56.17,1.85-.54a3.84,3.84,0,0,0,.21-1.9c-.24-1.95-2.56-3.87-4.26-4.56-.69-.28-1.51-.12-2.18-.45-.39-.19-.45-.8-.83-1a2.71,2.71,0,0,0-.74-.26l.47.22a.54.54,0,0,1,.2.32Z" transform="translate(-214.53 -24.17)"/></g></g></svg>