<svg xmlns="http://www.w3.org/2000/svg" xmlns:xlink="http://www.w3.org/1999/xlink" viewBox="0 0 96.38 54.03"><defs><style>.cls-1{isolation:isolate;}.cls-11,.cls-12,.cls-13,.cls-14,.cls-15,.cls-16,.cls-2,.cls-3,.cls-4,.cls-5,.cls-6,.cls-7,.cls-8,.cls-9{fill-rule:evenodd;}.cls-2{fill:url(#linear-gradient);}.cls-3{fill:#6c6c2e;}.cls-4{fill:url(#radial-gradient);}.cls-5{fill:url(#radial-gradient-2);}.cls-10,.cls-14,.cls-16,.cls-6,.cls-9{mix-blend-mode:screen;}.cls-6{fill:url(#radial-gradient-3);}.cls-13,.cls-15,.cls-7,.cls-8{mix-blend-mode:multiply;}.cls-7{fill:url(#radial-gradient-4);}.cls-10,.cls-8{opacity:0.5;}.cls-8{fill:url(#radial-gradient-5);}.cls-9{fill:url(#radial-gradient-6);}.cls-11{fill:url(#radial-gradient-7);}.cls-12{fill:url(#linear-gradient-2);}.cls-13{fill:url(#New_Gradient_Swatch_67);}.cls-14{fill:url(#radial-gradient-8);}.cls-15{fill:url(#New_Gradient_Swatch_67-2);}.cls-16{fill:url(#radial-gradient-9);}</style><linearGradient id="linear-gradient" x1="196.3" y1="150.32" x2="291.14" y2="130.16" gradientUnits="userSpaceOnUse"><stop offset="0" stop-color="#87e300"/><stop offset="1" stop-color="#13a300"/></linearGradient><radialGradient id="radial-gradient" cx="234.48" cy="134.63" r="43.38" gradientUnits="userSpaceOnUse"><stop offset="0" stop-color="#23d1d1"/><stop offset="0.12" stop-color="#1dc5c5"/><stop offset="0.34" stop-color="#0da5a5"/><stop offset="0.5" stop-color="#008a8a"/><stop offset="0.92" stop-color="#004242"/></radialGradient><radialGradient id="radial-gradient-2" cx="235.96" cy="136.04" r="42.15" gradientUnits="userSpaceOnUse"><stop offset="0" stop-color="#dede00"/><stop offset="0.15" stop-color="#d2d200"/><stop offset="0.42" stop-color="#b2b200"/><stop offset="0.47" stop-color="#abab00"/><stop offset="0.51" stop-color="#a5a500"/><stop offset="0.77" stop-color="#7d7d00"/><stop offset="0.91" stop-color="#6e6e00"/></radialGradient><radialGradient id="radial-gradient-3" cx="247.26" cy="148.78" r="30.12" gradientUnits="userSpaceOnUse"><stop offset="0.04"/><stop offset="0.84"/><stop offset="0.87" stop-color="#2f2f16"/><stop offset="0.92" stop-color="#6f6f34"/><stop offset="0.96" stop-color="#9d9d4a"/><stop offset="0.98" stop-color="#baba57"/><stop offset="1" stop-color="#c5c55c"/></radialGradient><radialGradient id="radial-gradient-4" cx="240.98" cy="137.38" r="37.65" gradientUnits="userSpaceOnUse"><stop offset="0.61" stop-color="#fff"/><stop offset="0.66" stop-color="#fdfdfb"/><stop offset="0.71" stop-color="#f5f5ee"/><stop offset="0.76" stop-color="#e9e9da"/><stop offset="0.82" stop-color="#d8d8bd"/><stop offset="0.87" stop-color="#c2c297"/><stop offset="0.92" stop-color="#a8a869"/><stop offset="0.98" stop-color="#888834"/><stop offset="1" stop-color="#7a7a1b"/></radialGradient><radialGradient id="radial-gradient-5" cx="220.66" cy="124.32" r="89.49" gradientUnits="userSpaceOnUse"><stop offset="0" stop-color="#848431"/><stop offset="1" stop-color="#fff"/></radialGradient><radialGradient id="radial-gradient-6" cx="213.71" cy="121.74" r="48.01" gradientUnits="userSpaceOnUse"><stop offset="0" stop-color="#c5c55c"/><stop offset="1" stop-color="#000a00"/></radialGradient><radialGradient id="radial-gradient-7" cx="233.39" cy="130.45" r="38.46" gradientUnits="userSpaceOnUse"><stop offset="0" stop-color="#72d6d3"/><stop offset="1"/></radialGradient><linearGradient id="linear-gradient-2" x1="199.08" y1="164.03" x2="294.91" y2="143.66" xlink:href="#linear-gradient"/><radialGradient id="New_Gradient_Swatch_67" cx="222.14" cy="190.69" r="53.5" gradientUnits="userSpaceOnUse"><stop offset="0" stop-color="#093"/><stop offset="1" stop-color="#fff"/></radialGradient><radialGradient id="radial-gradient-8" cx="212.25" cy="166.2" r="39.65" gradientUnits="userSpaceOnUse"><stop offset="0" stop-color="#8fe561"/><stop offset="1"/></radialGradient><radialGradient id="New_Gradient_Swatch_67-2" cx="297.32" cy="165.51" r="40.15" xlink:href="#New_Gradient_Swatch_67"/><radialGradient id="radial-gradient-9" cx="279.61" cy="160.87" r="41.71" xlink:href="#radial-gradient-8"/></defs><title>7</title><g class="cls-1"><g id="Layer_1" data-name="Layer 1"><path class="cls-2" d="M264.33,130.49l3.83,3.63c4.19,0,9.85.68,12.61,4.07l11.56-2.46c-2.22-2.3-6.45-3.73-10-4.43a63.73,63.73,0,0,0-18-.81Zm-55,22.89c-.22-4.55,6.32-8.11,10-9.56l1-4.43c-8.06,2.15-17.64,6.86-21.59,13a6.72,6.72,0,0,0-1.22,3.55l11.84-2.52Z" transform="translate(-197.48 -119.06)"/><path class="cls-3" d="M220,139.54a3,3,0,0,1,1.8-1.35l1.77,14.71c-3.23-2.59-4.41-5.36-4.33-8.65a12.93,12.93,0,0,1,.76-4.71Z" transform="translate(-197.48 -119.06)"/><path class="cls-3" d="M221.33,157.34c-.6-2.64.75-3.53,3.49-4.17,11.85-2.77,48.09-4.83,42.62,7.1a6.9,6.9,0,0,1-1.29,1.8c-.73.79-1.6,1.44-2.39,2.18-5.71,5.38-11.08,6.92-19.13,5.49-5.58-1-21.88-6.21-23.3-12.4Z" transform="translate(-197.48 -119.06)"/><path class="cls-3" d="M271.4,143.64a8,8,0,0,0-1.85-3c-7.39-7.87-31-19.05-39-16.64-6,4.93-6.7,9.24-4.74,13.44,8.24,17.62,46,25.15,45.61,6.23Z" transform="translate(-197.48 -119.06)"/><path class="cls-4" d="M245.25,120.41a25.49,25.49,0,1,1-25.48,25.48,25.48,25.48,0,0,1,25.48-25.48Z" transform="translate(-197.48 -119.06)"/><path class="cls-5" d="M233.08,122.35a5.86,5.86,0,0,0-1.08.91.93.93,0,0,0-.28.45.47.47,0,0,0,.07.32c.09.14.26.21.33.35s.09.22,0,.3a9.77,9.77,0,0,1-.92.9,15.57,15.57,0,0,0-1.42,1.51c-.37.5-1.08,2.33-.81,3a1.9,1.9,0,0,0,.64.79c.57.37,1.93.57,2.73,1.06a7,7,0,0,1,1.38,1.17c.34.37.49.88.86,1.22a7.34,7.34,0,0,0,3.07,1.94,11.91,11.91,0,0,1,2.4.51,8.6,8.6,0,0,1,1.77,1.36c2.26,1.88,3.16,3.48,6.46,3,1.48-.22,2.9-1.38,4.2-2.07,1.88-1,2.09-.48,3.83-.66a2.89,2.89,0,0,0,1.28-.32c1.24-.81,1.6-2,2.43-3a6.81,6.81,0,0,1,1.18-1,15.29,15.29,0,0,0,1.79-1.17c.9-.91-.36-3.24-.68-4.12a1.62,1.62,0,0,1-.07-.62.92.92,0,0,1,.14-.52c.21-.28.74-.38.85-.49a.29.29,0,0,0,.06-.29,1.58,1.58,0,0,0-.38-.6,22.7,22.7,0,0,0-2.15-1.77c-1.15-.82-2.32-1.59-3.54-2.3a13.5,13.5,0,0,0-2.43-1.15c-1-.33-2-.48-3-.72s-2-.63-3.07-.79a10.69,10.69,0,0,0-1.6,0,14,14,0,0,1-1.58-.11c-.67-.08-1.62-.37-2-.34s-2.07.53-3.11.75c-.79.17-1.61.2-2.39.42a26.22,26.22,0,0,0-2.66,1,20.68,20.68,0,0,0-2.35,1.07Zm33.36,7.73a7.92,7.92,0,0,0-1-1c-.12-.11-1.09-.68-.9-.06.26.92.8,1.88,1.1,2.92.23.79.19,1.37-.56,1.79s-1.47.45-1.83,1.43-.64,2.15-1,3.2a8.1,8.1,0,0,1-1.7,2.58,1.23,1.23,0,0,0-.32.55c-.08.61.9,1.74,1.45,1.92a5.8,5.8,0,0,0,3.39-.28c1-.32,1.36-1,2.06-1.41s2.46,0,2.92-.66a3.11,3.11,0,0,0,.39-1.42,25.14,25.14,0,0,0-.13-3,14.42,14.42,0,0,0-.7-1.32c-.21-.46-.46-1.34-.52-1.43-.19-.33-.46-.61-.66-.94s-.13-.43-.25-.62c-.54-.78-1.11-1.54-1.72-2.27ZM230.53,124c-.92,1-1.77,3-2.19,3.24-1,.67-1.63.89-2.13,2.2a2.73,2.73,0,0,0-.22,1,.48.48,0,0,0,.22.35c.82.62,1,.64.81,1.37a3.84,3.84,0,0,0-.14,1,.57.57,0,0,0,.12.39.78.78,0,0,0,.48.19c.52.05,1,0,1.56,0s.74.43,1,.89.31.7.51,1,.42.38.56.62c.39.7.62,1.49,1,2.19a1.3,1.3,0,0,0,.55.54c.31.14.68.08,1,.19a2.27,2.27,0,0,1,.89.45c.41.38.63.94,1,1.34a11.73,11.73,0,0,0,1.79,1.51,3,3,0,0,0,1,.32c.49.11,1,.1,1.49.24a2.76,2.76,0,0,1,1,.42,10.28,10.28,0,0,1,1.49,1.39,25.69,25.69,0,0,0,2,2.43,5.55,5.55,0,0,0,2,1,12.06,12.06,0,0,0,2.8.47,4.75,4.75,0,0,0,1.83-.26c1.21-.43,2.29-1.2,3.49-1.64a9,9,0,0,1,2.24-.45,12,12,0,0,1,2.54.05,9.57,9.57,0,0,1,2,.53c1.26.43,2.47,1,3.73,1.43a7.86,7.86,0,0,0,2.18.51,1.74,1.74,0,0,0,1.11-.43,5.09,5.09,0,0,0,1.5-2.51,4.32,4.32,0,0,1,.34-.68,1,1,0,0,1,.29-.36c.13-.08.36,0,.55-.05.37-.17.45-.63.42-1.14a20.65,20.65,0,0,1,.24,3.66c.06.74.33,1.76.39,2.18,0,.17-.62,1.22-.81,1.87-.27.91-.25,1.89-.56,2.77A12.52,12.52,0,0,1,269.6,156c-.29.52-.51,1.07-.84,1.57-1.38,2.16-3,2.42-5.32,2a39.2,39.2,0,0,0-8.27-.68c-5.46.07-6.75,1.17-11.19,2.49a13.67,13.67,0,0,1-3.18.55,14.86,14.86,0,0,1-6.79-1.68,14.39,14.39,0,0,1-5.14-3.64,22.31,22.31,0,0,1-1.58-2.67,32.32,32.32,0,0,0-1.74-2.73c-.63-.81-1.38-1.5-2.07-2.25a13.53,13.53,0,0,1-1-1.11,4.17,4.17,0,0,1-.68-1.26,25.28,25.28,0,0,1-.72-5.5,7.71,7.71,0,0,0,0-2c-.14-.55-.59-.76-.45-1.71.1-.64.42-1.22.58-1.85a10.49,10.49,0,0,1,.28-1.6,15.89,15.89,0,0,1,1.23-2,6.56,6.56,0,0,0,.47-.81,4.36,4.36,0,0,1,.61-1.07,5.37,5.37,0,0,1,.69-.55c.5-.45.8-1.08,1.26-1.57.3-.33.69-.57,1-.9s.4-.61.66-.85a20.06,20.06,0,0,1,3.11-2.11Zm18.3,37.83a3.21,3.21,0,0,0-1.79.06,13.48,13.48,0,0,0-2.76,1.33c-.68.45-1.1,1-.41,1.79,1.29,1.52,4.85,2.42,7.51,1.88,1.33-.27,2.82-1,4.07-1.22.66-.1,1.34.09,2,0a5.69,5.69,0,0,0,1.52-.56c.84-.38,2.75-1.4,3.08-2.38a1.25,1.25,0,0,0-.07-.81.75.75,0,0,0-.44-.36,18.93,18.93,0,0,0-5-.83,6.48,6.48,0,0,0-1.7.14c-.25.06-1.35.9-1.93,1.11-1.76.61-2.45.2-4.13-.13Zm-27.49-4.72a9.44,9.44,0,0,0,2.92,2.54c.52.25,1.06.46,1.61.66,1,.37,2,.75,3,1s2.29.42,3.39.78c.55.19.95.85,1.53.84a10.53,10.53,0,0,1,4,.72c3,1.2,5.21,2.64,8,3.94a10.24,10.24,0,0,0,2.22.77,7.38,7.38,0,0,0,2,.17,13.6,13.6,0,0,0,2.09-.43c.86-.18,1.73-.33,2.58-.55a8.17,8.17,0,0,1,1-.38,6.69,6.69,0,0,1,1.17.15,6.59,6.59,0,0,0,1.6,0,4.35,4.35,0,0,0,1.37-.62c.55-.36,1-.85,1.51-1.26.74-.59,1.49-1.16,2.24-1.75s1.26-.93,1.85-1.45a25.36,25.36,0,0,0,1.88-2c.24-.26.16,0,.12.06a27.08,27.08,0,0,1-1.57,2.69c-.24.31-.59.52-.86.81-2.22,2.37-5.16,5.6-8.35,6.65-.14,0-1.32.15-2,.34-.81.24-1.55.65-2.34.94a28.62,28.62,0,0,1-4,1.36c-.9.17-3.54-.39-4.69-.43s-3.06.16-3.24.09c-1.18-.49-3-1.33-4.56-1.92-.48-.18-1.45-.43-1.54-.48-.76-.44-1.39-.9-2.17-1.31-1-.53-2.09-.79-3-1.41a14.79,14.79,0,0,1-2.35-2.13,34.58,34.58,0,0,1-3.7-4.05,16.42,16.42,0,0,1-1.57-3.37c-.13-.31-.31-1-.21-1ZM220,139.54a13,13,0,0,0-1.31,3.93,10.64,10.64,0,0,0,0,1.49c0,.56-.19,1.12-.17,1.68a20.79,20.79,0,0,0,.34,3.14,16.59,16.59,0,0,0,.88,3.32c.11.26.51.26.71.46a7.79,7.79,0,0,1,1.08,1.28,18.75,18.75,0,0,0,.92,1.72,3.39,3.39,0,0,0,1.19.77c.32.15.71.41,1,.26a1.21,1.21,0,0,0,.53-1,5.79,5.79,0,0,0-.47-1.59,9.65,9.65,0,0,0-.57-2.14,13.65,13.65,0,0,0-1.62-1.79,4.61,4.61,0,0,1-.77-1c-.4-.83-.62-1.74-1-2.6a8.5,8.5,0,0,1-.72-1.68,14,14,0,0,1,.19-2.49c0-1.18-.88-2.24-.32-3.73Z" transform="translate(-197.48 -119.06)"/><path class="cls-6" d="M233.08,122.35a5.86,5.86,0,0,0-1.08.91.93.93,0,0,0-.28.45.47.47,0,0,0,.07.32c.09.14.26.21.33.35s.09.22,0,.3a9.77,9.77,0,0,1-.92.9,15.57,15.57,0,0,0-1.42,1.51c-.37.5-1.08,2.33-.81,3a1.9,1.9,0,0,0,.64.79c.57.37,1.93.57,2.73,1.06a7,7,0,0,1,1.38,1.17c.34.37.49.88.86,1.22a7.34,7.34,0,0,0,3.07,1.94,11.91,11.91,0,0,1,2.4.51,8.6,8.6,0,0,1,1.77,1.36c2.26,1.88,3.16,3.48,6.46,3,1.48-.22,2.9-1.38,4.2-2.07,1.88-1,2.09-.48,3.83-.66a2.89,2.89,0,0,0,1.28-.32c1.24-.81,1.6-2,2.43-3a6.81,6.81,0,0,1,1.18-1,15.29,15.29,0,0,0,1.79-1.17c.9-.91-.36-3.24-.68-4.12a1.62,1.62,0,0,1-.07-.62.92.92,0,0,1,.14-.52c.21-.28.74-.38.85-.49a.29.29,0,0,0,.06-.29,1.58,1.58,0,0,0-.38-.6,22.7,22.7,0,0,0-2.15-1.77c-1.15-.82-2.32-1.59-3.54-2.3a13.5,13.5,0,0,0-2.43-1.15c-1-.33-2-.48-3-.72s-2-.63-3.07-.79a10.69,10.69,0,0,0-1.6,0,14,14,0,0,1-1.58-.11c-.67-.08-1.62-.37-2-.34s-2.07.53-3.11.75c-.79.17-1.61.2-2.39.42a26.22,26.22,0,0,0-2.66,1,20.68,20.68,0,0,0-2.35,1.07Zm33.36,7.73a7.92,7.92,0,0,0-1-1c-.12-.11-1.09-.68-.9-.06.26.92.8,1.88,1.1,2.92.23.79.19,1.37-.56,1.79s-1.47.45-1.83,1.43-.64,2.15-1,3.2a8.1,8.1,0,0,1-1.7,2.58,1.23,1.23,0,0,0-.32.55c-.08.61.9,1.74,1.45,1.92a5.8,5.8,0,0,0,3.39-.28c1-.32,1.36-1,2.06-1.41s2.46,0,2.92-.66a3.11,3.11,0,0,0,.39-1.42,25.14,25.14,0,0,0-.13-3,14.42,14.42,0,0,0-.7-1.32c-.21-.46-.46-1.34-.52-1.43-.19-.33-.46-.61-.66-.94s-.13-.43-.25-.62c-.54-.78-1.11-1.54-1.72-2.27ZM230.53,124c-.92,1-1.77,3-2.19,3.24-1,.67-1.63.89-2.13,2.2a2.73,2.73,0,0,0-.22,1,.48.48,0,0,0,.22.35c.82.62,1,.64.81,1.37a3.84,3.84,0,0,0-.14,1,.57.57,0,0,0,.12.39.78.78,0,0,0,.48.19c.52.05,1,0,1.56,0s.74.43,1,.89.31.7.51,1,.42.38.56.62c.39.7.62,1.49,1,2.19a1.3,1.3,0,0,0,.55.54c.31.14.68.08,1,.19a2.27,2.27,0,0,1,.89.45c.41.38.63.94,1,1.34a11.73,11.73,0,0,0,1.79,1.51,3,3,0,0,0,1,.32c.49.11,1,.1,1.49.24a2.76,2.76,0,0,1,1,.42,10.28,10.28,0,0,1,1.49,1.39,25.69,25.69,0,0,0,2,2.43,5.55,5.55,0,0,0,2,1,12.06,12.06,0,0,0,2.8.47,4.75,4.75,0,0,0,1.83-.26c1.21-.43,2.29-1.2,3.49-1.64a9,9,0,0,1,2.24-.45,12,12,0,0,1,2.54.05,9.57,9.57,0,0,1,2,.53c1.26.43,2.47,1,3.73,1.43a7.86,7.86,0,0,0,2.18.51,1.74,1.74,0,0,0,1.11-.43,5.09,5.09,0,0,0,1.5-2.51,4.32,4.32,0,0,1,.34-.68,1,1,0,0,1,.29-.36c.13-.08.36,0,.55-.05.37-.17.45-.63.42-1.14a20.65,20.65,0,0,1,.24,3.66c.06.74.33,1.76.39,2.18,0,.17-.62,1.22-.81,1.87-.27.91-.25,1.89-.56,2.77A12.52,12.52,0,0,1,269.6,156c-.29.52-.51,1.07-.84,1.57-1.38,2.16-3,2.42-5.32,2a39.2,39.2,0,0,0-8.27-.68c-5.46.07-6.75,1.17-11.19,2.49a13.67,13.67,0,0,1-3.18.55,14.86,14.86,0,0,1-6.79-1.68,14.39,14.39,0,0,1-5.14-3.64,22.31,22.31,0,0,1-1.58-2.67,32.32,32.32,0,0,0-1.74-2.73c-.63-.81-1.38-1.5-2.07-2.25a13.53,13.53,0,0,1-1-1.11,4.17,4.17,0,0,1-.68-1.26,25.28,25.28,0,0,1-.72-5.5,7.71,7.71,0,0,0,0-2c-.14-.55-.59-.76-.45-1.71.1-.64.42-1.22.58-1.85a10.49,10.49,0,0,1,.28-1.6,15.89,15.89,0,0,1,1.23-2,6.56,6.56,0,0,0,.47-.81,4.36,4.36,0,0,1,.61-1.07,5.37,5.37,0,0,1,.69-.55c.5-.45.8-1.08,1.26-1.57.3-.33.69-.57,1-.9s.4-.61.66-.85a20.06,20.06,0,0,1,3.11-2.11Zm18.3,37.83a3.21,3.21,0,0,0-1.79.06,13.48,13.48,0,0,0-2.76,1.33c-.68.45-1.1,1-.41,1.79,1.29,1.52,4.85,2.42,7.51,1.88,1.33-.27,2.82-1,4.07-1.22.66-.1,1.34.09,2,0a5.69,5.69,0,0,0,1.52-.56c.84-.38,2.75-1.4,3.08-2.38a1.25,1.25,0,0,0-.07-.81.75.75,0,0,0-.44-.36,18.93,18.93,0,0,0-5-.83,6.48,6.48,0,0,0-1.7.14c-.25.06-1.35.9-1.93,1.11-1.76.61-2.45.2-4.13-.13Zm-27.49-4.72a9.44,9.44,0,0,0,2.92,2.54c.52.25,1.06.46,1.61.66,1,.37,2,.75,3,1s2.29.42,3.39.78c.55.19.95.85,1.53.84a10.53,10.53,0,0,1,4,.72c3,1.2,5.21,2.64,8,3.94a10.24,10.24,0,0,0,2.22.77,7.38,7.38,0,0,0,2,.17,13.6,13.6,0,0,0,2.09-.43c.86-.18,1.73-.33,2.58-.55a8.17,8.17,0,0,1,1-.38,6.69,6.69,0,0,1,1.17.15,6.59,6.59,0,0,0,1.6,0,4.35,4.35,0,0,0,1.37-.62c.55-.36,1-.85,1.51-1.26.74-.59,1.49-1.16,2.24-1.75s1.26-.93,1.85-1.45a25.36,25.36,0,0,0,1.88-2c.24-.26.16,0,.12.06a27.08,27.08,0,0,1-1.57,2.69c-.24.31-.59.52-.86.81-2.22,2.37-5.16,5.6-8.35,6.65-.14,0-1.32.15-2,.34-.81.24-1.55.65-2.34.94a28.62,28.62,0,0,1-4,1.36c-.9.17-3.54-.39-4.69-.43s-3.06.16-3.24.09c-1.18-.49-3-1.33-4.56-1.92-.48-.18-1.45-.43-1.54-.48-.76-.44-1.39-.9-2.17-1.31-1-.53-2.09-.79-3-1.41a14.79,14.79,0,0,1-2.35-2.13,34.58,34.58,0,0,1-3.7-4.05,16.42,16.42,0,0,1-1.57-3.37c-.13-.31-.31-1-.21-1ZM220,139.54a13,13,0,0,0-1.31,3.93,10.64,10.64,0,0,0,0,1.49c0,.56-.19,1.12-.17,1.68a20.79,20.79,0,0,0,.34,3.14,16.59,16.59,0,0,0,.88,3.32c.11.26.51.26.71.46a7.79,7.79,0,0,1,1.08,1.28,18.75,18.75,0,0,0,.92,1.72,3.39,3.39,0,0,0,1.19.77c.32.15.71.41,1,.26a1.21,1.21,0,0,0,.53-1,5.79,5.79,0,0,0-.47-1.59,9.65,9.65,0,0,0-.57-2.14,13.65,13.65,0,0,0-1.62-1.79,4.61,4.61,0,0,1-.77-1c-.4-.83-.62-1.74-1-2.6a8.5,8.5,0,0,1-.72-1.68,14,14,0,0,1,.19-2.49c0-1.18-.88-2.24-.32-3.73Z" transform="translate(-197.48 -119.06)"/><path class="cls-7" d="M251.19,121.07c1.34,1,2.78,3.2,4.14,3.88.48.25,3.59,0,3.41.9-.11.53-1.14.6-1.75.81-.83.28-.62.86-.17,1.15a41.24,41.24,0,0,1,3.62,2.3,11.29,11.29,0,0,1,2.09,2.22,2.79,2.79,0,0,1,.34.64l.15-.13c.9-.91-.36-3.24-.68-4.12a1.62,1.62,0,0,1-.07-.62.92.92,0,0,1,.14-.52c.21-.28.74-.38.85-.49a.29.29,0,0,0,.06-.29,1.58,1.58,0,0,0-.38-.6,22.7,22.7,0,0,0-2.15-1.77c-1.15-.82-2.32-1.59-3.54-2.3a13.5,13.5,0,0,0-2.43-1.15c-1-.33-2-.48-3-.72s-2-.63-3.07-.79a10.69,10.69,0,0,0-1.6,0,14,14,0,0,1-1.58-.11c-.67-.08-1.62-.37-2-.34s-2.07.53-3.11.75c-.79.17-1.61.2-2.39.42a26.22,26.22,0,0,0-2.66,1,21.3,21.3,0,0,0-2.33,1.06,27.65,27.65,0,0,1,3.54-1.14c2.87-1.06,2-.52,4.49-.83.56-.07,1-.5,1.6-.55a3.31,3.31,0,0,1,1.34.3c1.68.55,1.2.76,3.29.66a17.19,17.19,0,0,1,2.26-.26,3.16,3.16,0,0,1,1.57.55ZM265.67,132c.23.79.19,1.37-.56,1.79a6.7,6.7,0,0,0-1.42.77c.75.91,2,1.83,2.42,2.55a2.19,2.19,0,0,1,.3,1.41c-.2,1.23-.79,2.37-1.11,3.58a10.08,10.08,0,0,0-.24,1.09c1-.33,1.35-1,2.05-1.41s2.46,0,2.92-.66a3.11,3.11,0,0,0,.39-1.42,25.14,25.14,0,0,0-.13-3,14.42,14.42,0,0,0-.7-1.32c-.21-.46-.46-1.34-.52-1.43-.19-.33-.46-.61-.66-.94s-.13-.43-.25-.62c-.54-.78-1.11-1.54-1.72-2.27a7.92,7.92,0,0,0-1-1c-.12-.11-1.09-.68-.9-.06.26.92.8,1.88,1.1,2.92Zm2.63,16.39a1.74,1.74,0,0,1-1.11.43,6.3,6.3,0,0,1-1.65-.34,5.81,5.81,0,0,1-1.18,4.27,16.44,16.44,0,0,1-2.34,2c-.66.59-1.32,1.18-1.92,1.83a16,16,0,0,0-1.68,2.31,48,48,0,0,1,5,.63c2.36.39,3.94.13,5.32-2,.33-.5.55-1.05.84-1.57a12.52,12.52,0,0,0,1.06-1.84c.31-.88.29-1.86.56-2.77.19-.65.83-1.7.81-1.87-.06-.42-.33-1.44-.39-2.18a20.65,20.65,0,0,0-.24-3.66c0,.51,0,1-.42,1.14-.19.09-.42,0-.55.05a1,1,0,0,0-.29.36,4.32,4.32,0,0,0-.34.68,5.09,5.09,0,0,1-1.5,2.51Zm-6.76,13.13a17.67,17.67,0,0,0-4.32-.79l-.06.08a8.26,8.26,0,0,1-3.54,2.81c-.9.35-1.89.41-2.81.68-1.44.44-3.46,1.45-5.2,1.89a10.3,10.3,0,0,0,5.77.68c1.33-.27,2.82-1,4.07-1.22.66-.1,1.34.09,2,0a5.69,5.69,0,0,0,1.52-.56c.84-.38,2.75-1.4,3.08-2.38a1.25,1.25,0,0,0-.07-.81.75.75,0,0,0-.44-.36Zm-6.84,6.05c-.85.22-1.72.37-2.58.55a13.6,13.6,0,0,1-2.09.43,7.38,7.38,0,0,1-2-.17,10.24,10.24,0,0,1-2.22-.77c-.94-.44-1.82-.9-2.68-1.36-1.93-.46-3.41-1.3-5.71-1.52a17.65,17.65,0,0,1-2.3,0,13.48,13.48,0,0,1-3.54-1.32,15,15,0,0,1-3.49-2.34c-.73-.24-1.46-.51-2.18-.78-.55-.2-1.09-.41-1.61-.66a9.44,9.44,0,0,1-2.92-2.54c-.1,0,.08.66.21,1a16.42,16.42,0,0,0,1.57,3.37,34.58,34.58,0,0,0,3.7,4.05,14.79,14.79,0,0,0,2.35,2.13c.93.62,2,.88,3,1.41.78.41,1.41.87,2.17,1.31.09.05,1.06.3,1.54.48,1.54.59,3.38,1.43,4.56,1.92.18.07,2.16-.13,3.24-.09s3.79.6,4.69.43a28.62,28.62,0,0,0,4-1.36c.79-.29,1.53-.7,2.34-.94.64-.19,1.82-.3,2-.34,3.19-1,6.13-4.28,8.35-6.65.27-.29.62-.5.86-.81a27.08,27.08,0,0,0,1.57-2.69c0-.06.12-.32-.12-.06a25.36,25.36,0,0,1-1.88,2c-.59.52-1.24,1-1.85,1.45s-1.5,1.16-2.24,1.75c-.51.41-1,.9-1.51,1.26a4.35,4.35,0,0,1-1.37.62,6.59,6.59,0,0,1-1.6,0,6.69,6.69,0,0,0-1.17-.15,8.17,8.17,0,0,0-1,.38Zm-30.62-12.39c-.51-.67-1.37-1-1.79-1.79-1.72-3.06-2.07-4.52-2-6.93a2.24,2.24,0,0,1-.23-.69,14,14,0,0,1,.19-2.49c0-1.18-.88-2.24-.32-3.73a13,13,0,0,0-1.31,3.93,10.64,10.64,0,0,0,0,1.49c0,.56-.19,1.12-.17,1.68a20.79,20.79,0,0,0,.34,3.14,16.59,16.59,0,0,0,.88,3.32c.11.26.51.26.71.46a7.79,7.79,0,0,1,1.08,1.28,18.75,18.75,0,0,0,.92,1.72,3.39,3.39,0,0,0,1.19.77c.32.15.71.41,1,.26a1.11,1.11,0,0,0,.5-.77,17.3,17.3,0,0,0-1.08-1.65Z" transform="translate(-197.48 -119.06)"/><path class="cls-8" d="M222.89,137.73c.4-.93,2.37.58,2.67,1.05,1,1.48.53,3,.91,4.56a4.62,4.62,0,0,0,1.5,2.17.35.35,0,0,1-.05.45.62.62,0,0,1-.59,0,6.41,6.41,0,0,1-3.05-2.47c-.58-1.17-.16-2.48-.45-3.33-.13-.39-.53-.64-.81-.95a1.41,1.41,0,0,1-.13-1.52Zm16.28-13.93c-.23-.53-2.07-1.22-.92-2.41a4.82,4.82,0,0,1,1.3-.91,22.47,22.47,0,0,1,2.78-1.13c-.61.16-1.32.34-1.85.46l-.29,0a8,8,0,0,0-1.61.47c-2.22.92-4,1.86-4.37,2.59a.78.78,0,0,0-.05.14.41.41,0,0,0,.3.42,33.13,33.13,0,0,0,3.36.47c.37,0,.51.19.5.34a.55.55,0,0,1-.33.43c-1.34.75-5.44,3.06-4.73,5.2.35,1,3.41,0,5.54,1.7.75.59,1.11,1.57,1.84,2.18,1.91,1.62,3.88-.3,6.31.38.82.23,1.38,1,2.17,1.37a4.85,4.85,0,0,0,4.94-1.07c.57-.56.24-1.61.64-2.3a3.41,3.41,0,0,1,1.09-1.08c1.32-.89,3.09-1.33,3-2.63-.06-1-1.52-2.33-1.53-3.07a11.73,11.73,0,0,1,.35-1.8,1.73,1.73,0,0,0-.69-1.52,3.06,3.06,0,0,0-.78-.55,12.67,12.67,0,0,0-1.32-.55,26.26,26.26,0,0,0-2.65-.65l.51.17c.91.3,3.08,1.12,3.47,2.35a1.31,1.31,0,0,1-.08,1c-.25.51-2.31,1.78-1.32,2.38,3.57,2.2,1.45,2-.09,3.92l-.19.27c-1.13,1.72-.11,3.15-4.11,2.76-1-.09-2.91-.68-3.58-.64-1.38.07-2.72.6-4.1.6a2.88,2.88,0,0,1-1.57-.6c-.83-.56-.82-1.5-2.43-2-4.86-1.5-.9-3.94.21-5.59a1.92,1.92,0,0,0,.27-.46.82.82,0,0,0,0-.69Zm5.34,11.69c-2.13.53.75,1.78,1.47,2.33,1,.76,1.88,1.3,2.26.84s-.47-2.13-.76-2.52c-.58-.78-2-.89-3-.65Zm20.71-.12a2.4,2.4,0,0,0-.85.49,2.85,2.85,0,0,0-.23.26,2,2,0,0,0-.31.66c-.18.75,0,1.58-.25,2.32a3.07,3.07,0,0,1-.92,1.26,5.1,5.1,0,0,1-1.43.81c-.89.36.4.27,1.45.06.89-.18,2.72-.86,2.71-2,0-.71-.39-1.38-.43-2.09a1.81,1.81,0,0,1,0-.4,1.35,1.35,0,0,1,.22-.45,1.87,1.87,0,0,1,.81-.54,15.61,15.61,0,0,0,1.53-.4,1,1,0,0,0,.43-.58,2.25,2.25,0,0,0,.08-.24,3.41,3.41,0,0,0,.11-.78,4.2,4.2,0,0,0-.05-.79,3.43,3.43,0,0,0-.65-1.56c-.34-.45-.68-.89-1-1.32l-.09-.1a18.81,18.81,0,0,1,.94,2.39,4.36,4.36,0,0,1,.14,1,5.46,5.46,0,0,1,0,.7.9.9,0,0,1-.32.74,10.47,10.47,0,0,1-1.87.6Zm-35.1,2.88c-.25-.57-3.56-2.34-4.43-3.37-.38-.45-.11-1.19-.3-1.75a3.61,3.61,0,0,0-.51-.86,1.59,1.59,0,0,1-.34-.76,2.12,2.12,0,0,1,0-.49,8.45,8.45,0,0,1,1.39-3.39l-.19.2c-.46.49-.76,1.12-1.26,1.57h0a3,3,0,0,0-.8,1.13,2.31,2.31,0,0,0-.15.5,10.13,10.13,0,0,0,.08,1.22,1.09,1.09,0,0,1,0,.18c-.1.79-.55,1.62-.26,2.35a8.28,8.28,0,0,0,2.41,2.55,6.2,6.2,0,0,1,1.12,1.12,6.08,6.08,0,0,1,.76,2.1v0c.29,1.15-.08,2.56.64,3.49,1,1.32,2.73,1.92,4.18,2.73a40.09,40.09,0,0,1,5.75,3.63l1.15.84a12,12,0,0,0,2.39,1.46,17.43,17.43,0,0,0,7.85,1,6.46,6.46,0,0,0,2.46-.67c.71-.41.89-.88-.32-.6s-5.61.5-8-1.4l0,0c-.84-.69-1.46-1.61-2.26-2.35a2.4,2.4,0,0,0-.94-.6c-3.1-.84-5.42-.09-7.5-2.89-2.63-3.57-1.69-4.37-2.9-7Zm18.82,18.37c-5-.14-5.37-.84-9.63-2-.41-.11-.87.1-1.28,0-1.21-.29-1.85-1.45-2.81-2.38a4.78,4.78,0,0,0-1-.71,4.09,4.09,0,0,0-1.83-.63c-.22,0-.55,0-.61.24s.26.39.42.46c3.1,1.32,3.65,4.88,6.54,4.9.62,0,1.23-.28,1.85-.28,3.1,0,4.86,1.15,7.5,1.47.58.07,1.13-.32,1.71-.36,1-.07,2.09.17,3.13,0s2.26-.59,3.41-.83c1.87-.38,3.17.26,5,0,.41-.06.74-.41,1.15-.45,1.44-.12,2.23.41,4.05-.08a2.29,2.29,0,0,0,.62-.32,1.67,1.67,0,0,1,.83-.36c.29,0,.59,0,.9-.07h.13a2,2,0,0,0,1.7-1.57c.1-.42.15-.86.22-1.29a2.3,2.3,0,0,1-1.55,1.49,5.57,5.57,0,0,1-.66.23c-.64.2-1.35.11-2,.3l-.65.21c-1.82.64-2.25,1.22-4.89,1.24-1.76,0-3.46-.74-5.07-.81a7.55,7.55,0,0,0-2.26.34c-2,.56-2.48,1.3-5,1.24Z" transform="translate(-197.48 -119.06)"/><path class="cls-9" d="M230.55,135.53c-.2-.32-.32-.69-.51-1s-.41-.83-1-.89-1,.06-1.56,0a.78.78,0,0,1-.48-.19.57.57,0,0,1-.12-.39,3.84,3.84,0,0,1,.14-1c.17-.73,0-.75-.81-1.37a.51.51,0,0,1-.21-.27s0,0,0,0-.41.28-.67.64a8.75,8.75,0,0,0-.75,1.22c-.48,1-.55,2.14-1,3.16s-1.16,1.84-1.53,2.85a11,11,0,0,0-.73,3.2,10.84,10.84,0,0,0,.34,2.94,27,27,0,0,0,1,3.15c.09.27.17.55.26.82s.37.37.55.57c.69.75,1.44,1.44,2.07,2.25a32.32,32.32,0,0,1,1.74,2.73l0,.06a8.71,8.71,0,0,0,1.56.69,22.1,22.1,0,0,0,4.82,1.07,12.62,12.62,0,0,0,3.62-.26c1.42-.29,2.74-.94,4.13-1.32a14.44,14.44,0,0,0,2.65-.51,13.84,13.84,0,0,0,3.19-2.3c.46-.42.63-1.07,1-1.54a10.39,10.39,0,0,1,1.21-1.18h-.4a12.06,12.06,0,0,1-2.8-.47,5.55,5.55,0,0,1-2-1,25.69,25.69,0,0,1-2-2.43,10.28,10.28,0,0,0-1.49-1.39,2.76,2.76,0,0,0-1-.42c-.49-.14-1-.13-1.49-.24a3,3,0,0,1-1-.32,11.73,11.73,0,0,1-1.79-1.51c-.39-.4-.61-1-1-1.34a2.27,2.27,0,0,0-.89-.45c-.33-.11-.7,0-1-.19a1.3,1.3,0,0,1-.55-.54c-.4-.7-.63-1.49-1-2.19-.14-.24-.41-.39-.56-.62Zm3.2-2.46c.34.37.49.88.86,1.22a7.34,7.34,0,0,0,3.07,1.94,11.91,11.91,0,0,1,2.4.51,8.6,8.6,0,0,1,1.77,1.36c2.26,1.88,3.16,3.48,6.46,3,1.48-.22,2.9-1.38,4.2-2.07a8.22,8.22,0,0,1,.76-.36,3.42,3.42,0,0,0,2-2.12c.13-.38.26-.77.37-1.17a6.6,6.6,0,0,0,.42-2.21,10.34,10.34,0,0,0-1-3.11,8.25,8.25,0,0,0-.94-1.28,31.59,31.59,0,0,0-2-3.24,9.31,9.31,0,0,0-2.47-2.09,17,17,0,0,0-2.82-.94c-.4-.14-.76-.36-1.17-.49a10.81,10.81,0,0,0-2-.49,10.06,10.06,0,0,0-2,.09,20.56,20.56,0,0,0-2.34.32,24.51,24.51,0,0,0-3.07.74,13.41,13.41,0,0,0-1.45.77,11.21,11.21,0,0,0-1.6.66c-.49.33-.77.92-1.26,1.28a1.74,1.74,0,0,1-.33.18,2.9,2.9,0,0,0-.95.64,8.46,8.46,0,0,0-.8.89c-.37.5-1.08,2.33-.81,3a1.9,1.9,0,0,0,.64.79c.57.37,1.93.57,2.73,1.06a7,7,0,0,1,1.38,1.17Z" transform="translate(-197.48 -119.06)"/><g class="cls-10"><path class="cls-11" d="M233.44,160.53a27.58,27.58,0,0,1-2.77-1.25,8.73,8.73,0,0,1-2-1.45,7.17,7.17,0,0,1-1-1.71c-.57-1.12-1.1-2-1.62-3-.22-.4-.18-.93-.45-1.3a2.43,2.43,0,0,0-.94-.66.63.63,0,0,0-.51-.09.37.37,0,0,0-.12.41c.14.39.52.65.66,1s.08,1,.21,1.49a4.73,4.73,0,0,0,.45,1,7.13,7.13,0,0,1,.47,1.06c.08.28,0,.58.12.86.24.65.79,1.17,1,1.83.29.91-.86.47-1.21.28-.65-.35-1.2-.85-1.83-1.22-.18-.11-.39-.26-.6-.21s0,.24,0,.34a2.16,2.16,0,0,0,.64.94,12.35,12.35,0,0,0,1.81.59c.3.13.5.43.81.51,1.13.32,2.07.05,3.65.62.29.11.57.26.87.37a4.86,4.86,0,0,1,.87.25c.47.27.8.78,1.3,1s3,.27,3.2-.18S234.25,160.89,233.44,160.53Zm-9.64-9.67c.15-.05.33-.17.34-.32a1.08,1.08,0,0,0-.25-.75c-.27-.29-.73-.36-1-.66s-.53-1.19-1.17-1.81c-.05,0-.18-.06-.21,0a.69.69,0,0,0,0,.47,9.7,9.7,0,0,0,.83,2c.13.2.45.19.62.36s.2.53.4.71A.47.47,0,0,0,223.8,150.86ZM246,161c-.9.29-1.76.73-2.66,1a10,10,0,0,1-1.88.39,6.12,6.12,0,0,1-1.28-.05c-.64-.06-1.27-.21-1.92-.27a2.06,2.06,0,0,0-.82,0c-.29.09-.16.22-.08.25.32.14.69.26,1,.43a17,17,0,0,0,1.84,1c.21.08.53-.09.72,0,.69.37,1.18,1,1.83,1.47a3.51,3.51,0,0,0,1.15.51s.17,0,0-.11a3.38,3.38,0,0,1-.95-1.17,1.24,1.24,0,0,1-.07-.83,1.23,1.23,0,0,1,.41-.64,13.63,13.63,0,0,1,1.7-1c.47-.26,1-.47,1.43-.77.06,0,.11-.18,0-.21A.74.74,0,0,0,246,161Zm8.23-1.25a3.93,3.93,0,0,0-1.33-.19c-.3,0-.6.09-.91.08s-.43-.14-.66-.15a11.64,11.64,0,0,0-3.46.86c-.15.06-.35.18-.34.33s.25.1.37.08a4.75,4.75,0,0,1,1.36-.17c.22,0,.44,0,.67,0s.38-.12.58-.07.54.36.83.5a2.33,2.33,0,0,0,.82.3C252.86,161.32,256,160.45,254.22,159.72Zm-22.05-23.13c-.06-.05-.19,0-.2.09a2.16,2.16,0,0,0,.13.83,2.52,2.52,0,0,0,.45.78,1.52,1.52,0,0,0,1.25.33c.23-.05.22-.53.08-.68s-.62-.3-.88-.51S232.5,136.87,232.17,136.59Zm-4.06-5.77c.17.08.19.35.17.53,0,.34-.3.64-.32,1a.51.51,0,0,0,.24.47c.5.27,1.12.28,1.64.53.26.13.4.44.66.6,1.12.69,1.78.59,2.85,1.9a7,7,0,0,0,1,1.32,3.66,3.66,0,0,0,1.52.55,9.67,9.67,0,0,1,2.17.51c.32.17.58.63.9.8a13.42,13.42,0,0,0,2.3.91,8.35,8.35,0,0,1,1.92.72c1.62,1.07,1.5,2.32,4.71,2.73,1.82.23,2.41-1,3.41-1.88a16.35,16.35,0,0,1,1.75-1.32c.33-.21.74-.27,1.06-.49.15-.1.4-.28.32-.44s-.4-.18-.59-.13a9.63,9.63,0,0,0-1.94.79c-.75.37-1.43.89-2.18,1.25a4.76,4.76,0,0,1-5.33-.29c-1.29-1-2.4-2.21-3.66-3.24a4.92,4.92,0,0,0-1.32-.86,8.44,8.44,0,0,0-1.35-.17,8.29,8.29,0,0,1-2-.47,8.15,8.15,0,0,1-3.77-3.34,2.28,2.28,0,0,0-.66-.75,12.69,12.69,0,0,0-1.73-.62,3.67,3.67,0,0,1-1.21-.46,1.79,1.79,0,0,1-.5-1,2.9,2.9,0,0,1,.56-1.86c.19-.27.45-.5.65-.76,0-.06.14-.16.08-.2s-.18,0-.25.08c-.33.29-.59.65-.93.93-.81.66-1.64,1.11-1.85,1.83-.05.18-.08.45.08.54C227,130.71,227.62,130.57,228.11,130.82ZM265,143.73c-1,.11-2.05.34-3.09.43a1.76,1.76,0,0,1-1-.07c-.25-.13-.18-.57-.41-.74-.44-.35-1.13-.33-1.51-.75-.19-.21-.06-.59,0-.85a3.67,3.67,0,0,1,.73-1c.28-.31.67-.5.94-.81a6.53,6.53,0,0,0,.7-1.09,15.66,15.66,0,0,0,.71-1.49c0-.1.1-.23,0-.31s-.2,0-.26.05a8,8,0,0,0-.63.81,4.9,4.9,0,0,1-.54.65,5,5,0,0,1-1.14.76c-.64.3-1.42.28-2,.7s-.57,1.09-1,1.52c-.76.76-1.81,1.2-2.51,2a1.06,1.06,0,0,0-.19,1.13c.17.28.65.2,1,.15,1.15-.2,2.24-.74,3.41-.9a1.62,1.62,0,0,1,1,.32c.35.23.49.72.87.9a2.2,2.2,0,0,0,1.34.13c.51-.11.88-.56,1.37-.73.75-.26,1.55-.33,2.32-.55.1,0,.3-.09.26-.18S265.14,143.72,265,143.73Zm-15.5,4.09c1.24-.21,1.15-1.23,1.68-1.66.31-.26.91-.07,1.15-.39s.5-.76.35-1.13c-.58-1.38-4.16.52-4.68.7a4,4,0,0,1-1.54.18c-1.57-.13-1.67-1-2.71-1.72a3.94,3.94,0,0,0-1.29-.58c-.15,0-.41,0-.44.17s.2.3.33.41a8.29,8.29,0,0,1,2.1,2.36c1.25,1.66,1.6.78,2.58.94C247.77,147.22,248.61,148,249.51,147.82Z" transform="translate(-197.48 -119.06)"/></g><path class="cls-12" d="M280.77,138.19h0c2.86,3.52-2,8.09-8.51,11.46-13.47,7-34.7,11.16-49.82,9.94-6.27-.5-12.91-2.41-13.1-6.21h0a24.74,24.74,0,0,0-11.84,2.52h0c-.05,2.81,2.24,5,5.39,6.34,11.47,4.92,32.46,3.12,46.25.38s33.4-8.92,42-18c3.62-3.81,3.29-6.74,1.22-8.9h0a44.61,44.61,0,0,0-11.56,2.46Z" transform="translate(-197.48 -119.06)"/><path class="cls-13" d="M216.9,142.79a40.6,40.6,0,0,0-7.18,3.48c-11.92,7.77-3.62,13.41,6.64,15,15.23,2.34,40.31-2.53,49.81-5.72-20.39,7-38.55,9-50,7.78-9.3-1-14.8-4-15.58-8-.72-3.66,5.48-9.86,16.33-12.51Z" transform="translate(-197.48 -119.06)"/><path class="cls-14" d="M212.06,147c-1.93,1.32-4.3,3.62-4.26,6.22.1,6.64,14.72,7.53,19.44,7.63-4.11.34-16.47.3-20.55-4.9a3.7,3.7,0,0,1-.26-4.39,12.12,12.12,0,0,1,5.63-4.56Z" transform="translate(-197.48 -119.06)"/><path class="cls-15" d="M270.2,132.92c8.88.41,12.82,3.27,13.46,6.4,1,4.76-6,11.16-14.48,15.22,12.47-4.33,19.68-10.94,18.28-15.7-1-3.29-7-6.81-17.26-5.92Z" transform="translate(-197.48 -119.06)"/><path class="cls-16" d="M282.48,132.35c3,.39,8.89,1.81,10,5.57,3,10.41-25.77,19.82-35.74,21.58,8.91-2.49,35.34-10.51,33.71-21.24-.54-3.51-4.64-5-8-5.91Z" transform="translate(-197.48 -119.06)"/></g></g></svg>