<svg xmlns="http://www.w3.org/2000/svg" xmlns:xlink="http://www.w3.org/1999/xlink" viewBox="0 0 69.56 66.3"><defs><style>.cls-1{isolation:isolate;}.cls-10,.cls-11,.cls-12,.cls-13,.cls-14,.cls-15,.cls-16,.cls-17,.cls-18,.cls-19,.cls-2,.cls-20,.cls-21,.cls-22,.cls-23,.cls-24,.cls-25,.cls-26,.cls-27,.cls-28,.cls-29,.cls-3,.cls-30,.cls-31,.cls-32,.cls-33,.cls-4,.cls-5,.cls-6,.cls-7,.cls-8,.cls-9{fill-rule:evenodd;}.cls-2{fill:url(#radial-gradient);}.cls-18,.cls-19,.cls-3,.cls-4,.cls-7{mix-blend-mode:screen;}.cls-3{fill:url(#radial-gradient-2);}.cls-4{fill:url(#radial-gradient-3);}.cls-10,.cls-14,.cls-15,.cls-17,.cls-21,.cls-23,.cls-25,.cls-27,.cls-29,.cls-31,.cls-33,.cls-5{mix-blend-mode:multiply;}.cls-5{fill:url(#radial-gradient-4);}.cls-6{fill:url(#New_Gradient_Swatch_22);}.cls-7{fill:url(#radial-gradient-5);}.cls-8{fill:url(#radial-gradient-6);}.cls-9{fill:url(#radial-gradient-7);}.cls-10{opacity:0.5;fill:url(#radial-gradient-8);}.cls-11{fill:url(#radial-gradient-9);}.cls-12{fill:url(#New_Gradient_Swatch_3);}.cls-13{fill:url(#radial-gradient-10);}.cls-14{fill:url(#radial-gradient-11);}.cls-15{fill:url(#radial-gradient-12);}.cls-16{fill:url(#radial-gradient-13);}.cls-17{fill:url(#radial-gradient-14);}.cls-18{fill:url(#radial-gradient-15);}.cls-19{fill:url(#radial-gradient-16);}.cls-20{fill:url(#radial-gradient-17);}.cls-21{fill:url(#New_Gradient_Swatch_76);}.cls-22{fill:url(#radial-gradient-18);}.cls-23{fill:url(#New_Gradient_Swatch_76-2);}.cls-24{fill:url(#radial-gradient-19);}.cls-25{fill:url(#New_Gradient_Swatch_76-3);}.cls-26{fill:url(#radial-gradient-20);}.cls-27{fill:url(#New_Gradient_Swatch_76-4);}.cls-28{fill:url(#radial-gradient-21);}.cls-29{fill:url(#New_Gradient_Swatch_76-5);}.cls-30{fill:url(#radial-gradient-22);}.cls-31{fill:url(#New_Gradient_Swatch_76-6);}.cls-32{fill:url(#radial-gradient-23);}.cls-33{fill:url(#New_Gradient_Swatch_76-7);}</style><radialGradient id="radial-gradient" cx="147.01" cy="43.15" r="51.33" gradientUnits="userSpaceOnUse"><stop offset="0" stop-color="#009ced"/><stop offset="0.92" stop-color="#4e3bf5"/></radialGradient><radialGradient id="radial-gradient-2" cx="157.54" cy="60.05" r="35.59" gradientUnits="userSpaceOnUse"><stop offset="0.04"/><stop offset="0.84"/><stop offset="0.85" stop-color="#0d1516"/><stop offset="0.9" stop-color="#3e6268"/><stop offset="0.93" stop-color="#659fa9"/><stop offset="0.96" stop-color="#81cbd7"/><stop offset="0.99" stop-color="#93e6f4"/><stop offset="1" stop-color="#99f0ff"/></radialGradient><radialGradient id="radial-gradient-3" cx="141.04" cy="34.62" r="51.96" gradientUnits="userSpaceOnUse"><stop offset="0" stop-color="#1fceff"/><stop offset="1"/></radialGradient><radialGradient id="radial-gradient-4" cx="147.26" cy="45.48" r="48.81" gradientUnits="userSpaceOnUse"><stop offset="0.56" stop-color="#f5f5ff"/><stop offset="0.64" stop-color="#f0eafa"/><stop offset="0.79" stop-color="#e1cced"/><stop offset="0.99" stop-color="#ca9dd9"/><stop offset="1" stop-color="#c899d7"/></radialGradient><radialGradient id="New_Gradient_Swatch_22" cx="146.68" cy="48.51" r="33.96" gradientUnits="userSpaceOnUse"><stop offset="0" stop-color="#91eb00"/><stop offset="1" stop-color="#05a100"/></radialGradient><radialGradient id="radial-gradient-5" cx="151.99" cy="41.51" r="36.01" gradientUnits="userSpaceOnUse"><stop offset="0" stop-color="#8fe561"/><stop offset="1"/></radialGradient><radialGradient id="radial-gradient-6" cx="150.24" cy="38.02" r="42.5" gradientUnits="userSpaceOnUse"><stop offset="0" stop-color="#94ffe1"/><stop offset="0.18" stop-color="#88f9dd"/><stop offset="0.51" stop-color="#67e9d1"/><stop offset="0.95" stop-color="#33cebd"/><stop offset="1" stop-color="#2dcbbb"/></radialGradient><radialGradient id="radial-gradient-7" cx="136.84" cy="52.69" r="28.62" gradientUnits="userSpaceOnUse"><stop offset="0" stop-color="#dede00"/><stop offset="0.15" stop-color="#d2d200"/><stop offset="0.42" stop-color="#b2b200"/><stop offset="0.47" stop-color="#abab00"/><stop offset="0.51" stop-color="#a5a500"/><stop offset="0.77" stop-color="#7d7d00"/><stop offset="0.91" stop-color="#6e6e00"/></radialGradient><radialGradient id="radial-gradient-8" cx="143.8" cy="58.63" r="12.91" gradientUnits="userSpaceOnUse"><stop offset="0" stop-color="#fff"/><stop offset="1" stop-color="#093"/></radialGradient><radialGradient id="radial-gradient-9" cx="167.17" cy="48.33" r="26.58" gradientUnits="userSpaceOnUse"><stop offset="0" stop-color="#f0ab54"/><stop offset="1" stop-color="#b87126"/></radialGradient><radialGradient id="New_Gradient_Swatch_3" cx="158.41" cy="57.81" r="27.81" gradientUnits="userSpaceOnUse"><stop offset="0" stop-color="#78e05b"/><stop offset="1" stop-color="#0d9c00"/></radialGradient><radialGradient id="radial-gradient-10" cx="137.37" cy="29.92" r="31.37" gradientUnits="userSpaceOnUse"><stop offset="0" stop-color="#fff"/><stop offset="0.17" stop-color="#f9fcff"/><stop offset="0.4" stop-color="#e9f4ff"/><stop offset="0.66" stop-color="#cde6ff"/><stop offset="0.94" stop-color="#a8d4ff"/><stop offset="1" stop-color="#9ecfff"/></radialGradient><radialGradient id="radial-gradient-11" cx="173.95" cy="40.95" r="16.18" gradientUnits="userSpaceOnUse"><stop offset="0" stop-color="#fff"/><stop offset="1" stop-color="#848431"/></radialGradient><radialGradient id="radial-gradient-12" cx="130.02" cy="58.08" r="27.45" xlink:href="#radial-gradient-8"/><radialGradient id="radial-gradient-13" cx="137.5" cy="70.63" r="17.36" xlink:href="#radial-gradient-9"/><radialGradient id="radial-gradient-14" cx="137.25" cy="70.91" r="16.8" xlink:href="#radial-gradient-11"/><radialGradient id="radial-gradient-15" cx="149.3" cy="38.98" r="20.79" gradientUnits="userSpaceOnUse"><stop offset="0" stop-color="#f2f6ff"/><stop offset="1"/></radialGradient><radialGradient id="radial-gradient-16" cx="136.75" cy="50.33" r="18.01" gradientUnits="userSpaceOnUse"><stop offset="0" stop-color="#c5c55c"/><stop offset="1" stop-color="#000a00"/></radialGradient><radialGradient id="radial-gradient-17" cx="146.11" cy="26.79" r="8.96" gradientTransform="matrix(0.96, -0.27, 0.27, 0.96, -1.28, 41.17)" gradientUnits="userSpaceOnUse"><stop offset="0" stop-color="#9ecfff"/><stop offset="0.17" stop-color="#bcdeff"/><stop offset="0.39" stop-color="#d9ecff"/><stop offset="0.6" stop-color="#eef7ff"/><stop offset="0.8" stop-color="#fbfdff"/><stop offset="1" stop-color="#fff"/></radialGradient><radialGradient id="New_Gradient_Swatch_76" cx="147.08" cy="32.33" r="12.75" gradientTransform="matrix(0.96, -0.27, 0.27, 0.96, -1.28, 41.17)" gradientUnits="userSpaceOnUse"><stop offset="0" stop-color="#aac2e6"/><stop offset="1" stop-color="#fff"/></radialGradient><radialGradient id="radial-gradient-18" cx="146.05" cy="68.12" r="31.94" gradientTransform="translate(36.51 -44.8) rotate(21.04)" xlink:href="#radial-gradient-17"/><radialGradient id="New_Gradient_Swatch_76-2" cx="148.22" cy="77.58" r="27.89" gradientTransform="translate(36.51 -44.8) rotate(21.04)" xlink:href="#New_Gradient_Swatch_76"/><radialGradient id="radial-gradient-19" cx="130.74" cy="63.72" r="16.26" gradientTransform="translate(-4.15 10.25) rotate(-4.66)" xlink:href="#radial-gradient-17"/><radialGradient id="New_Gradient_Swatch_76-3" cx="129.82" cy="66.41" r="18.16" gradientTransform="translate(-4.15 10.25) rotate(-4.66)" xlink:href="#New_Gradient_Swatch_76"/><radialGradient id="radial-gradient-20" cx="153.21" cy="45.67" r="22.62" gradientTransform="matrix(0.99, 0.15, -0.15, 0.99, 7.52, -23.13)" xlink:href="#radial-gradient-17"/><radialGradient id="New_Gradient_Swatch_76-4" cx="155.61" cy="49.16" r="23.25" gradientTransform="matrix(0.99, 0.15, -0.15, 0.99, 7.52, -23.13)" xlink:href="#New_Gradient_Swatch_76"/><radialGradient id="radial-gradient-21" cx="168.93" cy="54.59" r="24.84" gradientTransform="matrix(1, 0, 0, 1, 0, 0)" xlink:href="#radial-gradient-17"/><radialGradient id="New_Gradient_Swatch_76-5" cx="176.34" cy="58.5" r="34.25" gradientTransform="matrix(1, 0, 0, 1, 0, 0)" xlink:href="#New_Gradient_Swatch_76"/><radialGradient id="radial-gradient-22" cx="170.93" cy="54.39" r="9.6" gradientTransform="matrix(1, 0.06, -0.06, 1, 18.11, -12.08)" xlink:href="#radial-gradient-17"/><radialGradient id="New_Gradient_Swatch_76-6" cx="169.63" cy="57.17" r="9.87" gradientTransform="matrix(1, 0.06, -0.06, 1, 18.11, -12.08)" xlink:href="#New_Gradient_Swatch_76"/><radialGradient id="radial-gradient-23" cx="165.72" cy="79.16" r="32.33" gradientTransform="matrix(1, 0, 0, 1, 0, 0)" xlink:href="#radial-gradient-17"/><radialGradient id="New_Gradient_Swatch_76-7" cx="168.83" cy="81.44" r="22.46" gradientTransform="matrix(1, 0, 0, 1, 0, 0)" xlink:href="#New_Gradient_Swatch_76"/></defs><title>8</title><g class="cls-1"><g id="Layer_1" data-name="Layer 1"><path class="cls-2" d="M154.85,25.48a31.63,31.63,0,1,1-31.63,31.63,31.63,31.63,0,0,1,31.63-31.63Z" transform="translate(-121.47 -22.49)"/><path class="cls-3" d="M154.85,25.48a31.63,31.63,0,1,1-31.63,31.63,31.63,31.63,0,0,1,31.63-31.63Z" transform="translate(-121.47 -22.49)"/><path class="cls-4" d="M154.19,77.16c-.48.11-.85,0-1.11.27s-.33,1,.78,1c.53,0,.09.86.54,1a2.63,2.63,0,0,0,3-.67,1.66,1.66,0,0,1,1.12-.6c.55-.14-.58-.53,1.05-.86,1.79-.36.49-.58,1.7-1.61.35-.3-.86-1.13.74-1.6,1.27-.38,1.21-.28,1.39-1.53.1-.66-.17-.6-.82-.69-.9-.12-.9,1.29-2,1.59-.69.17-1.88.74-1.76,1.57.15,1-1,1.77-1,.08,0-1.29-.82-1.26-1.11-.6-.14.33-.21.79-.35,1.08-.29.64-.8.73-1.1,1a1.6,1.6,0,0,1-1.06.53Zm-6.84-48.8a2.21,2.21,0,0,0,.37-.08,7.17,7.17,0,0,1,.76-.21,24.57,24.57,0,0,1,2.84-.26c.22,0,.38.2.59.25a3.73,3.73,0,0,0,.88.06,8.69,8.69,0,0,1,1.13-.13,11.51,11.51,0,0,1,2.39.48c.68.21,1.27.64,1.94.9.44.16.93.16,1.36.34a4,4,0,0,1,1.3.8,6.12,6.12,0,0,1,.78,1.25s0,0,0,0c.33.28.63.58,1,.83s.77.42,1.12.7a5,5,0,0,1,.86.86,5.89,5.89,0,0,1,.78,1.24c.35.77.57,1.59.85,2.39a22.49,22.49,0,0,1,1.23,3.6,11.6,11.6,0,0,1,.06,3.81,32.42,32.42,0,0,1-2,7.66c-.31.7-1.43.66-2,1.23s-.61,1.47-1.08,2.11c-.22.3-.73.3-.93.61-.81,1.3-1.29,2.79-2.05,4.12a5.51,5.51,0,0,1-1.24,1.59c-.88.71-2,1.09-2.93,1.75-.48.34-.76,1-1.28,1.23-1.32.7-2.79,1.07-4.17,1.65a4,4,0,0,0-.43.28c-.75.38-1.5.74-2.26,1.08a5.91,5.91,0,0,1-1.73.67c-.46,0-.88-.3-1.33-.36a3.9,3.9,0,0,0-1.08.05,4.75,4.75,0,0,0-1.24.28c-.54.25-.94.78-1.51.95a1,1,0,0,1-.88-.23c-.28-.22-.28-.68-.56-.9s-.54-.07-.8-.13a5.4,5.4,0,0,1-1.8-.43c-.39-.25-.51-.77-.72-1.19-.14-.27-.07-.7-.33-.87s-.65.07-1,.05-.58.06-.67-.15.27-.7.16-1-.4-.28-.62-.26-.56.41-.87.39a1.55,1.55,0,0,1-.83-.49,6.53,6.53,0,0,1-1-1.09,1,1,0,0,1-.17-.54c0-.21.21-.41.14-.61s-.36-.18-.45-.36.09-.36,0-.52-.17,0-.25,0a4.57,4.57,0,0,1-1.26-.37.59.59,0,0,1-.23-.5c0-.24.35-.41.31-.64s-.3-.33-.49-.45a2.6,2.6,0,0,0-.49-.18s0,0,0,0a2.12,2.12,0,0,1,.11-.45c.09-.18.28-.29.37-.47a1.36,1.36,0,0,0,.17-.55c0-.1,0-.24-.13-.27-.3-.1-.63,0-.94-.09a.68.68,0,0,1-.39-.23,1,1,0,0,1-.23-.51c0-.74.23-1.46.24-2.19a3.07,3.07,0,0,0-.21-1,9.12,9.12,0,0,1-.51-1.1,2,2,0,0,1,.07-.95,9.7,9.7,0,0,1,.41-.93,4.64,4.64,0,0,0,.34-.9,4.78,4.78,0,0,0,0-1,13.73,13.73,0,0,1,0-1.57,4.57,4.57,0,0,1,.44-1.49,9.18,9.18,0,0,1,.92-1.16,2.61,2.61,0,0,0,.36-.53,6.26,6.26,0,0,0,.36-.9c.15-.42.22-.86.39-1.26a7.58,7.58,0,0,1,.87-1.73c.28-.35.76-.48,1.08-.79a5.92,5.92,0,0,0,.72-.93,8.52,8.52,0,0,1,.8-1.16c.24-.22.64-.2.87-.43s.25-.66.49-.9c.46-.47,1.1-.72,1.57-1.18a6,6,0,0,0,.72-1.08,7.29,7.29,0,0,1,.72-1.21,2,2,0,0,1,.87-.46c.53-.19,1.1-.23,1.62-.42a3.33,3.33,0,0,0,.62-.38c.54-.34,1.09-.66,1.62-1,.36-.25.65-.6,1-.82A5.73,5.73,0,0,1,144.2,29c.2-.06.41,0,.61-.07s.39-.23.6-.3a6.83,6.83,0,0,1,1.11-.23c.27,0,.56,0,.83,0Zm17.29,2.32a.79.79,0,0,0-.46.08c0,.43-.15.29.09.7.43.73-.5.76.13,1.61.18.23,1-.14,1,.34s.84-.16,1.19.91a2.79,2.79,0,0,1,.32.66c.26,1.11-.7.32-.46,1.2.09.31.54.13.57.66,0,0,.61.48.69.84.17.73.94.64.93-.34a3.12,3.12,0,0,0,0-1.18c-.18-.57-.22-1.6-.74-2-.16-.13-.73-.29-.73-.51,0-1.37-.8-.64-.88-1.67,0-.35-.83-.33-.87-.74a.76.76,0,0,0-.68-.51Zm-1.1,27.14c-1.34-.19-.49,1.26-1.38,1.93-.28.22-.41,1.11-.69,1.29s-.29,1.48,1.11.56c.86-.56,0-.67,2-.58a1,1,0,0,0,1-1.55c-.47-.84.86-.58.28-1.66-.43-.82.69-.44,1.19-2.07.37-1.23-.59-.12-.45-1.55,0-.41-.61-.22-.94.13-1.07,1.15-.76.37-.79,2.14,0,.42-.56.51-1,.86s-.14.52-.32.5Zm-5.9,8.09c-1.54-.31-1.68.82-2.09,1.14-.09.06,0,.54-.69.69a5.17,5.17,0,0,1-1.94.64c-.29,0-2.27,1.58-.12,1.52,1,0,2.21-1.13,3.77-1.08a2.59,2.59,0,0,0,2.1-1.16c.28-.74,1.52-.22,1.35-1.67-.06-.49.51-.36.49-1.15a6.73,6.73,0,0,0,0-1.17c-.16-.75-.77-.66-1,.3a1.49,1.49,0,0,1-.66,1c-.64.41-.74-.09-1,.83,0,.1-.1.09-.19.07Zm4-13.8c-.8.19-.19,1.42-.91,1.92-.28.2.41.75-.67,1.46-.47.31-.48,1.57-1.86,2.3a3.65,3.65,0,0,1-1.51.68c-.67.05-.47.47-1.29.57-.11,0-1.71,1-1.75.64-.1,0,0-.77.64-.9a6.33,6.33,0,0,1,.83-.45c1.57-.57,1.35-1.83,1.59-1.89.51-.12,1-1.32,1.47-1.41a1.16,1.16,0,0,0,.4-1.3c-.19-.41.55-1.29,1.09-1.3,1.27,0,0-1.11,1.4-1.39.38-.08.37-.55.61-.62,1.2-.36,1.06-3.85,1.83-3.36,0,0,1,2.57.31,2.87-1.3.59.4,1.34-.93,2.08-.42.23-.83,0-1.25.1Z" transform="translate(-121.47 -22.49)"/><path class="cls-5" d="M164.73,77.51c-1.66,0-1.41-.88-2.84.66-.45.48-.95,1-1.17,1.24a4.76,4.76,0,0,1-1,.77c-.37.21-.84.23-1.19.47s-.41.72-.77.87c-1,.45-2.21-.57-3.19-.67-2-.2-3.51,1.37-4.72,1.7-.35.09-.7-.37-1-.26s-.51.81-.93.93a1.25,1.25,0,0,1-1.08-.36c-.73-.7-.91-2.09-2.11-2.68-1.57-.78-5.81-1.87-6.83-2.72-.73-.61-.91-1.71-1.6-2.36-.33-.33-1-.13-1.33-.42-.56-.43.28-1.31-1.78-1.23s-3.39,1.64-2.75-3.34c.07-.49.35-1.7-.56-1.08-.64.43-1.41,1.73-2.57,1.39-.38-.11-.56-.64-.57-1a7.72,7.72,0,0,1,.46-2.16c.29-1.06.73-2.07,1-3.14s-.41-1.15-.92-.61a13.11,13.11,0,0,1-1.6,1.8c-.73.52-1.13-1-1-1.6a5.53,5.53,0,0,1,.88-1.85c.17-.27.21-.5-.16-.37s-.79.32-1.18.42c-.16,0-.36,0-.26-.31a10,10,0,0,0,1-3.08c0-.43-.59-.67-.72-1.08s.16-.62.1-.92-.36-.35-.36-.57a12.47,12.47,0,0,1,.36-1.8,5.56,5.56,0,0,0,.13-1.28c0-.64-.58-.46-.69-1.31a32,32,0,0,0-.49,5.58A31.63,31.63,0,1,0,166.51,27.7l.3.16c1.58.87.94,1.23,1.16,1.52a2.38,2.38,0,0,0,.7.49c.64.39,1.34.68,2,1.13.21.15.29.43.44.64a7.38,7.38,0,0,0,.69,1.11c.21.23.64.23.77.51s.07.62.31.89,1.2.1,1.75,1.32c.16.38-.16,1.56.15,2.26a6.63,6.63,0,0,0,1.08,1.55c.55.63,1.37,1,1.8,1.74a4.38,4.38,0,0,1,.69,1.88,1.64,1.64,0,0,1-.2.87c-.16.31-.63.44-.67.78-.17,1.62,2.77,5.35,3.42,7.42a17.69,17.69,0,0,1,.82,5.4c0,.47-.56,1.42-.87,1.08-.72-.79-.13-3.15-1-4.39s-1.18,1.15-1.13,1.56c.25,2.37,1.63,2.8.46,5.2-.11.22-.76.74-1,.61s-.16-.69-.41-.92c-.1-.1-.32,0-.41.15a2.84,2.84,0,0,0-.72,1.34,22,22,0,0,0,.41,2.52,3.52,3.52,0,0,1-.25,1.09,7.52,7.52,0,0,1-.39,1c-.14.27-.39.49-.51.77s-.15.71-.26,1a3.4,3.4,0,0,1-.36.88c-.21.3-.62.45-.8.77s-.08.86-.31,1.21-.61.21-.77.46,0,.88-.28,1.21-.59-.09-.74.1-.07.86-.31,1.18a.74.74,0,0,1-.75.21c-.18,0-.16-.37-.31-.49-.84-.71-.84-.09-1.1.21a.59.59,0,0,1-.75.1c-.47-.23-.58-1.22-.74-1.62s-.73-.11-.93.33-.1.9-.26,1.31c0,.14-.29.15-.33.29-.3,1,.13,1.9-1.13,2.64a2,2,0,0,1-1,.26Z" transform="translate(-121.47 -22.49)"/><path class="cls-6" d="M123.32,51.41c-.33.9-1.06,2.46-1.08,2.67a17.79,17.79,0,0,1,.41,1.9c0,.49-.36,1.28-.3,1.44A31.77,31.77,0,0,1,123.43,63c.06.51-.22,1.37-.16,1.54s1.08,2.23,1.49,3.39c.18.51,0,1.13.26,1.59,1.15,1.92,1.36,3.74,2.06,5.61a21.79,21.79,0,0,0,1.8,1.33c1.69,1.45,1.86,2.19,3,3.4a18.1,18.1,0,0,0,2.59,2.36c.64.46,1.45.64,2.11,1.06.47.29.8.8,1.29,1.08a22.28,22.28,0,0,0,2.85,1.31c.4.16.84.23,1.25.35a2.09,2.09,0,0,1-.69-.48c-.07-.09,0-.24-.09-.34s-.26-.1-.32-.21.08-.24,0-.34-.22-.17-.34-.25-.27-.11-.32-.22.1-.19.09-.29a.51.51,0,0,0-.15-.33c-.19-.16-.48-.17-.65-.35a.35.35,0,0,1,0-.38c.08-.15.36-.14.43-.3s-.06-.29-.16-.4-.27-.12-.4-.19-.34-.1-.34-.24.23-.07.34,0,.48.26.75.28.3-.12.46-.17.34-.14.5-.1.33.26.52.35.17,0,.25,0a5.93,5.93,0,0,0,1,.13c.15,0,.35-.05.42-.19a.56.56,0,0,0-.05-.53.64.64,0,0,0-.49-.23c-.22,0-.39.2-.6.26a.81.81,0,0,1-.46,0c-.28-.09-.49-.34-.76-.43s-.46.09-.62,0c-.53-.43-.85-1.06-1.34-1.53a.51.51,0,0,0-.42-.16c-.31.06-.57.3-.87.38-.11,0-.22-.07-.32-.07s-.39.1-.57.05a.74.74,0,0,1-.46-.28c-.09-.12,0-.3-.08-.45s-.07-.31-.19-.37c-.36-.19-.81-.15-1.17-.34-.09,0,0-.21-.09-.29s-.44-.3-.62-.49c0,0-.06-.19,0-.17s.31.29.5.38.25,0,.36,0,.21.28.36.31.48-.07.72,0,.51.22.78.24c.1,0,.23-.07.23-.16,0-.32-.24-.62-.18-.94a.43.43,0,0,1,.44-.3c.22,0,.28.41.5.45s.6-.19.92-.2.48.22.71.14-.05-.33.07-.39.24.14.37.14.2-.17.32-.17.24.15.38.15a1.62,1.62,0,0,0,.61-.09.82.82,0,0,0,.41-.19.84.84,0,0,0,.21-.47.53.53,0,0,0-.1-.35c-.15-.19-.43-.27-.54-.48s.11-.21.09-.32-.26-.38-.3-.6.14-.19.13-.3-.2-.27-.21-.42.21,0,.2-.12c-.05-.25-.29-.43-.35-.68a.23.23,0,0,1,.1-.24.49.49,0,0,1,.45,0c.35.19.56.57.89.79a1.52,1.52,0,0,0,.68.25c.14,0,.35,0,.41-.14s-.15-.28-.13-.43.24-.15.26-.27-.26-.15-.19-.22.26.07.38,0,.4-.32.63-.37.18.12.27.15a1.39,1.39,0,0,0,.59.15c.17,0,.29-.18.45-.24s.37,0,.49-.09,0-.31.08-.45.14-.22.2-.17a.44.44,0,0,1,.09.4c0,.16-.14.3-.16.46s.1.09.1.15-.14.24-.09.36a.9.9,0,0,0,.49.47,1.12,1.12,0,0,0,.72,0,1.06,1.06,0,0,0,.59-.42c.09-.17-.17-.42-.05-.57s.34,0,.49,0,.36-.19.38-.36-.25-.38-.24-.59a.93.93,0,0,1,.27-.72c.31-.27.78-.27,1.13-.49.06,0,0-.17,0-.23s-.17-.07-.22-.14a2.55,2.55,0,0,1-.39-.7.26.26,0,0,1,.08-.28c.11-.07.28,0,.4,0s.08-.27.19-.33.41,0,.58-.09a2.27,2.27,0,0,0,.68-.63c.05-.06,0-.17,0-.25s-.17-.12-.18-.21a.47.47,0,0,1,.09-.42c.18-.16.5-.1.68-.26s0-.34.13-.46.29,0,.34-.08a1.63,1.63,0,0,0,.21-.94.42.42,0,0,0-.33-.32,2,2,0,0,0-.78.16c-.07,0-.11.1-.19.11s-.3.08-.36,0,.14-.21.18-.33,0-.19,0-.27c.13-.24.36-.42.47-.66s.2-.41.07-.52a1.28,1.28,0,0,0-.9-.19c-.2,0-.34.23-.53.28s-.59-.07-.82.08-.06.38-.17.54-.2,0-.27.11a.54.54,0,0,0-.13.3c0,.23.21.53.05.69s-.43,0-.6-.11-.1-.4-.26-.5a.82.82,0,0,0-.72-.14,1.88,1.88,0,0,0-.73.7c-.12.16,0,.52-.21.57s-.51-.41-.78-.32-.56.49-.74.81c-.08.13.12.34,0,.46s-.32,0-.46,0-.24.28-.41.31-.25-.18-.39-.17-.2.19-.32.23c-.27.11-.58.1-.85.22s-.17.24-.31.3-.27-.07-.39,0-.24.4-.43.38c-.44,0-.75-.58-1.19-.57s-.41.55-.71.61-.21-.35-.39-.39-.4.13-.6.18-.74-.06-.76-.32a2.32,2.32,0,0,1,1.62-1.79c.5-.16,1.06.12,1.58,0a1.36,1.36,0,0,0,.8-.48.61.61,0,0,0,0-.57c-.1-.23-.43-.35-.49-.6s.17-.3.25-.46,0-.48.22-.52.28.24.33.4-.1.16-.11.25-.12.34,0,.48.21.09.32.09.34-.08.51-.06.43.24.64.18a.62.62,0,0,0,.39-.49c0-.25-.18-.5-.18-.76a4.29,4.29,0,0,1,.18-1.38c.07-.23.37-.33.46-.54.2-.46.15-1,.39-1.44a5.67,5.67,0,0,1,1.18-1.49c.34-.31.83-.41,1.18-.7s.34-.62.62-.8c.53-.33,1.24-.33,1.75-.69a2.73,2.73,0,0,0,.79-1.1c.12-.25.27-.57.13-.8s-.39,0-.54.1c-.43.33-.7.85-1.13,1.18a15,15,0,0,1-1.8,1.11,6.9,6.9,0,0,0-1.05.62c-.29.24-.44.62-.72.87a10.49,10.49,0,0,1-1.85,1.47c-.47.26-1.09.16-1.54.43-.24.14-.13.63-.39.72s-.66-.29-1-.23-.3.3-.39.49-.1.78-.33,1.08-.56.17-.77.36c-.38.34-.58.84-1,1.18a2.58,2.58,0,0,1-1.06.64,1.14,1.14,0,0,1-.92-.15c-.22-.15-.19-.5-.34-.72s-.36-.7-.69-.85-.44.15-.62.28-.4.68-.74.78-.81-.31-1.21-.24-.31.53-.57.54a.83.83,0,0,1-.69-.48c-.11-.24.15-.52.13-.78s-.34-.46-.28-.72a10.53,10.53,0,0,1,.77-1.49c.08-.2.22-.48.07-.64s-.31.15-.48.18a2.12,2.12,0,0,1-1.16.1.84.84,0,0,1-.49-.79c0-.24.47-.21.59-.41s0-.58.1-.83a.5.5,0,0,1,.39-.23c.23,0,.45.28.67.21s.32-.52.59-.62.75.11,1.08,0c.16-.06.17-.31.15-.48,0-.39-.37-.75-.31-1.13,0-.22.43-.18.54-.36s0-.46.08-.65a2.25,2.25,0,0,1,.75-.72c.37-.22.94-.11,1.23-.43s0-.68,0-1a3.3,3.3,0,0,1,.33-1.15c.07-.13.32-.06.41-.18.25-.34.26-.84.57-1.13a1.17,1.17,0,0,1,.85-.21c.26,0,.48.28.74.28s.21-.3.36-.28.26.4.46.41a.68.68,0,0,0,.65-.33c.13-.36-.11-.77-.08-1.16,0-.08.11-.18.18-.15a4.24,4.24,0,0,1,.69.51,4.71,4.71,0,0,0,1,.64.49.49,0,0,0,.51-.07c.31-.41.35-1,.62-1.42a2.24,2.24,0,0,1,.77-.87c.43-.23,1,0,1.44-.31a7.07,7.07,0,0,0,1.29-1.57,5.82,5.82,0,0,1,.77-1c.27-.22.61-.57,1-.46s-.29.42-.41.64-.62.58-.47.87.57-.09.83-.2.45-.58.64-.41-.14.5-.31.69a6.06,6.06,0,0,1-1.23,1c-.21.14-.54.06-.72.23s-.17.55-.36.75c-.46.45-1.09.7-1.54,1.15a1,1,0,0,0-.31.67c0,.12.22,0,.33-.08a2.88,2.88,0,0,1,.64-.12c.23,0,.43.22.65.18s.44-.45.72-.44,0,.33-.11.46c-.21.35-.55.61-.77,1-.12.19-.42.58-.2.65s.71-.2,1-.42c.51-.37.81-1,1.36-1.33.29-.17-.4.54-.54.85-.05.11-.09.29,0,.38s.26.07.39,0a1.9,1.9,0,0,0,1-.47c.44-.54.54-1.3.95-1.87.08-.12.46-.22.44-.08-.12.62-.61,1.11-.75,1.72,0,.12.2.27.31.21A6.15,6.15,0,0,0,150.91,49c.49-.5.78-1.16,1.22-1.7a3.69,3.69,0,0,1,.77-.71c.12-.07.28,0,.4-.05s.42-.34.67-.38.55.21.82.15a1.33,1.33,0,0,0,.72-.46c.14-.17,0-.46.16-.62.28-.32.77-.41,1-.74.08-.11-.06-.3-.18-.35a2,2,0,0,0-1-.18c-.22,0-.35.29-.56.36s-.39-.12-.54,0c-.45.28-.7.82-1.15,1.08-.1.06-.24-.12-.27-.24a1.67,1.67,0,0,1,0-.77,3.09,3.09,0,0,1,.45-.91,1.05,1.05,0,0,1,.46-.4,8.13,8.13,0,0,1,1.85-.59,1.79,1.79,0,0,1,.94.14s.08.64.51.48c.2-.07.2-.37.34-.53s.38-.18.45-.36a1.17,1.17,0,0,0,0-.74c0-.06-.21-.12-.33-.14-.34-.06-.62.23-.78.26a.29.29,0,0,1-.3-.11c0-.06,0-.15.1-.18s1.11-.36,1.34-.45a12.3,12.3,0,0,1,1.74-.68c.21,0,.43.17.65.14s.33-.29.53-.32a.33.33,0,0,1,.32.17c.12.23,0,.58.15.77.41.41,1.05.51,1.49.88.25.21.29.6.52.83s.49.5.77.42,0-.44,0-.64a9.68,9.68,0,0,1-.55-1.34c-.06-.31.21-.61.18-.92s-.39-.41-.34-.65.56-.6.68-1a1.09,1.09,0,0,0-.09-.81.48.48,0,0,0-.42-.22,6.59,6.59,0,0,0-.76.1,6.49,6.49,0,0,0-1.23-.12,2,2,0,0,0-.85.56c-.16.14-.19.41-.37.52-.37.24-.83.27-1.2.48s-.42.45-.69.58a9.89,9.89,0,0,1-1.84.6,12.44,12.44,0,0,1-2.17.36.44.44,0,0,1-.33-.2c0-.07,0-.19,0-.23s.44-.11.59-.26a1.94,1.94,0,0,0,.45-.79c.08-.26.27-.66.05-.83s-.71,0-1,.1a1.38,1.38,0,0,0-.56.61c-.07.1,0,.25,0,.37s0,.22-.1.24c-.33.11-.7,0-1,.12a16,16,0,0,0-1.51,1,10.64,10.64,0,0,1-1.39.7,9.53,9.53,0,0,1-1.72.54.76.76,0,0,1-.57-.15c-.08-.06,0-.2,0-.29s-.28-.13-.24-.25c.1-.36.46-.61.59-1a.42.42,0,0,0-.09-.43c-.1-.07-.26,0-.38.06a7.29,7.29,0,0,0-1.38.73c-.3.21-.47.57-.76.79a1.25,1.25,0,0,1-.53.22s-.11,0-.11-.06.07-.19.05-.28a.55.55,0,0,0-.18-.29.33.33,0,0,0-.31-.06,2,2,0,0,0-.57.51c-.1.13-.06.36-.2.44-.38.21-.86.18-1.24.39-.14.07-.13.31-.25.42s-.2.07-.22,0,.09-.23.1-.35-.1-.16,0-.22c.28-.32.69-.52,1-.86a.18.18,0,0,0-.06-.23.67.67,0,0,0-.5,0,21.68,21.68,0,0,0-2.68,1.55.4.4,0,0,0-.1.34c0,.09.23.12.18.2-.16.28-.49.42-.68.67s0,.28-.13.39-.27.09-.33.2a7.31,7.31,0,0,0-.39,1.11,1.69,1.69,0,0,1-.14.45c-.1.15-.3.22-.42.36a10,10,0,0,1-.93,1.21,1.17,1.17,0,0,1-.74.18c-.1,0-.12-.19-.21-.21s-.41.07-.6,0a.18.18,0,0,1-.08-.23,11.19,11.19,0,0,1,.82-1.25c.28-.4.6-.77.85-1.19,0-.07.06-.18,0-.23s-.16,0-.22,0-.24.25-.37.36-.19.07-.26.14-.05.2-.11.27c-.39.47-.86.87-1.24,1.34-.26.32-.38.77-.69,1-.15.13-.4,0-.58.08-.42.19-.75.56-1.17.74-.07,0-.17-.09-.15-.16s.19-.19.24-.31.08-.55.25-.76.18.17.27.13a2.15,2.15,0,0,0,.69-.62c.48-.63.84-1.36,1.31-2s.92-1.06,1.34-1.62a4.86,4.86,0,0,0,.43-.77s0-.14,0-.13c-.22,0-.42.17-.63.16a.16.16,0,0,1-.13-.19c.33-.69.82-1.3,1.18-2a.46.46,0,0,0,.09-.4c0-.09-.2-.06-.29,0a2.29,2.29,0,0,0-.69.41c-.61.57-1.09,1.3-1.73,1.84-.26.21-.67.17-.93.4-.56.5-.87,1.23-1.45,1.72a7.43,7.43,0,0,1-1.93,1.12c-.12,0-.28-.05-.36-.16s0-.21,0-.29c.18-.33.47-.58.63-.92s0-.57.2-.79.66-.47.93-.76a8.85,8.85,0,0,0,.95-1.24c.09-.12.28-.32.17-.42s-.38,0-.53.09a16.66,16.66,0,0,0-1.69,1.35,10.21,10.21,0,0,0-1.42,1.29c-.23.27-.18.74-.46,1s-.74.08-1,.28-.48.72-.77,1-.69.5-.94.84c-1.1,1.57-1.34,3-2,4.76Z" transform="translate(-121.47 -22.49)"/><path class="cls-7" d="M133.48,47.74c-.15.13-.4,0-.58.08-.42.19-.75.56-1.17.74-.07,0-.17-.09-.15-.16s.19-.19.24-.31.08-.55.25-.76.18.17.27.13a2.15,2.15,0,0,0,.69-.62c.48-.63.84-1.36,1.31-2s.92-1.06,1.34-1.62a4.86,4.86,0,0,0,.43-.77s0-.14,0-.13c-.22,0-.42.17-.63.16a.16.16,0,0,1-.13-.19c.33-.69.82-1.3,1.18-2a.46.46,0,0,0,.09-.4c0-.09-.2-.06-.29,0a2.29,2.29,0,0,0-.69.41c-.61.57-1.09,1.3-1.73,1.84-.26.21-.67.17-.93.4-.56.5-.87,1.23-1.45,1.72a7.43,7.43,0,0,1-1.93,1.12c-.12,0-.28-.05-.36-.16s0-.21,0-.29c.18-.33.47-.58.63-.92s0-.57.2-.79.66-.47.93-.76a8.85,8.85,0,0,0,.95-1.24c.09-.12.28-.32.17-.42s-.38,0-.53.09a16.66,16.66,0,0,0-1.69,1.35l-.78.65a3.57,3.57,0,0,1-.12.4,6.26,6.26,0,0,1-.36.9,2.61,2.61,0,0,1-.36.53,9.18,9.18,0,0,0-.92,1.16,4.57,4.57,0,0,0-.44,1.49,13.73,13.73,0,0,0,0,1.57,4.78,4.78,0,0,1,0,1,4.64,4.64,0,0,1-.34.9,9.7,9.7,0,0,0-.41.93,2,2,0,0,0-.07.95,9.12,9.12,0,0,0,.51,1.1,3.07,3.07,0,0,1,.21,1c0,.73-.24,1.45-.24,2.19a1,1,0,0,0,.23.51.68.68,0,0,0,.39.23c.31.08.64,0,.94.09.09,0,.13.17.13.27a1.36,1.36,0,0,1-.17.55c-.09.18-.28.29-.37.47a2.12,2.12,0,0,0-.11.45s0,0,0,0a2.6,2.6,0,0,1,.49.18c.19.12.46.23.49.45s-.29.4-.31.64a.59.59,0,0,0,.23.5,4.57,4.57,0,0,0,1.26.37c.08,0,.22-.06.25,0s-.1.37,0,.52.39.18.45.36-.14.4-.14.61a1,1,0,0,0,.17.54,6.53,6.53,0,0,0,1,1.09,1.55,1.55,0,0,0,.83.49c.31,0,.55-.36.87-.39s.54.05.62.26-.3.71-.16,1,.44.14.67.15.7-.22,1-.05.19.6.33.87c.21.42.33.94.72,1.19a5.4,5.4,0,0,0,1.8.43c.26.06.58,0,.8.13s.28.68.56.9a1,1,0,0,0,.88.23c.57-.17,1-.7,1.51-.95a4.75,4.75,0,0,1,1.24-.28,3.9,3.9,0,0,1,1.08-.05c.45.06.87.4,1.33.36a5.91,5.91,0,0,0,1.73-.67c.76-.34,1.51-.7,2.26-1.08a4,4,0,0,1,.43-.28c.65-.27,1.32-.5,2-.73a.3.3,0,0,1,.06-.22c.08-.09.29,0,.34-.08a1.63,1.63,0,0,0,.21-.94.42.42,0,0,0-.33-.32,2,2,0,0,0-.78.16c-.07,0-.11.1-.19.11s-.3.08-.36,0,.14-.21.18-.33,0-.19,0-.27c.13-.24.36-.42.47-.66s.2-.41.07-.52a1.28,1.28,0,0,0-.9-.19c-.2,0-.34.23-.53.28s-.59-.07-.82.08-.06.38-.17.54-.2,0-.27.11a.54.54,0,0,0-.13.3c0,.23.21.53.05.69s-.43,0-.6-.11-.1-.4-.26-.5a.82.82,0,0,0-.72-.14,1.88,1.88,0,0,0-.73.7c-.12.16,0,.52-.21.57s-.51-.41-.78-.32-.56.49-.74.81c-.08.13.12.34,0,.46s-.32,0-.46,0-.24.28-.41.31-.25-.18-.39-.17-.2.19-.32.23c-.27.11-.58.1-.85.22s-.17.24-.31.3-.27-.07-.39,0-.24.4-.43.38c-.44,0-.75-.58-1.19-.57s-.41.55-.71.61-.21-.35-.39-.39-.4.13-.6.18-.74-.06-.76-.32a2.32,2.32,0,0,1,1.62-1.79c.5-.16,1.06.12,1.58,0a1.36,1.36,0,0,0,.8-.48.61.61,0,0,0,0-.57c-.1-.23-.43-.35-.49-.6s.17-.3.25-.46,0-.48.22-.52.28.24.33.4-.1.16-.11.25-.12.34,0,.48.21.09.32.09.34-.08.51-.06.43.24.64.18a.62.62,0,0,0,.39-.49c0-.25-.18-.5-.18-.76a4.29,4.29,0,0,1,.18-1.38c.07-.23.37-.33.46-.54.2-.46.15-1,.39-1.44a5.67,5.67,0,0,1,1.18-1.49c.34-.31.83-.41,1.18-.7s.34-.62.62-.8c.53-.33,1.24-.33,1.75-.69a2.73,2.73,0,0,0,.79-1.1c.12-.25.27-.57.13-.8s-.39,0-.54.1c-.43.33-.7.85-1.13,1.18a15,15,0,0,1-1.8,1.11,6.9,6.9,0,0,0-1.05.62c-.29.24-.44.62-.72.87a10.49,10.49,0,0,1-1.85,1.47c-.47.26-1.09.16-1.54.43-.24.14-.13.63-.39.72s-.66-.29-1-.23-.3.3-.39.49-.1.78-.33,1.08-.56.17-.77.36c-.38.34-.58.84-1,1.18a2.58,2.58,0,0,1-1.06.64,1.14,1.14,0,0,1-.92-.15c-.22-.15-.19-.5-.34-.72s-.36-.7-.69-.85-.44.15-.62.28-.4.68-.74.78-.81-.31-1.21-.24-.31.53-.57.54a.83.83,0,0,1-.69-.48c-.11-.24.15-.52.13-.78s-.34-.46-.28-.72a10.53,10.53,0,0,1,.77-1.49c.08-.2.22-.48.07-.64s-.31.15-.48.18a2.12,2.12,0,0,1-1.16.1.84.84,0,0,1-.49-.79c0-.24.47-.21.59-.41s0-.58.1-.83a.5.5,0,0,1,.39-.23c.23,0,.45.28.67.21s.32-.52.59-.62.75.11,1.08,0c.16-.06.17-.31.15-.48,0-.39-.37-.75-.31-1.13,0-.22.43-.18.54-.36s0-.46.08-.65a2.25,2.25,0,0,1,.75-.72c.37-.22.94-.11,1.23-.43s0-.68,0-1a3.3,3.3,0,0,1,.33-1.15c.07-.13.32-.06.41-.18.25-.34.26-.84.57-1.13a1.17,1.17,0,0,1,.85-.21c.26,0,.48.28.74.28s.21-.3.36-.28.26.4.46.41a.68.68,0,0,0,.65-.33c.13-.36-.11-.77-.08-1.16,0-.08.11-.18.18-.15a4.24,4.24,0,0,1,.69.51,4.71,4.71,0,0,0,1,.64.49.49,0,0,0,.51-.07c.31-.41.35-1,.62-1.42a2.24,2.24,0,0,1,.77-.87c.43-.23,1,0,1.44-.31a7.07,7.07,0,0,0,1.29-1.57,5.82,5.82,0,0,1,.77-1c.27-.22.61-.57,1-.46s-.29.42-.41.64-.62.58-.47.87.57-.09.83-.2.45-.58.64-.41-.14.5-.31.69a6.06,6.06,0,0,1-1.23,1c-.21.14-.54.06-.72.23s-.17.55-.36.75c-.46.45-1.09.7-1.54,1.15a1,1,0,0,0-.31.67c0,.12.22,0,.33-.08a2.88,2.88,0,0,1,.64-.12c.23,0,.43.22.65.18s.44-.45.72-.44,0,.33-.11.46c-.21.35-.55.61-.77,1-.12.19-.42.58-.2.65s.71-.2,1-.42c.51-.37.81-1,1.36-1.33.29-.17-.4.54-.54.85-.05.11-.09.29,0,.38s.26.07.39,0a1.9,1.9,0,0,0,1-.47c.44-.54.54-1.3.95-1.87.08-.12.46-.22.44-.08-.12.62-.61,1.11-.75,1.72,0,.12.2.27.31.21A6.15,6.15,0,0,0,150.91,49c.49-.5.78-1.16,1.22-1.7a3.69,3.69,0,0,1,.77-.71c.12-.07.28,0,.4-.05s.42-.34.67-.38.55.21.82.15a1.33,1.33,0,0,0,.72-.46c.14-.17,0-.46.16-.62.28-.32.77-.41,1-.74.08-.11-.06-.3-.18-.35a2,2,0,0,0-1-.18c-.22,0-.35.29-.56.36s-.39-.12-.54,0c-.45.28-.7.82-1.15,1.08-.1.06-.24-.12-.27-.24a1.67,1.67,0,0,1,0-.77,3.09,3.09,0,0,1,.45-.91,1.05,1.05,0,0,1,.46-.4,8.13,8.13,0,0,1,1.85-.59,1.79,1.79,0,0,1,.94.14s.08.64.51.48c.2-.07.2-.37.34-.53s.38-.18.45-.36a1.17,1.17,0,0,0,0-.74c0-.06-.21-.12-.33-.14-.34-.06-.62.23-.78.26a.29.29,0,0,1-.3-.11c0-.06,0-.15.1-.18s1.11-.36,1.34-.45a12.3,12.3,0,0,1,1.74-.68c.21,0,.43.17.65.14s.33-.29.53-.32a.33.33,0,0,1,.32.17c.12.23,0,.58.15.77.41.41,1.05.51,1.49.88.25.21.29.6.52.83s.49.5.77.42,0-.44,0-.64a9.68,9.68,0,0,1-.55-1.34c-.06-.31.21-.61.18-.92s-.39-.41-.34-.65.56-.6.68-1a1.09,1.09,0,0,0-.09-.81.48.48,0,0,0-.42-.22,6.59,6.59,0,0,0-.76.1,6.49,6.49,0,0,0-1.23-.12,2,2,0,0,0-.85.56c-.16.14-.19.41-.37.52-.37.24-.83.27-1.2.48s-.42.45-.69.58a9.89,9.89,0,0,1-1.84.6,12.44,12.44,0,0,1-2.17.36.44.44,0,0,1-.33-.2c0-.07,0-.19,0-.23s.44-.11.59-.26a1.94,1.94,0,0,0,.45-.79c.08-.26.27-.66.05-.83s-.71,0-1,.1a1.38,1.38,0,0,0-.56.61c-.07.1,0,.25,0,.37s0,.22-.1.24c-.33.11-.7,0-1,.12a16,16,0,0,0-1.51,1,10.64,10.64,0,0,1-1.39.7,9.53,9.53,0,0,1-1.72.54.76.76,0,0,1-.57-.15c-.08-.06,0-.2,0-.29s-.28-.13-.24-.25c.1-.36.46-.61.59-1a.42.42,0,0,0-.09-.43c-.1-.07-.26,0-.38.06a7.29,7.29,0,0,0-1.38.73c-.3.21-.47.57-.76.79a1.25,1.25,0,0,1-.53.22s-.11,0-.11-.06.07-.19.05-.28a.55.55,0,0,0-.18-.29.33.33,0,0,0-.31-.06,2,2,0,0,0-.57.51c-.1.13-.06.36-.2.44-.38.21-.86.18-1.24.39-.14.07-.13.31-.25.42s-.2.07-.22,0,.09-.23.1-.35-.1-.16,0-.22c.28-.32.69-.52,1-.86a.18.18,0,0,0-.06-.23.67.67,0,0,0-.5,0,21.68,21.68,0,0,0-2.68,1.55.4.4,0,0,0-.1.34c0,.09.23.12.18.2-.16.28-.49.42-.68.67s0,.28-.13.39-.27.09-.33.2a7.31,7.31,0,0,0-.39,1.11,1.69,1.69,0,0,1-.14.45c-.1.15-.3.22-.42.36a10,10,0,0,1-.93,1.21,1.17,1.17,0,0,1-.74.18c-.1,0-.12-.19-.21-.21s-.41.07-.6,0a.18.18,0,0,1-.08-.23,11.19,11.19,0,0,1,.82-1.25c.28-.4.6-.77.85-1.19,0-.07.06-.18,0-.23s-.16,0-.22,0-.24.25-.37.36-.19.07-.26.14-.05.2-.11.27c-.39.47-.86.87-1.24,1.34-.26.32-.38.77-.69,1Z" transform="translate(-121.47 -22.49)"/><path class="cls-8" d="M146.85,43.43c.55-.23,1-1.2,2-.92.18,0,.34,1.09,1.39.59.74-.36,1.29-1,2-1.44,1.51-.86,2-.06.61,1.49-.58.66-1.18,1.3-1.72,2a1,1,0,0,0-.23.54c0,.21.16.38.23.57.18.43.31.42-.23.8-.34.23-.74.37-1.08.61a2.62,2.62,0,0,0-.77.75,15.61,15.61,0,0,0-.59,1.53,4,4,0,0,1-.23.39.8.8,0,0,0,.13-.13c.44-.54.54-1.3.95-1.87.08-.12.46-.22.44-.08-.12.62-.61,1.11-.75,1.72,0,.12.2.27.31.21A6.15,6.15,0,0,0,150.91,49c.49-.5.78-1.16,1.22-1.7a3.69,3.69,0,0,1,.77-.71c.12-.07.28,0,.4-.05s.42-.34.67-.38.55.21.82.15a1.33,1.33,0,0,0,.72-.46c.14-.17,0-.46.16-.62.28-.32.77-.41,1-.74.08-.11-.06-.3-.18-.35a2,2,0,0,0-1-.18c-.22,0-.35.29-.56.36s-.39-.12-.54,0c-.45.28-.7.82-1.15,1.08-.1.06-.24-.12-.27-.24a1.67,1.67,0,0,1,0-.77,3.09,3.09,0,0,1,.45-.91,1.05,1.05,0,0,1,.46-.4,8.13,8.13,0,0,1,1.85-.59,1.79,1.79,0,0,1,.94.14s.08.64.51.48c.2-.07.2-.37.34-.53s.38-.18.45-.36a1.17,1.17,0,0,0,0-.74c0-.06-.21-.12-.33-.14-.34-.06-.62.23-.78.26a.29.29,0,0,1-.3-.11c0-.06,0-.15.1-.18s1.11-.36,1.34-.45a12.3,12.3,0,0,1,1.74-.68c.21,0,.43.17.65.14s.33-.29.53-.32a.33.33,0,0,1,.32.17c.12.23,0,.58.15.77.41.41,1.05.51,1.49.88.25.21.29.6.52.83s.49.5.77.42,0-.44,0-.64a9.68,9.68,0,0,1-.55-1.34c-.06-.31.21-.61.18-.92s-.39-.41-.34-.65.56-.6.68-1a1.09,1.09,0,0,0-.09-.81.48.48,0,0,0-.42-.22,6.59,6.59,0,0,0-.76.1,6.49,6.49,0,0,0-1.23-.12,2,2,0,0,0-.85.56c-.16.14-.19.41-.37.52-.37.24-.83.27-1.2.48s-.42.45-.69.58a9.89,9.89,0,0,1-1.84.6,12.44,12.44,0,0,1-2.17.36.44.44,0,0,1-.33-.2c0-.07,0-.19,0-.23s.44-.11.59-.26a1.94,1.94,0,0,0,.45-.79c.08-.26.27-.66.05-.83s-.71,0-1,.1a1.38,1.38,0,0,0-.56.61c-.07.1,0,.25,0,.37s0,.22-.1.24c-.33.11-.7,0-1,.12a16,16,0,0,0-1.51,1,10.64,10.64,0,0,1-1.39.7,9.53,9.53,0,0,1-1.72.54.76.76,0,0,1-.57-.15c-.08-.06,0-.2,0-.29s-.28-.13-.24-.25c.1-.36.46-.61.59-1a.42.42,0,0,0-.09-.43c-.1-.07-.26,0-.38.06a7.29,7.29,0,0,0-1.38.73c-.3.21-.47.57-.76.79a1.25,1.25,0,0,1-.53.22s-.11,0-.11-.06.07-.19.05-.28a.55.55,0,0,0-.18-.29.33.33,0,0,0-.31-.06,2,2,0,0,0-.57.51c-.1.13-.06.36-.2.44-.38.21-.86.18-1.24.39-.14.07-.13.31-.25.42s-.2.07-.22,0,.09-.23.1-.35-.1-.16,0-.22c.28-.32.69-.52,1-.86a.18.18,0,0,0-.06-.23.67.67,0,0,0-.5,0,21.68,21.68,0,0,0-2.68,1.55.4.4,0,0,0-.1.34c0,.09.23.12.18.2-.16.28-.49.42-.68.67s0,.28-.13.39-.27.09-.33.2a7.31,7.31,0,0,0-.39,1.11,1.69,1.69,0,0,1-.14.45c-.1.15-.3.22-.42.36a10,10,0,0,1-.93,1.21l-.14.08a1,1,0,0,0,.39-.13c.22-.13.36-.37.57-.52.06,0,.17-.1.24,0a.26.26,0,0,1,.08.27c-.63,2.3,1.07-.23,1.66-.8.06-.06.21.06.27,0,.47-.59.71-1.57,1.13-2.07.72-.88-.7,3,.95,1.55,0,0,2.82-3.81,2-1.9-.23.52.46.11.67,0s.47-.55.8-.61.32.35.54.36a3.27,3.27,0,0,0,1.41-.26ZM127,46.18a1.15,1.15,0,0,1,.56-.51c.12,0,.13.26.26.28s.57-.41,1-.05a.33.33,0,0,1,0,.38c-.23.38-.65.63-.87,1s.3.69.56.46a13.49,13.49,0,0,0,1.08-1.41c.26-.29.46-.23.46,0,0,.43-.28.91,0,.94a.46.46,0,0,0,.39-.18,5,5,0,0,0,.7-.94c.29-.52.25-1.38.87-1.49.16,0,.3.11.46.13.51.07.61-.88.93-1.36s.65.05.79.07a.46.46,0,0,0,.34-.1c.66-.55.34-.55.46-1a2.71,2.71,0,0,1,.24-.52A5.51,5.51,0,0,1,136.62,40a.23.23,0,0,0,0-.11c0-.09-.2-.06-.29,0a2.29,2.29,0,0,0-.69.41c-.61.57-1.09,1.3-1.73,1.84-.26.21-.67.17-.93.4-.56.5-.87,1.23-1.45,1.72a7.43,7.43,0,0,1-1.93,1.12c-.12,0-.28-.05-.36-.16s0-.21,0-.29c.18-.33.47-.58.63-.92s0-.57.2-.79.66-.47.93-.76a8.85,8.85,0,0,0,.95-1.24c.09-.12.28-.32.17-.42s-.38,0-.53.09a16.66,16.66,0,0,0-1.69,1.35,10.21,10.21,0,0,0-1.42,1.29c-.23.27-.18.74-.46,1s-.74.08-1,.28-.48.72-.77,1-.69.5-.94.84a8.94,8.94,0,0,0-.7,1.21,12,12,0,0,0-.51,1.24l.27-.43c.51-.76,1.11-1.45,1.4-1.41s0,.33,0,.49.12.42.33,0c.31-.53.53-1.11.88-1.62Z" transform="translate(-121.47 -22.49)"/><path class="cls-9" d="M130,58.83c.14-.25,0-.58.1-.83a.5.5,0,0,1,.39-.23c.23,0,.45.28.67.21s.32-.52.59-.62.75.11,1.08,0c.16-.06.17-.31.15-.48,0-.39-.37-.75-.31-1.13,0-.22.43-.18.54-.36s0-.46.08-.65a2.25,2.25,0,0,1,.75-.72c.37-.22.94-.11,1.23-.43s0-.68,0-1a3.3,3.3,0,0,1,.33-1.15c.07-.13.32-.06.41-.18.25-.34.26-.84.57-1.13a.46.46,0,0,1,.16-.11,1.11,1.11,0,0,0-.45.17c-.18.16-.1.69-.45.71-.1,0-.54-.28-.73,0s.12.7.07.86-.19.08-.23.17,0,.67-.45.87c-.27.11-.9-.35-1.12.27-.1.28.26.9-.18,1.07-.13,0-.3,0-.39.14s0,.3-.11.38c-1.59,1.26-2.9.18-4.42,1.53-.68.61-.64,1.15.06,1.08.3,0,.58-.12.71.16s0,.42-.15.59c-.34.45-1.85,1.06-2,1.67s.85.3.81.56-1.22,1.57-.1,2.11c.54.26,1.22-.34,1.8-.15.24.08,0,.53.1.77s.48.39.56.67-.19.4-.15.61.48.49.41.77c-.16.7-1.52,2.07-1,2.76.37.48,1.7-.61,2.51-1.31,1.58-1.35.43,1,1.57.15a11.62,11.62,0,0,0,1.28-1.34c.62-.61.73.3,1.7-.1a5.34,5.34,0,0,0,.86-.57c.92-.58.91,0,.59.28s.17.74.35.28c.11-.27.24-.75.38-1.17.27-.79.7-1.32,1.07-.83.1.13.28.18.42-.09a11.35,11.35,0,0,0,.36-1.18c.23-.76.4-.69.31,0a4,4,0,0,0,0,.68c.05.44.33.49.53.06s.38-1.16.53-1.61a1.55,1.55,0,0,1,.7-.83c.27-.14.3,0,.29.16a.16.16,0,0,0,.1.19c.51.14,2.2-2.12,2.48-2.57a3.75,3.75,0,0,1,.45-.65,6.86,6.86,0,0,1,1.35-.77c.42-.2.88-.32,1.28-.55a2.69,2.69,0,0,0,.71-.59,6.81,6.81,0,0,0,.45-.73c.19-.27.49-.61.62-.36a.37.37,0,0,0-.05-.11c-.09-.16-.39,0-.54.1-.43.33-.7.85-1.13,1.18a15,15,0,0,1-1.8,1.11,6.9,6.9,0,0,0-1.05.62c-.29.24-.44.62-.72.87a10.49,10.49,0,0,1-1.85,1.47c-.47.26-1.09.16-1.54.43-.24.14-.13.63-.39.72s-.66-.29-1-.23-.3.3-.39.49-.1.78-.33,1.08-.56.17-.77.36c-.38.34-.58.84-1,1.18a2.58,2.58,0,0,1-1.06.64,1.14,1.14,0,0,1-.92-.15c-.22-.15-.19-.5-.34-.72s-.36-.7-.69-.85-.44.15-.62.28-.4.68-.74.78-.81-.31-1.21-.24-.31.53-.57.54a.83.83,0,0,1-.69-.48c-.11-.24.15-.52.13-.78s-.34-.46-.28-.72a10.53,10.53,0,0,1,.77-1.49c.08-.2.22-.48.07-.64s-.31.15-.48.18a2.12,2.12,0,0,1-1.16.1.84.84,0,0,1-.49-.79c0-.24.47-.21.59-.41Zm.74-4.92a.9.9,0,0,0-.87-.1c-.09,0-.13.21-.22.27a7.89,7.89,0,0,0-1,.49,1,1,0,0,0-.38.39c-.1.21,0,.25.08.24.51,0,1-.27,1.49-.36a7.7,7.7,0,0,1,.92-.08c.52,0,.43-.49,0-.85Z" transform="translate(-121.47 -22.49)"/><path class="cls-10" d="M146.62,65.12c-.12.16,0,.52-.21.57s-.51-.41-.78-.32-.56.49-.74.81c-.08.13.12.34,0,.46s-.32,0-.46,0-.24.28-.41.31-.25-.18-.39-.17-.2.19-.32.23c-.27.11-.58.1-.85.22s-.17.24-.31.3-.27-.07-.39,0-.24.4-.43.38c-.44,0-.75-.58-1.19-.57s-.41.55-.71.61-.21-.35-.39-.39-.4.13-.6.18-.74-.06-.76-.32a1.5,1.5,0,0,1,.33-.84l-.13.14c-.21.24-.84,1.56-.25,1.54.19,0,.48-.31.73-.18.1.06.1.26.22.29s.36-.33.58,0,.13.63.75.75.7-.37,1-.54c.09,0,.2.06.3,0s.44-.72,1-.6c.16,0,.26.29.42.25s.15-.44.43-.61.44.08.61,0,.13-.12.23-.14.17,0,.29,0,.45-.18.68-.15.53.9,1.23.37c.39-.29.18-1,.36-1.42s.48-.29.48,0a1.15,1.15,0,0,1-.09.44c0,.16-.12.39.15.37a.25.25,0,0,0,.23-.14,4.57,4.57,0,0,0,.14-.72c.05-.2.13-.38.37-.36a.13.13,0,0,1,.13.11.84.84,0,0,1,0,.31.08.08,0,0,0,.13.08,1.29,1.29,0,0,0,.19-.21c.33-.45.29-.58.69-.6.24,0,.67-.13.76-.37s-.18-.46-.2-.63.12-.14.21-.11.15,0,.18,0,.22-.6.43-.67.11.24.33.14.23-.32.39-.48a.78.78,0,0,1,.72-.15,1.3,1.3,0,0,0-.87-.17c-.2,0-.34.23-.53.28s-.59-.07-.82.08-.06.38-.17.54-.2,0-.27.11a.54.54,0,0,0-.13.3c0,.23.21.53.05.69s-.43,0-.6-.11-.1-.4-.26-.5a.82.82,0,0,0-.72-.14,1.88,1.88,0,0,0-.73.7Z" transform="translate(-121.47 -22.49)"/><path class="cls-11" d="M174.81,33.62a5.61,5.61,0,0,1-1.09-.85c-.34-.3-.59-.69-1-1a1.37,1.37,0,0,0-.68-.25.22.22,0,0,0-.19.16A.31.31,0,0,0,172,32c.4.43.86.8,1.3,1.19a9.68,9.68,0,0,1,1,.88c.15.17.15.44.27.64a.8.8,0,0,0,.27.28c.29.2.65.29.92.5a.92.92,0,0,1,.31.45c0,.07-.08.16-.14.13-.25-.13-.42-.4-.67-.55-.09-.06-.26-.14-.33,0s0,.27.05.4.17.18.21.29-.1.15-.07.22a16.7,16.7,0,0,0,.94,1.57,4,4,0,0,1,.42.59.25.25,0,0,1-.05.27.28.28,0,0,1-.32.05c-.22-.17-.29-.48-.49-.68a1.26,1.26,0,0,0-.51-.3c-.15,0-.34-.06-.45,0a.86.86,0,0,0-.22.63c0,.15.21.23.24.38s-.08.29-.07.43.15.54.16.81a4.48,4.48,0,0,1-.06.64c0,.54-.07,1.07-.06,1.6a5.28,5.28,0,0,1,.09.68c0,.26-.18.52-.2.78,0,.45.05.8,0,1.24,0,.22-.11.4-.12.62a6.84,6.84,0,0,0,.12.79,4.13,4.13,0,0,1-.13.77,2.56,2.56,0,0,0,0,.39,3.94,3.94,0,0,1,.1.9,3.15,3.15,0,0,1-.31.74A6.3,6.3,0,0,0,174,50c0,.19,0,.41,0,.59a1.94,1.94,0,0,0-.18.51c0,.43.21.73.2,1.16a2.94,2.94,0,0,1-.35,1.11c-.3.65-.8,1.1-1.08,1.64a.64.64,0,0,0-.08.44c0,.07.13.06.2.05a1.94,1.94,0,0,0,1.26-.61c.26-.4.11-1.06.23-1.39.05-.11.25-.05.34-.13a2.4,2.4,0,0,0,.46-.59.88.88,0,0,0,.13-.52c-.05-.34-.29-.65-.33-1a4.6,4.6,0,0,1,.07-1.23,1.33,1.33,0,0,1,.23-.62c.08-.09.26,0,.36,0a.57.57,0,0,0,.29-.26c.08-.2,0-.43.1-.64s.08-.26.18-.26a.36.36,0,0,1,.26.27c0,.21-.12.43-.08.65s.19.19.27.29a.38.38,0,0,1,.09.18c0,.16-.06.32,0,.48s.07.22.17.25.3,0,.35-.09a6.67,6.67,0,0,0,.19-1c0-.16.22-.26.26-.43a1.59,1.59,0,0,0,0-.78c-.07-.29-.33-.49-.43-.77-.23-.61.24-.64.34-1.21a1.2,1.2,0,0,0-.05-.65c-.11-.32-.42-.54-.5-.87a2.27,2.27,0,0,1,.08-.77c0-.18.07-.35.08-.54s-.07-.48-.06-.72.12-.33.15-.51a4,4,0,0,1,0-.49s.08-.1.1-.06a1.12,1.12,0,0,1,.18.5,4.91,4.91,0,0,1,0,.85c0,.31-.07.61-.06.92,0,.74,0,.6.51,1,.1.08.58.57.73.25a4.74,4.74,0,0,0,.21-1.25c0-.16.11-.32.07-.48s-.25-.37-.32-.59.07-.21,0-.32-.2-.35-.24-.54a4.71,4.71,0,0,1,0-.65c0-.12-.09-.23-.07-.35s.08-.13.13-.1a.63.63,0,0,1,.2.32c.09.27.09.56.18.83s.18.19.21.31A7.93,7.93,0,0,0,179,43c.07.18.29.26.39.42s0,.29.12.41.28.24.36.4,0,.44.12.63.54-.05.49-.24-.27-.36-.38-.63c-.05-.1,0-.3-.05-.4s-.29-.33-.38-.52a.38.38,0,0,1,0-.33c0-.1.16-.12.2-.22s0-.18.08-.31A.66.66,0,0,1,180,42c.08-.13,0-.33.14-.44s.19,0,.24.07,0,.33.09.46.36.2.51.35.27.41.44.58.4.1.54.71c0,.19-.09.41,0,.59s.33.32.45.51,0,.18,0,.25c.14.23.37.39.49.63a1.49,1.49,0,0,1,.14.55c0,.11-.07.23,0,.33.12.27.39.45.51.72s0,.42.06.61a.36.36,0,0,0,.26.22.27.27,0,0,0,.23-.21,2,2,0,0,0-.07-.85c-.07-.23-.28-.39-.36-.61-.25-.63-.37-1.29-.62-1.91-.19-.46-.47-.89-.7-1.33-.13-.26-.23-.53-.38-.77s-.26-.27-.34-.44a1.06,1.06,0,0,1-.16-.66c0-.12.2.16.27.26.16.25.22.56.4.8s.4.31.54.52.1.42.2.61.38.47.54.72.42.68.62,1,.36.68.54,1a28.22,28.22,0,0,0-1.34-3.95c-.07-.13-1.89-3.48-1.95-3.55s-.72-.51-1-.82-.44-.63-.69-.93-.5-.42-.7-.66-.36-.7-.44-.72a12.08,12.08,0,0,1-2.13-1.06c-.27-.22-.37-.62-.67-.82s-.58-.06-.83-.2Zm-2.38,23c-.66-.5-.63.89-.92,1.15a2,2,0,0,0-.49,1.09,3.7,3.7,0,0,1-.37,1.52c-.07.17-.19.53.08.53.72,0,.77-2.47,1.14-2.44s.85-.39.65-.8c-.11-.25-.35-.43-.06-.67s0-.37,0-.38Z" transform="translate(-121.47 -22.49)"/><path class="cls-12" d="M172.83,71.63c-.33,0-.29-.29-.29-.57s1.28-1.5,1.48-2c.07-.17.51-.86.78-.66.09.07.17.4.48-.08.17-.27,0-.77.76-1.52.16-.16.66-.2.52.47s.73,0,.78,1.07c0,.09-.15.14-.16.23,0,.25-.77,0-.77.45s.55.54,0,1c-.27.21.84.67.91,1.08,0,0,.07.17.08.19s0,.22,0,.3.17.85.6-.07c.1-.21.53-.63.73-.33s.27,0,.24.62c0,.32.6.83.27,1.18-.15.16-.61.54-.66.63s-.11.66-.47.58c0,0-.16-.39-.28,0,0,0,0,0,0,.07s-.08.28-.09.42c0,.42-.29,1-.76,1s-.34.25-.61.7c-.17.29-.68,1.59-1.16,1.46-.1,0,.15-.42-.15-.42s-.43.35-.55.55.6-.13.38.48a1.71,1.71,0,0,1-.26.42,1.08,1.08,0,0,1-.28.24,12.14,12.14,0,0,0-1.3.64c-.08.1-.11-.09-.28.37-.11.27-1.48.1-1.13.49.14.15.67-.23.63.24s-1.47-.31-1.3.4c.11.47-.68,0-1,.63a1,1,0,0,1-.85.34,3.5,3.5,0,0,0-1.19.62c-.35.44-.65,0-.17-.37.72-.59,0-.38.55-.82.05,0,1.46-.93.68-.85a4.33,4.33,0,0,0-.68.29c-.08,0-.58.19-.58,0,0-.58.43-.14.43-.76,0-.22,1.37-.87.28-.68-.36.07-.25-.14-.66.34-.07.08-.72.22-1,.38l-.34.21a4.87,4.87,0,0,1-.87.47c-.45.17-1.21.88-1.87,1a5.3,5.3,0,0,1-1.07.39c-1,.13-.44-.33-1-.29-.2,0,.21.22-.16.48a4.25,4.25,0,0,1-1.33.44,5.26,5.26,0,0,1-1.72.12,1.21,1.21,0,0,0-.73.13,1.74,1.74,0,0,1-2.16.58c-.3-.09-1.79.21-1.29-.49.16-.24,2.86-.33,3.37-.64.29-.19,1.32.14,1.32-.53,0-.9-.09-.52.6-1s.15-.7.8-.9.54-.09,1.15-.65c.31-.29.44-.44.79-.73s.54-.08,1-.21a.64.64,0,0,0,.22-.14c.31-.22.7-1,.48-1.38s.3-.43,0-.72.55-1.11.7-1.33c.33-.48,1.18-1.06,1-1.62-.06-.18-.71.74-.79.51-.15-.39-1.06.09-.21-1.47.47-.88.44-.32.77-.53.05,0,0-.25.15-.33a1.19,1.19,0,0,0,.35-.47c0-.08.35-.85.44-.85s.26.46.07.71a2.38,2.38,0,0,0-.47,1.56c.06.21-.15.42.1.56,0,0,.24.39.44.07.1-.17-.15-.53.49-.53.3,0,.51-.68,1-.95s.15.74.48.28c0,0,.38-.28.44,0,0,.13.14.14.13.45s.46,0,.59-.29,1-1.07,1-.27c0,.34-.27.43,0,.85,0,0-.14.37.34.12,0,0,.58-.69.61-.11,0,.07-.12.31.25.11s.16-.57.66-.93a2.78,2.78,0,0,0,.53-.49c.62-.65-.11-.49-.26,0,0,.06-.05,0-.14,0ZM168,73.32c-.23-.29-.46.33-.46.61a1.48,1.48,0,0,1-.17,1c-.36.48.42,1.46-.23,1.69-.18.06-.28.79-.58,1-.11.09-.61.75-.83.9s.18.22-.1.43-1.48,1.17-.64,1.13c.53,0,1-.48,1.47-.76a3.07,3.07,0,0,1,.72-.48c.14-.06.62-.44.64,0,0,.18.58.45.59-.23,0-.38.73,0,.89-.57.06-.21,1-.08.74-.66-.15-.3.64-.17.09-.48-.26-.15-.5.2-.72-.43-.09-.24-.37-.26-.45.1s0,.91-.65,1c-.37,0-.21-.81,0-1s-.47-.72-.11-1.29c.18-.28-.32-.42-.07-1.14a.86.86,0,0,0-.11-.82Zm4.39,2.07a1.27,1.27,0,0,0,.67,1.35c.33.18,1.1-.1,1-.33s-.33.06-.68,0-.41-.33-.38-.72a1.93,1.93,0,0,1,.36-1.14c.14-.17.57-.44.44-.09-.07.17-1.12,2.66,1.51.7.79-.59,1.57-1.45,1.21-2.41-.54-1.42-3.93.06-4.17,2.67ZM174.5,73c-.47.4-.89,1-.39,1,.08,0,1.17-1.13,1.33-.36.07.33-.48.89-.82,1-.07,0-.64.3-.37.41.51.21,1.95-1.05,2.05-1.88,0-.39-.29-.54-.64-.57a1.63,1.63,0,0,0-1.16.43Zm-7.06-5c-.25-.36-.64-.06-.59-.76,0-.42.17-.18.1-1.1-.1-1.2,1.28-.23,1.72-2,.08-.31.25.1.41-1,.06-.33.94-1,1.06-1.58,0-.2.78-.58,0,.93-.09.17-.51,1.21-.36,1.4a.67.67,0,0,1-.27.86c-.52.27-.75,1.16-.95,1.7-.33.88-.19,1.37-1,2.11,0,0-.92,1.77-.8.5,0-.39.93-.75.65-1.14Z" transform="translate(-121.47 -22.49)"/><path class="cls-13" d="M150.9,25.73c.28-.08,3.38-.76,3.44-.73a1.81,1.81,0,0,0,1.59.06,18.74,18.74,0,0,0,2.93.4,24.64,24.64,0,0,1,3.21.85c-.29,0-1.37-.33-1.74,0a.88.88,0,0,1-.77.22c-.44.18-.08.45.27.48a2.78,2.78,0,0,1,.78.08c1.23.85,2.57.5,2.81.74.48.51,1.7.43,1.75.63.19.72-.88.07-1.08.44s-.51.13-1,0c-1.28-.31-1,.48-.21.51.56,0,1.17.68.84.67s-.24.38-.62.36c-2.19-.09.43.61.57.86.63,1.05-1.12.07-1.15.06-1-.07-.25.67-.23.69.18.13,1.57.5,1.61.68.18.84-1.27-.06-1.47-.05-.93,0-.28.74.08.89a7.46,7.46,0,0,1,1.15.93c.43.14.29-.14.29-.31,0-.86,2,.19,2.21.37,1.19,1.16-1.84-.28-1.49.51.54,1.17-1.05,1.13-1.13.57a1.73,1.73,0,0,0-1.66-1.22c-.58,0-.64-.22-.67-.44-.11-.75-1.14-.52-1.06,0a1.87,1.87,0,0,0,.3.68.63.63,0,0,1,.09.73c-.19.41-.61-.29-.81-.49a1.32,1.32,0,0,1-.47-1.28c.07-.53-.13-.83-.94-.7-.28.05-.44-.19-.54-.28-.39-.35-1-.62-1.13,0-.07.24.15,1.93-.33,2-.93.19-.33-1.08-.48-1.24-.34-.38,0-1.08-.22-1.28-.54-.54-.55,1-1,1.1-1,.26-.19-.59-.19-.61.08-1.26-1.19-.19-1.19-.19-.72,0-1.12,1.38-1.69.89s.53-.63.34-1-1.15.3-1.61.11c-.18-.07.28-1.16-1.18-.07-.87.64-.86-.17-.75-.26.34-.29-.19-.26-.61-.11a9.09,9.09,0,0,0-2.3,1.67c-.36.3-.67.3-.56,0s.35-.6.14-.72c-.41-.25-1.48.38-1.79.05s-.12-.53.2-.65,1.57-.42,1.87-.48c1.06-.21,2.64-.35,2.68-.78.05-.77-3,.53-3.46.39-.64-.18-1.55.86-2.09.38s.45-.84.5-.9c.59-.83,3.34-.45,3.93-1.22s-.68-.44-1-.63c-.86-.6,1.73-.62,1.81-.69.88-.78-.69-.31-.91-.31-.59,0-3.48,1.18-3.48.51s1.75-.5,2.55-.95a4.84,4.84,0,0,1,1.95-.15c2.33,0,.79-.45.74-.54-.46-.7.55-.35.75-.54a5.47,5.47,0,0,1,2.29,0c.18,0,.65.08.62-.16s-.27,0-.11-.19-.5-.45-1.18-.34ZM142,32.36c-1.23-.54-1.22.86-2,.81-.57,0-1.08.7-1.42,1.11s-.26.61.19.39c.67-.32,1.19-1,2.05-.83s0-.8,1.06-.75c.55,0,.79-.43.13-.73ZM137.67,35c-.42.29-.18-.12-.44.35-.14.26-.49-.06-.58.4,0,.15-.63.48-.76.68s-1.19,1.1-.26.76c.15-.06.39-.58.92-.79.17-.06.76-.5.76-.68,0-.52.15-.13.51-.46.11-.1-.11-.29-.15-.26Z" transform="translate(-121.47 -22.49)"/><path class="cls-14" d="M183.25,42.38c-.07-.13-1.89-3.48-1.95-3.55s-.72-.51-1-.82-.44-.63-.69-.93-.5-.42-.7-.66-.36-.7-.44-.72a4.56,4.56,0,0,1-.5-.2,10.89,10.89,0,0,1-1.63-.86c-.27-.22-.37-.62-.67-.82s-.58-.06-.83-.2a5.61,5.61,0,0,1-1.09-.85c-.34-.3-.59-.69-1-1a1.37,1.37,0,0,0-.68-.25.22.22,0,0,0-.19.16A.31.31,0,0,0,172,32c.4.43.86.8,1.3,1.19a9.68,9.68,0,0,1,1,.88c.15.17.15.44.27.64a.8.8,0,0,0,.27.28c.29.2.65.29.92.5a.92.92,0,0,1,.31.45c0,.07-.08.16-.14.13-.25-.13-.42-.4-.67-.55-.09-.06-.26-.14-.33,0s0,.27.05.4.17.18.21.29-.1.15-.07.22a16.7,16.7,0,0,0,.94,1.57,4,4,0,0,1,.42.59.25.25,0,0,1-.05.27.28.28,0,0,1-.32.05c-.22-.17-.29-.48-.49-.68a1.26,1.26,0,0,0-.51-.3.79.79,0,0,0-.34,0,6.53,6.53,0,0,0,1,1.43c.55.63,1.37,1,1.8,1.74a4.38,4.38,0,0,1,.69,1.88,1.64,1.64,0,0,1-.2.87c-.14.27-.54.41-.65.68l.34.26c.1.08.58.57.73.25a4.74,4.74,0,0,0,.21-1.25c0-.16.11-.32.07-.48s-.25-.37-.32-.59.07-.21,0-.32-.2-.35-.24-.54a4.71,4.71,0,0,1,0-.65c0-.12-.09-.23-.07-.35s.08-.13.13-.1a.63.63,0,0,1,.2.32c.09.27.09.56.18.83s.18.19.21.31A7.93,7.93,0,0,0,179,43c.07.18.29.26.39.42s0,.29.12.41.28.24.36.4,0,.44.12.63.54-.05.49-.24-.27-.36-.38-.63c-.05-.1,0-.3-.05-.4s-.29-.33-.38-.52a.38.38,0,0,1,0-.33c0-.1.16-.12.2-.22s0-.18.08-.31A.66.66,0,0,1,180,42c.08-.13,0-.33.14-.44s.19,0,.24.07,0,.33.09.46.36.2.51.35.27.41.44.58.4.1.54.71c0,.19-.09.41,0,.59s.33.32.45.51,0,.18,0,.25c.14.23.37.39.49.63a1.49,1.49,0,0,1,.14.55c0,.11-.07.23,0,.33.12.27.39.45.51.72s0,.42.06.61a.36.36,0,0,0,.26.22.27.27,0,0,0,.23-.21,2,2,0,0,0-.07-.85c-.07-.23-.28-.39-.36-.61-.25-.63-.37-1.29-.62-1.91-.19-.46-.47-.89-.7-1.33-.13-.26-.23-.53-.38-.77s-.26-.27-.34-.44a1.06,1.06,0,0,1-.16-.66c0-.12.2.16.27.26.16.25.22.56.4.8s.4.31.54.52.1.42.2.61.38.47.54.72.42.68.62,1,.36.68.54,1a28.22,28.22,0,0,0-1.34-3.95Z" transform="translate(-121.47 -22.49)"/><path class="cls-15" d="M133.19,73.45c-2.06.08-3.39,1.64-2.75-3.34.07-.49.35-1.7-.56-1.08-.64.43-1.41,1.73-2.57,1.39-.38-.11-.56-.64-.57-1a7.72,7.72,0,0,1,.46-2.16c.29-1.06.73-2.07,1-3.14s-.41-1.15-.92-.61a13.11,13.11,0,0,1-1.6,1.8c-.73.52-1.13-1-1-1.6a5.53,5.53,0,0,1,.88-1.85c.17-.27.21-.5-.16-.37s-.79.32-1.18.42c-.16,0-.36,0-.26-.31a10,10,0,0,0,1-3.08c0-.43-.59-.67-.72-1.08s.16-.62.1-.92-.36-.35-.36-.57a12.47,12.47,0,0,1,.36-1.8,5.56,5.56,0,0,0,.13-1.28c-.07-.92-1.16-.15-.49-3.2-.18.57-.36,1.15-.59,1.77-.33.9-1.06,2.46-1.08,2.67a17.79,17.79,0,0,1,.41,1.9c0,.49-.36,1.28-.3,1.44A31.77,31.77,0,0,1,123.43,63c.06.51-.22,1.37-.16,1.54s1.08,2.23,1.49,3.39c.18.51,0,1.13.26,1.59,1.15,1.92,1.36,3.74,2.06,5.61a21.79,21.79,0,0,0,1.8,1.33c1.69,1.45,1.86,2.19,3,3.4a18.1,18.1,0,0,0,2.59,2.36c.64.46,1.45.64,2.11,1.06.47.29.8.8,1.29,1.08a22.28,22.28,0,0,0,2.85,1.31c.4.16.84.23,1.25.35a2.09,2.09,0,0,1-.69-.48c-.07-.09,0-.24-.09-.34s-.26-.1-.32-.21.08-.24,0-.34-.22-.17-.34-.25-.27-.11-.32-.22.1-.19.09-.29a.51.51,0,0,0-.15-.33c-.19-.16-.48-.17-.65-.35a.35.35,0,0,1,0-.38c.08-.15.36-.14.43-.3s-.06-.29-.16-.4-.27-.12-.4-.19-.34-.1-.34-.24.23-.07.34,0,.48.26.75.28.3-.12.46-.17.34-.14.5-.1.33.26.52.35.17,0,.25,0a5.93,5.93,0,0,0,1,.13c.15,0,.35-.05.42-.19a.56.56,0,0,0-.05-.53.64.64,0,0,0-.49-.23c-.22,0-.39.2-.6.26a.81.81,0,0,1-.46,0c-.28-.09-.49-.34-.76-.43s-.46.09-.62,0c-.53-.43-.85-1.06-1.34-1.53a.51.51,0,0,0-.42-.16c-.31.06-.57.3-.87.38-.11,0-.22-.07-.32-.07s-.39.1-.57.05a.74.74,0,0,1-.46-.28c-.09-.12,0-.3-.08-.45s-.07-.31-.19-.37c-.36-.19-.81-.15-1.17-.34-.09,0,0-.21-.09-.29s-.44-.3-.62-.49c0,0-.06-.19,0-.17s.31.29.5.38.25,0,.36,0,.21.28.36.31.48-.07.72,0,.51.22.78.24c.1,0,.23-.07.23-.16,0-.32-.24-.62-.18-.94a.43.43,0,0,1,.44-.3h0a7.47,7.47,0,0,0-1.07-1.71c-.33-.33-1-.13-1.33-.42-.56-.43.28-1.31-1.78-1.23Z" transform="translate(-121.47 -22.49)"/><path class="cls-16" d="M138.51,79.32c-.31.06-.57.3-.87.38-.11,0-.22-.07-.32-.07s-.39.1-.57.05a.74.74,0,0,1-.46-.28c-.09-.12,0-.3-.08-.45s-.07-.31-.19-.37c-.36-.19-.81-.15-1.17-.34-.09,0,0-.21-.09-.29s-.44-.3-.62-.49c0,0-.06-.19,0-.17s.31.29.5.38.25,0,.36,0,.21.28.36.31.48-.07.72,0,.51.22.78.24c.1,0,.23-.07.23-.16,0-.32-.24-.62-.18-.94a.43.43,0,0,1,.44-.3c.22,0,.28.41.5.45s.6-.19.92-.2.48.22.71.14-.05-.33.07-.39.24.14.37.14.2-.17.32-.17.24.15.38.15a1.62,1.62,0,0,0,.61-.09.82.82,0,0,0,.41-.19.84.84,0,0,0,.21-.47.53.53,0,0,0-.1-.35c-.15-.19-.43-.27-.54-.48s.11-.21.09-.32-.26-.38-.3-.6.14-.19.13-.3-.2-.27-.21-.42.21,0,.2-.12c-.05-.25-.29-.43-.35-.68a.23.23,0,0,1,.1-.24h0a.4.4,0,0,0-.28.22c0,.16.16.5,0,.65s-.51,0-.45.34c0,.15.14.29.11.44s-.18.1-.23.19,0,.31-.07.4-.49.19-.67.36a.33.33,0,0,0-.05.32c.07.24.25.43.34.66s-.14.23-.28.22-.76-.28-.92-.14c-.32.26-.38.73-.89.28-.24-.21-.38.07-.59,0-.62-.28-1.5-.76-1.66-.58s.44,1.05-.33.74a13.32,13.32,0,0,1-1.24-.66c-2.05-1.07-.77.19-.28.94a.19.19,0,0,1-.05.22c-.11.08-.29,0-.39.1a.24.24,0,0,0,0,.27c.31.45.73.81,1.06,1.25a1.33,1.33,0,0,1,.18.38s0,.13-.06.13c-.27,0-.55-.27-.7-.28s-.33.33-.49.29-.28-.22-.45-.29a1.94,1.94,0,0,0-.42-.07h0a1.52,1.52,0,0,1-.48-.1,3.89,3.89,0,0,1-.74-.6c-.21-.21-.34-.49-.56-.68a3.85,3.85,0,0,0-.52-.38c.94,1,1.23,1.62,2.12,2.59a18.1,18.1,0,0,0,2.59,2.36c.64.46,1.45.64,2.11,1.06.47.29.8.8,1.29,1.08a22.28,22.28,0,0,0,2.85,1.31A11,11,0,0,0,142,86a1.84,1.84,0,0,1-.69-.47c-.07-.09,0-.24-.09-.34s-.26-.1-.32-.21.08-.24,0-.34-.22-.17-.34-.25-.27-.11-.32-.22.1-.19.09-.29a.51.51,0,0,0-.15-.33c-.19-.16-.48-.17-.65-.35a.35.35,0,0,1,0-.38c.08-.15.36-.14.43-.3s-.06-.29-.16-.4-.27-.12-.4-.19-.34-.1-.34-.24.23-.07.34,0,.48.26.75.28.3-.12.46-.17.34-.14.5-.1.33.26.52.35.17,0,.25,0a5.93,5.93,0,0,0,1,.13c.15,0,.35-.05.42-.19a.56.56,0,0,0-.05-.53.64.64,0,0,0-.49-.23c-.22,0-.39.2-.6.26a.81.81,0,0,1-.46,0c-.28-.09-.49-.34-.76-.43s-.46.09-.62,0c-.53-.43-.85-1.06-1.34-1.53a.51.51,0,0,0-.42-.16Z" transform="translate(-121.47 -22.49)"/><path class="cls-17" d="M138.51,79.32c-.31.06-.57.3-.87.38-.11,0-.22-.07-.32-.07s-.39.1-.57.05a.74.74,0,0,1-.46-.28c-.09-.12,0-.3-.08-.45s-.07-.31-.19-.37c-.36-.19-.81-.15-1.17-.34-.09,0,0-.21-.09-.29s-.44-.3-.62-.49c0,0-.06-.19,0-.17s.31.29.5.38.25,0,.36,0,.21.28.36.31.48-.07.72,0,.51.22.78.24c.1,0,.23-.07.23-.16,0-.32-.24-.62-.18-.94a.43.43,0,0,1,.44-.3h0c-.06-.09-.11-.19-.16-.28s-.21.1-.33,0c-.62-.28-1.5-.76-1.66-.58s.44,1.05-.33.74a13.32,13.32,0,0,1-1.24-.66c-2.05-1.07-.77.19-.28.94a.19.19,0,0,1-.05.22c-.11.08-.29,0-.39.1a.24.24,0,0,0,0,.27c.31.45.73.81,1.06,1.25a1.33,1.33,0,0,1,.18.38s0,.13-.06.13c-.27,0-.55-.27-.7-.28s-.33.33-.49.29-.28-.22-.45-.29a1.94,1.94,0,0,0-.42-.07h0a1.52,1.52,0,0,1-.48-.1,3.89,3.89,0,0,1-.74-.6c-.21-.21-.34-.49-.56-.68a3.85,3.85,0,0,0-.52-.38c.94,1,1.23,1.62,2.12,2.59a18.1,18.1,0,0,0,2.59,2.36c.64.46,1.45.64,2.11,1.06.47.29.8.8,1.29,1.08a22.28,22.28,0,0,0,2.85,1.31A11,11,0,0,0,142,86a1.84,1.84,0,0,1-.69-.47c-.07-.09,0-.24-.09-.34s-.26-.1-.32-.21.08-.24,0-.34-.22-.17-.34-.25-.27-.11-.32-.22.1-.19.09-.29a.51.51,0,0,0-.15-.33c-.19-.16-.48-.17-.65-.35a.35.35,0,0,1,0-.38c.08-.15.36-.14.43-.3s-.06-.29-.16-.4-.27-.12-.4-.19-.34-.1-.34-.24.23-.07.34,0,.48.26.75.28.3-.12.46-.17.34-.14.5-.1.33.26.52.35.17,0,.25,0a5.93,5.93,0,0,0,1,.13c.15,0,.35-.05.42-.19a.56.56,0,0,0-.05-.53.64.64,0,0,0-.49-.23c-.22,0-.39.2-.6.26a.81.81,0,0,1-.46,0c-.28-.09-.49-.34-.76-.43s-.46.09-.62,0c-.53-.43-.85-1.06-1.34-1.53a.51.51,0,0,0-.42-.16Z" transform="translate(-121.47 -22.49)"/><path class="cls-18" d="M137.31,35.75c0-.52.15-.13.51-.46.11-.1-.11-.29-.15-.26-.42.29-.18-.12-.44.35-.14.26-.49-.06-.58.4,0,.15-.63.48-.76.68s-1.19,1.1-.26.76c.15-.06.39-.58.92-.79.17-.06.76-.5.76-.68Zm1.45-1.08c.67-.32,1.19-1,2.05-.83s0-.8,1.06-.75c.55,0,.79-.43.13-.73-1.23-.54-1.22.86-2,.81-.57,0-1.08.7-1.42,1.11s-.26.61.19.39ZM143.2,33c.31.33,1.38-.3,1.79-.05.21.12,0,.43-.14.72s.2.31.56,0a9.09,9.09,0,0,1,2.3-1.67c.42-.15.95-.18.61.11-.11.09-.12.9.75.26,1.46-1.09,1,0,1.18.07.46.19,1.35-.63,1.61-.11s-.86.57-.34,1,1-.86,1.69-.89c0,0,1.27-1.07,1.19.19,0,0-.76.87.19.61.46-.13.47-1.64,1-1.1.19.2-.12.9.22,1.28.15.16-.45,1.43.48,1.24.48-.1.26-1.79.33-2,.16-.63.74-.36,1.13,0,.1.09.26.33.54.28.81-.13,1,.17.94.7a1.32,1.32,0,0,0,.47,1.28c.2.2.62.9.81.49a.63.63,0,0,0-.09-.73,1.87,1.87,0,0,1-.3-.68c-.08-.53,1-.76,1.06,0,0,.22.09.44.67.44a1.73,1.73,0,0,1,1.66,1.22c.08.56,1.67.6,1.13-.57-.12-.28.16-.28.53-.22a7.25,7.25,0,0,0-.49-.7l-.24-.29c-.3,0-.52.05-.52.33s.14.45-.29.31a7.46,7.46,0,0,0-1.15-.93c-.36-.15-1-.85-.08-.89.12,0,.71.32,1.11.39a8.21,8.21,0,0,1-.81-.48c-.35-.25-.65-.55-1-.83,0,0,0,0,0,0a6.12,6.12,0,0,0-.78-1.25,4,4,0,0,0-1.3-.8c-.43-.18-.92-.18-1.36-.34-.67-.26-1.26-.69-1.94-.9a11.51,11.51,0,0,0-2.39-.48,8.69,8.69,0,0,0-1.13.13,3.73,3.73,0,0,1-.88-.06c-.21,0-.37-.25-.59-.25a24.57,24.57,0,0,0-2.84.26,4,4,0,0,0-.59.16,2,2,0,0,1-.21.22c-.08.07-2.67.09-1.81.69.28.19,1.61-.2,1,.63s-3.34.39-3.93,1.22c-.05.06-1.07.39-.5.9s1.45-.56,2.09-.38c.48.14,3.51-1.16,3.46-.39,0,.43-1.62.57-2.68.78-.3.06-1.67.4-1.87.48s-.5.32-.2.65Z" transform="translate(-121.47 -22.49)"/><path class="cls-19" d="M134.72,62.5c-.21-.09-.44.15-.62.28s-.4.68-.74.78-.81-.31-1.21-.24-.31.53-.57.54a.83.83,0,0,1-.69-.48c-.11-.24.15-.52.13-.78s-.34-.46-.28-.72a10.53,10.53,0,0,1,.77-1.49c.08-.2.22-.48.07-.64s-.31.15-.48.18a2.12,2.12,0,0,1-1.16.1.84.84,0,0,1-.49-.79c0-.24.47-.21.59-.41s0-.58.1-.83a.5.5,0,0,1,.39-.23c.23,0,.45.28.67.21s.32-.52.59-.62.75.11,1.08,0c.16-.06.17-.31.15-.48,0-.39-.37-.75-.31-1.13,0-.22.43-.18.54-.36s0-.46.08-.65a2.25,2.25,0,0,1,.75-.72c.37-.22.94-.11,1.23-.43s0-.68,0-1a3.3,3.3,0,0,1,.33-1.15c.07-.13.32-.06.41-.18.25-.34.26-.84.57-1.13a.46.46,0,0,1,.16-.11,1.11,1.11,0,0,0-.45.17c-.18.16-.1.69-.45.71-.1,0-.54-.28-.73,0s.12.7.07.86-.19.08-.23.17,0,.67-.45.87c-.27.11-.9-.35-1.12.27-.1.28.26.9-.18,1.07-.13,0-.3,0-.39.14s0,.3-.11.38c-1.59,1.26-2.9.18-4.42,1.53-.68.61-.64,1.15.06,1.08.3,0,.58-.12.71.16s0,.42-.15.59a3.58,3.58,0,0,1-.81.61v0c-.09.18-.28.29-.37.47a2.12,2.12,0,0,0-.11.45s0,0,0,0a2.6,2.6,0,0,1,.49.18c.19.12.46.23.49.45s-.29.4-.31.64a.59.59,0,0,0,.23.5,4.57,4.57,0,0,0,1.26.37c.08,0,.22-.06.25,0s-.1.37,0,.52.39.18.45.36-.14.4-.14.61a1,1,0,0,0,.17.54,6.53,6.53,0,0,0,1,1.09,1.55,1.55,0,0,0,.83.49c.31,0,.55-.36.87-.39s.54.05.62.26-.3.71-.16,1a.27.27,0,0,0,.07.08c.35-.33.64-.74,1-1.08.62-.61.73.3,1.7-.1a5.34,5.34,0,0,0,.86-.57c.92-.58.91,0,.59.28s.17.74.35.28c.11-.27.24-.75.38-1.17.27-.79.7-1.32,1.07-.83.1.13.28.18.42-.09a11.35,11.35,0,0,0,.36-1.18c.23-.76.4-.69.31,0a4,4,0,0,0,0,.68c.05.44.33.49.53.06s.38-1.16.53-1.61a1.55,1.55,0,0,1,.7-.83c.27-.14.3,0,.29.16a.16.16,0,0,0,.1.19c.51.14,2.2-2.12,2.48-2.57a3.75,3.75,0,0,1,.45-.65,6.86,6.86,0,0,1,1.35-.77c.42-.2.88-.32,1.28-.55a2.69,2.69,0,0,0,.71-.59,6.81,6.81,0,0,0,.45-.73c.19-.27.49-.61.62-.36a.37.37,0,0,0-.05-.11c-.09-.16-.39,0-.54.1-.43.33-.7.85-1.13,1.18a15,15,0,0,1-1.8,1.11,6.9,6.9,0,0,0-1.05.62c-.29.24-.44.62-.72.87a10.49,10.49,0,0,1-1.85,1.47c-.47.26-1.09.16-1.54.43-.24.14-.13.63-.39.72s-.66-.29-1-.23-.3.3-.39.49-.1.78-.33,1.08-.56.17-.77.36c-.38.34-.58.84-1,1.18a2.58,2.58,0,0,1-1.06.64,1.14,1.14,0,0,1-.92-.15c-.22-.15-.19-.5-.34-.72s-.36-.7-.69-.85Zm-4.84-7.66a7.7,7.7,0,0,1,.92-.08c.52,0,.43-.49,0-.85a.9.9,0,0,0-.87-.1c-.09,0-.13.21-.22.27a7.89,7.89,0,0,0-1,.49,1,1,0,0,0-.38.39c-.1.21,0,.25.08.24.51,0,1-.27,1.49-.36Z" transform="translate(-121.47 -22.49)"/><path class="cls-20" d="M142.07,26.66c.78-.13,2.69-1.1,3.81-1.41a9.58,9.58,0,0,1,2.93-.37c.39,0,.55-.19.58-.42.17-1.21-2.7-2.77-4.27-1.49-1.28-.66-2.92-.79-3.9.62-.76,1.09-1.31,3.43.85,3.07Z" transform="translate(-121.47 -22.49)"/><path class="cls-21" d="M142,24.27c-1,.59-1.25,2.08-.27,2.43l.36,0c.78-.13,2.69-1.1,3.81-1.41a8.81,8.81,0,0,1,2.65-.36c1.08-.71-1.32-1.71-2.14-1.62a1.11,1.11,0,0,0-1,1.3,3.54,3.54,0,0,0-3.43-.3Z" transform="translate(-121.47 -22.49)"/><path class="cls-22" d="M132.44,72.29A9.65,9.65,0,0,1,130.33,65c.47-2.88,2.58-2.81,3.37-2.45a8.09,8.09,0,0,1,2.36-6.26c2.19-1.95,4.1.21,3.38,1.9-2.74,6.43-4.56,10.53-1.55,17.77a25.08,25.08,0,0,0,11.34,12.25c-4.76,1.73-10.84-.5-15-5.57-1.4-1.68-2.36-4.35-.9-5.21a4.08,4.08,0,0,1-2.34-2.91,1.85,1.85,0,0,1,1.5-2.23Z" transform="translate(-121.47 -22.49)"/><path class="cls-23" d="M138.28,61c.11-2.5-1.44-3.5-3-1.38a6.07,6.07,0,0,0-.64,5.4c-4.81-1.52-3.56,5.39-1.15,8.16-3.49.76-1.33,4.21,1.12,4.41-3,3.62,4,10.4,11.06,11.24a10,10,0,0,0,3.54-.58A25.08,25.08,0,0,1,137.89,76c-2.56-6.15-1.63-10,.39-15Z" transform="translate(-121.47 -22.49)"/><path class="cls-24" d="M126.13,67c.73-1.75-.17-4,1.63-11.3.33-1.32.91-2.6,1.31-3.87.09-.28.25-.75-.56-.65s-2.53,1.79-3,2.58a3.24,3.24,0,0,0,.09,3.74c-2.44.8-4.3,2.65-4.14,5.43.21,3.64,4,5.54,4.65,4.07Z" transform="translate(-121.47 -22.49)"/><path class="cls-25" d="M124.26,63.58c-2.66,1.3-2.8-1.47-2.15-3.42a5,5,0,0,0-.63,2.79c.21,3.64,4,5.54,4.65,4.07.73-1.75-.17-4,1.63-11.3.33-1.32.91-2.6,1.31-3.87.09-.28.25-.75-.56-.65a3.88,3.88,0,0,0-1.84,1.19c.83-.68,1.37-.88,1.42-.71s-.62,1.58-1,3.3c-.26,1.22.14,2.81-1.19,2.68,1.19,2.2.69,4.78-1.66,5.92Z" transform="translate(-121.47 -22.49)"/><path class="cls-26" d="M136.29,45.93a6.5,6.5,0,0,1,3-3.74c-.9-.49-2.66-2.22-.34-5.22s6.81-4.71,8-1.63a2.82,2.82,0,0,1,2.62-1.18,1.45,1.45,0,0,1,1,.91,6,6,0,0,1,6.15-4c4.28.52,5.07,4.49.65,6.07-3,1.07-5.71.93-9.11,2.45-3.61,1.6-5.25,2.66-7.41,5.89-.42.62-.71,1.32-1.16,1.92-1.76,2.37-3.88,1.24-3.3-1.46Z" transform="translate(-121.47 -22.49)"/><path class="cls-27" d="M140.78,43.53a7.43,7.43,0,0,1-2.58,4.22c-.8.52-1.6.51-2-.54.23,1.71,1.92,2.13,3.37.18.45-.6.74-1.3,1.16-1.92,2.16-3.23,3.8-4.29,7.41-5.89,3.4-1.52,6.13-1.38,9.11-2.45,4.42-1.58,3.63-5.55-.65-6.07l-.33,0c3.71.76,3.68,3.34,1.82,4.87a8,8,0,0,1-5.81,1.63,2.37,2.37,0,0,1-1.92-1.44c-.5,2.35-3.25,2.48-3.59-.2.09,4.26-4.1,7.09-7.11,6.36.83.26,1.11.73,1.1,1.28Z" transform="translate(-121.47 -22.49)"/><path class="cls-28" d="M184.1,44.67c2.47-4.79-3.35-9.65-6.63-5.85-1-2.36-5.58-3.15-7.29-.86a3.72,3.72,0,0,0-.57,3.18c-1.4-.87-2.8,0-3,2.12a12.72,12.72,0,0,0-13.93,7.39c-2.21,5.21.29,9,4.22,8.68s4.75-5.1,6.45-8c1-1.71,2.54-4,4.53-2.6.75.51,2.29,1.69,3.87.51,1.78-1.32,3.06-3.86,5.71-5.61s5.79-2.22,6.67,1Z" transform="translate(-121.47 -22.49)"/><path class="cls-29" d="M166.27,45.28c-3.13,1.39-4.1,5-5.87,7.65-3.25,4.93-8.55,5.71-8.31-.64-1.09,4.35,1.28,7.36,4.78,7,4-.37,4.75-5.1,6.45-8,1-1.71,2.54-4,4.53-2.6.75.51,2.29,1.69,3.87.51,1.78-1.32,3.06-3.86,5.71-5.61s5.79-2.22,6.67,1a5,5,0,0,0-1.8-6.61c.66.8,1.37,2,.23,2.69s-3.88-.38-5-1.21c-.07,3.74-3.63,4.48-6.49,2.82a5.73,5.73,0,0,1,1.67,1.55c1.38,2.05-.76,3.56-2.41,3.06a2,2,0,0,1-1.22-1.24c-.49-1.12-1.7-.94-2.8-.45Z" transform="translate(-121.47 -22.49)"/><path class="cls-30" d="M188.1,46.28a1.14,1.14,0,0,0-.95-.49.81.81,0,0,0-.56.73c-.07.95,1.61,3.77,1.2,7-.11.8-.37,1.38-.17,1.51s.69-.07,1.49-.75c1.46-1.24,2.71-3.32,1.31-4.76a4.25,4.25,0,0,0-1.77-1.13,2.27,2.27,0,0,0-.55-2.11Z" transform="translate(-121.47 -22.49)"/><path class="cls-31" d="M190,51a2.74,2.74,0,0,0-2.3-2.16c.22-1-.52-2.23-1-1.72.33,1.27,1.47,3.7,1.12,6.43-.11.8-.37,1.38-.17,1.51s.37,0,.76-.21A4.67,4.67,0,0,0,190,51Z" transform="translate(-121.47 -22.49)"/><path class="cls-32" d="M167.61,86c-9.67,7.2-18.2-6.77-11.09-9.47-1.89-6.23,2.49-13.73,7.13-12.65a3.18,3.18,0,0,1,2.3,3.14c1.12-4.08,7.11-7.47,7.82-3.14,3.2-5.8,10.86-5.42,8.65,3.83A17.43,17.43,0,0,1,178.3,76c-3.34,3.82-10.36,3-4.74-3.51.36-.41,1.17-1.44,1.93-2.54,1.57-2.29,1.9-5.18-1.58-3.8-.93.37-2.29,1.52-3,1.87-1.77.88-2.69.79-4.38,1.82-4.66,2.86-3.17,5-2.87,7.62.21,1.71-.29,2.32-.93,2.74-1.72,1.11-3,2.75-1.6,4.86,1.15,1.78,4.35,2.18,6.47,1Z" transform="translate(-121.47 -22.49)"/><path class="cls-33" d="M161.14,85.05c-1.35-2.11-.12-3.75,1.6-4.86.64-.42,1.14-1,.93-2.74-.3-2.59-1.79-4.76,2.87-7.62,1.69-1,2.61-.94,4.38-1.82.7-.35,2.06-1.5,3-1.87,3.48-1.38,3.15,1.51,1.58,3.8-.76,1.1-1.57,2.13-1.93,2.54-4.1,4.77-1.47,6.48,1.55,5.58a4.86,4.86,0,0,0,2.22-1.38c3.17-3.4,5.33-10.1,1.78-12.76-1.43-1.07-3.62-.87-5.82,1.89.89-4.84-6.44-1-7.63,3.6-.15-5.64-4.94-3.4-6,1.14a12.28,12.28,0,0,0,.82,7.5A3.08,3.08,0,0,0,157,79.87c-1.66,4.5,5.18,9.36,10.64,6.17-2.12,1.19-5.32.79-6.47-1Z" transform="translate(-121.47 -22.49)"/></g></g></svg>